<?xml version="1.0" encoding="UTF-8"?>
<svg width="500px" height="500px" viewBox="0 0 500 500" version="1.1" xmlns="http://www.w3.org/2000/svg" xmlns:xlink="http://www.w3.org/1999/xlink">
    <!-- Generator: Sketch 52.6 (67491) - http://www.bohemiancoding.com/sketch -->
    <title>close</title>
    <desc>Created with Sketch.</desc>
    <defs>
        <path d="M323.451341,253.47175 L466.036878,110.885238 C473.283286,103.638835 473.283286,91.8892256 466.036878,84.642822 L415.299852,33.9068839 C408.053444,26.6599511 396.304887,26.6599511 389.056891,33.9068839 L246.471354,176.492338 L103.885816,33.9068839 C96.6388789,26.6599511 84.8897921,26.6599511 77.642855,33.9068839 L26.9068871,84.642822 C19.65995,91.8892256 19.65995,103.638835 26.9068871,110.885238 L169.492954,253.47175 L26.9068871,396.056675 C19.65995,403.304137 19.65995,415.052688 26.9068871,422.300679 L77.642855,473.036617 C81.2660589,476.65929 86.0148003,478.471684 90.7640709,478.471684 C95.5133414,478.471684 100.262083,476.65929 103.885816,473.036617 L246.471354,330.451163 L389.056891,473.036617 C392.681153,476.65929 397.429895,478.471684 402.179165,478.471684 C406.928436,478.471684 411.677177,476.65929 415.299852,473.036617 L466.036878,422.300679 C473.283286,415.053217 473.283286,403.304666 466.036878,396.056675 L323.451341,253.47175 Z" id="path-1"></path>
    </defs>
    <g id="close" stroke="none" stroke-width="1" fill="none" fill-rule="evenodd">
        <mask id="mask-2" fill="white">
            <use xlink:href="#path-1"></use>
        </mask>
        <use id="Shape" fill="#000000" fill-rule="nonzero" xlink:href="#path-1"></use>
    </g>
</svg>
