<?xml version="1.0" encoding="utf-8"?>
<!-- Generator: Adobe Illustrator 27.0.1, SVG Export Plug-In . SVG Version: 6.00 Build 0)  -->
<svg version="1.1" id="Ebene_1" xmlns="http://www.w3.org/2000/svg" xmlns:xlink="http://www.w3.org/1999/xlink" x="0px" y="0px"
	 viewBox="0 0 158 30" style="enable-background:new 0 0 158 30;" xml:space="preserve">
<style type="text/css">
	.st0{fill:#265359;}
	.st1{fill:#FFFFFF;}
</style>
<path class="st0" d="M58,30H36c-2.2,0-4-1.8-4-4V4c0-2.2,1.8-4,4-4h22c2.2,0,4,1.8,4,4v22C62,28.2,60.2,30,58,30z"/>
<path class="st0" d="M122,30h-22c-2.2,0-4-1.8-4-4V4c0-2.2,1.8-4,4-4h22c2.2,0,4,1.8,4,4v22C126,28.2,124.2,30,122,30z"/>
<path class="st0" d="M90,30H68c-2.2,0-4-1.8-4-4V4c0-2.2,1.8-4,4-4h22c2.2,0,4,1.8,4,4v22C94,28.2,92.2,30,90,30z"/>
<path class="st0" d="M154,30h-22c-2.2,0-4-1.8-4-4V4c0-2.2,1.8-4,4-4h22c2.2,0,4,1.8,4,4v22C158,28.2,156.2,30,154,30z"/>
<path class="st0" d="M26,30H4c-2.2,0-4-1.8-4-4V4c0-2.2,1.8-4,4-4h22c2.2,0,4,1.8,4,4v22C30,28.2,28.2,30,26,30z"/>
<g id="map">
	<g id="Shape" transform="translate(133.000000, 133.000000)">
		<path class="st1" d="M-88.4-123.7c0.1,0,0.1,0,0.1,0.1c0,0,0.1,0.1,0.1,0.1v9.4c0,0.1,0,0.1-0.1,0.2l-3.1,1.6c0,0-0.1,0-0.1,0
			c-0.1,0-0.1,0-0.1-0.1c0,0-0.1-0.1-0.1-0.1v-9.4c0-0.1,0-0.1,0.1-0.2L-88.4-123.7C-88.5-123.7-88.5-123.7-88.4-123.7z
			 M-80.5-123.7c0.1,0,0.1,0,0.1,0.1c0,0,0.1,0.1,0.1,0.1v9.4c0,0.1,0,0.1-0.1,0.2l-3.1,1.6c0,0-0.1,0-0.1,0c-0.1,0-0.1,0-0.1-0.1
			c0,0-0.1-0.1-0.1-0.1v-9.4c0-0.1,0-0.1,0.1-0.2L-80.5-123.7C-80.6-123.7-80.5-123.7-80.5-123.7z M-87.6-123.7
			C-87.6-123.7-87.6-123.7-87.6-123.7l3.4,1.7c0.1,0,0.1,0.1,0.1,0.2v9.4c0,0.1,0,0.1-0.1,0.1c0,0-0.1,0.1-0.1,0.1c0,0-0.1,0-0.1,0
			l-3.3-1.6c-0.1,0-0.1-0.1-0.1-0.2v-9.4c0-0.1,0-0.1,0.1-0.1C-87.7-123.7-87.7-123.7-87.6-123.7z"/>
	</g>
</g>
<path class="st1" d="M108,20.1v-1.5c0-0.1,0-0.1-0.1-0.2s-0.1-0.1-0.2-0.1h-2.5c-0.1,0-0.1,0-0.2,0.1s-0.1,0.1-0.1,0.2v1.5
	c0,0.1,0,0.1,0.1,0.2s0.1,0.1,0.2,0.1h2.5c0.1,0,0.1,0,0.2-0.1S108,20.2,108,20.1z M108,17.1v-1.5c0-0.1,0-0.1-0.1-0.2
	s-0.1-0.1-0.2-0.1h-2.5c-0.1,0-0.1,0-0.2,0.1s-0.1,0.1-0.1,0.2v1.5c0,0.1,0,0.1,0.1,0.2s0.1,0.1,0.2,0.1h2.5c0.1,0,0.1,0,0.2-0.1
	S108,17.2,108,17.1z M112,20.1v-1.5c0-0.1,0-0.1-0.1-0.2s-0.1-0.1-0.2-0.1h-2.5c-0.1,0-0.1,0-0.2,0.1s-0.1,0.1-0.1,0.2v1.5
	c0,0.1,0,0.1,0.1,0.2s0.1,0.1,0.2,0.1h2.5c0.1,0,0.1,0,0.2-0.1S112,20.2,112,20.1z M108,14.1v-1.5c0-0.1,0-0.1-0.1-0.2
	s-0.1-0.1-0.2-0.1h-2.5c-0.1,0-0.1,0-0.2,0.1s-0.1,0.1-0.1,0.2v1.5c0,0.1,0,0.1,0.1,0.2s0.1,0.1,0.2,0.1h2.5c0.1,0,0.1,0,0.2-0.1
	S108,14.2,108,14.1z M112,17.1v-1.5c0-0.1,0-0.1-0.1-0.2s-0.1-0.1-0.2-0.1h-2.5c-0.1,0-0.1,0-0.2,0.1s-0.1,0.1-0.1,0.2v1.5
	c0,0.1,0,0.1,0.1,0.2s0.1,0.1,0.2,0.1h2.5c0.1,0,0.1,0,0.2-0.1S112,17.2,112,17.1z M116,20.1v-1.5c0-0.1,0-0.1-0.1-0.2
	s-0.1-0.1-0.2-0.1h-2.5c-0.1,0-0.1,0-0.2,0.1s-0.1,0.1-0.1,0.2v1.5c0,0.1,0,0.1,0.1,0.2s0.1,0.1,0.2,0.1h2.5c0.1,0,0.1,0,0.2-0.1
	S116,20.2,116,20.1z M112,14.1v-1.5c0-0.1,0-0.1-0.1-0.2s-0.1-0.1-0.2-0.1h-2.5c-0.1,0-0.1,0-0.2,0.1s-0.1,0.1-0.1,0.2v1.5
	c0,0.1,0,0.1,0.1,0.2s0.1,0.1,0.2,0.1h2.5c0.1,0,0.1,0,0.2-0.1S112,14.2,112,14.1z M116,17.1v-1.5c0-0.1,0-0.1-0.1-0.2
	s-0.1-0.1-0.2-0.1h-2.5c-0.1,0-0.1,0-0.2,0.1s-0.1,0.1-0.1,0.2v1.5c0,0.1,0,0.1,0.1,0.2s0.1,0.1,0.2,0.1h2.5c0.1,0,0.1,0,0.2-0.1
	S116,17.2,116,17.1z M116,14.1v-1.5c0-0.1,0-0.1-0.1-0.2s-0.1-0.1-0.2-0.1h-2.5c-0.1,0-0.1,0-0.2,0.1s-0.1,0.1-0.1,0.2v1.5
	c0,0.1,0,0.1,0.1,0.2s0.1,0.1,0.2,0.1h2.5c0.1,0,0.1,0,0.2-0.1S116,14.2,116,14.1z M117,11.6v8.5c0,0.3-0.1,0.6-0.4,0.9
	c-0.2,0.2-0.5,0.4-0.9,0.4h-10.5c-0.3,0-0.6-0.1-0.9-0.4c-0.2-0.2-0.4-0.5-0.4-0.9v-8.5c0-0.3,0.1-0.6,0.4-0.9
	c0.2-0.2,0.5-0.4,0.9-0.4h10.5c0.3,0,0.6,0.1,0.9,0.4C116.9,11,117,11.3,117,11.6z"/>
<g id="scatter-copy">
	<path id="path-1-path" class="st1" d="M84.2,19.4h0.4c0.3,0,0.5,0.3,0.5,0.6c0,0.3-0.2,0.6-0.5,0.6h-12c-0.3,0-0.5-0.3-0.5-0.6V10
		c0-0.3,0.2-0.6,0.5-0.6s0.5,0.3,0.5,0.6v6.3l1.8-1.6l3.3,1.5l2.8-3l3-0.8c0.3-0.1,0.5,0.1,0.6,0.5c0.1,0.3-0.1,0.6-0.4,0.7
		l-2.7,0.7l-3.1,3.3l-3.4-1.5l-2,1.7v1.5h0.5v-1.2l1.5-1.3l0.3,0.1v2.4h1v-1.9l1.8,0.8v1.1h1v-1.8l1.8-2v3.8h1v-4.5l1.8-0.5V19.4z"
		/>
	<polygon id="path-1-path_00000044886617102370983170000016259373180778996867_" class="st1" points="75.5,14.3 74.8,14 73.6,15.1 
		73.6,12.3 75.5,12.3 	"/>
	<polygon id="path-1-path_00000108289442738792908060000014106125847441949849_" class="st1" points="78.4,15.3 78.1,15.5 
		76.5,14.8 76.5,11.5 78.4,11.5 	"/>
	<polygon id="path-1-path_00000030450344863258984680000006164320758072379837_" class="st1" points="81.3,12.6 80.8,12.7 
		79.4,14.2 79.4,10 81.3,10 	"/>
	<path id="path-1-path_00000180339876636777163810000004329657557013576324_" class="st1" d="M84.2,11.8c-0.1,0-0.1,0-0.2,0
		l-1.6,0.4v-2h1.8V11.8z"/>
</g>
<g id="mosaic-copy">
	<g id="Combined-Shape" viewBox="0 0 100 100" style="scale: 0.04;transform: translate(115px, 115px);fill: white;">
		<path d="M100,140H40c-22.1,0-40-17.9-40-40V40C0,17.9,17.9,0,40,0h60c22.1,0,40,17.9,40,40v60C140,122.1,122.1,140,100,140z"/>
		<path d="M280,140h-60c-22.1,0-40-17.9-40-40V40c0-22.1,17.9-40,40-40h60c22.1,0,40,17.9,40,40v60C320,122.1,302.1,140,280,140z"/>
		<path d="M460,140h-60c-22.1,0-40-17.9-40-40V40c0-22.1,17.9-40,40-40h60c22.1,0,40,17.9,40,40v60C500,122.1,482.1,140,460,140z"/>
		<path d="M100,320H40c-22.1,0-40-17.9-40-40v-60c0-22.1,17.9-40,40-40h60c22.1,0,40,17.9,40,40v60C140,302.1,122.1,320,100,320z"/>
		<path d="M280,320h-60c-22.1,0-40-17.9-40-40v-60c0-22.1,17.9-40,40-40h60c22.1,0,40,17.9,40,40v60C320,302.1,302.1,320,280,320z"/>
		<path d="M460,320h-60c-22.1,0-40-17.9-40-40v-60c0-22.1,17.9-40,40-40h60c22.1,0,40,17.9,40,40v60C500,302.1,482.1,320,460,320z"/>
		<path d="M100,500H40c-22.1,0-40-17.9-40-40v-60c0-22.1,17.9-40,40-40h60c22.1,0,40,17.9,40,40v60C140,482.1,122.1,500,100,500z"/>
		<path d="M280,500h-60c-22.1,0-40-17.9-40-40v-60c0-22.1,17.9-40,40-40h60c22.1,0,40,17.9,40,40v60C320,482.1,302.1,500,280,500z"/>
		<path d="M460,500h-60c-22.1,0-40-17.9-40-40v-60c0-22.1,17.9-40,40-40h60c22.1,0,40,17.9,40,40v60C500,482.1,482.1,500,460,500z"/>
	</g>
</g>
<path id="Fill-1_00000178195699091594637390000002369361399844124587_" class="st1" d="M145.7,14.7c-0.1-0.1-0.3-0.1-0.4,0
	c-0.2,0.1-0.3,0.2-0.3,0.3c-0.1,0.1-0.1,0.3,0,0.4c0.1,0.1,0.2,0.3,0.3,0.3c0.1,0.1,0.3,0.1,0.4,0c0.1-0.1,0.3-0.2,0.3-0.3
	c0.1-0.1,0.1-0.3,0-0.4C145.9,14.9,145.8,14.8,145.7,14.7"/>
<path id="Fill-3_00000124841980772640429780000002876657652877596297_" class="st1" d="M143.1,10.5c-0.3-0.1-0.6-0.1-0.9,0
	c-0.3,0.1-0.5,0.3-0.6,0.6c-0.1,0.3-0.1,0.6,0,0.9c0.1,0.3,0.3,0.5,0.6,0.6c0.3,0.1,0.6,0.1,0.9,0c0.3-0.1,0.5-0.3,0.6-0.6
	c0.1-0.3,0.1-0.6,0-0.9C143.6,10.8,143.4,10.6,143.1,10.5"/>
<path id="Fill-5_00000182521053825405120140000008769991869465983628_" class="st1" d="M147.2,15.7l-0.3,0.6c0,0-0.2,0-0.7-0.1
	c-0.1,0.1-0.1,0.1-0.2,0.2c0,0.4,0,0.6,0,0.7c0,0,0,0,0,0c-0.4,0.1-0.6,0.1-0.6,0.1c0,0-0.1-0.1-0.1-0.3c0-0.2-0.1-0.3-0.1-0.4
	c-0.1,0-0.1,0-0.1,0c0,0-0.1,0-0.1-0.1c-0.1,0-0.2,0.1-0.3,0.2c-0.2,0.1-0.3,0.1-0.3,0.1c0,0-0.1-0.2-0.4-0.5c0,0,0,0,0,0
	c0-0.1,0.2-0.2,0.5-0.5c0-0.1,0-0.2,0-0.3c-0.4-0.2-0.6-0.4-0.6-0.4l0.3-0.6c0,0,0.2,0,0.7,0.1c0.1-0.1,0.1-0.1,0.2-0.2
	c0-0.4,0-0.6,0-0.7c0,0,0,0,0,0c0,0,0.1,0,0.2,0c0.1,0,0.2,0,0.3,0c0.1,0,0.1,0,0.2,0c0,0,0.1,0.1,0.1,0.3c0,0.2,0.1,0.3,0.1,0.4
	c0.1,0,0.1,0,0.1,0c0,0,0.1,0,0.1,0.1c0.2-0.1,0.4-0.2,0.6-0.3l0,0c0,0,0.1,0.2,0.4,0.5c0,0,0,0,0,0c0,0.1-0.2,0.2-0.5,0.5
	c0,0.1,0,0.2,0,0.3C147,15.5,147.2,15.6,147.2,15.7 M143.2,14.4C143.2,14.3,143.1,14.3,143.2,14.4l-0.4-0.6c-0.1,0-0.2,0-0.4,0
	c-0.2,0.3-0.3,0.5-0.4,0.6c0,0.1-0.1,0.1-0.2,0l-0.8-0.3c0,0-0.1,0-0.1-0.1c0,0,0-0.1,0-0.1l0.2-0.7c-0.1-0.1-0.2-0.2-0.3-0.3
	l-0.6,0.2c0,0-0.1,0-0.1,0c0,0-0.1,0-0.1-0.1c-0.2-0.5-0.3-0.8-0.3-0.9c0,0,0,0,0.1-0.1c0,0,0.1-0.1,0.3-0.1
	c0.1-0.1,0.2-0.1,0.3-0.2c0-0.1,0-0.3,0-0.4l-0.6-0.4c0,0,0,0-0.1-0.1c0,0,0-0.1,0-0.1l0.3-0.8c0,0,0-0.1,0.1-0.1c0,0,0.1,0,0.1,0
	l0.7,0.2c0.1-0.1,0.2-0.2,0.3-0.3c0-0.2-0.1-0.4-0.2-0.6c0,0,0-0.1,0-0.1c0,0,0-0.1,0.1-0.1c0.1-0.1,0.3-0.1,0.5-0.2
	c0.2-0.1,0.4-0.1,0.4-0.1c0,0,0.1,0,0.1,0.1l0.3,0.6c0.1,0,0.2,0,0.4,0c0.2-0.3,0.3-0.5,0.4-0.6c0-0.1,0.1-0.1,0.2,0l0.8,0.3
	c0,0,0.1,0,0.1,0.1c0,0,0,0.1,0,0.1l-0.2,0.7c0.1,0.1,0.2,0.2,0.3,0.3L145,10c0,0,0.1,0,0.1,0c0,0,0.1,0,0.1,0.1
	c0.2,0.5,0.3,0.8,0.3,0.9c0,0,0,0-0.1,0.1c-0.1,0-0.1,0.1-0.3,0.1c-0.1,0.1-0.2,0.1-0.3,0.2c0,0.2,0,0.3,0,0.4l0.6,0.4
	c0,0,0,0,0.1,0.1c0,0,0,0.1,0,0.1l-0.3,0.8c0,0,0,0.1-0.1,0.1c0,0-0.1,0-0.1,0l-0.7-0.2c-0.1,0.1-0.2,0.2-0.3,0.3
	c0,0.2,0.1,0.4,0.2,0.6c0,0,0,0.1,0,0.1c0,0,0,0.1-0.1,0.1c-0.1,0.1-0.3,0.1-0.5,0.2C143.4,14.3,143.3,14.4,143.2,14.4 M149.6,11.9
	c-0.3-1.7-1.2-2.9-2.6-3.6c-0.6-0.3-1.2-0.4-1.9-0.5c-0.3,0-1.5-0.1-1.8-0.1c-1.9,0.1-3.3,0.7-4.4,1.6c-1,0.9-1.6,2.3-1.6,3.6
	c0,0.3,0,0.3,0.1,0.5c0.2,0.2,0.2,0.3,0.1,0.4c-0.1,0.1-0.3,0.6-0.8,1.2c-0.4,0.6-0.5,0.8-0.5,0.9c0,0.3,0.3,0.5,0.7,0.6
	c0.1,0,0.2,0,0.2,0.1c0.1,0.1,0.1,0.3,0,0.5c-0.1,0.3-0.1,0.4,0,0.5c0.1,0.1,0.2,0.2,0.1,0.3c-0.1,0.2-0.1,0.3,0.1,0.4
	c0.1,0.1,0.2,0.2,0.2,0.3c0,0.1,0,0.2-0.1,0.3c-0.1,0.2-0.1,0.4-0.1,0.6c0.1,0.3,0.3,0.6,0.5,0.7c0.4,0.2,0.7,0.2,1.5,0.3
	c0.6,0,0.8,0,0.9,0.1c0.2,0,0.3,0.2,0.4,0.3c0.1,0.1,0.1,0.5,0.1,0.7l0,0.1h3.5c1.9,0,3.5,0,3.5,0c0,0,0-0.1-0.1-0.3
	c-0.6-1.8-0.5-3.3,0.4-4.9c0.1-0.2,0.3-0.6,0.6-1c0.6-1,0.8-1.5,0.9-2.1C149.7,13.2,149.7,12.3,149.6,11.9"/>
</svg>
