<?xml version="1.0" encoding="UTF-8"?>
<svg width="346px" height="494px" viewBox="0 0 346 494" version="1.1" xmlns="http://www.w3.org/2000/svg" xmlns:xlink="http://www.w3.org/1999/xlink">
    <!-- Generator: Sketch 52.6 (67491) - http://www.bohemiancoding.com/sketch -->
    <title>Fill-4</title>
    <desc>Created with Sketch.</desc>
    <g id="Page-1" stroke="none" stroke-width="1" fill="none" fill-rule="evenodd">
        <g id="drop" transform="translate(-80.000000, -1.000000)" fill="#E2E2E2">
            <path d="M53.6359963,247.995064 C69.3960538,191.012769 103.034985,145.164178 120.312777,124.299141 L60.4240577,64.5296606 C56.8200655,60.9217792 55.503527,56.5299756 56.8058737,52.4733029 C58.1315949,48.3464283 61.8783449,45.4831896 67.0843887,44.6257223 L338.268744,-2.87679477 C343.038169,-3.71504012 347.547125,-2.43051062 350.633519,0.647512695 C353.724921,3.72887903 355.028936,8.24186475 354.210796,13.0289724 C354.210796,13.0323154 354.20996,13.0364941 354.208292,13.0398371 L307.346373,284.617107 C306.766996,287.833027 305.46298,290.475631 303.604632,292.335984 C302.421668,293.520224 301.013298,294.388556 299.423768,294.886656 C295.416549,296.141935 291.063707,294.804754 287.480586,291.217766 L221.022533,224.870191 C174.381845,270.951118 85.6302982,361.608642 119.459574,449.023504 C120.576586,451.9068 119.509663,455.174536 116.909146,456.845176 C114.308627,458.512473 110.894978,458.117169 108.745273,455.898285 C77.2535412,423.404787 57.204091,387.369433 49.1512505,348.790092 C42.4750575,316.807231 43.9844432,282.894651 53.6359963,247.995064 Z" id="Fill-4" transform="translate(199.757131, 227.372355) rotate(-225.000000) translate(-199.757131, -227.372355) "></path>
        </g>
    </g>
</svg>