<?xml version="1.0" encoding="utf-8"?>
<!-- Generator: Adobe Illustrator 27.0.1, SVG Export Plug-In . SVG Version: 6.00 Build 0)  -->
<svg version="1.1" id="Ebene_1" xmlns="http://www.w3.org/2000/svg" xmlns:xlink="http://www.w3.org/1999/xlink" x="0px" y="0px"
	 viewBox="0 0 40 40" style="enable-background:new 0 0 40 40;" xml:space="preserve">
<style type="text/css">
	.st0{fill:#1b1c1e00;}
	.st1{fill:#265359;}
</style>
<g id="save">
	<g>
		<g id="Shape">
			<path id="path-1_00000042729733420385038910000005233055669327263366_" class="st1" d="M16.5,25.8h7v-3.5h-7V25.8z M24.7,25.8
				h1.2v-8.2c0-0.1,0-0.2-0.1-0.4c-0.1-0.1-0.1-0.3-0.2-0.3L23,14.4c-0.1-0.1-0.2-0.1-0.3-0.2c-0.1-0.1-0.3-0.1-0.4-0.1V18
				c0,0.2-0.1,0.4-0.3,0.6s-0.4,0.3-0.6,0.3h-5.2c-0.2,0-0.4-0.1-0.6-0.3c-0.2-0.2-0.3-0.4-0.3-0.6v-3.8h-1.2v11.7h1.2V22
				c0-0.2,0.1-0.4,0.3-0.6c0.2-0.2,0.4-0.3,0.6-0.3h7.6c0.2,0,0.4,0.1,0.6,0.3s0.3,0.4,0.3,0.6V25.8z M21.2,17.4v-2.9
				c0-0.1,0-0.1-0.1-0.2c-0.1-0.1-0.1-0.1-0.2-0.1h-1.8c-0.1,0-0.1,0-0.2,0.1c-0.1,0.1-0.1,0.1-0.1,0.2v2.9c0,0.1,0,0.1,0.1,0.2
				s0.1,0.1,0.2,0.1h1.8c0.1,0,0.1,0,0.2-0.1S21.2,17.5,21.2,17.4z M27,17.7v8.5c0,0.2-0.1,0.4-0.3,0.6S26.4,27,26.1,27H13.9
				c-0.2,0-0.4-0.1-0.6-0.3c-0.2-0.2-0.3-0.4-0.3-0.6V13.9c0-0.2,0.1-0.4,0.3-0.6c0.2-0.2,0.4-0.3,0.6-0.3h8.5
				c0.2,0,0.5,0.1,0.8,0.2c0.3,0.1,0.5,0.3,0.7,0.4l2.6,2.6c0.2,0.2,0.3,0.4,0.4,0.7C26.9,17.2,27,17.4,27,17.7z"/>
		</g>
	</g>
</g>
</svg>
