<?xml version="1.0" encoding="utf-8"?>
<!-- Generator: Adobe Illustrator 27.0.0, SVG Export Plug-In . SVG Version: 6.00 Build 0)  -->
<svg version="1.1" id="Ebene_1" xmlns="http://www.w3.org/2000/svg" xmlns:xlink="http://www.w3.org/1999/xlink" x="0px" y="0px"
	 viewBox="0 0 500 500" style="enable-background:new 0 0 500 500;" xml:space="preserve">
<style type="text/css">
	.st0{fill:#E6E6E6;}
	.st1{fill:#FFFFFF;stroke:#B3B3B3;stroke-width:4;stroke-miterlimit:10;}
	.st2{fill:#B3B3B3;}
	.st3{fill:#B3B3B3;stroke:#B3B3B3;stroke-width:5;stroke-miterlimit:10;}
	.st4{fill:#B3B3B3;stroke:#999999;stroke-width:5;stroke-miterlimit:10;}
</style>
<g>
	<circle class="st0" cx="250" cy="250" r="244.6"/>
</g>
<g>
	<path class="st1" d="M464.5,197.5h-294c-4.4,0-8-3.6-8-8v-89c0-4.4,3.6-8,8-8h294c4.4,0,8,3.6,8,8v89
		C472.5,193.9,468.9,197.5,464.5,197.5z"/>
	<path class="st2" d="M352.4,128.8H186.5c-2.2,0-4-1.8-4-4v-8.3c0-2.2,1.8-4,4-4h165.9c2.2,0,4,1.8,4,4v8.3
		C356.4,127,354.6,128.8,352.4,128.8z"/>
	<path class="st2" d="M287.2,153.8H186.5c-2.2,0-4-1.8-4-4v-8.3c0-2.2,1.8-4,4-4h100.7c2.2,0,4,1.8,4,4v8.3
		C291.2,152,289.4,153.8,287.2,153.8z"/>
</g>
<g>
	<path class="st1" d="M139.5,145h-104c-4.4,0-8-3.6-8-8v-36.5c0-4.4,3.6-8,8-8h104c4.4,0,8,3.6,8,8V137
		C147.5,141.4,143.9,145,139.5,145z"/>
	<path class="st2" d="M123.5,118.8h-82c-2.2,0-4-1.8-4-4v-8.3c0-2.2,1.8-4,4-4h82c2.2,0,4,1.8,4,4v8.3
		C127.5,117,125.7,118.8,123.5,118.8z"/>
</g>
<g>
	<path class="st1" d="M139.5,197.5h-104c-4.4,0-8-3.6-8-8V153c0-4.4,3.6-8,8-8h104c4.4,0,8,3.6,8,8v36.5
		C147.5,193.9,143.9,197.5,139.5,197.5z"/>
	<path class="st2" d="M123.5,171.3h-82c-2.2,0-4-1.8-4-4V159c0-2.2,1.8-4,4-4h82c2.2,0,4,1.8,4,4v8.3
		C127.5,169.5,125.7,171.3,123.5,171.3z"/>
</g>
<g>
	<path class="st1" d="M139.5,250h-104c-4.4,0-8-3.6-8-8v-36.5c0-4.4,3.6-8,8-8h104c4.4,0,8,3.6,8,8V242
		C147.5,246.4,143.9,250,139.5,250z"/>
	<path class="st2" d="M123.5,223.8h-82c-2.2,0-4-1.8-4-4v-8.3c0-2.2,1.8-4,4-4h82c2.2,0,4,1.8,4,4v8.3
		C127.5,222,125.7,223.8,123.5,223.8z"/>
</g>
<g>
	<path class="st1" d="M139.5,302.5h-104c-4.4,0-8-3.6-8-8V258c0-4.4,3.6-8,8-8h104c4.4,0,8,3.6,8,8v36.5
		C147.5,298.9,143.9,302.5,139.5,302.5z"/>
	<path class="st2" d="M123.5,276.3h-82c-2.2,0-4-1.8-4-4V264c0-2.2,1.8-4,4-4h82c2.2,0,4,1.8,4,4v8.3
		C127.5,274.5,125.7,276.3,123.5,276.3z"/>
</g>
<g>
	<path class="st1" d="M139.5,355h-104c-4.4,0-8-3.6-8-8v-36.5c0-4.4,3.6-8,8-8h104c4.4,0,8,3.6,8,8V347
		C147.5,351.4,143.9,355,139.5,355z"/>
	<path class="st2" d="M123.5,328.8h-82c-2.2,0-4-1.8-4-4v-8.3c0-2.2,1.8-4,4-4h82c2.2,0,4,1.8,4,4v8.3
		C127.5,327,125.7,328.8,123.5,328.8z"/>
</g>
<g>
	<path class="st1" d="M139.5,407.5h-104c-4.4,0-8-3.6-8-8V363c0-4.4,3.6-8,8-8h104c4.4,0,8,3.6,8,8v36.5
		C147.5,403.9,143.9,407.5,139.5,407.5z"/>
	<path class="st2" d="M123.5,381.3h-82c-2.2,0-4-1.8-4-4V369c0-2.2,1.8-4,4-4h82c2.2,0,4,1.8,4,4v8.3
		C127.5,379.5,125.7,381.3,123.5,381.3z"/>
</g>
<g>
	<path class="st1" d="M464.5,317.5h-294c-4.4,0-8-3.6-8-8v-89c0-4.4,3.6-8,8-8h294c4.4,0,8,3.6,8,8v89
		C472.5,313.9,468.9,317.5,464.5,317.5z"/>
	<path class="st2" d="M352.4,248.8H186.5c-2.2,0-4-1.8-4-4v-8.3c0-2.2,1.8-4,4-4h165.9c2.2,0,4,1.8,4,4v8.3
		C356.4,247,354.6,248.8,352.4,248.8z"/>
	<path class="st2" d="M287.2,273.8H186.5c-2.2,0-4-1.8-4-4v-8.3c0-2.2,1.8-4,4-4h100.7c2.2,0,4,1.8,4,4v8.3
		C291.2,272,289.4,273.8,287.2,273.8z"/>
</g>
<path class="st3" d="M358.6,350.2h-192c-2.2,0-4-1.8-4-4v-8.3c0-2.2,1.8-4,4-4h192c2.2,0,4,1.8,4,4v8.3
	C362.6,348.4,360.9,350.2,358.6,350.2z"/>
<path class="st4" d="M273.3,407.4h-107c-2.2,0-4-1.8-4-4v-32c0-2.2,1.8-4,4-4h107c2.2,0,4,1.8,4,4v32
	C277.3,405.7,275.5,407.4,273.3,407.4z"/>
<path class="st4" d="M468,407.6H361c-2.2,0-4-1.8-4-4v-32c0-2.2,1.8-4,4-4h107c2.2,0,4,1.8,4,4v32C472,405.8,470.2,407.6,468,407.6z
	"/>
</svg>
