<?xml version="1.0" encoding="utf-8"?>
<!-- Generator: Adobe Illustrator 27.0.0, SVG Export Plug-In . SVG Version: 6.00 Build 0)  -->
<svg version="1.1" id="Ebene_1" xmlns="http://www.w3.org/2000/svg" xmlns:xlink="http://www.w3.org/1999/xlink" x="0px" y="0px"
	 viewBox="0 0 500 500" style="enable-background:new 0 0 500 500;" xml:space="preserve">
<style type="text/css">
	.st0{fill:#E6E6E6;}
	.st1{fill:#FFFFFF;stroke:#B3B3B3;stroke-width:4;stroke-miterlimit:10;}
	.st2{fill:#999999;}
	.st3{fill:#B3B3B3;}
</style>
<g>
	<circle class="st0" cx="250" cy="250" r="244.6"/>
</g>
<path class="st1" d="M405,163H95c-4.4,0-8-3.6-8-8V62.3c0-4.4,3.6-8,8-8H405c4.4,0,8,3.6,8,8V155C413,159.5,409.5,163,405,163z"/>
<path class="st1" d="M405,304.3H95c-4.4,0-8-3.6-8-8v-92.7c0-4.4,3.6-8,8-8H405c4.4,0,8,3.6,8,8v92.7
	C413,300.8,409.5,304.3,405,304.3z"/>
<path class="st1" d="M405,445.7H95c-4.4,0-8-3.6-8-8V345c0-4.4,3.6-8,8-8H405c4.4,0,8,3.6,8,8v92.7C413,442.1,409.5,445.7,405,445.7
	z"/>
<path class="st2" d="M423.9,103.3c-3,0-5.4,2.4-5.4,5.4c0,3,2.4,5.4,5.4,5.4c36,0,65.2,29.3,65.2,65.2s-29.3,65.2-65.2,65.2v-6.9
	c0-1.9-1-3.7-2.6-4.6c-1.6-1-3.7-1-5.3-0.2l-23.6,12.4c-1.8,0.9-2.9,2.8-2.9,4.8c0,2,1.1,3.9,2.9,4.8l23.6,12.4
	c0.8,0.4,1.7,0.6,2.5,0.6c1,0,2-0.3,2.8-0.8c1.6-1,2.6-2.7,2.6-4.6v-6.9c42,0,76.1-34.1,76.1-76.1S465.9,103.3,423.9,103.3z"/>
<g>
	<path class="st2" d="M76.1,244.6c3,0,5.4,2.4,5.4,5.4s-2.4,5.4-5.4,5.4c-36,0-65.2,29.3-65.2,65.2s29.3,65.2,65.2,65.2v-6.9
		c0-1.9,1-3.7,2.6-4.6c1.6-1,3.7-1,5.3-0.2l23.6,12.4c1.8,0.9,2.9,2.8,2.9,4.8c0,2-1.1,3.9-2.9,4.8L84,408.5
		c-0.8,0.4-1.7,0.6-2.5,0.6c-1,0-2-0.3-2.8-0.8c-1.6-1-2.6-2.7-2.6-4.6v-6.9c-42,0-76.1-34.1-76.1-76.1
		C0,278.7,34.1,244.6,76.1,244.6z"/>
</g>
<g>
	<path class="st2" d="M155.8,136.6h-15.3V109c0-0.5,0-1.4,0-2.8c0-1.4,0-2.9,0.1-4.5c0-1.7,0.1-3.1,0.2-4.5c-0.7,0.8-1.3,1.5-1.9,2
		c-0.6,0.6-1.1,1.1-1.7,1.6l-6.3,5.2l-7.8-9.6l19.2-15.6h13.6V136.6z"/>
</g>
<g>
	<path class="st2" d="M164.1,278.3h-40.5v-9.9l13.6-13.8c2.8-3,5-5.3,6.6-7.1c1.6-1.8,2.7-3.3,3.3-4.5c0.6-1.2,1-2.5,1-3.9
		c0-1.7-0.5-2.9-1.6-3.6c-1.1-0.7-2.3-1.1-3.8-1.1c-1.8,0-3.5,0.5-5.3,1.5c-1.8,1-3.8,2.5-6.1,4.5l-8.3-9.7c1.7-1.5,3.5-2.9,5.3-4.3
		c1.9-1.4,4.1-2.5,6.7-3.3c2.6-0.9,5.7-1.3,9.4-1.3c3.8,0,7.1,0.7,9.9,2c2.8,1.3,4.9,3.1,6.5,5.4c1.5,2.3,2.3,4.9,2.3,7.9
		c0,3.2-0.6,6.1-1.8,8.7c-1.2,2.5-3,5.1-5.3,7.6c-2.4,2.5-5.3,5.4-8.9,8.6l-4.1,3.7v0.4h21.1V278.3z"/>
</g>
<g>
	<path class="st2" d="M161.9,375.5c0,2.6-0.6,4.9-1.7,6.9c-1.1,1.9-2.6,3.5-4.5,4.7c-1.9,1.2-3.9,2.1-6.1,2.8v0.2
		c4.5,0.6,7.9,1.9,10.3,4.1c2.4,2.2,3.6,5.2,3.6,9.2c0,3.1-0.8,5.9-2.4,8.4c-1.6,2.5-4.2,4.6-7.6,6.1c-3.4,1.5-7.9,2.3-13.3,2.3
		c-3.6,0-6.7-0.3-9.2-0.8c-2.5-0.5-5-1.3-7.4-2.2v-12.5c2.4,1.2,4.9,2.2,7.5,2.8c2.6,0.6,4.9,0.9,7,0.9c3.7,0,6.2-0.5,7.5-1.6
		c1.3-1,2-2.4,2-4.2c0-1.3-0.3-2.4-1-3.2c-0.6-0.9-1.8-1.6-3.5-2.1s-4.2-0.7-7.4-0.7h-3.4V385h3.5c2.9,0,5.1-0.3,6.8-0.8
		c1.7-0.5,2.9-1.2,3.6-2.1c0.7-0.9,1.1-1.9,1.1-3c0-1.5-0.6-2.6-1.7-3.3c-1.1-0.7-2.7-1.1-4.5-1.1c-1.7,0-3.3,0.2-4.7,0.7
		c-1.5,0.5-2.8,1-3.9,1.5c-1.1,0.6-1.9,1-2.5,1.4l-6.3-10.1c2.3-1.6,5-2.9,8-4c3-1.1,6.9-1.6,11.8-1.6c5.8,0,10.3,1.1,13.6,3.4
		C160.2,368.3,161.9,371.5,161.9,375.5z"/>
</g>
<path class="st3" d="M365.6,103.3H199.7c-2.2,0-4-1.8-4-4V91c0-2.2,1.8-4,4-4h165.9c2.2,0,4,1.8,4,4v8.3
	C369.6,101.5,367.8,103.3,365.6,103.3z"/>
<path class="st3" d="M300.3,130.4H199.7c-2.2,0-4-1.8-4-4v-8.3c0-2.2,1.8-4,4-4h100.7c2.2,0,4,1.8,4,4v8.3
	C304.3,128.6,302.6,130.4,300.3,130.4z"/>
<path class="st3" d="M365.6,244.6H199.7c-2.2,0-4-1.8-4-4v-8.3c0-2.2,1.8-4,4-4h165.9c2.2,0,4,1.8,4,4v8.3
	C369.6,242.8,367.8,244.6,365.6,244.6z"/>
<path class="st3" d="M300.3,271.7H199.7c-2.2,0-4-1.8-4-4v-8.3c0-2.2,1.8-4,4-4h100.7c2.2,0,4,1.8,4,4v8.3
	C304.3,269.9,302.6,271.7,300.3,271.7z"/>
<path class="st3" d="M365.6,385.9H199.7c-2.2,0-4-1.8-4-4v-8.3c0-2.2,1.8-4,4-4h165.9c2.2,0,4,1.8,4,4v8.3
	C369.6,384.1,367.8,385.9,365.6,385.9z"/>
<path class="st3" d="M300.3,413H199.7c-2.2,0-4-1.8-4-4v-8.3c0-2.2,1.8-4,4-4h100.7c2.2,0,4,1.8,4,4v8.3
	C304.3,411.3,302.6,413,300.3,413z"/>
</svg>
