<?xml version="1.0" encoding="utf-8"?>
<!-- Generator: Adobe Illustrator 27.0.1, SVG Export Plug-In . SVG Version: 6.00 Build 0)  -->
<svg version="1.1" id="Ebene_1" xmlns="http://www.w3.org/2000/svg" xmlns:xlink="http://www.w3.org/1999/xlink" x="0px" y="0px"
	 viewBox="0 0 90 30" style="enable-background:new 0 0 90 30;" xml:space="preserve">
<style type="text/css">
	.st0{fill:#265359;}
	.st1{fill:#FFFFFF;}
</style>
<path class="st0" d="M86,30H4c-2.2,0-4-1.8-4-4V4c0-2.2,1.8-4,4-4h82c2.2,0,4,1.8,4,4v22C90,28.2,88.2,30,86,30z"/>
<path class="st1" d="M21,14.5c0-1-0.3-1.8-1-2.5c-0.7-0.7-1.5-1-2.5-1c-1,0-1.8,0.3-2.5,1c-0.7,0.7-1,1.5-1,2.5s0.3,1.8,1,2.5
	c0.7,0.7,1.5,1,2.5,1c1,0,1.8-0.3,2.5-1C20.7,16.3,21,15.5,21,14.5z M25.1,21c0,0.3-0.1,0.5-0.3,0.7S24.3,22,24.1,22
	c-0.3,0-0.5-0.1-0.7-0.3l-2.7-2.7c-0.9,0.6-2,1-3.1,1c-0.7,0-1.5-0.1-2.1-0.4c-0.7-0.3-1.3-0.7-1.8-1.2c-0.5-0.5-0.9-1.1-1.2-1.8
	C12.1,16,12,15.2,12,14.5s0.1-1.5,0.4-2.1c0.3-0.7,0.7-1.3,1.2-1.8c0.5-0.5,1.1-0.9,1.8-1.2C16.1,9.1,16.8,9,17.5,9s1.5,0.1,2.1,0.4
	c0.7,0.3,1.3,0.7,1.8,1.2c0.5,0.5,0.9,1.1,1.2,1.8c0.3,0.7,0.4,1.4,0.4,2.1c0,1.2-0.3,2.2-1,3.1l2.7,2.7C25,20.5,25.1,20.8,25.1,21z
	"/>
<g>
	<path class="st1" d="M37.9,17.6c0,0.6-0.2,1.1-0.4,1.6s-0.7,0.8-1.3,1s-1.3,0.4-2.1,0.4c-0.4,0-0.7,0-1.1-0.1c-0.3,0-0.7-0.1-1-0.2
		c-0.3-0.1-0.6-0.2-0.9-0.3v-2c0.5,0.2,1,0.4,1.5,0.6c0.5,0.2,1.1,0.3,1.6,0.3c0.4,0,0.6,0,0.9-0.1c0.2-0.1,0.4-0.2,0.5-0.4
		c0.1-0.2,0.2-0.4,0.2-0.6c0-0.3-0.1-0.5-0.3-0.7c-0.2-0.2-0.4-0.4-0.7-0.5c-0.3-0.2-0.6-0.3-1-0.5c-0.2-0.1-0.5-0.3-0.8-0.4
		s-0.6-0.4-0.8-0.6c-0.3-0.2-0.5-0.5-0.6-0.9c-0.2-0.3-0.2-0.7-0.2-1.2c0-0.6,0.1-1.1,0.4-1.6c0.3-0.4,0.7-0.8,1.2-1
		s1.1-0.4,1.9-0.4c0.5,0,1.1,0.1,1.5,0.2c0.5,0.1,1,0.3,1.5,0.5l-0.7,1.7c-0.5-0.2-0.9-0.3-1.3-0.4c-0.4-0.1-0.8-0.2-1.2-0.2
		c-0.3,0-0.5,0-0.7,0.1c-0.2,0.1-0.3,0.2-0.4,0.4c-0.1,0.2-0.1,0.3-0.1,0.5c0,0.2,0.1,0.5,0.2,0.6c0.1,0.2,0.4,0.3,0.7,0.5
		c0.3,0.2,0.7,0.3,1.1,0.5c0.5,0.2,1,0.5,1.4,0.8s0.7,0.6,0.9,1C37.8,16.6,37.9,17.1,37.9,17.6z"/>
	<path class="st1" d="M42.7,12.5c0.7,0,1.4,0.1,1.9,0.4c0.5,0.3,0.9,0.7,1.2,1.2s0.4,1.2,0.4,2v1h-5.1c0,0.6,0.2,1.1,0.5,1.4
		c0.3,0.3,0.8,0.5,1.4,0.5c0.5,0,1-0.1,1.4-0.2c0.4-0.1,0.9-0.3,1.3-0.5v1.7c-0.4,0.2-0.8,0.3-1.2,0.4c-0.4,0.1-0.9,0.1-1.6,0.1
		c-0.8,0-1.5-0.1-2.1-0.4c-0.6-0.3-1.1-0.7-1.4-1.3S39,17.5,39,16.6c0-0.9,0.2-1.7,0.5-2.3c0.3-0.6,0.8-1.1,1.3-1.4
		C41.3,12.6,42,12.5,42.7,12.5z M42.7,14c-0.4,0-0.8,0.1-1,0.4c-0.3,0.3-0.4,0.7-0.5,1.3h3c0-0.3-0.1-0.6-0.2-0.9
		c-0.1-0.2-0.3-0.4-0.5-0.6S43.1,14,42.7,14z"/>
	<path class="st1" d="M51.1,12.4c1.1,0,1.9,0.2,2.4,0.7c0.6,0.5,0.8,1.2,0.8,2.1v5.3h-1.5l-0.4-1.1h-0.1c-0.2,0.3-0.5,0.5-0.7,0.7
		c-0.2,0.2-0.5,0.3-0.8,0.4c-0.3,0.1-0.7,0.1-1.1,0.1c-0.5,0-0.9-0.1-1.3-0.3c-0.4-0.2-0.7-0.5-0.9-0.8c-0.2-0.4-0.3-0.8-0.3-1.4
		c0-0.8,0.3-1.5,0.9-1.9c0.6-0.4,1.5-0.6,2.7-0.7l1.4,0v-0.3c0-0.4-0.1-0.7-0.3-0.9C51.7,14.1,51.4,14,51,14c-0.4,0-0.8,0.1-1.1,0.2
		s-0.7,0.2-1.1,0.4l-0.7-1.5c0.4-0.2,0.9-0.4,1.4-0.5C50,12.5,50.6,12.4,51.1,12.4z M52.3,16.8l-0.8,0c-0.7,0-1.2,0.1-1.5,0.4
		s-0.4,0.5-0.4,0.9c0,0.3,0.1,0.6,0.3,0.7c0.2,0.1,0.4,0.2,0.8,0.2c0.5,0,0.9-0.1,1.2-0.4c0.3-0.3,0.5-0.7,0.5-1.2V16.8z"/>
	<path class="st1" d="M60.9,12.5c0.1,0,0.2,0,0.4,0c0.1,0,0.3,0,0.4,0l-0.2,2c-0.1,0-0.2,0-0.3-0.1s-0.2,0-0.3,0
		c-0.3,0-0.5,0-0.8,0.1c-0.3,0.1-0.5,0.2-0.7,0.3s-0.4,0.4-0.5,0.6c-0.1,0.3-0.2,0.6-0.2,0.9v4h-2.2v-7.9h1.6l0.3,1.3h0.1
		c0.2-0.3,0.4-0.5,0.6-0.7c0.2-0.2,0.5-0.4,0.8-0.5S60.6,12.5,60.9,12.5z"/>
	<path class="st1" d="M66.2,20.7c-0.8,0-1.5-0.1-2-0.4c-0.6-0.3-1-0.7-1.3-1.3s-0.4-1.4-0.4-2.3c0-1,0.2-1.8,0.5-2.4
		s0.8-1.1,1.4-1.3c0.6-0.3,1.3-0.4,2-0.4c0.5,0,1,0.1,1.4,0.2c0.4,0.1,0.7,0.2,1,0.4l-0.6,1.7c-0.3-0.1-0.7-0.2-0.9-0.3
		c-0.3-0.1-0.6-0.1-0.9-0.1c-0.4,0-0.7,0.1-0.9,0.3c-0.2,0.2-0.4,0.4-0.6,0.8c-0.1,0.4-0.2,0.8-0.2,1.3c0,0.5,0.1,1,0.2,1.3
		c0.1,0.3,0.3,0.6,0.6,0.8c0.2,0.2,0.6,0.3,0.9,0.3c0.4,0,0.8-0.1,1.2-0.2c0.3-0.1,0.7-0.3,1-0.5v1.8c-0.3,0.2-0.7,0.4-1,0.5
		C67.2,20.6,66.7,20.7,66.2,20.7z"/>
	<path class="st1" d="M72.4,9.5v2.2c0,0.4,0,0.8,0,1.1c0,0.4,0,0.6-0.1,0.8h0.1c0.2-0.3,0.4-0.5,0.6-0.7c0.2-0.2,0.5-0.3,0.8-0.4
		c0.3-0.1,0.6-0.1,0.9-0.1c0.6,0,1.1,0.1,1.5,0.3c0.4,0.2,0.8,0.5,1,0.9c0.2,0.4,0.4,1,0.4,1.7v5.2h-2.2v-4.6c0-0.6-0.1-1-0.3-1.3
		c-0.2-0.3-0.5-0.4-1-0.4c-0.4,0-0.8,0.1-1,0.3c-0.2,0.2-0.4,0.5-0.5,0.9c-0.1,0.4-0.2,0.9-0.2,1.4v3.7h-2.2v-11H72.4z"/>
</g>
</svg>
