<?xml version="1.0" encoding="UTF-8" standalone="no"?><svg width="100%" height="100%" viewBox="0 0 64 64" version="1.1" xmlns="http://www.w3.org/2000/svg" xmlns:xlink="http://www.w3.org/1999/xlink" xml:space="preserve" xmlns:serif="http://www.serif.com/" style="fill-rule:evenodd;clip-rule:evenodd;stroke-linejoin:round;stroke-miterlimit:2;"><rect id="calendar" x="0" y="0" width="64" height="64" style="fill:none;"/><clipPath id="_clip1"><rect x="0" y="0" width="64" height="64"/></clipPath><g clip-path="url(#_clip1)"><path d="M32,0c17.661,0 32,14.339 32,32c0,17.661 -14.339,32 -32,32c-17.661,0 -32,-14.339 -32,-32c0,-17.661 14.339,-32 32,-32Zm-20.023,21.258l-0,25.39c-0,2.936 2.415,5.352 5.351,5.352c0,0 29.32,0 29.32,0c2.936,0 5.352,-2.416 5.352,-5.352l0,-25.39c0,-2.936 -2.416,-5.352 -5.352,-5.352l-1.953,0c-0.797,0 -1.445,0.648 -1.445,1.446c-0,0.797 0.648,1.445 1.445,1.445l1.953,-0c1.35,-0 2.461,1.111 2.461,2.461l0,6.367l-34.242,0l0,-6.367c0,-1.35 1.111,-2.461 2.461,-2.461l3.461,-0l0,2.461c0,0.798 0.648,1.445 1.445,1.445c0.798,0 1.446,-0.647 1.446,-1.445l-0,-7.813c-0,-0.797 -0.648,-1.445 -1.446,-1.445c-0.797,-0 -1.445,0.648 -1.445,1.445l0,2.461l-3.461,0c-2.936,0 -5.351,2.416 -5.351,5.352Zm11.017,24.242c0,-0.828 -0.672,-1.5 -1.5,-1.5l-5,0c-0.828,0 -1.5,0.672 -1.5,1.5c0,0.828 0.672,1.5 1.5,1.5l5,0c0.828,0 1.5,-0.672 1.5,-1.5Zm13.006,0c0,-0.828 -0.672,-1.5 -1.5,-1.5l-5,0c-0.828,0 -1.5,0.672 -1.5,1.5c0,0.828 0.672,1.5 1.5,1.5l5,0c0.828,0 1.5,-0.672 1.5,-1.5Zm-13.018,-6c0,-0.828 -0.672,-1.5 -1.5,-1.5l-5,0c-0.827,0 -1.5,0.672 -1.5,1.5c0,0.828 0.673,1.5 1.5,1.5l5,0c0.828,0 1.5,-0.672 1.5,-1.5Zm12.989,0c-0,-0.828 -0.672,-1.5 -1.5,-1.5l-5,0c-0.828,0 -1.5,0.672 -1.5,1.5c-0,0.828 0.672,1.5 1.5,1.5l5,0c0.828,0 1.5,-0.672 1.5,-1.5Zm13.011,0c0,-0.828 -0.672,-1.5 -1.5,-1.5l-5.023,0c-0.828,0 -1.5,0.672 -1.5,1.5c-0,0.828 0.672,1.5 1.5,1.5l5.023,0c0.828,0 1.5,-0.672 1.5,-1.5Zm-25.982,-6c-0,-0.828 -0.672,-1.5 -1.5,-1.5l-5,0c-0.828,0 -1.5,0.672 -1.5,1.5c-0,0.828 0.672,1.5 1.5,1.5l5,0c0.828,0 1.5,-0.672 1.5,-1.5Zm12.988,0c0,-0.828 -0.672,-1.5 -1.5,-1.5l-5,0c-0.828,0 -1.5,0.672 -1.5,1.5c0,0.828 0.672,1.5 1.5,1.5l5,0c0.828,0 1.5,-0.672 1.5,-1.5Zm13.012,0c0,-0.828 -0.672,-1.5 -1.5,-1.5l-5.023,0c-0.828,0 -1.5,0.672 -1.5,1.5c-0,0.828 0.672,1.5 1.5,1.5l5.023,0c0.828,0 1.5,-0.672 1.5,-1.5Zm-11.586,-17.594l-9.344,0c-0.797,0 -1.445,0.648 -1.445,1.446c-0,0.797 0.648,1.445 1.445,1.445l9.344,-0l0,2.461c0,0.798 0.648,1.445 1.445,1.445c0.798,0 1.446,-0.647 1.446,-1.445l-0,-7.813c-0,-0.797 -0.648,-1.445 -1.446,-1.445c-0.797,-0 -1.445,0.648 -1.445,1.445l0,2.461Z" style="fill:#fff;"/></g></svg>