<?xml version="1.0" encoding="UTF-8" standalone="no"?><svg width="100%" height="100%" viewBox="0 0 64 64" version="1.1" xmlns="http://www.w3.org/2000/svg" xmlns:xlink="http://www.w3.org/1999/xlink" xml:space="preserve" xmlns:serif="http://www.serif.com/" style="fill-rule:evenodd;clip-rule:evenodd;stroke-linejoin:round;stroke-miterlimit:2;"><rect id="charts" x="0" y="0" width="64" height="64" style="fill:none;"/><path d="M32,0c17.661,0 32,14.339 32,32c0,17.661 -14.339,32 -32,32c-17.661,0 -32,-14.339 -32,-32c0,-17.661 14.339,-32 32,-32Zm4.033,28c-0,-1.104 -0.897,-2 -2,-2l-4,0c-1.104,0 -2,0.896 -2,2l-0,18c-0,1.104 0.896,2 2,2l4,0c1.103,0 2,-0.896 2,-2l-0,-18Zm-12.033,10c-0,-1.104 -0.896,-2 -2,-2l-4,0c-1.104,0 -2,0.896 -2,2l-0,8c-0,1.104 0.896,2 2,2l4,0c1.104,0 2,-0.896 2,-2l-0,-8Zm24,-20c0,-1.104 -0.896,-2 -2,-2l-4,0c-1.104,0 -2,0.896 -2,2l0,28c0,1.104 0.896,2 2,2l4,0c1.104,0 2,-0.896 2,-2l0,-28Z" style="fill:#fff;"/></svg>