<?xml version="1.0" encoding="UTF-8" standalone="no"?><svg width="100%" height="100%" viewBox="0 0 64 64" version="1.1" xmlns="http://www.w3.org/2000/svg" xmlns:xlink="http://www.w3.org/1999/xlink" xml:space="preserve" xmlns:serif="http://www.serif.com/" style="fill-rule:evenodd;clip-rule:evenodd;stroke-linejoin:round;stroke-miterlimit:2;"><rect id="city" x="0" y="0" width="64" height="64" style="fill:none;"/><path d="M32,0c17.661,0 32,14.339 32,32c0,17.661 -14.339,32 -32,32c-17.661,0 -32,-14.339 -32,-32c0,-17.661 14.339,-32 32,-32Zm6,49l-0,-35.5c-0,-0.828 -0.672,-1.5 -1.5,-1.5l-9,0c-0.828,0 -1.5,0.672 -1.5,1.5l-0,35.5l-3,-0l-0,-25.5c-0,-0.828 -0.672,-1.5 -1.5,-1.5l-8,0c-0.828,0 -1.5,0.672 -1.5,1.5l0,27c0,0.828 0.672,1.5 1.5,1.5l37,0c0.828,0 1.5,-0.672 1.5,-1.5l0,-22c0,-0.828 -0.672,-1.5 -1.5,-1.5l-8,0c-0.828,0 -1.5,0.672 -1.5,1.5l0,20.5l-3,-0Zm-16.99,-4c-0,-0.552 -0.448,-1 -1,-1l-1,0c-0.552,0 -1,0.448 -1,1l-0,1c-0,0.552 0.448,1 1,1l1,0c0.552,0 1,-0.448 1,-1l-0,-1Zm14.01,0c-0,-0.552 -0.448,-1 -1,-1l-1,0c-0.552,0 -1,0.448 -1,1l-0,1c-0,0.552 0.448,1 1,1l1,0c0.552,0 1,-0.448 1,-1l-0,-1Zm-5,0c-0,-0.552 -0.448,-1 -1,-1l-1,0c-0.552,0 -1,0.448 -1,1l-0,1c-0,0.552 0.448,1 1,1l1,0c0.552,0 1,-0.448 1,-1l-0,-1Zm14.98,0c0,-0.552 -0.448,-1 -1,-1l-1,0c-0.552,0 -1,0.448 -1,1l0,1c0,0.552 0.448,1 1,1l1,0c0.552,0 1,-0.448 1,-1l0,-1Zm5,0c-0,-0.552 -0.448,-1 -1,-1l-1,0c-0.552,0 -1,0.448 -1,1l-0,1c-0,0.552 0.448,1 1,1l1,0c0.552,0 1,-0.448 1,-1l-0,-1Zm-34,0c0,-0.552 -0.448,-1 -1,-1l-1,0c-0.552,0 -1,0.448 -1,1l0,1c0,0.552 0.448,1 1,1l1,0c0.552,0 1,-0.448 1,-1l0,-1Zm4.99,-5c0,-0.552 -0.448,-1 -1,-1l-1,0c-0.552,0 -1,0.448 -1,1l0,1c0,0.552 0.448,1 1,1l1,0c0.552,0 1,-0.448 1,-1l0,-1Zm14.01,0c0,-0.552 -0.448,-1 -1,-1l-1,0c-0.552,0 -1,0.448 -1,1l0,1c0,0.552 0.448,1 1,1l1,0c0.552,0 1,-0.448 1,-1l0,-1Zm-5,0c0,-0.552 -0.448,-1 -1,-1l-1,0c-0.552,0 -1,0.448 -1,1l0,1c0,0.552 0.448,1 1,1l1,0c0.552,0 1,-0.448 1,-1l0,-1Zm14.98,0c0,-0.552 -0.448,-1 -1,-1l-1,0c-0.552,0 -1,0.448 -1,1l0,1c0,0.552 0.448,1 1,1l1,0c0.552,0 1,-0.448 1,-1l0,-1Zm5,0c0,-0.552 -0.448,-1 -1,-1l-1,0c-0.552,0 -1,0.448 -1,1l0,1c0,0.552 0.448,1 1,1l1,0c0.552,0 1,-0.448 1,-1l0,-1Zm-34,0c0,-0.552 -0.448,-1 -1,-1l-1,0c-0.552,0 -1,0.448 -1,1l0,1c0,0.552 0.448,1 1,1l1,0c0.552,0 1,-0.448 1,-1l0,-1Zm5.03,-5c-0,-0.552 -0.448,-1 -1,-1l-1,0c-0.552,0 -1,0.448 -1,1l-0,1c-0,0.552 0.448,1 1,1l1,0c0.552,0 1,-0.448 1,-1l-0,-1Zm14.01,0c-0,-0.552 -0.448,-1 -1,-1l-1,0c-0.552,0 -1,0.448 -1,1l-0,1c-0,0.552 0.448,1 1,1l1,0c0.552,0 1,-0.448 1,-1l-0,-1Zm-5,0c-0,-0.552 -0.448,-1 -1,-1l-1,0c-0.552,0 -1,0.448 -1,1l-0,1c-0,0.552 0.448,1 1,1l1,0c0.552,0 1,-0.448 1,-1l-0,-1Zm14.98,0c0,-0.552 -0.448,-1 -1,-1l-1,0c-0.552,0 -1,0.448 -1,1l0,1c0,0.552 0.448,1 1,1l1,0c0.552,0 1,-0.448 1,-1l0,-1Zm5,0c-0,-0.552 -0.448,-1 -1,-1l-1,0c-0.552,0 -1,0.448 -1,1l-0,1c-0,0.552 0.448,1 1,1l1,0c0.552,0 1,-0.448 1,-1l-0,-1Zm-34,0c0,-0.552 -0.448,-1 -1,-1l-1,0c-0.552,0 -1,0.448 -1,1l0,1c0,0.552 0.448,1 1,1l1,0c0.552,0 1,-0.448 1,-1l0,-1Zm4.99,-5c0,-0.552 -0.448,-1 -1,-1l-1,0c-0.552,0 -1,0.448 -1,1l0,1c0,0.552 0.448,1 1,1l1,0c0.552,0 1,-0.448 1,-1l0,-1Zm9.01,0c0,-0.552 -0.448,-1 -1,-1l-1,0c-0.552,0 -1,0.448 -1,1l0,1c0,0.552 0.448,1 1,1l1,0c0.552,0 1,-0.448 1,-1l0,-1Zm5,0c0,-0.552 -0.448,-1 -1,-1l-1,0c-0.552,0 -1,0.448 -1,1l0,1c0,0.552 0.448,1 1,1l1,0c0.552,0 1,-0.448 1,-1l0,-1Zm14.98,0c0,-0.552 -0.448,-1 -1,-1l-1,0c-0.552,0 -1,0.448 -1,1l0,1c0,0.552 0.448,1 1,1l1,0c0.552,0 1,-0.448 1,-1l0,-1Zm-4.98,0c0,-0.552 -0.448,-1 -1,-1l-1,0c-0.552,0 -1,0.448 -1,1l0,1c0,0.552 0.448,1 1,1l1,0c0.552,0 1,-0.448 1,-1l0,-1Zm-29.02,0c0,-0.552 -0.448,-1 -1,-1l-1,0c-0.552,0 -1,0.448 -1,1l0,1c0,0.552 0.448,1 1,1l1,0c0.552,0 1,-0.448 1,-1l0,-1Zm5.03,-5c-0,-0.552 -0.448,-1 -1,-1l-1,0c-0.552,0 -1,0.448 -1,1l-0,1c-0,0.552 0.448,1 1,1l1,0c0.552,0 1,-0.448 1,-1l-0,-1Zm8.99,0c0,-0.552 -0.448,-1 -1,-1l-1,0c-0.552,0 -1,0.448 -1,1l0,1c0,0.552 0.448,1 1,1l1,0c0.552,0 1,-0.448 1,-1l0,-1Zm5,0c0,-0.552 -0.448,-1 -1,-1l-1,0c-0.552,0 -1,0.448 -1,1l0,1c0,0.552 0.448,1 1,1l1,0c0.552,0 1,-0.448 1,-1l0,-1Zm-19,0c0,-0.552 -0.448,-1 -1,-1l-1,0c-0.552,0 -1,0.448 -1,1l0,1c0,0.552 0.448,1 1,1l1,0c0.552,0 1,-0.448 1,-1l0,-1Zm14.02,-5c-0,-0.552 -0.448,-1 -1,-1l-1,0c-0.552,0 -1,0.448 -1,1l-0,1c-0,0.552 0.448,1 1,1l1,0c0.552,0 1,-0.448 1,-1l-0,-1Zm5,0c-0,-0.552 -0.448,-1 -1,-1l-1,0c-0.552,0 -1,0.448 -1,1l-0,1c-0,0.552 0.448,1 1,1l1,0c0.552,0 1,-0.448 1,-1l-0,-1Zm-5.02,-5c0,-0.552 -0.448,-1 -1,-1l-1,0c-0.552,0 -1,0.448 -1,1l0,1c0,0.552 0.448,1 1,1l1,0c0.552,0 1,-0.448 1,-1l0,-1Zm5,0c0,-0.552 -0.448,-1 -1,-1l-1,0c-0.552,0 -1,0.448 -1,1l0,1c0,0.552 0.448,1 1,1l1,0c0.552,0 1,-0.448 1,-1l0,-1Z" style="fill:#fff;"/></svg>