<?xml version="1.0" encoding="UTF-8" standalone="no"?><svg width="100%" height="100%" viewBox="0 0 64 64" version="1.1" xmlns="http://www.w3.org/2000/svg" xmlns:xlink="http://www.w3.org/1999/xlink" xml:space="preserve" xmlns:serif="http://www.serif.com/" style="fill-rule:evenodd;clip-rule:evenodd;stroke-linejoin:round;stroke-miterlimit:2;"><rect id="clock" x="0" y="0" width="64" height="64" style="fill:none;"/><path d="M32,0c17.661,0 32,14.339 32,32c0,17.661 -14.339,32 -32,32c-17.661,0 -32,-14.339 -32,-32c0,-17.661 14.339,-32 32,-32Zm-0,52c11.046,0 20,-8.954 20,-20c-0,-11.046 -8.954,-20 -20,-20c-11.046,-0 -20,8.954 -20,20c-0,11.046 8.954,20 20,20Zm-8.831,-23.08l8,5.328c0.537,0.358 1.243,0.332 1.752,-0.064l10.279,-8c0.653,-0.509 0.771,-1.452 0.262,-2.105c-0.508,-0.654 -1.452,-0.771 -2.105,-0.263l-9.425,7.336c-0,0 -7.101,-4.729 -7.101,-4.729c-0.689,-0.459 -1.621,-0.272 -2.079,0.417c-0.459,0.689 -0.273,1.621 0.417,2.08Z" style="fill:#fff;"/></svg>