<?xml version="1.0" encoding="UTF-8" standalone="no"?><svg width="100%" height="100%" viewBox="0 0 64 64" version="1.1" xmlns="http://www.w3.org/2000/svg" xmlns:xlink="http://www.w3.org/1999/xlink" xml:space="preserve" xmlns:serif="http://www.serif.com/" style="fill-rule:evenodd;clip-rule:evenodd;stroke-linejoin:round;stroke-miterlimit:2;"><rect id="coin" x="0" y="0" width="64" height="64" style="fill:none;"/><path d="M32,0c17.661,0 32,14.339 32,32c0,17.661 -14.339,32 -32,32c-17.661,0 -32,-14.339 -32,-32c0,-17.661 14.339,-32 32,-32Zm13.106,18.948c-3.566,-3.565 -8.639,-6.948 -14.501,-6.948c-10.276,0 -18.605,8.329 -18.605,18.605c0,5.862 3.383,10.935 6.948,14.501c3.566,3.566 8.613,6.894 14.447,6.894c10.276,-0 18.605,-8.329 18.605,-18.605c0,-5.834 -3.328,-10.881 -6.894,-14.447Zm4.102,11.848c0.156,0.843 0.228,1.713 0.228,2.599c0,8.86 -7.181,16.041 -16.041,16.041c-0.886,0 -1.756,-0.072 -2.599,-0.228c10.123,-0.101 18.31,-8.288 18.412,-18.412Zm-18.603,15.85c-8.86,-0 -16.041,-7.182 -16.041,-16.041c-0,-8.86 7.181,-16.041 16.041,-16.041c8.859,-0 16.041,7.181 16.041,16.041c-0,8.859 -7.182,16.041 -16.041,16.041Zm-1.282,-25.373c-1.25,0.186 -2.358,0.702 -3.138,1.572c-0.72,0.803 -1.193,1.919 -1.193,3.429c0,1.822 0.83,2.964 2.082,3.761c0.992,0.631 2.305,1.013 3.626,1.373c0.876,0.239 1.753,0.47 2.488,0.823c0.75,0.361 1.332,0.864 1.332,1.838c-0,2.146 -1.943,2.93 -3.869,2.861l-0.001,-0c-1.618,-0.057 -3.316,-0.695 -4.216,-1.897c-0.424,-0.566 -1.228,-0.682 -1.795,-0.258c-0.566,0.424 -0.681,1.229 -0.257,1.795c1.101,1.471 2.973,2.451 4.941,2.792l-0,2.502c-0,0.708 0.574,1.282 1.282,1.282c0.707,0 1.282,-0.574 1.282,-1.282l-0,-2.423c2.842,-0.329 5.196,-2.088 5.196,-5.372c0,-1.822 -0.829,-2.964 -2.082,-3.761c-0.991,-0.631 -2.304,-1.013 -3.626,-1.373c-0.875,-0.239 -1.753,-0.47 -2.488,-0.823c-0.75,-0.36 -1.331,-0.864 -1.331,-1.838c-0,-0.749 0.181,-1.32 0.538,-1.718c0.572,-0.638 1.505,-0.823 2.476,-0.796l-0,-0c1.595,0.043 3.34,0.703 4.325,1.688c0.5,0.5 1.313,0.5 1.813,0c0.5,-0.5 0.5,-1.312 -0,-1.813c-1.133,-1.133 -2.964,-2.001 -4.821,-2.314l-0,-1.976c-0,-0.708 -0.575,-1.282 -1.282,-1.282c-0.708,-0 -1.282,0.574 -1.282,1.282l-0,1.928Z" style="fill:#fff;"/></svg>