<?xml version="1.0" encoding="UTF-8" standalone="no"?><svg width="100%" height="100%" viewBox="0 0 64 64" version="1.1" xmlns="http://www.w3.org/2000/svg" xmlns:xlink="http://www.w3.org/1999/xlink" xml:space="preserve" xmlns:serif="http://www.serif.com/" style="fill-rule:evenodd;clip-rule:evenodd;stroke-linejoin:round;stroke-miterlimit:2;"><rect id="euro" x="-0" y="0" width="64" height="64" style="fill:none;"/><path d="M32,0c17.661,0 32,14.339 32,32c-0,17.661 -14.339,32 -32,32c-17.661,0 -32,-14.339 -32,-32c-0,-17.661 14.339,-32 32,-32Zm-12.141,27.688l-2.559,-0c-0.904,-0 -1.638,0.734 -1.638,1.638c-0,0.905 0.734,1.639 1.638,1.639l1.994,-0c-0.022,0.342 -0.033,0.687 -0.033,1.035c-0,0.348 0.011,0.693 0.033,1.035c0,0 -1.994,0 -1.994,0c-0.904,0 -1.638,0.734 -1.638,1.639c-0,0.904 0.734,1.638 1.638,1.638c0,0 2.559,0 2.559,0c1.9,6.711 8.115,11.688 15.402,11.688c2.421,0 4.812,-0.55 6.99,-1.608c0.814,-0.395 1.153,-1.376 0.758,-2.19c-0.395,-0.813 -1.376,-1.153 -2.189,-0.758c-1.733,0.842 -3.634,1.279 -5.559,1.279c-5.47,0 -10.179,-3.527 -11.961,-8.411c-0,0 13.747,0 13.747,0c0.905,0 1.639,-0.734 1.639,-1.638c-0,-0.905 -0.734,-1.639 -1.639,-1.639l-14.467,0c-0.028,-0.341 -0.043,-0.687 -0.043,-1.035c0,-0.348 0.015,-0.694 0.043,-1.035c-0,-0 14.467,-0 14.467,-0c0.905,-0 1.639,-0.734 1.639,-1.639c-0,-0.904 -0.734,-1.638 -1.639,-1.638l-13.747,-0c1.782,-4.884 6.491,-8.411 11.961,-8.411c1.925,-0 3.826,0.437 5.559,1.279c0.813,0.395 1.794,0.055 2.189,-0.758c0.395,-0.814 0.056,-1.795 -0.758,-2.19c-2.178,-1.058 -4.569,-1.608 -6.99,-1.608c-7.287,0 -13.502,4.977 -15.402,11.688Z" style="fill:#fff;"/></svg>