<?xml version="1.0" encoding="utf-8"?>
<!-- Generator: Adobe Illustrator 26.5.0, SVG Export Plug-In . SVG Version: 6.00 Build 0)  -->
<svg version="1.1" id="Ebene_2" xmlns="http://www.w3.org/2000/svg" xmlns:xlink="http://www.w3.org/1999/xlink" x="0px" y="0px"
	 viewBox="0 0 500 500" width="500px" height="500px" style="enable-background:new 0 0 500 500;" xml:space="preserve">
<style type="text/css">
	.st0{fill:#E6E6E6;}
	.st1{fill:#FFFFFF;}
</style>
<rect y="150" class="st0" width="500" height="300"/>
<path class="st1" d="M482,295H18c-4.4,0-8-3.6-8-8V168c0-4.4,3.6-8,8-8h464c4.4,0,8,3.6,8,8v119C490,291.4,486.4,295,482,295z"/>
<path class="st1" d="M482,440H18c-4.4,0-8-3.6-8-8V313c0-4.4,3.6-8,8-8h464c4.4,0,8,3.6,8,8v119C490,436.4,486.4,440,482,440z"/>
</svg>
