<?xml version="1.0" encoding="utf-8"?>
<!-- Generator: Adobe Illustrator 26.5.0, SVG Export Plug-In . SVG Version: 6.00 Build 0)  -->
<svg version="1.1" id="Ebene_2" xmlns="http://www.w3.org/2000/svg" xmlns:xlink="http://www.w3.org/1999/xlink" x="0px" y="0px"
	 viewBox="0 0 500 500" style="enable-background:new 0 0 500 500;" xml:space="preserve">
<style type="text/css">
	.st0{fill:#E6E6E6;}
	.st1{fill:#FFFFFF;}
</style>
<rect y="150" class="st0" width="500" height="300"/>
<path class="st1" d="M237,246.7H18c-4.4,0-8-3.6-8-8V168c0-4.4,3.6-8,8-8h219c4.4,0,8,3.6,8,8v70.7C245,243.1,241.4,246.7,237,246.7
	z"/>
<path class="st1" d="M482,246.7H263c-4.4,0-8-3.6-8-8V168c0-4.4,3.6-8,8-8h219c4.4,0,8,3.6,8,8v70.7
	C490,243.1,486.4,246.7,482,246.7z"/>
<path class="st1" d="M482,343.3H263c-4.4,0-8-3.6-8-8v-70.7c0-4.4,3.6-8,8-8h219c4.4,0,8,3.6,8,8v70.7
	C490,339.8,486.4,343.3,482,343.3z"/>
<path class="st1" d="M237,343.3H18c-4.4,0-8-3.6-8-8v-70.7c0-4.4,3.6-8,8-8h219c4.4,0,8,3.6,8,8v70.7
	C245,339.8,241.4,343.3,237,343.3z"/>
<path class="st1" d="M482,440H18c-4.4,0-8-3.6-8-8v-70.7c0-4.4,3.6-8,8-8h464c4.4,0,8,3.6,8,8V432C490,436.4,486.4,440,482,440z"/>
</svg>
