<svg clip-rule="evenodd" fill-rule="evenodd" stroke-linejoin="round" stroke-miterlimit="2" viewBox="0 0 500 500" xmlns="http://www.w3.org/2000/svg"><path d="m0 150h500v300h-500z" fill="#27292b"/><g fill="#1b1c1e" fill-rule="nonzero"><path d="m237 246.7h-219c-4.4 0-8-3.6-8-8v-70.7c0-4.4 3.6-8 8-8h219c4.4 0 8 3.6 8 8v70.7c0 4.4-3.6 8-8 8z"/><path d="m482 246.7h-219c-4.4 0-8-3.6-8-8v-70.7c0-4.4 3.6-8 8-8h219c4.4 0 8 3.6 8 8v70.7c0 4.4-3.6 8-8 8z"/><path d="m482 343.3h-219c-4.4 0-8-3.6-8-8v-70.7c0-4.4 3.6-8 8-8h219c4.4 0 8 3.6 8 8v70.7c0 4.5-3.6 8-8 8z"/><path d="m237 343.3h-219c-4.4 0-8-3.6-8-8v-70.7c0-4.4 3.6-8 8-8h219c4.4 0 8 3.6 8 8v70.7c0 4.5-3.6 8-8 8z"/><path d="m482 440h-464c-4.4 0-8-3.6-8-8v-70.7c0-4.4 3.6-8 8-8h464c4.4 0 8 3.6 8 8v70.7c0 4.4-3.6 8-8 8z"/></g></svg>