<?xml version="1.0" encoding="utf-8"?>
<!-- Generator: Adobe Illustrator 26.5.0, SVG Export Plug-In . SVG Version: 6.00 Build 0)  -->
<svg version="1.1" xmlns="http://www.w3.org/2000/svg" xmlns:xlink="http://www.w3.org/1999/xlink" x="0px" y="0px"
	 viewBox="0 0 500 500" style="enable-background:new 0 0 500 500;" xml:space="preserve">
<style type="text/css">
	.st0{display:none;}
	.st1{display:inline;}
	.st2{fill:#0071BC;}
	.st3{fill:#E6E6E6;}
	.st4{fill:#FFFFFF;}
	.st5{display:inline;opacity:0.68;fill:#FFFFFF;}
	.st6{opacity:0.63;}
	.st7{opacity:0.67;}
	.st8{opacity:0.68;}
	.st9{fill:#808080;}
	.st10{display:inline;opacity:0.32;}
	.st11{display:inline;fill:#FFFFFF;}
	.st12{opacity:0.32;}
	.st13{fill:#3FA9F5;}
	.st14{fill:#FF1D25;}
	.st15{fill:#FF931E;}
	.st16{fill:#7AC943;}
	.st17{fill:#A487C9;}
	.st18{fill:#ADB5BD;}
	.st19{display:inline;fill:#ADB5BD;}
	.st20{display:inline;fill:#E9ECEF;}
	.st21{display:inline;opacity:0.3;fill:#FFFFFF;}
	.st22{fill:#FFFFFF;stroke:#009191;stroke-width:4;stroke-miterlimit:10;}
	.st23{fill:#212529;}
	.st24{fill:#10A3A3;}
	.st25{fill:#E9ECEF;}
	.st26{opacity:0.3;fill:#FFFFFF;}
</style>
<g id="Ebene_2" class="st0">
</g>
<g id="Ebene_3" class="st0">
</g>
<g id="Ebene_4" class="st0">
</g>
<g id="Ebene_5">
	<g>
		<rect class="st18" width="500" height="150"/>
	</g>
	<rect y="450" class="st18" width="500" height="50"/>
	<rect y="150" class="st25" width="500" height="300"/>
	<g>
		<path class="st4" d="M237,246.7H18c-4.4,0-8-3.6-8-8V168c0-4.4,3.6-8,8-8h219c4.4,0,8,3.6,8,8v70.7
			C245,243.1,241.4,246.7,237,246.7z"/>
	</g>
	<g>
		<path class="st4" d="M482,343.3H18c-4.4,0-8-3.6-8-8v-70.7c0-4.4,3.6-8,8-8h464c4.4,0,8,3.6,8,8v70.7
			C490,339.8,486.4,343.3,482,343.3z"/>
	</g>
	<g>
		<path class="st4" d="M482,440H18c-4.4,0-8-3.6-8-8v-70.7c0-4.4,3.6-8,8-8h464c4.4,0,8,3.6,8,8V432C490,436.4,486.4,440,482,440z"
			/>
	</g>
	<g>
		<path class="st4" d="M482,246.7H263c-4.4,0-8-3.6-8-8V168c0-4.4,3.6-8,8-8h219c4.4,0,8,3.6,8,8v70.7
			C490,243.1,486.4,246.7,482,246.7z"/>
	</g>
	<rect x="248" y="10" class="st26" width="4" height="130"/>
	<rect x="248" y="460" class="st26" width="4" height="30"/>
	<g>
		<circle class="st22" cx="127.5" cy="75" r="52.5"/>
		<g>
			<path class="st23" d="M136.4,105h-9.7V66.4c0-1.3,0-2.6,0-3.9c0-1.3,0-2.5,0.1-3.8s0.1-2.4,0.2-3.5c-0.5,0.6-1.2,1.3-2.1,2
				s-1.7,1.5-2.7,2.3l-6.8,5.5l-4.8-6.2L128.4,45h8V105z"/>
		</g>
	</g>
	<g>
		<circle class="st22" cx="372.5" cy="75" r="52.5"/>
		<g>
			<path class="st23" d="M392.8,105.4h-40.6v-7.3l15.5-15.8c3-3.1,5.5-5.7,7.4-7.9c1.9-2.2,3.4-4.3,4.3-6.3c1-2,1.4-4.2,1.4-6.5
				c0-2.9-0.8-5.1-2.5-6.5c-1.7-1.5-3.9-2.2-6.6-2.2c-2.6,0-5,0.5-7.2,1.5s-4.5,2.5-6.8,4.4l-5.3-6.4c1.6-1.4,3.4-2.7,5.3-3.9
				c1.9-1.2,4-2.1,6.4-2.8c2.4-0.7,5-1.1,8.1-1.1c3.8,0,7.1,0.7,9.8,2s4.9,3.2,6.4,5.7s2.2,5.2,2.2,8.4c0,3.3-0.6,6.2-1.9,9
				c-1.3,2.7-3.1,5.4-5.5,8.1c-2.4,2.7-5.2,5.6-8.5,8.7l-10.4,10.1V97h28.4V105.4z"/>
		</g>
	</g>
	<g>
		<g>
			<circle class="st4" cx="127.5" cy="203.3" r="50.5"/>
			<path class="st24" d="M127.5,154.8c26.7,0,48.5,21.8,48.5,48.5s-21.8,48.5-48.5,48.5S79,230.1,79,203.3S100.8,154.8,127.5,154.8
				 M127.5,150.8c-29,0-52.5,23.5-52.5,52.5s23.5,52.5,52.5,52.5s52.5-23.5,52.5-52.5S156.5,150.8,127.5,150.8L127.5,150.8z"/>
		</g>
		<g>
			<path class="st23" d="M145.9,187.1c0,2.7-0.5,5.1-1.6,7.1c-1.1,2-2.6,3.6-4.5,4.9s-4.1,2.2-6.6,2.7v0.3c4.8,0.6,8.4,2.1,10.8,4.5
				c2.4,2.4,3.7,5.6,3.7,9.6c0,3.5-0.8,6.6-2.5,9.3c-1.7,2.7-4.2,4.9-7.7,6.4s-7.9,2.3-13.3,2.3c-3.3,0-6.3-0.3-9-0.8
				s-5.4-1.3-7.9-2.5v-8.6c2.5,1.3,5.2,2.2,8.1,2.9c2.9,0.7,5.6,1,8.2,1c5,0,8.6-0.9,10.7-2.8c2.1-1.9,3.2-4.5,3.2-7.8
				c0-2.1-0.5-3.8-1.6-5.2c-1.1-1.4-2.8-2.4-5.1-3.1c-2.3-0.7-5.3-1-9-1h-5.2v-7.8h5.3c3.5,0,6.3-0.4,8.3-1.3c2.1-0.8,3.6-2,4.6-3.4
				c0.9-1.5,1.4-3.2,1.4-5.1c0-2.6-0.8-4.6-2.5-6c-1.7-1.4-4.1-2.1-7.4-2.1c-2,0-3.9,0.2-5.5,0.7s-3.2,1-4.6,1.8
				c-1.4,0.7-2.7,1.5-4,2.3l-4.7-6.7c2.3-1.7,5-3.1,8.1-4.3c3.2-1.2,6.8-1.8,11-1.8c6.2,0,10.9,1.3,14.2,4
				C144.2,179.1,145.9,182.6,145.9,187.1z"/>
		</g>
	</g>
	<g>
		<g>
			<circle class="st4" cx="188.8" cy="300" r="50.5"/>
			<path class="st24" d="M188.8,251.5c26.7,0,48.5,21.8,48.5,48.5c0,26.7-21.8,48.5-48.5,48.5s-48.5-21.8-48.5-48.5
				C140.2,273.3,162,251.5,188.8,251.5 M188.8,247.5c-29,0-52.5,23.5-52.5,52.5c0,29,23.5,52.5,52.5,52.5s52.5-23.5,52.5-52.5
				C241.2,271,217.7,247.5,188.8,247.5L188.8,247.5z"/>
		</g>
		<g>
			<path class="st23" d="M188.7,292.1c3.9,0,7.3,0.7,10.2,2.1c2.9,1.4,5.2,3.4,6.9,6.1s2.5,5.9,2.5,9.8c0,4.2-0.9,7.8-2.7,10.9
				c-1.8,3-4.4,5.4-7.8,7s-7.7,2.5-12.6,2.5c-3.1,0-6-0.3-8.8-0.8s-5.1-1.3-7-2.4v-8.7c2,1.1,4.5,2.1,7.4,2.8
				c2.9,0.7,5.6,1.1,8.3,1.1c2.8,0,5.1-0.4,7.2-1.2s3.6-2.1,4.6-3.8c1.1-1.7,1.6-3.8,1.6-6.4c0-3.4-1.1-6.1-3.3-8
				c-2.2-1.9-5.7-2.8-10.3-2.8c-1.6,0-3.3,0.1-5.2,0.4s-3.4,0.6-4.6,0.9l-4.3-2.5l2.3-29.4h31.2v8.5h-22.7l-1.3,14.9
				c1-0.2,2.2-0.4,3.5-0.6S186.7,292.1,188.7,292.1z"/>
		</g>
	</g>
	<g>
		<g>
			<circle class="st4" cx="372.5" cy="203.3" r="50.5"/>
			<path class="st24" d="M372.5,154.8c26.7,0,48.5,21.8,48.5,48.5s-21.8,48.5-48.5,48.5S324,230.1,324,203.3
				S345.8,154.8,372.5,154.8 M372.5,150.8c-29,0-52.5,23.5-52.5,52.5s23.5,52.5,52.5,52.5s52.5-23.5,52.5-52.5
				S401.5,150.8,372.5,150.8L372.5,150.8z"/>
		</g>
		<g>
			<path class="st23" d="M394,219.2h-8.1v13.2h-9.5v-13.2H349v-7.3l27.4-39.7h9.4v39h8.1V219.2z M376.3,211.2v-14.9
				c0-1.2,0-2.5,0-3.7c0-1.3,0.1-2.5,0.1-3.7s0.1-2.3,0.2-3.3s0.1-1.8,0.1-2.5h-0.3c-0.5,1.1-1.1,2.2-1.7,3.4
				c-0.6,1.1-1.3,2.2-2,3.3L358,211.2H376.3z"/>
		</g>
	</g>
	<g>
		<g>
			<circle class="st4" cx="250" cy="399.3" r="50.5"/>
			<path class="st24" d="M250,350.8c26.7,0,48.5,21.8,48.5,48.5s-21.8,48.5-48.5,48.5s-48.5-21.8-48.5-48.5S223.3,350.8,250,350.8
				 M250,346.8c-29,0-52.5,23.5-52.5,52.5c0,29,23.5,52.5,52.5,52.5s52.5-23.5,52.5-52.5C302.5,370.3,279,346.8,250,346.8L250,346.8
				z"/>
		</g>
		<g>
			<path class="st23" d="M229.6,403.7c0-3.5,0.3-7,0.8-10.4s1.4-6.6,2.6-9.6s2.9-5.6,5.1-7.9s4.9-4.1,8.2-5.4s7.3-1.9,11.9-1.9
				c1.2,0,2.6,0.1,4.1,0.2s2.7,0.3,3.7,0.5v8c-1.1-0.3-2.2-0.5-3.5-0.7s-2.5-0.2-3.8-0.2c-5,0-9,1-11.8,2.9s-4.8,4.5-6,7.8
				s-1.9,7-2.1,11.3h0.5c0.8-1.4,1.8-2.6,3.1-3.7s2.7-1.9,4.5-2.6s3.8-1,6.2-1c3.5,0,6.5,0.7,9.1,2.2s4.6,3.6,6,6.3s2.1,6.1,2.1,10
				c0,4.2-0.8,7.9-2.4,11s-3.9,5.4-6.8,7.1s-6.4,2.5-10.5,2.5c-3,0-5.8-0.5-8.3-1.6s-4.8-2.7-6.7-4.9s-3.4-4.9-4.5-8.2
				S229.6,408.2,229.6,403.7z M250.5,422.1c3.1,0,5.6-1,7.5-3.1s2.9-5.2,2.9-9.4c0-3.4-0.8-6.1-2.5-8.1s-4.2-3-7.6-3
				c-2.3,0-4.3,0.5-6,1.5s-3.1,2.2-4,3.7s-1.4,3-1.4,4.6c0,1.6,0.2,3.2,0.7,4.8s1.2,3.1,2.1,4.5s2.1,2.4,3.5,3.3
				S248.7,422.1,250.5,422.1z"/>
		</g>
	</g>
</g>
<g id="Ebene_6" class="st0">
</g>
</svg>
