<?xml version="1.0" encoding="utf-8"?>
<!-- Generator: Adobe Illustrator 26.5.0, SVG Export Plug-In . SVG Version: 6.00 Build 0)  -->
<svg version="1.1" xmlns="http://www.w3.org/2000/svg" xmlns:xlink="http://www.w3.org/1999/xlink" x="0px" y="0px"
	 viewBox="0 0 500 500" style="enable-background:new 0 0 500 500;" xml:space="preserve">
<style type="text/css">
	.st0{display:none;}
	.st1{display:inline;}
	.st2{fill:#0071BC;}
	.st3{fill:#E6E6E6;}
	.st4{fill:#FFFFFF;}
	.st5{display:inline;opacity:0.68;fill:#FFFFFF;}
	.st6{opacity:0.63;}
	.st7{opacity:0.67;}
	.st8{opacity:0.68;}
	.st9{fill:#808080;}
	.st10{display:inline;opacity:0.32;}
	.st11{display:inline;fill:#FFFFFF;}
	.st12{opacity:0.32;}
	.st13{fill:#3FA9F5;}
	.st14{fill:#FF1D25;}
	.st15{fill:#FF931E;}
	.st16{fill:#7AC943;}
	.st17{fill:#A487C9;}
	.st18{fill:#ADB5BD;}
	.st19{display:inline;fill:#ADB5BD;}
	.st20{display:inline;fill:#E9ECEF;}
	.st21{display:inline;opacity:0.3;fill:#FFFFFF;}
	.st22{fill:#FFFFFF;stroke:#009191;stroke-width:4;stroke-miterlimit:10;}
	.st23{fill:#212529;}
	.st24{fill:#10A3A3;}
	.st25{fill:#E9ECEF;}
	.st26{opacity:0.3;fill:#FFFFFF;}
</style>
<g id="Ebene_2" class="st0">
</g>
<g id="Ebene_3" class="st0">
</g>
<g id="Ebene_4" class="st0">
</g>
<g id="Ebene_5" class="st0">
</g>
<g id="Ebene_6">
	<g>
		<rect class="st18" width="500" height="150"/>
	</g>
	<rect y="450" class="st18" width="500" height="50"/>
	<rect y="150" class="st25" width="500" height="300"/>
	<g>
		<path class="st4" d="M482,295H18c-4.4,0-8-3.6-8-8V168c0-4.4,3.6-8,8-8h464c4.4,0,8,3.6,8,8v119C490,291.4,486.4,295,482,295z"/>
	</g>
	<g>
		<path class="st4" d="M482,440H18c-4.4,0-8-3.6-8-8V313c0-4.4,3.6-8,8-8h464c4.4,0,8,3.6,8,8v119C490,436.4,486.4,440,482,440z"/>
	</g>
	<rect x="248" y="10" class="st26" width="4" height="130"/>
	<rect x="248" y="460" class="st26" width="4" height="30"/>
	<g>
		<circle class="st22" cx="127.5" cy="75" r="52.5"/>
		<g>
			<path class="st23" d="M136.4,105h-9.7V66.4c0-1.3,0-2.6,0-3.9c0-1.3,0-2.5,0.1-3.8s0.1-2.4,0.2-3.5c-0.5,0.6-1.2,1.3-2.1,2
				s-1.7,1.5-2.7,2.3l-6.8,5.5l-4.8-6.2L128.4,45h8V105z"/>
		</g>
	</g>
	<g>
		<circle class="st22" cx="372.5" cy="75" r="52.5"/>
		<g>
			<path class="st23" d="M392.8,105.4h-40.6v-7.3l15.5-15.8c3-3.1,5.5-5.7,7.4-7.9c1.9-2.2,3.4-4.3,4.3-6.3c1-2,1.4-4.2,1.4-6.5
				c0-2.9-0.8-5.1-2.5-6.5c-1.7-1.5-3.9-2.2-6.6-2.2c-2.6,0-5,0.5-7.2,1.5s-4.5,2.5-6.8,4.4l-5.3-6.4c1.6-1.4,3.4-2.7,5.3-3.9
				c1.9-1.2,4-2.1,6.4-2.8c2.4-0.7,5-1.1,8.1-1.1c3.8,0,7.1,0.7,9.8,2s4.9,3.2,6.4,5.7s2.2,5.2,2.2,8.4c0,3.3-0.6,6.2-1.9,9
				c-1.3,2.7-3.1,5.4-5.5,8.1c-2.4,2.7-5.2,5.6-8.5,8.7l-10.4,10.1V97h28.4V105.4z"/>
		</g>
	</g>
	<g>
		<g>
			<circle class="st4" cx="250" cy="227.5" r="50.5"/>
			<path class="st24" d="M250,179c26.7,0,48.5,21.8,48.5,48.5S276.7,276,250,276s-48.5-21.8-48.5-48.5S223.3,179,250,179 M250,175
				c-29,0-52.5,23.5-52.5,52.5S221,280,250,280s52.5-23.5,52.5-52.5S279,175,250,175L250,175z"/>
		</g>
		<g>
			<path class="st23" d="M268.4,211.2c0,2.7-0.5,5.1-1.6,7.1c-1.1,2-2.6,3.6-4.5,4.9s-4.1,2.2-6.6,2.7v0.3c4.8,0.6,8.4,2.1,10.8,4.5
				c2.4,2.4,3.7,5.6,3.7,9.6c0,3.5-0.8,6.6-2.5,9.3c-1.7,2.7-4.2,4.9-7.7,6.4s-7.9,2.3-13.3,2.3c-3.3,0-6.3-0.3-9-0.8
				s-5.4-1.3-7.9-2.5v-8.6c2.5,1.3,5.2,2.2,8.1,2.9c2.9,0.7,5.6,1,8.2,1c5,0,8.6-0.9,10.7-2.8c2.1-1.9,3.2-4.5,3.2-7.8
				c0-2.1-0.5-3.8-1.6-5.2c-1.1-1.4-2.8-2.4-5.1-3.1c-2.3-0.7-5.3-1-9-1H239v-7.8h5.3c3.5,0,6.3-0.4,8.3-1.3c2.1-0.8,3.6-2,4.6-3.4
				c0.9-1.5,1.4-3.2,1.4-5.1c0-2.6-0.8-4.6-2.5-6c-1.7-1.4-4.1-2.1-7.4-2.1c-2,0-3.9,0.2-5.5,0.7s-3.2,1-4.6,1.8
				c-1.4,0.7-2.7,1.5-4,2.3l-4.7-6.7c2.3-1.7,5-3.1,8.1-4.3c3.2-1.2,6.8-1.8,11-1.8c6.2,0,10.9,1.3,14.2,4
				C266.7,203.3,268.4,206.8,268.4,211.2z"/>
		</g>
	</g>
	<g>
		<g>
			<circle class="st4" cx="250" cy="372.5" r="50.5"/>
			<path class="st24" d="M250,324c26.7,0,48.5,21.8,48.5,48.5S276.7,421,250,421s-48.5-21.8-48.5-48.5S223.3,324,250,324 M250,320
				c-29,0-52.5,23.5-52.5,52.5S221,425,250,425s52.5-23.5,52.5-52.5S279,320,250,320L250,320z"/>
		</g>
		<g>
			<path class="st23" d="M271.5,388.4h-8.1v13.2h-9.5v-13.2h-27.3v-7.3l27.4-39.7h9.4v39h8.1V388.4z M253.8,380.4v-14.9
				c0-1.2,0-2.5,0-3.7c0-1.3,0.1-2.5,0.1-3.7s0.1-2.3,0.2-3.3s0.1-1.8,0.1-2.5H254c-0.5,1.1-1.1,2.2-1.7,3.4c-0.6,1.1-1.3,2.2-2,3.3
				l-14.7,21.4H253.8z"/>
		</g>
	</g>
</g>
</svg>
