<?xml version="1.0" encoding="utf-8"?>
<!-- Generator: Adobe Illustrator 26.5.0, SVG Export Plug-In . SVG Version: 6.00 Build 0)  -->
<svg version="1.1" xmlns="http://www.w3.org/2000/svg" xmlns:xlink="http://www.w3.org/1999/xlink" x="0px" y="0px"
	 viewBox="0 0 500 500" style="enable-background:new 0 0 500 500;" xml:space="preserve">
<style type="text/css">
	.st0{display:none;}
	.st1{display:inline;}
	.st2{fill:#0071BC;}
	.st3{fill:#E6E6E6;}
	.st4{fill:#FFFFFF;}
	.st5{display:inline;opacity:0.68;fill:#FFFFFF;}
	.st6{opacity:0.63;}
	.st7{opacity:0.67;}
	.st8{opacity:0.68;}
	.st9{fill:#808080;}
	.st10{display:inline;opacity:0.32;}
	.st11{display:inline;fill:#FFFFFF;}
	.st12{opacity:0.32;}
	.st13{fill:#3FA9F5;}
	.st14{fill:#FF1D25;}
	.st15{fill:#FF931E;}
	.st16{fill:#7AC943;}
	.st17{fill:#A487C9;}
	.st18{fill:#ADB5BD;}
	.st19{fill:#E9ECEF;}
	.st20{opacity:0.3;fill:#FFFFFF;}
	.st21{fill:#FFFFFF;stroke:#009191;stroke-width:4;stroke-miterlimit:10;}
	.st22{fill:#212529;}
	.st23{fill:#10A3A3;}
</style>
<g id="Ebene_2" class="st0">
</g>
<g id="Ebene_3" class="st0">
</g>
<g id="Ebene_4">
	<g>
		<rect class="st18" width="500" height="150"/>
	</g>
	<rect y="450" class="st18" width="500" height="50"/>
	<rect y="150" class="st19" width="500" height="300"/>
	<g>
		<path class="st4" d="M237,246.7H18c-4.4,0-8-3.6-8-8V168c0-4.4,3.6-8,8-8h219c4.4,0,8,3.6,8,8v70.7
			C245,243.1,241.4,246.7,237,246.7z"/>
	</g>
	<g>
		<path class="st4" d="M237,343.3H18c-4.4,0-8-3.6-8-8v-70.7c0-4.4,3.6-8,8-8h219c4.4,0,8,3.6,8,8v70.7
			C245,339.8,241.4,343.3,237,343.3z"/>
	</g>
	<g>
		<path class="st4" d="M237,440H18c-4.4,0-8-3.6-8-8v-70.7c0-4.4,3.6-8,8-8h219c4.4,0,8,3.6,8,8V432C245,436.4,241.4,440,237,440z"
			/>
	</g>
	<g>
		<path class="st4" d="M482,246.7H263c-4.4,0-8-3.6-8-8V168c0-4.4,3.6-8,8-8h219c4.4,0,8,3.6,8,8v70.7
			C490,243.1,486.4,246.7,482,246.7z"/>
	</g>
	<g>
		<path class="st4" d="M482,343.3H263c-4.4,0-8-3.6-8-8v-70.7c0-4.4,3.6-8,8-8h219c4.4,0,8,3.6,8,8v70.7
			C490,339.8,486.4,343.3,482,343.3z"/>
	</g>
	<g>
		<path class="st4" d="M482,440H263c-4.4,0-8-3.6-8-8v-70.7c0-4.4,3.6-8,8-8h219c4.4,0,8,3.6,8,8V432C490,436.4,486.4,440,482,440z"
			/>
	</g>
	<rect x="248" y="10" class="st20" width="4" height="130"/>
	<rect x="248" y="460" class="st20" width="4" height="30"/>
	<g>
		<circle class="st21" cx="127.5" cy="75" r="52.5"/>
		<g>
			<path class="st22" d="M136.4,105h-9.7V66.4c0-1.3,0-2.6,0-3.9c0-1.3,0-2.5,0.1-3.8s0.1-2.4,0.2-3.5c-0.5,0.6-1.2,1.3-2.1,2
				s-1.7,1.5-2.7,2.3l-6.8,5.5l-4.8-6.2L128.4,45h8V105z"/>
		</g>
	</g>
	<g>
		<circle class="st21" cx="372.5" cy="75" r="52.5"/>
		<g>
			<path class="st22" d="M392.8,105.4h-40.6v-7.3l15.5-15.8c3-3.1,5.5-5.7,7.4-7.9c1.9-2.2,3.4-4.3,4.3-6.3c1-2,1.4-4.2,1.4-6.5
				c0-2.9-0.8-5.1-2.5-6.5c-1.7-1.5-3.9-2.2-6.6-2.2c-2.6,0-5,0.5-7.2,1.5s-4.5,2.5-6.8,4.4l-5.3-6.4c1.6-1.4,3.4-2.7,5.3-3.9
				c1.9-1.2,4-2.1,6.4-2.8c2.4-0.7,5-1.1,8.1-1.1c3.8,0,7.1,0.7,9.8,2s4.9,3.2,6.4,5.7s2.2,5.2,2.2,8.4c0,3.3-0.6,6.2-1.9,9
				c-1.3,2.7-3.1,5.4-5.5,8.1c-2.4,2.7-5.2,5.6-8.5,8.7l-10.4,10.1V97h28.4V105.4z"/>
		</g>
	</g>
	<g>
		<g>
			<circle class="st4" cx="67.5" cy="203.3" r="50.5"/>
			<path class="st23" d="M67.5,154.8c26.7,0,48.5,21.8,48.5,48.5s-21.8,48.5-48.5,48.5S19,230.1,19,203.3S40.8,154.8,67.5,154.8
				 M67.5,150.8c-29,0-52.5,23.5-52.5,52.5s23.5,52.5,52.5,52.5s52.5-23.5,52.5-52.5S96.5,150.8,67.5,150.8L67.5,150.8z"/>
		</g>
		<g>
			<path class="st22" d="M85.9,187.1c0,2.7-0.5,5.1-1.6,7.1c-1.1,2-2.6,3.6-4.5,4.9s-4.1,2.2-6.6,2.7v0.3c4.8,0.6,8.4,2.1,10.8,4.5
				c2.4,2.4,3.7,5.6,3.7,9.6c0,3.5-0.8,6.6-2.5,9.3c-1.7,2.7-4.2,4.9-7.7,6.4s-7.9,2.3-13.3,2.3c-3.3,0-6.3-0.3-9-0.8
				s-5.4-1.3-7.9-2.5v-8.6c2.5,1.3,5.2,2.2,8.1,2.9c2.9,0.7,5.6,1,8.2,1c5,0,8.6-0.9,10.7-2.8c2.1-1.9,3.2-4.5,3.2-7.8
				c0-2.1-0.5-3.8-1.6-5.2c-1.1-1.4-2.8-2.4-5.1-3.1c-2.3-0.7-5.3-1-9-1h-5.2v-7.8h5.3c3.5,0,6.3-0.4,8.3-1.3c2.1-0.8,3.6-2,4.6-3.4
				c0.9-1.5,1.4-3.2,1.4-5.1c0-2.6-0.8-4.6-2.5-6c-1.7-1.4-4.1-2.1-7.4-2.1c-2,0-3.9,0.2-5.5,0.7s-3.2,1-4.6,1.8
				c-1.4,0.7-2.7,1.5-4,2.3l-4.7-6.7c2.3-1.7,5-3.1,8.1-4.3c3.2-1.2,6.8-1.8,11-1.8c6.2,0,10.9,1.3,14.2,4
				C84.2,179.1,85.9,182.6,85.9,187.1z"/>
		</g>
	</g>
	<g>
		<g>
			<circle class="st4" cx="127.5" cy="300" r="50.5"/>
			<path class="st23" d="M127.5,251.5c26.7,0,48.5,21.8,48.5,48.5c0,26.7-21.8,48.5-48.5,48.5S79,326.7,79,300
				C79,273.3,100.8,251.5,127.5,251.5 M127.5,247.5C98.5,247.5,75,271,75,300c0,29,23.5,52.5,52.5,52.5S180,329,180,300
				C180,271,156.5,247.5,127.5,247.5L127.5,247.5z"/>
		</g>
		<g>
			<path class="st22" d="M127.4,292.1c3.9,0,7.3,0.7,10.2,2.1c2.9,1.4,5.2,3.4,6.9,6.1s2.5,5.9,2.5,9.8c0,4.2-0.9,7.8-2.7,10.9
				c-1.8,3-4.4,5.4-7.8,7s-7.7,2.5-12.6,2.5c-3.1,0-6-0.3-8.8-0.8s-5.1-1.3-7-2.4v-8.7c2,1.1,4.5,2.1,7.4,2.8
				c2.9,0.7,5.6,1.1,8.3,1.1c2.8,0,5.1-0.4,7.2-1.2s3.6-2.1,4.6-3.8c1.1-1.7,1.6-3.8,1.6-6.4c0-3.4-1.1-6.1-3.3-8
				c-2.2-1.9-5.7-2.8-10.3-2.8c-1.6,0-3.3,0.1-5.2,0.4s-3.4,0.6-4.6,0.9l-4.3-2.5l2.3-29.4h31.2v8.5h-22.7l-1.3,14.9
				c1-0.2,2.2-0.4,3.5-0.6S125.4,292.1,127.4,292.1z"/>
		</g>
	</g>
	<g>
		<g>
			<circle class="st4" cx="187.5" cy="396.7" r="50.5"/>
			<path class="st23" d="M187.5,348.2c26.7,0,48.5,21.8,48.5,48.5s-21.8,48.5-48.5,48.5S139,423.4,139,396.7
				S160.8,348.2,187.5,348.2 M187.5,344.2c-29,0-52.5,23.5-52.5,52.5c0,29,23.5,52.5,52.5,52.5s52.5-23.5,52.5-52.5
				C240,367.7,216.5,344.2,187.5,344.2L187.5,344.2z"/>
		</g>
		<g>
			<path class="st22" d="M174.3,426.6l23.6-51.5h-31.1v-8.4h41.5v6.6l-23.5,53.4H174.3z"/>
		</g>
	</g>
	<g>
		<g>
			<circle class="st4" cx="312.5" cy="203.3" r="50.5"/>
			<path class="st23" d="M312.5,154.8c26.7,0,48.5,21.8,48.5,48.5s-21.8,48.5-48.5,48.5S264,230.1,264,203.3
				S285.8,154.8,312.5,154.8 M312.5,150.8c-29,0-52.5,23.5-52.5,52.5s23.5,52.5,52.5,52.5s52.5-23.5,52.5-52.5
				S341.5,150.8,312.5,150.8L312.5,150.8z"/>
		</g>
		<g>
			<path class="st22" d="M334,219.2h-8.1v13.2h-9.5v-13.2H289v-7.3l27.4-39.7h9.4v39h8.1V219.2z M316.3,211.2v-14.9
				c0-1.2,0-2.5,0-3.7c0-1.3,0.1-2.5,0.1-3.7s0.1-2.3,0.2-3.3s0.1-1.8,0.1-2.5h-0.3c-0.5,1.1-1.1,2.2-1.7,3.4
				c-0.6,1.1-1.3,2.2-2,3.3L298,211.2H316.3z"/>
		</g>
	</g>
	<g>
		<g>
			<circle class="st4" cx="372.5" cy="300" r="50.5"/>
			<path class="st23" d="M372.5,251.5c26.7,0,48.5,21.8,48.5,48.5c0,26.7-21.8,48.5-48.5,48.5S324,326.7,324,300
				C324,273.3,345.8,251.5,372.5,251.5 M372.5,247.5c-29,0-52.5,23.5-52.5,52.5c0,29,23.5,52.5,52.5,52.5S425,329,425,300
				C425,271,401.5,247.5,372.5,247.5L372.5,247.5z"/>
		</g>
		<g>
			<path class="st22" d="M352.1,304.4c0-3.5,0.3-7,0.8-10.4s1.4-6.6,2.6-9.6s2.9-5.6,5.1-7.9s4.9-4.1,8.2-5.4s7.3-1.9,11.9-1.9
				c1.2,0,2.6,0.1,4.1,0.2s2.7,0.3,3.7,0.5v8c-1.1-0.3-2.2-0.5-3.5-0.7s-2.5-0.2-3.8-0.2c-5,0-9,1-11.8,2.9s-4.8,4.5-6,7.8
				s-1.9,7-2.1,11.3h0.5c0.8-1.4,1.8-2.6,3.1-3.7s2.7-1.9,4.5-2.6s3.8-1,6.2-1c3.5,0,6.5,0.7,9.1,2.2s4.6,3.6,6,6.3s2.1,6.1,2.1,10
				c0,4.2-0.8,7.9-2.4,11s-3.9,5.4-6.8,7.1s-6.4,2.5-10.5,2.5c-3,0-5.8-0.5-8.3-1.6s-4.8-2.7-6.7-4.9s-3.4-4.9-4.5-8.2
				S352.1,308.9,352.1,304.4z M373,322.8c3.1,0,5.6-1,7.5-3.1s2.9-5.2,2.9-9.4c0-3.4-0.8-6.1-2.5-8.1s-4.2-3-7.6-3
				c-2.3,0-4.3,0.5-6,1.5s-3.1,2.2-4,3.7s-1.4,3-1.4,4.6c0,1.6,0.2,3.2,0.7,4.8s1.2,3.1,2.1,4.5s2.1,2.4,3.5,3.3
				S371.2,322.8,373,322.8z"/>
		</g>
	</g>
	<g>
		<g>
			<circle class="st4" cx="432.5" cy="396.7" r="50.5"/>
			<path class="st23" d="M432.5,348.2c26.7,0,48.5,21.8,48.5,48.5s-21.8,48.5-48.5,48.5S384,423.4,384,396.7
				S405.8,348.2,432.5,348.2 M432.5,344.2c-29,0-52.5,23.5-52.5,52.5c0,29,23.5,52.5,52.5,52.5s52.5-23.5,52.5-52.5
				C485,367.7,461.5,344.2,432.5,344.2L432.5,344.2z"/>
		</g>
		<g>
			<path class="st22" d="M432.5,365.9c3.5,0,6.6,0.5,9.4,1.6s5,2.7,6.6,4.8s2.5,4.8,2.5,8c0,2.4-0.5,4.5-1.5,6.3s-2.3,3.4-4,4.8
				s-3.6,2.5-5.7,3.6c2.4,1.1,4.5,2.5,6.5,3.9s3.6,3.2,4.8,5.2s1.8,4.3,1.8,7c0,3.4-0.9,6.3-2.6,8.7s-4.1,4.3-7.1,5.7s-6.6,2-10.6,2
				c-4.4,0-8.1-0.6-11.1-1.9s-5.4-3.1-7-5.5s-2.4-5.3-2.4-8.6c0-2.7,0.6-5.1,1.7-7.2s2.6-3.8,4.4-5.2s3.9-2.7,6-3.8
				c-1.9-1.1-3.6-2.4-5.2-3.8s-2.8-3.1-3.7-4.9s-1.4-4-1.4-6.4c0-3.1,0.8-5.7,2.5-7.8s3.9-3.7,6.7-4.8S429.1,365.9,432.5,365.9z
				 M421.3,411.1c0,2.6,0.9,4.8,2.8,6.5s4.6,2.5,8.3,2.5c3.6,0,6.4-0.8,8.3-2.5s2.9-3.9,2.9-6.6c0-1.8-0.5-3.3-1.4-4.6
				s-2.2-2.5-3.9-3.6s-3.4-2-5.4-2.9l-1.3-0.6c-2.1,0.9-4,2-5.5,3.1s-2.7,2.4-3.5,3.8S421.3,409.2,421.3,411.1z M432.4,373.3
				c-2.7,0-4.8,0.7-6.5,2s-2.6,3.2-2.6,5.6c0,1.7,0.4,3.2,1.3,4.4s2,2.3,3.4,3.2s3,1.7,4.7,2.5c1.7-0.7,3.2-1.6,4.5-2.4
				s2.4-2,3.2-3.2s1.2-2.7,1.2-4.5c0-2.4-0.9-4.3-2.6-5.6S435.1,373.3,432.4,373.3z"/>
		</g>
	</g>
</g>
</svg>
