<?xml version="1.0" encoding="UTF-8" standalone="no"?><svg width="100%" height="100%" viewBox="0 0 64 64" version="1.1" xmlns="http://www.w3.org/2000/svg" xmlns:xlink="http://www.w3.org/1999/xlink" xml:space="preserve" xmlns:serif="http://www.serif.com/" style="fill-rule:evenodd;clip-rule:evenodd;stroke-linejoin:round;stroke-miterlimit:2;"><rect id="flame" x="0" y="0" width="64" height="64" style="fill:none;"/><clipPath id="_clip1"><rect x="0" y="0" width="64" height="64"/></clipPath><g clip-path="url(#_clip1)"><path d="M32,0c17.661,0 32,14.339 32,32c0,17.661 -14.339,32 -32,32c-17.661,0 -32,-14.339 -32,-32c0,-17.661 14.339,-32 32,-32Zm-0.023,50c-3.856,-0.013 -6.977,-3.232 -6.977,-7.2c0,-3.976 7,-10.8 7,-10.8c0,0 7,6.824 7,10.8c0,3.96 -3.11,7.175 -6.955,7.2c7.712,-0.026 13.955,-6.464 13.955,-14.4c0,-2.779 -1.71,-6.255 -3.936,-9.6c-4.14,-6.225 -10.064,-12 -10.064,-12c0,0 -5.924,5.775 -10.064,12c-2.226,3.345 -3.936,6.821 -3.936,9.6c0,7.952 6.268,14.4 14,14.4c1.933,0 3.5,-1.612 3.5,-3.6c0,-1.988 -3.5,-5.4 -3.5,-5.4c0,0 -3.5,3.412 -3.5,5.4c0,1.98 1.555,3.587 3.477,3.6Z" style="fill:#fff;"/></g></svg>