<?xml version="1.0" encoding="UTF-8" standalone="no"?><svg width="100%" height="100%" viewBox="0 0 64 64" version="1.1" xmlns="http://www.w3.org/2000/svg" xmlns:xlink="http://www.w3.org/1999/xlink" xml:space="preserve" xmlns:serif="http://www.serif.com/" style="fill-rule:evenodd;clip-rule:evenodd;stroke-linejoin:round;stroke-miterlimit:2;"><rect id="globe2" x="0" y="0" width="64" height="64" style="fill:none;"/><path d="M32,0c17.661,0 32,14.339 32,32c0,17.661 -14.339,32 -32,32c-17.661,0 -32,-14.339 -32,-32c0,-17.661 14.339,-32 32,-32Zm0,12c11.038,0 20,8.962 20,20c0,11.038 -8.962,20 -20,20c-11.038,0 -20,-8.962 -20,-20c0,-11.038 8.962,-20 20,-20Zm-7.9,28.774l7.15,-0l0,8.21c-0.549,-0.024 -1.092,-0.074 -1.627,-0.149c-1.263,-0.521 -2.333,-1.501 -3.221,-2.79c-0.99,-1.438 -1.755,-3.249 -2.302,-5.271Zm15.8,-0c-0.547,2.022 -1.312,3.833 -2.302,5.271c-0.888,1.289 -1.958,2.269 -3.221,2.79c-0.534,0.075 -1.077,0.125 -1.627,0.149l-0,-8.21l7.15,-0Zm-22.461,-0l5.119,-0c0.6,2.358 1.472,4.469 2.609,6.121c0.24,0.349 0.491,0.677 0.754,0.984c-3.554,-1.363 -6.536,-3.886 -8.482,-7.105Zm24.003,-0l5.119,-0c-1.945,3.218 -4.927,5.742 -8.482,7.105c0.263,-0.307 0.514,-0.635 0.754,-0.984c1.137,-1.652 2.009,-3.763 2.609,-6.121Zm-26.426,-8.022l6.552,0c0.021,2.233 0.239,4.449 0.651,6.522l-5.586,-0c-0.946,-1.992 -1.515,-4.197 -1.617,-6.522Zm33.968,0c-0.102,2.326 -0.672,4.531 -1.617,6.522l-5.586,-0c0.412,-2.072 0.63,-4.289 0.651,-6.522l6.552,0Zm-8.726,6.522c0.43,-2.059 0.653,-4.283 0.674,-6.522l-8.182,0l-0,6.522l7.508,-0Zm-17.19,-6.522c0.021,2.239 0.244,4.462 0.674,6.522l7.508,-0l-0,-6.522l-8.182,0Zm23.955,-8.712c1.152,2.169 1.848,4.615 1.961,7.212l-6.567,0c-0.074,-2.482 -0.391,-4.945 -0.945,-7.212l5.551,0Zm-7.091,0l-7.182,0l-0,7.212l8.167,0c-0.077,-2.491 -0.404,-4.963 -0.985,-7.212Zm-15.864,0c-0.581,2.249 -0.908,4.721 -0.985,7.212l8.167,0l-0,-7.212l-7.182,0Zm-7.091,0l5.551,0c-0.554,2.267 -0.871,4.73 -0.945,7.212l-6.567,0c0.113,-2.597 0.809,-5.043 1.961,-7.212Zm20.578,-8.11c3.525,1.22 6.525,3.567 8.569,6.61l-5.063,0c-0.574,-1.884 -1.326,-3.589 -2.254,-5c-0.387,-0.589 -0.805,-1.128 -1.252,-1.61Zm-4.805,-0.914c0.337,0.015 0.672,0.039 1.004,0.074c1.513,0.546 2.775,1.714 3.8,3.274c0.785,1.194 1.432,2.613 1.942,4.176l-6.746,0l0,-7.524Zm-1.5,0l0,7.524l-6.746,0c0.51,-1.563 1.157,-2.982 1.942,-4.176c1.025,-1.56 2.287,-2.728 3.8,-3.274c0.332,-0.035 0.667,-0.059 1.004,-0.074Zm-4.805,0.914c-0.447,0.482 -0.865,1.021 -1.252,1.61c-0.928,1.411 -1.68,3.116 -2.254,5l-5.063,0c2.043,-3.043 5.044,-5.39 8.569,-6.61Z" style="fill:#fff;"/></svg>