<?xml version="1.0" encoding="UTF-8" standalone="no"?><svg width="100%" height="100%" viewBox="0 0 64 64" version="1.1" xmlns="http://www.w3.org/2000/svg" xmlns:xlink="http://www.w3.org/1999/xlink" xml:space="preserve" xmlns:serif="http://www.serif.com/" style="fill-rule:evenodd;clip-rule:evenodd;stroke-linejoin:round;stroke-miterlimit:2;"><rect id="globe" x="0" y="0" width="64" height="64" style="fill:none;"/><path d="M32,0c3.305,0 6.646,0.535 9.795,1.537c2.955,0.941 5.763,2.425 8.291,4.222c24.463,17.383 12.225,58.241 -18.086,58.241c-30.311,0 -42.549,-40.858 -18.086,-58.241c2.528,-1.797 5.336,-3.281 8.291,-4.222c3.149,-1.002 6.49,-1.537 9.795,-1.537Zm0,12c18.944,0 26.593,25.536 11.304,36.401c-1.58,1.122 -3.335,2.05 -5.182,2.638c-1.968,0.627 -4.056,0.961 -6.122,0.961c-2.066,0 -4.154,-0.334 -6.122,-0.961c-1.847,-0.588 -3.602,-1.516 -5.182,-2.638c-15.289,-10.865 -7.64,-36.401 11.304,-36.401Zm-12.465,8.006c-7.108,7.378 -5.888,20.638 2.814,26.328c4.49,2.937 13.721,5.463 17.727,0.287c1.299,-1.677 -1.782,-2.404 -2.504,-2.87c-2.895,-1.867 -5.329,-5.099 -4.785,-8.737l0.028,-0.197c0.508,-3.429 6.737,-3.293 8.923,-2c0.491,0.29 0.691,1.727 1.198,2.007c0.751,0.415 1.732,0.276 2.476,0.702c1.569,0.901 -0.753,4.018 -0.753,4.792l0,0.227c0,0.845 0.999,1.589 0.87,2.236c7.022,-8.814 3.594,-22.264 -6.714,-26.684c-1.208,0.815 -2.389,1.696 -3.41,2.735c-0.603,0.615 -0.602,1.699 -1.258,2.257c-1.522,1.296 -5.246,-1.074 -5.892,1.733c-0.493,2.143 1.61,4.618 2.348,6.283c0.31,0.699 0.671,1.425 0.683,2.19c0.007,0.416 -0.217,1.037 -0.631,1.077c-0.431,0.041 -0.604,-0.62 -0.906,-0.93c-0.745,-0.767 -1.434,-1.592 -2.234,-2.301c-0.798,-0.708 -1.59,-1.464 -2.546,-1.937c-0.794,-0.392 -3.717,-0.083 -4.104,-1.489c-0.457,-1.661 0.164,-4.333 -1.33,-5.709Z" style="fill:#fff;"/></svg>