<?xml version="1.0" encoding="UTF-8" standalone="no"?><svg width="100%" height="100%" viewBox="0 0 64 64" version="1.1" xmlns="http://www.w3.org/2000/svg" xmlns:xlink="http://www.w3.org/1999/xlink" xml:space="preserve" xmlns:serif="http://www.serif.com/" style="fill-rule:evenodd;clip-rule:evenodd;stroke-linejoin:round;stroke-miterlimit:2;"><rect id="group" x="0" y="0" width="64" height="64" style="fill:none;"/><path d="M32,0c17.661,0 32,14.339 32,32c0,17.661 -14.339,32 -32,32c-17.661,0 -32,-14.339 -32,-32c0,-17.661 14.339,-32 32,-32Zm6.047,27.427c-2.633,1.259 -4.632,3.664 -5.332,6.552c-0.842,-0.591 -1.755,-1.087 -2.723,-1.47c1.978,-1.478 3.269,-3.836 3.269,-6.472c-0,-4.429 -3.646,-8.074 -8.075,-8.074c-4.43,-0 -8.075,3.645 -8.075,8.074c-0,2.636 1.29,4.994 3.268,6.472c-4.886,1.937 -8.379,6.726 -8.379,12.268c0,-0 0,1.703 0,1.703c0,0.696 0.565,1.261 1.261,1.261c0.695,0 23.154,0 23.85,0c0.696,0 1.26,-0.565 1.26,-1.261l0,-1.703c0,-2.318 -0.611,-4.504 -1.679,-6.405c5.803,0 7.489,-0.001 14.047,-0.001c0.696,0 1.261,-0.564 1.261,-1.26l0,-0.852c0,-3.875 -2.303,-7.254 -5.604,-8.832c1.343,-1.171 2.197,-2.892 2.197,-4.797c-0,-3.495 -2.876,-6.371 -6.372,-6.371c-3.495,-0 -6.371,2.876 -6.371,6.371c0,1.905 0.854,3.626 2.197,4.797Z" style="fill:#fff;"/></svg>