<?xml version="1.0" encoding="UTF-8" standalone="no"?><svg width="100%" height="100%" viewBox="0 0 64 64" version="1.1" xmlns="http://www.w3.org/2000/svg" xmlns:xlink="http://www.w3.org/1999/xlink" xml:space="preserve" xmlns:serif="http://www.serif.com/" style="fill-rule:evenodd;clip-rule:evenodd;stroke-linejoin:round;stroke-miterlimit:2;"><rect id="health" x="0" y="0" width="64" height="64" style="fill:none;"/><path d="M32,0c17.661,0 32,14.339 32,32c0,17.661 -14.339,32 -32,32c-17.661,0 -32,-14.339 -32,-32c0,-17.661 14.339,-32 32,-32Zm7.708,52c0.831,0 1.505,-0.674 1.505,-1.505l-0,-9.282c-0,-0 9.282,-0 9.282,-0c0.831,-0 1.505,-0.674 1.505,-1.505l-0,-15.416c-0,-0.831 -0.674,-1.505 -1.505,-1.505l-9.282,0c-0,0 -0,-9.282 -0,-9.282c-0,-0.831 -0.674,-1.505 -1.505,-1.505l-15.416,0c-0.831,0 -1.505,0.674 -1.505,1.505l0,9.282c0,0 -9.282,0 -9.282,0c-0.831,0 -1.505,0.674 -1.505,1.505l-0,15.416c-0,0.831 0.674,1.505 1.505,1.505l9.282,-0c0,-0 0,9.282 0,9.282c0,0.831 0.674,1.505 1.505,1.505l15.416,0Z" style="fill:#fff;"/></svg>