<?xml version="1.0" encoding="UTF-8" standalone="no"?><svg width="100%" height="100%" viewBox="0 0 64 64" version="1.1" xmlns="http://www.w3.org/2000/svg" xmlns:xlink="http://www.w3.org/1999/xlink" xml:space="preserve" xmlns:serif="http://www.serif.com/" style="fill-rule:evenodd;clip-rule:evenodd;stroke-linejoin:round;stroke-miterlimit:2;"><rect id="heart" x="0" y="0" width="64" height="64" style="fill:none;"/><clipPath id="_clip1"><rect x="0" y="0" width="64" height="64"/></clipPath><g clip-path="url(#_clip1)"><path d="M32,0c17.661,0 32,14.339 32,32c-0,17.661 -14.339,32 -32,32c-17.661,0 -32,-14.339 -32,-32c-0,-17.661 14.339,-32 32,-32Zm20,27.724c0.007,3.077 -1.18,6.039 -3.308,8.26c-4.882,5.062 -9.618,10.34 -14.68,15.217c-1.162,1.1 -3.004,1.06 -4.114,-0.09l-14.59,-15.125c-4.411,-4.572 -4.411,-11.952 -0,-16.522c2.105,-2.21 5.027,-3.462 8.08,-3.462c3.052,0 5.974,1.252 8.08,3.462l0.532,0.548l0.53,-0.548c2.109,-2.204 5.029,-3.456 8.08,-3.464c3.04,0 5.946,1.248 8.08,3.464c2.129,2.221 3.316,5.184 3.31,8.26Z" style="fill:#fff;"/></g></svg>