<?xml version="1.0" encoding="UTF-8" standalone="no"?><svg width="100%" height="100%" viewBox="0 0 64 64" version="1.1" xmlns="http://www.w3.org/2000/svg" xmlns:xlink="http://www.w3.org/1999/xlink" xml:space="preserve" xmlns:serif="http://www.serif.com/" style="fill-rule:evenodd;clip-rule:evenodd;stroke-linejoin:round;stroke-miterlimit:2;"><rect id="info" x="-0" y="0" width="64" height="64" style="fill:none;"/><path d="M32,0c17.661,0 32,14.339 32,32c-0,17.661 -14.339,32 -32,32c-17.661,0 -32,-14.339 -32,-32c-0,-17.661 14.339,-32 32,-32Zm2.818,27.012c-0,-0.835 -0.677,-1.512 -1.512,-1.512c-2.273,0 -6.306,0 -6.306,0c-0.828,0 -1.5,0.672 -1.5,1.5c0,0.828 0.672,1.5 1.5,1.5l0.642,-0c0.417,0 0.816,0.169 1.106,0.468c0.29,0.299 0.447,0.703 0.434,1.119c-0.001,3.86 -0.002,13.693 -0.002,17.436c-0.001,0.816 -0.663,1.477 -1.479,1.477c-0.389,-0 -0.701,-0 -0.701,-0c-0.828,0 -1.5,0.672 -1.5,1.5c0,0.828 0.672,1.5 1.5,1.5l10,-0c0.828,0 1.5,-0.672 1.5,-1.5c0,-0.828 -0.672,-1.5 -1.5,-1.5l-0.676,-0c-0.831,0 -1.504,-0.673 -1.504,-1.504c-0,-4.236 -0.002,-16.237 -0.002,-20.484Zm-2.818,-15.012c2.222,0 4.025,1.804 4.025,4.025c0,2.222 -1.803,4.026 -4.025,4.026c-2.222,-0 -4.025,-1.804 -4.025,-4.026c-0,-2.221 1.803,-4.025 4.025,-4.025Z" style="fill:#fff;"/></svg>