<?xml version="1.0" encoding="UTF-8" standalone="no"?><svg width="100%" height="100%" viewBox="0 0 64 64" version="1.1" xmlns="http://www.w3.org/2000/svg" xmlns:xlink="http://www.w3.org/1999/xlink" xml:space="preserve" xmlns:serif="http://www.serif.com/" style="fill-rule:evenodd;clip-rule:evenodd;stroke-linejoin:round;stroke-miterlimit:2;"><rect id="leaf" x="0" y="0" width="64" height="64" style="fill:none;"/><clipPath id="_clip1"><rect x="0" y="0" width="64" height="64"/></clipPath><g clip-path="url(#_clip1)"><path d="M32,64c17.661,-0 32,-14.339 32,-32c0,-17.661 -14.339,-32 -32,-32c-17.661,-0 -32,14.339 -32,32c0,17.661 14.339,32 32,32Zm-1.261,-18.668l0,5.407c0,0.696 0.565,1.261 1.261,1.261c0.696,-0 1.261,-0.565 1.261,-1.261l-0,-5.407c-0,-0.696 -0.565,-1.26 -1.261,-1.26c-0.696,-0 -1.261,0.564 -1.261,1.26Zm4.261,-23.953l7.439,7.439c0.429,0.429 0.558,1.074 0.326,1.635c-0.233,0.56 -0.78,0.926 -1.386,0.926l-3.379,-0l7.439,7.439c0.429,0.429 0.558,1.074 0.326,1.635c-0.233,0.56 -0.78,0.926 -1.386,0.926c-6.158,-0 -18.6,-0 -24.758,-0c-0.606,-0 -1.153,-0.366 -1.386,-0.926c-0.232,-0.561 -0.103,-1.206 0.326,-1.635l7.439,-7.439l-3.379,-0c-0.606,-0 -1.153,-0.366 -1.386,-0.926c-0.232,-0.561 -0.103,-1.206 0.326,-1.635l7.439,-7.439l-3.379,-0c-0.606,-0 -1.153,-0.366 -1.385,-0.926c-0.233,-0.561 -0.104,-1.206 0.325,-1.635c2.067,-2.068 4.872,-4.873 6.378,-6.379c0.282,-0.281 0.663,-0.439 1.061,-0.439c0.398,-0 0.779,0.158 1.061,0.439c1.506,1.506 4.311,4.311 6.378,6.379c0.429,0.429 0.558,1.074 0.325,1.635c-0.232,0.56 -0.779,0.926 -1.385,0.926l-3.379,-0Z" style="fill:#fff;"/></g></svg>