<?xml version="1.0" encoding="UTF-8" standalone="no"?><svg width="100%" height="100%" viewBox="0 0 64 64" version="1.1" xmlns="http://www.w3.org/2000/svg" xmlns:xlink="http://www.w3.org/1999/xlink" xml:space="preserve" xmlns:serif="http://www.serif.com/" style="fill-rule:evenodd;clip-rule:evenodd;stroke-linejoin:round;stroke-miterlimit:2;"><rect id="map" x="0" y="0" width="64" height="64" style="fill:none;"/><path d="M32,0c17.661,0 32,14.339 32,32c0,17.661 -14.339,32 -32,32c-17.661,0 -32,-14.339 -32,-32c0,-17.661 14.339,-32 32,-32Zm-4.924,16l-0.189,0.014l-0.2,0.048l-9.183,3.063c-0.896,0.299 -1.504,1.143 -1.504,2.087l-0,24.206c-0,1.207 0.993,2.201 2.201,2.201c0.237,-0 0.472,-0.038 0.697,-0.113l8.174,-2.725l9.495,3.165l0.176,0.04l0.22,0.014l0.21,-0.024l0.14,-0.038l9.183,-3.061c0.897,-0.299 1.506,-1.145 1.504,-2.091c0,0.002 0,-24.204 0,-24.204c0,0 0,0 0,0c-0,-1.207 -0.994,-2.201 -2.201,-2.201c-0.237,0 -0.472,0.038 -0.697,0.113l-8.174,2.726l-9.495,-3.165l-0.176,-0.041l-0.181,-0.014Zm-8.645,5.378l0,23.721l7.425,-2.476l0,-23.721l-7.425,2.476Zm19.713,-0.001l-0,23.721l7.425,-2.474l-0,-23.722l-7.425,2.475Z" style="fill:#fff;"/></svg>