<?xml version="1.0" encoding="UTF-8" standalone="no"?><svg width="100%" height="100%" viewBox="0 0 64 64" version="1.1" xmlns="http://www.w3.org/2000/svg" xmlns:xlink="http://www.w3.org/1999/xlink" xml:space="preserve" xmlns:serif="http://www.serif.com/" style="fill-rule:evenodd;clip-rule:evenodd;stroke-linejoin:round;stroke-miterlimit:2;"><rect id="note" x="0" y="0" width="64" height="64" style="fill:none;"/><path d="M32,0c17.661,0 32,14.339 32,32c0,17.661 -14.339,32 -32,32c-17.661,0 -32,-14.339 -32,-32c0,-17.661 14.339,-32 32,-32Zm-11.018,15.891c-1.236,0.032 -2.242,1.058 -2.242,2.301c-0,-0 -0,27.397 -0,27.397c-0,1.263 1.039,2.302 2.301,2.302c0,-0 21.918,-0 21.918,-0c1.262,-0 2.301,-1.039 2.301,-2.302c0,0 0,-27.397 0,-27.397c0,-1.262 -1.039,-2.301 -2.301,-2.301l-21.918,-0l-0.059,0Zm3.712,26.469l7.306,0c0.746,0 1.352,-0.606 1.352,-1.352c-0,-0.746 -0.606,-1.351 -1.352,-1.351l-7.306,-0c-0.746,-0 -1.352,0.605 -1.352,1.351c0,0.746 0.606,1.352 1.352,1.352Zm0,-6.079l14.612,0c0.746,0 1.352,-0.605 1.352,-1.351c-0,-0.746 -0.606,-1.352 -1.352,-1.352l-14.612,0c-0.746,0 -1.352,0.606 -1.352,1.352c0,0.746 0.606,1.351 1.352,1.351Zm0,-6.078l14.612,-0c0.746,-0 1.352,-0.606 1.352,-1.352c-0,-0.746 -0.606,-1.351 -1.352,-1.351l-14.612,-0c-0.746,-0 -1.352,0.605 -1.352,1.351c0,0.746 0.606,1.352 1.352,1.352Zm0,-6.079l14.612,0c0.746,0 1.352,-0.605 1.352,-1.351c-0,-0.746 -0.606,-1.352 -1.352,-1.352l-14.612,0c-0.746,0 -1.352,0.606 -1.352,1.352c0,0.746 0.606,1.351 1.352,1.351Z" style="fill:#fff;"/></svg>