<?xml version="1.0" encoding="UTF-8" standalone="no"?><svg width="100%" height="100%" viewBox="0 0 64 64" version="1.1" xmlns="http://www.w3.org/2000/svg" xmlns:xlink="http://www.w3.org/1999/xlink" xml:space="preserve" xmlns:serif="http://www.serif.com/" style="fill-rule:evenodd;clip-rule:evenodd;stroke-linejoin:round;stroke-miterlimit:2;"><rect id="percentage" x="-0" y="0" width="64" height="64" style="fill:none;"/><path d="M32,0c17.661,0 32,14.339 32,32c-0,17.661 -14.339,32 -32,32c-17.661,0 -32,-14.339 -32,-32c-0,-17.661 14.339,-32 32,-32Zm10.336,48c3.107,-0 5.664,-2.557 5.664,-5.664c-0,-3.107 -2.557,-5.664 -5.664,-5.664c-3.107,-0 -5.664,2.557 -5.664,5.664c-0,3.107 2.557,5.664 5.664,5.664Zm1.465,-31.139l-26.94,26.94c-0.921,0.921 -0.921,2.417 -0,3.338c0.921,0.921 2.417,0.921 3.338,0c-0,0 26.94,-26.94 26.94,-26.94c0.921,-0.921 0.921,-2.417 0,-3.338c-0.921,-0.921 -2.417,-0.921 -3.338,-0Zm-1.465,28.08c-1.429,-0 -2.605,-1.176 -2.605,-2.605c0,-1.429 1.176,-2.605 2.605,-2.605c1.429,0 2.605,1.176 2.605,2.605c-0,1.429 -1.176,2.605 -2.605,2.605Zm-20.672,-17.613c3.107,0 5.664,-2.557 5.664,-5.664c0,-3.107 -2.557,-5.664 -5.664,-5.664c-3.107,0 -5.664,2.557 -5.664,5.664c-0,3.107 2.557,5.664 5.664,5.664Zm0,-3.059c-1.429,-0 -2.605,-1.176 -2.605,-2.605c0,-1.429 1.176,-2.605 2.605,-2.605c1.429,0 2.605,1.176 2.605,2.605c-0,1.429 -1.176,2.605 -2.605,2.605Z" style="fill:#fff;"/></svg>