<?xml version="1.0" encoding="UTF-8" standalone="no"?><svg width="100%" height="100%" viewBox="0 0 65 64" version="1.1" xmlns="http://www.w3.org/2000/svg" xmlns:xlink="http://www.w3.org/1999/xlink" xml:space="preserve" xmlns:serif="http://www.serif.com/" style="fill-rule:evenodd;clip-rule:evenodd;stroke-linejoin:round;stroke-miterlimit:2;"><rect id="pin" x="0.039" y="0" width="64" height="64" style="fill:none;"/><path d="M32.039,0c17.661,0 32,14.339 32,32c-0,17.661 -14.339,32 -32,32c-17.662,0 -32,-14.339 -32,-32c-0,-17.661 14.338,-32 32,-32Zm16,28c-0,8.836 -14.667,24 -16,24c-1.334,0 -16,-15.164 -16,-24c-0,-8.777 7.222,-16 16,-16c8.777,0 16,7.223 16,16Zm-16,6.085c3.338,0 6.085,-2.747 6.085,-6.085c-0,-3.338 -2.747,-6.085 -6.085,-6.085c-3.338,-0 -6.085,2.747 -6.085,6.085c-0,3.338 2.747,6.085 6.085,6.085Z" style="fill:#fff;"/></svg>