<?xml version="1.0" encoding="UTF-8" standalone="no"?><svg width="100%" height="100%" viewBox="0 0 64 64" version="1.1" xmlns="http://www.w3.org/2000/svg" xmlns:xlink="http://www.w3.org/1999/xlink" xml:space="preserve" xmlns:serif="http://www.serif.com/" style="fill-rule:evenodd;clip-rule:evenodd;stroke-linejoin:round;stroke-miterlimit:2;"><rect id="rain" x="0" y="0" width="64" height="64" style="fill:none;"/><clipPath id="_clip1"><rect x="0" y="0" width="64" height="64"/></clipPath><g clip-path="url(#_clip1)"><path d="M32,0c17.661,0 32,14.339 32,32c0,17.661 -14.339,32 -32,32c-17.661,0 -32,-14.339 -32,-32c0,-17.661 14.339,-32 32,-32Zm-1.261,47.332l0,3.407c0,0.696 0.565,1.261 1.261,1.261c0.696,-0 1.261,-0.565 1.261,-1.261l-0,-3.407c-0,-0.696 -0.565,-1.26 -1.261,-1.26c-0.696,-0 -1.261,0.564 -1.261,1.26Zm-6.814,0l0,3.407c0,0.696 0.565,1.261 1.261,1.261c0.695,0 1.26,-0.565 1.26,-1.261l0,-3.407c0,-0.696 -0.565,-1.26 -1.26,-1.26c-0.696,-0 -1.261,0.564 -1.261,1.26Zm13.629,0l-0,3.407c-0,0.696 0.565,1.261 1.26,1.261c0.696,0 1.261,-0.565 1.261,-1.261l-0,-3.407c-0,-0.696 -0.565,-1.26 -1.261,-1.26c-0.695,-0 -1.26,0.564 -1.26,1.26Zm8.534,-4.606c2.932,-1.148 5.912,-3.747 5.912,-9.022c0,-6.92 -5.1,-9.249 -8.534,-9.695c-0.072,-2.232 -0.466,-5.147 -2.545,-7.303c-1.643,-1.704 -4.356,-3.002 -8.921,-3.002c-4.565,-0 -7.278,1.298 -8.921,3.002c-2.079,2.156 -2.473,5.071 -2.545,7.303c-3.434,0.446 -8.534,2.775 -8.534,9.695c0,5.275 2.98,7.874 5.912,9.022c0.648,0.254 27.528,0.254 28.176,-0Z" style="fill:#fff;"/></g></svg>