<?xml version="1.0" encoding="UTF-8" standalone="no"?><svg width="100%" height="100%" viewBox="0 0 64 64" version="1.1" xmlns="http://www.w3.org/2000/svg" xmlns:xlink="http://www.w3.org/1999/xlink" xml:space="preserve" xmlns:serif="http://www.serif.com/" style="fill-rule:evenodd;clip-rule:evenodd;stroke-linejoin:round;stroke-miterlimit:2;"><rect id="search" x="0" y="0" width="64" height="64" style="fill:none;"/><path d="M32,0c17.661,0 32,14.339 32,32c0,17.661 -14.339,32 -32,32c-17.661,0 -32,-14.339 -32,-32c0,-17.661 14.339,-32 32,-32Zm6.266,41.345l6.017,6.018c0.85,0.849 2.23,0.849 3.08,-0c0.849,-0.85 0.849,-2.23 -0,-3.08c-0,0 -6.018,-6.017 -6.018,-6.017c1.7,-2.319 2.706,-5.172 2.706,-8.241c0,-7.694 -6.331,-14.025 -14.026,-14.025c-7.694,-0 -14.025,6.331 -14.025,14.025c-0,7.695 6.331,14.026 14.025,14.026c3.069,0 5.922,-1.006 8.241,-2.706Zm-17.911,-11.32c-0,-5.305 4.365,-9.67 9.67,-9.67c5.306,-0 9.671,4.365 9.671,9.67c0,5.306 -4.365,9.671 -9.671,9.671c-5.305,0 -9.67,-4.365 -9.67,-9.671Z" style="fill:#fff;"/></svg>