<?xml version="1.0" encoding="UTF-8" standalone="no"?><svg width="100%" height="100%" viewBox="0 0 64 64" version="1.1" xmlns="http://www.w3.org/2000/svg" xmlns:xlink="http://www.w3.org/1999/xlink" xml:space="preserve" xmlns:serif="http://www.serif.com/" style="fill-rule:evenodd;clip-rule:evenodd;stroke-linejoin:round;stroke-miterlimit:2;"><rect id="star" x="0" y="0" width="64" height="64" style="fill:none;"/><clipPath id="_clip1"><rect x="0" y="0" width="64" height="64"/></clipPath><g clip-path="url(#_clip1)"><path d="M32,0c17.661,0 32,14.339 32,32c0,17.661 -14.339,32 -32,32c-17.661,0 -32,-14.339 -32,-32c0,-17.661 14.339,-32 32,-32Zm-7.512,22.621l5.717,-11.512c0.339,-0.679 1.035,-1.109 1.793,-1.109c0.758,-0 1.454,0.43 1.793,1.109l5.717,11.512l12.78,1.857c0.977,0.136 1.712,0.98 1.712,1.966c0,0.538 -0.219,1.054 -0.605,1.427l-9.246,8.956l2.182,12.652c0.28,1.624 -1.436,2.861 -2.904,2.095l-11.429,-5.976l-11.431,5.976c-1.465,0.768 -3.182,-0.471 -2.902,-2.097l2.182,-12.652l-9.246,-8.956c-0.384,-0.373 -0.601,-0.887 -0.601,-1.423c0,-0.985 0.733,-1.828 1.708,-1.965l12.78,-1.86Z" style="fill:#fff;"/></g></svg>