<?xml version="1.0" encoding="UTF-8" standalone="no"?><svg width="100%" height="100%" viewBox="0 0 64 64" version="1.1" xmlns="http://www.w3.org/2000/svg" xmlns:xlink="http://www.w3.org/1999/xlink" xml:space="preserve" xmlns:serif="http://www.serif.com/" style="fill-rule:evenodd;clip-rule:evenodd;stroke-linejoin:round;stroke-miterlimit:2;"><rect id="sun" x="0" y="0" width="64" height="64" style="fill:none;"/><clipPath id="_clip1"><rect x="0" y="0" width="64" height="64"/></clipPath><g clip-path="url(#_clip1)"><path d="M32,0c17.661,0 32,14.339 32,32c0,17.661 -14.339,32 -32,32c-17.661,0 -32,-14.339 -32,-32c0,-17.661 14.339,-32 32,-32Zm1.261,50.739l-0,-1.703c-0,-0.696 -0.565,-1.261 -1.261,-1.261c-0.696,0 -1.261,0.565 -1.261,1.261l0,1.703c0,0.696 0.565,1.261 1.261,1.261c0.696,0 1.261,-0.565 1.261,-1.261Zm13.259,-6.002l-1.704,-1.703c-0.492,-0.492 -1.29,-0.492 -1.782,-0c-0.492,0.492 -0.492,1.29 -0,1.782l1.703,1.704c0.492,0.492 1.291,0.492 1.783,0c0.492,-0.492 0.492,-1.291 0,-1.783Zm-27.257,1.783l1.703,-1.704c0.492,-0.492 0.492,-1.29 0,-1.782c-0.492,-0.492 -1.29,-0.492 -1.782,-0l-1.704,1.703c-0.492,0.492 -0.492,1.291 -0,1.783c0.492,0.492 1.291,0.492 1.783,0Zm12.737,-3.038c6.299,0 11.482,-5.183 11.482,-11.482c0,-6.299 -5.183,-11.482 -11.482,-11.482c-6.299,-0 -11.482,5.183 -11.482,11.482c-0,6.299 5.183,11.482 11.482,11.482Zm17.036,-10.221l1.703,-0c0.696,-0 1.261,-0.565 1.261,-1.261c-0,-0.696 -0.565,-1.261 -1.261,-1.261l-1.703,0c-0.696,0 -1.261,0.565 -1.261,1.261c0,0.696 0.565,1.261 1.261,1.261Zm-35.775,-0l1.703,-0c0.696,-0 1.261,-0.565 1.261,-1.261c-0,-0.696 -0.565,-1.261 -1.261,-1.261l-1.703,0c-0.696,0 -1.261,0.565 -1.261,1.261c-0,0.696 0.565,1.261 1.261,1.261Zm31.476,-15.781l-1.703,1.704c-0.492,0.492 -0.492,1.29 -0,1.782c0.492,0.492 1.29,0.492 1.782,0l1.704,-1.703c0.492,-0.492 0.492,-1.291 0,-1.783c-0.492,-0.492 -1.291,-0.492 -1.783,-0Zm-27.257,1.783l1.704,1.703c0.492,0.492 1.29,0.492 1.782,0c0.492,-0.492 0.492,-1.29 0,-1.782l-1.703,-1.704c-0.492,-0.492 -1.291,-0.492 -1.783,-0c-0.492,0.492 -0.492,1.291 -0,1.783Zm15.781,-4.299l-0,-1.703c-0,-0.696 -0.565,-1.261 -1.261,-1.261c-0.696,0 -1.261,0.565 -1.261,1.261l0,1.703c0,0.696 0.565,1.261 1.261,1.261c0.696,-0 1.261,-0.565 1.261,-1.261Z" style="fill:#fff;"/></g></svg>