<?xml version="1.0" encoding="UTF-8" standalone="no"?><svg width="100%" height="100%" viewBox="0 0 64 64" version="1.1" xmlns="http://www.w3.org/2000/svg" xmlns:xlink="http://www.w3.org/1999/xlink" xml:space="preserve" xmlns:serif="http://www.serif.com/" style="fill-rule:evenodd;clip-rule:evenodd;stroke-linejoin:round;stroke-miterlimit:2;"><rect id="transfer" x="0" y="0" width="64" height="64" style="fill:none;"/><path d="M32,0c17.661,0 32,14.339 32,32c0,17.661 -14.339,32 -32,32c-17.661,0 -32,-14.339 -32,-32c0,-17.661 14.339,-32 32,-32Zm5.5,44.5c0.829,0 1.5,0.672 1.5,1.5c0,0.689 0,1.538 0,2.379c0,0.606 0.366,1.153 0.926,1.385c0.561,0.233 1.206,0.104 1.635,-0.325c2.068,-2.067 4.872,-4.872 6.379,-6.378c0.281,-0.282 0.439,-0.663 0.439,-1.061c-0,-0.398 -0.158,-0.779 -0.439,-1.061c-1.507,-1.506 -4.311,-4.311 -6.379,-6.378c-0.429,-0.429 -1.074,-0.558 -1.635,-0.325c-0.56,0.232 -0.926,0.779 -0.926,1.385c0,0.841 0,1.69 0,2.379c0,0.828 -0.671,1.5 -1.5,1.5c-4.017,0 -14.983,0 -19,0c-0.829,0 -1.5,0.672 -1.5,1.5c-0,0.633 -0,1.367 -0,2c-0,0.828 0.671,1.5 1.5,1.5c4.017,0 14.983,0 19,0Zm-11,-20c-0.829,0 -1.5,0.672 -1.5,1.5c-0,0.689 -0,1.538 -0,2.379c-0,0.606 -0.366,1.153 -0.926,1.385c-0.561,0.233 -1.206,0.104 -1.635,-0.325c-2.068,-2.067 -4.872,-4.872 -6.379,-6.378c-0.281,-0.282 -0.439,-0.663 -0.439,-1.061c0,-0.398 0.158,-0.779 0.439,-1.061c1.507,-1.506 4.311,-4.311 6.379,-6.378c0.429,-0.429 1.074,-0.558 1.635,-0.325c0.56,0.232 0.926,0.779 0.926,1.385c-0,0.841 -0,1.69 -0,2.379c-0,0.828 0.671,1.5 1.5,1.5c4.017,0 14.983,0 19,0c0.829,0 1.5,0.672 1.5,1.5c0,0.633 0,1.367 0,2c0,0.828 -0.671,1.5 -1.5,1.5c-4.017,0 -14.983,0 -19,0Z" style="fill:#fff;"/></svg>