<svg height="500" viewBox="0 0 500 500" width="500" xmlns="http://www.w3.org/2000/svg"><path d="m180.83119 476.092788c0 4.892738-1.86011 9.337569-5.378588 12.856971-3.519402 3.518477-7.964232 5.378587-12.85697 5.378587h-68.8155425c-25.7176419 0-48.0139775-9.25613-66.2689682-27.511122-18.25499173-18.256842-27.5111213-40.552251-27.5111213-66.268968v-306.7681667c0-25.7176419 9.25612957-48.0139769 27.5111213-66.268968 18.2549907-18.25499122 40.5513263-27.5111213 66.2689682-27.5111213h307.4743335c25.717642 0 48.013977 9.25613008 66.268968 27.5111213 18.254991 18.2540657 27.511121 40.5504007 27.511121 66.268968v71.9249787c0 4.890887-1.86011 9.336643-5.377662 12.855119-3.519402 3.519403-7.965158 5.379513-12.85697 5.379513-.152695 0-1.127171.012956-5.3536.277629-3.504596.2184-6.378975.269299-8.787864.154546-2.466265-.116604-5.217562-.464566-8.17523-1.033703-4.52997-.870828-8.14284-2.830884-10.739591-5.826495-2.696697-3.112213-4.065405-7.085075-4.065405-11.806609v-71.9249787c0-10.6553771-3.694308-19.5293054-11.294848-27.1298449-7.599614-7.6005396-16.473542-11.2948478-27.128919-11.2948478h-307.4743335c-10.6553773 0-19.5293056 3.6943082-27.12892 11.2948478-7.6005391 7.6005395-11.294848 16.4744678-11.294848 27.1298449v306.7681667c0 10.654452 3.6943089 19.529306 11.294848 27.12892 7.5996144 7.600539 16.4735427 11.294848 27.12892 11.294848h68.8155425c4.721533 0 8.694395 1.367782 11.807536 4.065405 2.996535 2.597676 4.956591 6.211472 5.826493 10.73959.568213 2.955818.916174 5.706189 1.033704 8.174305.114753 2.40889.064779 5.282343-.155473 8.78879-.257268 4.132035-.276702 5.141676-.276702 5.352674zm169.557061-273.715415c22.51585 39.758031 29.167762 83.212379 31.11776 104.065023l65.420363-.100468c3.942922 0 7.062919 1.679646 8.567202 4.608753 1.529858 2.980254 1.04487 6.594371-1.3344 9.910737l-122.386781 174.300556c-2.150933 3.067021-5.319337 4.831609-8.689591 4.838003-3.37482.007307-6.554183-1.745408-8.722471-4.808776-.001827-.001827-.003653-.004567-.004567-.007307l-122.763992-174.032945c-1.44035-2.074213-2.171028-4.23154-2.171028-6.264653.000001-1.294213.295925-2.539106.893254-3.680791 1.506111-2.877959 4.617887-4.528379 8.537976-4.528378l72.60841-.099555c.333372-50.693544-.655783-148.780705-66.927387-178.041629-2.186555-.964495-3.38852-3.33372-2.878873-5.66915.511476-2.333604 2.594822-3.984936 4.983226-3.948402 34.982135.528828 65.64048 9.252213 91.126538 25.928117 21.128474 13.824433 38.833722 33.181013 52.624361 57.530865z" fill="#1d1d1b" fill-rule="evenodd"/></svg>