<?xml version="1.0" encoding="utf-8"?>
<!-- Generator: Adobe Illustrator 27.3.0, SVG Export Plug-In . SVG Version: 6.00 Build 0)  -->
<svg version="1.1" id="Ebene_1" xmlns="http://www.w3.org/2000/svg" xmlns:xlink="http://www.w3.org/1999/xlink" x="0px" y="0px"
	 viewBox="0 0 500 500" style="enable-background:new 0 0 500 500;" xml:space="preserve">
<g>
	<path d="M460,0H40C17.9,0,0,17.9,0,40l0,0c0,22.1,17.9,40,40,40h420c22.1,0,40-17.9,40-40l0,0C500,17.9,482.1,0,460,0z"/>
	<path d="M385,140H115c-22.1,0-40,17.9-40,40l0,0c0,22.1,17.9,40,40,40h270c22.1,0,40-17.9,40-40l0,0C425,157.9,407.1,140,385,140z"
		/>
	<path d="M460,280H40c-22.1,0-40,17.9-40,40l0,0c0,22.1,17.9,40,40,40h420c22.1,0,40-17.9,40-40l0,0C500,297.9,482.1,280,460,280z"
		/>
	<path d="M385,420H115c-22.1,0-40,17.9-40,40l0,0c0,22.1,17.9,40,40,40h270c22.1,0,40-17.9,40-40l0,0C425,437.9,407.1,420,385,420z"
		/>
</g>
</svg>
