<?xml version="1.0" encoding="UTF-8"?>
<svg width="500px" height="500px" viewBox="0 0 500 500" version="1.1" xmlns="http://www.w3.org/2000/svg" xmlns:xlink="http://www.w3.org/1999/xlink">
    <!-- Generator: Sketch 51.3 (57544) - http://www.bohemiancoding.com/sketch -->
    <title>anchor</title>
    <desc>Created with Sketch.</desc>
    <defs></defs>
    <g id="anchor" stroke="none" stroke-width="1" fill="none" fill-rule="evenodd">
        <g transform="translate(0.000000, 2.000000)" fill="#000000" fill-rule="nonzero" id="Shape">
            <path d="M267.857143,71.4328519 C267.857143,66.5962526 266.09003,62.4107339 262.555804,58.8762959 C259.021577,55.3418579 254.83631,53.5746389 250,53.5746389 C245.16369,53.5746389 240.978423,55.3418579 237.444196,58.8762959 C233.90997,62.4107339 232.142857,66.5962526 232.142857,71.4328519 C232.142857,76.2694513 233.90997,80.4549699 237.444196,83.9894079 C240.978423,87.5238459 245.16369,89.2910649 250,89.2910649 C254.83631,89.2910649 259.021577,87.5238459 262.555804,83.9894079 C266.09003,80.4549699 267.857143,76.2694513 267.857143,71.4328519 Z M500,330.37694 L500,428.597112 C500,432.689619 498.139881,435.479964 494.419643,436.968149 C492.931548,437.340195 491.815476,437.526218 491.071429,437.526218 C488.839286,437.526218 486.700149,436.689114 484.654018,435.014907 L458.705357,409.064691 C436.56994,435.665987 406.947545,456.733098 369.83817,472.266023 C332.728795,487.798948 292.782738,495.56541 250,495.56541 C207.217262,495.56541 167.271205,487.798948 130.16183,472.266023 C93.0524554,456.733098 63.4300595,435.665987 41.2946429,409.064691 L15.3459821,435.014907 C13.671875,436.689114 11.5327381,437.526218 8.92857143,437.526218 C8.18452381,437.526218 7.06845238,437.340195 5.58035714,436.968149 C1.86011905,435.479964 0,432.689619 0,428.597112 L0,330.37694 C0,327.772617 0.837053571,325.633352 2.51116071,323.959145 C4.18526786,322.284937 6.32440476,321.447834 8.92857143,321.447834 L107.142857,321.447834 C111.235119,321.447834 114.025298,323.308064 115.513393,327.028525 C117.001488,330.562963 116.350446,333.818367 113.560268,336.794735 L85.6584821,364.698193 C98.1212798,381.626291 115.745908,395.90356 138.532366,407.530001 C161.318824,419.156442 186.56994,426.829893 214.285714,430.550354 L214.285714,250.014982 L160.714286,250.014982 C155.877976,250.014982 151.692708,248.247763 148.158482,244.713325 C144.624256,241.178887 142.857143,236.993368 142.857143,232.156769 L142.857143,196.440343 C142.857143,191.603743 144.624256,187.418225 148.158482,183.883787 C151.692708,180.349349 155.877976,178.58213 160.714286,178.58213 L214.285714,178.58213 L214.285714,133.099494 C203.497024,126.77471 194.84747,118.171144 188.337054,107.288795 C181.826637,96.4064466 178.571429,84.4544656 178.571429,71.4328519 C178.571429,51.7144084 185.546875,34.8793222 199.497768,20.9275933 C213.448661,6.97586445 230.282738,0 250,0 C269.717262,0 286.551339,6.97586445 300.502232,20.9275933 C314.453125,34.8793222 321.428571,51.7144084 321.428571,71.4328519 C321.428571,84.4544656 318.173363,96.4064466 311.662946,107.288795 C305.15253,118.171144 296.502976,126.77471 285.714286,133.099494 L285.714286,178.58213 L339.285714,178.58213 C344.122024,178.58213 348.307292,180.349349 351.841518,183.883787 C355.375744,187.418225 357.142857,191.603743 357.142857,196.440343 L357.142857,232.156769 C357.142857,236.993368 355.375744,241.178887 351.841518,244.713325 C348.307292,248.247763 344.122024,250.014982 339.285714,250.014982 L285.714286,250.014982 L285.714286,430.550354 C313.43006,426.829893 338.681176,419.156442 361.467634,407.530001 C384.254092,395.90356 401.87872,381.626291 414.341518,364.698193 L386.439732,336.794735 C383.649554,333.818367 382.998512,330.562963 384.486607,327.028525 C385.974702,323.308064 388.764881,321.447834 392.857143,321.447834 L491.071429,321.447834 C493.675595,321.447834 495.814732,322.284937 497.488839,323.959145 C499.162946,325.633352 500,327.772617 500,330.37694 Z"></path>
        </g>
    </g>
</svg>