<?xml version="1.0" encoding="UTF-8"?>
<svg width="500px" height="500px" viewBox="0 0 500 500" version="1.1" xmlns="http://www.w3.org/2000/svg" xmlns:xlink="http://www.w3.org/1999/xlink">
    <!-- Generator: Sketch 52.6 (67491) - http://www.bohemiancoding.com/sketch -->
    <title>arrangev</title>
    <desc>Created with Sketch.</desc>
    <defs>
        <path d="M103.051173,186.291616 C103.051173,194.093035 96.6681946,200.476013 88.8667762,200.476013 L-34.5280229,200.476013 C-42.3282593,200.476013 -48.71242,194.093035 -48.71242,186.291616 L-48.71242,62.8968172 C-48.71242,55.0965808 -42.3282593,48.71242 -34.5280229,48.71242 L88.8667762,48.71242 C96.6681946,48.71242 103.051173,55.0965808 103.051173,62.8968172 L103.051173,186.291616 Z M274.782497,186.291616 C274.782497,194.093035 268.399519,200.476013 260.5981,200.476013 L137.204483,200.476013 C129.403065,200.476013 123.020086,194.093035 123.020086,186.291616 L123.020086,62.8968172 C123.020086,55.0965808 129.403065,48.71242 137.204483,48.71242 L260.5981,48.71242 C268.399519,48.71242 274.782497,55.0965808 274.782497,62.8968172 L274.782497,186.291616 Z M446.513821,186.291616 C446.513821,194.093035 440.132024,200.476013 432.329424,200.476013 L308.935807,200.476013 C301.134388,200.476013 294.75141,194.093035 294.75141,186.291616 L294.75141,62.8968172 C294.75141,55.0965808 301.134388,48.71242 308.935807,48.71242 L432.329424,48.71242 C440.132024,48.71242 446.513821,55.0965808 446.513821,62.8968172 L446.513821,186.291616 Z M128.409529,370.320396 C115.54745,356.889993 106.890939,339.451469 102.679719,318.486175 C102.392543,317.055077 103.153042,315.615784 104.498598,315.043986 C105.846607,314.472862 107.404753,314.927367 108.227845,316.131967 C133.194709,352.650297 192.274348,342.138169 222.713825,336.198112 L214.691718,292.54691 C214.255917,290.190074 214.902016,288.133644 216.463964,286.901849 C217.084132,286.413573 217.799197,286.095152 218.577843,285.949083 C219.800417,285.717759 221.178524,285.913469 222.585973,286.543834 L340.875528,340.623195 C340.876373,340.623956 340.878826,340.62463 340.879671,340.625391 C342.963958,341.581261 344.370808,343.294597 344.741532,345.322727 C345.11302,347.35001 344.404806,349.453338 342.800739,351.093812 L251.634679,444.388945 C249.905154,446.194241 247.786567,446.895676 245.824481,446.313809 C243.895891,445.740615 242.538835,444.055231 242.099165,441.685703 L234.879468,402.354374 C222.126592,403.543798 195.261679,404.465576 168.853665,395.434798 C152.680342,389.904087 139.071603,381.453754 128.409529,370.320396 Z" id="path-1"></path>
    </defs>
    <g id="arrangev" stroke="none" stroke-width="1" fill="none" fill-rule="evenodd">
        <mask id="mask-2" fill="white">
            <use xlink:href="#path-1"></use>
        </mask>
        <use id="Combined-Shape" fill="#000000" transform="translate(198.900701, 247.613121) scale(-1, 1) rotate(-270.000000) translate(-198.900701, -247.613121) " xlink:href="#path-1"></use>
    </g>
</svg>