<?xml version="1.0" encoding="UTF-8"?>
<svg width="500px" height="500px" viewBox="0 0 500 500" version="1.1" xmlns="http://www.w3.org/2000/svg" xmlns:xlink="http://www.w3.org/1999/xlink">
    <!-- Generator: Sketch 52.6 (67491) - http://www.bohemiancoding.com/sketch -->
    <title>atlas</title>
    <desc>Created with Sketch.</desc>
    <g id="atlas" stroke="none" stroke-width="1" fill="none" fill-rule="evenodd">
        <g id="sphere" transform="translate(38.000000, 38.000000)" fill="#000000" fill-rule="nonzero">
            <path d="M212,0 C94.9194667,0 0,94.9194667 0,212 C0,329.080533 94.9194667,424 212,424 C329.080533,424 424,329.080533 424,212 C424,94.9194667 329.080533,0 212,0 Z M331.9496,282.666667 C335.737333,264.802133 338.125867,245.8352 338.9032,226.133333 L395.196267,226.133333 C393.7264,245.651467 389.175467,264.604267 381.6424,282.666667 L331.9496,282.666667 Z M92.0504,141.333333 C88.2626667,159.197867 85.8741333,178.1648 85.0968,197.866667 L28.8037333,197.866667 C30.2736,178.348533 34.8245333,159.395733 42.3576,141.333333 L92.0504,141.333333 Z M303.004533,141.333333 C307.244533,159.424 309.802667,178.362667 310.636533,197.866667 L226.133333,197.866667 L226.133333,141.333333 L303.004533,141.333333 Z M226.133333,113.066667 L226.133333,30.3301333 C232.578133,32.2098667 238.9664,35.3474667 245.227467,39.7712 C256.972267,48.0533333 268.194133,60.8016 277.705867,76.6450667 C284.277867,87.5984 289.959467,99.7954667 294.708267,113.0808 L226.133333,113.0808 L226.133333,113.066667 Z M146.294133,76.6309333 C155.805867,60.7874667 167.027733,48.0392 178.772533,39.7570667 C185.0336,35.3333333 191.421867,32.1957333 197.866667,30.316 L197.866667,113.052533 L129.291733,113.052533 C134.040533,99.7672 139.722133,87.5701333 146.294133,76.6168 L146.294133,76.6309333 Z M197.866667,141.333333 L197.866667,197.866667 L113.363467,197.866667 C114.197333,178.362667 116.755467,159.424 120.995467,141.333333 L197.866667,141.333333 Z M42.3576,282.666667 C34.8245333,264.604267 30.2877333,245.651467 28.8037333,226.133333 L85.0968,226.133333 C85.8741333,245.8352 88.2626667,264.802133 92.0504,282.666667 L42.3576,282.666667 Z M113.363467,226.133333 L197.866667,226.133333 L197.866667,282.666667 L120.995467,282.666667 C116.755467,264.576 114.197333,245.637333 113.363467,226.133333 Z M197.866667,310.933333 L197.866667,393.669867 C191.421867,391.790133 185.0336,388.652533 178.772533,384.2288 C167.027733,375.946667 155.805867,363.1984 146.294133,347.354933 C139.722133,336.4016 134.040533,324.204533 129.291733,310.9192 L197.866667,310.9192 L197.866667,310.933333 Z M277.705867,347.369067 C268.194133,363.212533 256.972267,375.9608 245.227467,384.242933 C238.9664,388.652533 232.578133,391.804267 226.133333,393.684 L226.133333,310.947467 L294.708267,310.947467 C289.959467,324.2328 284.277867,336.415733 277.705867,347.3832 L277.705867,347.369067 Z M226.133333,282.666667 L226.133333,226.133333 L310.636533,226.133333 C309.802667,245.637333 307.244533,264.576 303.004533,282.666667 L226.133333,282.666667 Z M338.917333,197.866667 C338.14,178.1648 335.751467,159.197867 331.963733,141.333333 L381.656533,141.333333 C389.1896,159.395733 393.740533,178.348533 395.2104,197.866667 L338.917333,197.866667 Z M366.873067,113.066667 L324.515467,113.066667 C316.289867,87.1178667 304.912533,64.3490667 291.2456,46.1877333 C310.0288,55.1765333 327.045333,67.2181333 341.9136,82.0864 C351.397067,91.5698667 359.735733,101.9296 366.873067,113.066667 Z M82.0864,82.0864 C96.9546667,67.2181333 113.9712,55.1765333 132.7544,46.1877333 C119.087467,64.3490667 107.724267,87.1178667 99.4845333,113.066667 L57.1269333,113.066667 C64.2501333,101.9296 72.5888,91.5698667 82.0864,82.0864 Z M57.1269333,310.933333 L99.4845333,310.933333 C107.724267,336.882133 119.087467,359.650933 132.7544,377.812267 C113.9712,368.823467 96.9546667,356.781867 82.0864,341.9136 C72.6029333,332.430133 64.2642667,322.0704 57.1269333,310.933333 Z M341.9136,341.9136 C327.045333,356.781867 310.0288,368.823467 291.2456,377.812267 C304.912533,359.650933 316.275733,336.882133 324.515467,310.933333 L366.873067,310.933333 C359.749867,322.0704 351.4112,332.430133 341.9136,341.9136 Z" id="Shape"></path>
        </g>
    </g>
</svg>