<?xml version="1.0" encoding="UTF-8"?>
<svg width="500px" height="500px" viewBox="0 0 500 500" version="1.1" xmlns="http://www.w3.org/2000/svg" xmlns:xlink="http://www.w3.org/1999/xlink">
    <!-- Generator: Sketch 52.4 (67378) - http://www.bohemiancoding.com/sketch -->
    <title>back</title>
    <desc>Created with Sketch.</desc>
    <g id="back" stroke="none" stroke-width="1" fill="none" fill-rule="evenodd">
        <path d="M492.789938,250 C492.789938,257.127193 490.180701,263.294956 484.962228,268.503289 L260.842527,492.1875 C255.624053,497.395833 249.444282,500 242.303213,500 C235.162144,500 228.982373,497.395833 223.7639,492.1875 C218.545426,486.979167 215.936189,480.811404 215.936189,473.684211 L215.936189,355.263158 L31.3670237,355.263158 C24.2259548,355.263158 18.0461836,352.658991 12.8277102,347.450658 C7.60923672,342.242325 5,336.074561 5,328.947368 L5,171.052632 C5,163.925439 7.60923672,157.757675 12.8277102,152.549342 C18.0461836,147.341009 24.2259548,144.736842 31.3670237,144.736842 L215.936189,144.736842 L215.936189,26.3157895 C215.936189,19.1885965 218.545426,13.0208333 223.7639,7.8125 C228.982373,2.60416667 235.162144,1.13686838e-13 242.303213,1.13686838e-13 C249.444282,1.13686838e-13 255.624053,2.60416667 260.842527,7.8125 L484.962228,231.496711 C490.180701,236.705044 492.789938,242.872807 492.789938,250 Z" id="Path" fill="#000000" fill-rule="nonzero" transform="translate(248.894969, 250.000000) rotate(180.000000) translate(-248.894969, -250.000000) "></path>
    </g>
</svg>