<?xml version="1.0" encoding="UTF-8"?>
<svg width="1280px" height="1280px" viewBox="0 0 1280 1280" version="1.1" xmlns="http://www.w3.org/2000/svg" xmlns:xlink="http://www.w3.org/1999/xlink">
    <!-- Generator: Sketch 49 (51002) - http://www.bohemiancoding.com/sketch -->
    <title>bars</title>
    <desc>Created with Sketch.</desc>
    <defs></defs>
    <g id="Page-1" stroke="none" stroke-width="1" fill="none" fill-rule="evenodd">
        <g id="bars" fill="#000000" fill-rule="nonzero">
            <path d="M1280,1088 L1280,1216 C1280,1233.33333 1274.72222,1248.33333 1264.16667,1261 C1253.61111,1273.66667 1241.11111,1280 1226.66667,1280 L53.3333333,1280 C38.8888889,1280 26.3888889,1273.66667 15.8333333,1261 C5.27777778,1248.33333 0,1233.33333 0,1216 L0,1088 C0,1070.66667 5.27777778,1055.66667 15.8333333,1043 C26.3888889,1030.33333 38.8888889,1024 53.3333333,1024 L1226.66667,1024 C1241.11111,1024 1253.61111,1030.33333 1264.16667,1043 C1274.72222,1055.66667 1280,1070.66667 1280,1088 Z M1280,576 L1280,704 C1280,721.333333 1274.72222,736.333333 1264.16667,749 C1253.61111,761.666667 1241.11111,768 1226.66667,768 L53.3333333,768 C38.8888889,768 26.3888889,761.666667 15.8333333,749 C5.27777778,736.333333 0,721.333333 0,704 L0,576 C0,558.666667 5.27777778,543.666667 15.8333333,531 C26.3888889,518.333333 38.8888889,512 53.3333333,512 L1226.66667,512 C1241.11111,512 1253.61111,518.333333 1264.16667,531 C1274.72222,543.666667 1280,558.666667 1280,576 Z M1280,64 L1280,192 C1280,209.333333 1274.72222,224.333333 1264.16667,237 C1253.61111,249.666667 1241.11111,256 1226.66667,256 L53.3333333,256 C38.8888889,256 26.3888889,249.666667 15.8333333,237 C5.27777778,224.333333 0,209.333333 0,192 L0,64 C0,46.6666667 5.27777778,31.6666667 15.8333333,19 C26.3888889,6.33333333 38.8888889,0 53.3333333,0 L1226.66667,0 C1241.11111,0 1253.61111,6.33333333 1264.16667,19 C1274.72222,31.6666667 1280,46.6666667 1280,64 Z" id="Shape"></path>
        </g>
    </g>
</svg>