<?xml version="1.0" encoding="utf-8"?>
<!-- Generator: Adobe Illustrator 27.3.0, SVG Export Plug-In . SVG Version: 6.00 Build 0)  -->
<svg version="1.1" id="Ebene_1" xmlns="http://www.w3.org/2000/svg" xmlns:xlink="http://www.w3.org/1999/xlink" x="0px" y="0px"
	 viewBox="0 0 500 500" style="enable-background:new 0 0 500 500;" xml:space="preserve">
<path d="M57.5,40.1C57.5,17.9,75.4,0,97.6,0h134.3c72.3,0,123.8,10.7,154.6,32.1s46.2,52.2,46.2,92.3c0,21.9-3.9,40.5-11.8,55.7
	c-7.9,15.3-17.8,27.4-29.8,36.3c-12,8.9-24.2,14.9-36.8,18.1v3.4c13.7,3.4,27.3,9.1,40.9,16.9c13.6,7.9,24.8,19.6,33.9,35.2
	c9,15.6,13.5,36.8,13.5,63.4c0,30.3-7.7,56.4-23.1,78.3s-37.3,38.7-65.8,50.4c-28.5,11.7-62.4,17.6-101.6,17.6H97.6
	c-22.1,0-40.1-17.9-40.1-40.1V40.1z M192.5,191.9h40.7c22.3,0,38.1-4.6,47.2-13.9c9.1-9.2,13.7-20.5,13.7-33.7
	c0-13.7-5.2-24.1-15.6-31.3c-10.4-7.2-26.4-10.8-48.1-10.8h-38v89.7H192.5z M192.5,290.7v105H240c23.5,0,39.9-5.1,49.2-15.2
	c9.3-10.1,14-22.9,14-38.1c0-8.9-2-17.3-6-25.1c-4-7.9-10.8-14.2-20.3-19.2c-9.6-4.9-22.8-7.4-39.7-7.4L192.5,290.7L192.5,290.7z"/>
</svg>
