<?xml version="1.0" encoding="UTF-8"?>
<svg width="500px" height="500px" viewBox="0 0 500 500" version="1.1" xmlns="http://www.w3.org/2000/svg" xmlns:xlink="http://www.w3.org/1999/xlink">
    <!-- Generator: Sketch 52.6 (67491) - http://www.bohemiancoding.com/sketch -->
    <title>book</title>
    <desc>Created with Sketch.</desc>
    <g id="book" stroke="none" stroke-width="1" fill="none" fill-rule="evenodd">
        <g transform="translate(0.000000, 20.000000)" fill="#000000" fill-rule="nonzero" id="Shape">
            <path d="M492.196879,105.042017 C500.20008,116.446579 502.0008,129.351741 497.59904,143.757503 L415.066026,415.666267 C411.264506,428.471389 403.611445,439.22569 392.106843,447.929172 C380.602241,456.632653 368.347339,460.984394 355.342137,460.984394 L78.3313325,460.984394 C62.9251701,460.984394 48.0692277,455.632253 33.7635054,444.927971 C19.4577831,434.223689 9.50380152,421.068427 3.90156062,405.462185 C-0.900360144,392.056823 -1.10044018,379.351741 3.30132053,367.346939 C3.30132053,366.546619 3.60144058,363.845538 4.20168067,359.243697 C4.80192077,354.641857 5.20208083,350.940376 5.40216086,348.139256 C5.6022409,346.538615 5.30212085,344.387755 4.50180072,341.686675 C3.70148059,338.985594 3.40136054,337.034814 3.60144058,335.834334 C4.00160064,333.633453 4.80192077,331.532613 6.00240096,329.531813 C7.20288115,327.531012 8.85354142,325.180072 10.9543818,322.478992 C13.0552221,319.777911 14.7058824,317.426971 15.9063625,315.42617 C20.5082033,307.823129 25.010004,298.669468 29.4117647,287.965186 C33.8135254,277.260904 36.8147259,268.107243 38.4153661,260.504202 C39.0156062,258.503401 39.0656263,255.502201 38.5654262,251.5006 C38.0652261,247.499 38.0152061,244.697879 38.4153661,243.097239 C39.0156062,240.896359 40.7162865,238.095238 43.517407,234.693878 C46.3185274,231.292517 48.0192077,228.991597 48.6194478,227.791116 C52.8211285,220.588235 57.0228091,211.384554 61.2244898,200.180072 C65.4261705,188.97559 67.9271709,179.971989 68.727491,173.169268 C68.927571,171.368547 68.677471,168.167267 67.9771909,163.565426 C67.2769108,158.963585 67.3269308,156.162465 68.1272509,155.162065 C68.927571,152.561024 71.1284514,149.509804 74.729892,146.008403 C78.3313325,142.507003 80.5322129,140.256102 81.332533,139.255702 C85.1340536,134.053621 89.3857543,125.60024 94.0876351,113.895558 C98.7895158,102.190876 101.540616,92.5370148 102.340936,84.9339736 C102.541016,83.3333333 102.240896,80.7823129 101.440576,77.2809124 C100.640256,73.7795118 100.440176,71.1284514 100.840336,69.3277311 C101.240496,67.7270908 102.140856,65.9263705 103.541417,63.9255702 C104.941977,61.9247699 106.742697,59.6238495 108.943577,57.0228091 C111.144458,54.4217687 112.845138,52.3209284 114.045618,50.7202881 C115.646259,48.3193277 117.296919,45.2681072 118.997599,41.5666267 C120.698279,37.8651461 122.19888,34.3637455 123.4994,31.062425 C124.79992,27.7611044 126.40056,24.1596639 128.301321,20.2581032 C130.202081,16.3565426 132.152861,13.1552621 134.153661,10.6542617 C136.154462,8.1532613 138.805522,5.80232093 142.106843,3.60144058 C145.408163,1.40056022 149.009604,0.25010004 152.911164,0.150060024 C156.812725,0.050020008 161.564626,0.600240096 167.166867,1.80072029 L166.866747,2.70108043 C174.469788,0.900360144 179.571829,0 182.172869,0 L410.564226,0 C425.370148,0 436.77471,5.6022409 444.777911,16.8067227 C452.781112,28.0112045 454.581833,41.0164066 450.180072,55.8223289 L367.947179,327.731092 C360.744298,351.540616 353.591437,366.896759 346.488595,373.79952 C339.385754,380.702281 326.530612,384.153661 307.923169,384.153661 L47.1188475,384.153661 C41.7166867,384.153661 37.9151661,385.654262 35.7142857,388.655462 C33.5134054,391.856743 33.4133653,396.158463 35.4141657,401.560624 C40.2160864,415.566226 54.6218487,422.569028 78.6314526,422.569028 L355.642257,422.569028 C361.444578,422.569028 367.046819,421.018407 372.44898,417.917167 C377.85114,414.815926 381.352541,410.664266 382.953181,405.462185 L472.989196,109.243697 C474.389756,104.841937 474.889956,99.1396559 474.489796,92.1368547 C482.092837,95.1380552 487.995198,99.4397759 492.196879,105.042017 Z M172.869148,105.642257 C172.068828,108.243297 172.268908,110.494198 173.469388,112.394958 C174.669868,114.295718 176.670668,115.246098 179.471789,115.246098 L361.944778,115.246098 C364.545818,115.246098 367.096839,114.295718 369.597839,112.394958 C372.09884,110.494198 373.7495,108.243297 374.54982,105.642257 L380.852341,86.4345738 C381.652661,83.8335334 381.452581,81.5826331 380.252101,79.6818727 C379.051621,77.7811124 377.05082,76.8307323 374.2497,76.8307323 L191.776711,76.8307323 C189.17567,76.8307323 186.62465,77.7811124 184.123649,79.6818727 C181.622649,81.5826331 179.971989,83.8335334 179.171669,86.4345738 L172.869148,105.642257 Z M147.959184,182.472989 C147.158864,185.07403 147.358944,187.32493 148.559424,189.22569 C149.759904,191.126451 151.760704,192.076831 154.561825,192.076831 L337.034814,192.076831 C339.635854,192.076831 342.186875,191.126451 344.687875,189.22569 C347.188876,187.32493 348.839536,185.07403 349.639856,182.472989 L355.942377,163.265306 C356.742697,160.664266 356.542617,158.413365 355.342137,156.512605 C354.141657,154.611845 352.140856,153.661465 349.339736,153.661465 L166.866747,153.661465 C164.265706,153.661465 161.714686,154.611845 159.213685,156.512605 C156.712685,158.413365 155.062025,160.664266 154.261705,163.265306 L147.959184,182.472989 Z"></path>
        </g>
    </g>
</svg>