<?xml version="1.0" encoding="UTF-8"?>
<svg width="500px" height="500px" viewBox="0 0 500 500" version="1.1" xmlns="http://www.w3.org/2000/svg" xmlns:xlink="http://www.w3.org/1999/xlink">
    <!-- Generator: Sketch 50.2 (55047) - http://www.bohemiancoding.com/sketch -->
    <title>broom</title>
    <desc>Created with Sketch.</desc>
    <defs></defs>
    <g id="broom" stroke="none" stroke-width="1" fill="none" fill-rule="evenodd">
        <path d="M47.5,12 C27.893892,12 12,27.893892 12,47.5 C12,67.106108 27.893892,83 47.5,83 C67.106108,83 83,67.106108 83,47.5 C83,27.893892 67.106108,12 47.5,12 Z M447.803109,19 L368.153713,178.311111 C341.876047,166.520991 307.679914,171.976037 286.271157,202.877778 C267.724204,242.903256 219.930589,270.471046 175.357513,287.744444 C153.07098,296.381143 130.77968,302.211227 113.573402,305.611111 C96.3671249,309.010995 80.4734433,309.046633 83.0535406,309.333333 L57,306.355556 L57,333.155556 L57,335.388889 L57,344.322222 L62.955095,351.022222 C177.947698,483.912845 354.010363,488 354.010363,488 L363.687392,488 L371.131261,481.3 C371.131261,481.3 444.891806,410.79456 461.202073,301.888889 C473.856649,249.48 459.266667,218.511111 430.682211,206.6 C430.274215,206.191973 428.007253,204.99686 426.960276,204.366667 L488,37.6111111 L447.803109,19 Z M155,36 C141.745167,36 131,46.7451672 131,60 C131,73.2548328 141.745167,84 155,84 C168.254833,84 179,73.2548328 179,60 C179,46.7451672 168.254833,36 155,36 Z M107.5,131 C81.2664744,131 60,152.266474 60,178.5 C60,204.733514 81.2664744,226 107.5,226 C133.733526,226 155,204.733514 155,178.5 C155,152.266474 133.733526,131 107.5,131 Z M316.962865,240 L415,282.483146 C407.065694,370.909433 354.717595,428.155797 344.442971,439 C339.241109,438.697627 323.128628,437.195447 301.366048,432.292135 C319.091281,412.324973 347.114572,374.661353 361.525199,326.456929 C318.839688,376.146314 273.589311,404.381644 250.862069,416.640449 C236.974544,411.544237 222.918515,405.69319 207.785146,398.007491 C222.863566,385.038355 245.987829,362.977957 259.774536,338.382022 C242.081934,357.75095 204.750273,374.760832 181.790451,383.846442 C166.091473,374.319103 150.444968,363.357915 135,350.307116 C152.668314,346.332745 171.688386,341.425283 192.931034,333.164794 C238.090742,315.603853 287.828914,287.006883 316.962865,240 Z" id="Shape" fill="#000000" fill-rule="nonzero"></path>
    </g>
</svg>