<?xml version="1.0" encoding="UTF-8"?>
<svg width="500px" height="500px" viewBox="0 0 500 500" version="1.1" xmlns="http://www.w3.org/2000/svg" xmlns:xlink="http://www.w3.org/1999/xlink">
    <!-- Generator: Sketch 52.6 (67491) - http://www.bohemiancoding.com/sketch -->
    <title>brush</title>
    <desc>Created with Sketch.</desc>
    <g id="brush" stroke="none" stroke-width="1" fill="none" fill-rule="evenodd">
        <path d="M451.117318,0 C464.1527,0 475.558659,4.32938742 485.335196,12.9881623 C495.111732,21.6469371 500,32.4936819 500,45.5283968 C500,57.2596401 495.810056,71.3185111 487.430168,87.7050097 C425.605214,204.831233 382.309125,274.846272 357.541899,297.750129 C339.478585,314.695258 319.180633,323.167822 296.648045,323.167822 C273.184358,323.167822 253.026071,314.5556 236.173184,297.331156 C219.320298,280.106711 210.893855,259.67014 210.893855,236.021443 C210.893855,212.186536 219.459963,192.448254 236.592179,176.806596 L414.804469,15.0830271 C425.791434,5.02767572 437.895717,0 451.117318,0 Z M197.206704,288.812038 C204.469274,302.964014 214.385475,315.067678 226.955307,325.12303 C239.52514,335.178381 253.538175,342.254369 268.994413,346.350994 L269.273743,366.182381 C270.018622,405.845156 257.960894,438.152628 233.100559,463.104796 C208.240223,488.056965 175.791434,500.533049 135.75419,500.533049 C112.849162,500.533049 92.5512104,496.203662 74.8603352,487.544887 C57.16946,478.886112 42.9702048,467.015211 32.2625698,451.932184 C21.5549348,436.849157 13.5009311,419.810922 8.10055866,400.817481 C2.70018622,381.824039 0,361.340916 0,339.368111 C1.30353818,340.299162 5.12104283,343.092315 11.452514,347.74757 C17.7839851,352.402826 23.556797,356.546003 28.7709497,360.177102 C33.9851024,363.808201 39.4785847,367.206537 45.2513966,370.372111 C51.0242086,373.537685 55.3072626,375.120471 58.1005587,375.120471 C65.735568,375.120471 70.8566108,371.675583 73.4636872,364.785805 C78.1191806,352.495931 83.4729981,342.021606 89.5251397,333.362831 C95.5772812,324.704057 102.048417,317.628069 108.938547,312.134867 C115.828678,306.641666 124.022346,302.219174 133.519553,298.86739 C143.01676,295.515606 152.607076,293.141426 162.290503,291.744849 C171.973929,290.348273 183.612663,289.370669 197.206704,288.812038 Z" id="Shape" fill="#000000" fill-rule="nonzero"></path>
    </g>
</svg>