<?xml version="1.0" encoding="UTF-8"?>
<svg width="500px" height="500px" viewBox="0 0 500 500" version="1.1" xmlns="http://www.w3.org/2000/svg" xmlns:xlink="http://www.w3.org/1999/xlink">
    <!-- Generator: Sketch 52.6 (67491) - http://www.bohemiancoding.com/sketch -->
    <title>bars</title>
    <desc>Created with Sketch.</desc>
    <defs>
        <path d="M500,425 L500,475 C500,481.770832 497.938367,487.630207 493.815105,492.578125 C489.69184,497.526043 484.809027,500 479.166668,500 L20.8333333,500 C15.1909722,500 10.3081597,497.526043 6.18489582,492.578125 C2.06163195,487.630207 0,481.770832 0,475 L0,425 C0,418.229168 2.06163195,412.369793 6.18489582,407.421875 C10.3081597,402.473957 15.1909722,400 20.8333333,400 L479.166668,400 C484.809027,400 489.69184,402.473957 493.815105,407.421875 C497.938367,412.369793 500,418.229168 500,425 Z M500,225 L500,275 C500,281.770833 497.938367,287.630208 493.815105,292.578125 C489.69184,297.526042 484.809027,300 479.166668,300 L20.8333333,300 C15.1909722,300 10.3081597,297.526042 6.18489582,292.578125 C2.06163195,287.630208 0,281.770833 0,275 L0,225 C0,218.229167 2.06163195,212.369792 6.18489582,207.421875 C10.3081597,202.473958 15.1909722,200 20.8333333,200 L479.166668,200 C484.809027,200 489.69184,202.473958 493.815105,207.421875 C497.938367,212.369792 500,218.229167 500,225 Z M500,25 L500,75 C500,81.7708332 497.938367,87.6302082 493.815105,92.578125 C489.69184,97.5260418 484.809027,100 479.166668,100 L20.8333333,100 C15.1909722,100 10.3081597,97.5260418 6.18489582,92.578125 C2.06163195,87.6302082 0,81.7708332 0,75 L0,25 C0,18.2291667 2.06163195,12.3697917 6.18489582,7.421875 C10.3081597,2.47395833 15.1909722,0 20.8333333,0 L479.166668,0 C484.809027,0 489.69184,2.47395833 493.815105,7.421875 C497.938367,12.3697917 500,18.2291667 500,25 Z" id="path-1"></path>
    </defs>
    <g id="bars" stroke="none" stroke-width="1" fill="none" fill-rule="evenodd">
        <mask id="mask-2" fill="white">
            <use xlink:href="#path-1"></use>
        </mask>
        <use id="Shape" fill="#000000" fill-rule="nonzero" xlink:href="#path-1"></use>
    </g>
</svg>