<?xml version="1.0" encoding="utf-8"?>
<!-- Generator: Adobe Illustrator 15.0.0, SVG Export Plug-In . SVG Version: 6.00 Build 0)  -->
<!DOCTYPE svg PUBLIC "-//W3C//DTD SVG 1.1//EN" "http://www.w3.org/Graphics/SVG/1.1/DTD/svg11.dtd">
<svg version="1.1" id="Ebene_1" xmlns="http://www.w3.org/2000/svg" xmlns:xlink="http://www.w3.org/1999/xlink" x="0px" y="0px"
	 width="2048px" height="1792px" viewBox="0 0 2048 1792" enable-background="new 0 0 2048 1792" xml:space="preserve">
<g>
	<path d="M736.388,988.558c-60.938,0-113.042,21.636-156.312,64.905c-43.271,43.271-64.906,95.375-64.906,156.312
		s21.635,113.041,64.906,156.312c43.27,43.271,95.373,64.905,156.312,64.905c60.936,0,113.04-21.635,156.312-64.905
		c43.27-43.271,64.905-95.374,64.905-156.312s-21.636-113.042-64.905-156.312C849.428,1010.193,797.323,988.558,736.388,988.558z"/>
	<path d="M1632.86,1264.593c13.372,9.704,31.449,9.771,44.89,0.162c13.44-9.605,19.231-26.729,14.381-42.522l-83.659-272.327
		l405.393-34.613c16.871-1.439,30.81-13.762,34.309-30.33c3.5-16.568-4.266-33.474-19.115-41.613l-364.232-199.681l120.659-555.637
		c3.794-17.464-4.961-35.236-21.118-42.873c-16.153-7.636-35.444-3.122-46.532,10.895L1360.207,508.12L1084.31,175.177
		c-11.373-13.723-30.69-17.818-46.654-9.893c-15.962,7.928-24.374,25.796-20.313,43.15l101.169,432.293l-20.257,10.081
		l-32.346-86.251c-9.729-25.092-27.524-46.727-53.383-64.905c-25.861-18.179-52.361-27.269-79.5-27.269H539.75
		c-27.141,0-53.641,9.09-79.5,27.269c-25.861,18.179-43.655,39.813-53.385,64.905l-39.174,104.464H195.634
		c-54.281,0-100.623,19.203-139.029,57.608C18.199,765.036-1.004,811.379-1.004,865.659v688.232
		c0,54.28,19.203,100.623,57.608,139.028c38.406,38.406,84.748,57.608,139.029,57.608h1081.508
		c54.279,0,100.623-19.202,139.028-57.608c38.405-38.405,57.609-84.748,57.609-139.028v-404.74 M979.496,1452.884
		c-67.34,67.339-148.375,101.008-243.108,101.008c-94.735,0-175.771-33.669-243.108-101.008
		c-67.34-67.339-101.008-148.374-101.008-243.108s33.668-175.771,101.008-243.108c67.337-67.339,148.373-101.008,243.108-101.008
		c94.733,0,175.769,33.669,243.108,101.008c67.337,67.338,101.007,148.374,101.007,243.108S1046.833,1385.545,979.496,1452.884z
		 M1554.514,877.421c-11.567,0.987-22.067,7.156-28.565,16.778c-6.495,9.622-8.29,21.669-4.88,32.766l63.886,207.959
		l-205.136-148.861c-8.318-6.038-18.713-8.488-28.854-6.803c-10.142,1.687-19.183,7.367-25.103,15.771l-135.498,192.386
		l47.694-299.64c1.626-10.221-0.941-20.664-7.119-28.967c-6.179-8.302-15.446-13.759-25.703-15.135l-253.721-34.036l228.429-113.688
		c15.945-7.936,24.341-25.793,20.283-43.135l-70.893-302.92l201.994,243.757c7.394,8.923,18.401,14.014,30.007,13.898
		c11.587-0.132,22.495-5.487,29.686-14.575l284.231-359.295l-91.58,421.723c-3.61,16.627,4.149,33.648,19.069,41.828
		l277.893,152.345L1554.514,877.421z"/>
</g>
</svg>
