<?xml version="1.0" encoding="utf-8"?>
<!-- Generator: Adobe Illustrator 26.0.0, SVG Export Plug-In . SVG Version: 6.00 Build 0)  -->
<svg version="1.1" id="Ebene_1" xmlns="http://www.w3.org/2000/svg" xmlns:xlink="http://www.w3.org/1999/xlink" x="0px" y="0px"
	 viewBox="0 0 500 500" style="enable-background:new 0 0 500 500;" xml:space="preserve">
<style type="text/css">
	.st0{display:none;fill:none;stroke:#000000;stroke-width:30;stroke-linecap:round;stroke-linejoin:round;stroke-miterlimit:10;}
	.st1{display:none;}
	.st2{display:inline;stroke:#000000;stroke-width:15;stroke-linecap:round;stroke-linejoin:round;stroke-miterlimit:10;}
	.st3{display:inline;}
	.st4{display:inline;stroke:#000000;stroke-width:15;stroke-miterlimit:10;}
	.st5{display:inline;fill:none;stroke:#000000;stroke-width:30;stroke-miterlimit:10;}
</style>
<desc>Created with Sketch.</desc>
<polyline class="st0" points="15,65 15,435 485,435 "/>
<g class="st1">
	<circle class="st2" cx="93" cy="300" r="25"/>
	<circle class="st2" cx="171" cy="200" r="25"/>
	<circle class="st2" cx="250" cy="325" r="25"/>
	<circle class="st2" cx="329" cy="125" r="25"/>
	<circle class="st2" cx="407" cy="225" r="25"/>
</g>
<g class="st1">
	<circle class="st2" cx="93" cy="300" r="25"/>
	<circle class="st2" cx="171" cy="200" r="50"/>
	<circle class="st2" cx="250" cy="325" r="37.5"/>
	<circle class="st2" cx="329" cy="125" r="18.8"/>
	<circle class="st2" cx="407" cy="225" r="43.8"/>
</g>
<polyline class="st0" points="93,300 171,200 250,325 329,125 407,225 "/>
<g class="st1">
	<rect x="68" y="300" class="st2" width="50" height="135"/>
	<rect x="146" y="200" class="st2" width="50" height="235"/>
	<rect x="225" y="325" class="st2" width="50" height="110"/>
	<rect x="304" y="125" class="st2" width="50" height="310"/>
	<rect x="382" y="225" class="st2" width="50" height="210"/>
</g>
<g class="st1">
	<path class="st3" d="M251.6,250l158.4,110.9c3.8,2.7,4.6,7.8,1.8,11.5c-38,49.7-97.3,79.2-160.2,79.2C141,451.6,50,360.6,50,250
		c0-107.8,86.4-197,193.2-201.5c4.6-0.2,8.4,3.5,8.4,8.1V250z"/>
	<g class="st3">
		<path d="M278.9,64c17.2,1.5,34,5.6,50.1,12.3C345,83,359.8,91.9,373,103l-94.1,94.1V64 M270.8,48.5c-3.8,0-7,3.2-7,7v177.8
			l125.8-125.8c2.8-2.8,2.8-7.4-0.1-10.1c-16-14.8-34.6-26.7-54.8-35.1c-20.2-8.4-41.7-13.1-63.6-13.9
			C271,48.5,270.9,48.5,270.8,48.5L270.8,48.5z"/>
	</g>
	<g class="st3">
		<g>
			<path d="M401.1,136.3c25.6,30.6,39.7,69,39.7,109.1c0,29.9-7.8,59-22.7,84.8L294,243.4L401.1,136.3 M401.5,117.6
				c-1.8,0-3.6,0.7-5,2.1L270.8,245.4l145.7,102c1.2,0.9,2.6,1.3,4,1.3c2.3,0,4.6-1.2,6-3.3c19.1-29.8,29.3-64.5,29.3-100
				c0-46.6-17.6-91.5-49.2-125.6C405.2,118.3,403.4,117.6,401.5,117.6L401.5,117.6z"/>
		</g>
		<g>
			<path d="M419.3,135.1l-126,126l12.5,8.7l122.1-122.1C425.2,143.4,422.3,139.2,419.3,135.1z"/>
			<path d="M434.7,159.7L316.8,277.6l12.5,8.7l112.2-112.2C439.4,169.2,437.2,164.4,434.7,159.7z"/>
			<path d="M446.6,187.8L340.3,294.1l12.5,8.7l98.4-98.4C449.9,198.8,448.3,193.3,446.6,187.8z"/>
			<path d="M454,220.3l-90.2,90.2l12.5,8.7l79.4-79.4C455.5,233.4,454.9,226.8,454,220.3z"/>
			<path d="M455.2,259.1L387.4,327l12.5,8.7l51.9-51.9C453.4,275.8,454.6,267.5,455.2,259.1z"/>
		</g>
	</g>
</g>
<g class="st1">
	<g>
		<circle class="st4" cx="90" cy="360" r="75"/>
		<circle class="st4" cx="410" cy="360" r="75"/>
		<circle class="st4" cx="215" cy="276" r="150"/>
		<circle class="st4" cx="365" cy="250" r="62.5"/>
		<rect x="90" y="335" class="st4" width="320" height="100"/>
	</g>
	<path class="st5" d="M416.6,254.8c6.9-10,10.9-22.2,10.9-35.3c0-34.5-28-62.5-62.5-62.5c-9,0-17.5,1.9-25.2,5.3
		C312.9,122,267.1,95.5,215,95.5c-82.8,0-150,67.2-150,150c0,4.4,0.2,8.8,0.6,13.1c-29.4,10.1-50.6,38-50.6,70.9
		c0,41.4,33.6,75,75,75h320c41.4,0,75-33.6,75-75C485,290.3,454.9,258.1,416.6,254.8z"/>
	<g class="st3">
		<path d="M172.3,320.9l-5-10h-0.5c-3.5,4.3-7.1,7.3-10.7,8.9c-3.6,1.6-8.3,2.4-14.1,2.4c-7.1,0-12.7-2.1-16.7-6.4
			c-4.1-4.2-6.1-10.2-6.1-17.9c0-8,2.8-14,8.4-17.9s13.7-6.1,24.2-6.6l12.6-0.4V272c0-6.2-3.1-9.3-9.2-9.3c-5.5,0-12.5,1.9-20.9,5.6
			l-7.5-17.1c8.8-4.5,19.8-6.8,33.2-6.8c9.7,0,17.1,2.4,22.4,7.2c5.3,4.8,7.9,11.5,7.9,20.1v49.3H172.3z M153.1,303.9
			c3.1,0,5.8-1,8.1-3c2.2-2,3.4-4.6,3.4-7.8v-5.8l-6,0.3c-8.5,0.3-12.8,3.5-12.8,9.4C145.7,301.6,148.1,303.9,153.1,303.9z"/>
		<path d="M253.9,244.4c8.2,0,14.7,3.4,19.5,10.3c4.8,6.9,7.2,16.4,7.2,28.5c0,12.2-2.4,21.8-7.3,28.7c-4.8,6.9-11.6,10.4-20.2,10.4
			c-2.8,0-5.3-0.3-7.4-0.9s-4.1-1.4-5.8-2.5s-3.7-2.8-5.9-5.3h-1.6l-4.1,7.4H208V217.6h26V241c0,2.8-0.3,7.6-0.9,14.4h0.9
			c2.5-3.9,5.4-6.7,8.7-8.4S249.7,244.4,253.9,244.4z M244.4,264.8c-3.6,0-6.3,1.3-8,3.8s-2.5,6.5-2.5,11.9v3.7
			c0,6.2,0.8,10.6,2.5,13.2c1.7,2.7,4.4,4,8.2,4c3.1,0,5.4-1.6,7-4.7c1.6-3.1,2.5-7.7,2.5-13.8C254.2,270.8,250.9,264.8,244.4,264.8
			z"/>
		<path d="M329.7,322.3c-12.3,0-21.6-3.3-28-10c-6.4-6.6-9.5-16.2-9.5-28.6c0-12.5,3.4-22.2,10.3-29c6.9-6.9,16.6-10.3,29.3-10.3
			c8.7,0,16.9,1.9,24.6,5.7l-7.6,19.2c-3.1-1.4-6-2.5-8.7-3.3c-2.7-0.8-5.4-1.2-8.3-1.2c-4.2,0-7.5,1.6-9.8,4.9
			c-2.3,3.3-3.5,7.9-3.5,13.9c0,12,4.4,18.1,13.3,18.1c7.6,0,14.9-2.2,21.9-6.6v20.7C347.1,320.1,339.1,322.3,329.7,322.3z"/>
	</g>
</g>
<g>
	<path d="M176.5,304.1l-5.9-11.9h-0.6c-4.2,5.2-8.4,8.7-12.7,10.6c-4.3,1.9-9.9,2.8-16.8,2.8c-8.4,0-15.1-2.5-19.9-7.6
		c-4.9-5.1-7.3-12.2-7.3-21.4c0-9.6,3.3-16.7,10-21.3s16.3-7.3,28.9-7.9l15-0.5v-1.3c0-7.4-3.6-11.1-10.9-11.1
		c-6.5,0-14.9,2.2-24.9,6.6l-8.9-20.4c10.4-5.4,23.6-8.1,39.6-8.1c11.5,0,20.4,2.8,26.7,8.5c6.3,5.7,9.5,13.7,9.5,23.9v58.8H176.5z
		 M153.5,283.8c3.7,0,7-1.2,9.6-3.6c2.7-2.4,4-5.5,4-9.3v-7l-7.1,0.3c-10.2,0.4-15.3,4.1-15.3,11.2
		C144.7,281.1,147.7,283.8,153.5,283.8z"/>
	<path d="M273.8,212.8c9.8,0,17.5,4.1,23.2,12.3c5.7,8.2,8.6,19.5,8.6,34c0,14.6-2.9,26-8.7,34.2c-5.8,8.3-13.8,12.4-24.1,12.4
		c-3.3,0-6.3-0.4-8.9-1.1c-2.6-0.7-4.9-1.7-6.9-3c-2-1.3-4.4-3.4-7.1-6.3H248l-4.9,8.8H219V180.9h31v27.9c0,3.3-0.4,9.1-1.1,17.2
		h1.1c3-4.6,6.5-8,10.4-10.1C264.3,213.9,268.8,212.8,273.8,212.8z M262.5,237.1c-4.3,0-7.5,1.5-9.5,4.5c-2,3-3,7.7-3,14.2v4.4
		c0,7.3,1,12.6,3,15.8c2,3.2,5.3,4.8,9.8,4.8c3.6,0,6.4-1.9,8.4-5.6c2-3.7,2.9-9.2,2.9-16.4C274.1,244.3,270.2,237.1,262.5,237.1z"
		/>
	<path d="M364.1,305.7c-14.7,0-25.8-4-33.4-11.9c-7.6-7.9-11.4-19.3-11.4-34.1c0-14.9,4.1-26.4,12.3-34.6
		c8.2-8.2,19.8-12.3,34.9-12.3c10.4,0,20.2,2.3,29.4,6.8l-9.1,22.9c-3.7-1.6-7.2-2.9-10.4-3.9c-3.2-1-6.5-1.5-9.9-1.5
		c-5,0-8.9,2-11.6,5.9c-2.7,3.9-4.1,9.4-4.1,16.5c0,14.4,5.3,21.5,15.9,21.5c9.1,0,17.8-2.6,26.1-7.9v24.6
		C384.9,303,375.3,305.7,364.1,305.7z"/>
</g>
<g>
	<path d="M311.9,193.7l-2.5-4.9h-0.3c-1.7,2.2-3.5,3.6-5.3,4.4c-1.8,0.8-4.1,1.2-7,1.2c-3.5,0-6.3-1.1-8.3-3.2c-2-2.1-3-5.1-3-8.9
		c0-4,1.4-6.9,4.2-8.9c2.8-1.9,6.8-3,12-3.3l6.2-0.2v-0.5c0-3.1-1.5-4.6-4.6-4.6c-2.7,0-6.2,0.9-10.4,2.8l-3.7-8.5
		c4.4-2.2,9.8-3.4,16.5-3.4c4.8,0,8.5,1.2,11.1,3.6c2.6,2.4,3.9,5.7,3.9,10v24.5H311.9z M302.4,185.2c1.6,0,2.9-0.5,4-1.5
		c1.1-1,1.7-2.3,1.7-3.9V177l-3,0.1c-4.2,0.2-6.4,1.7-6.4,4.7C298.7,184.1,299.9,185.2,302.4,185.2z"/>
	<path d="M352.5,155.7c4.1,0,7.3,1.7,9.7,5.1c2.4,3.4,3.6,8.1,3.6,14.1c0,6.1-1.2,10.8-3.6,14.3c-2.4,3.4-5.8,5.2-10,5.2
		c-1.4,0-2.6-0.1-3.7-0.4c-1.1-0.3-2-0.7-2.9-1.2c-0.8-0.5-1.8-1.4-3-2.6h-0.8l-2,3.7h-10.1v-51.3h12.9V154c0,1.4-0.2,3.8-0.5,7.2
		h0.5c1.3-1.9,2.7-3.3,4.3-4.2C348.5,156.1,350.4,155.7,352.5,155.7z M347.8,165.8c-1.8,0-3.1,0.6-4,1.9s-1.3,3.2-1.3,5.9v1.8
		c0,3.1,0.4,5.2,1.3,6.6c0.8,1.3,2.2,2,4.1,2c1.5,0,2.7-0.8,3.5-2.3c0.8-1.5,1.2-3.8,1.2-6.8C352.6,168.8,351,165.8,347.8,165.8z"/>
	<path d="M390.1,194.3c-6.1,0-10.7-1.6-13.9-4.9c-3.2-3.3-4.7-8-4.7-14.2c0-6.2,1.7-11,5.1-14.4c3.4-3.4,8.3-5.1,14.5-5.1
		c4.3,0,8.4,0.9,12.2,2.8l-3.8,9.5c-1.6-0.7-3-1.2-4.3-1.6c-1.3-0.4-2.7-0.6-4.1-0.6c-2.1,0-3.7,0.8-4.8,2.4
		c-1.1,1.6-1.7,3.9-1.7,6.9c0,6,2.2,9,6.6,9c3.8,0,7.4-1.1,10.9-3.3V191C398.8,193.2,394.8,194.3,390.1,194.3z"/>
	<path d="M421.1,194.3c-2.7,0-5-0.8-7-2.3c-2-1.5-3.5-3.7-4.6-6.7c-1.1-2.9-1.6-6.4-1.6-10.3c0-6.1,1.2-10.8,3.7-14.2
		c2.4-3.4,5.8-5.1,10.1-5.1c2.1,0,3.9,0.4,5.5,1.3c1.6,0.8,3,2.2,4.3,4.2h0.3c-0.4-2.9-0.6-5.8-0.6-8.8v-10h13v51.3h-9.7l-2.8-4.7
		H431C428.8,192.5,425.5,194.3,421.1,194.3z M426.4,184.2c2.1,0,3.5-0.6,4.4-1.9c0.8-1.3,1.3-3.3,1.4-6v-1c0-3.3-0.5-5.6-1.4-7
		c-0.9-1.4-2.4-2.1-4.5-2.1c-1.7,0-3,0.8-3.9,2.4c-0.9,1.6-1.4,3.9-1.4,6.8c0,2.9,0.5,5.1,1.4,6.6
		C423.3,183.4,424.6,184.2,426.4,184.2z"/>
</g>
<g>
	<path d="M217,378.5l-2.5-5h-0.3c-1.8,2.2-3.5,3.7-5.4,4.5c-1.8,0.8-4.2,1.2-7.1,1.2c-3.6,0-6.4-1.1-8.4-3.2c-2-2.1-3.1-5.1-3.1-9
		c0-4,1.4-7,4.2-9c2.8-2,6.9-3.1,12.2-3.3l6.3-0.2v-0.5c0-3.1-1.5-4.7-4.6-4.7c-2.8,0-6.3,0.9-10.5,2.8l-3.8-8.6
		c4.4-2.3,10-3.4,16.7-3.4c4.9,0,8.6,1.2,11.3,3.6c2.7,2.4,4,5.8,4,10.1v24.8H217z M207.3,370c1.6,0,2.9-0.5,4.1-1.5
		c1.1-1,1.7-2.3,1.7-3.9v-2.9l-3,0.1c-4.3,0.2-6.4,1.7-6.4,4.7C203.6,368.8,204.9,370,207.3,370z"/>
	<path d="M258,340.1c4.1,0,7.4,1.7,9.8,5.2c2.4,3.4,3.6,8.2,3.6,14.3c0,6.1-1.2,11-3.7,14.4c-2.4,3.5-5.8,5.2-10.2,5.2
		c-1.4,0-2.6-0.2-3.7-0.5c-1.1-0.3-2.1-0.7-2.9-1.3c-0.9-0.5-1.9-1.4-3-2.7h-0.8l-2.1,3.7h-10.2v-51.9H248v11.7
		c0,1.4-0.2,3.8-0.5,7.2h0.5c1.3-2,2.7-3.4,4.4-4.2C254,340.5,255.9,340.1,258,340.1z M253.3,350.3c-1.8,0-3.2,0.6-4,1.9
		c-0.8,1.3-1.3,3.3-1.3,6v1.8c0,3.1,0.4,5.3,1.3,6.7c0.8,1.3,2.2,2,4.1,2c1.5,0,2.7-0.8,3.5-2.4c0.8-1.6,1.2-3.9,1.2-6.9
		C258.2,353.3,256.5,350.3,253.3,350.3z"/>
	<path d="M296.1,379.2c-6.2,0-10.9-1.7-14.1-5c-3.2-3.3-4.8-8.1-4.8-14.4c0-6.3,1.7-11.1,5.2-14.6c3.4-3.4,8.4-5.2,14.7-5.2
		c4.4,0,8.5,1,12.4,2.9l-3.8,9.6c-1.6-0.7-3-1.2-4.4-1.7c-1.3-0.4-2.7-0.6-4.2-0.6c-2.1,0-3.7,0.8-4.9,2.5c-1.2,1.6-1.7,4-1.7,7
		c0,6.1,2.2,9.1,6.7,9.1c3.8,0,7.5-1.1,11-3.3v10.4C304.9,378.1,300.8,379.2,296.1,379.2z"/>
	<path d="M327.5,379.2c-2.7,0-5-0.8-7.1-2.3c-2-1.5-3.6-3.8-4.7-6.8c-1.1-3-1.7-6.5-1.7-10.4c0-6.1,1.2-10.9,3.7-14.4
		c2.5-3.5,5.9-5.2,10.2-5.2c2.1,0,4,0.4,5.6,1.3c1.6,0.8,3,2.3,4.4,4.3h0.3c-0.4-3-0.6-5.9-0.6-8.9v-10.1h13.2v51.9h-9.8l-2.8-4.8
		h-0.5C335.3,377.4,331.9,379.2,327.5,379.2z M332.8,368.9c2.1,0,3.6-0.7,4.4-2c0.9-1.3,1.3-3.3,1.4-6.1v-1c0-3.3-0.5-5.7-1.4-7.1
		c-1-1.4-2.5-2.1-4.5-2.1c-1.7,0-3,0.8-4,2.4c-0.9,1.6-1.4,3.9-1.4,6.9c0,2.9,0.5,5.2,1.4,6.7C329.7,368.1,331.1,368.9,332.8,368.9z
		"/>
	<path d="M378,379.2c-6.3,0-11.2-1.7-14.7-5c-3.5-3.3-5.2-8.1-5.2-14.3c0-6.4,1.6-11.3,4.8-14.7c3.2-3.4,7.8-5.1,13.8-5.1
		c5.7,0,10.1,1.5,13.2,4.5c3.1,3,4.7,7.2,4.7,12.8v5.8h-23.3c0.1,2.1,0.9,3.8,2.3,5c1.5,1.2,3.4,1.8,6,1.8c2.3,0,4.4-0.2,6.3-0.7
		c1.9-0.4,4-1.2,6.3-2.2v9.4c-2,1-4.2,1.8-6.3,2.2S381,379.2,378,379.2z M377.2,348.9c-1.5,0-2.8,0.5-3.9,1.5c-1,1-1.6,2.5-1.8,4.6
		h11.2c0-1.8-0.6-3.3-1.6-4.4C380.2,349.5,378.9,348.9,377.2,348.9z"/>
	<path d="M425.1,350.5h-8v28H404v-28h-5v-6.4l5.3-3.2v-0.6c0-5,1-8.6,3.1-10.7s5.3-3.3,9.8-3.3c1.7,0,3.4,0.1,4.9,0.4
		c1.5,0.3,3.3,0.7,5.4,1.4l-2.8,8.4c-1.6-0.4-3.2-0.7-4.7-0.7c-1,0-1.7,0.3-2.2,0.9c-0.5,0.6-0.7,1.6-0.7,3v1h8V350.5z"/>
</g>
<g>
	<path d="M75.5,193.7l-1.8-3.6h-0.2c-1.3,1.6-2.5,2.6-3.8,3.2c-1.3,0.6-3,0.9-5,0.9c-2.5,0-4.5-0.8-6-2.3c-1.5-1.5-2.2-3.7-2.2-6.4
		c0-2.9,1-5,3-6.4c2-1.4,4.9-2.2,8.7-2.4l4.5-0.1v-0.4c0-2.2-1.1-3.3-3.3-3.3c-2,0-4.5,0.7-7.5,2l-2.7-6.1c3.1-1.6,7.1-2.4,11.9-2.4
		c3.5,0,6.1,0.9,8,2.6c1.9,1.7,2.8,4.1,2.8,7.2v17.7H75.5z M68.6,187.6c1.1,0,2.1-0.4,2.9-1.1c0.8-0.7,1.2-1.6,1.2-2.8v-2.1
		l-2.1,0.1c-3.1,0.1-4.6,1.2-4.6,3.4C65.9,186.8,66.8,187.6,68.6,187.6z"/>
	<path d="M104.7,166.2c2.9,0,5.3,1.2,7,3.7c1.7,2.5,2.6,5.9,2.6,10.2c0,4.4-0.9,7.8-2.6,10.3c-1.7,2.5-4.2,3.7-7.2,3.7
		c-1,0-1.9-0.1-2.7-0.3c-0.8-0.2-1.5-0.5-2.1-0.9c-0.6-0.4-1.3-1-2.1-1.9H97l-1.5,2.6h-7.3v-37h9.3v8.4c0,1-0.1,2.7-0.3,5.2h0.3
		c0.9-1.4,1.9-2.4,3.1-3C101.9,166.6,103.2,166.2,104.7,166.2z M101.3,173.5c-1.3,0-2.3,0.5-2.9,1.4c-0.6,0.9-0.9,2.3-0.9,4.3v1.3
		c0,2.2,0.3,3.8,0.9,4.7c0.6,1,1.6,1.4,3,1.4c1.1,0,1.9-0.6,2.5-1.7c0.6-1.1,0.9-2.8,0.9-4.9C104.8,175.7,103.7,173.5,101.3,173.5z"
		/>
	<path d="M131.9,194.2c-4.4,0-7.8-1.2-10-3.6c-2.3-2.4-3.4-5.8-3.4-10.3c0-4.5,1.2-7.9,3.7-10.4c2.5-2.5,6-3.7,10.5-3.7
		c3.1,0,6.1,0.7,8.8,2l-2.7,6.9c-1.1-0.5-2.2-0.9-3.1-1.2c-1-0.3-1.9-0.4-3-0.4c-1.5,0-2.7,0.6-3.5,1.8c-0.8,1.2-1.2,2.8-1.2,5
		c0,4.3,1.6,6.5,4.8,6.5c2.7,0,5.3-0.8,7.9-2.4v7.4C138.1,193.4,135.2,194.2,131.9,194.2z"/>
	<path d="M154.2,194.2c-1.9,0-3.6-0.5-5-1.6c-1.4-1.1-2.5-2.7-3.3-4.8c-0.8-2.1-1.2-4.6-1.2-7.4c0-4.4,0.9-7.8,2.6-10.3
		c1.8-2.5,4.2-3.7,7.3-3.7c1.5,0,2.8,0.3,4,0.9s2.2,1.6,3.1,3h0.2c-0.3-2.1-0.5-4.2-0.5-6.3v-7.2h9.4v37h-7l-2-3.4h-0.4
		C159.8,192.9,157.4,194.2,154.2,194.2z M158.1,186.8c1.5,0,2.5-0.5,3.2-1.4c0.6-0.9,0.9-2.4,1-4.3v-0.7c0-2.4-0.3-4.1-1-5.1
		c-0.7-1-1.8-1.5-3.2-1.5c-1.2,0-2.2,0.6-2.8,1.7c-0.7,1.2-1,2.8-1,4.9c0,2.1,0.3,3.7,1,4.8C155.8,186.3,156.8,186.8,158.1,186.8z"
		/>
	<path d="M190.2,194.2c-4.5,0-8-1.2-10.5-3.6c-2.5-2.4-3.7-5.8-3.7-10.2c0-4.6,1.2-8,3.5-10.5c2.3-2.4,5.6-3.7,9.9-3.7
		c4.1,0,7.2,1.1,9.4,3.2c2.2,2.1,3.3,5.2,3.3,9.2v4.1h-16.6c0.1,1.5,0.6,2.7,1.7,3.5c1,0.9,2.5,1.3,4.2,1.3c1.6,0,3.1-0.2,4.5-0.5
		c1.4-0.3,2.9-0.8,4.5-1.6v6.7c-1.5,0.7-3,1.3-4.5,1.5C194.2,194,192.4,194.2,190.2,194.2z M189.7,172.6c-1.1,0-2,0.3-2.7,1
		c-0.7,0.7-1.2,1.8-1.3,3.2h8c0-1.3-0.4-2.3-1.1-3.1C191.8,173,190.9,172.6,189.7,172.6z"/>
</g>
<g>
	<path d="M101.2,370.2l-2.5-5h-0.3c-1.7,2.2-3.5,3.6-5.3,4.4c-1.8,0.8-4.1,1.2-7,1.2c-3.5,0-6.3-1.1-8.3-3.2c-2-2.1-3-5.1-3-8.9
		c0-4,1.4-6.9,4.2-8.9c2.8-1.9,6.8-3,12-3.3l6.2-0.2v-0.5c0-3.1-1.5-4.6-4.6-4.6c-2.7,0-6.2,0.9-10.4,2.8l-3.7-8.5
		c4.4-2.2,9.9-3.4,16.5-3.4c4.8,0,8.5,1.2,11.1,3.6c2.6,2.4,3.9,5.7,3.9,10v24.5H101.2z M91.6,361.8c1.6,0,2.9-0.5,4-1.5
		s1.7-2.3,1.7-3.9v-2.9l-3,0.1c-4.2,0.2-6.4,1.7-6.4,4.7C87.9,360.6,89.2,361.8,91.6,361.8z"/>
	<path d="M141.8,332.2c4.1,0,7.3,1.7,9.7,5.1c2.4,3.4,3.6,8.1,3.6,14.2c0,6.1-1.2,10.8-3.6,14.3c-2.4,3.4-5.8,5.2-10.1,5.2
		c-1.4,0-2.6-0.1-3.7-0.4c-1.1-0.3-2-0.7-2.9-1.2c-0.8-0.5-1.8-1.4-3-2.6H131l-2,3.7h-10.1v-51.4h12.9v11.6c0,1.4-0.2,3.8-0.5,7.2
		h0.5c1.3-1.9,2.7-3.3,4.3-4.2C137.8,332.6,139.7,332.2,141.8,332.2z M137,342.3c-1.8,0-3.1,0.6-4,1.9c-0.8,1.3-1.3,3.2-1.3,5.9v1.8
		c0,3.1,0.4,5.3,1.3,6.6c0.8,1.3,2.2,2,4.1,2c1.5,0,2.7-0.8,3.5-2.3c0.8-1.6,1.2-3.8,1.2-6.8C141.9,345.3,140.3,342.3,137,342.3z"/>
</g>
<g>
	<path d="M206.3,120.1c2.4,0,4.3,1,5.7,3c1.4,2,2.1,4.8,2.1,8.3c0,3.6-0.7,6.3-2.1,8.4c-1.4,2-3.4,3-5.9,3c-0.8,0-1.5-0.1-2.2-0.3
		c-0.6-0.2-1.2-0.4-1.7-0.7c-0.5-0.3-1.1-0.8-1.7-1.5H200l-1.2,2.1h-5.9v-30.1h7.6v6.8c0,0.8-0.1,2.2-0.3,4.2h0.3
		c0.7-1.1,1.6-2,2.5-2.5C204,120.3,205.1,120.1,206.3,120.1z M203.5,126c-1.1,0-1.8,0.4-2.3,1.1c-0.5,0.7-0.7,1.9-0.7,3.5v1.1
		c0,1.8,0.2,3.1,0.7,3.9c0.5,0.8,1.3,1.2,2.4,1.2c0.9,0,1.6-0.5,2-1.4c0.5-0.9,0.7-2.2,0.7-4C206.4,127.8,205.4,126,203.5,126z"/>
	<path d="M228.4,142.8c-3.6,0-6.3-1-8.1-2.9c-1.9-1.9-2.8-4.7-2.8-8.3c0-3.6,1-6.5,3-8.4c2-2,4.8-3,8.5-3c2.5,0,4.9,0.6,7.2,1.7
		l-2.2,5.6c-0.9-0.4-1.8-0.7-2.5-1c-0.8-0.2-1.6-0.4-2.4-0.4c-1.2,0-2.2,0.5-2.8,1.4c-0.7,1-1,2.3-1,4c0,3.5,1.3,5.3,3.9,5.3
		c2.2,0,4.3-0.6,6.4-1.9v6C233.4,142.1,231.1,142.8,228.4,142.8z"/>
	<path d="M246.5,142.8c-1.6,0-2.9-0.4-4.1-1.3c-1.2-0.9-2.1-2.2-2.7-3.9c-0.6-1.7-1-3.7-1-6.1c0-3.6,0.7-6.3,2.1-8.4s3.4-3,5.9-3
		c1.2,0,2.3,0.2,3.2,0.7c0.9,0.5,1.8,1.3,2.5,2.5h0.2c-0.2-1.7-0.4-3.4-0.4-5.1v-5.9h7.6v30.1h-5.7l-1.6-2.8h-0.3
		C251.1,141.7,249.1,142.8,246.5,142.8z M249.6,136.8c1.2,0,2.1-0.4,2.6-1.1c0.5-0.8,0.8-1.9,0.8-3.5v-0.6c0-1.9-0.3-3.3-0.8-4.1
		c-0.6-0.8-1.4-1.2-2.6-1.2c-1,0-1.8,0.5-2.3,1.4c-0.5,0.9-0.8,2.3-0.8,4c0,1.7,0.3,3,0.8,3.9C247.8,136.3,248.6,136.8,249.6,136.8z
		"/>
	<path d="M275.8,142.8c-3.6,0-6.5-1-8.5-2.9c-2-1.9-3-4.7-3-8.3c0-3.7,0.9-6.5,2.8-8.5c1.9-2,4.5-3,8-3c3.3,0,5.8,0.9,7.6,2.6
		c1.8,1.7,2.7,4.2,2.7,7.4v3.4h-13.5c0.1,1.2,0.5,2.2,1.3,2.9c0.8,0.7,2,1,3.5,1c1.3,0,2.5-0.1,3.7-0.4c1.1-0.3,2.3-0.7,3.6-1.3v5.4
		c-1.2,0.6-2.4,1-3.7,1.3C279,142.6,277.5,142.8,275.8,142.8z M275.3,125.2c-0.9,0-1.6,0.3-2.2,0.8c-0.6,0.6-1,1.4-1.1,2.6h6.5
		c0-1.1-0.3-1.9-0.9-2.5C277.1,125.5,276.3,125.2,275.3,125.2z"/>
</g>
<g>
	<path d="M16.7,256c3,0,5.3,1.2,7.1,3.7c1.7,2.5,2.6,6,2.6,10.4c0,4.4-0.9,7.9-2.6,10.5c-1.8,2.5-4.2,3.8-7.4,3.8
		c-1,0-1.9-0.1-2.7-0.3c-0.8-0.2-1.5-0.5-2.1-0.9c-0.6-0.4-1.3-1-2.2-1.9H8.9l-1.5,2.7H0v-37.6h9.4v8.5c0,1-0.1,2.8-0.3,5.2h0.3
		c0.9-1.4,2-2.4,3.2-3.1C13.8,256.3,15.2,256,16.7,256z M13.3,263.4c-1.3,0-2.3,0.5-2.9,1.4c-0.6,0.9-0.9,2.4-0.9,4.3v1.3
		c0,2.2,0.3,3.8,0.9,4.8c0.6,1,1.6,1.5,3,1.5c1.1,0,2-0.6,2.6-1.7c0.6-1.1,0.9-2.8,0.9-5C16.8,265.6,15.6,263.4,13.3,263.4z"/>
	<path d="M44.3,284.3c-4.5,0-7.9-1.2-10.2-3.6c-2.3-2.4-3.5-5.9-3.5-10.4c0-4.5,1.2-8.1,3.7-10.6c2.5-2.5,6-3.7,10.7-3.7
		c3.2,0,6.2,0.7,9,2.1l-2.8,7c-1.1-0.5-2.2-0.9-3.2-1.2s-2-0.4-3-0.4c-1.5,0-2.7,0.6-3.6,1.8c-0.8,1.2-1.3,2.9-1.3,5.1
		c0,4.4,1.6,6.6,4.9,6.6c2.8,0,5.4-0.8,8-2.4v7.5C50.6,283.5,47.7,284.3,44.3,284.3z"/>
	<path d="M67,284.3c-1.9,0-3.7-0.6-5.1-1.7c-1.5-1.1-2.6-2.7-3.4-4.9c-0.8-2.2-1.2-4.7-1.2-7.6c0-4.4,0.9-7.9,2.7-10.4
		c1.8-2.5,4.2-3.8,7.4-3.8c1.5,0,2.9,0.3,4,0.9c1.2,0.6,2.2,1.6,3.2,3.1h0.2c-0.3-2.1-0.5-4.3-0.5-6.4v-7.3h9.5v37.6h-7.1l-2-3.5
		h-0.4C72.7,283,70.2,284.3,67,284.3z M70.9,276.8c1.5,0,2.6-0.5,3.2-1.4c0.6-1,1-2.4,1-4.4v-0.7c0-2.4-0.3-4.1-1-5.2
		c-0.7-1-1.8-1.5-3.3-1.5c-1.2,0-2.2,0.6-2.9,1.8c-0.7,1.2-1,2.8-1,5c0,2.1,0.3,3.7,1,4.9C68.6,276.3,69.6,276.8,70.9,276.8z"/>
</g>
<g>
	<path d="M445,258.8c4.4,0,7.9,1.8,10.5,5.5c2.6,3.7,3.9,8.8,3.9,15.3c0,6.6-1.3,11.7-3.9,15.4c-2.6,3.7-6.2,5.6-10.8,5.6
		c-1.5,0-2.8-0.2-4-0.5c-1.2-0.3-2.2-0.8-3.1-1.3c-0.9-0.6-2-1.5-3.2-2.8h-0.9l-2.2,4h-10.9v-55.4h13.9V257c0,1.5-0.2,4.1-0.5,7.7
		h0.5c1.4-2.1,2.9-3.6,4.7-4.5C440.8,259.3,442.8,258.8,445,258.8z M440,269.8c-1.9,0-3.4,0.7-4.3,2c-0.9,1.4-1.4,3.5-1.4,6.4v2
		c0,3.3,0.5,5.7,1.4,7.1c0.9,1.4,2.4,2.2,4.4,2.2c1.6,0,2.9-0.8,3.8-2.5c0.9-1.7,1.3-4.1,1.3-7.4C445.2,273,443.4,269.8,440,269.8z"
		/>
	<path d="M485.7,300.6c-6.6,0-11.6-1.8-15-5.3c-3.4-3.6-5.1-8.7-5.1-15.3c0-6.7,1.8-11.9,5.5-15.6c3.7-3.7,8.9-5.5,15.7-5.5
		c4.7,0,9.1,1,13.2,3.1l-4.1,10.3c-1.7-0.7-3.2-1.3-4.7-1.8c-1.4-0.4-2.9-0.7-4.5-0.7c-2.3,0-4,0.9-5.2,2.6
		c-1.2,1.8-1.9,4.2-1.9,7.4c0,6.5,2.4,9.7,7.2,9.7c4.1,0,8-1.2,11.8-3.6V297C495,299.4,490.7,300.6,485.7,300.6z"/>
</g>
</svg>
