<?xml version="1.0" encoding="UTF-8"?>
<svg width="500px" height="500px" viewBox="0 0 500 500" version="1.1" xmlns="http://www.w3.org/2000/svg" xmlns:xlink="http://www.w3.org/1999/xlink">
    <!-- Generator: Sketch 52.6 (67491) - http://www.bohemiancoding.com/sketch -->
    <title>scatter copy</title>
    <desc>Created with Sketch.</desc>
    <g id="scatter-copy" stroke="none" stroke-width="1" fill="none" fill-rule="evenodd">
        <path d="M453.466816,409.128946 L467.40188,409.128946 C477.671424,409.128946 486,418.948086 486,431.064473 C486,443.18086 477.671424,453 467.40188,453 L32.5981201,453 C22.3251949,453 14,443.18086 14,431.064473 L14,68.935527 C14,56.8191395 22.3251949,47 32.5981201,47 C42.8710454,47 51.1962403,56.8191395 51.1962403,68.935527 L51.1962403,298.673597 L118.004069,240.851548 L239.284101,295.694354 L340.525504,187.005812 L449.547685,159.622297 C459.566999,157.101706 469.467962,164.655504 471.608436,176.508665 C473.748911,188.357838 467.337632,200.007597 457.294647,202.532176 L358.122707,227.442958 L247.369211,346.337503 L123.644372,290.385956 L51.1962403,353.089657 L51.1962403,409.128946 L71.1300436,409.128946 L71.1300436,365.513142 L126.718134,317.402549 L138.22868,322.611239 L138.22868,409.128946 L176.209422,409.128946 L176.209422,339.784763 L243.308058,370.131567 L243.308058,409.128946 L281.292182,409.128946 L281.292182,342.277436 L348.387437,270.249142 L348.387437,409.128946 L386.36818,409.128946 L386.36818,244.811908 L453.466816,227.957446 L453.466816,409.128946 Z" id="path-1-path" fill="#000000" fill-rule="nonzero"></path>
        <polygon id="path-1-path" fill="#000000" fill-rule="nonzero" points="137 224.605162 113.735877 214.057631 70 252 70 151 137 151"></polygon>
        <polygon id="path-1-path" fill="#000000" fill-rule="nonzero" points="242 259.940405 233.575194 269 175 242.463486 175 122 242 122"></polygon>
        <polygon id="path-1-path" fill="#000000" fill-rule="nonzero" points="347 162.415514 329.566223 166.795774 280 220 280 70 347 70"></polygon>
        <path d="M452,135.231224 C449.315678,135.231224 446.594215,135.545565 443.862622,136.229953 L385,151 L385,79 L452,79 L452,135.231224 Z" id="path-1-path" fill="#000000" fill-rule="nonzero"></path>
    </g>
</svg>