<?xml version="1.0" encoding="utf-8"?>
<!-- Generator: Adobe Illustrator 26.0.0, SVG Export Plug-In . SVG Version: 6.00 Build 0)  -->
<svg version="1.1" id="Ebene_1" xmlns="http://www.w3.org/2000/svg" xmlns:xlink="http://www.w3.org/1999/xlink" x="0px" y="0px"
	 viewBox="0 0 500 500" style="enable-background:new 0 0 500 500;" xml:space="preserve">
<style type="text/css">
	.st0{display:none;fill:none;stroke:#000000;stroke-width:30;stroke-linecap:round;stroke-linejoin:round;stroke-miterlimit:10;}
	.st1{display:none;}
	.st2{display:inline;stroke:#000000;stroke-width:15;stroke-linecap:round;stroke-linejoin:round;stroke-miterlimit:10;}
</style>
<desc>Created with Sketch.</desc>
<polyline class="st0" points="15,65 15,435 485,435 "/>
<g class="st1">
	<circle class="st2" cx="93" cy="300" r="25"/>
	<circle class="st2" cx="171" cy="200" r="25"/>
	<circle class="st2" cx="250" cy="325" r="25"/>
	<circle class="st2" cx="329" cy="125" r="25"/>
	<circle class="st2" cx="407" cy="225" r="25"/>
</g>
<g class="st1">
	<circle class="st2" cx="93" cy="300" r="25"/>
	<circle class="st2" cx="171" cy="200" r="50"/>
	<circle class="st2" cx="250" cy="325" r="37.5"/>
	<circle class="st2" cx="329" cy="125" r="18.8"/>
	<circle class="st2" cx="407" cy="225" r="43.8"/>
</g>
<polyline class="st0" points="93,300 171,200 250,325 329,125 407,225 "/>
<g class="st1">
	<rect x="68" y="300" class="st2" width="50" height="135"/>
	<rect x="146" y="200" class="st2" width="50" height="235"/>
	<rect x="225" y="325" class="st2" width="50" height="110"/>
	<rect x="304" y="125" class="st2" width="50" height="310"/>
	<rect x="382" y="225" class="st2" width="50" height="210"/>
</g>
<g>
	<path d="M251.6,250l158.4,110.9c3.8,2.7,4.6,7.8,1.8,11.5c-38,49.7-97.3,79.2-160.2,79.2C141,451.6,50,360.6,50,250
		c0-107.8,86.4-197,193.2-201.5c4.6-0.2,8.4,3.5,8.4,8.1V250z"/>
	<g>
		<path d="M278.9,64c17.2,1.5,34,5.6,50.1,12.3C345,83,359.8,91.9,373,103l-94.1,94.1V64 M270.8,48.5c-3.8,0-7,3.2-7,7v177.8
			l125.8-125.8c2.8-2.8,2.8-7.4-0.1-10.1c-16-14.8-34.6-26.7-54.8-35.1c-20.2-8.4-41.7-13.1-63.6-13.9
			C271,48.5,270.9,48.5,270.8,48.5L270.8,48.5z"/>
	</g>
	<g>
		<g>
			<path d="M401.1,136.3c25.6,30.6,39.7,69,39.7,109.1c0,29.9-7.8,59-22.7,84.8L294,243.4L401.1,136.3 M401.5,117.6
				c-1.8,0-3.6,0.7-5,2.1L270.8,245.4l145.7,102c1.2,0.9,2.6,1.3,4,1.3c2.3,0,4.6-1.2,6-3.3c19.1-29.8,29.3-64.5,29.3-100
				c0-46.6-17.6-91.5-49.2-125.6C405.2,118.3,403.4,117.6,401.5,117.6L401.5,117.6z"/>
		</g>
		<g>
			<path d="M419.3,135.1l-126,126l12.5,8.7l122.1-122.1C425.2,143.4,422.3,139.2,419.3,135.1z"/>
			<path d="M434.7,159.7L316.8,277.6l12.5,8.7l112.2-112.2C439.4,169.2,437.2,164.4,434.7,159.7z"/>
			<path d="M446.6,187.8L340.3,294.1l12.5,8.7l98.4-98.4C449.9,198.8,448.3,193.3,446.6,187.8z"/>
			<path d="M454,220.3l-90.2,90.2l12.5,8.7l79.4-79.4C455.5,233.4,454.9,226.8,454,220.3z"/>
			<path d="M455.2,259.1L387.4,327l12.5,8.7l51.9-51.9C453.4,275.8,454.6,267.5,455.2,259.1z"/>
		</g>
	</g>
</g>
</svg>
