<?xml version="1.0" encoding="utf-8"?>
<!-- Generator: Adobe Illustrator 26.0.0, SVG Export Plug-In . SVG Version: 6.00 Build 0)  -->
<svg version="1.1" id="Ebene_1" xmlns="http://www.w3.org/2000/svg" xmlns:xlink="http://www.w3.org/1999/xlink" x="0px" y="0px"
	 viewBox="0 0 500 500" style="enable-background:new 0 0 500 500;" xml:space="preserve">
<style type="text/css">
	.st0{display:none;fill:none;stroke:#000000;stroke-width:30;stroke-linecap:round;stroke-linejoin:round;stroke-miterlimit:10;}
	.st1{display:none;}
	.st2{display:inline;stroke:#000000;stroke-width:15;stroke-linecap:round;stroke-linejoin:round;stroke-miterlimit:10;}
	.st3{display:inline;}
	.st4{display:inline;stroke:#000000;stroke-width:15;stroke-miterlimit:10;}
	.st5{display:inline;fill:none;stroke:#000000;stroke-width:30;stroke-miterlimit:10;}
</style>
<desc>Created with Sketch.</desc>
<polyline class="st0" points="15,65 15,435 485,435 "/>
<g class="st1">
	<circle class="st2" cx="93" cy="300" r="25"/>
	<circle class="st2" cx="171" cy="200" r="25"/>
	<circle class="st2" cx="250" cy="325" r="25"/>
	<circle class="st2" cx="329" cy="125" r="25"/>
	<circle class="st2" cx="407" cy="225" r="25"/>
</g>
<g class="st1">
	<circle class="st2" cx="93" cy="300" r="25"/>
	<circle class="st2" cx="171" cy="200" r="50"/>
	<circle class="st2" cx="250" cy="325" r="37.5"/>
	<circle class="st2" cx="329" cy="125" r="18.8"/>
	<circle class="st2" cx="407" cy="225" r="43.8"/>
</g>
<polyline class="st0" points="93,300 171,200 250,325 329,125 407,225 "/>
<g class="st1">
	<rect x="68" y="300" class="st2" width="50" height="135"/>
	<rect x="146" y="200" class="st2" width="50" height="235"/>
	<rect x="225" y="325" class="st2" width="50" height="110"/>
	<rect x="304" y="125" class="st2" width="50" height="310"/>
	<rect x="382" y="225" class="st2" width="50" height="210"/>
</g>
<g class="st1">
	<path class="st3" d="M251.6,250l158.4,110.9c3.8,2.7,4.6,7.8,1.8,11.5c-38,49.7-97.3,79.2-160.2,79.2C141,451.6,50,360.6,50,250
		c0-107.8,86.4-197,193.2-201.5c4.6-0.2,8.4,3.5,8.4,8.1V250z"/>
	<g class="st3">
		<path d="M278.9,64c17.2,1.5,34,5.6,50.1,12.3C345,83,359.8,91.9,373,103l-94.1,94.1V64 M270.8,48.5c-3.8,0-7,3.2-7,7v177.8
			l125.8-125.8c2.8-2.8,2.8-7.4-0.1-10.1c-16-14.8-34.6-26.7-54.8-35.1c-20.2-8.4-41.7-13.1-63.6-13.9
			C271,48.5,270.9,48.5,270.8,48.5L270.8,48.5z"/>
	</g>
	<g class="st3">
		<g>
			<path d="M401.1,136.3c25.6,30.6,39.7,69,39.7,109.1c0,29.9-7.8,59-22.7,84.8L294,243.4L401.1,136.3 M401.5,117.6
				c-1.8,0-3.6,0.7-5,2.1L270.8,245.4l145.7,102c1.2,0.9,2.6,1.3,4,1.3c2.3,0,4.6-1.2,6-3.3c19.1-29.8,29.3-64.5,29.3-100
				c0-46.6-17.6-91.5-49.2-125.6C405.2,118.3,403.4,117.6,401.5,117.6L401.5,117.6z"/>
		</g>
		<g>
			<path d="M419.3,135.1l-126,126l12.5,8.7l122.1-122.1C425.2,143.4,422.3,139.2,419.3,135.1z"/>
			<path d="M434.7,159.7L316.8,277.6l12.5,8.7l112.2-112.2C439.4,169.2,437.2,164.4,434.7,159.7z"/>
			<path d="M446.6,187.8L340.3,294.1l12.5,8.7l98.4-98.4C449.9,198.8,448.3,193.3,446.6,187.8z"/>
			<path d="M454,220.3l-90.2,90.2l12.5,8.7l79.4-79.4C455.5,233.4,454.9,226.8,454,220.3z"/>
			<path d="M455.2,259.1L387.4,327l12.5,8.7l51.9-51.9C453.4,275.8,454.6,267.5,455.2,259.1z"/>
		</g>
	</g>
</g>
<g class="st1">
	<g>
		<circle class="st4" cx="90" cy="360" r="75"/>
		<circle class="st4" cx="410" cy="360" r="75"/>
		<circle class="st4" cx="215" cy="276" r="150"/>
		<circle class="st4" cx="365" cy="250" r="62.5"/>
		<rect x="90" y="335" class="st4" width="320" height="100"/>
	</g>
	<path class="st5" d="M416.6,254.8c6.9-10,10.9-22.2,10.9-35.3c0-34.5-28-62.5-62.5-62.5c-9,0-17.5,1.9-25.2,5.3
		C312.9,122,267.1,95.5,215,95.5c-82.8,0-150,67.2-150,150c0,4.4,0.2,8.8,0.6,13.1c-29.4,10.1-50.6,38-50.6,70.9
		c0,41.4,33.6,75,75,75h320c41.4,0,75-33.6,75-75C485,290.3,454.9,258.1,416.6,254.8z"/>
	<g class="st3">
		<path d="M172.3,320.9l-5-10h-0.5c-3.5,4.3-7.1,7.3-10.7,8.9c-3.6,1.6-8.3,2.4-14.1,2.4c-7.1,0-12.7-2.1-16.7-6.4
			c-4.1-4.2-6.1-10.2-6.1-17.9c0-8,2.8-14,8.4-17.9s13.7-6.1,24.2-6.6l12.6-0.4V272c0-6.2-3.1-9.3-9.2-9.3c-5.5,0-12.5,1.9-20.9,5.6
			l-7.5-17.1c8.8-4.5,19.8-6.8,33.2-6.8c9.7,0,17.1,2.4,22.4,7.2c5.3,4.8,7.9,11.5,7.9,20.1v49.3H172.3z M153.1,303.9
			c3.1,0,5.8-1,8.1-3c2.2-2,3.4-4.6,3.4-7.8v-5.8l-6,0.3c-8.5,0.3-12.8,3.5-12.8,9.4C145.7,301.6,148.1,303.9,153.1,303.9z"/>
		<path d="M253.9,244.4c8.2,0,14.7,3.4,19.5,10.3c4.8,6.9,7.2,16.4,7.2,28.5c0,12.2-2.4,21.8-7.3,28.7c-4.8,6.9-11.6,10.4-20.2,10.4
			c-2.8,0-5.3-0.3-7.4-0.9s-4.1-1.4-5.8-2.5s-3.7-2.8-5.9-5.3h-1.6l-4.1,7.4H208V217.6h26V241c0,2.8-0.3,7.6-0.9,14.4h0.9
			c2.5-3.9,5.4-6.7,8.7-8.4S249.7,244.4,253.9,244.4z M244.4,264.8c-3.6,0-6.3,1.3-8,3.8s-2.5,6.5-2.5,11.9v3.7
			c0,6.2,0.8,10.6,2.5,13.2c1.7,2.7,4.4,4,8.2,4c3.1,0,5.4-1.6,7-4.7c1.6-3.1,2.5-7.7,2.5-13.8C254.2,270.8,250.9,264.8,244.4,264.8
			z"/>
		<path d="M329.7,322.3c-12.3,0-21.6-3.3-28-10c-6.4-6.6-9.5-16.2-9.5-28.6c0-12.5,3.4-22.2,10.3-29c6.9-6.9,16.6-10.3,29.3-10.3
			c8.7,0,16.9,1.9,24.6,5.7l-7.6,19.2c-3.1-1.4-6-2.5-8.7-3.3c-2.7-0.8-5.4-1.2-8.3-1.2c-4.2,0-7.5,1.6-9.8,4.9
			c-2.3,3.3-3.5,7.9-3.5,13.9c0,12,4.4,18.1,13.3,18.1c7.6,0,14.9-2.2,21.9-6.6v20.7C347.1,320.1,339.1,322.3,329.7,322.3z"/>
	</g>
</g>
<g>
	<path d="M149.6,308.3l-7.4-14.7h-0.8c-5.2,6.4-10.4,10.8-15.8,13.2c-5.4,2.4-12.3,3.5-20.8,3.5c-10.5,0-18.7-3.1-24.8-9.4
		c-6-6.3-9-15.1-9-26.5c0-11.9,4.1-20.7,12.4-26.5c8.3-5.8,20.2-9.1,35.9-9.8l18.6-0.6v-1.6c0-9.2-4.5-13.8-13.6-13.8
		c-8.1,0-18.4,2.8-30.9,8.3l-11.1-25.3c13-6.7,29.3-10,49.1-10c14.3,0,25.3,3.5,33.2,10.6c7.8,7.1,11.7,17,11.7,29.7v73H149.6z
		 M121.1,283.2c4.6,0,8.6-1.5,11.9-4.4c3.3-2.9,5-6.8,5-11.5v-8.6l-8.8,0.4c-12.6,0.5-19,5.1-19,14
		C110.2,279.8,113.9,283.2,121.1,283.2z"/>
	<path d="M270.4,195c12.1,0,21.7,5.1,28.8,15.2c7.1,10.2,10.7,24.2,10.7,42.1c0,18.1-3.6,32.2-10.8,42.5
		c-7.2,10.3-17.1,15.4-29.9,15.4c-4.1,0-7.8-0.4-11-1.3c-3.2-0.9-6.1-2.1-8.6-3.7c-2.5-1.6-5.5-4.2-8.8-7.9h-2.4l-6.1,10.9h-30
		V155.4h38.4V190c0,4.1-0.5,11.2-1.4,21.3h1.4c3.7-5.8,8-9.9,12.9-12.5C258.6,196.3,264.2,195,270.4,195z M256.3,225.2
		c-5.4,0-9.3,1.9-11.8,5.6c-2.5,3.7-3.7,9.6-3.7,17.6v5.4c0,9.1,1.2,15.6,3.7,19.6c2.5,4,6.5,5.9,12.2,5.9c4.5,0,8-2.3,10.4-6.9
		c2.4-4.6,3.6-11.4,3.6-20.4C270.8,234.1,266,225.2,256.3,225.2z"/>
	<path d="M382.5,310.3c-18.2,0-32-4.9-41.4-14.7c-9.4-9.8-14.1-23.9-14.1-42.3c0-18.5,5.1-32.8,15.2-42.9
		c10.2-10.2,24.6-15.2,43.3-15.2c12.9,0,25.1,2.8,36.4,8.4l-11.3,28.4c-4.7-2-8.9-3.7-12.9-4.9c-3.9-1.2-8-1.8-12.3-1.8
		c-6.2,0-11,2.4-14.4,7.3c-3.4,4.8-5.1,11.7-5.1,20.5c0,17.8,6.6,26.7,19.7,26.7c11.3,0,22.1-3.3,32.4-9.8v30.6
		C408.2,307,396.4,310.3,382.5,310.3z"/>
</g>
<g>
	<path d="M317.8,171.3l-3.1-6.1h-0.3c-2.2,2.7-4.4,4.5-6.6,5.5c-2.2,1-5.1,1.5-8.7,1.5c-4.4,0-7.8-1.3-10.3-3.9
		c-2.5-2.6-3.8-6.3-3.8-11.1c0-4.9,1.7-8.6,5.2-11s8.4-3.8,14.9-4.1l7.7-0.2v-0.7c0-3.8-1.9-5.7-5.6-5.7c-3.4,0-7.7,1.1-12.9,3.4
		l-4.6-10.6c5.4-2.8,12.2-4.2,20.5-4.2c5.9,0,10.6,1.5,13.8,4.4c3.3,2.9,4.9,7.1,4.9,12.4v30.4H317.8z M305.9,160.8
		c1.9,0,3.6-0.6,5-1.8c1.4-1.2,2.1-2.8,2.1-4.8v-3.6l-3.7,0.2c-5.3,0.2-7.9,2.1-7.9,5.8C301.3,159.4,302.9,160.8,305.9,160.8z"/>
	<path d="M368.1,124.1c5,0,9.1,2.1,12,6.3c3,4.2,4.4,10.1,4.4,17.6c0,7.5-1.5,13.4-4.5,17.7c-3,4.3-7.1,6.4-12.5,6.4
		c-1.7,0-3.2-0.2-4.6-0.6c-1.3-0.4-2.5-0.9-3.6-1.5c-1.1-0.7-2.3-1.7-3.7-3.3h-1l-2.5,4.5h-12.5v-63.7h16V122c0,1.7-0.2,4.7-0.6,8.9
		h0.6c1.6-2.4,3.3-4.1,5.4-5.2C363.2,124.6,365.5,124.1,368.1,124.1z M362.2,136.7c-2.2,0-3.9,0.8-4.9,2.3c-1,1.6-1.6,4-1.6,7.3v2.3
		c0,3.8,0.5,6.5,1.6,8.2c1,1.7,2.7,2.5,5.1,2.5c1.9,0,3.3-1,4.3-2.9c1-1.9,1.5-4.8,1.5-8.5C368.2,140.4,366.2,136.7,362.2,136.7z"/>
	<path d="M414.8,172.1c-7.6,0-13.3-2-17.3-6.1c-3.9-4.1-5.9-10-5.9-17.6c0-7.7,2.1-13.7,6.3-17.9c4.2-4.2,10.2-6.3,18-6.3
		c5.4,0,10.4,1.2,15.2,3.5l-4.7,11.8c-1.9-0.8-3.7-1.5-5.4-2c-1.6-0.5-3.3-0.8-5.1-0.8c-2.6,0-4.6,1-6,3c-1.4,2-2.1,4.9-2.1,8.6
		c0,7.4,2.7,11.1,8.2,11.1c4.7,0,9.2-1.4,13.5-4.1V168C425.5,170.7,420.5,172.1,414.8,172.1z"/>
	<path d="M453.2,172.1c-3.3,0-6.2-0.9-8.7-2.8c-2.5-1.9-4.4-4.7-5.7-8.3c-1.4-3.7-2-7.9-2-12.8c0-7.5,1.5-13.4,4.5-17.7
		c3-4.3,7.2-6.4,12.5-6.4c2.6,0,4.9,0.5,6.8,1.6c2,1,3.7,2.8,5.3,5.2h0.3c-0.5-3.6-0.8-7.3-0.8-10.9v-12.4h16.1v63.7h-12.1l-3.4-5.9
		h-0.6C462.8,169.9,458.7,172.1,453.2,172.1z M459.8,159.4c2.6,0,4.4-0.8,5.4-2.4c1.1-1.6,1.6-4.1,1.7-7.4v-1.3c0-4.1-0.6-7-1.8-8.7
		c-1.2-1.7-3-2.6-5.5-2.6c-2.1,0-3.7,1-4.9,3c-1.2,2-1.7,4.8-1.7,8.5c0,3.6,0.6,6.3,1.8,8.2C455.9,158.5,457.6,159.4,459.8,159.4z"
		/>
</g>
<g>
	<path d="M238.9,395.8l-3.1-6.2h-0.3c-2.2,2.7-4.4,4.6-6.7,5.6c-2.3,1-5.2,1.5-8.8,1.5c-4.4,0-7.9-1.3-10.4-4
		c-2.5-2.7-3.8-6.4-3.8-11.2c0-5,1.7-8.7,5.2-11.2c3.5-2.4,8.5-3.8,15.1-4.1l7.8-0.2v-0.7c0-3.9-1.9-5.8-5.7-5.8
		c-3.4,0-7.8,1.2-13,3.5l-4.7-10.7c5.5-2.8,12.4-4.2,20.7-4.2c6,0,10.7,1.5,14,4.5c3.3,3,4.9,7.2,4.9,12.5v30.8H238.9z M226.9,385.2
		c2,0,3.6-0.6,5-1.9c1.4-1.2,2.1-2.9,2.1-4.8v-3.6l-3.7,0.2c-5.3,0.2-8,2.2-8,5.9C222.3,383.8,223.8,385.2,226.9,385.2z"/>
	<path d="M289.8,348.1c5.1,0,9.2,2.1,12.2,6.4c3,4.3,4.5,10.2,4.5,17.8c0,7.6-1.5,13.6-4.5,17.9c-3,4.3-7.2,6.5-12.6,6.5
		c-1.7,0-3.3-0.2-4.6-0.6c-1.4-0.4-2.6-0.9-3.6-1.6c-1.1-0.7-2.3-1.8-3.7-3.3h-1l-2.6,4.6h-12.6v-64.5h16.2v14.6
		c0,1.7-0.2,4.7-0.6,9h0.6c1.6-2.4,3.4-4.2,5.4-5.3C284.9,348.6,287.2,348.1,289.8,348.1z M283.9,360.8c-2.3,0-3.9,0.8-5,2.4
		c-1,1.6-1.6,4-1.6,7.4v2.3c0,3.8,0.5,6.6,1.6,8.3c1.1,1.7,2.8,2.5,5.1,2.5c1.9,0,3.4-1,4.4-2.9c1-1.9,1.5-4.8,1.5-8.6
		C290,364.5,288,360.8,283.9,360.8z"/>
	<path d="M337.1,396.7c-7.7,0-13.5-2.1-17.5-6.2c-4-4.1-5.9-10.1-5.9-17.9c0-7.8,2.1-13.8,6.4-18.1c4.3-4.3,10.4-6.4,18.3-6.4
		c5.4,0,10.6,1.2,15.4,3.6l-4.8,12c-2-0.9-3.8-1.5-5.4-2.1c-1.7-0.5-3.4-0.8-5.2-0.8c-2.6,0-4.7,1-6.1,3.1s-2.2,4.9-2.2,8.7
		c0,7.5,2.8,11.3,8.3,11.3c4.8,0,9.3-1.4,13.7-4.1v12.9C347.9,395.3,342.9,396.7,337.1,396.7z"/>
	<path d="M376,396.7c-3.3,0-6.3-1-8.8-2.9c-2.5-1.9-4.4-4.7-5.8-8.4c-1.4-3.7-2.1-8-2.1-13c0-7.6,1.5-13.6,4.6-17.9
		c3.1-4.3,7.3-6.5,12.6-6.5c2.6,0,4.9,0.5,6.9,1.6c2,1.1,3.8,2.8,5.4,5.3h0.3c-0.5-3.7-0.8-7.3-0.8-11v-12.6h16.3v64.5h-12.2
		l-3.5-5.9h-0.6C385.7,394.4,381.5,396.7,376,396.7z M382.6,383.9c2.6,0,4.4-0.8,5.5-2.4c1.1-1.6,1.6-4.1,1.7-7.5v-1.3
		c0-4.1-0.6-7.1-1.8-8.8c-1.2-1.8-3.1-2.6-5.6-2.6c-2.1,0-3.8,1-5,3c-1.2,2-1.8,4.9-1.8,8.6c0,3.6,0.6,6.4,1.8,8.3
		C378.7,382.9,380.4,383.9,382.6,383.9z"/>
	<path d="M438.7,396.7c-7.8,0-13.9-2.1-18.2-6.2c-4.3-4.2-6.5-10.1-6.5-17.7c0-7.9,2-14,6-18.2c4-4.2,9.7-6.4,17.2-6.4
		c7.1,0,12.5,1.8,16.4,5.5c3.9,3.7,5.8,9,5.8,15.9v7.2h-29c0.1,2.6,1.1,4.7,2.9,6.2c1.8,1.5,4.3,2.2,7.4,2.2c2.8,0,5.5-0.3,7.9-0.8
		c2.4-0.5,5-1.5,7.8-2.8v11.6c-2.5,1.3-5.2,2.2-7.9,2.7C445.6,396.4,442.4,396.7,438.7,396.7z M437.7,359.1c-1.9,0-3.5,0.6-4.8,1.8
		c-1.3,1.2-2,3.1-2.3,5.7h13.9c-0.1-2.3-0.7-4.1-1.9-5.4C441.4,359.8,439.8,359.1,437.7,359.1z"/>
	<path d="M497.1,361h-10v34.8h-16.2V361h-6.2v-8l6.5-4v-0.8c0-6.2,1.3-10.6,3.8-13.3c2.5-2.7,6.6-4.1,12.2-4.1
		c2.2,0,4.2,0.2,6.1,0.5c1.9,0.3,4.1,0.9,6.7,1.7l-3.5,10.5c-2-0.6-3.9-0.8-5.8-0.8c-1.2,0-2.1,0.4-2.7,1.1c-0.6,0.8-0.8,2-0.8,3.7
		v1.2h10V361z"/>
</g>
<g>
	<path d="M24.3,171.3l-2.2-4.4h-0.2c-1.6,1.9-3.1,3.2-4.8,4c-1.6,0.7-3.7,1.1-6.3,1.1c-3.2,0-5.6-0.9-7.4-2.8
		c-1.8-1.9-2.7-4.5-2.7-8c0-3.6,1.2-6.2,3.7-8c2.5-1.7,6.1-2.7,10.8-2.9l5.6-0.2v-0.5c0-2.8-1.4-4.1-4.1-4.1c-2.4,0-5.5,0.8-9.3,2.5
		L4,140.2c3.9-2,8.8-3,14.8-3c4.3,0,7.6,1.1,10,3.2c2.4,2.1,3.5,5.1,3.5,8.9v21.9H24.3z M15.7,163.7c1.4,0,2.6-0.4,3.6-1.3
		c1-0.9,1.5-2,1.5-3.5v-2.6l-2.7,0.1c-3.8,0.1-5.7,1.5-5.7,4.2C12.4,162.7,13.5,163.7,15.7,163.7z"/>
	<path d="M60.6,137.2c3.6,0,6.5,1.5,8.7,4.6c2.1,3.1,3.2,7.3,3.2,12.7c0,5.4-1.1,9.7-3.2,12.8c-2.2,3.1-5.2,4.6-9,4.6
		c-1.2,0-2.3-0.1-3.3-0.4c-1-0.3-1.8-0.6-2.6-1.1c-0.8-0.5-1.6-1.3-2.6-2.4H51l-1.8,3.3h-9v-46h11.5v10.4c0,1.2-0.1,3.4-0.4,6.4h0.4
		c1.1-1.7,2.4-3,3.9-3.8C57,137.6,58.7,137.2,60.6,137.2z M56.4,146.3c-1.6,0-2.8,0.6-3.5,1.7c-0.7,1.1-1.1,2.9-1.1,5.3v1.6
		c0,2.7,0.4,4.7,1.1,5.9c0.7,1.2,2,1.8,3.7,1.8c1.4,0,2.4-0.7,3.1-2.1c0.7-1.4,1.1-3.4,1.1-6.1C60.7,149,59.2,146.3,56.4,146.3z"/>
	<path d="M94.3,171.9c-5.5,0-9.6-1.5-12.4-4.4c-2.8-3-4.2-7.2-4.2-12.7c0-5.6,1.5-9.9,4.6-12.9c3.1-3.1,7.4-4.6,13-4.6
		c3.9,0,7.5,0.8,11,2.5l-3.4,8.5c-1.4-0.6-2.7-1.1-3.9-1.5c-1.2-0.4-2.4-0.5-3.7-0.5c-1.9,0-3.3,0.7-4.3,2.2c-1,1.5-1.5,3.5-1.5,6.2
		c0,5.4,2,8,5.9,8c3.4,0,6.6-1,9.7-3v9.2C102,170.9,98.4,171.9,94.3,171.9z"/>
	<path d="M122,171.9c-2.4,0-4.5-0.7-6.2-2c-1.8-1.4-3.2-3.4-4.1-6c-1-2.6-1.5-5.7-1.5-9.2c0-5.4,1.1-9.7,3.3-12.8
		c2.2-3.1,5.2-4.6,9-4.6c1.9,0,3.5,0.4,4.9,1.1c1.4,0.7,2.7,2,3.9,3.8h0.2c-0.4-2.6-0.6-5.2-0.6-7.9v-8.9h11.6v46h-8.7l-2.5-4.2
		h-0.4C128.9,170.3,126,171.9,122,171.9z M126.8,162.7c1.9,0,3.2-0.6,3.9-1.7c0.8-1.2,1.2-3,1.2-5.4v-0.9c0-3-0.4-5.1-1.3-6.3
		c-0.8-1.3-2.2-1.9-4-1.9c-1.5,0-2.7,0.7-3.5,2.1c-0.8,1.4-1.3,3.5-1.3,6.1c0,2.6,0.4,4.6,1.3,5.9
		C124,162.1,125.2,162.7,126.8,162.7z"/>
	<path d="M166.7,171.9c-5.6,0-9.9-1.5-13-4.4c-3.1-3-4.6-7.2-4.6-12.7c0-5.7,1.4-10,4.3-13c2.9-3,6.9-4.5,12.2-4.5
		c5,0,8.9,1.3,11.7,3.9c2.7,2.6,4.1,6.4,4.1,11.4v5.1h-20.6c0.1,1.9,0.8,3.3,2.1,4.4c1.3,1.1,3,1.6,5.3,1.6c2,0,3.9-0.2,5.6-0.6
		c1.7-0.4,3.5-1,5.5-2v8.3c-1.8,0.9-3.7,1.6-5.6,1.9C171.7,171.7,169.4,171.9,166.7,171.9z M166,145.1c-1.4,0-2.5,0.4-3.4,1.3
		c-0.9,0.9-1.5,2.2-1.6,4h9.9c0-1.6-0.5-2.9-1.4-3.9C168.7,145.6,167.5,145.1,166,145.1z"/>
</g>
<g>
	<path d="M57.4,388l-3.1-6.1H54c-2.2,2.7-4.4,4.5-6.6,5.5c-2.2,1-5.1,1.5-8.7,1.5c-4.4,0-7.8-1.3-10.3-3.9
		c-2.5-2.6-3.8-6.3-3.8-11.1c0-4.9,1.7-8.6,5.2-11c3.4-2.4,8.4-3.8,15-4.1l7.7-0.2v-0.7c0-3.8-1.9-5.7-5.7-5.7
		c-3.4,0-7.7,1.1-12.9,3.4l-4.6-10.6c5.4-2.8,12.2-4.2,20.5-4.2c6,0,10.6,1.5,13.8,4.4c3.3,2.9,4.9,7.1,4.9,12.4V388H57.4z
		 M45.5,377.5c1.9,0,3.6-0.6,5-1.8c1.4-1.2,2.1-2.8,2.1-4.8v-3.6l-3.7,0.2c-5.3,0.2-7.9,2.1-7.9,5.8
		C40.9,376.1,42.5,377.5,45.5,377.5z"/>
	<path d="M107.7,340.8c5.1,0,9.1,2.1,12,6.4c3,4.2,4.4,10.1,4.4,17.6c0,7.5-1.5,13.4-4.5,17.7c-3,4.3-7.1,6.4-12.5,6.4
		c-1.7,0-3.3-0.2-4.6-0.6c-1.3-0.4-2.5-0.9-3.6-1.5c-1.1-0.7-2.3-1.7-3.7-3.3h-1l-2.5,4.5H79.4v-63.7h16v14.4c0,1.7-0.2,4.7-0.6,8.9
		h0.6c1.6-2.4,3.4-4.1,5.4-5.2C102.8,341.3,105.1,340.8,107.7,340.8z M101.9,353.3c-2.2,0-3.9,0.8-4.9,2.3c-1,1.6-1.6,4-1.6,7.3v2.3
		c0,3.8,0.5,6.5,1.6,8.2c1,1.7,2.7,2.5,5.1,2.5c1.9,0,3.3-1,4.3-2.9c1-1.9,1.5-4.8,1.5-8.5C107.9,357.1,105.9,353.3,101.9,353.3z"/>
</g>
</svg>
