<?xml version="1.0" encoding="utf-8"?>
<!-- Generator: Adobe Illustrator 26.0.0, SVG Export Plug-In . SVG Version: 6.00 Build 0)  -->
<svg version="1.1" id="Ebene_1" xmlns="http://www.w3.org/2000/svg" xmlns:xlink="http://www.w3.org/1999/xlink" x="0px" y="0px"
	 viewBox="0 0 500 500" style="enable-background:new 0 0 500 500;" xml:space="preserve">
<style type="text/css">
	.st0{display:none;fill:none;stroke:#000000;stroke-width:30;stroke-linecap:round;stroke-linejoin:round;stroke-miterlimit:10;}
	.st1{display:none;}
	.st2{display:inline;stroke:#000000;stroke-width:15;stroke-linecap:round;stroke-linejoin:round;stroke-miterlimit:10;}
	.st3{display:inline;}
	.st4{display:inline;stroke:#000000;stroke-width:15;stroke-miterlimit:10;}
	.st5{fill:none;stroke:#000000;stroke-width:30;stroke-miterlimit:10;}
</style>
<desc>Created with Sketch.</desc>
<polyline class="st0" points="15,65 15,435 485,435 "/>
<g class="st1">
	<circle class="st2" cx="93" cy="300" r="25"/>
	<circle class="st2" cx="171" cy="200" r="25"/>
	<circle class="st2" cx="250" cy="325" r="25"/>
	<circle class="st2" cx="329" cy="125" r="25"/>
	<circle class="st2" cx="407" cy="225" r="25"/>
</g>
<g class="st1">
	<circle class="st2" cx="93" cy="300" r="25"/>
	<circle class="st2" cx="171" cy="200" r="50"/>
	<circle class="st2" cx="250" cy="325" r="37.5"/>
	<circle class="st2" cx="329" cy="125" r="18.8"/>
	<circle class="st2" cx="407" cy="225" r="43.8"/>
</g>
<polyline class="st0" points="93,300 171,200 250,325 329,125 407,225 "/>
<g class="st1">
	<rect x="68" y="300" class="st2" width="50" height="135"/>
	<rect x="146" y="200" class="st2" width="50" height="235"/>
	<rect x="225" y="325" class="st2" width="50" height="110"/>
	<rect x="304" y="125" class="st2" width="50" height="310"/>
	<rect x="382" y="225" class="st2" width="50" height="210"/>
</g>
<g class="st1">
	<path class="st3" d="M251.6,250l158.4,110.9c3.8,2.7,4.6,7.8,1.8,11.5c-38,49.7-97.3,79.2-160.2,79.2C141,451.6,50,360.6,50,250
		c0-107.8,86.4-197,193.2-201.5c4.6-0.2,8.4,3.5,8.4,8.1V250z"/>
	<g class="st3">
		<path d="M278.9,64c17.2,1.5,34,5.6,50.1,12.3C345,83,359.8,91.9,373,103l-94.1,94.1V64 M270.8,48.5c-3.8,0-7,3.2-7,7v177.8
			l125.8-125.8c2.8-2.8,2.8-7.4-0.1-10.1c-16-14.8-34.6-26.7-54.8-35.1c-20.2-8.4-41.7-13.1-63.6-13.9
			C271,48.5,270.9,48.5,270.8,48.5L270.8,48.5z"/>
	</g>
	<g class="st3">
		<g>
			<path d="M401.1,136.3c25.6,30.6,39.7,69,39.7,109.1c0,29.9-7.8,59-22.7,84.8L294,243.4L401.1,136.3 M401.5,117.6
				c-1.8,0-3.6,0.7-5,2.1L270.8,245.4l145.7,102c1.2,0.9,2.6,1.3,4,1.3c2.3,0,4.6-1.2,6-3.3c19.1-29.8,29.3-64.5,29.3-100
				c0-46.6-17.6-91.5-49.2-125.6C405.2,118.3,403.4,117.6,401.5,117.6L401.5,117.6z"/>
		</g>
		<g>
			<path d="M419.3,135.1l-126,126l12.5,8.7l122.1-122.1C425.2,143.4,422.3,139.2,419.3,135.1z"/>
			<path d="M434.7,159.7L316.8,277.6l12.5,8.7l112.2-112.2C439.4,169.2,437.2,164.4,434.7,159.7z"/>
			<path d="M446.6,187.8L340.3,294.1l12.5,8.7l98.4-98.4C449.9,198.8,448.3,193.3,446.6,187.8z"/>
			<path d="M454,220.3l-90.2,90.2l12.5,8.7l79.4-79.4C455.5,233.4,454.9,226.8,454,220.3z"/>
			<path d="M455.2,259.1L387.4,327l12.5,8.7l51.9-51.9C453.4,275.8,454.6,267.5,455.2,259.1z"/>
		</g>
	</g>
</g>
<g>
	<g class="st1">
		<circle class="st4" cx="90" cy="360" r="75"/>
		<circle class="st4" cx="410" cy="360" r="75"/>
		<circle class="st4" cx="215" cy="276" r="150"/>
		<circle class="st4" cx="365" cy="250" r="62.5"/>
		<rect x="90" y="335" class="st4" width="320" height="100"/>
	</g>
	<path class="st5" d="M416.6,254.8c6.9-10,10.9-22.2,10.9-35.3c0-34.5-28-62.5-62.5-62.5c-9,0-17.5,1.9-25.2,5.3
		C312.9,122,267.1,95.5,215,95.5c-82.8,0-150,67.2-150,150c0,4.4,0.2,8.8,0.6,13.1c-29.4,10.1-50.6,38-50.6,70.9
		c0,41.4,33.6,75,75,75h320c41.4,0,75-33.6,75-75C485,290.3,454.9,258.1,416.6,254.8z"/>
	<g>
		<path d="M172.3,320.9l-5-10h-0.5c-3.5,4.3-7.1,7.3-10.7,8.9c-3.6,1.6-8.3,2.4-14.1,2.4c-7.1,0-12.7-2.1-16.7-6.4
			c-4.1-4.2-6.1-10.2-6.1-17.9c0-8,2.8-14,8.4-17.9s13.7-6.1,24.2-6.6l12.6-0.4V272c0-6.2-3.1-9.3-9.2-9.3c-5.5,0-12.5,1.9-20.9,5.6
			l-7.5-17.1c8.8-4.5,19.8-6.8,33.2-6.8c9.7,0,17.1,2.4,22.4,7.2c5.3,4.8,7.9,11.5,7.9,20.1v49.3H172.3z M153.1,303.9
			c3.1,0,5.8-1,8.1-3c2.2-2,3.4-4.6,3.4-7.8v-5.8l-6,0.3c-8.5,0.3-12.8,3.5-12.8,9.4C145.7,301.6,148.1,303.9,153.1,303.9z"/>
		<path d="M253.9,244.4c8.2,0,14.7,3.4,19.5,10.3c4.8,6.9,7.2,16.4,7.2,28.5c0,12.2-2.4,21.8-7.3,28.7c-4.8,6.9-11.6,10.4-20.2,10.4
			c-2.8,0-5.3-0.3-7.4-0.9s-4.1-1.4-5.8-2.5s-3.7-2.8-5.9-5.3h-1.6l-4.1,7.4H208V217.6h26V241c0,2.8-0.3,7.6-0.9,14.4h0.9
			c2.5-3.9,5.4-6.7,8.7-8.4S249.7,244.4,253.9,244.4z M244.4,264.8c-3.6,0-6.3,1.3-8,3.8s-2.5,6.5-2.5,11.9v3.7
			c0,6.2,0.8,10.6,2.5,13.2c1.7,2.7,4.4,4,8.2,4c3.1,0,5.4-1.6,7-4.7c1.6-3.1,2.5-7.7,2.5-13.8C254.2,270.8,250.9,264.8,244.4,264.8
			z"/>
		<path d="M329.7,322.3c-12.3,0-21.6-3.3-28-10c-6.4-6.6-9.5-16.2-9.5-28.6c0-12.5,3.4-22.2,10.3-29c6.9-6.9,16.6-10.3,29.3-10.3
			c8.7,0,16.9,1.9,24.6,5.7l-7.6,19.2c-3.1-1.4-6-2.5-8.7-3.3c-2.7-0.8-5.4-1.2-8.3-1.2c-4.2,0-7.5,1.6-9.8,4.9
			c-2.3,3.3-3.5,7.9-3.5,13.9c0,12,4.4,18.1,13.3,18.1c7.6,0,14.9-2.2,21.9-6.6v20.7C347.1,320.1,339.1,322.3,329.7,322.3z"/>
	</g>
</g>
</svg>
