<?xml version="1.0" encoding="UTF-8"?>
<svg width="500px" height="500px" viewBox="0 0 500 500" version="1.1" xmlns="http://www.w3.org/2000/svg" xmlns:xlink="http://www.w3.org/1999/xlink">
    <!-- Generator: Sketch 50.2 (55047) - http://www.bohemiancoding.com/sketch -->
    <title>check-square</title>
    <desc>Created with Sketch.</desc>
    <defs></defs>
    <g id="check-square" stroke="none" stroke-width="1" fill="none" fill-rule="evenodd">
        <g id="Group" transform="translate(0.000000, -1.000000)">
            <g id="Group-3" fill="#1D1D1B">
                <path d="M480.868279,253.710436 C480.655165,253.710436 479.635396,253.690807 475.461914,253.430957 C471.920296,253.208496 469.01802,253.158022 466.584968,253.273926 C464.092095,253.392634 461.314136,253.744085 458.32867,254.317998 C453.755132,255.196625 450.105087,257.176342 447.481355,260.202935 C444.756674,263.347301 443.375172,267.360013 443.375172,272.128906 L443.375172,405.970647 C443.375172,416.732904 439.643807,425.695843 431.96703,433.371686 C424.291187,441.048463 415.327313,444.779828 404.565991,444.779828 L94.7207588,444.779828 C83.958502,444.779828 74.995563,441.048463 67.3187856,433.371686 C59.6420081,425.695843 55.9106438,416.732904 55.9106438,405.970647 L55.9106438,95.4121651 C55.9106438,84.6499083 59.6420081,75.6869692 67.3187856,68.0111265 C74.995563,60.3343491 83.958502,56.6029848 94.7207588,56.6029848 L369.621094,56.6029848 C374.389987,56.6029848 378.402699,55.2205479 381.54613,52.4968015 C384.571788,49.8740038 386.551505,46.224894 387.431068,41.649486 C388.005915,38.6621512 388.357366,35.8832569 388.475139,33.3922534 C388.591044,30.9592019 388.539634,28.0559911 388.319043,24.5162424 C388.051716,20.2474195 388.03863,19.2631693 388.03863,19.1089421 C388.03863,14.1680624 386.159861,9.67771308 382.605157,6.12300902 C379.051388,2.57017437 374.561039,0.69140625 369.621094,0.69140625 L94.7207588,0.69140625 C68.7442191,0.69140625 46.2242388,10.0403808 27.787074,28.4784803 C9.34897451,46.9165797 0,69.43656 0,95.4121651 L0,405.970647 C0,431.946252 9.34897451,454.466233 27.787074,472.904332 C46.2251735,491.342432 68.7451538,500.691406 94.7207588,500.691406 L404.565991,500.691406 C430.540662,500.691406 453.059707,491.342432 471.499676,472.904332 C489.937776,454.466233 499.28675,431.946252 499.28675,405.970647 L499.28675,272.128906 C499.28675,267.187092 497.407982,262.697677 493.854213,259.142973 C490.299509,255.589204 485.810094,253.710436 480.868279,253.710436 Z" id="Fill-1"></path>
            </g>
            <g id="check" transform="translate(100.000000, 65.000000)" fill="#000000" fill-rule="nonzero">
                <path d="M135.857812,292.503125 L5.8578125,162.503125 C-1.95234375,154.692969 -1.95234375,142.029688 5.8578125,134.21875 L34.1414062,105.934375 C41.9515625,98.1234375 54.615625,98.1234375 62.4257812,105.934375 L150,193.507813 L337.574219,5.934375 C345.384375,-1.87578125 358.048438,-1.87578125 365.858594,5.934375 L394.142188,34.21875 C401.952344,42.0289063 401.952344,54.6921875 394.142188,62.503125 L164.142188,292.503906 C156.33125,300.314063 143.667969,300.314063 135.857813,292.503125 Z" id="Shape"></path>
            </g>
        </g>
    </g>
</svg>