<?xml version="1.0" encoding="UTF-8"?>
<svg width="500px" height="500px" viewBox="0 0 500 500" version="1.1" xmlns="http://www.w3.org/2000/svg" xmlns:xlink="http://www.w3.org/1999/xlink">
    <!-- Generator: Sketch 52.6 (67491) - http://www.bohemiancoding.com/sketch -->
    <title>check copy</title>
    <desc>Created with Sketch.</desc>
    <g id="check-copy" stroke="none" stroke-width="1" fill="none" fill-rule="evenodd">
        <path d="M170,345 C185,315 200,280 220,245 C240,210 260,175 285,140 C310,105 330,80 340,70 C350,60 360,50 370,40 C380,30 390,30 410,25 C430,20 445,20 455,20 C460,20 465,20 470,25 C475,30 475,35 475,40 C475,45 475,50 470,55 C465,60 460,65 455,70 C415,105 375,155 335,220 C295,285 260,350 235,410 C225,440 215,455 215,460 C215,465 205,470 200,475 C195,480 180,480 160,480 C145,480 130,480 130,475 C130,470 120,470 120,470 C120,470 110,460 100,440 C90,420 70,400 45,375 C30,360 25,350 25,340 C25,325 35,315 50,300 C65,285 80,285 90,285 C105,285 115,290 130,300 C145,310 155,325 170,345 Z" id="Path" fill="#020203"></path>
    </g>
</svg>