<?xml version="1.0" encoding="UTF-8" standalone="no"?><!DOCTYPE svg PUBLIC "-//W3C//DTD SVG 1.1//EN" "http://www.w3.org/Graphics/SVG/1.1/DTD/svg11.dtd"><svg width="100%" height="100%" viewBox="0 0 500 500" version="1.1" xmlns="http://www.w3.org/2000/svg" xmlns:xlink="http://www.w3.org/1999/xlink" xml:space="preserve" xmlns:serif="http://www.serif.com/" style="fill-rule:evenodd;clip-rule:evenodd;stroke-linejoin:round;stroke-miterlimit:2;"><rect id="clock" x="0" y="-0" width="500" height="500" style="fill:none;"/><clipPath id="_clip1"><rect id="clock1" serif:id="clock" x="0" y="-0" width="500" height="500"/></clipPath><g clip-path="url(#_clip1)"><path d="M250,0c137.979,0 250,112.021 250,250c0,137.979 -112.021,250 -250,250c-137.979,0 -250,-112.021 -250,-250c0,-137.979 112.021,-250 250,-250Zm0,30c121.421,0 220,98.579 220,220c0,121.421 -98.579,220 -220,220c-121.421,0 -220,-98.579 -220,-220c0,-121.421 98.579,-220 220,-220Z"/><path d="M264.981,210.993l-0.075,-156c-0.004,-8.279 -6.729,-14.997 -15.008,-14.993c-8.278,0.004 -14.996,6.729 -14.992,15.007l0.075,156c0.004,8.279 6.729,14.997 15.007,14.993c8.279,-0.004 14.997,-6.729 14.993,-15.007Z"/><path d="M290,265l90,-0c8.279,-0 15,-6.721 15,-15c-0,-8.279 -6.721,-15 -15,-15l-90,-0c-8.279,-0 -15,6.721 -15,15c-0,8.279 6.721,15 15,15Z"/><circle cx="250" cy="250" r="15"/></g></svg>