<?xml version="1.0" encoding="UTF-8"?>
<svg width="500px" height="500px" viewBox="0 0 500 500" version="1.1" xmlns="http://www.w3.org/2000/svg" xmlns:xlink="http://www.w3.org/1999/xlink">
    <!-- Generator: Sketch 52.6 (67491) - http://www.bohemiancoding.com/sketch -->
    <title>close</title>
    <desc>Created with Sketch.</desc>
    <defs>
        <path d="M318.426361,250.000059 L445.169061,123.256493 C451.610313,116.815245 451.610313,106.371148 445.169061,99.9299002 L400.069483,54.8312885 C393.628231,48.3895705 383.185069,48.3895705 376.742406,54.8312885 L249.999706,181.573914 L123.257006,54.8312885 C116.815284,48.3895705 106.371651,48.3895705 99.9299295,54.8312885 L54.8312914,99.9299002 C48.3895695,106.371148 48.3895695,116.815245 54.8312914,123.256493 L181.574462,250.000059 L54.8312914,376.742214 C48.3895695,383.184402 48.3895695,393.627559 54.8312914,400.070217 L99.9299295,445.168829 C103.150555,448.388983 107.371659,450 111.593233,450 C115.814806,450 120.03591,448.388983 123.257006,445.168829 L249.999706,318.426203 L376.742406,445.168829 C379.963973,448.388983 384.185076,450 388.40665,450 C392.628224,450 396.849327,448.388983 400.069483,445.168829 L445.169061,400.070217 C451.610313,393.628029 451.610313,383.184873 445.169061,376.742214 L318.426361,250.000059 Z" id="path-1"></path>
    </defs>
    <g id="close" stroke="none" stroke-width="1" fill="none" fill-rule="evenodd">
        <mask id="mask-2" fill="white">
            <use xlink:href="#path-1"></use>
        </mask>
        <use id="Shape" fill="#000000" fill-rule="nonzero" xlink:href="#path-1"></use>
    </g>
</svg>