<?xml version="1.0" encoding="UTF-8"?>
<svg width="852px" height="852px" viewBox="0 0 852 852" version="1.1" xmlns="http://www.w3.org/2000/svg" xmlns:xlink="http://www.w3.org/1999/xlink">
    <!-- Generator: Sketch 49 (51002) - http://www.bohemiancoding.com/sketch -->
    <title>close</title>
    <defs></defs>
    <g id="Page-1" stroke="none" stroke-width="1" fill="none" fill-rule="evenodd">
        <g id="close" fill="#000000" fill-rule="nonzero">
            <path d="M571.474,426.001 L840.927,156.546 C854.621,142.852 854.621,120.648 840.927,106.954 L745.046,11.075 C731.352,-2.62 709.15,-2.62 695.453,11.075 L426,280.528 L156.547,11.075 C142.852,-2.62 120.649,-2.62 106.954,11.075 L11.075,106.954 C-2.62,120.648 -2.62,142.852 11.075,156.546 L280.529,426.001 L11.075,695.453 C-2.62,709.149 -2.62,731.351 11.075,745.048 L106.954,840.927 C113.801,847.773 122.775,851.198 131.75,851.198 C140.725,851.198 149.699,847.773 156.547,840.927 L426,571.474 L695.453,840.927 C702.302,847.773 711.276,851.198 720.251,851.198 C729.226,851.198 738.2,847.773 745.046,840.927 L840.927,745.048 C854.621,731.352 854.621,709.15 840.927,695.453 L571.474,426.001 Z" id="Shape"></path>
        </g>
    </g>
</svg>
