<?xml version="1.0" encoding="UTF-8"?>
<svg width="1536px" height="1536px" viewBox="0 0 1536 1536" version="1.1" xmlns="http://www.w3.org/2000/svg" xmlns:xlink="http://www.w3.org/1999/xlink">
    <!-- Generator: Sketch 49 (51002) - http://www.bohemiancoding.com/sketch -->
    <title>cog</title>
    <defs></defs>
    <g id="Page-1" stroke="none" stroke-width="1" fill="none" fill-rule="evenodd">
        <g id="cog" fill="#000000" fill-rule="nonzero">
            <path d="M1024,768 C1024,697.333333 999,637 949,587 C899,537 838.666667,512 768,512 C697.333333,512 637,537 587,587 C537,637 512,697.333333 512,768 C512,838.666667 537,899 587,949 C637,999 697.333333,1024 768,1024 C838.666667,1024 899,999 949,949 C999,899 1024,838.666667 1024,768 Z M1536,659 L1536,881 C1536,889 1533.33333,896.666667 1528,904 C1522.66667,911.333333 1516,915.666667 1508,917 L1323,945 C1310.33333,981 1297.33333,1011.33333 1284,1036 C1307.33333,1069.33333 1343,1115.33333 1391,1174 C1397.66667,1182 1401,1190.33333 1401,1199 C1401,1207.66667 1398,1215.33333 1392,1222 C1374,1246.66667 1341,1282.66667 1293,1330 C1245,1377.33333 1213.66667,1401 1199,1401 C1191,1401 1182.33333,1398 1173,1392 L1035,1284 C1005.66667,1299.33333 975.333333,1312 944,1322 C933.333333,1412.66667 923.666667,1474.66667 915,1508 C910.333333,1526.66667 898.333333,1536 879,1536 L657,1536 C647.666667,1536 639.5,1533.16667 632.5,1527.5 C625.5,1521.83333 621.666667,1514.66667 621,1506 L593,1322 C560.333333,1311.33333 530.333333,1299 503,1285 L362,1392 C355.333333,1398 347,1401 337,1401 C327.666667,1401 319.333333,1397.33333 312,1390 C228,1314 173,1258 147,1222 C142.333333,1215.33333 140,1207.66667 140,1199 C140,1191 142.666667,1183.33333 148,1176 C158,1162 175,1139.83333 199,1109.5 C223,1079.16667 241,1055.66667 253,1039 C235,1005.66667 221.333333,972.666667 212,940 L29,913 C20.3333333,911.666667 13.3333333,907.5 8,900.5 C2.66666667,893.5 0,885.666667 0,877 L0,655 C0,647 2.66666667,639.333333 8,632 C13.3333333,624.666667 19.6666667,620.333333 27,619 L213,591 C222.333333,560.333333 235.333333,529.666667 252,499 C225.333333,461 189.666667,415 145,361 C138.333333,353 135,345 135,337 C135,330.333333 138,322.666667 144,314 C161.333333,290 194.166667,254.166667 242.5,206.5 C290.833333,158.833333 322.333333,135 337,135 C345.666667,135 354.333333,138.333333 363,145 L501,252 C530.333333,236.666667 560.666667,224 592,214 C602.666667,123.333333 612.333333,61.3333333 621,28 C625.666667,9.33333333 637.666667,0 657,0 L879,0 C888.333333,0 896.5,2.83333333 903.5,8.5 C910.5,14.1666667 914.333333,21.3333333 915,30 L943,214 C975.666667,224.666667 1005.66667,237 1033,251 L1175,144 C1181,138 1189,135 1199,135 C1207.66667,135 1216,138.333333 1224,145 C1310,224.333333 1365,281 1389,315 C1393.66667,320.333333 1396,327.666667 1396,337 C1396,345 1393.33333,352.666667 1388,360 C1378,374 1361,396.166667 1337,426.5 C1313,456.833333 1295,480.333333 1283,497 C1300.33333,530.333333 1314,563 1324,595 L1507,623 C1515.66667,624.333333 1522.66667,628.5 1528,635.5 C1533.33333,642.5 1536,650.333333 1536,659 Z" id="Shape"></path>
        </g>
    </g>
</svg>
