<?xml version="1.0" encoding="UTF-8"?>
<svg width="500px" height="500px" viewBox="0 0 500 500" version="1.1" xmlns="http://www.w3.org/2000/svg" xmlns:xlink="http://www.w3.org/1999/xlink">
    <!-- Generator: Sketch 52.6 (67491) - http://www.bohemiancoding.com/sketch -->
    <title>collapse-open</title>
    <desc>Created with Sketch.</desc>
    <g id="collapse-open" stroke="none" stroke-width="1" fill="none" fill-rule="evenodd">
        <g id="angle-up" transform="translate(250.000000, 250.000000) rotate(180.000000) translate(-250.000000, -250.000000) translate(88.000000, 155.000000)" fill="#000000">
            <path d="M324,162.90378 C324,165.733104 322.917836,168.235968 320.753507,170.412371 L304.521042,186.735395 C302.356713,188.911798 299.867735,190 297.054108,190 C294.240481,190 291.751503,188.911798 289.587174,186.735395 L162,58.4364261 L34.4128257,186.735395 C32.248497,188.911798 29.759519,190 26.9458918,190 C24.1322645,190 21.6432866,188.911798 19.4789579,186.735395 L3.24649299,170.412371 C1.08216433,168.235968 0,165.733104 0,162.90378 C0,160.074456 1.08216433,157.571592 3.24649299,155.395189 L154.533066,3.26460481 C156.697395,1.0882016 159.186373,0 162,0 C164.813627,0 167.302605,1.0882016 169.466934,3.26460481 L320.753507,155.395189 C322.917836,157.571592 324,160.074456 324,162.90378 Z" id="Path"></path>
        </g>
    </g>
</svg>