<?xml version="1.0" encoding="utf-8"?>
<!-- Generator: Adobe Illustrator 27.3.0, SVG Export Plug-In . SVG Version: 6.00 Build 0)  -->
<svg version="1.1" id="Ebene_1" xmlns="http://www.w3.org/2000/svg" xmlns:xlink="http://www.w3.org/1999/xlink" x="0px" y="0px"
	 viewBox="0 0 500 500" style="enable-background:new 0 0 500 500;" xml:space="preserve">
<style type="text/css">
	.st0{display:none;}
</style>
<path d="M460,420H40c-22.1,0-40,17.9-40,40l0,0c0,22.1,17.9,40,40,40h420c22.1,0,40-17.9,40-40v0C500,437.9,482.1,420,460,420z"/>
<path class="st0" d="M337.8,351.6L319,289.9H181l-18.8,61.6c-5.1,16.9-20.7,28.4-38.4,28.4h-0.1c-27.7,0-47-27.3-37.9-53.4
	l98.5-280.2c9.8-27.7,36-46.3,65.4-46.3h0c29.4,0,55.6,18.5,65.3,46.2L414,326.5c9.2,26.1-10.2,53.5-37.8,53.5h0
	C358.5,380,342.9,368.5,337.8,351.6z M290.1,222.6c4.8,0,8.3-4.7,6.8-9.3l-24.5-78.7c-1.7-5.9-4-13.4-6.9-22.6
	c-2.8-9.2-5.7-18.6-8.5-28.2v0c-2-6.8-11.7-6.8-13.6,0.1c-0.1,0.4-0.2,0.8-0.4,1.2c-3,10.4-5.9,20.3-8.7,29.6
	c-2.8,9.3-4.7,16-6,19.9l-24.3,78.8c-1.4,4.6,2,9.3,6.8,9.3H290.1z"/>
</svg>
