<?xml version="1.0" encoding="UTF-8"?>
<svg width="1536px" height="1536px" viewBox="0 0 1536 1536" version="1.1" xmlns="http://www.w3.org/2000/svg" xmlns:xlink="http://www.w3.org/1999/xlink">
    <!-- Generator: Sketch 49 (51002) - http://www.bohemiancoding.com/sketch -->
    <title>compress</title>
    <desc>Created with Sketch.</desc>
    <defs></defs>
    <g id="Page-1" stroke="none" stroke-width="1" fill="none" fill-rule="evenodd">
        <g id="compress" transform="translate(-1.000000, 0.000000)" fill="#000000" fill-rule="nonzero">
            <path d="M917.303,683.699 L1365.303,683.698 C1382.635,683.698 1397.635,677.365 1410.303,664.698 C1422.969,652.031 1429.302,637.031 1429.302,619.698 C1429.303,602.365 1422.968,587.365 1410.302,574.698 L1266.302,430.698 L1527,170 C1533.666,163.333 1537,155.667 1537,147 C1537,138.333 1533.666,130.667 1527,124 L1413,10 C1406.334,3.334 1398.667,2.48689958e-14 1390.001,0.001 C1381.333,2.48689958e-14 1373.666,3.334 1367.001,10.001 L1106.303,270.699 L962.303,126.699 C949.636,114.032 934.635,107.699 917.303,107.699 C899.968,107.698 884.969,114.032 872.303,126.699 C859.636,139.366 853.302,154.366 853.303,171.699 L853.302,619.699 C853.303,637.032 859.635,652.032 872.302,664.699 C884.969,677.366 899.968,683.698 917.303,683.699 Z" id="Shape"></path>
            <path d="M664.99,872.012 C652.323,859.345 637.323,853.012 619.99,853.012 L171.99,853.012 C154.655,853.012 139.656,859.345 126.99,872.012 C114.323,884.677 107.99,899.679 107.99,917.012 C107.989,934.346 114.323,949.345 126.99,962.012 L270.99,1106.012 L10.998,1366.003 C4.331,1372.669 0.998,1380.335 0.998,1389.002 C0.998,1397.669 4.331,1405.336 10.997,1412.002 L124.997,1526.003 C131.664,1532.67 139.33,1536.003 147.997,1536.002 C156.663,1536.003 164.33,1532.669 170.997,1526.002 L430.989,1266.011 L574.989,1410.012 C587.654,1422.679 602.654,1429.012 619.989,1429.012 C637.322,1429.012 652.321,1422.679 664.989,1410.012 C677.655,1397.344 683.989,1382.344 683.989,1365.012 L683.989,917.012 C683.991,899.677 677.656,884.678 664.99,872.012 Z" id="Shape"></path>
            <path d="M664.992,125.994 C652.325,113.327 637.325,106.994 619.992,106.994 C602.659,106.994 587.659,113.327 574.991,125.994 L430.991,269.994 L171.001,10.003 C164.334,3.336 156.669,0.002 148.001,0.002 C139.334,0.002 131.668,3.335 125.001,10.002 L11.001,124.002 C4.335,130.669 1.001,138.336 1.001,147.002 C1.001,155.668 4.334,163.335 11.001,170.002 L270.992,429.993 L126.992,573.993 C114.325,586.659 107.993,601.659 107.992,618.993 C107.993,636.326 114.325,651.326 126.992,663.993 C139.659,676.659 154.66,682.993 171.992,682.993 L619.992,682.993 C637.326,682.993 652.325,676.66 664.992,663.993 C677.659,651.326 683.991,636.326 683.992,618.993 L683.992,170.993 C683.993,153.659 677.659,138.66 664.992,125.994 Z" id="Shape"></path>
            <path d="M1527.002,1366.003 L1266.303,1105.304 L1410.302,961.306 C1422.969,948.639 1429.303,933.637 1429.303,916.305 C1429.304,898.971 1422.969,883.971 1410.303,871.306 C1397.636,858.639 1382.635,852.305 1365.303,852.305 L917.303,852.305 C899.971,852.305 884.971,858.637 872.304,871.305 C859.637,883.971 853.303,898.97 853.304,916.305 L853.303,1364.304 C853.303,1381.637 859.637,1396.638 872.304,1409.305 C884.97,1421.97 899.971,1428.305 917.303,1428.305 C934.636,1428.304 949.637,1421.971 962.303,1409.304 L1106.304,1265.304 L1367.001,1526.003 C1373.668,1532.67 1381.333,1536.003 1390.001,1536.003 C1398.668,1536.003 1406.334,1532.669 1413.001,1526.004 L1527.002,1412.003 C1533.668,1405.337 1537.002,1397.669 1537.001,1389.003 C1537.001,1380.335 1533.668,1372.669 1527.002,1366.003 Z" id="Shape"></path>
        </g>
    </g>
</svg>