<?xml version="1.0" encoding="utf-8"?>
<!-- Generator: Adobe Illustrator 27.2.0, SVG Export Plug-In . SVG Version: 6.00 Build 0)  -->
<svg version="1.1" id="Ebene_1" xmlns="http://www.w3.org/2000/svg" xmlns:xlink="http://www.w3.org/1999/xlink" x="0px" y="0px"
	 viewBox="0 0 500 500" style="enable-background:new 0 0 500 500;" xml:space="preserve">
<path d="M320,128.8c-6.6-3.8-14.7-3.5-21,0.6l-112,73.9c-5.3,3.5-8.6,9.2-8.9,15.5l-8,133.9c-0.5,7.6,3.4,14.7,10,18.5
	c3.1,1.8,6.6,2.7,10,2.7c3.8,0,7.7-1.1,11-3.3l112-73.9c5.3-3.5,8.6-9.2,8.9-15.5l8-133.9C330.4,139.7,326.6,132.5,320,128.8z
	 M217.4,231.2l65.2,37.6l-70.2,46.4L217.4,231.2z"/>
<g>
	<path d="M250,0C111.9,0,0,111.9,0,250s111.9,250,250,250s250-111.9,250-250S388.1,0,250,0L250,0z M250,80c11,0,20-9,20-20V40.9
		c48.5,4.6,93.6,25.7,128.5,60.6c34.9,34.9,56,80,60.6,128.5H440c-11,0-20,9-20,20s9,20,20,20h19.1c-4.6,48.5-25.7,93.6-60.6,128.5
		c-34.9,34.9-80,56-128.5,60.6V440c0-11-9-20-20-20c-11,0-20,9-20,20v19.1c-48.5-4.6-93.6-25.7-128.5-60.6
		c-34.9-34.9-56-80-60.6-128.5H60c11,0,20-9,20-20s-9-20-20-20H40.9c4.6-48.5,25.7-93.6,60.6-128.5c34.9-34.9,80-56,128.5-60.6V60
		C230,71,239,80,250,80L250,80z"/>
</g>
</svg>
