<?xml version="1.0" encoding="UTF-8"?>
<svg width="500px" height="500px" viewBox="0 0 500 500" version="1.1" xmlns="http://www.w3.org/2000/svg" xmlns:xlink="http://www.w3.org/1999/xlink">
    <!-- Generator: Sketch 52.6 (67491) - http://www.bohemiancoding.com/sketch -->
    <title>copy copy 4</title>
    <desc>Created with Sketch.</desc>
    <defs>
        <polygon id="path-1" points="0.0002 0 498.842 0 498.842 498.842 0.0002 498.842"></polygon>
        <polygon id="path-3" points="1.40892945 0.129624659 378.942923 0.129624659 378.942923 92.6274166 1.40892945 92.6274166"></polygon>
    </defs>
    <g id="copy-copy-4" stroke="none" stroke-width="1" fill="none" fill-rule="evenodd">
        <g id="Group-3" transform="translate(0.000000, 1.000000)">
            <mask id="mask-2" fill="white">
                <use xlink:href="#path-1"></use>
            </mask>
            <g id="Clip-2"></g>
            <path d="M430.6982,309.937 L430.6982,411.987 C430.6982,422.321 422.3202,430.699 411.9862,430.699 L86.8552,430.699 C76.5212,430.699 68.1432,422.321 68.1432,411.987 L68.1432,86.855 C68.1432,76.521 76.5212,68.143 86.8552,68.143 L188.9052,68.143 C199.2392,68.143 207.6172,59.766 207.6172,49.431 L207.6172,18.712 C207.6172,8.378 199.2392,0 188.9052,0 L18.7122,0 C8.3772,0 0.0002,8.378 0.0002,18.712 L0.0002,480.13 C0.0002,490.464 8.3772,498.842 18.7122,498.842 L480.1302,498.842 C490.4642,498.842 498.8422,490.464 498.8422,480.13 L498.8422,309.937 C498.8422,299.603 490.4642,291.225 480.1302,291.225 L449.4102,291.225 C439.0762,291.225 430.6982,299.603 430.6982,309.937" id="Fill-1" fill="#000000" mask="url(#mask-2)"></path>
        </g>
        <g id="Group-5" transform="translate(114.013515, 148.065813)">
            <mask id="mask-4" fill="white">
                <use xlink:href="#path-3"></use>
            </mask>
            <g id="Clip-4"></g>
            <path d="M63.6396719,92.6274166 L316.711164,92.6274166 L355.710471,92.6274166 C368.540833,92.6274166 378.943359,81.5840878 378.943359,67.9612426 L378.943359,24.7957986 C378.943359,11.1729535 368.540833,0.129624659 355.710471,0.129624659 L24.6418174,0.129624659 C11.811455,0.129624659 1.40892945,11.1729535 1.40892945,24.7957986 L1.40892945,67.9612426 C1.40892945,81.5840878 11.811455,92.6274166 24.6418174,92.6274166 L63.6396719,92.6274166 Z" id="Fill-3" fill="#020203" mask="url(#mask-4)"></path>
        </g>
        <path d="M350.765356,320.093596 L350.765356,68.7947829 L350.765356,30.0703172 C350.765356,17.3299002 339.644063,7.0003 325.925042,7.0003 L282.453405,7.0003 C268.735837,7.0003 257.614544,17.3299002 257.614544,30.0703172 L257.614544,358.818062 C257.614544,371.559921 268.735837,381.888079 282.453405,381.888079 L325.925042,381.888079 C339.644063,381.888079 350.765356,371.559921 350.765356,358.818062 L350.765356,320.093596 Z" id="Fill-6" fill="#020203"></path>
    </g>
</svg>