<?xml version="1.0" encoding="UTF-8"?>
<svg width="500px" height="500px" viewBox="0 0 500 500" version="1.1" xmlns="http://www.w3.org/2000/svg" xmlns:xlink="http://www.w3.org/1999/xlink">
    <!-- Generator: Sketch 52.6 (67491) - http://www.bohemiancoding.com/sketch -->
    <title>copy</title>
    <desc>Created with Sketch.</desc>
    <defs>
        <polygon id="path-1" points="0.0003 0.7553 387.3593 0.7553 387.3593 389 0.0003 389"></polygon>
    </defs>
    <g id="copy" stroke="none" stroke-width="1" fill="none" fill-rule="evenodd">
        <g id="Group-8" transform="translate(7.000000, 7.000000)">
            <path d="M268.1409,162.0757 L442.4259,162.0757 L469.2839,162.0757 C478.1199,162.0757 485.2839,154.4167 485.2839,144.9687 L485.2839,115.0317 C485.2839,105.5837 478.1199,97.9247 469.2839,97.9247 L241.2839,97.9247 C232.4479,97.9247 225.2839,105.5837 225.2839,115.0317 L225.2839,144.9687 C225.2839,154.4167 232.4479,162.0757 241.2839,162.0757 L268.1409,162.0757 Z" id="Fill-1" fill="#020203"></path>
            <path d="M387.3596,217.1431 L387.3596,42.8571 L387.3596,16.0001 C387.3596,7.1641 379.7006,0.0001 370.2526,0.0001 L340.3146,0.0001 C330.8676,0.0001 323.2086,7.1641 323.2086,16.0001 L323.2086,244.0001 C323.2086,252.8371 330.8676,260.0001 340.3146,260.0001 L370.2526,260.0001 C379.7006,260.0001 387.3596,252.8371 387.3596,244.0001 L387.3596,217.1431 Z" id="Fill-3" fill="#020203"></path>
            <g id="Group-7" transform="translate(0.000000, 97.169000)">
                <mask id="mask-2" fill="white">
                    <use xlink:href="#path-1"></use>
                </mask>
                <g id="Clip-6"></g>
                <path d="M303.2893,304.7383 L84.0693,304.7383 L84.0693,85.0173 L156.4893,85.0173 C166.4493,85.0173 174.5243,76.9243 174.5243,66.9413 L174.5243,18.8313 C174.5243,8.8483 166.4493,0.7553 156.4893,0.7553 L18.0353,0.7553 C8.0743,0.7553 0.0003,8.8483 0.0003,18.8313 L0.0003,370.9243 C0.0003,380.9073 8.0743,389.0003 18.0353,389.0003 L369.3243,389.0003 C379.2843,389.0003 387.3593,380.9073 387.3593,370.9243 L387.3593,232.1533 C387.3593,222.1703 379.2843,214.0773 369.3243,214.0773 L321.3243,214.0773 C311.3643,214.0773 303.2893,222.1703 303.2893,232.1533 L303.2893,304.7383 Z" id="Fill-5" fill="#1D1D1B" mask="url(#mask-2)"></path>
            </g>
        </g>
    </g>
</svg>