<?xml version="1.0" encoding="utf-8"?>
<!-- Generator: Adobe Illustrator 25.4.1, SVG Export Plug-In . SVG Version: 6.00 Build 0)  -->
<svg version="1.1" id="Ebene_1" xmlns="http://www.w3.org/2000/svg" xmlns:xlink="http://www.w3.org/1999/xlink" x="0px" y="0px"
	 viewBox="0 0 500 500" style="enable-background:new 0 0 500 500;" xml:space="preserve">
<style type="text/css">
	.st0{fill-rule:evenodd;clip-rule:evenodd;}
</style>
<desc>Created with Sketch.</desc>
<path class="st0" d="M35.5,496.4C17.6,496.4,3,481.8,3,463.9v-299c0-17.9,14.6-32.5,32.5-32.5h56c17.9,0,32.5,14.6,32.5,32.5
	s-14.6,32.5-32.5,32.5H68v234h234V409c0-17.9,14.6-32.5,32.5-32.5S367,391.1,367,409v54.9c0,17.9-14.6,32.5-32.5,32.5H35.5z"/>
<g>
	<path d="M433,67v234H199V67H433 M465.5,2h-299C148.6,2,134,16.6,134,34.5v299c0,17.9,14.6,32.5,32.5,32.5h299
		c17.9,0,32.5-14.6,32.5-32.5v-299C498,16.6,483.4,2,465.5,2L465.5,2z"/>
</g>
</svg>
