<?xml version="1.0" encoding="utf-8"?>
<!-- Generator: Adobe Illustrator 27.3.0, SVG Export Plug-In . SVG Version: 6.00 Build 0)  -->
<svg version="1.1" id="Ebene_1" xmlns="http://www.w3.org/2000/svg" xmlns:xlink="http://www.w3.org/1999/xlink" x="0px" y="0px"
	 viewBox="0 0 500 500" style="enable-background:new 0 0 500 500;" xml:space="preserve">
<path d="M470.7,29.3L470.7,29.3C451.2,9.8,425.6,0,400,0c-25.6,0-51.2,9.8-70.7,29.3L187.9,170.7c-39.1,39.1-39.1,102.4,0,141.4
	l42.4-42.4c-15.6-15.6-15.6-41,0-56.6L371.7,71.7C379.3,64.2,389.3,60,400,60s20.7,4.2,28.3,11.7c15.6,15.6,15.6,41,0,56.6
	L364.6,192c2.4,4.5,4.6,9.2,6.6,13.9c6.8,16.8,10.3,34.5,10.3,52.7c0,0.5,0,1,0,1.4l89.3-89.3C509.8,131.7,509.8,68.3,470.7,29.3z"
	/>
<path d="M312.1,187.9c-0.2-0.2-0.5-0.4-0.7-0.7l-46.9,38.7c1.8,1.3,3.6,2.7,5.2,4.4c15.6,15.6,15.6,41,0,56.6L128.3,428.3
	c-7.6,7.6-17.6,11.7-28.3,11.7s-20.7-4.2-28.3-11.7c-15.6-15.6-15.6-41,0-56.6l63.7-63.7c-11.5-21.2-17.1-44.6-16.8-68l-89.3,89.3
	c-39.1,39.1-39.1,102.4,0,141.4l0,0C48.8,490.2,74.4,500,100,500s51.2-9.8,70.7-29.3l141.4-141.4
	C351.2,290.2,351.2,226.9,312.1,187.9L312.1,187.9z"/>
</svg>
