<?xml version="1.0" encoding="utf-8"?>
<!-- Generator: Adobe Illustrator 27.3.0, SVG Export Plug-In . SVG Version: 6.00 Build 0)  -->
<svg version="1.1" id="Ebene_1" xmlns="http://www.w3.org/2000/svg" xmlns:xlink="http://www.w3.org/1999/xlink" x="0px" y="0px"
	 viewBox="0 0 500 500" style="enable-background:new 0 0 500 500;" xml:space="preserve">
<path d="M470.7,29.3C451.2,9.8,425.6,0,400,0c-25.6,0-51.2,9.8-70.7,29.3L258.6,100c-29,29-36.5,71.4-22.4,107.3l64.2-64.2
	c0.2-0.2,0.4-0.4,0.6-0.6l70.7-70.7C379.3,64.2,389.3,60,400,60s20.7,4.2,28.3,11.7c7.6,7.6,11.7,17.6,11.7,28.3
	s-4.2,20.7-11.7,28.3L357.6,199c-0.2,0.2-0.4,0.4-0.7,0.6l-64.2,64.2c11.7,4.6,24.1,6.9,36.5,6.9c25.6,0,51.2-9.8,70.7-29.3
	l70.7-70.7C509.8,131.6,509.8,68.3,470.7,29.3z"/>
<path d="M199.5,357.1c-0.2,0.2-0.3,0.4-0.5,0.5l-70.7,70.7c-7.6,7.6-17.6,11.7-28.3,11.7s-20.7-4.2-28.3-11.7
	C64.2,420.7,60,410.7,60,400s4.2-20.7,11.7-28.3l70.7-70.7c0.2-0.2,0.4-0.4,0.7-0.6l64.2-64.2c-11.7-4.6-24.1-6.9-36.5-6.9
	c-25.6,0-51.2,9.8-70.7,29.3l-70.7,70.7c-39.1,39.1-39.1,102.4,0,141.4C48.8,490.2,74.4,500,100,500s51.2-9.8,70.7-29.3l70.7-70.7
	c29-29,36.5-71.4,22.4-107.3L199.5,357.1z"/>
<path d="M356.1,186.4L186.4,356.1c-11.7,11.7-30.7,11.7-42.4,0l0,0c-11.7-11.7-11.7-30.7,0-42.4l169.7-169.7
	c11.7-11.7,30.7-11.7,42.4,0l0,0C367.8,155.6,367.8,174.6,356.1,186.4z"/>
</svg>
