<?xml version="1.0" encoding="UTF-8" standalone="no"?>
<!DOCTYPE svg PUBLIC "-//W3C//DTD SVG 1.1//EN" "http://www.w3.org/Graphics/SVG/1.1/DTD/svg11.dtd">
<svg width="100%" height="100%" viewBox="0 0 512 512" version="1.1" xmlns="http://www.w3.org/2000/svg" xmlns:xlink="http://www.w3.org/1999/xlink" xml:space="preserve" xmlns:serif="http://www.serif.com/" style="fill-rule:evenodd;clip-rule:evenodd;stroke-linejoin:round;stroke-miterlimit:2;">
    <g transform="matrix(1,0,0,1,-1800,-612)">
        <g id="final" transform="matrix(1,0,0,1,1800,612)">
            <rect x="0" y="0" width="512" height="512" style="fill:none;"/>
            <g transform="matrix(1,0,0,1,-1800,-612)">
                <path d="M2022.45,1123.63C1909.37,1119.93 1821,1088.67 1821,1050.86L1821,947.248C1823.33,949.008 1825.81,950.699 1828.43,952.348C1852.07,967.235 1889.58,979.914 1935.38,987.913C1936.79,993.789 1939.42,999.284 1943.31,1004.39C1950.37,1013.66 1959.66,1019.17 1971.14,1020.93C1971.21,1020.94 1971.29,1020.95 1971.36,1020.97L1974.88,1021.48L1973.85,1022.89C1967.89,1031.14 1965.32,1039.95 1965.32,1049C1965.32,1058.73 1968.14,1067.28 1973.38,1074.76C1973.48,1074.91 1973.59,1075.05 1973.69,1075.2C1980.26,1084.29 1993.85,1098.64 2014.96,1117.77C2017.36,1120.06 2019.86,1122.01 2022.45,1123.63Z"/>
            </g>
            <g transform="matrix(1,0,0,1,-1800,-612)">
                <path d="M1934.16,954.405C1866.58,941.788 1821,918.01 1821,890.857L1821,787.249C1823.33,789.008 1825.81,790.699 1828.43,792.348C1858.05,810.997 1909.41,826.18 1971.61,833.043C1965.87,841.941 1964.2,850.269 1964.2,857.16C1964.2,865.94 1966.69,875.099 1973.48,883.92L1970.81,884.321C1970.45,884.375 1970.09,884.435 1969.73,884.501C1959.57,886.348 1950.22,891.478 1942.83,901.639C1936.76,909.976 1934.16,918.837 1934.16,927.932L1934.16,954.405Z"/>
            </g>
            <g id="data" transform="matrix(1,0,0,1,-1800,-612)">
                <path d="M1998.89,802.443C1897.33,795.481 1821,765.995 1821,730.857L1821,685.143C1821,644.857 1921.33,612 2045,612C2048.68,612 2052.34,612.029 2055.97,612.087C2059.61,612.029 2063.27,612 2066.95,612C2190.61,612 2290.95,644.857 2290.95,685.143L2290.95,730.857C2290.95,748.079 2272.61,763.944 2241.94,776.468C2240.3,776.29 2238.65,776.205 2237,776.205C2225.89,776.205 2216.94,779.694 2209.72,785.586L2209.52,784.328C2208.26,773.056 2203.15,763.572 2193.89,756.071C2185.84,749.559 2176.51,746.16 2165.78,746.16L2116.38,746.16C2105.01,746.16 2096.1,749.816 2089.05,755.301C2081.98,760.795 2076.27,768.526 2073.49,779.476C2073.06,781.135 2072.61,783.094 2072.16,785.352C2063.25,778.725 2054.06,776.205 2045.16,776.205C2039.84,776.205 2032.19,777.273 2023.21,782.46C2017.78,785.593 2009.48,792.012 1998.89,802.443Z"/>
            </g>
            <g transform="matrix(0.222552,0,0,0.222552,141.673,141.673)">
                <path d="M1152,896C1152,825.333 1127,765 1077,715C1027,665 966.667,640 896,640C825.333,640 765,665 715,715C665,765 640,825.333 640,896C640,966.667 665,1027 715,1077C765,1127 825.333,1152 896,1152C966.667,1152 1027,1127 1077,1077C1127,1027 1152,966.667 1152,896ZM1664,787L1664,1009C1664,1017 1661.33,1024.67 1656,1032C1650.67,1039.33 1644,1043.67 1636,1045L1451,1073C1438.33,1109 1425.33,1139.33 1412,1164C1435.33,1197.33 1471,1243.33 1519,1302C1525.67,1310 1529,1318.33 1529,1327C1529,1335.67 1526,1343.33 1520,1350C1502,1374.67 1469,1410.67 1421,1458C1373,1505.33 1341.67,1529 1327,1529C1319,1529 1310.33,1526 1301,1520L1163,1412C1133.67,1427.33 1103.33,1440 1072,1450C1061.33,1540.67 1051.67,1602.67 1043,1636C1038.33,1654.67 1026.33,1664 1007,1664L785,1664C775.667,1664 767.5,1661.17 760.5,1655.5C753.5,1649.83 749.667,1642.67 749,1634L721,1450C688.333,1439.33 658.333,1427 631,1413L490,1520C483.333,1526 475,1529 465,1529C455.667,1529 447.333,1525.33 440,1518C356,1442 301,1386 275,1350C270.333,1343.33 268,1335.67 268,1327C268,1319 270.667,1311.33 276,1304C286,1290 303,1267.83 327,1237.5C351,1207.17 369,1183.67 381,1167C363,1133.67 349.333,1100.67 340,1068L157,1041C148.333,1039.67 141.333,1035.5 136,1028.5C130.667,1021.5 128,1013.67 128,1005L128,783C128,775 130.667,767.333 136,760C141.333,752.667 147.667,748.333 155,747L341,719C350.333,688.333 363.333,657.667 380,627C353.333,589 317.667,543 273,489C266.333,481 263,473 263,465C263,458.333 266,450.667 272,442C289.333,418 322.167,382.167 370.5,334.5C418.833,286.833 450.333,263 465,263C473.667,263 482.333,266.333 491,273L629,380C658.333,364.667 688.667,352 720,342C730.667,251.333 740.333,189.333 749,156C753.667,137.333 765.667,128 785,128L1007,128C1016.33,128 1024.5,130.833 1031.5,136.5C1038.5,142.167 1042.33,149.333 1043,158L1071,342C1103.67,352.667 1133.67,365 1161,379L1303,272C1309,266 1317,263 1327,263C1335.67,263 1344,266.333 1352,273C1438,352.333 1493,409 1517,443C1521.67,448.333 1524,455.667 1524,465C1524,473 1521.33,480.667 1516,488C1506,502 1489,524.167 1465,554.5C1441,584.833 1423,608.333 1411,625C1428.33,658.333 1442,691 1452,723L1635,751C1643.67,752.333 1650.67,756.5 1656,763.5C1661.33,770.5 1664,778.333 1664,787Z" style="fill-rule:nonzero;"/>
            </g>
        </g>
    </g>
</svg>
