<?xml version="1.0" encoding="utf-8"?>
<!-- Generator: Adobe Illustrator 27.3.1, SVG Export Plug-In . SVG Version: 6.00 Build 0)  -->
<svg version="1.1" id="Ebene_1" xmlns="http://www.w3.org/2000/svg" xmlns:xlink="http://www.w3.org/1999/xlink" x="0px" y="0px"
	 viewBox="0 0 500 500" style="enable-background:new 0 0 500 500;" xml:space="preserve">
<g>
	<path d="M290,140H100c-11,0-20-9-20-20v0c0-11,9-20,20-20h190c11,0,20,9,20,20v0C310,131,301,140,290,140z"/>
</g>
<g>
	<path d="M287.9,207c5.3-2.3,10.7-4.2,16.2-5.8c2.6-0.8,3.7-3.9,2.1-6.2c-3.6-5.1-9.5-8.4-16.2-8.4H100c-11,0-20,9-20,20v0
		c0,11,9,20,20,20h152.7c0.9,0,1.7-0.3,2.4-0.8C265,218.4,276,212.1,287.9,207z"/>
</g>
<g>
	<path d="M207,287.9c1.3-3,2.6-5.9,4.1-8.8c1.3-2.6-0.6-5.7-3.6-5.7h-107c-10.8,0-20.1,8.4-20.5,19.3c-0.4,11.4,8.7,20.7,20,20.7
		h95.6c1.8,0,3.4-1.3,3.9-3.1C201.4,302.7,203.9,295.2,207,287.9z"/>
</g>
<g>
	<path d="M191.9,360H100c-11,0-20,9-20,20v0c0,11,9,20,20,20h98.9c2.7,0,4.6-2.7,3.8-5.3c-3.4-10.1-5.6-20.6-6.8-31.2
		C195.7,361.5,193.9,360,191.9,360z"/>
</g>
<g>
	<path d="M418.5,347.1c0-19.6-7-36.4-20.9-50.4s-30.8-20.9-50.4-20.9s-36.4,7-50.4,20.9s-20.9,30.8-20.9,50.4s7,36.4,20.9,50.4
		s30.8,20.9,50.4,20.9s36.4-7,50.4-20.9S418.5,366.8,418.5,347.1z M500,479.6c0,5.5-2,10.3-6.1,14.3c-4,4-8.8,6.1-14.3,6.1
		c-5.7,0-10.5-2-14.3-6.1l-54.6-54.5c-19,13.2-40.2,19.7-63.5,19.7c-15.2,0-29.7-2.9-43.6-8.8s-25.8-13.9-35.8-23.9
		s-18-22-23.9-35.8s-8.8-28.4-8.8-43.6s2.9-29.7,8.8-43.6s13.9-25.8,23.9-35.8s22-18,35.8-23.9s28.4-8.8,43.6-8.8s29.7,2.9,43.6,8.8
		s25.8,13.9,35.8,23.9s18,22,23.9,35.8s8.8,28.4,8.8,43.6c0,23.4-6.6,44.5-19.7,63.5l54.6,54.6C498,469.2,500,474,500,479.6z"/>
</g>
<path d="M350,0H40C17.9,0,0,17.9,0,40v420c0,22.1,17.9,40,40,40h210c11,0,20-9,20-20v0c0-11-9-20-20-20H40c0,0,0,0,0,0V40l0,0h310
	l0,0v150c0,11,9,20,20,20h0c11,0,20-9,20-20V40C390,17.9,372.1,0,350,0z"/>
</svg>
