<?xml version="1.0" encoding="UTF-8"?>
<svg width="500px" height="500px" viewBox="0 0 500 500" version="1.1" xmlns="http://www.w3.org/2000/svg" xmlns:xlink="http://www.w3.org/1999/xlink">
    <!-- Generator: Sketch 52.6 (67491) - http://www.bohemiancoding.com/sketch -->
    <title>difference</title>
    <desc>Created with Sketch.</desc>
    <defs>
        <polygon id="path-1" points="0.000873684211 0 496.878772 0 496.878772 299.740667 0.000873684211 299.740667"></polygon>
    </defs>
    <g id="difference" stroke="none" stroke-width="1" fill="none" fill-rule="evenodd">
        <g id="Group-3" transform="translate(1.000000, 100.000000)">
            <mask id="mask-2" fill="white">
                <use xlink:href="#path-1"></use>
            </mask>
            <g id="Clip-2"></g>
            <path d="M347.010768,282.266982 C315.170804,282.266982 284.935505,271.028491 260.947049,250.450316 C286.033435,222.841895 299.74154,187.466421 299.74154,149.871789 C299.74154,112.277158 286.033435,76.9016842 260.947049,49.2903509 C284.935505,28.7150877 315.173716,17.4736842 347.010768,17.4736842 C420.012909,17.4736842 479.405961,76.8696491 479.405961,149.871789 C479.405961,222.87393 420.012909,282.266982 347.010768,282.266982 M248.438804,61.565614 C270.298382,85.8831579 282.267856,116.90186 282.267856,149.871789 C282.267856,182.844632 270.298382,213.863333 248.438804,238.175053 C226.579225,213.863333 214.612663,182.844632 214.612663,149.871789 C214.612663,116.90186 226.579225,85.8831579 248.438804,61.565614 M347.010768,0 C310.455821,0 275.77347,13.1023509 248.438804,37.0354737 C221.107049,13.1023509 186.424698,0 149.872663,0 C67.233786,0 0.000873684211,67.2329123 0.000873684211,149.871789 C0.000873684211,232.510667 67.233786,299.740667 149.872663,299.740667 C186.427611,299.740667 221.109961,286.638316 248.438804,262.705193 C275.770558,286.638316 310.449996,299.740667 347.010768,299.740667 C429.649646,299.740667 496.879646,232.510667 496.879646,149.871789 C496.879646,67.2329123 429.649646,0 347.010768,0" id="Fill-1" fill="#1D1D1B" mask="url(#mask-2)"></path>
        </g>
    </g>
</svg>