<?xml version="1.0" encoding="utf-8"?>
<!-- Generator: Adobe Illustrator 27.0.0, SVG Export Plug-In . SVG Version: 6.00 Build 0)  -->
<svg version="1.1" id="Ebene_1" xmlns="http://www.w3.org/2000/svg" xmlns:xlink="http://www.w3.org/1999/xlink" x="0px" y="0px"
	 viewBox="0 0 500 500" style="enable-background:new 0 0 500 500;" xml:space="preserve">
<path id="path-1_00000013156644499462149800000007481696667781694641_" d="M240,45.7v106.1c0,19.7,7.3,37.4,21.2,51.3
	c13.9,13.9,31.6,21.2,51.3,21.2h106.1v230.1H81.4V45.7H240 M285.7,0H62.5c-7.4,0-13.8,2.6-19,7.8c-5.2,5.2-7.8,11.5-7.8,19v446.4
	c0,7.4,2.6,13.8,7.8,19c5.2,5.2,11.5,7.8,19,7.8h375c7.4,0,13.8-2.6,19-7.8c5.2-5.2,7.8-11.5,7.8-19V178.6H312.5
	c-7.4,0-13.8-2.6-19-7.8c-5.2-5.2-7.8-11.5-7.8-19V0L285.7,0z M321.4,11.2v131.7h131.7c-2.6-4.1-5.2-7.4-7.8-10L331.5,19
	C328.9,16.4,325.5,13.8,321.4,11.2L321.4,11.2z"/>
<path d="M346,316H154c-6.3,0-11.4-5.1-11.4-11.4v-22.8c0-6.3,5.1-11.4,11.4-11.4H346c6.3,0,11.4,5.1,11.4,11.4v22.8
	C357.4,310.9,352.3,316,346,316z"/>
<path d="M346,407.4H154c-6.3,0-11.4-5.1-11.4-11.4v-22.8c0-6.3,5.1-11.4,11.4-11.4H346c6.3,0,11.4,5.1,11.4,11.4V396
	C357.4,402.3,352.3,407.4,346,407.4z"/>
</svg>
