<?xml version="1.0" encoding="utf-8"?>
<!-- Generator: Adobe Illustrator 27.0.0, SVG Export Plug-In . SVG Version: 6.00 Build 0)  -->
<svg version="1.1" id="Ebene_1" xmlns="http://www.w3.org/2000/svg" xmlns:xlink="http://www.w3.org/1999/xlink" x="0px" y="0px"
	 viewBox="0 0 500 500" style="enable-background:new 0 0 500 500;" xml:space="preserve">
<g>
	<path d="M445.3,132.8L331.5,19c-2.6-2.6-6-5.2-10-7.8v131.7h131.7C450.5,138.8,447.9,135.4,445.3,132.8z"/>
	<path d="M312.5,178.6c-7.4,0-13.8-2.6-19-7.8c-5.2-5.2-7.8-11.5-7.8-19V0H62.5c-7.4,0-13.8,2.6-19,7.8c-5.2,5.2-7.8,11.5-7.8,19
		v446.4c0,7.4,2.6,13.8,7.8,19c5.2,5.2,11.5,7.8,19,7.8h375c7.4,0,13.8-2.6,19-7.8c5.2-5.2,7.8-11.5,7.8-19V178.6H312.5z M357.4,396
		c0,6.3-5.1,11.4-11.4,11.4H154c-6.3,0-11.4-5.1-11.4-11.4v-22.8c0-6.3,5.1-11.4,11.4-11.4H346c6.3,0,11.4,5.1,11.4,11.4V396z
		 M357.4,304.6c0,6.3-5.1,11.4-11.4,11.4H154c-6.3,0-11.4-5.1-11.4-11.4v-22.8c0-6.3,5.1-11.4,11.4-11.4H346
		c6.3,0,11.4,5.1,11.4,11.4V304.6z"/>
</g>
</svg>
