<svg clip-rule="evenodd" fill-rule="evenodd" stroke-linejoin="round" stroke-miterlimit="2" viewBox="0 0 640 640" xmlns="http://www.w3.org/2000/svg"><path d="m0 0h640v640h-640z" fill="none"/><path d="m640 256c0-17.661-14.339-32-32-32h-576c-17.661 0-32 14.339-32 32s14.339 32 32 32h576c17.661 0 32-14.339 32-32z"/><path d="m640 384c0-17.661-14.339-32-32-32h-576c-17.661 0-32 14.339-32 32s14.339 32 32 32h576c17.661 0 32-14.339 32-32z"/><path d="m308.686 11.314c6.249-6.249 16.379-6.249 22.628 0 25.042 25.042 85.753 85.753 121.372 121.372 4.576 4.576 5.945 11.458 3.469 17.437-2.477 5.979-8.311 9.877-14.782 9.877-61.55 0-181.196 0-242.746 0-6.471 0-12.305-3.898-14.782-9.877-2.476-5.979-1.107-12.861 3.469-17.437 35.619-35.619 96.33-96.33 121.372-121.372z"/><path d="m331.314 628.686c-6.249 6.249-16.379 6.249-22.628 0-25.042-25.042-85.753-85.753-121.372-121.372-4.576-4.576-5.945-11.458-3.469-17.437 2.477-5.979 8.311-9.877 14.782-9.877h242.746c6.471 0 12.305 3.898 14.782 9.877 2.476 5.979 1.107 12.861-3.469 17.437-35.619 35.619-96.33 96.33-121.372 121.372z"/></svg>