<?xml version="1.0" encoding="utf-8"?>
<!-- Generator: Adobe Illustrator 27.3.1, SVG Export Plug-In . SVG Version: 6.00 Build 0)  -->
<svg version="1.1" id="Ebene_1" xmlns="http://www.w3.org/2000/svg" xmlns:xlink="http://www.w3.org/1999/xlink" x="0px" y="0px"
	 viewBox="0 0 500 500" style="enable-background:new 0 0 500 500;" xml:space="preserve">
<path d="M456.3,173.3l16.9-16.9c35.8-35.8,35.8-93.8,0-129.6s-93.8-35.8-129.6,0l-16.9,16.9L456.3,173.3z"/>
<rect x="277.8" y="80.6" transform="matrix(0.7071 -0.7071 0.7071 0.7071 -25.7551 282.2459)" width="100" height="183.2"/>
<path d="M199.4,171L45.1,325.3c-2.5,2.5-4.3,5.6-5.3,9l-39,139.6c-4.3,15.4,9.9,29.6,25.3,25.3l139.6-39.1c3.4-0.9,6.4-2.7,8.9-5.2
	L329,300.6L199.4,171z"/>
</svg>
