<?xml version="1.0" encoding="UTF-8"?>
<svg width="500px" height="500px" viewBox="0 0 500 500" version="1.1" xmlns="http://www.w3.org/2000/svg" xmlns:xlink="http://www.w3.org/1999/xlink">
    <!-- Generator: Sketch 52.6 (67491) - http://www.bohemiancoding.com/sketch -->
    <title>edn</title>
    <desc>Created with Sketch.</desc>
    <defs>
        <polygon id="path-1" points="0 0.0004 428.571 0.0004 428.571 500 0 500"></polygon>
    </defs>
    <g id="edn" stroke="none" stroke-width="1" fill="none" fill-rule="evenodd">
        <g id="Group-8" transform="translate(36.000000, 0.000000)">
            <g id="Group-3">
                <mask id="mask-2" fill="white">
                    <use xlink:href="#path-1"></use>
                </mask>
                <g id="Clip-2"></g>
                <path d="M276.7857,178.5714 L428.5717,178.5714 L428.5717,473.2144 C428.5717,480.6544 425.9677,486.9794 420.7587,492.1874 C415.5507,497.3954 409.2257,500.0004 401.7857,500.0004 L26.7857,500.0004 C19.3457,500.0004 13.0207,497.3954 7.8127,492.1874 C2.6037,486.9794 -0.0003,480.6544 -0.0003,473.2144 L-0.0003,26.7854 C-0.0003,19.3454 2.6037,13.0204 7.8127,7.8124 C13.0207,2.6044 19.3457,0.0004 26.7857,0.0004 L249.9997,0.0004 L249.9997,151.7854 C249.9997,159.2264 252.6037,165.5504 257.8127,170.7594 C263.0207,175.9674 269.3457,178.5714 276.7857,178.5714" id="Fill-1" fill="#020203" mask="url(#mask-2)"></path>
            </g>
            <path d="M409.5982,132.8125 C412.2022,135.4165 414.8062,138.7645 417.4102,142.8575 L285.7142,142.8575 L285.7142,11.1605 C289.8062,13.7645 293.1552,16.3685 295.7592,18.9735 L409.5982,132.8125 Z" id="Fill-4" fill="#020203"></path>
            <path d="M222.1234,345.2956 C213.0324,345.1056 205.4874,338.5256 203.8114,329.8716 C203.9674,328.6966 204.0554,327.5006 204.0554,326.2826 L204.0554,285.3136 C204.0554,275.1406 212.0754,266.7946 222.1234,266.2746 L222.1234,345.2956 Z M274.1344,288.9766 L304.7354,288.9766 C311.1334,288.9766 316.3204,283.7906 316.3204,277.3916 L316.3204,246.7906 C316.3204,240.3926 311.1334,235.2056 304.7354,235.2056 L274.1344,235.2056 C267.7364,235.2056 262.5494,240.3926 262.5494,246.7906 L262.5494,258.0426 C255.0814,258.0416 244.4184,258.0516 230.2894,258.0716 L230.2894,197.9746 C230.2894,182.9826 218.0944,170.7676 203.1054,170.7436 C192.3964,170.7266 179.7994,170.7116 169.5244,170.7116 C163.5994,170.7146 158.4514,170.7166 154.8764,170.7296 C152.3314,170.7386 150.7314,170.7446 149.6604,170.8106 L149.6604,159.4936 C149.6604,153.0956 144.4734,147.9086 138.0754,147.9086 L107.4744,147.9086 C101.0764,147.9086 95.8894,153.0956 95.8894,159.4936 L95.8894,190.0946 C95.8894,196.4936 101.0764,201.6796 107.4744,201.6796 L138.0754,201.6796 C144.4734,201.6796 149.6604,196.4936 149.6604,190.0946 L149.6604,178.9876 C150.3364,178.9546 157.1644,178.8366 203.0924,178.9096 C213.5864,178.9266 222.1234,187.4786 222.1234,197.9746 L222.1234,258.1086 C212.5814,258.4536 204.2764,263.7346 199.6874,271.4696 C194.9514,263.4546 186.2334,258.0566 176.2774,258.0406 C165.7664,258.0246 156.9364,258.0126 149.6604,258.0066 L149.6604,246.7906 C149.6604,240.3926 144.4734,235.2056 138.0754,235.2056 L107.4744,235.2056 C101.0764,235.2056 95.8894,240.3926 95.8894,246.7906 L95.8894,277.3916 C95.8894,283.7906 101.0764,288.9766 107.4744,288.9766 L138.0754,288.9766 C144.4734,288.9766 149.6604,283.7906 149.6604,277.3916 L149.6604,266.1726 C156.9564,266.1786 165.7944,266.1906 176.2644,266.2066 C186.7584,266.2236 195.2944,274.7756 195.2944,285.2716 L195.2944,326.2416 C195.2944,327.4756 195.3854,328.6876 195.5454,329.8786 C193.8584,338.6776 186.1074,345.3476 176.8254,345.3476 L149.6604,345.3476 L149.6604,334.0876 C149.6604,327.6896 144.4734,322.5036 138.0754,322.5036 L107.4744,322.5036 C101.0764,322.5036 95.8894,327.6896 95.8894,334.0876 L95.8894,364.6896 C95.8894,371.0876 101.0764,376.2736 107.4744,376.2736 L138.0754,376.2736 C144.4734,376.2736 149.6604,371.0876 149.6604,364.6896 L149.6604,353.5136 L176.8254,353.5136 C186.4014,353.5136 194.8324,348.5406 199.6884,341.0456 C201.9514,344.5236 204.9814,347.4566 208.5434,349.5966 C200.9464,354.4356 195.8894,362.9286 195.8894,372.5766 L195.8894,413.5466 C195.8894,424.0586 187.3374,432.6116 176.8254,432.6116 L149.6604,432.6116 L149.6604,421.3856 C149.6604,414.9866 144.4734,409.8006 138.0754,409.8006 L107.4744,409.8006 C101.0764,409.8006 95.8894,414.9866 95.8894,421.3856 L95.8894,451.9866 C95.8894,458.3846 101.0764,463.5716 107.4744,463.5716 L138.0754,463.5716 C144.4734,463.5716 149.6604,458.3846 149.6604,451.9866 L149.6604,440.7776 L176.8254,440.7776 C191.8404,440.7776 204.0554,428.5616 204.0554,413.5466 L204.0554,372.5766 C204.0554,362.4046 212.0754,354.0576 222.1234,353.5386 L222.1234,413.6136 C222.1234,428.6286 234.3384,440.8446 249.3534,440.8446 L262.5494,440.8446 L262.5494,451.9866 C262.5494,458.3846 267.7364,463.5716 274.1344,463.5716 L304.7354,463.5716 C311.1334,463.5716 316.3204,458.3846 316.3204,451.9866 L316.3204,421.3856 C316.3204,414.9866 311.1334,409.8006 304.7354,409.8006 L274.1344,409.8006 C267.7364,409.8006 262.5494,414.9866 262.5494,421.3856 L262.5494,432.6786 L249.3534,432.6786 C238.8424,432.6786 230.2894,424.1256 230.2894,413.6136 L230.2894,353.5016 C242.0554,353.4836 251.4654,353.4736 258.6294,353.4716 L262.5494,353.4716 L262.5494,364.6896 C262.5494,371.0876 267.7364,376.2736 274.1344,376.2736 L304.7354,376.2736 C311.1334,376.2736 316.3204,371.0876 316.3204,364.6896 L316.3204,334.0876 C316.3204,327.6896 311.1334,322.5036 304.7354,322.5036 L274.1344,322.5036 C267.7364,322.5036 262.5494,327.6896 262.5494,334.0876 L262.5494,345.3056 L230.2894,345.3056 L230.2894,266.2376 C244.3384,266.2166 255.0294,266.2076 262.5494,266.2076 L262.5494,277.3916 C262.5494,283.7906 267.7364,288.9766 274.1344,288.9766 Z" id="Fill-6" fill="#FEFEFE"></path>
        </g>
    </g>
</svg>