<svg height="1536" viewBox="0 0 1536 1536" width="1536" xmlns="http://www.w3.org/2000/svg"><g><path d="m558.992 863.008c-6.667-6.666-14.333-9.999-23-9.999s-16.333 3.333-23 10l-259.991 259.991-144-144.001c-12.666-12.667-27.666-18.999-45-19-17.333.001-32.333 6.333-45 19-12.666 12.667-19 27.668-19 45v448.001c0 17.334 6.334 32.333 19 45 12.667 12.666 27.667 18.999 45 19l448-.001c17.334.001 32.334-6.333 45-19 12.667-12.666 19-27.666 19-45 .001-17.333-6.333-32.333-19-45l-144-144 259.991-259.99c6.667-6.667 10-14.333 10-23.001 0-8.666-3.333-16.333-10-22.999z"/><path d="m976.302 673.698c6.667 6.667 14.334 10 23 10 8.667 0 16.334-3.333 23-10l260.698-260.698 144 144c12.667 12.667 27.667 19 45 19 17.334 0 32.334-6.333 44.999-19 12.667-12.667 19.001-27.667 19-45l.001-448c0-17.333-6.333-32.333-19-45-12.666-12.667-27.666-19-45-19h-448c-17.333 0-32.333 6.333-45 19-12.666 12.667-19 27.667-19 45s6.334 32.333 19 45l144 144-260.698 260.699c-6.666 6.666-10 14.333-10 23s3.334 16.333 10 23z"/><path d="m413.001 253.001 144-144c12.667-12.666 19-27.666 19-45 0-17.333-6.333-32.333-19-45-12.667-12.666-27.667-19-45-19h-448c-17.333 0-32.333 6.333-45 19s-18.999 27.666-19 45l.001 448c-.001 17.334 6.333 32.333 19 45s27.667 18.999 45 19c17.333 0 32.333-6.333 45-19.001l144-144 259.991 259.991c6.667 6.667 14.332 10.001 23 10.001 8.667 0 16.333-3.333 23-10l114-114c6.667-6.667 10-14.333 10-23 0-8.666-3.333-16.333-10-23z"/><path d="m1472 960.001c-17.333 0-32.333 6.333-45 19l-144 144-260.698-260.699c-6.667-6.666-14.332-9.999-23-9.999-8.667-.001-16.332 3.334-22.999 9.999l-114.001 114.001c-6.666 6.666-10 14.333-10 23s3.333 16.334 10 22.999l260.698 260.699-143.999 143.999c-12.667 12.667-19 27.668-19 45-.001 17.335 6.333 32.334 18.999 45 12.667 12.667 27.668 19.001 45.001 19.001h447.999c17.333-.001 32.332-6.333 45-19.001 12.667-12.665 19-27.665 19-45v-447.999c0-17.333-6.333-32.334-19-45.001-12.667-12.665-27.667-18.999-45-18.999z"/></g></svg>