<?xml version="1.0" encoding="utf-8"?>
<!-- Generator: Adobe Illustrator 15.0.0, SVG Export Plug-In . SVG Version: 6.00 Build 0)  -->
<!DOCTYPE svg PUBLIC "-//W3C//DTD SVG 1.1//EN" "http://www.w3.org/Graphics/SVG/1.1/DTD/svg11.dtd">
<svg version="1.1" id="Ebene_1" xmlns="http://www.w3.org/2000/svg" xmlns:xlink="http://www.w3.org/1999/xlink" x="0px" y="0px"
	 width="1417.323px" height="1417.322px" viewBox="187.339 187.339 1417.323 1417.322"
	 enable-background="new 187.339 187.339 1417.323 1417.322" xml:space="preserve">
<g>
	<path d="M1024.306,1195.311c69.153-26.598,125.526-70.968,167.553-131.879c42.034-60.924,63.348-129.316,63.348-203.276
		c0-20.755-2.15-43.374-6.392-67.229l-4.788-26.936l-244.854,438.987L1024.306,1195.311z"/>
	<path d="M1224.319,523.27l0.219-0.412c1.284-2.571,1.808-5.867,1.808-11.377c0-12.167-5.86-22.282-16.947-29.256
		c-1.204-0.793-4.257-2.677-15.629-9.225c-8.495-4.891-16.712-9.716-24.42-14.342c-7.914-4.749-16.731-9.692-26.206-14.693
		c-9.464-4.995-17.756-9.14-24.646-12.32c-8.472-3.91-13.893-5.578-18.127-5.578c-12.722,0-23.133,5.9-30.109,17.063l-0.131,0.209
		l-38.845,69.777C985.889,505.042,940.409,500.95,896,500.95c-70.488,0-139.196,9.04-204.217,26.868
		c-65.036,17.832-128.185,44.951-187.691,80.603c-59.398,35.586-114.723,78.241-164.438,126.778
		c-49.683,48.506-95.149,104.242-135.157,165.693c-11.385,17.646-17.158,37.533-17.158,59.108s5.773,41.462,17.147,59.092
		c46.021,71.647,101.311,136.616,164.333,193.1c60.354,54.095,126.994,98.477,198.227,132.033
		c-27.807,48.051-30.252,58.04-30.252,63.516c0,12.72,5.901,23.132,17.063,30.108l0.315,0.189
		c97.417,55.896,104.614,55.896,109.377,55.896c12.721,0,23.132-5.9,30.109-17.063l0.143-0.229l38.323-69.607
		c54.324-97.265,136.997-245.813,245.722-441.52C1086.563,769.828,1169.488,621.035,1224.319,523.27z M735.577,699.733
		c44.429-44.43,98.403-66.958,160.423-66.958c7.779,0,14.199,2.638,19.627,8.065c5.427,5.427,8.064,11.846,8.064,19.626
		s-2.638,14.2-8.064,19.626c-5.428,5.427-11.848,8.065-19.627,8.065c-47.194,0-88.093,16.97-121.56,50.438
		c-33.468,33.469-50.438,74.367-50.438,121.56c0,7.78-2.638,14.2-8.064,19.626c-5.427,5.427-11.847,8.065-19.627,8.065
		c-7.78,0-14.2-2.638-19.627-8.065c-5.426-5.426-8.064-11.846-8.064-19.626C668.62,798.136,691.148,744.162,735.577,699.733z
		 M536.794,860.155c0,56.939,13.218,111.706,39.288,162.78c24.751,48.493,59.079,89.613,102.107,122.337l-52.341,94.616
		c-127.436-59.229-234.131-153.351-317.283-279.901c70.856-108.378,158.844-192.839,261.952-251.522
		C548.123,755.855,536.794,806.741,536.794,860.155z"/>
	<path d="M1587.715,901.234l-0.043-0.073c-29.899-49.831-68.295-98.732-114.124-145.346
		c-45.748-46.531-94.149-87.106-143.86-120.596l-8.766-5.904l-58.688,104.335l7.333,5.05
		c83.721,57.652,155.655,132.086,213.881,221.294c-61.342,93.805-138.333,171.609-228.928,231.336
		c-92.053,60.688-193.533,96.112-301.622,105.29l-5.151,0.437l-68.391,121.994H896c58.176,0,115.555-6.314,170.543-18.767
		c54.997-12.455,109.135-31.397,160.908-56.301c51.717-24.876,101.01-55.216,146.508-90.174
		c45.477-34.941,88.433-75.476,127.705-120.507c36.584-42.333,65.51-80.825,85.973-114.406l0.078-0.131
		c11.245-19.117,16.946-38.889,16.946-58.766S1598.96,920.352,1587.715,901.234z"/>
</g>
</svg>
