<?xml version="1.0" encoding="utf-8"?>
<!-- Generator: Adobe Illustrator 15.0.0, SVG Export Plug-In . SVG Version: 6.00 Build 0)  -->
<!DOCTYPE svg PUBLIC "-//W3C//DTD SVG 1.1//EN" "http://www.w3.org/Graphics/SVG/1.1/DTD/svg11.dtd">
<svg version="1.1" id="Ebene_1" xmlns="http://www.w3.org/2000/svg" xmlns:xlink="http://www.w3.org/1999/xlink" x="0px" y="0px"
	 width="1138px" height="1188px" viewBox="0 0 1138 1188" enable-background="new 0 0 1138 1188" xml:space="preserve">
<title>Untitled</title>
<desc>Created with Sketch.</desc>
<g>
	<defs>
		<path id="SVGID_1_" d="M1129.137,761.701c-6.201-6.202-13.732-9.303-22.591-9.303H968.339V614.189
			c0-8.859-3.102-16.391-9.304-22.591c-6.201-6.202-13.732-9.302-22.592-9.302h-63.788c-8.86,0-16.391,3.101-22.593,9.302
			c-6.201,6.201-9.303,13.732-9.303,22.591v138.209H702.552c-8.859,0-16.39,3.101-22.591,9.303
			c-6.202,6.2-9.304,13.731-9.304,22.591v63.789c0,8.859,3.102,16.39,9.304,22.591c6.201,6.202,13.731,9.303,22.591,9.303H840.76
			v138.209c0,8.859,3.102,16.39,9.303,22.592c6.202,6.201,13.732,9.302,22.593,9.302h63.788c8.859,0,16.391-3.101,22.592-9.302
			c6.202-6.202,9.304-13.732,9.304-22.592V879.975h138.207c8.858,0,16.39-3.101,22.591-9.303c6.203-6.201,9.303-13.731,9.303-22.591
			v-63.789C1138.44,775.433,1135.34,767.901,1129.137,761.701"/>
	</defs>
	<use xlink:href="#SVGID_1_"  overflow="visible" fill-rule="evenodd" clip-rule="evenodd"/>
	<clipPath id="SVGID_2_">
		<use xlink:href="#SVGID_1_"  overflow="visible"/>
	</clipPath>
	<rect x="665.865" y="577.502" clip-path="url(#SVGID_2_)" width="477.369" height="477.368"/>
</g>
<g>
	<defs>
		<path id="SVGID_3_" d="M264.525,608.576c12.012,28.91,30.252,55.719,54.213,79.682c23.961,23.961,50.771,42.199,79.682,54.213
			c28.917,12.014,60.677,18.105,94.398,18.105s65.482-6.092,94.399-18.105c28.912-12.014,55.721-30.252,79.683-54.213
			c23.96-23.963,42.201-50.771,54.213-79.682c12.015-28.918,18.106-60.678,18.106-94.4c0-35.218-7.179-68.831-21.378-100.255
			c52.334,30.385,98.968,70.642,138.896,119.947l3.055,3.772l4.755-0.977c3.758-0.771,7.667-1.162,11.62-1.162h86.195l-8.212-12.393
			c-24.387-36.802-52.859-70.627-84.629-100.537c-31.766-29.905-67.71-56.729-106.833-79.723
			c-42.355-24.894-86.527-43.832-131.292-56.289c-44.793-12.465-91.418-18.785-138.579-18.785c-47.16,0-93.784,6.32-138.578,18.785
			c-44.765,12.457-88.938,31.396-131.292,56.289c-42.315,24.869-80.857,54.182-114.558,87.121
			C74.68,462.92,44.88,500.415,19.816,541.412l-0.12,0.203C11.935,555.196,8,568.883,8,582.295c0,13.414,3.935,27.101,11.695,40.681
			l0.12,0.203c25.064,40.996,54.865,78.492,88.576,111.441c33.701,32.939,72.243,62.252,114.558,87.121
			c42.354,24.893,86.527,43.832,131.292,56.289c44.794,12.463,91.418,18.785,138.578,18.785c43.367,0,86.342-5.332,127.734-15.844
			l7.411-1.883l-1.561-7.484c-0.793-3.803-1.195-7.766-1.195-11.773v-67.158l-10.213,2.971
			c-38.965,11.338-80.072,17.086-122.176,17.086c-81.152,0-157.559-21.365-227.096-63.504
			c-68.351-41.42-126.224-97.566-172.089-166.948c47.306-72.13,105.798-128.655,174.161-168.356
			c-14.199,31.424-21.377,65.036-21.377,100.254C246.418,547.898,252.51,579.658,264.525,608.576 M509.853,397.292
			c-4.294,4.295-9.375,6.383-15.533,6.383c-37.741,0-70.448,13.571-97.212,40.335c-26.764,26.765-40.335,59.472-40.335,97.212
			c0,6.158-2.088,11.239-6.383,15.534c-4.294,4.295-9.376,6.383-15.534,6.383c-6.158,0-11.24-2.088-15.535-6.383
			c-4.294-4.295-6.382-9.376-6.382-15.534c0-49.473,17.97-92.527,53.413-127.968c35.441-35.442,78.496-53.412,127.968-53.412
			c6.158,0,11.239,2.088,15.534,6.383c4.294,4.294,6.382,9.375,6.382,15.533S514.148,392.999,509.853,397.292"/>
	</defs>
	<use xlink:href="#SVGID_3_"  overflow="visible" fill-rule="evenodd" clip-rule="evenodd"/>
	<clipPath id="SVGID_4_">
		<use xlink:href="#SVGID_3_"  overflow="visible"/>
	</clipPath>
	<g clip-path="url(#SVGID_4_)">
		<defs>
			<rect id="SVGID_5_" x="8" y="267.243" width="954.811" height="629.83"/>
		</defs>
		<use xlink:href="#SVGID_5_"  overflow="visible"/>
		<clipPath id="SVGID_6_">
			<use xlink:href="#SVGID_5_"  overflow="visible"/>
		</clipPath>
		<rect x="3.207" y="262.983" clip-path="url(#SVGID_6_)" width="963.949" height="638.626"/>
	</g>
</g>
</svg>
