<?xml version="1.0" encoding="UTF-8"?>
<svg width="500px" height="500px" viewBox="0 0 500 500" version="1.1" xmlns="http://www.w3.org/2000/svg" xmlns:xlink="http://www.w3.org/1999/xlink">
    <!-- Generator: Sketch 52.5 (67469) - http://www.bohemiancoding.com/sketch -->
    <title>eye</title>
    <desc>Created with Sketch.</desc>
    <defs>
        <path d="M500,249.500176 C500,255.816032 498.139899,262.225157 494.419344,268.726494 C468.377222,311.452231 433.36094,345.679631 389.36944,371.40799 C345.377589,397.135997 298.920521,410 250,410 C201.078774,410 154.622411,397.089186 110.63056,371.268263 C66.6387076,345.446988 31.6220731,311.26675 5.58030365,268.726142 C1.85974879,262.224453 0,255.815328 0,249.499824 C0,243.183968 1.85974879,236.774843 5.58030365,230.273154 C31.6220731,187.73325 66.6383552,153.55266 110.63056,127.731385 C154.622411,101.910462 201.078774,89 250,89 C298.920521,89 345.377589,101.910462 389.36944,127.731737 C433.36094,153.553012 468.377574,187.733602 494.419344,230.273506 C498.139899,236.775195 500,243.18432 500,249.500176 M263,142.3637 C263,138.6516 261.700629,135.496175 259.102239,132.897775 C256.503497,130.299376 253.348434,129 249.636348,129 C226.435455,129 206.529232,137.305806 189.91768,153.917769 C173.305776,170.529733 165,190.436027 165,213.636651 C165,217.348751 166.299019,220.504177 168.897761,223.102576 C171.496152,225.700976 174.651214,227 178.363652,227 C182.075739,227 185.230802,225.700976 187.829543,223.102576 C190.427934,220.504177 191.726953,217.348751 191.726953,213.636651 C191.726953,197.674551 197.38792,184.03269 208.709855,172.710363 C220.031437,161.388388 233.673602,155.727401 249.635996,155.727401 C253.348083,155.727401 256.502794,154.428025 259.101887,151.829625 C261.700629,149.231226 263,146.0758 263,142.3637 M465,249.276104 C436.697674,205.474133 401.227251,172.715315 358.587672,151 C369.945361,170.302658 375.624383,191.18281 375.624383,213.640453 C375.624383,247.976413 363.381925,277.348158 338.897364,301.754283 C314.412449,326.161112 284.945956,338.36435 250.5,338.36435 C216.052986,338.36435 186.587198,326.161112 162.102636,301.754283 C137.617016,277.348158 125.374912,247.976413 125.374912,213.640453 C125.374912,191.182458 131.05358,170.302307 142.411976,151 C99.7727493,172.715667 64.3019731,205.474485 36,249.276104 C60.7643146,287.324762 91.812665,317.623803 129.145404,340.174282 C166.478143,362.725464 206.929792,374 250.5,374 C294.070208,374 334.521857,362.725464 371.854596,340.174282 C409.187335,317.623803 440.235685,287.32441 465,249.276104" id="path-1"></path>
    </defs>
    <g id="eye" stroke="none" stroke-width="1" fill="none" fill-rule="evenodd">
        <mask id="mask-2" fill="white">
            <use xlink:href="#path-1"></use>
        </mask>
        <use id="Fill-1" fill="#000000" xlink:href="#path-1"></use>
    </g>
</svg>