<?xml version="1.0" encoding="utf-8"?>
<!-- Generator: Adobe Illustrator 25.2.2, SVG Export Plug-In . SVG Version: 6.00 Build 0)  -->
<svg version="1.1" id="Ebene_1" xmlns="http://www.w3.org/2000/svg" xmlns:xlink="http://www.w3.org/1999/xlink" x="0px" y="0px"
	 viewBox="0 0 500 500" style="enable-background:new 0 0 500 500;" xml:space="preserve">
<g>
	<path d="M192.6,395.3c-8.8-8.8-13.7-20.4-13.9-32.7h-59.3c-2.4,0-4.4-0.8-5.9-2.3c-1.5-1.5-2.3-3.5-2.3-5.9v-16.5
		c0-2.4,0.8-4.4,2.3-5.9c1.5-1.5,3.5-2.3,5.9-2.3h71.9c0.4-0.5,0.9-1,1.3-1.4c9-9,20.9-14,33.6-14h32.4v-17.5H119.4
		c-2.4,0-4.4-0.8-5.9-2.3c-1.5-1.5-2.3-3.5-2.3-5.9v-16.5c0-2.4,0.8-4.4,2.3-5.9c1.5-1.5,3.5-2.3,5.9-2.3h139.2v-18.4
		c0-5,0.8-9.9,2.3-14.6H119.4c-2.4,0-4.4-0.8-5.9-2.3c-1.5-1.5-2.3-3.5-2.3-5.9V206c0-2.4,0.8-4.4,2.3-5.9c1.5-1.5,3.5-2.3,5.9-2.3
		h181.3c0.6,0,1.1,0,1.7,0.1c1.2-0.1,2.5-0.2,3.7-0.2h87.2c5,0,9.9,0.8,14.6,2.3v-35.2H267.7c-6.9,0-12.7-2.4-17.5-7.2
		c-4.8-4.8-7.2-10.6-7.2-17.5V0H37c-6.9,0-12.7,2.4-17.5,7.2s-7.2,10.6-7.2,17.5v412c0,6.9,2.4,12.7,7.2,17.5s10.6,7.2,17.5,7.2
		h221.7L192.6,395.3z"/>
	<path d="M390.3,122.6L285.3,17.5c-2.4-2.4-5.5-4.8-9.3-7.2v121.5h121.5C395.1,128.1,392.7,125,390.3,122.6z"/>
</g>
<g id="Path_2_">
	<path d="M349.7,500c-3.9,0-7.3-1.4-10.2-4.3L216,372c-2.9-2.9-4.3-6.3-4.3-10.2s1.4-7.4,4.3-10.2c2.9-2.9,6.3-4.3,10.2-4.3h65.4
		V245.3c0-3.9,1.4-7.4,4.3-10.2c2.9-2.9,6.3-4.3,10.2-4.3h87.2c3.9,0,7.3,1.4,10.2,4.3c2.9,2.9,4.3,6.3,4.3,10.2v101.9h65.4
		c3.9,0,7.3,1.4,10.2,4.3c2.9,2.9,4.3,6.3,4.3,10.2s-1.4,7.4-4.3,10.2L359.9,495.7C357,498.6,353.6,500,349.7,500z"/>
</g>
</svg>
