<?xml version="1.0" encoding="UTF-8"?>
<svg width="500px" height="500px" viewBox="0 0 500 500" version="1.1" xmlns="http://www.w3.org/2000/svg" xmlns:xlink="http://www.w3.org/1999/xlink">
    <!-- Generator: Sketch 52.6 (67491) - http://www.bohemiancoding.com/sketch -->
    <title>file-text</title>
    <desc>Created with Sketch.</desc>
    <defs>
        <path d="M445.598214,132.8125 C448.202381,135.416667 450.806548,138.764881 453.410714,142.857143 L321.714286,142.857143 L321.714286,11.1607143 C325.806548,13.764881 329.154762,16.3690476 331.758929,18.9732143 L445.598214,132.8125 Z M312.785714,178.571429 L464.571429,178.571429 L464.571429,473.214286 C464.571429,480.654762 461.967262,486.979167 456.758929,492.1875 C451.550595,497.395833 445.22619,500 437.785714,500 L62.7857143,500 C55.3452381,500 49.0208333,497.395833 43.8125,492.1875 C38.6041667,486.979167 36,480.654762 36,473.214286 L36,26.7857143 C36,19.3452381 38.6041667,13.0208333 43.8125,7.8125 C49.0208333,2.60416667 55.3452381,0 62.7857143,0 L286,0 L286,151.785714 C286,159.22619 288.604167,165.550595 293.8125,170.758929 C299.020833,175.967262 305.345238,178.571429 312.785714,178.571429 Z M357.428571,383.928571 L357.428571,366.071429 C357.428571,363.467262 356.591518,361.328125 354.917411,359.654018 C353.243304,357.979911 351.104167,357.142857 348.5,357.142857 L152.071429,357.142857 C149.467262,357.142857 147.328125,357.979911 145.654018,359.654018 C143.979911,361.328125 143.142857,363.467262 143.142857,366.071429 L143.142857,383.928571 C143.142857,386.532738 143.979911,388.671875 145.654018,390.345982 C147.328125,392.020089 149.467262,392.857143 152.071429,392.857143 L348.5,392.857143 C351.104167,392.857143 353.243304,392.020089 354.917411,390.345982 C356.591518,388.671875 357.428571,386.532738 357.428571,383.928571 Z M357.428571,312.5 L357.428571,294.642857 C357.428571,292.03869 356.591518,289.899554 354.917411,288.225446 C353.243304,286.551339 351.104167,285.714286 348.5,285.714286 L152.071429,285.714286 C149.467262,285.714286 147.328125,286.551339 145.654018,288.225446 C143.979911,289.899554 143.142857,292.03869 143.142857,294.642857 L143.142857,312.5 C143.142857,315.104167 143.979911,317.243304 145.654018,318.917411 C147.328125,320.591518 149.467262,321.428571 152.071429,321.428571 L348.5,321.428571 C351.104167,321.428571 353.243304,320.591518 354.917411,318.917411 C356.591518,317.243304 357.428571,315.104167 357.428571,312.5 Z M357.428571,241.071429 L357.428571,223.214286 C357.428571,220.610119 356.591518,218.470982 354.917411,216.796875 C353.243304,215.122768 351.104167,214.285714 348.5,214.285714 L152.071429,214.285714 C149.467262,214.285714 147.328125,215.122768 145.654018,216.796875 C143.979911,218.470982 143.142857,220.610119 143.142857,223.214286 L143.142857,241.071429 C143.142857,243.675595 143.979911,245.814732 145.654018,247.488839 C147.328125,249.162946 149.467262,250 152.071429,250 L348.5,250 C351.104167,250 353.243304,249.162946 354.917411,247.488839 C356.591518,245.814732 357.428571,243.675595 357.428571,241.071429 Z" id="path-1"></path>
    </defs>
    <g id="file-text" stroke="none" stroke-width="1" fill="none" fill-rule="evenodd">
        <mask id="mask-2" fill="white">
            <use xlink:href="#path-1"></use>
        </mask>
        <use id="Shape" fill="#000000" fill-rule="nonzero" xlink:href="#path-1"></use>
    </g>
</svg>