<?xml version="1.0" encoding="utf-8"?>
<!-- Generator: Adobe Illustrator 25.4.1, SVG Export Plug-In . SVG Version: 6.00 Build 0)  -->
<svg version="1.1" id="Ebene_1" xmlns="http://www.w3.org/2000/svg" xmlns:xlink="http://www.w3.org/1999/xlink" x="0px" y="0px"
	 viewBox="0 0 500 500" style="enable-background:new 0 0 500 500;" xml:space="preserve">
<desc>Created with Sketch.</desc>
<g id="file">
	<g id="Shape">
		<path d="M445.6,132.8c2.6,2.6,5.2,6,7.8,10H321.7V11.2c4.1,2.6,7.4,5.2,10,7.8L445.6,132.8z"/>
		<path d="M312.8,178.6h151.8v294.6c0,7.4-2.6,13.8-7.8,19c-5.2,5.2-11.5,7.8-19,7.8h-375c-7.4,0-13.8-2.6-19-7.8s-7.8-11.5-7.8-19
			V26.8c0-7.4,2.6-13.8,7.8-19S55.3,0,62.8,0H286v151.8c0,7.4,2.6,13.8,7.8,19S305.3,178.6,312.8,178.6z"/>
	</g>
</g>
</svg>
