<?xml version="1.0" encoding="utf-8"?>
<!-- Generator: Adobe Illustrator 27.0.0, SVG Export Plug-In . SVG Version: 6.00 Build 0)  -->
<svg version="1.1" id="Ebene_1" xmlns="http://www.w3.org/2000/svg" xmlns:xlink="http://www.w3.org/1999/xlink" x="0px" y="0px"
	 viewBox="0 0 500 500" style="enable-background:new 0 0 500 500;" xml:space="preserve">
<g id="Page-1">
	<g id="filter" transform="translate(-1.000000, 0.000000)">
		<path id="Shape_00000120531378247124902170000007180986385623629724_" d="M422.4,45.7L286.8,181.5l-13.4,13.4v18.9v207.8
			l-44.8-44.9V213.8v-18.9l-13.4-13.4L79.6,45.7H422.4 M477.9,0H24.1C14.1,0,7.2,4.6,3.1,13.8c-4,9.7-2.4,18,5,24.9l174.8,175.1
			v172.6c0,6.2,2.2,11.5,6.7,16l90.8,90.9c4.3,4.5,9.6,6.7,16,6.7c2.8,0,5.8-0.6,8.9-1.8c9.2-4,13.8-11,13.8-21V213.8L493.9,38.7
			c7.3-6.9,9-15.2,5-24.9C494.8,4.6,487.9,0,477.9,0L477.9,0z"/>
	</g>
</g>
</svg>
