<?xml version="1.0" encoding="UTF-8"?>
<svg width="1410px" height="1408px" viewBox="0 0 1410 1408" version="1.1" xmlns="http://www.w3.org/2000/svg" xmlns:xlink="http://www.w3.org/1999/xlink">
    <!-- Generator: Sketch 49 (51002) - http://www.bohemiancoding.com/sketch -->
    <title>filter</title>
    <desc>Created with Sketch.</desc>
    <defs></defs>
    <g id="Page-1" stroke="none" stroke-width="1" fill="none" fill-rule="evenodd">
        <g id="filter" transform="translate(-1.000000, 0.000000)" fill="#000000" fill-rule="nonzero">
            <path d="M1405,39 C1416.33333,66.3333333 1411.66667,89.6666667 1391,109 L898,602 L898,1344 C898,1372 885,1391.66667 859,1403 C850.333333,1406.33333 842,1408 834,1408 C816,1408 801,1401.66667 789,1389 L533,1133 C520.333333,1120.33333 514,1105.33333 514,1088 L514,602 L21,109 C0.333333333,89.6666667 -4.33333333,66.3333333 7,39 C18.3333333,13 38,0 66,0 L1346,0 C1374,0 1393.66667,13 1405,39 Z" id="Shape"></path>
        </g>
    </g>
</svg>