<svg enable-background="new 0 0 500 500" viewBox="0 0 500 500" xmlns="http://www.w3.org/2000/svg"><path d="m470 440c-16.6 0-30-13.4-30-30v-320c0-16.6 13.4-30 30-30s30 13.4 30 30v320c0 16.6-13.4 30-30 30z"/><path d="m30 440c-16.6 0-30-13.4-30-30v-320c0-16.6 13.4-30 30-30s30 13.4 30 30v320c0 16.6-13.4 30-30 30z"/><path d="m422.2 270.4c.1-.2.3-.3.4-.5.2-.2.4-.4.6-.6s.3-.4.5-.7c.1-.2.3-.3.4-.5.2-.2.4-.5.5-.7.1-.1.2-.3.3-.4.2-.3.3-.5.5-.8.1-.1.2-.3.3-.4.2-.3.3-.5.5-.8.1-.2.2-.3.3-.5s.3-.5.4-.8c.1-.2.2-.4.3-.6s.2-.5.3-.7.2-.4.3-.7c.1-.2.2-.4.2-.6.1-.3.2-.5.3-.8.1-.2.1-.4.2-.5.1-.3.2-.6.3-.9 0-.2.1-.3.1-.5.1-.3.2-.6.3-.9 0-.1.1-.3.1-.4.1-.3.2-.7.2-1 0-.1.1-.3.1-.5.1-.3.1-.7.2-1 0-.2 0-.3.1-.5 0-.3.1-.6.1-.9 0-.2 0-.5.1-.7 0-.3 0-.5.1-.8 0-.4 0-.9 0-1.3 0-.1 0-.1 0-.2s0-.1 0-.2c0-.4 0-.9 0-1.3 0-.3 0-.5-.1-.7 0-.2 0-.5-.1-.7 0-.3-.1-.6-.1-.9 0-.2 0-.4-.1-.5 0-.3-.1-.7-.2-1 0-.2-.1-.3-.1-.5-.1-.3-.1-.6-.2-1 0-.2-.1-.3-.1-.5-.1-.3-.2-.6-.3-.9 0-.2-.1-.3-.1-.5-.1-.3-.2-.6-.3-.9-.1-.2-.1-.4-.2-.6-.1-.3-.2-.5-.3-.8-.1-.2-.2-.4-.3-.6s-.2-.4-.3-.7c-.1-.2-.2-.5-.3-.7s-.2-.4-.3-.6c-.1-.3-.3-.5-.4-.8-.1-.2-.2-.3-.3-.5-.2-.3-.3-.5-.5-.8-.1-.1-.2-.3-.3-.4-.2-.3-.3-.5-.5-.8-.1-.1-.2-.3-.3-.4-.2-.3-.4-.5-.6-.8-.1-.2-.2-.3-.4-.5s-.4-.5-.5-.7c-.2-.2-.3-.4-.5-.6s-.3-.4-.5-.5c-.3-.4-.7-.7-1-1.1-.1-.1-.2-.2-.3-.3s-.2-.2-.3-.3l-73.8-73.8c-11.7-11.7-30.7-11.7-42.4 0s-11.7 30.7 0 42.4l22.5 22.5h-154.3l22.5-22.5c11.7-11.7 11.7-30.7 0-42.4s-30.7-11.7-42.4 0l-73.8 73.8c-.1.1-.1.1-.2.2-.3.3-.6.6-.9.9-.2.2-.3.4-.5.6s-.3.3-.5.5-.4.5-.6.7c-.1.1-.2.3-.3.4-.2.3-.4.5-.6.8-.1.1-.2.3-.3.4-.2.3-.4.6-.5.8-.1.1-.2.3-.2.4-.2.3-.3.6-.5.8-.1.2-.2.3-.3.5-.1.3-.3.5-.4.8-.1.2-.2.4-.3.5-.1.2-.2.5-.3.7s-.2.4-.3.6-.2.4-.3.7c-.1.2-.2.5-.3.7s-.1.4-.2.6c-.1.3-.2.6-.3.8s-.1.3-.1.5c-.1.3-.2.6-.2.9 0 .2-.1.3-.1.5-.1.3-.1.6-.2 1 0 .2-.1.3-.1.5-.1.3-.1.6-.2 1 0 .2 0 .4-.1.6 0 .3-.1.6-.1.9 0 .2 0 .5-.1.7 0 .2 0 .5-.1.7v1.4.1.1 1.4c0 .2 0 .5.1.7 0 .2 0 .5.1.7 0 .3.1.6.1.9 0 .2 0 .4.1.5 0 .3.1.6.2 1 0 .2.1.3.1.5.1.3.1.6.2 1 0 .2.1.3.1.5.1.3.2.6.2.9 0 .2.1.3.1.5.1.3.2.6.3.8s.1.4.2.6c.1.3.2.5.3.8l.3.6.3.6c.1.2.2.5.3.7s.2.4.3.6c.1.3.3.5.4.8.1.2.2.3.3.5.2.3.3.5.5.8.1.1.2.3.3.4.2.3.3.5.5.8.1.1.2.3.3.4.2.3.4.5.6.8.1.2.2.3.4.5s.4.5.5.7c.2.2.3.4.5.6s.3.4.5.5c.3.4.7.7 1 1.1.1.1.2.2.3.3s.2.2.3.3l73.8 73.8c5.9 5.9 13.5 8.8 21.2 8.8s15.4-2.9 21.2-8.8c11.7-11.7 11.7-30.7 0-42.4l-22.5-22.3h154.6l-22.6 22.5c-11.7 11.7-11.7 30.7 0 42.4 5.9 5.9 13.5 8.8 21.2 8.8s15.4-2.9 21.2-8.8l73.7-73.7c.5-.3.8-.7 1.1-1.1z"/></svg>