<?xml version="1.0" encoding="utf-8"?>
<!-- Generator: Adobe Illustrator 26.3.1, SVG Export Plug-In . SVG Version: 6.00 Build 0)  -->
<svg version="1.1" id="Ebene_1" xmlns="http://www.w3.org/2000/svg" xmlns:xlink="http://www.w3.org/1999/xlink" x="0px" y="0px"
	 viewBox="0 0 500 500" style="enable-background:new 0 0 500 500;" xml:space="preserve">
<path d="M60,470c0-16.6,13.4-30,30-30h320c16.6,0,30,13.4,30,30s-13.4,30-30,30H90C73.4,500,60,486.6,60,470z"/>
<path d="M60,30C60,13.4,73.4,0,90,0h320c16.6,0,30,13.4,30,30s-13.4,30-30,30H90C73.4,60,60,46.6,60,30z"/>
<path d="M229.6,422.2c0.2,0.1,0.3,0.3,0.5,0.4c0.2,0.2,0.4,0.4,0.6,0.6c0.2,0.2,0.4,0.3,0.7,0.5c0.2,0.1,0.3,0.3,0.5,0.4
	c0.2,0.2,0.5,0.4,0.7,0.5c0.1,0.1,0.3,0.2,0.4,0.3c0.3,0.2,0.5,0.3,0.8,0.5c0.1,0.1,0.3,0.2,0.4,0.3c0.3,0.2,0.5,0.3,0.8,0.5
	c0.2,0.1,0.3,0.2,0.5,0.3c0.2,0.1,0.5,0.3,0.8,0.4c0.2,0.1,0.4,0.2,0.6,0.3c0.2,0.1,0.5,0.2,0.7,0.3c0.2,0.1,0.4,0.2,0.7,0.3
	c0.2,0.1,0.4,0.2,0.6,0.2c0.3,0.1,0.5,0.2,0.8,0.3c0.2,0.1,0.4,0.1,0.5,0.2c0.3,0.1,0.6,0.2,0.9,0.3c0.2,0,0.3,0.1,0.5,0.1
	c0.3,0.1,0.6,0.2,0.9,0.3c0.1,0,0.3,0.1,0.4,0.1c0.3,0.1,0.7,0.2,1,0.2c0.1,0,0.3,0.1,0.5,0.1c0.3,0.1,0.7,0.1,1,0.2
	c0.2,0,0.3,0,0.5,0.1c0.3,0,0.6,0.1,0.9,0.1c0.2,0,0.5,0,0.7,0.1c0.3,0,0.5,0,0.8,0.1c0.4,0,0.9,0,1.3,0c0.1,0,0.1,0,0.2,0
	c0.1,0,0.1,0,0.2,0c0.4,0,0.9,0,1.3,0c0.3,0,0.5,0,0.7-0.1c0.2,0,0.5,0,0.7-0.1c0.3,0,0.6-0.1,0.9-0.1c0.2,0,0.4,0,0.5-0.1
	c0.3,0,0.7-0.1,1-0.2c0.2,0,0.3-0.1,0.5-0.1c0.3-0.1,0.6-0.1,1-0.2c0.2,0,0.3-0.1,0.5-0.1c0.3-0.1,0.6-0.2,0.9-0.3
	c0.2,0,0.3-0.1,0.5-0.1c0.3-0.1,0.6-0.2,0.9-0.3c0.2-0.1,0.4-0.1,0.6-0.2c0.3-0.1,0.5-0.2,0.8-0.3c0.2-0.1,0.4-0.2,0.6-0.3
	c0.2-0.1,0.4-0.2,0.7-0.3c0.2-0.1,0.5-0.2,0.7-0.3c0.2-0.1,0.4-0.2,0.6-0.3c0.3-0.1,0.5-0.3,0.8-0.4c0.2-0.1,0.3-0.2,0.5-0.3
	c0.3-0.2,0.5-0.3,0.8-0.5c0.1-0.1,0.3-0.2,0.4-0.3c0.3-0.2,0.5-0.3,0.8-0.5c0.1-0.1,0.3-0.2,0.4-0.3c0.3-0.2,0.5-0.4,0.8-0.6
	c0.2-0.1,0.3-0.2,0.5-0.4c0.2-0.2,0.5-0.4,0.7-0.5c0.2-0.2,0.4-0.3,0.6-0.5c0.2-0.2,0.4-0.3,0.5-0.5c0.4-0.3,0.7-0.7,1.1-1
	c0,0,0,0,0,0c0,0,0,0,0,0c0.1-0.1,0.2-0.2,0.3-0.3c0.1-0.1,0.2-0.2,0.3-0.3l73.8-73.8c11.7-11.7,11.7-30.7,0-42.4
	c-11.7-11.7-30.7-11.7-42.4,0L280.3,327V172.4l22.5,22.5c11.7,11.7,30.7,11.7,42.4,0c11.7-11.7,11.7-30.7,0-42.4l-73.8-73.8
	c-0.1-0.1-0.1-0.1-0.2-0.2c-0.3-0.3-0.6-0.6-0.9-0.9c-0.2-0.2-0.4-0.3-0.6-0.5c-0.2-0.2-0.3-0.3-0.5-0.5c-0.2-0.2-0.5-0.4-0.7-0.6
	c-0.1-0.1-0.3-0.2-0.4-0.3c-0.3-0.2-0.5-0.4-0.8-0.6c-0.1-0.1-0.3-0.2-0.4-0.3c-0.3-0.2-0.6-0.4-0.8-0.5c-0.1-0.1-0.3-0.2-0.4-0.2
	c-0.3-0.2-0.6-0.3-0.8-0.5c-0.2-0.1-0.3-0.2-0.5-0.3c-0.3-0.1-0.5-0.3-0.8-0.4c-0.2-0.1-0.4-0.2-0.5-0.3c-0.2-0.1-0.5-0.2-0.7-0.3
	c-0.2-0.1-0.4-0.2-0.6-0.3c-0.2-0.1-0.4-0.2-0.7-0.3c-0.2-0.1-0.5-0.2-0.7-0.3c-0.2-0.1-0.4-0.1-0.6-0.2c-0.3-0.1-0.6-0.2-0.8-0.3
	c-0.2-0.1-0.3-0.1-0.5-0.1c-0.3-0.1-0.6-0.2-0.9-0.2c-0.2,0-0.3-0.1-0.5-0.1c-0.3-0.1-0.6-0.1-1-0.2c-0.2,0-0.3-0.1-0.5-0.1
	c-0.3-0.1-0.6-0.1-1-0.2c-0.2,0-0.4,0-0.6-0.1c-0.3,0-0.6-0.1-0.9-0.1c-0.2,0-0.5,0-0.7-0.1c-0.2,0-0.5,0-0.7-0.1
	c-0.5,0-0.9,0-1.4,0c0,0-0.1,0-0.1,0c0,0-0.1,0-0.1,0c-0.5,0-0.9,0-1.4,0c-0.2,0-0.5,0-0.7,0.1c-0.2,0-0.5,0-0.7,0.1
	c-0.3,0-0.6,0.1-0.9,0.1c-0.2,0-0.4,0-0.5,0.1c-0.3,0-0.6,0.1-1,0.2c-0.2,0-0.3,0.1-0.5,0.1c-0.3,0.1-0.6,0.1-1,0.2
	c-0.2,0-0.3,0.1-0.5,0.1c-0.3,0.1-0.6,0.2-0.9,0.2c-0.2,0-0.3,0.1-0.5,0.1c-0.3,0.1-0.6,0.2-0.8,0.3c-0.2,0.1-0.4,0.1-0.6,0.2
	c-0.3,0.1-0.5,0.2-0.8,0.3c-0.2,0.1-0.4,0.2-0.6,0.3c-0.2,0.1-0.4,0.2-0.6,0.3c-0.2,0.1-0.5,0.2-0.7,0.3c-0.2,0.1-0.4,0.2-0.6,0.3
	c-0.3,0.1-0.5,0.3-0.8,0.4c-0.2,0.1-0.3,0.2-0.5,0.3c-0.3,0.2-0.5,0.3-0.8,0.5c-0.1,0.1-0.3,0.2-0.4,0.3c-0.3,0.2-0.5,0.3-0.8,0.5
	c-0.1,0.1-0.3,0.2-0.4,0.3c-0.3,0.2-0.5,0.4-0.8,0.6c-0.2,0.1-0.3,0.2-0.5,0.4c-0.2,0.2-0.5,0.4-0.7,0.5c-0.2,0.2-0.4,0.3-0.6,0.5
	c-0.2,0.2-0.4,0.3-0.5,0.5c-0.4,0.3-0.7,0.7-1.1,1c0,0,0,0,0,0c0,0,0,0,0,0c-0.1,0.1-0.2,0.2-0.3,0.3c-0.1,0.1-0.2,0.2-0.3,0.3
	l-73.8,73.8c-5.9,5.9-8.8,13.5-8.8,21.2s2.9,15.4,8.8,21.2c11.7,11.7,30.7,11.7,42.4,0l22.5-22.5v154.6L197.2,305
	c-11.7-11.7-30.7-11.7-42.4,0c-5.9,5.9-8.8,13.5-8.8,21.2s2.9,15.4,8.8,21.2l73.7,73.7C228.8,421.6,229.2,421.9,229.6,422.2z"/>
</svg>
