<?xml version="1.0" encoding="UTF-8"?>
<svg width="500px" height="500px" viewBox="0 0 500 500" version="1.1" xmlns="http://www.w3.org/2000/svg" xmlns:xlink="http://www.w3.org/1999/xlink">
    <!-- Generator: Sketch 52.6 (67491) - http://www.bohemiancoding.com/sketch -->
    <title>focus</title>
    <desc>Created with Sketch.</desc>
    <g id="focus" stroke="none" stroke-width="1" fill="none" fill-rule="evenodd">
        <path d="M31.4415064,182.344952 C48.6410256,182.344952 62.635016,168.352163 62.635016,151.151442 L62.635016,93.8305288 C62.635016,76.6302083 76.6298077,62.6366186 93.8289263,62.6366186 L151.153045,62.6366186 C168.352564,62.6366186 182.346955,48.6438301 182.346955,31.443109 C182.346554,14.2423878 168.352163,0.249599359 151.152644,0.249599359 L93.8289263,0.249599359 C42.2283654,0.249599359 0.247996795,42.2299679 0.247996795,93.8305288 L0.247996795,151.151843 C0.247996795,168.352163 14.2423878,182.344952 31.4415064,182.344952 Z" id="Shape" fill="#000000" fill-rule="nonzero"></path>
        <path d="M406.170272,0.249198718 L348.846154,0.249198718 C331.64383,0.249198718 317.652644,14.2419872 317.652644,31.4427083 C317.652644,48.6434295 331.644231,62.6362179 348.846154,62.6362179 L406.170272,62.6362179 C423.372997,62.6362179 437.364583,76.6294071 437.364583,93.8301282 L437.364583,151.154647 C437.364583,168.355369 451.355769,182.348558 468.558093,182.348558 C485.760417,182.348558 499.751603,168.355769 499.751603,151.154647 L499.751603,93.8305288 C499.752003,42.2295673 457.771635,0.249198718 406.170272,0.249198718 Z" id="Shape" fill="#000000" fill-rule="nonzero"></path>
        <path d="M151.153045,437.362981 L93.8289263,437.362981 C76.6294071,437.362981 62.635016,423.370192 62.635016,406.170673 L62.635016,348.846554 C62.635016,331.645433 48.6410256,317.653045 31.4411058,317.653045 C14.2419872,317.653045 0.247596154,331.645833 0.247596154,348.846554 L0.247596154,406.170673 C0.247596154,457.769631 42.2279647,499.750401 93.8285256,499.750401 L151.152644,499.750401 C168.352163,499.750401 182.346554,485.755208 182.346554,468.55649 C182.346554,451.357772 168.352564,437.362981 151.153045,437.362981 Z" id="Shape" fill="#000000" fill-rule="nonzero"></path>
        <path d="M468.558494,317.658654 C451.355769,317.658654 437.364984,331.651442 437.364984,348.852564 L437.364984,406.170673 C437.364984,423.370192 423.373397,437.362981 406.170673,437.362981 L348.846154,437.362981 C331.64383,437.362981 317.652644,451.357772 317.652644,468.55649 C317.652644,485.75601 331.644231,499.75 348.846154,499.75 L406.170272,499.75 C457.771234,499.75 499.752003,457.770032 499.752003,406.170673 L499.752003,348.852564 C499.752003,331.651442 485.760417,317.658654 468.558494,317.658654 Z" id="Shape" fill="#000000" fill-rule="nonzero"></path>
        <path d="M362.935497,249.999599 C362.935497,187.726763 312.273237,137.062901 249.997997,137.062901 C187.726362,137.062901 137.064103,187.726362 137.064103,249.999599 C137.064103,312.274439 187.726362,362.938702 249.997997,362.938702 C312.273237,362.939103 362.935497,312.27484 362.935497,249.999599 Z" id="Shape" fill="#000000" fill-rule="nonzero"></path>
    </g>
</svg>