<?xml version="1.0" encoding="UTF-8"?>
<svg width="500px" height="500px" viewBox="0 0 500 500" version="1.1" xmlns="http://www.w3.org/2000/svg" xmlns:xlink="http://www.w3.org/1999/xlink">
    <!-- Generator: Sketch 52.6 (67491) - http://www.bohemiancoding.com/sketch -->
    <title>folder-open copy</title>
    <desc>Created with Sketch.</desc>
    <defs>
        <path d="M500,307.875 C500,313.364583 497.247877,319.208333 491.743632,325.40625 L402.25526,430.59375 C394.62034,439.625 383.922573,447.283854 370.16196,453.570312 C356.401347,459.856771 343.661683,463 331.942968,463 L42.1710963,463 C36.1341824,463 30.7631045,461.848958 26.0578627,459.546875 C21.3526209,457.244792 19,453.4375 19,448.125 C19,442.635417 21.7521226,436.791667 27.2563677,430.59375 L116.74474,325.40625 C124.37966,316.375 135.077427,308.716146 148.83804,302.429688 C162.598653,296.143229 175.338317,293 187.057032,293 L476.828904,293 C482.865818,293 488.236896,294.151042 492.942137,296.453125 C497.647379,298.755208 500,302.5625 500,307.875 Z M409,215.841191 L409,258.454921 L187.458333,258.454921 C170.771701,258.454921 153.286241,262.671905 135.001953,271.105873 C116.717665,279.53984 102.161241,290.148883 91.3326823,302.933002 L1.59765625,408.401985 L0.266276042,410 C0.266276042,409.289771 0.221896701,408.180039 0.133138021,406.670802 C0.0443793403,405.161566 0,404.051833 0,403.341605 L0,147.659222 C0,131.323959 5.85807292,117.29694 17.5742188,105.578164 C29.2903646,93.8593879 43.3142361,88 59.6458333,88 L144.854167,88 C161.185764,88 175.209635,93.8593879 186.925781,105.578164 C198.641927,117.29694 204.5,131.323959 204.5,147.659222 L204.5,156.181969 L349.354167,156.181969 C365.685764,156.181969 379.709635,162.041356 391.425781,173.760132 C403.141927,185.478908 409,199.505928 409,215.841191 Z" id="path-1"></path>
    </defs>
    <g id="folder-open-copy" stroke="none" stroke-width="1" fill="none" fill-rule="evenodd">
        <mask id="mask-2" fill="white">
            <use xlink:href="#path-1"></use>
        </mask>
        <use id="Mask" fill="#000000" fill-rule="nonzero" xlink:href="#path-1"></use>
    </g>
</svg>