<?xml version="1.0" encoding="utf-8"?>
<!-- Generator: Adobe Illustrator 27.3.0, SVG Export Plug-In . SVG Version: 6.00 Build 0)  -->
<svg version="1.1" id="Ebene_1" xmlns="http://www.w3.org/2000/svg" xmlns:xlink="http://www.w3.org/1999/xlink" x="0px" y="0px"
	 viewBox="0 0 500 500" style="enable-background:new 0 0 500 500;" xml:space="preserve">
<path d="M433.6,386.6l-15.9-52.1H301l-15.9,52.1c-4.4,14.3-17.5,24.1-32.5,24.1h-0.1c-23.4,0-39.8-23.1-32-45.2l83.3-237
	c8.2-23.5,30.4-39.2,55.3-39.2h0c24.8,0,47,15.7,55.3,39.1l83.6,237c7.8,22.1-8.6,45.2-32,45.2h0
	C451.1,410.7,437.9,400.9,433.6,386.6z M393.3,277.6c4.1,0,7-4,5.8-7.8l-20.8-66.6c-1.5-5-3.4-11.3-5.8-19.2
	c-2.4-7.8-4.8-15.8-7.2-23.9v0c-1.7-5.7-9.9-5.7-11.5,0c-0.1,0.3-0.2,0.7-0.3,1.1c-2.6,8.8-5,17.2-7.3,25.1c-2.3,7.9-4,13.5-5,16.9
	l-20.6,66.6c-1.2,3.9,1.7,7.8,5.8,7.8H393.3z"/>
<path d="M147.9,394.1L137,358.3H56.7l-10.9,35.9c-3,9.8-12.1,16.6-22.3,16.6h0c-16.1,0-27.4-15.9-22-31.1l57.3-163.1
	c5.7-16.1,20.9-27,38-27h0c17.1,0,32.3,10.8,38,26.9l57.6,163.1c5.4,15.2-5.9,31.1-22,31.1h0C160,410.7,150.9,404,147.9,394.1z
	 M120.2,319.1c2.8,0,4.8-2.7,4-5.4l-14.3-45.8c-1-3.4-2.3-7.8-4-13.2c-1.7-5.4-3.3-10.8-5-16.4l0,0c-1.2-4-6.8-3.9-7.9,0
	c-0.1,0.2-0.1,0.5-0.2,0.7c-1.8,6.1-3.4,11.8-5,17.3c-1.6,5.4-2.8,9.3-3.5,11.6l-14.2,45.8c-0.8,2.7,1.2,5.4,4,5.4H120.2z"/>
</svg>
