<?xml version="1.0" encoding="UTF-8"?>
<svg width="500px" height="500px" viewBox="0 0 500 500" version="1.1" xmlns="http://www.w3.org/2000/svg" xmlns:xlink="http://www.w3.org/1999/xlink">
    <!-- Generator: Sketch 52.6 (67491) - http://www.bohemiancoding.com/sketch -->
    <title>graph</title>
    <desc>Created with Sketch.</desc>
    <g id="graph" stroke="none" stroke-width="1" fill="none" fill-rule="evenodd">
        <path d="M246.796679,378.053042 C252.592204,380.849733 258.097952,386.540518 260.899122,392.808964 C263.700293,398.884535 263.700293,409.10596 260.899122,415.181531 C254.041085,430.419641 236.268142,437.265749 221.779331,430.226766 C204.199573,421.642852 199.466561,399.462196 212.216715,384.901078 C221.006594,374.968002 234.819261,372.170346 246.796679,378.053042 M402.647102,331.074921 C408.765504,332.618187 414.691583,338.602082 416.342843,344.875521 C418.091235,351.825525 416.342843,358.001484 411.193827,363.213264 C397.109555,377.112309 373.797656,363.98538 378.654301,344.875521 C380.59696,337.154366 388.56283,330.687898 396.819127,330.012297 C397.499058,329.915783 400.121646,330.398355 402.647102,331.074921 M107.669592,312.074108 C113.806403,313.616207 119.748395,319.595579 121.40436,325.864274 C124.034422,336.184476 117.702791,346.793038 107.377363,349.396958 C92.9607265,352.964328 80.0052359,340.137612 83.6093949,325.864274 C85.557589,318.148957 93.5451847,311.687378 101.825009,311.012288 C102.506877,310.915846 105.136939,311.398054 107.669592,312.074108 M277.11867,182.292118 C287.188598,184.419417 293.674988,187.994555 301.421086,195.726673 C309.264979,203.555443 312.750723,209.935407 314.976758,220.469452 C318.463471,236.900204 312.944376,253.137652 299.872835,265.316705 C286.801293,277.300522 269.759877,280.973279 252.331155,275.560796 C244.681883,273.24116 238.0977,268.891844 231.707168,262.029589 C219.700716,248.981639 216.021319,231.970978 221.443588,214.573712 C223.767417,206.938245 228.124598,200.366911 234.99926,193.987913 C241.68027,187.897904 248.651759,184.225147 257.365151,182.389736 C265.499523,180.553358 268.888441,180.553358 277.11867,182.292118 M167.802676,83.0336941 C177.889632,87.8658331 184,97.6277203 184,109.030602 C184,117.051953 181.769231,122.754843 176.337793,128.649086 C165.086957,141.116971 144.913043,141.116971 133.662207,128.649086 C128.230769,122.754843 126,117.051953 126,109.030602 C126,87.3826192 148.210702,73.5627017 167.802676,83.0336941 M400.802946,69.0336941 C410.888764,73.8658331 417,83.6277203 417,95.0306019 C417,103.051953 414.768298,108.754843 409.337921,114.649086 C398.087273,127.116971 377.912727,127.116971 366.663049,114.649086 C361.231702,108.754843 359,103.051953 359,95.0306019 C359,73.3826192 381.211301,59.5627017 400.802946,69.0336941 M376.547596,32.6819366 C353.798558,36.8376186 335.290865,53.0737718 327.482933,75.6884137 C325.169471,82.4534775 324.78293,84.8695717 324.78293,95.0171674 C324.78293,105.164763 325.169471,107.580857 327.482933,114.345921 C328.928846,118.598247 330.953125,123.430435 332.012498,125.17099 L333.940382,128.262624 L320.735337,142.372614 C313.409375,150.104116 307.047356,156.385961 306.661779,156.385961 C306.179808,156.385961 304.155529,155.517133 302.034856,154.453085 C300.010577,153.390004 294.516106,151.360485 289.792788,150.007472 C282.369469,147.688021 279.671394,147.399057 267.814904,147.399057 C255.958413,147.399057 253.259375,147.688021 245.837019,150.007472 C241.113702,151.360485 235.13726,153.680902 232.438221,155.033914 L227.522115,157.546652 L219.039423,148.94439 L210.460337,140.439739 L213.352163,132.998169 C219.039423,118.308316 219.425,103.521819 214.4125,88.9295764 C207.857692,70.0840415 193.784135,56.2630161 174.3125,49.4979523 C167.564904,47.1785019 165.155048,46.7919268 155.033654,46.7919268 C144.623077,46.7919268 142.695192,47.0818581 135.176442,49.6912399 C115.608413,56.6495912 101.920433,70.4696502 95.1728365,90.184979 C92.859375,96.9500428 92.4737981,99.366137 92.4737981,109.513733 C92.4737981,119.661328 92.859375,122.077423 95.1728365,128.842487 C101.920433,148.557815 115.608413,162.378841 135.176442,169.336226 C142.695192,171.946574 144.623077,172.235539 155.033654,172.235539 C165.155048,172.235539 167.564904,171.848964 174.3125,169.53048 C178.553846,168.080823 182.891587,166.340269 184.048317,165.567119 C185.976202,164.311716 186.650962,164.794935 193.880529,172.138895 L201.784856,180.063684 L199.278606,183.736147 C195.230048,189.728061 190.410337,200.745451 188.193269,209.056815 C186.554567,215.145372 186.072596,219.494342 186.072596,229.352006 C186.072596,241.626731 186.458173,243.751928 190.699519,258.345137 C191.18149,260.084725 188.000481,262.210887 164.576683,275.547728 L137.875481,290.720799 L132.188221,286.951692 C110.210337,272.165196 82.2560096,274.871221 63.9411058,293.524435 C54.0125,303.672031 49,316.13811 49,330.827963 C49,354.893228 63.2663462,374.124372 87.0757212,382.145805 C94.4016827,384.659509 109.631971,384.659509 116.957933,382.145805 C134.694471,376.154857 145.876202,365.330755 152.43101,347.837267 C154.455288,342.61947 154.93726,339.525903 155.033654,330.827963 L155.226442,320.197149 L182.795192,304.445181 L210.363942,288.692247 L216.340385,293.524435 C219.617788,296.230461 225.787019,300.191889 230.028365,302.414695 C236.583173,305.797227 237.547115,306.667021 237.065144,308.406609 C236.775962,309.566334 235.13726,317.008871 233.498558,325.029337 C231.667067,333.82392 229.835577,340.009121 228.968029,340.782272 C228.100481,341.363101 226.076202,341.941997 224.533894,341.941997 C219.521394,341.941997 206.21899,347.161727 199.085817,351.993915 C187.325721,359.821094 179.132212,370.646163 174.216106,384.948474 C171.902644,391.713538 171.517067,394.129632 171.517067,404.277228 C171.517067,414.424823 171.902644,416.840918 174.216106,423.605981 C180.963702,443.322277 194.651683,457.142336 214.219712,464.100687 C221.642067,466.709102 223.666346,467 234.076923,467 C244.4875,467 246.511779,466.709102 253.933171,464.100687 C273.502163,457.142336 287.18918,443.322277 293.936776,423.605981 C296.251202,416.840918 296.636779,414.424823 296.636779,404.277228 C296.636779,394.129632 296.251202,391.713538 293.936776,384.948474 C289.117065,370.935127 280.731731,359.627806 269.646394,352.379524 C266.272596,350.156717 263.477163,348.030554 263.477163,347.740623 C263.572594,346.195289 270.995913,312.755579 271.38149,312.465647 C271.574279,312.176682 274.851683,311.595853 278.5137,311.112634 C290.949519,309.277369 304.348317,304.15525 314.276923,297.390186 C316.49399,295.842919 318.614663,294.58655 319.096635,294.58655 C319.481248,294.58655 326.615385,301.351614 334.808894,309.566334 L349.653606,324.450441 L346.761779,332.471874 C344.351923,339.332615 343.966346,341.941997 343.966346,350.156717 C344.061776,374.317659 358.232692,393.453126 382.042067,401.474558 C389.367065,403.988263 404.598317,403.988263 411.924279,401.474558 C430.142788,395.290324 441.999279,383.40314 448.167546,365.136501 C449.421635,361.367394 450,357.018425 450,350.156717 C450,326.092419 435.733654,306.861275 411.924279,298.839842 C403.923558,296.13285 389.367065,296.326138 380.691584,299.323061 L374.13774,301.545868 L357.26875,284.728886 L340.496154,267.913836 L343.002404,262.598429 C347.725721,252.063292 349.557212,242.979744 349.557212,229.352006 C349.557212,219.494342 349.07524,215.145372 347.435575,209.056815 C345.123077,200.358875 340.206007,189.439096 335.868267,183.060607 L332.88101,178.808281 L344.061776,166.823488 C350.231971,160.349322 356.015625,154.16412 356.883173,153.29336 C358.329087,151.748026 358.907452,151.748026 367.100962,154.647339 C375.005288,157.450009 376.835815,157.738973 387.34375,157.738973 C397.754327,157.738973 399.778606,157.450009 407.199998,154.83966 C426.76899,147.882275 440.456007,134.06125 447.203603,114.345921 C449.518029,107.580857 449.903606,105.164763 449.903606,95.0171674 C449.903606,84.8695717 449.518029,82.4534775 447.203603,75.6884137 C440.456007,56.070695 426.576202,41.9597384 407.490144,35.3879621 C398.621875,32.2953615 385.223077,31.1356362 376.547596,32.6819366" id="Fill-1" fill="#000000"></path>
    </g>
</svg>