<?xml version="1.0" encoding="utf-8"?>
<!-- Generator: Adobe Illustrator 27.3.1, SVG Export Plug-In . SVG Version: 6.00 Build 0)  -->
<svg version="1.1" id="Ebene_1" xmlns="http://www.w3.org/2000/svg" xmlns:xlink="http://www.w3.org/1999/xlink" x="0px" y="0px"
	 viewBox="0 0 500 500" style="enable-background:new 0 0 500 500;" xml:space="preserve">
<path d="M480,270H20c-11,0-20-9-20-20v0c0-11,9-20,20-20h460c11,0,20,9,20,20v0C500,261,491,270,480,270z"/>
<path d="M480,120H20c-11,0-20-9-20-20v0c0-11,9-20,20-20h460c11,0,20,9,20,20v0C500,111,491,120,480,120z"/>
<path d="M480,420H20c-11,0-20-9-20-20v0c0-11,9-20,20-20h460c11,0,20,9,20,20v0C500,411,491,420,480,420z"/>
<path d="M250,500L250,500c-11,0-20-9-20-20V20c0-11,9-20,20-20h0c11,0,20,9,20,20v460C270,491,261,500,250,500z"/>
<path d="M400,500L400,500c-11,0-20-9-20-20V20c0-11,9-20,20-20h0c11,0,20,9,20,20v460C420,491,411,500,400,500z"/>
<path d="M100,500L100,500c-11,0-20-9-20-20V20c0-11,9-20,20-20h0c11,0,20,9,20,20v460C120,491,111,500,100,500z"/>
</svg>
