<?xml version="1.0" encoding="utf-8"?>
<!-- Generator: Adobe Illustrator 27.2.0, SVG Export Plug-In . SVG Version: 6.00 Build 0)  -->
<svg version="1.1" id="Ebene_1" xmlns="http://www.w3.org/2000/svg" xmlns:xlink="http://www.w3.org/1999/xlink" x="0px" y="0px"
	 viewBox="0 0 500 500" style="enable-background:new 0 0 500 500;" xml:space="preserve">
<g>
	<path d="M190,40v150H40V40H190 M190,0H40C17.9,0,0,17.9,0,40v150c0,22.1,17.9,40,40,40h150c22.1,0,40-17.9,40-40V40
		C230,17.9,212.1,0,190,0L190,0z"/>
	<path d="M460,40v150H310V40H460 M460,0H310c-22.1,0-40,17.9-40,40v150c0,22.1,17.9,40,40,40h150c22.1,0,40-17.9,40-40V40
		C500,17.9,482.1,0,460,0L460,0z"/>
	<path d="M190,310v150H40V310H190 M190,270H40c-22.1,0-40,17.9-40,40v150c0,22.1,17.9,40,40,40h150c22.1,0,40-17.9,40-40V310
		C230,287.9,212.1,270,190,270L190,270z"/>
	<path d="M460,310v150H310V310H460 M460,270H310c-22.1,0-40,17.9-40,40v150c0,22.1,17.9,40,40,40h150c22.1,0,40-17.9,40-40V310
		C500,287.9,482.1,270,460,270L460,270z"/>
</g>
</svg>
