<?xml version="1.0" encoding="utf-8"?>
<!-- Generator: Adobe Illustrator 27.3.0, SVG Export Plug-In . SVG Version: 6.00 Build 0)  -->
<svg version="1.1" id="Ebene_1" xmlns="http://www.w3.org/2000/svg" xmlns:xlink="http://www.w3.org/1999/xlink" x="0px" y="0px"
	 viewBox="0 0 500 500" style="enable-background:new 0 0 500 500;" xml:space="preserve">
<style type="text/css">
	.st0{display:none;}
</style>
<path class="st0" d="M460,420H40c-22.1,0-40,17.9-40,40l0,0c0,22.1,17.9,40,40,40h420c22.1,0,40-17.9,40-40l0,0
	C500,437.9,482.1,420,460,420z"/>
<g>
	<path d="M267.3,324.7L125.9,183.3L324.1,9.9c15.8-13.8,39.6-13,54.4,1.8L439,72.1c14.8,14.8,15.6,38.6,1.8,54.4L267.3,324.7z"/>
	<path d="M97.6,211.6l-11.3,78.8c-1.4,9.7,0.8,19.4,5.8,27.5l-40,41.3c-6.1,6.3-1.6,16.9,7.2,16.9h54.8c2.6,0,5.2-1,7-2.9l13.6-13.6
		c7.7,4.2,16.6,5.9,25.5,4.7L239,353L97.6,211.6z"/>
</g>
</svg>
