<?xml version="1.0" encoding="UTF-8" standalone="no"?><!DOCTYPE svg PUBLIC "-//W3C//DTD SVG 1.1//EN" "http://www.w3.org/Graphics/SVG/1.1/DTD/svg11.dtd"><svg width="100%" height="100%" viewBox="0 0 64 64" version="1.1" xmlns="http://www.w3.org/2000/svg" xmlns:xlink="http://www.w3.org/1999/xlink" xml:space="preserve" xmlns:serif="http://www.serif.com/" style="fill-rule:evenodd;clip-rule:evenodd;stroke-linejoin:round;stroke-miterlimit:2;"><rect id="history" x="0" y="0" width="64" height="64" style="fill:none;"/><path d="M13.337,41.847c-0.074,0.022 -0.148,0.053 -0.222,0.096c-0.686,0.396 -1.178,1.058 -1.359,1.829c-0.181,0.771 -0.035,1.582 0.403,2.242c0.004,0.005 0.008,0.011 0.012,0.017c4.75,6.843 12.576,10.991 20.993,10.991c14.074,0 25.5,-11.426 25.5,-25.5c0,-14.074 -11.426,-25.5 -25.5,-25.5c-14.08,0 -25.495,11.412 -25.5,25.491c0,0 -0.045,2.882 -0.045,2.882c-0.005,0.267 0.098,0.524 0.284,0.715c0.186,0.19 0.44,0.299 0.707,0.301l3.724,0.033c0.267,0.002 0.523,-0.102 0.713,-0.29c0.189,-0.188 0.296,-0.444 0.295,-0.711l-0.003,-2.921c0,-10.949 8.876,-19.825 19.825,-19.825c10.942,0 19.825,8.883 19.825,19.825c0,10.942 -8.883,19.825 -19.825,19.825c-6.53,0 -12.603,-3.212 -16.287,-8.521c-0.783,-1.162 -2.291,-1.565 -3.54,-0.979Z"/><path d="M30,17l0,15c0,0.926 0.427,1.8 1.158,2.368l9,7c1.307,1.017 3.194,0.781 4.21,-0.526c1.017,-1.307 0.781,-3.194 -0.526,-4.21l-7.842,-6.099c0,-0 0,-13.533 0,-13.533c0,-1.656 -1.344,-3 -3,-3c-1.656,-0 -3,1.344 -3,3Z"/><path d="M10.872,32.327l-6.541,-6.926c-0.932,-0.987 -2.491,-1.031 -3.478,-0.099c-0.987,0.932 -1.031,2.49 -0.099,3.478l8.33,8.82c0.465,0.492 1.112,0.771 1.789,0.77c0.677,0 1.324,-0.279 1.789,-0.771c-0,-0 8.33,-8.828 8.33,-8.828c0.931,-0.988 0.886,-2.546 -0.101,-3.478c-0.988,-0.932 -2.546,-0.886 -3.478,0.101l-6.541,6.933Z"/></svg>