<?xml version="1.0" encoding="UTF-8"?>
<svg width="500px" height="500px" viewBox="0 0 500 500" version="1.1" xmlns="http://www.w3.org/2000/svg" xmlns:xlink="http://www.w3.org/1999/xlink">
    <!-- Generator: Sketch 52.6 (67491) - http://www.bohemiancoding.com/sketch -->
    <title>home</title>
    <desc>Created with Sketch.</desc>
    <defs>
        <path d="M428.552176,280.164062 L428.552176,428.9601 C428.552176,434.333147 426.588728,438.98298 422.662388,442.909598 C418.73577,446.836217 414.085937,448.799386 408.712891,448.799386 L289.675781,448.799386 L289.675781,329.762277 L210.317522,329.762277 L210.317522,448.799386 L91.2804129,448.799386 C85.9070871,448.799386 81.2572545,446.836217 77.3309152,442.909598 C73.4042969,438.98298 71.4411272,434.333147 71.4411272,428.9601 L71.4411272,280.164062 C71.4411272,279.95731 71.4927455,279.647042 71.5962612,279.233817 C71.6994978,278.820871 71.7513951,278.510603 71.7513951,278.30385 L249.996652,131.367746 L428.242188,278.30385 C428.448661,278.717355 428.552176,279.337333 428.552176,280.164062 Z M497.680246,258.774554 L478.460658,281.714007 C476.807199,283.57394 474.637556,284.710658 471.951172,285.123884 L471.020926,285.123884 C468.334263,285.123884 466.164621,284.40067 464.511161,282.954241 L249.996652,104.088728 L35.4824219,282.954241 C33.0022321,284.607422 30.5226004,285.330915 28.0424107,285.123884 C25.3557478,284.710938 23.1858259,283.57394 21.5326451,281.714007 L2.31305804,258.774554 C0.659598214,256.707868 -0.0636160714,254.279855 0.143136161,251.489955 C0.349330357,248.699777 1.48632812,246.478237 3.55301339,244.825056 L226.437221,59.1395089 C233.050223,53.766183 240.90346,51.0797991 249.996652,51.0797991 C259.089844,51.0797991 266.942801,53.766183 273.556362,59.1395089 L349.194196,122.37779 L349.194196,61.9296875 C349.194196,59.0362723 350.124442,56.6595982 351.984375,54.7996652 C353.844308,52.9397321 356.220982,52.0097656 359.114118,52.0097656 L418.632812,52.0097656 C421.52567,52.0097656 423.902623,52.9397321 425.762277,54.7996652 C427.622489,56.6595982 428.552455,59.0362723 428.552455,61.9296875 L428.552455,188.40625 L496.440569,244.825056 C498.506975,246.478237 499.643694,248.699777 499.850725,251.489955 C500.056641,254.279855 499.333426,256.707868 497.680246,258.774554 Z" id="path-1"></path>
    </defs>
    <g id="home" stroke="none" stroke-width="1" fill="none" fill-rule="evenodd">
        <mask id="mask-2" fill="white">
            <use xlink:href="#path-1"></use>
        </mask>
        <use id="Shape" fill="#000000" fill-rule="nonzero" xlink:href="#path-1"></use>
    </g>
</svg>