<?xml version="1.0" encoding="utf-8"?>
<!-- Generator: Adobe Illustrator 25.4.1, SVG Export Plug-In . SVG Version: 6.00 Build 0)  -->
<svg version="1.1" id="Ebene_1" xmlns="http://www.w3.org/2000/svg" xmlns:xlink="http://www.w3.org/1999/xlink" x="0px" y="0px"
	 viewBox="0 0 500 500" style="enable-background:new 0 0 500 500;" xml:space="preserve">
<style type="text/css">
	.st0{fill:none;stroke:#000000;stroke-width:36;stroke-linecap:square;stroke-linejoin:round;stroke-miterlimit:10;}
	.st1{stroke:#000000;stroke-width:36;stroke-linecap:square;stroke-linejoin:round;stroke-miterlimit:10;}
</style>
<g>
	<path d="M464,71.7v356.6H36V71.7H464 M473.4,35.7H26.6C11.9,35.7,0,47.6,0,62.3v375.5c0,14.7,11.9,26.6,26.6,26.6h446.9
		c14.7,0,26.6-11.9,26.6-26.6V62.3C500,47.6,488.1,35.7,473.4,35.7L473.4,35.7z"/>
</g>
<polyline class="st0" points="28.7,348 118.1,258.5 195,335.4 352.6,177.8 471,296.2 "/>
<circle class="st1" cx="145.1" cy="159.3" r="27"/>
<polygon class="st1" points="35.9,428.9 464.3,428.9 464.3,313.6 353.3,202.7 198.1,358 120.7,280.6 35.4,365.9 "/>
</svg>
