<?xml version="1.0" encoding="UTF-8"?>
<svg width="500px" height="500px" viewBox="0 0 500 500" version="1.1" xmlns="http://www.w3.org/2000/svg" xmlns:xlink="http://www.w3.org/1999/xlink">
    <!-- Generator: Sketch 52.6 (67491) - http://www.bohemiancoding.com/sketch -->
    <title>indicator</title>
    <desc>Created with Sketch.</desc>
    <defs>
        <polygon id="path-1" points="0.402330011 0.004 168.537329 0.004 168.537329 286 0.402330011 286"></polygon>
    </defs>
    <g id="indicator" stroke="none" stroke-width="1" fill="none" fill-rule="evenodd">
        <g id="Group-8" transform="translate(0.000000, 107.000000)">
            <g id="Group-3" transform="translate(194.000000, 0.996000)">
                <mask id="mask-2" fill="white">
                    <use xlink:href="#path-1"></use>
                </mask>
                <g id="Clip-2"></g>
                <path d="M165.2209,0.6382 C162.5799,-0.6828 159.3679,0.1132 157.6529,2.5192 C151.8159,10.6972 14.5949,203.0292 5.0639,222.0802 C-5.8301,243.8602 3.0249,270.4432 24.8039,281.3382 C31.1289,284.5022 37.8589,286.0002 44.4919,286.0002 C60.6999,286.0002 76.3309,277.0532 84.0619,261.5982 C93.5919,242.5462 165.2099,17.3972 168.2539,7.8222 C169.1499,5.0072 167.8629,1.9602 165.2209,0.6382" id="Fill-1" fill="#000000" mask="url(#mask-2)"></path>
            </g>
            <path d="M369.781,39.5384 C359.75,70.9424 343.929,120.2324 329.13,165.3204 C346.925,190.6244 357.378,221.4654 357.378,254.7504 L499.893,254.7504 C498.351,161.8844 446.175,81.3514 369.781,39.5384" id="Fill-4" fill="#000000"></path>
            <path d="M256.6534,109.0769 C279.8034,76.1079 303.6744,42.4559 320.3304,19.0419 C298.0034,12.5029 274.3884,8.9779 249.9464,8.9779 C113.2884,8.9779 2.2594,118.6309 0.0004,254.7499 L46.0694,254.7499 C46.0694,168.7849 115.7584,99.0959 201.7244,99.0959 C221.0614,99.0959 239.5704,102.6319 256.6534,109.0769" id="Fill-6" fill="#000000"></path>
        </g>
    </g>
</svg>