<?xml version="1.0" encoding="UTF-8"?>
<svg width="781px" height="500px" viewBox="0 0 781 500" version="1.1" xmlns="http://www.w3.org/2000/svg" xmlns:xlink="http://www.w3.org/1999/xlink">
    <!-- Generator: Sketch 52.6 (67491) - http://www.bohemiancoding.com/sketch -->
    <title>infosettings2</title>
    <desc>Created with Sketch.</desc>
    <defs>
        <polygon id="path-1" points="0.609483582 0.254769655 221.855881 0.254769655 221.855881 332.622825 0.609483582 332.622825"></polygon>
        <path d="M296.481438,5.74816438 C289.622637,14.6863562 278.803836,32.148274 264.025034,58.1203288 C253.324897,57.1283288 242.580685,57.0705753 231.795788,57.9470685 L203.923219,8.04131507 C202.163596,4.92263014 199.983562,2.80953425 197.376336,1.7020274 C192.962021,-0.173260274 180.444623,2.98619178 159.817363,11.1803836 C139.193493,19.3711781 124.743562,25.9788493 116.464178,31 C113.551815,32.8447123 111.673527,34.7709589 110.822534,36.7855342 C109.802021,39.197589 109.785068,42.0343014 110.771678,45.2990685 C117.321952,67.2895342 122.183801,85.7196712 125.360616,100.586082 C116.430274,107.699945 108.608596,115.286027 101.888801,123.337534 L42.3464041,108.002301 C39.969726,107.468932 37.5116781,107.964932 34.9722603,109.493699 C32.4328425,111.025863 30.6494863,112.992877 29.632363,115.404932 L1.30886986,182.337753 C0.20359589,184.953644 0.00695205479,187.657863 0.715547945,190.447014 C1.43092466,193.242959 3.00407534,195.390027 5.44178082,196.905205 L57.0607877,228.435178 C55.7012329,239.476274 55.602911,251.176438 56.7658219,263.528877 C51.0292466,267.017863 42.6142466,271.801205 31.5242123,277.878904 C20.4307877,283.96 12.4904452,288.471562 7.69640411,291.413589 C5.15359589,292.938959 3.37363014,294.90937 2.35311644,297.321425 C1.24784247,299.937315 0.973219178,302.549808 1.52585616,305.148712 C4.75691781,319.332274 14.1619178,343.245589 29.7408562,376.898849 C31.0088699,380.04811 33.0532877,382.218959 35.8605479,383.411397 C38.8678425,384.692164 41.7564726,384.851836 44.5264384,383.893808 L100.610616,369.659288 C107.049007,377.371068 114.49774,384.926575 122.970377,392.315616 L107.920342,451.376986 C107.015103,454.074411 107.255822,456.724274 108.63911,459.329973 C110.019007,461.932274 112.114281,463.831342 114.921541,465.023781 L181.722808,493.401096 C187.540753,495.877699 192.341575,494.593534 196.128664,489.562192 C202.987466,480.620603 213.809658,463.162082 228.585068,437.190027 C239.291986,438.17863 250.032808,438.239781 260.814315,437.363288 L288.558048,487.571397 C290.602466,490.574575 292.826575,492.582356 295.233767,493.608329 C299.648082,495.483616 312.097671,492.351342 332.575753,484.218301 C353.060616,476.081863 367.581747,469.447014 376.149315,464.310356 C378.804007,463.070356 380.682295,461.140712 381.790959,458.524822 C382.892842,455.915726 382.95387,452.977096 381.96726,449.708932 C375.013527,425.887342 370.148288,407.457205 367.381712,394.421918 C374.53887,388.687342 382.316473,381.209973 390.721301,371.972822 L449.961952,387.182356 C452.542055,387.800658 455.095034,387.345425 457.641233,385.816658 C460.180651,384.284493 461.960616,382.317479 462.98113,379.902027 L491.304623,312.972603 C492.409897,310.356712 492.606541,307.652493 491.894555,304.863342 C491.185959,302.067397 489.606027,299.920329 487.168322,298.408548 L435.678151,266.569425 C436.752911,255.647233 436.807158,244.052384 435.844281,231.781479 C441.580856,228.289096 449.992466,223.509151 461.08589,217.428055 C472.175925,211.350356 480.119658,206.845589 484.913699,203.900164 C487.456507,202.371397 489.236473,200.397589 490.256986,197.985534 C491.447021,195.169205 491.680959,192.662027 490.958801,190.457205 C488.076952,177.139945 478.753322,153.026192 462.994692,118.109151 C461.438493,115.075397 459.360171,113.006466 456.752945,111.898959 C453.745651,110.621589 450.951952,110.502685 448.382021,111.545644 L392.002877,125.654466 C385.564486,117.93589 378.108973,110.383781 369.643116,102.991342 L384.693151,43.9333699 C385.59839,41.2359452 385.361062,38.5860822 383.974384,35.9803836 C382.587705,33.3780822 380.495822,31.4790137 377.685171,30.2865753 L310.887295,1.90586301 C308.971712,1.09391781 307.164623,0.686246575 305.469418,0.686246575 C302.014589,0.686246575 299.017466,2.37128767 296.481438,5.74816438 Z M213.643527,324.839233 C192.38226,315.809315 177.416986,300.555616 168.751096,279.088329 C160.085205,257.624438 160.258116,236.23189 169.273219,214.927671 C178.291712,193.623452 193.511267,178.624548 214.935274,169.941151 C236.359281,161.257753 257.701918,161.434411 278.966575,170.467726 C300.231233,179.501041 315.193116,194.75474 323.859007,216.222027 C332.524897,237.685918 332.351986,259.075068 323.333493,280.379288 C314.321781,301.686904 299.102226,316.682411 277.678219,325.365808 C267.174726,329.622575 256.694966,331.74926 246.232158,331.74926 C235.352329,331.74926 224.486062,329.449315 213.643527,324.839233 Z" id="path-3"></path>
    </defs>
    <g id="infosettings2" stroke="none" stroke-width="1" fill="none" fill-rule="evenodd">
        <g id="Group-10" transform="translate(27.000000, 0.000000)">
            <g id="Group-6" transform="translate(503.000000, 5.000000)">
                <path d="M166.543434,83.6979697 L166.543434,14.4549076 C166.543434,10.4137214 165.245807,7.09526621 162.65733,4.49954207 C160.062076,1.90381793 156.748554,0.60425931 152.716763,0.60425931 L69.7499567,0.60425931 C65.7147776,0.60425931 62.4012552,1.90381793 59.8093896,4.49954207 C57.2141358,7.09526621 55.919897,10.4137214 55.919897,14.4549076 L55.919897,83.6979697 C55.919897,87.7357628 57.2141358,91.0542179 59.8093896,93.6533352 C62.4012552,96.2490593 65.7147776,97.5486179 69.7499567,97.5486179 L152.716763,97.5486179 C156.748554,97.5486179 160.062076,96.2490593 162.65733,93.6533352 C165.245807,91.0542179 166.543434,87.7357628 166.543434,83.6979697" id="Fill-1" fill="#020203"></path>
                <g id="Group-5" transform="translate(0.000000, 152.689655)">
                    <mask id="mask-2" fill="white">
                        <use xlink:href="#path-1"></use>
                    </mask>
                    <g id="Clip-4"></g>
                    <path d="M4.49558806,239.577142 C1.90033433,242.172866 0.609483582,245.491321 0.609483582,249.532508 L0.609483582,318.77557 C0.609483582,322.813363 1.90033433,326.131818 4.49558806,328.727542 C7.09084179,331.323266 10.4009761,332.622825 14.4361552,332.622825 L208.029887,332.622825 C212.065066,332.622825 215.3752,331.323266 217.967066,328.727542 C220.558931,326.131818 221.856558,322.813363 221.856558,318.77557 L221.856558,249.532508 C221.856558,245.491321 220.558931,242.172866 217.967066,239.577142 C215.3752,236.978025 212.065066,235.681859 208.029887,235.681859 L166.543096,235.681859 L166.543096,14.1020248 C166.543096,10.0608386 165.245469,6.74577655 162.656991,4.14665931 C160.061737,1.55093517 156.748215,0.254769655 152.716424,0.254769655 L14.4361552,0.254769655 C10.4009761,0.254769655 7.09084179,1.55093517 4.49558806,4.14665931 C1.90033433,6.74577655 0.609483582,10.0608386 0.609483582,14.1020248 L0.609483582,83.3450869 C0.609483582,87.38288 1.90033433,90.7013352 4.49558806,93.3004524 C7.09084179,95.8927834 10.4009761,97.1923421 14.4361552,97.1923421 L55.9195582,97.1923421 L55.9195582,235.681859" id="Fill-3" fill="#020203" mask="url(#mask-2)"></path>
                </g>
            </g>
            <g id="Group-9">
                <mask id="mask-4" fill="white">
                    <use xlink:href="#path-3"></use>
                </mask>
                <g id="Clip-8"></g>
                <polygon id="Fill-7" fill="#010202" mask="url(#mask-4)" points="110.533332 -88.677326 581.959805 111.608153 382.078127 583.987003 -89.3483459 383.701523"></polygon>
            </g>
        </g>
    </g>
</svg>