<?xml version="1.0" encoding="utf-8"?>
<!-- Generator: Adobe Illustrator 27.3.0, SVG Export Plug-In . SVG Version: 6.00 Build 0)  -->
<svg version="1.1" id="Ebene_1" xmlns="http://www.w3.org/2000/svg" xmlns:xlink="http://www.w3.org/1999/xlink" x="0px" y="0px"
	 viewBox="0 0 500 500" style="enable-background:new 0 0 500 500;" xml:space="preserve">
<style type="text/css">
	.st0{fill-rule:evenodd;clip-rule:evenodd;}
</style>
<path class="st0" d="M460,0H40C17.9,0,0,17.9,0,40v420c0,22.1,17.9,40,40,40h420c22.1,0,40-17.9,40-40V40C500,17.9,482.1,0,460,0z
	 M190,250c0-11,9-20,20-20h20h40c11,0,20,9,20,20v100c11,0,20,9,20,20s-9,20-20,20h-20h-40h-20c-11,0-20-9-20-20s9-20,20-20v-80
	C199,270,190,261,190,250z M210,170v-40c0-11,9-20,20-20h40c11,0,20,9,20,20v40c0,11-9,20-20,20h-40C219,190,210,181,210,170z"/>
</svg>
