<?xml version="1.0" encoding="UTF-8"?>
<svg width="500px" height="500px" viewBox="0 0 500 500" version="1.1" xmlns="http://www.w3.org/2000/svg" xmlns:xlink="http://www.w3.org/1999/xlink">
    <!-- Generator: Sketch 52.6 (67491) - http://www.bohemiancoding.com/sketch -->
    <title>infosettings</title>
    <desc>Created with Sketch.</desc>
    <defs>
        <polygon id="path-1" points="0 0 571 0 571 574 0 574"></polygon>
    </defs>
    <g id="infosettings" stroke="none" stroke-width="1" fill="none" fill-rule="evenodd">
        <g id="Group-3" transform="translate(-36.000000, -37.000000)">
            <mask id="mask-2" fill="white">
                <use xlink:href="#path-1"></use>
            </mask>
            <g id="Clip-2"></g>
            <path d="M348.715098,219.437682 C348.715098,223.955384 347.269429,227.668193 344.37809,230.573398 C341.486752,233.478603 337.791664,234.931206 333.295525,234.931206 L240.786175,234.931206 C236.290035,234.931206 232.594948,233.478603 229.703609,230.573398 C226.814968,227.668193 225.369298,223.955384 225.369298,219.437682 L225.369298,141.978193 C225.369298,137.45778 226.814968,133.747682 229.703609,130.842477 C232.594948,127.937271 236.290035,126.484669 240.786175,126.484669 L333.295525,126.484669 C337.791664,126.484669 341.486752,127.937271 344.37809,130.842477 C347.269429,133.747682 348.715098,137.45778 348.715098,141.978193 L348.715098,219.437682 Z M570.371806,225.955423 C571.356264,222.684357 571.183646,219.410581 569.853954,216.131385 L538.246121,138.12988 C535.495034,131.338421 530.5215,128.457607 523.330913,129.487437 C510.441261,131.211047 487.383375,136.685408 454.162649,145.907808 C446.206074,136.330387 437.453841,127.484688 427.916739,119.37071 L445.682828,55.5781515 C446.780566,51.5780743 446.713137,48.0576812 445.477845,45.0115519 C443.392952,39.8569809 430.573426,32.2010066 407.021962,22.0382089 C383.473196,11.8754111 366.268113,5.46336328 355.406713,2.80748547 C351.522826,1.94026007 348.415715,1.98362134 346.082686,2.93756929 C343.285747,4.08122279 340.963506,6.39834068 339.113265,9.88350278 C326.593121,33.3012989 315.586076,52.4154888 306.094825,67.2206526 C292.997493,65.7544996 280.423406,65.5729243 268.369869,66.6813468 L232.098673,5.33598955 C230.588272,2.9484096 228.171631,1.3440426 224.846052,0.517468384 C221.523171,-0.306395753 218.461912,-0.146501069 215.664973,0.997152437 L138.038465,32.759283 C135.006875,33.9977893 132.646874,36.0547395 130.958461,38.9328438 C129.270049,41.8082381 128.808838,44.8624976 129.577524,48.0983324 L146.191932,116.259539 C136.099218,124.210912 126.505476,133.734131 117.410706,144.826486 C109.874885,142.994473 99.0943995,140.032356 85.0692495,135.940136 C71.0467966,131.847916 60.8758657,129.045694 54.5564568,127.53347 C51.2335751,126.709605 48.1723164,126.8695 45.3753778,128.015864 C42.3437877,129.25437 39.994575,131.170396 38.3277399,133.763942 C29.4406497,148.048771 17.6918894,175.385342 3.07606476,215.770945 C1.55487541,219.397031 1.46047536,222.849672 2.79016747,226.128868 C4.21156248,229.643841 6.4501922,232.142534 9.49526804,233.624948 L66.9875945,267.858671 C65.9815597,279.463231 65.9411026,291.769701 66.8635259,304.772662 L6.50952937,340.935962 C3.57503644,342.410245 1.61421259,344.781564 0.627057796,348.05263 C-0.354702705,351.320986 -0.184782618,354.597472 1.14490949,357.876668 L32.7527428,435.875463 C35.506527,442.669632 40.4773639,445.550447 47.6706475,444.520616 C60.5602998,442.797006 83.6154887,437.319935 116.838911,428.097535 C124.795487,437.677666 133.545023,446.523365 143.082125,454.634633 L124.965407,518.573536 C124.196721,522.709117 124.382824,526.186149 125.521019,528.996501 C127.608608,534.148362 140.347221,541.771816 163.731461,551.864151 C187.118399,561.959197 204.404396,568.403766 215.59215,571.197858 C218.777478,572.355062 221.887285,572.3117 224.916178,571.070484 C225.07531,571.005442 225.212864,570.902459 225.369298,570.831997 L225.369298,405.343709 L179.113275,405.343709 C174.617135,405.343709 170.924745,403.891106 168.033406,400.985901 C165.13937,398.083406 163.696398,394.370597 163.696398,389.852895 L163.696398,312.390695 C163.696398,307.872993 165.13937,304.162894 168.033406,301.254979 C170.924745,298.349774 174.617135,296.899882 179.113275,296.899882 L333.295525,296.899882 C337.791664,296.899882 341.486752,298.349774 344.37809,301.254979 C347.269429,304.162894 348.715098,307.872993 348.715098,312.390695 L348.715098,573.926908 C351.064311,574.154554 353.270575,573.851025 355.33389,573.008191 L432.963096,541.24877 C435.991989,540.007554 438.35199,537.950604 440.040402,535.075209 C441.728814,532.199815 442.190026,529.145556 441.42134,525.909721 L425.15756,457.60759 C434.92392,449.512583 444.401684,440.038145 453.588158,429.181567 C461.126676,431.010871 471.904464,433.972987 485.929614,438.067917 C499.952067,442.160137 510.125695,444.962359 516.445104,446.471874 C519.767986,447.295738 522.829244,447.138553 525.626183,445.9949 C528.889728,444.65612 531.120266,442.788876 532.320495,440.385035 C540.794922,427.089386 552.778334,399.657962 568.273428,358.090764 C569.465565,354.326464 569.446685,350.922604 568.211393,347.879185 C566.789998,344.364212 564.599917,341.982052 561.646544,340.732706 L504.013966,306.146672 C505.017304,294.542112 505.057761,282.238352 504.138035,269.232681 L564.492031,233.072092 C567.426524,231.597808 569.384651,229.223779 570.371806,225.955423 Z" id="Fill-1" fill="#010202" mask="url(#mask-2)"></path>
        </g>
    </g>
</svg>