<?xml version="1.0" encoding="UTF-8"?>
<svg width="781px" height="500px" viewBox="0 0 781 500" version="1.1" xmlns="http://www.w3.org/2000/svg" xmlns:xlink="http://www.w3.org/1999/xlink">
    <!-- Generator: Sketch 52.6 (67491) - http://www.bohemiancoding.com/sketch -->
    <title>infosettings3</title>
    <desc>Created with Sketch.</desc>
    <defs>
        <polygon id="path-1" points="483.297082 159.65538 700.296537 159.65538 700.296537 491.339863 483.297082 491.339863"></polygon>
    </defs>
    <g id="infosettings3" stroke="none" stroke-width="1" fill="none" fill-rule="evenodd">
        <g id="Group-11" transform="translate(39.000000, 0.000000)">
            <path d="M645.869215,89.8251367 L645.869215,20.8388472 C645.869215,16.8167781 644.598043,13.5087841 642.052372,10.9248289 C639.503373,8.3375524 636.248907,7.04225352 632.288974,7.04225352 L550.797545,7.04225352 C546.837612,7.04225352 543.583146,8.3375524 541.037475,10.9248289 C538.488476,13.5087841 537.217304,16.8167781 537.217304,20.8388472 L537.217304,89.8251367 C537.217304,93.8472058 538.488476,97.1551998 541.037475,99.7424763 C543.583146,102.329753 546.837612,103.62173 550.797545,103.62173 L632.288974,103.62173 C636.248907,103.62173 639.503373,102.329753 642.052372,99.7424763 C644.598043,97.1551998 645.869215,93.8472058 645.869215,89.8251367" id="Fill-1" fill="#000000"></path>
            <mask id="mask-2" fill="white">
                <use xlink:href="#path-1"></use>
            </mask>
            <g id="Clip-4"></g>
            <path d="M487.11185,398.486306 C484.569779,401.074628 483.297082,404.384886 483.297082,408.417079 L483.297082,477.519953 C483.297082,481.552147 484.569779,484.862404 487.11185,487.454053 C489.65392,490.045702 492.903783,491.339863 496.861438,491.339863 L686.735836,491.339863 C690.690168,491.339863 693.940031,490.045702 696.482102,487.454053 C699.024172,484.862404 700.296869,481.552147 700.296869,477.519953 L700.296869,408.417079 C700.296869,404.384886 699.024172,401.074628 696.482102,398.486306 C693.940031,395.894657 690.690168,394.597169 686.735836,394.597169 L646.046092,394.597169 L646.046092,173.475289 C646.046092,169.443096 644.776718,166.132839 642.234647,163.54119 C639.689254,160.949541 636.439391,159.65538 632.485059,159.65538 L496.861438,159.65538 C492.903783,159.65538 489.65392,160.949541 487.11185,163.54119 C484.569779,166.132839 483.297082,169.443096 483.297082,173.475289 L483.297082,242.574837 C483.297082,246.60703 484.569779,249.917288 487.11185,252.508937 C489.65392,255.100586 492.903783,256.398074 496.861438,256.398074 L537.54786,256.398074 L537.54786,394.597169" id="Fill-3" fill="#000000"></path>
            <path d="M193.165999,486.384314 C199.896478,477.630074 210.512869,460.537355 225.015173,435.109481 C225.364505,435.142742 225.717165,435.15272 226.069825,435.182655 L272.464553,325.901006 C251.68424,334.109769 230.980447,333.860313 210.356501,325.116051 C189.489686,316.268681 174.804399,301.337913 166.30064,280.32042 C157.79688,259.306254 157.966556,238.365261 166.816322,217.504094 C175.66276,196.646253 190.597571,181.964941 211.620753,173.463483 C232.643936,164.962025 253.587272,165.131655 274.454087,173.975699 C295.101321,182.729939 309.676818,197.464468 318.217174,218.139375 L364.575305,108.944204 C364.189376,108.601618 363.826735,108.255706 363.434151,107.91312 L378.202613,50.0925635 C379.08759,47.4516569 378.854701,44.8573153 377.497293,42.3062128 C376.139886,39.7584363 374.083813,37.8991582 371.325747,36.7317045 L305.777598,8.94896727 C300.068501,6.52758182 295.357498,7.77818749 291.641262,12.7074365 C284.910783,21.4616762 274.294392,38.5510697 259.792088,63.9822691 C249.288814,63.0110541 238.748944,62.9545107 228.165822,63.809313 L200.814724,14.9525397 C199.091349,11.8991993 196.948774,9.83037819 194.390327,8.74607646 C190.0586,6.91008089 177.775392,10.0033343 157.537376,18.0258367 C137.296033,26.048339 123.116447,32.5142364 114.991963,37.4301811 C112.137415,39.2362419 110.290941,41.1254548 109.455869,43.0944935 C108.454449,45.4560095 108.437814,48.2332854 109.402638,51.4296473 C115.830362,72.9593561 120.604577,91.0033343 123.721957,105.558256 C114.96202,112.523065 107.283352,119.950199 100.689279,127.833006 L42.2641931,112.819086 C39.9286535,112.293565 37.5165934,112.782499 35.0246858,114.279235 C32.5327782,115.77597 30.7827871,117.705096 29.7846932,120.066612 L1.99110717,185.600345 C0.903184899,188.1581 0.710220092,190.802332 1.40888577,193.539695 C2.10755145,196.270406 3.65459688,198.37914 6.04669508,199.855919 L56.6999568,230.73191 C55.365838,241.541666 55.2693556,252.993356 56.4138365,265.086979 C50.7845873,268.502862 42.5270244,273.185981 31.6411478,279.136336 C20.7585981,285.086692 12.9634853,289.503724 8.25580942,292.384109 C5.76390183,293.88417 4.01723764,295.813296 3.01581683,298.174812 C1.93122154,300.732567 1.65840923,303.286995 2.20403385,305.838098 C5.37464524,319.721151 14.6036862,343.136747 29.8911566,376.081559 C31.1387739,379.164834 33.1382885,381.290198 35.8963544,382.457652 C38.8473852,383.711584 41.6852986,383.867909 44.4034408,382.929955 L99.4316804,368.993685 C105.749614,376.54721 113.065642,383.941083 121.37311,391.178631 L106.607975,448.999187 C105.719672,451.640094 105.95256,454.234435 107.309968,456.785538 C108.667375,459.333314 110.723449,461.192592 113.481515,462.360046 L179.029663,490.146109 C184.73876,492.564169 189.449763,491.310237 193.165999,486.384314" id="Fill-6" fill="#000000"></path>
            <polygon id="Fill-9" fill="#000000" points="293.290463 500 255.527163 483.995372 461.224628 0 498.987928 16.0079524"></polygon>
        </g>
    </g>
</svg>