<?xml version="1.0" encoding="utf-8"?>
<!-- Generator: Adobe Illustrator 26.2.1, SVG Export Plug-In . SVG Version: 6.00 Build 0)  -->
<svg version="1.1" id="Ebene_1" xmlns="http://www.w3.org/2000/svg" xmlns:xlink="http://www.w3.org/1999/xlink" x="0px" y="0px"
	 viewBox="0 0 500 500" style="enable-background:new 0 0 500 500;" xml:space="preserve">
<style type="text/css">
	.st0{fill-rule:evenodd;clip-rule:evenodd;}
</style>
<path class="st0" d="M250,0C111.9,0,0,111.9,0,250s111.9,250,250,250s250-111.9,250-250S388.1,0,250,0z M290,370c0,11-9,20-20,20
	h-40c-11,0-20-9-20-20V250c0-11,9-20,20-20h40c11,0,20,9,20,20V370z M290,170c0,11-9,20-20,20h-40c-11,0-20-9-20-20v-40
	c0-11,9-20,20-20h40c11,0,20,9,20,20V170z"/>
</svg>
