<?xml version="1.0" encoding="UTF-8"?>
<svg width="781px" height="500px" viewBox="0 0 781 500" version="1.1" xmlns="http://www.w3.org/2000/svg" xmlns:xlink="http://www.w3.org/1999/xlink">
    <!-- Generator: Sketch 52.6 (67491) - http://www.bohemiancoding.com/sketch -->
    <title>infosettings3</title>
    <desc>Created with Sketch.</desc>
    <defs>
        <polygon id="path-1" points="522.297082 159.65538 739.296537 159.65538 739.296537 491.339863 522.297082 491.339863"></polygon>
    </defs>
    <g id="infosettings3" stroke="none" stroke-width="1" fill="none" fill-rule="evenodd">
        <path d="M684.869215,89.8251367 L684.869215,20.8388472 C684.869215,16.8167781 683.598043,13.5087841 681.052372,10.9248289 C678.503373,8.3375524 675.248907,7.04225352 671.288974,7.04225352 L589.797545,7.04225352 C585.837612,7.04225352 582.583146,8.3375524 580.037475,10.9248289 C577.488476,13.5087841 576.217304,16.8167781 576.217304,20.8388472 L576.217304,89.8251367 C576.217304,93.8472058 577.488476,97.1551998 580.037475,99.7424763 C582.583146,102.329753 585.837612,103.62173 589.797545,103.62173 L671.288974,103.62173 C675.248907,103.62173 678.503373,102.329753 681.052372,99.7424763 C683.598043,97.1551998 684.869215,93.8472058 684.869215,89.8251367" id="Fill-1" fill="#000000"></path>
        <mask id="mask-2" fill="white">
            <use xlink:href="#path-1"></use>
        </mask>
        <g id="Clip-4"></g>
        <path d="M526.11185,398.486306 C523.569779,401.074628 522.297082,404.384886 522.297082,408.417079 L522.297082,477.519953 C522.297082,481.552147 523.569779,484.862404 526.11185,487.454053 C528.65392,490.045702 531.903783,491.339863 535.861438,491.339863 L725.735836,491.339863 C729.690168,491.339863 732.940031,490.045702 735.482102,487.454053 C738.024172,484.862404 739.296869,481.552147 739.296869,477.519953 L739.296869,408.417079 C739.296869,404.384886 738.024172,401.074628 735.482102,398.486306 C732.940031,395.894657 729.690168,394.597169 725.735836,394.597169 L685.046092,394.597169 L685.046092,173.475289 C685.046092,169.443096 683.776718,166.132839 681.234647,163.54119 C678.689254,160.949541 675.439391,159.65538 671.485059,159.65538 L535.861438,159.65538 C531.903783,159.65538 528.65392,160.949541 526.11185,163.54119 C523.569779,166.132839 522.297082,169.443096 522.297082,173.475289 L522.297082,242.574837 C522.297082,246.60703 523.569779,249.917288 526.11185,252.508937 C528.65392,255.100586 531.903783,256.398074 535.861438,256.398074 L576.54786,256.398074 L576.54786,394.597169" id="Fill-3" fill="#000000"></path>
        <path d="M232.165999,486.384314 C238.896478,477.630074 249.512869,460.537355 264.015173,435.109481 C264.364505,435.142742 264.717165,435.15272 265.069825,435.182655 L311.464553,325.901006 C290.68424,334.109769 269.980447,333.860313 249.356501,325.116051 C228.489686,316.268681 213.804399,301.337913 205.30064,280.32042 C196.79688,259.306254 196.966556,238.365261 205.816322,217.504094 C214.66276,196.646253 229.597571,181.964941 250.620753,173.463483 C271.643936,164.962025 292.587272,165.131655 313.454087,173.975699 C334.101321,182.729939 348.676818,197.464468 357.217174,218.139375 L403.575305,108.944204 C403.189376,108.601618 402.826735,108.255706 402.434151,107.91312 L417.202613,50.0925635 C418.08759,47.4516569 417.854701,44.8573153 416.497293,42.3062128 C415.139886,39.7584363 413.083813,37.8991582 410.325747,36.7317045 L344.777598,8.94896727 C339.068501,6.52758182 334.357498,7.77818749 330.641262,12.7074365 C323.910783,21.4616762 313.294392,38.5510697 298.792088,63.9822691 C288.288814,63.0110541 277.748944,62.9545107 267.165822,63.809313 L239.814724,14.9525397 C238.091349,11.8991993 235.948774,9.83037819 233.390327,8.74607646 C229.0586,6.91008089 216.775392,10.0033343 196.537376,18.0258367 C176.296033,26.048339 162.116447,32.5142364 153.991963,37.4301811 C151.137415,39.2362419 149.290941,41.1254548 148.455869,43.0944935 C147.454449,45.4560095 147.437814,48.2332854 148.402638,51.4296473 C154.830362,72.9593561 159.604577,91.0033343 162.721957,105.558256 C153.96202,112.523065 146.283352,119.950199 139.689279,127.833006 L81.2641931,112.819086 C78.9286535,112.293565 76.5165934,112.782499 74.0246858,114.279235 C71.5327782,115.77597 69.7827871,117.705096 68.7846932,120.066612 L40.9911072,185.600345 C39.9031849,188.1581 39.7102201,190.802332 40.4088858,193.539695 C41.1075514,196.270406 42.6545969,198.37914 45.0466951,199.855919 L95.6999568,230.73191 C94.365838,241.541666 94.2693556,252.993356 95.4138365,265.086979 C89.7845873,268.502862 81.5270244,273.185981 70.6411478,279.136336 C59.7585981,285.086692 51.9634853,289.503724 47.2558094,292.384109 C44.7639018,293.88417 43.0172376,295.813296 42.0158168,298.174812 C40.9312215,300.732567 40.6584092,303.286995 41.2040339,305.838098 C44.3746452,319.721151 53.6036862,343.136747 68.8911566,376.081559 C70.1387739,379.164834 72.1382885,381.290198 74.8963544,382.457652 C77.8473852,383.711584 80.6852986,383.867909 83.4034408,382.929955 L138.43168,368.993685 C144.749614,376.54721 152.065642,383.941083 160.37311,391.178631 L145.607975,448.999187 C144.719672,451.640094 144.95256,454.234435 146.309968,456.785538 C147.667375,459.333314 149.723449,461.192592 152.481515,462.360046 L218.029663,490.146109 C223.73876,492.564169 228.449763,491.310237 232.165999,486.384314" id="Fill-6" fill="#000000"></path>
        <polygon id="Fill-9" fill="#000000" points="332.290463 500 294.527163 483.995372 500.224628 0 537.987928 16.0079524"></polygon>
    </g>
</svg>