<?xml version="1.0" encoding="UTF-8"?>
<svg width="500px" height="500px" viewBox="0 0 500 500" version="1.1" xmlns="http://www.w3.org/2000/svg" xmlns:xlink="http://www.w3.org/1999/xlink">
    <!-- Generator: Sketch 52.6 (67491) - http://www.bohemiancoding.com/sketch -->
    <title>infosettings</title>
    <desc>Created with Sketch.</desc>
    <defs>
        <polygon id="path-1" points="0 0 499 0 499 500 0 500"></polygon>
    </defs>
    <g id="infosettings" stroke="none" stroke-width="1" fill="none" fill-rule="evenodd">
        <g id="Group-3">
            <mask id="mask-2" fill="white">
                <use xlink:href="#path-1"></use>
            </mask>
            <g id="Clip-2"></g>
            <path d="M304.744018,191.147807 C304.744018,195.083088 303.480639,198.317242 300.953883,200.847908 C298.427126,203.378574 295.197969,204.643908 291.268769,204.643908 L210.424345,204.643908 C206.495145,204.643908 203.265988,203.378574 200.739231,200.847908 C198.214832,198.317242 196.951453,195.083088 196.951453,191.147807 L196.951453,123.674384 C196.951453,119.736742 198.214832,116.504949 200.739231,113.974283 C203.265988,111.443616 206.495145,110.178283 210.424345,110.178283 L291.268769,110.178283 C295.197969,110.178283 298.427126,111.443616 300.953883,113.974283 C303.480639,116.504949 304.744018,119.736742 304.744018,123.674384 L304.744018,191.147807 Z M498.451018,196.825281 C499.311341,193.975921 499.160489,191.1242 497.998464,188.267757 L470.376207,120.322195 C467.972017,114.40629 463.625619,111.89687 457.341726,112.793935 C446.077389,114.295337 425.926977,119.063944 396.895205,127.097394 C389.94191,118.754693 382.293286,111.04938 373.958761,103.981455 L389.484643,48.413024 C390.443962,44.9286362 390.385036,41.8620916 389.305507,39.2086689 C387.483508,34.7186245 376.280455,28.0496573 355.698703,19.1970461 C335.119308,10.3444348 320.083693,4.75902725 310.591856,2.44554484 C307.197706,1.69012201 304.482385,1.72789315 302.443538,2.55885826 C299.999278,3.55507212 297.969859,5.57346749 296.352923,8.60932298 C285.411502,29.0081 275.792385,45.6580913 267.49793,58.5545754 C256.0521,57.2774387 245.063537,57.1192721 234.529885,58.0847969 L202.832291,4.64807452 C201.512343,2.56830105 199.400427,1.17076882 196.494186,0.450756432 C193.590301,-0.266895256 190.915051,-0.127614172 188.470791,0.868599684 L120.632564,28.5359608 C117.983241,29.614799 115.920823,31.4065675 114.44531,33.913627 C112.969798,36.4183259 112.566742,39.0788306 113.238501,41.8975021 L127.757923,101.271376 C118.937846,108.197659 110.553823,116.493146 102.605853,126.155476 C96.0202585,124.559645 86.5991337,121.979404 74.342479,118.414753 C62.0881813,114.850101 53.1997495,112.409141 47.6771838,111.091872 C44.7732994,110.374221 42.0980488,110.513502 39.653789,111.512076 C37.0044659,112.590915 34.9514763,114.259927 33.49482,116.519113 C25.7283436,128.962344 15.4610382,152.774688 2.68818969,187.953785 C1.35881406,191.112396 1.27631735,194.119923 2.4383425,196.976366 C3.68050732,200.038189 5.63685798,202.214751 8.29796629,203.506052 L58.5408225,233.326368 C57.6616433,243.43487 57.6262875,254.154792 58.4323983,265.481413 L5.68871306,296.982545 C3.12424376,298.266764 1.41066914,300.332373 0.547989212,303.181734 C-0.30997662,306.028733 -0.161482533,308.882815 1.00054262,311.739258 L28.6227997,379.682459 C31.0293467,385.600725 35.373388,388.110145 41.6596377,387.213081 C52.9239748,385.711678 73.0720296,380.94071 102.106159,372.907261 C109.059454,381.252322 116.70572,388.957635 125.040246,396.023199 L109.207948,451.719108 C108.536189,455.321531 108.698825,458.350304 109.6935,460.798346 C111.517856,465.28603 122.650198,471.926669 143.085813,480.717902 C163.523785,489.511496 178.630112,495.125232 188.407151,497.559109 C191.190826,498.567127 193.908503,498.529356 196.555469,497.448157 C196.694535,497.3915 196.814744,497.301794 196.951453,497.240415 L196.951453,353.086854 L156.528063,353.086854 C152.598862,353.086854 149.372062,351.821521 146.845306,349.290855 C144.316192,346.762549 143.055171,343.528395 143.055171,339.593114 L143.055171,272.11733 C143.055171,268.18205 144.316192,264.950256 146.845306,262.417229 C149.372062,259.886563 152.598862,258.62359 156.528063,258.62359 L291.268769,258.62359 C295.197969,258.62359 298.427126,259.886563 300.953883,262.417229 C303.480639,264.950256 304.744018,268.18205 304.744018,272.11733 L304.744018,499.936331 C306.797007,500.134629 308.725073,499.870231 310.528216,499.136055 L378.3688,471.471054 C381.015766,470.389855 383.078184,468.598087 384.553696,466.093388 C386.029209,463.588689 386.432265,460.928184 385.760506,458.109513 L371.5475,398.612883 C380.082375,391.561483 388.365045,383.308489 396.393154,373.851539 C402.981105,375.445009 412.399873,378.02525 424.656528,381.592263 C436.910826,385.156914 445.801614,387.597874 451.32418,388.912782 C454.228065,389.630434 456.903315,389.493513 459.347575,388.497299 C462.199604,387.331115 464.148884,385.704596 465.197771,383.610658 C472.603619,372.029082 483.075987,348.134113 496.617234,311.925753 C497.659049,308.646746 497.64255,305.681711 496.563022,303.030649 C495.320857,299.968826 493.406933,297.893774 490.825964,296.805493 L440.460541,266.678286 C441.337364,256.569784 441.372719,245.852223 440.568966,234.523241 L493.312651,203.02447 C495.87712,201.740251 497.588338,199.672281 498.451018,196.825281 Z" id="Fill-1" fill="#010202" mask="url(#mask-2)"></path>
        </g>
    </g>
</svg>