<?xml version="1.0" encoding="UTF-8"?>
<svg width="500px" height="500px" viewBox="0 0 500 500" version="1.1" xmlns="http://www.w3.org/2000/svg" xmlns:xlink="http://www.w3.org/1999/xlink">
    <!-- Generator: Sketch 52.6 (67491) - http://www.bohemiancoding.com/sketch -->
    <title>intersect</title>
    <desc>Created with Sketch.</desc>
    <defs>
        <polygon id="path-1" points="0 0 496.878189 0 496.878189 299.740667 0 299.740667"></polygon>
    </defs>
    <g id="intersect" stroke="none" stroke-width="1" fill="none" fill-rule="evenodd">
        <g id="Group-3" transform="translate(1.000000, 100.000000)">
            <mask id="mask-2" fill="white">
                <use xlink:href="#path-1"></use>
            </mask>
            <g id="Clip-2"></g>
            <path d="M347.009312,282.266982 C315.17226,282.266982 284.934049,271.028491 260.948505,250.450316 C261.763944,249.556246 262.532786,248.627228 263.322014,247.715684 C263.933593,247.008 264.562646,246.309053 265.162575,245.595544 C266.234295,244.308316 267.26233,242.991965 268.290365,241.675614 C268.744681,241.090246 269.222295,240.522351 269.664961,239.93407 C271.115277,238.014877 272.521909,236.069474 273.873207,234.092035 C274.050856,233.82993 274.213944,233.556175 274.391593,233.29407 C275.550681,231.575825 276.683558,229.837193 277.766926,228.078175 C278.206681,227.358842 278.617312,226.619123 279.04833,225.893965 C279.831733,224.568877 280.615137,223.243789 281.354856,221.898316 C281.823733,221.04793 282.260575,220.182982 282.709067,219.32386 C283.36433,218.074491 284.022505,216.828035 284.639909,215.564105 C285.0884,214.643825 285.510681,213.714807 285.938786,212.788702 C286.509593,211.559719 287.074575,210.330737 287.610435,209.084281 C288.026891,208.120316 288.417137,207.147614 288.813207,206.174912 C289.311207,204.943018 289.803382,203.708211 290.269347,202.464667 C290.642119,201.468667 290.997418,200.466842 291.346891,199.465018 C291.783733,198.221474 292.206014,196.969193 292.607909,195.711088 C292.934084,194.694702 293.248611,193.675404 293.551488,192.653193 C293.927172,191.380526 294.28247,190.104947 294.626119,188.826456 C294.899874,187.798421 295.170716,186.770386 295.424084,185.736526 C295.741523,184.431825 296.032751,183.121298 296.315242,181.810772 C296.536575,180.782737 296.763733,179.760526 296.961768,178.726667 C297.223874,177.372456 297.453944,176.012421 297.678189,174.646561 C297.844189,173.641825 298.021839,172.64 298.167453,171.629439 C298.374225,170.199509 298.537312,168.75793 298.703312,167.316351 C298.813979,166.358211 298.942119,165.405895 299.035312,164.444842 C299.186751,162.846 299.288681,161.235509 299.390611,159.630842 C299.443032,158.812491 299.521663,158.005789 299.559523,157.190351 C299.676014,154.761509 299.740084,152.321018 299.740084,149.871789 C299.740084,147.422561 299.676014,144.98207 299.559523,142.553228 C299.521663,141.737789 299.443032,140.934 299.393523,140.121474 C299.291593,138.510982 299.186751,136.900491 299.035312,135.298737 C298.942119,134.340596 298.813979,133.391193 298.706225,132.438877 C298.537312,130.991474 298.374225,129.546982 298.167453,128.108316 C298.021839,127.106491 297.847102,126.110491 297.681102,125.111579 C297.453944,123.739895 297.223874,122.371123 296.961768,121.008175 C296.763733,119.983053 296.539488,118.969579 296.321067,117.950281 C296.035663,116.628105 295.741523,115.308842 295.421172,113.998316 C295.170716,112.973193 294.902786,111.953895 294.629032,110.934596 C294.285382,109.644456 293.927172,108.357228 293.548575,107.081649 C293.248611,106.065263 292.934084,105.054702 292.613733,104.049965 C292.206014,102.780211 291.780821,101.519193 291.341067,100.261088 C290.994505,99.268 290.642119,98.2778246 290.275172,97.2934737 C289.803382,96.0382807 289.308295,94.7889123 288.80447,93.5453684 C288.414225,92.5843158 288.026891,91.6232632 287.61626,90.6709474 C287.074575,89.4128421 286.500856,88.1692982 285.924225,86.9257544 C285.501944,86.0112982 285.0884,85.0968421 284.645733,84.1911228 C284.019593,82.9097193 283.355593,81.6457895 282.691593,80.3818596 C282.246014,79.5402105 281.820821,78.6898246 281.360681,77.854 C280.6064,76.4852281 279.808435,75.1397544 279.013382,73.7913684 C278.596926,73.0895088 278.200856,72.3730877 277.769839,71.6741404 C276.666084,69.8743509 275.509909,68.1036842 274.324611,66.3475789 C274.17026,66.1204211 274.03047,65.8845263 273.876119,65.6573684 C272.521909,63.6741053 271.115277,61.7228772 269.659137,59.8007719 C269.233944,59.2387018 268.779628,58.691193 268.345698,58.1349474 C267.297277,56.792386 266.248856,55.4498246 265.153839,54.1392982 C264.56847,53.4374386 263.953979,52.7559649 263.354049,52.0628421 C262.553172,51.1396491 261.772681,50.1989825 260.948505,49.2903509 C284.936961,28.7150877 315.175172,17.4736842 347.009312,17.4736842 C420.011453,17.4736842 479.404505,76.8696491 479.404505,149.871789 C479.404505,222.87393 420.011453,282.266982 347.009312,282.266982 M149.871207,282.266982 C76.8661544,282.266982 17.4731018,222.87393 17.4731018,149.871789 C17.4731018,76.8696491 76.8661544,17.4736842 149.871207,17.4736842 C181.705347,17.4736842 211.94647,28.7150877 235.932014,49.2903509 C235.104926,50.1989825 234.321523,51.1454737 233.517733,52.0715789 C232.923628,52.7588772 232.309137,53.4403509 231.726681,54.136386 C230.631663,55.4527368 229.577418,56.7952982 228.528996,58.1407719 C228.097979,58.6970175 227.643663,59.2387018 227.21847,59.8007719 C225.765242,61.7228772 224.358611,63.6741053 223.0044,65.6573684 C222.847137,65.8845263 222.707347,66.1204211 222.552996,66.3475789 C221.367698,68.1036842 220.214435,69.8743509 219.110681,71.6741404 C218.682575,72.3730877 218.286505,73.0836842 217.870049,73.7855439 C217.072084,75.1368421 216.271207,76.4852281 215.516926,77.8569123 C215.059698,78.6869123 214.634505,79.534386 214.194751,80.3731228 C213.527839,81.6399649 212.860926,82.906807 212.234786,84.1911228 C211.792119,85.0968421 211.378575,86.0112982 210.953382,86.9257544 C210.376751,88.1692982 209.805944,89.4128421 209.26426,90.6709474 C208.853628,91.6232632 208.466295,92.5843158 208.076049,93.5453684 C207.572225,94.7889123 207.077137,96.0382807 206.605347,97.2934737 C206.2384,98.2778246 205.886014,99.268 205.539453,100.258175 C205.096786,101.519193 204.671593,102.783123 204.263874,104.055789 C203.943523,105.054702 203.634821,106.062351 203.334856,107.075825 C202.953347,108.354316 202.595137,109.644456 202.248575,110.937509 C201.977733,111.956807 201.709804,112.973193 201.459347,113.998316 C201.138996,115.308842 200.844856,116.628105 200.559453,117.950281 C200.341032,118.969579 200.116786,119.983053 199.918751,121.008175 C199.653733,122.371123 199.423663,123.739895 199.199418,125.111579 C199.033418,126.110491 198.858681,127.106491 198.713067,128.108316 C198.503382,129.549895 198.340295,131.000211 198.174295,132.450526 C198.063628,133.39993 197.935488,134.343509 197.845207,135.295825 C197.693768,136.900491 197.588926,138.516807 197.486996,140.130211 C197.434575,140.939825 197.358856,141.743614 197.320996,142.553228 C197.204505,144.98207 197.140435,147.422561 197.140435,149.871789 C197.140435,152.321018 197.204505,154.761509 197.320996,157.190351 C197.358856,158.002877 197.434575,158.806667 197.486996,159.619193 C197.588926,161.232596 197.693768,162.846 197.845207,164.447754 C197.935488,165.402982 198.063628,166.352386 198.174295,167.304702 C198.340295,168.749193 198.506295,170.196596 198.713067,171.629439 C198.858681,172.64 199.033418,173.641825 199.20233,174.646561 C199.426575,176.012421 199.653733,177.372456 199.918751,178.726667 C200.116786,179.760526 200.341032,180.782737 200.562365,181.810772 C200.847768,183.121298 201.138996,184.431825 201.456435,185.736526 C201.706891,186.770386 201.980646,187.798421 202.2544,188.823544 C202.598049,190.104947 202.953347,191.383439 203.329032,192.653193 C203.631909,193.675404 203.946435,194.694702 204.269698,195.705263 C204.671593,196.966281 205.096786,198.218561 205.530716,199.465018 C205.883102,200.469754 206.2384,201.468667 206.611172,202.464667 C207.077137,203.708211 207.5664,204.943018 208.067312,206.174912 C208.46047,207.147614 208.853628,208.120316 209.270084,209.084281 C209.803032,210.330737 210.370926,211.559719 210.938821,212.788702 C211.369839,213.714807 211.789207,214.643825 212.240611,215.564105 C212.860926,216.830947 213.516189,218.080316 214.174365,219.332596 C214.622856,220.188807 215.056786,221.04793 215.522751,221.898316 C216.265382,223.243789 217.051698,224.571789 217.838014,225.899789 C218.263207,226.624947 218.673839,227.358842 219.113593,228.078175 C220.196961,229.837193 221.329839,231.575825 222.488926,233.29407 C222.666575,233.556175 222.826751,233.82993 223.007312,234.092035 C224.358611,236.069474 225.76233,238.014877 227.212646,239.93407 C227.658225,240.519439 228.132926,241.087333 228.58433,241.669789 C229.612365,242.989053 230.643312,244.308316 231.720856,245.595544 C232.314961,246.309053 232.941102,247.002175 233.549768,247.706947 C234.341909,248.621404 235.113663,249.553333 235.932014,250.450316 C211.949382,271.028491 181.70826,282.266982 149.871207,282.266982 M347.009312,0 C310.538821,0 275.932189,13.0470175 248.629558,36.8752982 L248.44026,36.6918246 L248.250961,36.8752982 C220.94833,13.0470175 186.341698,0 149.871207,0 C67.2323298,0 -0.00058245614,67.2329123 -0.00058245614,149.871789 C-0.00058245614,232.510667 67.2323298,299.740667 149.871207,299.740667 C186.347523,299.740667 220.951242,286.693649 248.253874,262.865368 L248.44026,263.04593 L248.626646,262.865368 C275.929277,286.693649 310.535909,299.740667 347.009312,299.740667 C429.648189,299.740667 496.878189,232.510667 496.878189,149.871789 C496.878189,67.2329123 429.648189,0 347.009312,0" id="Fill-1" fill="#1D1D1B" mask="url(#mask-2)"></path>
        </g>
    </g>
</svg>