<?xml version="1.0" encoding="utf-8"?>
<!-- Generator: Adobe Illustrator 27.3.0, SVG Export Plug-In . SVG Version: 6.00 Build 0)  -->
<svg version="1.1" id="Ebene_1" xmlns="http://www.w3.org/2000/svg" xmlns:xlink="http://www.w3.org/1999/xlink" x="0px" y="0px"
	 viewBox="0 0 500 500" style="enable-background:new 0 0 500 500;" xml:space="preserve">
<path d="M400,0h-25h-80h-65c-22.1,0-40,17.9-40,40l0,0c0,22.1,17.9,40,40,40h37.8L152.2,420H100c-22.1,0-40,17.9-40,40l0,0
	c0,22.1,17.9,40,40,40h25h80h65c22.1,0,40-17.9,40-40l0,0c0-22.1-17.9-40-40-40h-37.8L347.8,80H400c22.1,0,40-17.9,40-40l0,0
	C440,17.9,422.1,0,400,0z"/>
</svg>
