<?xml version="1.0" encoding="UTF-8"?>
<svg width="500px" height="500px" viewBox="0 0 500 500" version="1.1" xmlns="http://www.w3.org/2000/svg" xmlns:xlink="http://www.w3.org/1999/xlink">
    <!-- Generator: Sketch 52.6 (67491) - http://www.bohemiancoding.com/sketch -->
    <title>iva-up</title>
    <desc>Created with Sketch.</desc>
    <g id="iva-up" stroke="none" stroke-width="1" fill="none" fill-rule="evenodd">
        <path d="M221.126476,229.13732 C215.836191,229.13732 213.408283,221.963824 218.238543,219.0639 L268.381241,186.045469 C280.904137,177.879894 283.79207,159.691775 274.642689,145.319345 C265.493307,131.430236 247.168988,126.647906 234.620535,134.788043 C234.620535,134.788043 83.7579733,233.91965 83.2723916,234.402971 C75.5541985,240.17738 45.6525896,264.114471 45.6525896,276.095735 L45.6525896,391.049734 C45.6525896,403.030998 69.867682,439.542494 139.190956,445.664966 L141.107726,445.664966 L260.177466,445.664966 C275.613852,445.664966 289.567936,434.650343 291.995845,419.33671 C293.427033,408.77997 289.107911,399.215309 281.8753,392.499696 C295.369359,389.141889 305.489904,377.160625 305.489904,362.788195 C305.489904,353.681417 301.145226,345.083397 294.398196,339.817746 C306.946649,335.951181 315.610449,324.478675 315.610449,311.072887 C315.610449,302.449429 312.236934,295.250495 306.461067,289.501524 L422.617317,289.501524 C438.053703,289.501524 452.033345,278.461463 453.950114,263.14783 C456.378023,244.959711 441.427218,229.13732 423.102899,229.13732 L221.126476,229.13732 Z" id="Fill-1" fill="#000000" transform="translate(249.931043, 288.239436) rotate(270.000000) translate(-249.931043, -288.239436) "></path>
        <path d="M213.620165,189.79967 C184.734274,189.79967 157.989967,176.669719 140.245412,153.85165 C137.338977,150.078383 138.027343,144.647937 141.775115,141.741501 C145.548383,138.809571 150.953333,139.497937 153.885264,143.271204 C168.315462,161.857095 190.113729,172.539521 213.620165,172.539521 C255.304571,172.539521 289.212987,138.631105 289.212987,96.9466994 C289.212987,55.2877885 255.304571,21.3793727 213.620165,21.3793727 C188.482046,21.3793727 165.0266,33.8209568 150.953333,54.7014024 C148.276353,58.62764 142.922392,59.672937 138.97066,57.0214519 C135.018927,54.3699667 133.97363,48.9905113 136.65061,45.0387786 C153.961749,19.3907588 182.74566,4.11922416 213.620165,4.11922416 C264.814224,4.11922416 306.473135,45.7781351 306.473135,96.9466994 C306.473135,148.140759 264.814224,189.79967 213.620165,189.79967" id="Fill-6" fill="#000000" transform="translate(220.819728, 96.959447) rotate(270.000000) translate(-220.819728, -96.959447) "></path>
    </g>
</svg>