<?xml version="1.0" encoding="UTF-8"?>
<svg width="500px" height="500px" viewBox="0 0 500 500" version="1.1" xmlns="http://www.w3.org/2000/svg" xmlns:xlink="http://www.w3.org/1999/xlink">
    <!-- Generator: Sketch 52.6 (67491) - http://www.bohemiancoding.com/sketch -->
    <title>iva-right</title>
    <desc>Created with Sketch.</desc>
    <g id="iva-right" stroke="none" stroke-width="1" fill="none" fill-rule="evenodd">
        <path d="M183.455996,194.328926 C178.165712,194.328926 175.737803,187.15543 180.568063,184.255506 L230.710761,151.237075 C243.233657,143.0715 246.12159,124.883382 236.972209,110.510952 C227.822828,96.6218431 209.498509,91.8395126 196.950056,99.9796497 C196.950056,99.9796497 46.0874938,199.111257 45.6019121,199.594577 C37.8837191,205.368987 7.98211015,229.306078 7.98211015,241.287342 L7.98211015,356.24134 C7.98211015,368.222605 32.1972025,404.734101 101.520476,410.856573 L103.437246,410.856573 L222.506986,410.856573 C237.943373,410.856573 251.897457,399.84195 254.325365,384.528317 C255.756553,373.971577 251.437432,364.406915 244.204821,357.691302 C257.69888,354.333496 267.819425,342.352232 267.819425,327.979802 C267.819425,318.873024 263.474746,310.275004 256.727717,305.009353 C269.27617,301.142788 277.939969,289.670282 277.939969,276.264494 C277.939969,267.641036 274.566454,260.442102 268.790588,254.69313 L384.946838,254.69313 C400.383224,254.69313 414.362865,243.653069 416.279635,228.339436 C418.707543,210.151318 403.756739,194.328926 385.43242,194.328926 L183.455996,194.328926 Z" id="Fill-1" fill="#000000"></path>
        <path d="M397.34099,317.15995 C368.455099,317.15995 341.710792,304.03 323.966238,281.211931 C321.059802,277.438663 321.748168,272.008218 325.495941,269.101782 C329.269208,266.169851 334.674158,266.858218 337.606089,270.631485 C352.036287,289.217376 373.834554,299.899802 397.34099,299.899802 C439.025396,299.899802 472.933812,265.991386 472.933812,224.30698 C472.933812,182.648069 439.025396,148.739653 397.34099,148.739653 C372.202871,148.739653 348.747426,161.181238 334.674158,182.061683 C331.997178,185.987921 326.643218,187.033218 322.691485,184.381733 C318.739752,181.730248 317.694455,176.350792 320.371436,172.399059 C337.682574,146.75104 366.466485,131.479505 397.34099,131.479505 C448.53505,131.479505 490.19396,173.138416 490.19396,224.30698 C490.19396,275.50104 448.53505,317.15995 397.34099,317.15995" id="Fill-6" fill="#000000"></path>
    </g>
</svg>