<?xml version="1.0" encoding="UTF-8"?>
<svg width="500px" height="500px" viewBox="0 0 500 500" version="1.1" xmlns="http://www.w3.org/2000/svg" xmlns:xlink="http://www.w3.org/1999/xlink">
    <!-- Generator: Sketch 52.5 (67469) - http://www.bohemiancoding.com/sketch -->
    <title>language</title>
    <desc>Created with Sketch.</desc>
    <defs>
        <path d="M437.5,0 C471.972656,0 500,28.0273438 500,62.5 L500,343.75 C500,378.222656 471.972656,406.25 437.5,406.25 L296.875,406.25 L174.902344,497.65625 C172.753906,499.316406 170.3125,500 167.96875,500 C161.914062,500 156.25,495.214844 156.25,488.28125 L156.25,406.25 L62.5,406.25 C28.0273438,406.25 0,378.222656 0,343.75 L0,62.5 C0,28.0273438 28.0273438,0 62.5,0 L437.5,0 Z M453.125,343.75 L453.125,62.5 C453.125,53.90625 446.09375,46.875 437.5,46.875 L62.5,46.875 C53.90625,46.875 46.875,53.90625 46.875,62.5 L46.875,343.75 C46.875,352.34375 53.90625,359.375 62.5,359.375 L203.125,359.375 L203.125,417.96875 L268.75,368.75 L281.25,359.375 L437.5,359.375 C446.09375,359.375 453.125,352.34375 453.125,343.75 Z M193.166158,106.479463 C184.361389,111.68404 176.33659,118.057138 169.288187,125.38656 C173.100576,127.461222 177.15097,129.38964 181.440804,131.141704 C184.762844,122.13334 188.699971,113.8605 193.166158,106.479463 Z M330.71468,125.38656 C323.664843,118.058572 315.640045,111.68404 306.835276,106.480896 C311.301463,113.8605 315.240023,122.13334 318.56063,131.141704 C322.850463,129.38964 326.900858,127.461222 330.71468,125.38656 Z M330.439397,195.403181 L361.774394,195.403181 C360.501208,176.508988 354.533866,158.88798 345.015081,143.694342 C338.888591,147.278762 332.208666,150.461726 325.110082,153.251839 C328.126729,166.36508 329.969121,180.527839 330.439397,195.403181 Z M323.339378,259.82524 C329.665162,262.221066 335.645408,264.940923 341.229934,267.950402 C351.505748,253.559674 358.46239,236.655551 360.982954,218.343467 L330.06375,218.343467 C329.111728,233.069697 326.801928,247.01309 323.339378,259.82524 Z M315.936835,281.532485 C313.224146,287.984441 310.175955,293.997663 306.835276,299.519104 C313.549611,295.550434 319.825213,290.91793 325.547381,285.683244 C322.473382,284.200728 319.263176,282.815708 315.936835,281.532485 Z M184.064599,281.532485 C180.736824,282.815708 177.529485,284.200728 174.452619,285.683244 C180.176221,290.91793 186.450389,295.550434 193.166158,299.520537 C189.825479,293.999097 186.777288,287.984441 184.064599,281.532485 Z M169.937684,218.343467 L139.017046,218.343467 C141.53761,236.655551 148.495685,253.559674 158.772934,267.951836 C164.354592,264.940923 170.336272,262.221066 176.662056,259.82524 C173.199506,247.01309 170.889706,233.069697 169.937684,218.343467 Z M169.562037,195.403181 C170.032313,180.527839 171.874705,166.36508 174.891352,153.251839 C167.794201,150.460293 161.114277,147.278762 154.984919,143.692908 C145.466134,158.886546 139.498792,176.507554 138.22704,195.403181 L169.562037,195.403181 Z M238.530574,166.261848 C224.00077,165.552133 209.96705,163.510448 196.873882,160.242891 C194.436476,171.347423 192.961129,183.176008 192.530999,195.403181 L238.530574,195.403181 L238.530574,166.261848 Z M238.530574,93.35045 C228.545814,97.5227146 219.094416,107.057271 211.157077,121.251573 C208.232191,126.479091 205.63277,132.145342 203.360247,138.161432 C214.436104,140.86265 226.306269,142.611847 238.530574,143.291453 L238.530574,93.35045 Z M261.47086,143.291453 C273.695165,142.611847 285.565329,140.86265 296.641186,138.161432 C294.368664,132.145342 291.767809,126.479091 288.844357,121.251573 C280.905584,107.057271 271.45562,97.5227146 261.47086,93.35045 L261.47086,143.291453 Z M261.47086,195.403181 L307.473303,195.403181 C307.040305,183.176008 305.566391,171.347423 303.126118,160.242891 C290.035818,163.510448 276.000664,165.552133 261.47086,166.261848 L261.47086,195.403181 Z M261.47086,247.486233 C275.286647,248.171574 288.72392,250.088522 301.34968,253.119507 C304.250192,242.238643 306.171441,230.527627 307.056076,218.343467 L261.47086,218.343467 L261.47086,247.486233 Z M261.47086,270.439423 L261.47086,312.64955 C271.45562,308.477285 280.905584,298.941295 288.844357,284.748427 C290.60359,281.605608 292.23235,278.289302 293.756445,274.851127 C283.535114,272.544195 272.672889,271.050208 261.47086,270.439423 Z M238.530574,270.439423 C227.327111,271.050208 216.46632,272.544195 206.244988,274.851127 C207.770517,278.289302 209.397844,281.605608 211.157077,284.748427 C219.094416,298.941295 228.545814,308.477285 238.530574,312.64955 L238.530574,270.439423 Z M238.530574,247.486233 L238.530574,218.343467 L192.948225,218.343467 C193.829992,230.527627 195.752675,242.237209 198.651754,253.119507 C211.277514,250.088522 224.713353,248.171574 238.530574,247.486233 Z M250.000717,68 C324.440512,68 385,128.559488 385,202.999283 C385,277.439078 324.440512,338 250.000717,338 C175.560922,338 115,277.439078 115,202.999283 C115,128.559488 175.560922,68 250.000717,68 Z" id="path-1"></path>
    </defs>
    <g id="language" stroke="none" stroke-width="1" fill="none" fill-rule="evenodd">
        <mask id="mask-2" fill="white">
            <use xlink:href="#path-1"></use>
        </mask>
        <use id="Combined-Shape" fill="#000000" fill-rule="nonzero" xlink:href="#path-1"></use>
    </g>
</svg>