<?xml version="1.0" encoding="UTF-8"?>
<svg width="500px" height="500px" viewBox="0 0 500 500" version="1.1" xmlns="http://www.w3.org/2000/svg" xmlns:xlink="http://www.w3.org/1999/xlink">
    <!-- Generator: Sketch 52.6 (67491) - http://www.bohemiancoding.com/sketch -->
    <title>layer</title>
    <desc>Created with Sketch.</desc>
    <defs>
        <path d="M72.0910977,170.416973 L242.699783,247.810864 C247.680203,250.074015 253.312473,250.074015 258.292893,247.810864 L428.901578,170.416973 C441.023042,164.916565 441.023042,146.598961 428.901578,141.098553 L258.300217,63.6973376 C253.34886,61.4342208 247.658464,61.4342208 242.707107,63.6973376 L72.0910977,141.091229 C59.9696341,146.591637 59.9696341,164.916565 72.0910977,170.416973 Z M428.908902,235.074233 L386.362931,215.789847 L267.975415,269.453615 C262.43836,271.965785 256.55707,273.240181 250.5,273.240181 C244.44293,273.240181 238.568964,271.965785 233.024585,269.453615 L114.644393,215.789847 L72.0910977,235.074233 C59.9696341,240.567317 59.9696341,258.877597 72.0910977,264.370681 L242.699783,341.705979 C247.680203,343.961806 253.312473,343.961806 258.292893,341.705979 L428.908902,264.370681 C441.030366,258.877597 441.030366,240.567317 428.908902,235.074233 Z M428.908902,328.676384 L386.524062,309.465238 L267.975415,363.202248 C262.43836,365.714418 256.55707,366.988814 250.5,366.988814 C244.44293,366.988814 238.568964,365.714418 233.024585,363.202248 L114.483262,309.465238 L72.0910977,328.676384 C59.9696341,334.169468 59.9696341,352.479748 72.0910977,357.972832 L242.699783,435.30813 C247.680203,437.563957 253.312473,437.563957 258.292893,435.30813 L428.908902,357.972832 C441.030366,352.479748 441.030366,334.169468 428.908902,328.676384 Z" id="path-1"></path>
    </defs>
    <g id="layer" stroke="none" stroke-width="1" fill="none" fill-rule="evenodd">
        <mask id="mask-2" fill="white">
            <use xlink:href="#path-1"></use>
        </mask>
        <use id="Shape" fill="#000000" fill-rule="nonzero" xlink:href="#path-1"></use>
    </g>
</svg>