<?xml version="1.0" encoding="utf-8"?>
<!-- Generator: Adobe Illustrator 27.3.0, SVG Export Plug-In . SVG Version: 6.00 Build 0)  -->
<svg version="1.1" id="Ebene_1" xmlns="http://www.w3.org/2000/svg" xmlns:xlink="http://www.w3.org/1999/xlink" x="0px" y="0px"
	 viewBox="0 0 500 500" style="enable-background:new 0 0 500 500;" xml:space="preserve">
<path d="M460,30H220c-22.1,0-40,17.9-40,40l0,0c0,22.1,17.9,40,40,40h240c22.1,0,40-17.9,40-40l0,0C500,47.9,482.1,30,460,30z"/>
<path d="M460,210H220c-22.1,0-40,17.9-40,40l0,0c0,22.1,17.9,40,40,40h240c22.1,0,40-17.9,40-40l0,0C500,227.9,482.1,210,460,210z"
	/>
<path d="M460,390H220c-22.1,0-40,17.9-40,40l0,0c0,22.1,17.9,40,40,40h240c22.1,0,40-17.9,40-40l0,0C500,407.9,482.1,390,460,390z"
	/>
<path d="M100,140H40c-22.1,0-40-17.9-40-40V40C0,17.9,17.9,0,40,0h60c22.1,0,40,17.9,40,40v60C140,122.1,122.1,140,100,140z"/>
<path d="M100,320H40c-22.1,0-40-17.9-40-40v-60c0-22.1,17.9-40,40-40h60c22.1,0,40,17.9,40,40v60C140,302.1,122.1,320,100,320z"/>
<path d="M100,500H40c-22.1,0-40-17.9-40-40v-60c0-22.1,17.9-40,40-40h60c22.1,0,40,17.9,40,40v60C140,482.1,122.1,500,100,500z"/>
</svg>
