<?xml version="1.0" encoding="utf-8"?>
<!-- Generator: Adobe Illustrator 27.3.0, SVG Export Plug-In . SVG Version: 6.00 Build 0)  -->
<svg version="1.1" id="Ebene_1" xmlns="http://www.w3.org/2000/svg" xmlns:xlink="http://www.w3.org/1999/xlink" x="0px" y="0px"
	 viewBox="0 0 500 500" style="enable-background:new 0 0 500 500;" xml:space="preserve">
<path d="M460,30H220c-22.1,0-40,17.9-40,40l0,0c0,22.1,17.9,40,40,40h240c22.1,0,40-17.9,40-40l0,0C500,47.9,482.1,30,460,30z"/>
<path d="M460,210H220c-22.1,0-40,17.9-40,40l0,0c0,22.1,17.9,40,40,40h240c22.1,0,40-17.9,40-40l0,0C500,227.9,482.1,210,460,210z"
	/>
<path d="M460,390H220c-22.1,0-40,17.9-40,40l0,0c0,22.1,17.9,40,40,40h240c22.1,0,40-17.9,40-40l0,0C500,407.9,482.1,390,460,390z"
	/>
<path d="M101.6,19.7c0-0.4,0-0.7-0.1-1.1c0-0.3,0-0.6-0.1-0.9c0-0.3-0.1-0.6-0.1-1c-0.1-0.3-0.1-0.7-0.2-1c-0.1-0.2-0.1-0.5-0.2-0.7
	c-0.1-0.4-0.2-0.8-0.3-1.2c-0.1-0.2-0.1-0.3-0.2-0.5c-0.2-0.5-0.3-0.9-0.5-1.4c-0.1-0.1-0.1-0.3-0.2-0.4c-0.2-0.5-0.5-0.9-0.7-1.4
	c0,0,0-0.1-0.1-0.1l0,0c-0.1-0.1-0.1-0.2-0.2-0.3c-0.2-0.4-0.5-0.8-0.8-1.2c-0.1-0.2-0.3-0.4-0.4-0.6C97.3,7.6,97,7.3,96.8,7
	c-0.2-0.2-0.4-0.4-0.6-0.7C96,6,95.7,5.8,95.5,5.6S95,5.2,94.8,5c-0.3-0.2-0.5-0.4-0.8-0.6c-0.2-0.2-0.5-0.4-0.7-0.5
	c-0.3-0.2-0.6-0.4-0.9-0.6C92.2,3,92,2.9,91.7,2.7s-0.7-0.4-1-0.6c-0.2-0.1-0.4-0.2-0.6-0.3c-0.4-0.2-0.8-0.3-1.2-0.5
	c-0.2-0.1-0.4-0.1-0.6-0.2C87.9,1,87.5,0.8,87,0.7c-0.2-0.1-0.4-0.1-0.6-0.2c-0.4-0.1-0.8-0.2-1.2-0.3c-0.3,0-0.5-0.1-0.8-0.1
	C84,0,83.7,0,83.3,0c-0.3,0-0.7,0-1-0.1c-0.2,0-0.4,0-0.7,0l0,0c-0.1,0-0.2,0-0.3,0c-0.4,0-0.8,0-1.1,0.1c-0.3,0-0.6,0-0.9,0.1
	c-0.3,0-0.7,0.1-1,0.2s-0.6,0.1-1,0.2c-0.3,0.1-0.6,0.1-0.8,0.2c-0.4,0.1-0.7,0.2-1.1,0.3c-0.2,0.1-0.4,0.2-0.6,0.2
	c-0.4,0.2-0.8,0.3-1.2,0.5C73.4,1.8,73.2,1.9,73,2c-0.4,0.2-0.8,0.4-1.2,0.6c-0.1,0-0.1,0.1-0.2,0.1l-43.3,25
	C18.8,33.2,15.5,45.4,21,55s17.8,12.8,27.3,7.3l13.3-7.7V120c0,11,9,20,20,20l0,0c11,0,20-9,20-20V20
	C101.7,19.9,101.6,19.8,101.6,19.7z"/>
<path d="M105.2,280H82.6l33.9-32.8c3.9-3.8,6.2-9.4,6.2-15.2c0-21.2-11.8-38.8-31.5-47c-21.1-8.8-52.2-6.7-68.9,14.4
	c-6.8,8.6-6.5,21.9,1.2,29.3c7.4,7.1,18.5,6,24.7-2.4c4.3-5.8,19.4-8.7,30.9-3.9c0,0,0,0,0.1,0c2.7,1.1,3.3,5.2,1.1,7.3l-56.8,55
	c-0.1,0.1-0.3,0.3-0.4,0.5c-0.3,0.3-0.5,0.5-0.7,0.8c-0.2,0.2-0.4,0.5-0.6,0.7s-0.4,0.5-0.6,0.7c-0.2,0.3-0.4,0.6-0.6,0.8
	c-0.2,0.2-0.3,0.5-0.5,0.7c-0.2,0.3-0.3,0.6-0.5,0.9c-0.1,0.3-0.3,0.5-0.4,0.8s-0.3,0.6-0.4,0.9s-0.2,0.6-0.4,0.9
	c-0.1,0.3-0.2,0.6-0.3,0.8c-0.1,0.3-0.2,0.7-0.3,1c-0.1,0.3-0.1,0.6-0.2,0.8c-0.1,0.3-0.2,0.7-0.2,1c-0.1,0.3-0.1,0.6-0.1,0.9
	s-0.1,0.7-0.1,1c0,0.4,0,0.7,0,1.1c0,0.2,0,0.5,0,0.7c0,0.1,0,0.1,0,0.1c0,0.4,0,0.8,0.1,1.3c0,0.2,0,0.5,0,0.7
	c0,0.4,0.1,0.8,0.2,1.2c0,0.2,0.1,0.5,0.1,0.7c0.1,0.4,0.2,0.7,0.2,1.1c0.1,0.3,0.1,0.5,0.2,0.8s0.2,0.6,0.3,0.9
	c0.1,0.3,0.2,0.6,0.3,0.9c0.1,0.3,0.2,0.5,0.3,0.8c0.1,0.3,0.3,0.7,0.4,1c0.1,0.2,0.2,0.4,0.3,0.6c0.2,0.4,0.4,0.7,0.6,1
	c0.1,0.2,0.3,0.4,0.4,0.6c0.2,0.3,0.4,0.7,0.7,1l0.1,0.1c0.1,0.1,0.2,0.3,0.3,0.4c0.3,0.4,0.6,0.7,0.9,1c0.2,0.2,0.4,0.4,0.6,0.6
	c0.3,0.3,0.5,0.5,0.8,0.8c0.2,0.2,0.4,0.4,0.7,0.6c0.3,0.2,0.5,0.4,0.8,0.6c0.2,0.2,0.5,0.3,0.7,0.5c0.3,0.2,0.6,0.4,0.9,0.5
	c0.2,0.1,0.4,0.3,0.7,0.4c0.4,0.2,0.7,0.3,1.1,0.5c0.2,0.1,0.4,0.2,0.5,0.2c0.5,0.2,0.9,0.3,1.4,0.4c0.1,0,0.2,0.1,0.4,0.1
	c0.5,0.1,1.1,0.2,1.6,0.3c0.1,0,0.1,0,0.2,0c0.6,0.1,1.2,0.1,1.8,0.1h70.3c9.7,0,17.6-9,17.6-20S114.9,280,105.2,280z"/>
<path d="M122.7,402.7c0-17.5-10.3-32-27.5-38.6c-24.1-9.3-56-2.2-72.7,16.2c-7.4,8.2-6.8,20.8,1.3,28.2c8.2,7.4,20.8,6.8,28.3-1.3
	c3.8-4.2,12.3-7.1,20.4-7.1c0.1,0,0.2,0,0.3,0c5.6,0,9,1.5,10,2.3c0,0.1,0,0.2,0,0.3c0,0.3,0,7.3-4.2,7.3c-11,0-20,8.9-20,20
	c0,11,9,20,20,20c4.1,0,4.2,7,4.2,7.3c0,0.1,0,0.3,0,0.3c-0.9,0.8-4.4,2.3-10,2.3c-0.1,0-0.2,0-0.3,0c-8.1,0-16.6-3-20.4-7.1
	c-7.4-8.2-20.1-8.8-28.3-1.3c-8.2,7.4-8.8,20.1-1.3,28.2c11.7,12.9,31,20.3,49.8,20.3c7.9,0,15.8-1.3,22.9-4.1
	c17.2-6.7,27.5-21.1,27.5-38.6c0-10.3-2.8-19.7-7.7-27.3C119.9,422.4,122.7,413,122.7,402.7z"/>
</svg>
