<?xml version="1.0" encoding="UTF-8"?>
<svg width="500px" height="500px" viewBox="0 0 500 500" version="1.1" xmlns="http://www.w3.org/2000/svg" xmlns:xlink="http://www.w3.org/1999/xlink">
    <!-- Generator: Sketch 52.6 (67491) - http://www.bohemiancoding.com/sketch -->
    <title>lock</title>
    <desc>Created with Sketch.</desc>
    <g id="lock" stroke="none" stroke-width="1" fill="none" fill-rule="evenodd">
        <g transform="translate(49.000000, 20.000000)" fill="#000000" fill-rule="nonzero" id="Shape">
            <path d="M359.375,201.25 L337.8125,201.25 L337.8125,136.5625 C337.8125,61.2734375 276.539062,0 201.25,0 C125.960938,0 64.6875,61.2734375 64.6875,136.5625 L64.6875,201.25 L43.125,201.25 C19.3164062,201.25 0,220.566406 0,244.375 L0,416.875 C0,440.683594 19.3164062,460 43.125,460 L359.375,460 C383.183594,460 402.5,440.683594 402.5,416.875 L402.5,244.375 C402.5,220.566406 383.183594,201.25 359.375,201.25 Z M265.9375,201.25 L136.5625,201.25 L136.5625,136.5625 C136.5625,100.894531 165.582031,71.875 201.25,71.875 C236.917969,71.875 265.9375,100.894531 265.9375,136.5625 L265.9375,201.25 Z"></path>
        </g>
    </g>
</svg>