<svg enable-background="new 0 0 500 500" viewBox="0 0 500 500" xmlns="http://www.w3.org/2000/svg"><path d="m490 263-60.2-60.2c-6.7-6.7-15.4-10-24.1-10s-17.4 3.3-24.1 10l-126.5 126.4c-23.3 23.3-61 23.3-84.3 0s-23.3-61 0-84.3l126.5-126.5c13.3-13.3 13.3-34.9 0-48.2l-60.3-60.2c-6.6-6.7-15.3-10-24-10s-17.4 3.3-24.1 10l-126.5 126.5c-83.2 83.2-83.2 218 0 301.2s218 83.2 301.2 0l126.4-126.6c13.3-13.3 13.3-34.8 0-48.1zm-277-204.8 36.1 36.1-78.3 78.3-36.1-36.1zm150.5 307.1-36.1-36.1 78.3-78.3 36.1 36.1z"/></svg>