<svg enable-background="new 0 0 500 500" viewBox="0 0 500 500" xmlns="http://www.w3.org/2000/svg"><path d="m420 230v-202.5c0-2-.7-3.8-2.2-5.3s-3.2-2.2-5.3-2.2c-1.3 0-2.4.3-3.5.9l-112.5 60c-2.7 1.3-4 3.4-4 6.6v142.5z"/><path d="m120 20c-1.3 0-2.4.3-3.5.9l-112.5 60c-2.7 1.3-4 3.4-4 6.6v345c0 2 .7 3.8 2.2 5.3s3.2 2.2 5.3 2.2c1.3 0 2.4-.3 3.5-.9l112.5-60c2.7-1.3 4-3.4 4-6.6v-345c0-2-.7-3.8-2.2-5.3s-3.3-2.2-5.3-2.2z"/><path d="m200 290c0-33.1 26.9-60 60-60h17.5v-142.5c0-3-1.4-5.2-4.2-6.8l-120-60c-.9-.5-2-.7-3.3-.7-2 0-3.8.7-5.3 2.2s-2.2 3.2-2.2 5.3v345c0 3 1.4 5.2 4.2 6.8l53.3 26.6z"/><path d="m460 250h-200c-22.1 0-40 17.9-40 40v170c0 22.1 17.9 40 40 40h200c22.1 0 40-17.9 40-40v-170c0-22.1-17.9-40-40-40zm0 210h-200v-130h200z"/></svg>