<?xml version="1.0" encoding="UTF-8"?>
<svg width="600px" height="500px" viewBox="0 0 600 500" version="1.1" xmlns="http://www.w3.org/2000/svg" xmlns:xlink="http://www.w3.org/1999/xlink">
    <!-- Generator: Sketch 52.6 (67491) - http://www.bohemiancoding.com/sketch -->
    <title>model</title>
    <desc>Created with Sketch.</desc>
    <g id="model" stroke="none" stroke-width="1" fill="none" fill-rule="evenodd">
        <path d="M174.868375,104.057521 L157.618277,104.169846 C122.70074,104.397953 51.3284586,104.864535 6,70.4135337 C9.53174893,81.7981241 14.4598516,92.3117622 20.759963,101.880141 C32.1585914,119.192045 48.2540459,133.777039 68.5976849,145.227297 C102.597072,164.360598 139.829113,170.204964 158.995503,171.984886 L174.790124,173.452026 L174.697961,232.941176 L315.288,134.839809 L174.960538,36.4705882 L174.868375,104.057521 Z" id="Fill-3" fill="#2E4057"></path>
        <path d="M497.595365,21.9703859 C549.27895,46.8462208 579.630462,88.7611782 590.791605,150.654893 C593.241993,164.365669 594.315446,197.564106 592.650639,207.550882 C589.321025,226.9431 581.000459,245.349656 559.465487,280.996632 C551.434528,294.414139 542.427229,309.790823 539.392424,315.173791 C508.068041,372.071515 503.465543,427.30333 525.002249,490.080323 C526.66879,494.781309 527.941674,498.793373 527.941674,499.187291 C527.941674,499.478825 471.84635,499.77383 403.318734,499.77383 L278.69406,499.77383 L279.085983,496.343099 C279.672134,491.154487 277.51829,477.546096 275.364446,472.548369 C272.426755,465.987118 267.919637,461.775493 262.146572,460.109584 C255.68504,458.349968 250.985429,457.858872 228.862572,456.682324 C200.864335,455.113593 189.311268,452.960059 176.683014,446.495987 C166.796488,441.499996 160.334956,432.688033 157.886303,421.033613 C156.516305,414.378655 157.102456,408.306765 159.941299,400.176783 C161.021689,397.039321 161.999763,392.832902 162.095143,390.774811 C162.193991,387.34755 161.703219,386.466007 156.611685,381.765021 C150.150153,375.693131 149.661116,373.442419 153.481501,366.683341 C156.906494,360.805807 156.611685,358.945542 151.52015,354.244556 C146.139008,349.345743 146.041895,347.68504 150.054773,335.735616 C153.481501,325.651662 153.87169,318.698229 151.230543,316.247955 C150.155355,315.366411 146.433818,314.288777 142.422674,313.799416 C127.248652,311.843709 115.792699,303.32328 115.792699,293.822394 C115.792699,290.200778 121.662878,280.116824 135.364586,260.334158 C136.916672,258.093858 138.39939,255.943795 139.842223,253.844055 C140.839373,262.629989 145.729743,269.987752 153.370514,273.913049 C156.960254,275.757696 160.818791,276.667005 164.708543,276.667005 C170.145178,276.667005 175.644243,274.886565 180.551956,271.388157 L289.707798,194.693884 C290.259266,195.193657 290.808999,195.693429 291.351795,196.146348 L284.978706,220.216994 C284.650947,221.244304 284.770605,222.318468 285.33768,223.441221 C285.904755,224.562239 286.728488,225.357016 287.812346,225.825553 L315.279927,237.7073 C317.544758,238.687757 319.532121,238.144601 321.242017,236.079568 C324.42596,231.96165 328.856774,224.817331 334.536194,214.650082 C338.986084,215.172414 343.435975,215.28521 347.887599,214.98847 L359.123312,235.631855 C359.810045,236.744197 360.694473,237.537239 361.778332,238.005775 C363.647772,238.814435 368.779192,237.556327 377.169126,234.229716 C385.560793,230.904839 391.526351,228.255003 395.067534,226.278472 C396.056014,225.888025 396.805177,225.101924 397.315024,223.92017 C397.698276,223.031685 397.778048,221.89852 397.559542,220.517204 C394.897585,211.533445 392.91369,203.955295 391.611326,197.779286 C395.424774,194.636618 398.617388,191.575511 401.189168,188.597699 L425.61154,194.952447 C426.539323,195.23704 427.55208,195.061772 428.64461,194.424909 C429.738874,193.786311 430.498442,192.975916 430.925048,191.990253 L442.738241,164.660673 C443.206468,163.579568 443.275835,162.468962 442.94981,161.334062 C442.622052,160.199162 442.008154,159.319354 441.108118,158.696373 L420.129816,145.591225 C420.495727,141.773517 420.566828,137.011795 420.346588,131.306057 C422.758824,129.777239 426.25145,127.779884 430.822732,125.315727 C435.394015,122.851571 438.610907,121.086749 440.47341,120.021261 C441.630104,119.236896 442.381001,118.44906 442.720899,117.661224 C443.870657,115.002711 440.187271,104.059773 431.672477,84.8272042 C431.027365,83.6142144 430.16548,82.7743188 429.081622,82.3040466 C427.900649,81.7938621 426.766499,81.7123019 425.682641,82.0611016 L402.571305,87.6713962 C399.43245,83.8571594 396.397646,80.7335806 393.475563,78.302395 L399.850386,54.2300141 C400.176411,53.2027037 400.058487,52.1285397 399.489678,51.0057866 C398.924337,49.8847689 398.09887,49.0899916 397.016746,48.6214547 L369.549165,36.7397079 C367.284334,35.7592512 365.296971,36.3041422 363.585341,38.3691749 C360.446486,42.3881796 356.036482,49.4804389 350.355328,59.6494234 C345.527388,59.1965044 341.054954,59.1322976 336.941493,59.4568027 L325.707515,38.8168878 C325.019048,37.701076 324.134619,36.9097694 323.052494,36.4412326 C321.181321,35.6325727 316.036027,36.8559744 307.616612,40.1097024 C299.198932,43.3651657 293.268057,46.0011192 289.825722,48.0210335 C288.795623,48.5103942 288.02565,49.3450838 287.514068,50.5268378 C287.130816,51.4135872 287.051044,52.5484875 287.271284,53.9280681 C289.931507,62.911828 291.913668,70.4917126 293.217766,76.6677221 C293.079032,76.7822533 292.955906,76.8933139 292.818906,77.0078451 L237.229962,37.7687536 C271.148669,17.1149561 314.135372,5.00241152 367.879156,0.915729198 C378.937983,0.0341858351 420.252942,1.30791187 431.027365,2.77425861 C456.576949,6.3039027 477.624618,12.3757929 497.595365,21.9703859 Z M503.214088,284.279861 C503.895618,282.704189 497.220783,278.004938 483.191316,270.182108 C483.144493,266.772201 482.775114,263.572268 482.079711,260.58578 C491.910742,251.62805 497.359517,245.918842 498.422566,243.45642 C498.594249,243.062502 498.547426,242.632143 498.280363,242.167076 C489.446481,230.162122 484.831845,224.074614 484.438187,223.904552 L483.423695,223.816051 C477.64196,226.110146 470.729542,229.664085 462.686444,234.486543 C460.803131,233.438409 459.367235,232.699162 458.383958,232.274008 C457.400682,231.848854 455.879811,231.309169 453.826549,230.653218 C453.34098,227.987764 452.21897,223.557488 450.457049,217.360655 C448.696863,211.162086 447.422245,207.89274 446.633196,207.552617 C446.437234,207.467586 444.61982,207.615089 441.180953,207.998595 C437.745554,208.383836 434.117663,208.800313 430.297278,209.253232 C426.480361,209.706151 424.331719,209.945625 423.853087,209.971655 C423.331101,210.096598 422.984266,210.356897 422.816051,210.750815 C421.751268,213.213236 421.324662,221.093331 421.532763,234.392836 C418.881211,235.935537 416.297292,237.858273 413.782739,240.161045 C398.47692,235.291732 390.480644,233.644912 389.799114,235.220584 L380.859448,255.902147 C380.177917,257.479554 386.852753,262.178805 400.885688,269.999899 C400.916903,273.172067 401.284548,276.368529 401.992091,279.599698 C392.162793,288.555693 386.715753,294.264901 385.65097,296.727322 C385.481021,297.12124 385.527844,297.549865 385.794907,298.016666 C394.78313,310.202094 399.375222,316.341662 399.571184,316.424958 C400.358499,316.766816 403.623949,315.430618 409.365798,312.419835 C415.107648,309.409052 419.115324,307.167017 421.385358,305.6972 C423.270405,306.745334 424.706301,307.482845 425.689577,307.907999 C426.674588,308.333153 428.193725,308.874573 430.246986,309.530525 C430.732555,312.192508 431.844161,316.648814 433.585271,322.895972 C435.326382,329.144865 436.58886,332.43677 437.376175,332.776893 C437.572137,332.863659 445.188629,332.00641 460.222183,330.212087 C460.744169,330.085409 461.08927,329.826846 461.260953,329.432928 C462.324001,326.970507 462.750608,319.090411 462.540773,305.789172 C465.377882,304.093762 467.961801,302.171026 470.29253,300.022698 C485.598349,304.89201 493.592891,306.537095 494.274422,304.961423 L503.214088,284.279861 Z" id="Combined-Shape" fill="#2E4057"></path>
        <path d="M452.244515,251.103045 C447.137626,248.89381 441.909965,248.848935 436.563259,250.968419 C431.216553,253.087903 427.439871,256.702073 425.231486,261.810927 C422.979969,267.021613 422.89888,272.26164 424.989944,277.539639 C427.081008,282.819364 430.728293,286.585418 435.93525,288.836075 C441.140481,291.088459 446.381944,291.169579 451.657913,289.07771 C456.935607,286.985842 460.696762,283.335427 462.950004,278.128193 C465.156663,273.017613 465.203246,267.789667 463.084577,262.439178 C460.964183,257.092141 457.351404,253.312279 452.244515,251.103045" id="Fill-1" fill="#2E4057"></path>
        <path d="M380.511814,121.349196 C376.381106,110.808646 369.172851,103.288558 358.887048,98.7923845 C348.601246,94.294485 338.24546,94.133969 327.819691,98.3108366 C326.319322,98.9114771 324.897471,99.5966905 323.52,100.326779 L342.463219,113.839464 L343.789484,114.509143 L344.955299,115.689713 C351.398861,120.936687 355.186481,128.719123 355.167705,136.834673 C355.15405,145.519796 350.775841,153.80967 343.456637,158.997961 L323.97745,172.828226 C324.858213,173.283884 325.732147,173.742994 326.66241,174.150325 C336.948213,178.646499 347.303999,178.807015 357.728061,174.630147 C368.15383,170.45328 375.59081,163.164473 380.037295,152.763727 C384.485486,142.361256 384.642521,131.889745 380.511814,121.349196" id="Fill-8" fill="#2E4057"></path>
    </g>
</svg>