<svg clip-rule="evenodd" fill-rule="evenodd" stroke-linejoin="round" stroke-miterlimit="2" viewBox="0 0 64 64" xmlns="http://www.w3.org/2000/svg" xmlns:xlink="http://www.w3.org/1999/xlink"><clipPath id="a"><path clip-rule="evenodd" d="m0 0h64v64h-64z"/></clipPath><path d="m0 0h64v64h-64z" fill="none"/><g clip-path="url(#a)"><path d="m32 0c17.661 0 32 14.339 32 32s-14.339 32-32 32-32-14.339-32-32 14.339-32 32-32zm-1.261 47.332v3.407c0 .696.565 1.261 1.261 1.261s1.261-.565 1.261-1.261v-3.407c0-.696-.565-1.26-1.261-1.26s-1.261.564-1.261 1.26zm-6.814 0v3.407c0 .696.565 1.261 1.261 1.261.695 0 1.26-.565 1.26-1.261v-3.407c0-.696-.565-1.26-1.26-1.26-.696 0-1.261.564-1.261 1.26zm13.629 0v3.407c0 .696.565 1.261 1.26 1.261.696 0 1.261-.565 1.261-1.261v-3.407c0-.696-.565-1.26-1.261-1.26-.695 0-1.26.564-1.26 1.26zm8.534-4.606c2.932-1.148 5.912-3.747 5.912-9.022 0-6.92-5.1-9.249-8.534-9.695-.072-2.232-.466-5.147-2.545-7.303-1.643-1.704-4.356-3.002-8.921-3.002s-7.278 1.298-8.921 3.002c-2.079 2.156-2.473 5.071-2.545 7.303-3.434.446-8.534 2.775-8.534 9.695 0 5.275 2.98 7.874 5.912 9.022.648.254 27.528.254 28.176 0z"/></g></svg>