<svg clip-rule="evenodd" fill-rule="evenodd" stroke-linejoin="round" stroke-miterlimit="2" viewBox="0 0 64 64" xmlns="http://www.w3.org/2000/svg" xmlns:xlink="http://www.w3.org/1999/xlink"><clipPath id="a"><path clip-rule="evenodd" d="m0 0h64v64h-64z"/></clipPath><path d="m0 0h64v64h-64z" fill="none"/><g clip-path="url(#a)"><path d="m32 0c17.661 0 32 14.339 32 32s-14.339 32-32 32-32-14.339-32-32 14.339-32 32-32zm-.023 50c-3.856-.013-6.977-3.232-6.977-7.2 0-3.976 7-10.8 7-10.8s7 6.824 7 10.8c0 3.96-3.11 7.175-6.955 7.2 7.712-.026 13.955-6.464 13.955-14.4 0-2.779-1.71-6.255-3.936-9.6-4.14-6.225-10.064-12-10.064-12s-5.924 5.775-10.064 12c-2.226 3.345-3.936 6.821-3.936 9.6 0 7.952 6.268 14.4 14 14.4 1.933 0 3.5-1.612 3.5-3.6s-3.5-5.4-3.5-5.4-3.5 3.412-3.5 5.4c0 1.98 1.555 3.587 3.477 3.6z"/></g></svg>