<svg clip-rule="evenodd" fill-rule="evenodd" stroke-linejoin="round" stroke-miterlimit="2" viewBox="0 0 64 64" xmlns="http://www.w3.org/2000/svg"><path d="m0 0h64v64h-64z" fill="none"/><path d="m32 0c17.661 0 32 14.339 32 32s-14.339 32-32 32-32-14.339-32-32 14.339-32 32-32zm4.033 28c0-1.104-.897-2-2-2h-4c-1.104 0-2 .896-2 2v18c0 1.104.896 2 2 2h4c1.103 0 2-.896 2-2zm-12.033 10c0-1.104-.896-2-2-2h-4c-1.104 0-2 .896-2 2v8c0 1.104.896 2 2 2h4c1.104 0 2-.896 2-2zm24-20c0-1.104-.896-2-2-2h-4c-1.104 0-2 .896-2 2v28c0 1.104.896 2 2 2h4c1.104 0 2-.896 2-2z"/></svg>