<?xml version="1.0" encoding="UTF-8"?>
<svg width="500px" height="500px" viewBox="0 0 500 500" version="1.1" xmlns="http://www.w3.org/2000/svg" xmlns:xlink="http://www.w3.org/1999/xlink">
    <!-- Generator: Sketch 49.3 (51167) - http://www.bohemiancoding.com/sketch -->
    <title>mosaic-scale-content</title>
    <desc>Created with Sketch.</desc>
    <defs>
        <path d="M111.111111,111.111111 L111.111111,272.222222 C111.111111,290.631714 96.1872694,305.555556 77.7777778,305.555556 L33.3333333,305.555556 C14.9238417,305.555556 3.94745964e-14,290.631714 1.97372982e-14,272.222222 L0,33.3333333 C0,14.9238417 14.9238417,1.42786627e-14 33.3333333,2.72143733e-15 L77.7777778,0 L272.222222,1.76962202e-14 C290.631714,3.06653647e-14 305.555556,14.9238417 305.555556,33.3333333 L305.555556,77.7777778 C305.555556,96.1872694 290.631714,111.111111 272.222222,111.111111 L111.111111,111.111111 Z M388.888889,388.888889 L388.888889,227.777778 C388.888889,209.368286 403.812731,194.444444 422.222222,194.444444 L466.666667,194.444444 C485.076158,194.444444 500,209.368286 500,227.777778 L500,466.666667 C500,475.871411 496.269039,484.204744 490.236892,490.236892 C484.204744,496.269039 475.871411,500 466.666667,500 L227.777778,500 C209.368286,500 194.444444,485.076158 194.444444,466.666667 L194.444444,422.222222 C194.444444,403.812731 209.368286,388.888889 227.777778,388.888889 L388.888889,388.888889 Z" id="path-1"></path>
    </defs>
    <g id="mosaic-scale-content" stroke="none" stroke-width="1" fill="none" fill-rule="evenodd">
        <mask id="mask-2" fill="white">
            <use xlink:href="#path-1"></use>
        </mask>
        <use id="Mask" fill="#4A4A4A" fill-rule="nonzero" xlink:href="#path-1"></use>
    </g>
</svg>