<svg clip-rule="evenodd" fill-rule="evenodd" stroke-linejoin="round" stroke-miterlimit="2" viewBox="0 0 64 64" xmlns="http://www.w3.org/2000/svg" xmlns:xlink="http://www.w3.org/1999/xlink"><clipPath id="a"><path clip-rule="evenodd" d="m0 0h64v64h-64z"/></clipPath><path d="m0 0h64v64h-64z" fill="none"/><g clip-path="url(#a)"><path d="m32 0c17.661 0 32 14.339 32 32s-14.339 32-32 32-32-14.339-32-32 14.339-32 32-32zm-7.512 22.621 5.717-11.512c.339-.679 1.035-1.109 1.793-1.109s1.454.43 1.793 1.109l5.717 11.512 12.78 1.857c.977.136 1.712.98 1.712 1.966 0 .538-.219 1.054-.605 1.427l-9.246 8.956 2.182 12.652c.28 1.624-1.436 2.861-2.904 2.095l-11.429-5.976-11.431 5.976c-1.465.768-3.182-.471-2.902-2.097l2.182-12.652-9.246-8.956c-.384-.373-.601-.887-.601-1.423 0-.985.733-1.828 1.708-1.965z"/></g></svg>