<svg clip-rule="evenodd" fill-rule="evenodd" stroke-linejoin="round" stroke-miterlimit="2" viewBox="0 0 65 64" xmlns="http://www.w3.org/2000/svg" xmlns:xlink="http://www.w3.org/1999/xlink"><clipPath id="a"><path clip-rule="evenodd" d="m.961 0h64v64h-64z"/></clipPath><path d="m.961 0h64v64h-64z" fill="none"/><g clip-path="url(#a)"><path d="m32.961 0c3.305 0 6.646.535 9.795 1.537 2.955.941 5.763 2.425 8.291 4.222 24.464 17.383 12.225 58.241-18.086 58.241s-42.549-40.858-18.085-58.241c2.527-1.797 5.335-3.281 8.29-4.222 3.149-1.002 6.49-1.537 9.795-1.537zm0 12c18.945 0 26.594 25.536 11.304 36.401-1.58 1.122-3.335 2.05-5.182 2.638-1.968.627-4.056.961-6.122.961-2.065 0-4.153-.334-6.122-.961-1.847-.588-3.601-1.516-5.181-2.638-15.29-10.865-7.641-36.401 11.303-36.401zm-12.465 8.006c-7.108 7.378-5.888 20.638 2.814 26.328 4.49 2.937 13.722 5.463 17.728.287 1.298-1.677-1.783-2.404-2.505-2.87-2.895-1.867-5.329-5.099-4.785-8.737l.028-.197c.508-3.429 6.738-3.293 8.924-2 .49.29.691 1.727 1.197 2.007.751.415 1.732.276 2.476.702 1.569.901-.752 4.018-.752 4.792v.227c0 .845.999 1.589.869 2.236 7.022-8.814 3.594-22.264-6.714-26.684-1.208.815-2.388 1.696-3.409 2.735-.604.615-.603 1.699-1.258 2.257-1.523 1.296-5.247-1.074-5.893 1.733-.493 2.143 1.61 4.618 2.348 6.283.31.699.671 1.425.684 2.19.006.416-.217 1.037-.632 1.077-.43.041-.604-.62-.906-.93-.745-.767-1.433-1.592-2.233-2.301-.798-.708-1.591-1.464-2.547-1.937-.794-.392-3.717-.083-4.104-1.489-.457-1.661.164-4.333-1.33-5.709z"/></g></svg>