<svg clip-rule="evenodd" fill-rule="evenodd" stroke-linejoin="round" stroke-miterlimit="2" viewBox="0 0 64 64" xmlns="http://www.w3.org/2000/svg" xmlns:xlink="http://www.w3.org/1999/xlink"><clipPath id="a"><path clip-rule="evenodd" d="m0 0h64v64h-64z"/></clipPath><path d="m0 0h64v64h-64z" fill="none"/><g clip-path="url(#a)"><path d="m32 0c17.661 0 32 14.339 32 32s-14.339 32-32 32-32-14.339-32-32 14.339-32 32-32zm7.708 52c.831 0 1.505-.674 1.505-1.505v-9.282h9.282c.831 0 1.505-.674 1.505-1.505v-15.416c0-.831-.674-1.505-1.505-1.505h-9.282v-9.282c0-.831-.674-1.505-1.505-1.505h-15.416c-.831 0-1.505.674-1.505 1.505v9.282h-9.282c-.831 0-1.505.674-1.505 1.505v15.416c0 .831.674 1.505 1.505 1.505h9.282v9.282c0 .831.674 1.505 1.505 1.505z"/></g></svg>