<svg clip-rule="evenodd" fill-rule="evenodd" stroke-linejoin="round" stroke-miterlimit="2" viewBox="0 0 64 64" xmlns="http://www.w3.org/2000/svg"><path d="m0 0h64v64h-64z" fill="none"/><path d="m32 0c17.661 0 32 14.339 32 32s-14.339 32-32 32-32-14.339-32-32 14.339-32 32-32zm13.106 18.948c-3.566-3.565-8.639-6.948-14.501-6.948-10.276 0-18.605 8.329-18.605 18.605 0 5.862 3.383 10.935 6.948 14.501 3.566 3.566 8.613 6.894 14.447 6.894 10.276 0 18.605-8.329 18.605-18.605 0-5.834-3.328-10.881-6.894-14.447zm4.102 11.848c.156.843.228 1.713.228 2.599 0 8.86-7.181 16.041-16.041 16.041-.886 0-1.756-.072-2.599-.228 10.123-.101 18.31-8.288 18.412-18.412zm-18.603 15.85c-8.86 0-16.041-7.182-16.041-16.041 0-8.86 7.181-16.041 16.041-16.041 8.859 0 16.041 7.181 16.041 16.041 0 8.859-7.182 16.041-16.041 16.041zm-1.282-25.373c-1.25.186-2.358.702-3.138 1.572-.72.803-1.193 1.919-1.193 3.429 0 1.822.83 2.964 2.082 3.761.992.631 2.305 1.013 3.626 1.373.876.239 1.753.47 2.488.823.75.361 1.332.864 1.332 1.838 0 2.146-1.943 2.93-3.869 2.861h-.001c-1.618-.057-3.316-.695-4.216-1.897-.424-.566-1.228-.682-1.795-.258-.566.424-.681 1.229-.257 1.795 1.101 1.471 2.973 2.451 4.941 2.792v2.502c0 .708.574 1.282 1.282 1.282.707 0 1.282-.574 1.282-1.282v-2.423c2.842-.329 5.196-2.088 5.196-5.372 0-1.822-.829-2.964-2.082-3.761-.991-.631-2.304-1.013-3.626-1.373-.875-.239-1.753-.47-2.488-.823-.75-.36-1.331-.864-1.331-1.838 0-.749.181-1.32.538-1.718.572-.638 1.505-.823 2.476-.796 1.595.043 3.34.703 4.325 1.688.5.5 1.313.5 1.813 0s.5-1.312 0-1.813c-1.133-1.133-2.964-2.001-4.821-2.314v-1.976c0-.708-.575-1.282-1.282-1.282-.708 0-1.282.574-1.282 1.282z"/></svg>