<svg clip-rule="evenodd" fill-rule="evenodd" stroke-linejoin="round" stroke-miterlimit="2" viewBox="0 0 65 64" xmlns="http://www.w3.org/2000/svg" xmlns:xlink="http://www.w3.org/1999/xlink"><clipPath id="a"><path clip-rule="evenodd" d="m.961 0h64v64h-64z"/></clipPath><path d="m.961 0h64v64h-64z" fill="none"/><g clip-path="url(#a)"><path d="m32.961 0c17.662 0 32 14.339 32 32s-14.338 32-32 32c-17.661 0-32-14.339-32-32s14.339-32 32-32zm0 12c11.039 0 20 8.962 20 20s-8.961 20-20 20c-11.038 0-20-8.962-20-20s8.962-20 20-20zm-7.9 28.774h7.15v8.21c-.549-.024-1.092-.074-1.627-.149-1.263-.521-2.333-1.501-3.22-2.79-.99-1.438-1.756-3.249-2.303-5.271zm15.8 0c-.546 2.022-1.312 3.833-2.302 5.271-.888 1.289-1.958 2.269-3.221 2.79-.534.075-1.077.125-1.627.149v-8.21zm-22.46 0h5.118c.601 2.358 1.472 4.469 2.609 6.121.24.349.491.677.754.984-3.554-1.363-6.536-3.886-8.481-7.105zm24.002 0h5.119c-1.945 3.218-4.927 5.742-8.482 7.105.263-.307.515-.635.754-.984 1.138-1.652 2.009-3.763 2.609-6.121zm-26.425-8.022h6.551c.021 2.233.239 4.449.651 6.522h-5.586c-.946-1.992-1.515-4.197-1.616-6.522zm33.967 0c-.102 2.326-.671 4.531-1.616 6.522h-5.587c.413-2.072.631-4.289.652-6.522zm-8.726 6.522c.43-2.059.653-4.283.675-6.522h-8.183v6.522zm-17.19-6.522c.021 2.239.244 4.462.674 6.522h7.508v-6.522zm23.955-8.712c1.152 2.169 1.848 4.615 1.961 7.212h-6.567c-.074-2.482-.391-4.945-.945-7.212zm-7.09 0h-7.183v7.212h8.167c-.076-2.491-.403-4.963-.984-7.212zm-15.865 0c-.581 2.249-.908 4.721-.984 7.212h8.166v-7.212zm-7.09 0h5.551c-.555 2.267-.872 4.73-.946 7.212h-6.567c.113-2.597.809-5.043 1.962-7.212zm20.577-8.11c3.525 1.22 6.525 3.567 8.569 6.61h-5.063c-.574-1.884-1.326-3.589-2.254-5-.387-.589-.805-1.128-1.252-1.61zm-4.805-.914c.337.015.672.039 1.005.074 1.513.546 2.774 1.714 3.799 3.274.785 1.194 1.432 2.613 1.942 4.176h-6.746zm-1.5 0v7.524h-6.745c.51-1.563 1.157-2.982 1.942-4.176 1.025-1.56 2.286-2.728 3.799-3.274.332-.035.667-.059 1.004-.074zm-4.804.914c-.448.482-.866 1.021-1.253 1.61-.927 1.411-1.68 3.116-2.254 5h-5.062c2.042-3.043 5.043-5.39 8.569-6.61z"/></g></svg>