<svg clip-rule="evenodd" fill-rule="evenodd" stroke-linejoin="round" stroke-miterlimit="2" viewBox="0 0 64 64" xmlns="http://www.w3.org/2000/svg"><path d="m0 0h64v64h-64z" fill="none"/><path d="m32 0c17.661 0 32 14.339 32 32s-14.339 32-32 32-32-14.339-32-32 14.339-32 32-32zm-12.141 27.688h-2.559c-.904 0-1.638.734-1.638 1.638 0 .905.734 1.639 1.638 1.639h1.994c-.022.342-.033.687-.033 1.035s.011.693.033 1.035h-1.994c-.904 0-1.638.734-1.638 1.639 0 .904.734 1.638 1.638 1.638h2.559c1.9 6.711 8.115 11.688 15.402 11.688 2.421 0 4.812-.55 6.99-1.608.814-.395 1.153-1.376.758-2.19-.395-.813-1.376-1.153-2.189-.758-1.733.842-3.634 1.279-5.559 1.279-5.47 0-10.179-3.527-11.961-8.411h13.747c.905 0 1.639-.734 1.639-1.638 0-.905-.734-1.639-1.639-1.639h-14.467c-.028-.341-.043-.687-.043-1.035s.015-.694.043-1.035h14.467c.905 0 1.639-.734 1.639-1.639 0-.904-.734-1.638-1.639-1.638h-13.747c1.782-4.884 6.491-8.411 11.961-8.411 1.925 0 3.826.437 5.559 1.279.813.395 1.794.055 2.189-.758.395-.814.056-1.795-.758-2.19-2.178-1.058-4.569-1.608-6.99-1.608-7.287 0-13.502 4.977-15.402 11.688z"/></svg>