<svg clip-rule="evenodd" fill-rule="evenodd" stroke-linejoin="round" stroke-miterlimit="2" viewBox="0 0 65 64" xmlns="http://www.w3.org/2000/svg" xmlns:xlink="http://www.w3.org/1999/xlink"><clipPath id="a"><path clip-rule="evenodd" d="m.961 0h64v64h-64z"/></clipPath><path d="m.961 0h64v64h-64z" fill="none"/><g clip-path="url(#a)"><path d="m32.961 0c17.662 0 32 14.339 32 32s-14.338 32-32 32c-17.661 0-32-14.339-32-32s14.339-32 32-32zm6.047 27.427c-2.633 1.259-4.631 3.664-5.332 6.552-.842-.591-1.755-1.087-2.723-1.47 1.978-1.478 3.269-3.836 3.269-6.472 0-4.429-3.645-8.074-8.075-8.074s-8.075 3.645-8.075 8.074c0 2.636 1.29 4.994 3.269 6.472-4.886 1.937-8.38 6.726-8.38 12.268v1.703c0 .696.565 1.261 1.261 1.261h23.85c.696 0 1.261-.565 1.261-1.261v-1.703c0-2.318-.611-4.504-1.68-6.405 5.803 0 7.489-.001 14.048-.001.695 0 1.26-.564 1.26-1.26v-.852c0-3.875-2.303-7.254-5.604-8.832 1.343-1.171 2.197-2.892 2.197-4.797 0-3.495-2.876-6.371-6.371-6.371-3.496 0-6.372 2.876-6.372 6.371 0 1.905.854 3.626 2.197 4.797z"/></g></svg>