<svg clip-rule="evenodd" fill-rule="evenodd" stroke-linejoin="round" stroke-miterlimit="2" viewBox="0 0 64 64" xmlns="http://www.w3.org/2000/svg" xmlns:xlink="http://www.w3.org/1999/xlink"><clipPath id="a"><path clip-rule="evenodd" d="m0 0h64v64h-64z"/></clipPath><path d="m0 0h64v64h-64z" fill="none"/><g clip-path="url(#a)"><path d="m32 0c17.661 0 32 14.339 32 32s-14.339 32-32 32-32-14.339-32-32 14.339-32 32-32zm-20.023 21.258v25.39c0 2.936 2.415 5.352 5.351 5.352h29.32c2.936 0 5.352-2.416 5.352-5.352v-25.39c0-2.936-2.416-5.352-5.352-5.352h-1.953c-.797 0-1.445.648-1.445 1.446 0 .797.648 1.445 1.445 1.445h1.953c1.35 0 2.461 1.111 2.461 2.461v6.367h-34.242v-6.367c0-1.35 1.111-2.461 2.461-2.461h3.461v2.461c0 .798.648 1.445 1.445 1.445.798 0 1.446-.647 1.446-1.445v-7.813c0-.797-.648-1.445-1.446-1.445-.797 0-1.445.648-1.445 1.445v2.461h-3.461c-2.936 0-5.351 2.416-5.351 5.352zm11.017 24.242c0-.828-.672-1.5-1.5-1.5h-5c-.828 0-1.5.672-1.5 1.5s.672 1.5 1.5 1.5h5c.828 0 1.5-.672 1.5-1.5zm13.006 0c0-.828-.672-1.5-1.5-1.5h-5c-.828 0-1.5.672-1.5 1.5s.672 1.5 1.5 1.5h5c.828 0 1.5-.672 1.5-1.5zm-13.018-6c0-.828-.672-1.5-1.5-1.5h-5c-.827 0-1.5.672-1.5 1.5s.673 1.5 1.5 1.5h5c.828 0 1.5-.672 1.5-1.5zm12.989 0c0-.828-.672-1.5-1.5-1.5h-5c-.828 0-1.5.672-1.5 1.5s.672 1.5 1.5 1.5h5c.828 0 1.5-.672 1.5-1.5zm13.011 0c0-.828-.672-1.5-1.5-1.5h-5.023c-.828 0-1.5.672-1.5 1.5s.672 1.5 1.5 1.5h5.023c.828 0 1.5-.672 1.5-1.5zm-25.982-6c0-.828-.672-1.5-1.5-1.5h-5c-.828 0-1.5.672-1.5 1.5s.672 1.5 1.5 1.5h5c.828 0 1.5-.672 1.5-1.5zm12.988 0c0-.828-.672-1.5-1.5-1.5h-5c-.828 0-1.5.672-1.5 1.5s.672 1.5 1.5 1.5h5c.828 0 1.5-.672 1.5-1.5zm13.012 0c0-.828-.672-1.5-1.5-1.5h-5.023c-.828 0-1.5.672-1.5 1.5s.672 1.5 1.5 1.5h5.023c.828 0 1.5-.672 1.5-1.5zm-11.586-17.594h-9.344c-.797 0-1.445.648-1.445 1.446 0 .797.648 1.445 1.445 1.445h9.344v2.461c0 .798.648 1.445 1.445 1.445.798 0 1.446-.647 1.446-1.445v-7.813c0-.797-.648-1.445-1.446-1.445-.797 0-1.445.648-1.445 1.445z"/></g></svg>