<svg clip-rule="evenodd" fill-rule="evenodd" stroke-linejoin="round" stroke-miterlimit="2" viewBox="0 0 64 64" xmlns="http://www.w3.org/2000/svg"><path d="m0 0h64v64h-64z" fill="none"/><path d="m32 0c17.661 0 32 14.339 32 32s-14.339 32-32 32-32-14.339-32-32 14.339-32 32-32zm2.818 27.012c0-.835-.677-1.512-1.512-1.512-2.273 0-6.306 0-6.306 0-.828 0-1.5.672-1.5 1.5s.672 1.5 1.5 1.5h.642c.417 0 .816.169 1.106.468s.447.703.434 1.119c-.001 3.86-.002 13.693-.002 17.436-.001.816-.663 1.477-1.479 1.477-.389 0-.701 0-.701 0-.828 0-1.5.672-1.5 1.5s.672 1.5 1.5 1.5h10c.828 0 1.5-.672 1.5-1.5s-.672-1.5-1.5-1.5h-.676c-.831 0-1.504-.673-1.504-1.504 0-4.236-.002-16.237-.002-20.484zm-2.818-15.012c2.222 0 4.025 1.804 4.025 4.025 0 2.222-1.803 4.026-4.025 4.026s-4.025-1.804-4.025-4.026c0-2.221 1.803-4.025 4.025-4.025z"/></svg>