<svg clip-rule="evenodd" fill-rule="evenodd" stroke-linejoin="round" stroke-miterlimit="2" viewBox="0 0 64 64" xmlns="http://www.w3.org/2000/svg"><path d="m0 0h64v64h-64z" fill="none"/><path d="m32 0c17.661 0 32 14.339 32 32s-14.339 32-32 32-32-14.339-32-32 14.339-32 32-32zm5.5 44.5c.829 0 1.5.672 1.5 1.5v2.379c0 .606.366 1.153.926 1.385.561.233 1.206.104 1.635-.325 2.068-2.067 4.872-4.872 6.379-6.378.281-.282.439-.663.439-1.061s-.158-.779-.439-1.061c-1.507-1.506-4.311-4.311-6.379-6.378-.429-.429-1.074-.558-1.635-.325-.56.232-.926.779-.926 1.385v2.379c0 .828-.671 1.5-1.5 1.5-4.017 0-14.983 0-19 0-.829 0-1.5.672-1.5 1.5v2c0 .828.671 1.5 1.5 1.5zm-11-20c-.829 0-1.5.672-1.5 1.5v2.379c0 .606-.366 1.153-.926 1.385-.561.233-1.206.104-1.635-.325-2.068-2.067-4.872-4.872-6.379-6.378-.281-.282-.439-.663-.439-1.061s.158-.779.439-1.061c1.507-1.506 4.311-4.311 6.379-6.378.429-.429 1.074-.558 1.635-.325.56.232.926.779.926 1.385v2.379c0 .828.671 1.5 1.5 1.5h19c.829 0 1.5.672 1.5 1.5v2c0 .828-.671 1.5-1.5 1.5-4.017 0-14.983 0-19 0z"/></svg>