<svg clip-rule="evenodd" fill-rule="evenodd" stroke-linejoin="round" stroke-miterlimit="2" viewBox="0 0 64 64" xmlns="http://www.w3.org/2000/svg" xmlns:xlink="http://www.w3.org/1999/xlink"><clipPath id="a"><path clip-rule="evenodd" d="m0 0h64v64h-64z"/></clipPath><path d="m0 0h64v64h-64z" fill="none"/><g clip-path="url(#a)"><path d="m32 0c17.661 0 32 14.339 32 32s-14.339 32-32 32-32-14.339-32-32 14.339-32 32-32zm1.261 50.739v-1.703c0-.696-.565-1.261-1.261-1.261s-1.261.565-1.261 1.261v1.703c0 .696.565 1.261 1.261 1.261s1.261-.565 1.261-1.261zm13.259-6.002-1.704-1.703c-.492-.492-1.29-.492-1.782 0s-.492 1.29 0 1.782l1.703 1.704c.492.492 1.291.492 1.783 0s.492-1.291 0-1.783zm-27.257 1.783 1.703-1.704c.492-.492.492-1.29 0-1.782s-1.29-.492-1.782 0l-1.704 1.703c-.492.492-.492 1.291 0 1.783s1.291.492 1.783 0zm12.737-3.038c6.299 0 11.482-5.183 11.482-11.482s-5.183-11.482-11.482-11.482-11.482 5.183-11.482 11.482 5.183 11.482 11.482 11.482zm17.036-10.221h1.703c.696 0 1.261-.565 1.261-1.261s-.565-1.261-1.261-1.261h-1.703c-.696 0-1.261.565-1.261 1.261s.565 1.261 1.261 1.261zm-35.775 0h1.703c.696 0 1.261-.565 1.261-1.261s-.565-1.261-1.261-1.261h-1.703c-.696 0-1.261.565-1.261 1.261s.565 1.261 1.261 1.261zm31.476-15.781-1.703 1.704c-.492.492-.492 1.29 0 1.782s1.29.492 1.782 0l1.704-1.703c.492-.492.492-1.291 0-1.783s-1.291-.492-1.783 0zm-27.257 1.783 1.704 1.703c.492.492 1.29.492 1.782 0s.492-1.29 0-1.782l-1.703-1.704c-.492-.492-1.291-.492-1.783 0s-.492 1.291 0 1.783zm15.781-4.299v-1.703c0-.696-.565-1.261-1.261-1.261s-1.261.565-1.261 1.261v1.703c0 .696.565 1.261 1.261 1.261s1.261-.565 1.261-1.261z"/></g></svg>