<svg clip-rule="evenodd" fill-rule="evenodd" stroke-linejoin="round" stroke-miterlimit="2" viewBox="0 0 64 64" xmlns="http://www.w3.org/2000/svg" xmlns:xlink="http://www.w3.org/1999/xlink"><clipPath id="a"><path clip-rule="evenodd" d="m0 0h64v64h-64z"/></clipPath><path d="m0 0h64v64h-64z" fill="none"/><g clip-path="url(#a)"><path d="m32 0c17.661 0 32 14.339 32 32s-14.339 32-32 32-32-14.339-32-32 14.339-32 32-32zm16 28c0 8.836-14.667 24-16 24s-16-15.164-16-24c0-8.777 7.223-16 16-16s16 7.223 16 16zm-16 6.085c3.338 0 6.085-2.747 6.085-6.085s-2.747-6.085-6.085-6.085-6.085 2.747-6.085 6.085 2.747 6.085 6.085 6.085z"/></g></svg>