<svg clip-rule="evenodd" fill-rule="evenodd" stroke-linejoin="round" stroke-miterlimit="2" viewBox="0 0 64 64" xmlns="http://www.w3.org/2000/svg" xmlns:xlink="http://www.w3.org/1999/xlink"><clipPath id="a"><path clip-rule="evenodd" d="m0 0h64v64h-64z"/></clipPath><path d="m0 0h64v64h-64z" fill="none"/><g clip-path="url(#a)"><path d="m32 0c17.661 0 32 14.339 32 32s-14.339 32-32 32-32-14.339-32-32 14.339-32 32-32zm6 49v-35.5c0-.828-.672-1.5-1.5-1.5h-9c-.828 0-1.5.672-1.5 1.5v35.5h-3v-25.5c0-.828-.672-1.5-1.5-1.5h-8c-.828 0-1.5.672-1.5 1.5v27c0 .828.672 1.5 1.5 1.5h37c.828 0 1.5-.672 1.5-1.5v-22c0-.828-.672-1.5-1.5-1.5h-8c-.828 0-1.5.672-1.5 1.5v20.5zm-16.99-4c0-.552-.448-1-1-1h-1c-.552 0-1 .448-1 1v1c0 .552.448 1 1 1h1c.552 0 1-.448 1-1zm14.01 0c0-.552-.448-1-1-1h-1c-.552 0-1 .448-1 1v1c0 .552.448 1 1 1h1c.552 0 1-.448 1-1zm-5 0c0-.552-.448-1-1-1h-1c-.552 0-1 .448-1 1v1c0 .552.448 1 1 1h1c.552 0 1-.448 1-1zm14.98 0c0-.552-.448-1-1-1h-1c-.552 0-1 .448-1 1v1c0 .552.448 1 1 1h1c.552 0 1-.448 1-1zm5 0c0-.552-.448-1-1-1h-1c-.552 0-1 .448-1 1v1c0 .552.448 1 1 1h1c.552 0 1-.448 1-1zm-34 0c0-.552-.448-1-1-1h-1c-.552 0-1 .448-1 1v1c0 .552.448 1 1 1h1c.552 0 1-.448 1-1zm4.99-5c0-.552-.448-1-1-1h-1c-.552 0-1 .448-1 1v1c0 .552.448 1 1 1h1c.552 0 1-.448 1-1zm14.01 0c0-.552-.448-1-1-1h-1c-.552 0-1 .448-1 1v1c0 .552.448 1 1 1h1c.552 0 1-.448 1-1zm-5 0c0-.552-.448-1-1-1h-1c-.552 0-1 .448-1 1v1c0 .552.448 1 1 1h1c.552 0 1-.448 1-1zm14.98 0c0-.552-.448-1-1-1h-1c-.552 0-1 .448-1 1v1c0 .552.448 1 1 1h1c.552 0 1-.448 1-1zm5 0c0-.552-.448-1-1-1h-1c-.552 0-1 .448-1 1v1c0 .552.448 1 1 1h1c.552 0 1-.448 1-1zm-34 0c0-.552-.448-1-1-1h-1c-.552 0-1 .448-1 1v1c0 .552.448 1 1 1h1c.552 0 1-.448 1-1zm5.03-5c0-.552-.448-1-1-1h-1c-.552 0-1 .448-1 1v1c0 .552.448 1 1 1h1c.552 0 1-.448 1-1zm14.01 0c0-.552-.448-1-1-1h-1c-.552 0-1 .448-1 1v1c0 .552.448 1 1 1h1c.552 0 1-.448 1-1zm-5 0c0-.552-.448-1-1-1h-1c-.552 0-1 .448-1 1v1c0 .552.448 1 1 1h1c.552 0 1-.448 1-1zm14.98 0c0-.552-.448-1-1-1h-1c-.552 0-1 .448-1 1v1c0 .552.448 1 1 1h1c.552 0 1-.448 1-1zm5 0c0-.552-.448-1-1-1h-1c-.552 0-1 .448-1 1v1c0 .552.448 1 1 1h1c.552 0 1-.448 1-1zm-34 0c0-.552-.448-1-1-1h-1c-.552 0-1 .448-1 1v1c0 .552.448 1 1 1h1c.552 0 1-.448 1-1zm4.99-5c0-.552-.448-1-1-1h-1c-.552 0-1 .448-1 1v1c0 .552.448 1 1 1h1c.552 0 1-.448 1-1zm9.01 0c0-.552-.448-1-1-1h-1c-.552 0-1 .448-1 1v1c0 .552.448 1 1 1h1c.552 0 1-.448 1-1zm5 0c0-.552-.448-1-1-1h-1c-.552 0-1 .448-1 1v1c0 .552.448 1 1 1h1c.552 0 1-.448 1-1zm14.98 0c0-.552-.448-1-1-1h-1c-.552 0-1 .448-1 1v1c0 .552.448 1 1 1h1c.552 0 1-.448 1-1zm-4.98 0c0-.552-.448-1-1-1h-1c-.552 0-1 .448-1 1v1c0 .552.448 1 1 1h1c.552 0 1-.448 1-1zm-29.02 0c0-.552-.448-1-1-1h-1c-.552 0-1 .448-1 1v1c0 .552.448 1 1 1h1c.552 0 1-.448 1-1zm5.03-5c0-.552-.448-1-1-1h-1c-.552 0-1 .448-1 1v1c0 .552.448 1 1 1h1c.552 0 1-.448 1-1zm8.99 0c0-.552-.448-1-1-1h-1c-.552 0-1 .448-1 1v1c0 .552.448 1 1 1h1c.552 0 1-.448 1-1zm5 0c0-.552-.448-1-1-1h-1c-.552 0-1 .448-1 1v1c0 .552.448 1 1 1h1c.552 0 1-.448 1-1zm-19 0c0-.552-.448-1-1-1h-1c-.552 0-1 .448-1 1v1c0 .552.448 1 1 1h1c.552 0 1-.448 1-1zm14.02-5c0-.552-.448-1-1-1h-1c-.552 0-1 .448-1 1v1c0 .552.448 1 1 1h1c.552 0 1-.448 1-1zm5 0c0-.552-.448-1-1-1h-1c-.552 0-1 .448-1 1v1c0 .552.448 1 1 1h1c.552 0 1-.448 1-1zm-5.02-5c0-.552-.448-1-1-1h-1c-.552 0-1 .448-1 1v1c0 .552.448 1 1 1h1c.552 0 1-.448 1-1zm5 0c0-.552-.448-1-1-1h-1c-.552 0-1 .448-1 1v1c0 .552.448 1 1 1h1c.552 0 1-.448 1-1z"/></g></svg>