<svg clip-rule="evenodd" fill-rule="evenodd" stroke-linejoin="round" stroke-miterlimit="2" viewBox="0 0 64 64" xmlns="http://www.w3.org/2000/svg" xmlns:xlink="http://www.w3.org/1999/xlink"><clipPath id="a"><path clip-rule="evenodd" d="m0 0h64v64h-64z"/></clipPath><path d="m0 0h64v64h-64z" fill="none"/><g clip-path="url(#a)"><path d="m32 0c17.661 0 32 14.339 32 32s-14.339 32-32 32-32-14.339-32-32 14.339-32 32-32zm-11.018 15.891c-1.236.032-2.242 1.058-2.242 2.301v27.397c0 1.263 1.039 2.302 2.301 2.302h21.918c1.262 0 2.301-1.039 2.301-2.302v-27.397c0-1.262-1.039-2.301-2.301-2.301h-21.918zm3.712 26.469h7.306c.746 0 1.352-.606 1.352-1.352s-.606-1.351-1.352-1.351h-7.306c-.746 0-1.352.605-1.352 1.351s.606 1.352 1.352 1.352zm0-6.079h14.612c.746 0 1.352-.605 1.352-1.351s-.606-1.352-1.352-1.352h-14.612c-.746 0-1.352.606-1.352 1.352s.606 1.351 1.352 1.351zm0-6.078h14.612c.746 0 1.352-.606 1.352-1.352s-.606-1.351-1.352-1.351h-14.612c-.746 0-1.352.605-1.352 1.351s.606 1.352 1.352 1.352zm0-6.079h14.612c.746 0 1.352-.605 1.352-1.351s-.606-1.352-1.352-1.352h-14.612c-.746 0-1.352.606-1.352 1.352s.606 1.351 1.352 1.351z"/></g></svg>