<svg clip-rule="evenodd" fill-rule="evenodd" stroke-linejoin="round" stroke-miterlimit="2" viewBox="0 0 64 64" xmlns="http://www.w3.org/2000/svg" xmlns:xlink="http://www.w3.org/1999/xlink"><clipPath id="a"><path clip-rule="evenodd" d="m0 0h64v64h-64z"/></clipPath><path d="m0 0h64v64h-64z" fill="none"/><g clip-path="url(#a)"><path d="m32 64c17.661 0 32-14.339 32-32s-14.339-32-32-32-32 14.339-32 32 14.339 32 32 32zm-1.261-18.668v5.407c0 .696.565 1.261 1.261 1.261s1.261-.565 1.261-1.261v-5.407c0-.696-.565-1.26-1.261-1.26s-1.261.564-1.261 1.26zm4.261-23.953 7.439 7.439c.429.429.558 1.074.326 1.635-.233.56-.78.926-1.386.926h-3.379l7.439 7.439c.429.429.558 1.074.326 1.635-.233.56-.78.926-1.386.926-6.158 0-18.6 0-24.758 0-.606 0-1.153-.366-1.386-.926-.232-.561-.103-1.206.326-1.635l7.439-7.439h-3.379c-.606 0-1.153-.366-1.386-.926-.232-.561-.103-1.206.326-1.635l7.439-7.439h-3.379c-.606 0-1.153-.366-1.385-.926-.233-.561-.104-1.206.325-1.635 2.067-2.068 4.872-4.873 6.378-6.379.282-.281.663-.439 1.061-.439s.779.158 1.061.439c1.506 1.506 4.311 4.311 6.378 6.379.429.429.558 1.074.325 1.635-.232.56-.779.926-1.385.926z"/></g></svg>