<svg clip-rule="evenodd" fill-rule="evenodd" stroke-linejoin="round" stroke-miterlimit="2" viewBox="0 0 64 64" xmlns="http://www.w3.org/2000/svg"><path d="m0 0h64v64h-64z" fill="none"/><path d="m32 0c17.661 0 32 14.339 32 32s-14.339 32-32 32-32-14.339-32-32 14.339-32 32-32zm6.266 41.345 6.017 6.018c.85.849 2.23.849 3.08 0 .849-.85.849-2.23 0-3.08 0 0-6.018-6.017-6.018-6.017 1.7-2.319 2.706-5.172 2.706-8.241 0-7.694-6.331-14.025-14.026-14.025-7.694 0-14.025 6.331-14.025 14.025 0 7.695 6.331 14.026 14.025 14.026 3.069 0 5.922-1.006 8.241-2.706zm-17.911-11.32c0-5.305 4.365-9.67 9.67-9.67 5.306 0 9.671 4.365 9.671 9.67 0 5.306-4.365 9.671-9.671 9.671-5.305 0-9.67-4.365-9.67-9.671z"/></svg>