<svg clip-rule="evenodd" fill-rule="evenodd" stroke-linejoin="round" stroke-miterlimit="2" viewBox="0 0 64 64" xmlns="http://www.w3.org/2000/svg" xmlns:xlink="http://www.w3.org/1999/xlink"><clipPath id="a"><path clip-rule="evenodd" d="m0 0h64v64h-64z"/></clipPath><path d="m0 0h64v64h-64z" fill="none"/><g clip-path="url(#a)"><path d="m32 0c17.661 0 32 14.339 32 32s-14.339 32-32 32-32-14.339-32-32 14.339-32 32-32zm20 27.724c.007 3.077-1.18 6.039-3.308 8.26-4.882 5.062-9.618 10.34-14.68 15.217-1.162 1.1-3.004 1.06-4.114-.09l-14.59-15.125c-4.411-4.572-4.411-11.952 0-16.522 2.105-2.21 5.027-3.462 8.08-3.462 3.052 0 5.974 1.252 8.08 3.462l.532.548.53-.548c2.109-2.204 5.029-3.456 8.08-3.464 3.04 0 5.946 1.248 8.08 3.464 2.129 2.221 3.316 5.184 3.31 8.26z"/></g></svg>