<svg clip-rule="evenodd" fill-rule="evenodd" stroke-linejoin="round" stroke-miterlimit="2" viewBox="0 0 64 64" xmlns="http://www.w3.org/2000/svg" xmlns:xlink="http://www.w3.org/1999/xlink"><clipPath id="a"><path clip-rule="evenodd" d="m0 0h64v64h-64z"/></clipPath><path d="m0 0h64v64h-64z" fill="none"/><g clip-path="url(#a)"><path d="m32 0c17.661 0 32 14.339 32 32s-14.339 32-32 32-32-14.339-32-32 14.339-32 32-32zm0 52c11.046 0 20-8.954 20-20s-8.954-20-20-20-20 8.954-20 20 8.954 20 20 20zm-8.831-23.08 8 5.328c.537.358 1.243.332 1.752-.064l10.279-8c.653-.509.771-1.452.262-2.105-.508-.654-1.452-.771-2.105-.263l-9.425 7.336s-7.101-4.729-7.101-4.729c-.689-.459-1.621-.272-2.079.417-.459.689-.273 1.621.417 2.08z"/></g></svg>