<svg clip-rule="evenodd" fill-rule="evenodd" stroke-linejoin="round" stroke-miterlimit="2" viewBox="0 0 64 64" xmlns="http://www.w3.org/2000/svg" xmlns:xlink="http://www.w3.org/1999/xlink"><clipPath id="a"><path clip-rule="evenodd" d="m0 0h64v64h-64z"/></clipPath><path d="m0 0h64v64h-64z" fill="none"/><g clip-path="url(#a)"><path d="m32 0c17.661 0 32 14.339 32 32s-14.339 32-32 32-32-14.339-32-32 14.339-32 32-32zm-4.924 16-.189.014-.2.048-9.183 3.063c-.896.299-1.504 1.143-1.504 2.087v24.206c0 1.207.993 2.201 2.201 2.201.237 0 .472-.038.697-.113l8.174-2.725 9.495 3.165.176.04.22.014.21-.024.14-.038 9.183-3.061c.897-.299 1.506-1.145 1.504-2.091v-24.204c0-1.207-.994-2.201-2.201-2.201-.237 0-.472.038-.697.113l-8.174 2.726-9.495-3.165-.176-.041zm-8.645 5.378v23.721l7.425-2.476v-23.721zm19.713-.001v23.721l7.425-2.474v-23.722z"/></g></svg>