<?xml version="1.0" encoding="UTF-8" standalone="no"?>
<!DOCTYPE svg PUBLIC "-//W3C//DTD SVG 1.1//EN" "http://www.w3.org/Graphics/SVG/1.1/DTD/svg11.dtd">
<svg width="100%" height="100%" viewBox="0 0 430 430" version="1.1" xmlns="http://www.w3.org/2000/svg" xmlns:xlink="http://www.w3.org/1999/xlink" xml:space="preserve" xmlns:serif="http://www.serif.com/" style="fill-rule:evenodd;clip-rule:evenodd;stroke-linejoin:round;stroke-miterlimit:2;">
    <g transform="matrix(1,0,0,1,-664.42,-5408.16)">
        <g transform="matrix(1,0,0,1,-4002.58,3369.94)">
            <g transform="matrix(1.96051,0,0,1.96051,2490.04,332.775)">
                <path d="M1141.79,944.262C1145.78,935.206 1151.27,926.977 1157.94,919.901L1173.73,919.901C1167.61,927.129 1162.59,935.338 1158.92,944.262L1141.79,944.262ZM1164.7,944.262C1168.69,935.206 1174.18,926.977 1180.85,919.901L1195.54,919.901C1191.45,927.421 1188.12,935.592 1185.67,944.262L1164.7,944.262ZM1191.19,944.262C1193.76,935.538 1197.28,927.356 1201.59,919.901L1216.41,919.901L1216.41,944.262L1191.19,944.262ZM1216.41,914.588L1204.88,914.588C1208.33,909.364 1212.2,904.558 1216.41,900.243L1216.41,914.588ZM1221.73,900.13C1225.99,904.474 1229.89,909.318 1233.37,914.588L1221.73,914.588L1221.73,900.13ZM1221.73,919.901L1236.66,919.901C1240.97,927.356 1244.49,935.538 1247.06,944.262L1221.73,944.262L1221.73,919.901ZM1252.58,944.262C1250.14,935.592 1246.8,927.421 1242.71,919.901L1257.4,919.901C1264.07,926.977 1269.56,935.206 1273.55,944.262L1252.58,944.262ZM1279.33,944.262C1275.66,935.338 1270.64,927.129 1264.52,919.901L1280.32,919.901C1286.98,926.977 1292.47,935.206 1296.47,944.262L1279.33,944.262ZM1216.41,1057.65C1212.45,1053.59 1208.81,1049.11 1205.52,1044.25L1216.41,1044.25L1216.41,1057.65ZM1216.41,1038.94L1202.15,1038.94C1197.13,1030.47 1193.15,1021.03 1190.42,1010.91L1216.41,1010.91L1216.41,1038.94ZM1184.94,1010.91C1187.53,1020.97 1191.3,1030.38 1196.06,1038.94L1181.09,1038.94C1173.48,1030.93 1167.39,1021.43 1163.28,1010.91L1184.94,1010.91ZM1157.6,1010.91C1161.38,1021.27 1166.96,1030.74 1173.95,1038.94L1158.18,1038.94C1150.57,1030.93 1144.48,1021.43 1140.37,1010.91L1157.6,1010.91ZM1138.49,1005.6C1135.88,997.358 1134.46,988.576 1134.45,979.462L1152.05,979.462C1152.06,988.547 1153.39,997.32 1155.85,1005.6L1138.49,1005.6ZM1134.6,974.149C1135.1,965.559 1136.84,957.307 1139.65,949.576L1156.93,949.576C1154.29,957.346 1152.66,965.591 1152.19,974.149L1134.6,974.149ZM1184.3,949.576C1182.45,957.435 1181.33,965.662 1181.02,974.149L1157.51,974.149C1158.01,965.559 1159.75,957.307 1162.56,949.576L1184.3,949.576ZM1216.41,949.576L1216.41,974.149L1186.34,974.149C1186.66,965.649 1187.83,957.417 1189.76,949.576L1216.41,949.576ZM1248.5,949.576C1250.42,957.417 1251.59,965.649 1251.91,974.149L1221.73,974.149L1221.73,949.576L1248.5,949.576ZM1275.69,949.576C1278.5,957.307 1280.24,965.559 1280.74,974.149L1257.23,974.149C1256.92,965.662 1255.8,957.435 1253.95,949.576L1275.69,949.576ZM1298.6,949.576C1301.41,957.307 1303.15,965.559 1303.66,974.149L1286.06,974.149C1285.6,965.591 1283.96,957.346 1281.32,949.576L1298.6,949.576ZM1303.81,979.462C1303.79,988.576 1302.37,997.358 1299.76,1005.6L1282.4,1005.6C1284.86,997.32 1286.19,988.547 1286.2,979.462L1303.81,979.462ZM1297.88,1010.91C1293.77,1021.43 1287.68,1030.93 1280.07,1038.94L1264.3,1038.94C1271.29,1030.74 1276.87,1021.27 1280.65,1010.91L1297.88,1010.91ZM1274.97,1010.91C1270.86,1021.43 1264.77,1030.93 1257.16,1038.94L1242.19,1038.94C1246.95,1030.38 1250.73,1020.97 1253.31,1010.91L1274.97,1010.91ZM1247.83,1010.91C1245.1,1021.03 1241.12,1030.47 1236.1,1038.94L1221.73,1038.94L1221.73,1010.91L1247.83,1010.91ZM1221.73,1044.25L1232.74,1044.25C1229.41,1049.15 1225.73,1053.68 1221.73,1057.76L1221.73,1044.25ZM1189.12,1005.6C1187.29,997.256 1186.29,988.496 1186.25,979.462L1216.41,979.462L1216.41,1005.6L1189.12,1005.6ZM1161.41,1005.6C1158.8,997.358 1157.38,988.576 1157.36,979.462L1180.94,979.462C1180.97,988.485 1181.93,997.239 1183.69,1005.6L1161.41,1005.6ZM1252,979.462C1251.96,988.496 1250.97,997.256 1249.13,1005.6L1221.73,1005.6L1221.73,979.462L1252,979.462ZM1280.89,979.462C1280.87,988.576 1279.46,997.358 1276.84,1005.6L1254.56,1005.6C1256.32,997.239 1257.28,988.485 1257.31,979.462L1280.89,979.462ZM1259.65,914.588C1251.02,905.88 1240.65,898.936 1229.13,894.335C1229.61,894.26 1230.1,894.189 1230.58,894.122C1247.4,896.436 1262.66,903.77 1274.84,914.588L1259.65,914.588ZM1239.63,914.588C1236.36,909.304 1232.71,904.391 1228.71,899.91C1237.25,903.517 1245.08,908.501 1251.93,914.588L1239.63,914.588ZM1163.41,914.588C1175.59,903.77 1190.85,896.436 1207.67,894.122C1208.15,894.189 1208.64,894.26 1209.12,894.335C1197.6,898.936 1187.23,905.88 1178.6,914.588L1163.41,914.588ZM1186.32,914.588C1193.17,908.501 1201,903.517 1209.54,899.91C1205.54,904.391 1201.89,909.304 1198.62,914.588L1186.32,914.588ZM1178.85,1044.25C1187.44,1052.84 1197.71,1059.69 1209.12,1064.25C1208.64,1064.32 1208.15,1064.39 1207.67,1064.46C1190.98,1062.16 1175.83,1054.93 1163.7,1044.25L1178.85,1044.25ZM1199.22,1044.25C1202.6,1049.61 1206.4,1054.58 1210.54,1059.09C1201.74,1055.5 1193.66,1050.46 1186.61,1044.25L1199.22,1044.25ZM1274.55,1044.25C1262.42,1054.93 1247.27,1062.16 1230.58,1064.46C1230.1,1064.39 1229.61,1064.32 1229.13,1064.25C1240.54,1059.69 1250.81,1052.84 1259.4,1044.25L1274.55,1044.25ZM1251.64,1044.25C1244.59,1050.46 1236.51,1055.5 1227.71,1059.09C1231.86,1054.58 1235.65,1049.61 1239.03,1044.25L1251.64,1044.25Z" style="fill:rgb(87,151,159);"/>
            </g>
            <g transform="matrix(1.25078,0,0,1,-1681.12,-88.8687)">
                <path d="M5291.77,2283.3C5294.78,2298.67 5296.62,2314.81 5297.12,2331.48L5249.81,2331.48L5249.81,2283.3L5291.77,2283.3Z" style="fill:rgb(158,111,103);"/>
            </g>
            <g transform="matrix(0.71232,0,0,1,1075.53,-205.886)">
                <path d="M5191.36,2389.9C5202.35,2372.15 5217.46,2356.01 5235.82,2342.14L5276.25,2342.14C5264.99,2356.88 5255.81,2372.9 5249.09,2389.9L5191.36,2389.9Z" style="fill:rgb(95,117,158);"/>
            </g>
            <g transform="matrix(1.06617,0,0,1.08393,-713.789,-159.123)">
                <path d="M5349.47,2282.25C5341.91,2301.27 5330.71,2318.45 5316.72,2332.94L5289.19,2332.94C5297.94,2317.47 5304.89,2300.43 5309.65,2282.25L5349.47,2282.25Z" style="fill:rgb(95,117,158);"/>
            </g>
            <g transform="matrix(1.04338,0,0,0.92204,4043.65,-1306.74)">
                <path d="M803.251,3627.78C916.847,3627.78 1009.07,3732.16 1009.07,3860.71C1009.07,3989.27 916.847,4093.64 803.251,4093.64C689.655,4093.64 597.43,3989.27 597.43,3860.71C597.43,3732.16 689.655,3627.78 803.251,3627.78ZM803.251,3663.14C899.604,3663.14 977.831,3751.67 977.831,3860.71C977.831,3969.76 899.604,4058.29 803.251,4058.29C706.897,4058.29 628.67,3969.76 628.67,3860.71C628.67,3751.67 706.897,3663.14 803.251,3663.14Z" style="fill:rgb(95,117,158);"/>
            </g>
        </g>
    </g>
</svg>
