<svg clip-rule="evenodd" fill-rule="evenodd" stroke-linejoin="round" stroke-miterlimit="2" viewBox="0 0 64 64" xmlns="http://www.w3.org/2000/svg"><path d="m0 0h64v64h-64z" fill="none"/><path d="m32 0c17.661 0 32 14.339 32 32s-14.339 32-32 32-32-14.339-32-32 14.339-32 32-32zm10.336 48c3.107 0 5.664-2.557 5.664-5.664s-2.557-5.664-5.664-5.664-5.664 2.557-5.664 5.664 2.557 5.664 5.664 5.664zm1.465-31.139-26.94 26.94c-.921.921-.921 2.417 0 3.338s2.417.921 3.338 0c0 0 26.94-26.94 26.94-26.94.921-.921.921-2.417 0-3.338s-2.417-.921-3.338 0zm-1.465 28.08c-1.429 0-2.605-1.176-2.605-2.605s1.176-2.605 2.605-2.605 2.605 1.176 2.605 2.605-1.176 2.605-2.605 2.605zm-20.672-17.613c3.107 0 5.664-2.557 5.664-5.664s-2.557-5.664-5.664-5.664-5.664 2.557-5.664 5.664 2.557 5.664 5.664 5.664zm0-3.059c-1.429 0-2.605-1.176-2.605-2.605s1.176-2.605 2.605-2.605 2.605 1.176 2.605 2.605-1.176 2.605-2.605 2.605z"/></svg>