<?xml version="1.0" encoding="UTF-8" standalone="no"?><!DOCTYPE svg PUBLIC "-//W3C//DTD SVG 1.1//EN" "http://www.w3.org/Graphics/SVG/1.1/DTD/svg11.dtd"><svg width="100%" height="100%" viewBox="0 0 64 64" version="1.1" xmlns="http://www.w3.org/2000/svg" xmlns:xlink="http://www.w3.org/1999/xlink" xml:space="preserve" xmlns:serif="http://www.serif.com/" style="fill-rule:evenodd;clip-rule:evenodd;stroke-linejoin:round;stroke-miterlimit:2;"><rect id="mouse" x="0" y="0" width="64" height="64" style="fill:none;"/><clipPath id="_clip1"><rect id="mouse1" serif:id="mouse" x="0" y="0" width="64" height="64"/></clipPath><g clip-path="url(#_clip1)"><path d="M32,0c-5.154,0 -9.939,2.344 -13.803,6.382c-5.535,5.783 -9.18,15.098 -9.18,25.618c-0,10.52 3.645,19.835 9.18,25.618c3.864,4.038 8.649,6.382 13.803,6.382c5.154,0 9.939,-2.344 13.803,-6.382c5.535,-5.783 9.18,-15.098 9.18,-25.618c0,-10.52 -3.645,-19.835 -9.18,-25.618c-3.864,-4.038 -8.649,-6.382 -13.803,-6.382Zm-0,3.536c4.213,-0 8.09,1.99 11.249,5.291c4.999,5.223 8.199,13.67 8.199,23.173c-0,9.503 -3.2,17.95 -8.199,23.173c-3.159,3.301 -7.036,5.291 -11.249,5.291c-4.213,0 -8.09,-1.99 -11.249,-5.291c-4.999,-5.223 -8.199,-13.67 -8.199,-23.173c0,-9.503 3.2,-17.95 8.199,-23.173c3.159,-3.301 7.036,-5.291 11.249,-5.291Z"/><path d="M33.768,9.049l-0,-3.609c3.053,0.472 5.846,2.146 8.204,4.609c3.972,4.15 6.706,10.467 7.482,17.708c0,-0 -9.675,-0 -9.675,-0c-2.489,-0 -4.627,-1.516 -5.539,-3.674c1.262,-0.39 2.18,-1.566 2.18,-2.956l-0,-9.017c-0,-1.557 -1.153,-2.847 -2.652,-3.061Z"/><path d="M30.232,9.049l0,-3.609c-3.053,0.472 -5.846,2.146 -8.204,4.609c-3.972,4.15 -6.706,10.467 -7.482,17.708c-0,-0 9.675,-0 9.675,-0c2.489,-0 4.627,-1.516 5.539,-3.674c-1.262,-0.39 -2.18,-1.566 -2.18,-2.956l0,-9.017c0,-1.557 1.153,-2.847 2.652,-3.061Z"/><path d="M34.652,12.11c-0,-0.731 -0.594,-1.325 -1.326,-1.325l-2.652,-0c-0.732,-0 -1.326,0.594 -1.326,1.325l0,9.017c0,0.732 0.594,1.326 1.326,1.326l2.652,0c0.732,0 1.326,-0.594 1.326,-1.326l-0,-9.017Z"/></g></svg>