<?xml version="1.0" encoding="utf-8"?>
<!-- Generator: Adobe Illustrator 27.3.0, SVG Export Plug-In . SVG Version: 6.00 Build 0)  -->
<svg version="1.1" id="Ebene_1" xmlns="http://www.w3.org/2000/svg" xmlns:xlink="http://www.w3.org/1999/xlink" x="0px" y="0px"
	 viewBox="0 0 500 500" style="enable-background:new 0 0 500 500;" xml:space="preserve">
<style type="text/css">
	.st0{fill-rule:evenodd;clip-rule:evenodd;fill:#020203;}
</style>
<g>
	<path d="M30,40H10C4.5,40,0,35.5,0,30l0-20C0,4.5,4.5,0,10,0l20,0c5.5,0,10,4.5,10,10v20C40,35.5,35.5,40,30,40z"/>
	<path d="M30,117.5H10c-5.5,0-10-4.5-10-10l0-20c0-5.5,4.5-10,10-10h20c5.5,0,10,4.5,10,10v20C40,113,35.5,117.5,30,117.5z"/>
	<path d="M30,195H10c-5.5,0-10-4.5-10-10l0-20c0-5.5,4.5-10,10-10h20c5.5,0,10,4.5,10,10v20C40,190.5,35.5,195,30,195z"/>
	<path d="M340,110h-20c-5.5,0-10-4.5-10-10V80c0-5.5,4.5-10,10-10h20c5.5,0,10,4.5,10,10v20C350,105.5,345.5,110,340,110z"/>
	<path d="M30,272.5H10c-5.5,0-10-4.5-10-10l0-20c0-5.5,4.5-10,10-10h20c5.5,0,10,4.5,10,10v20C40,268,35.5,272.5,30,272.5z"/>
	<path d="M30,350H10c-5.5,0-10-4.5-10-10l0-20c0-5.5,4.5-10,10-10h20c5.5,0,10,4.5,10,10v20C40,345.5,35.5,350,30,350z"/>
	<path d="M107.5,40h-20c-5.5,0-10-4.5-10-10V10c0-5.5,4.5-10,10-10l20,0c5.5,0,10,4.5,10,10v20C117.5,35.5,113,40,107.5,40z"/>
	<path d="M185,40h-20c-5.5,0-10-4.5-10-10V10c0-5.5,4.5-10,10-10l20,0c5.5,0,10,4.5,10,10v20C195,35.5,190.5,40,185,40z"/>
	<path d="M262.5,40h-20c-5.5,0-10-4.5-10-10V10c0-5.5,4.5-10,10-10l20,0c5.5,0,10,4.5,10,10v20C272.5,35.5,268,40,262.5,40z"/>
	<path d="M340,40h-20c-5.5,0-10-4.5-10-10V10c0-5.5,4.5-10,10-10l20,0c5.5,0,10,4.5,10,10v20C350,35.5,345.5,40,340,40z"/>
</g>
<g id="Fill-16">
	<path class="st0" d="M77.3,246.9c0.7-23,8.7-45.7,23.5-67.6c1-1.5,2.9-2.1,4.6-1.4c1.7,0.7,2.6,2.5,2.3,4.2
		c-10.7,53.7,49.6,96.8,81.1,118.6l31.6-44.9c1.7-2.4,4.1-3.6,6.5-3.3c1,0.1,1.9,0.5,2.7,1c1.3,0.9,2.3,2.3,2.9,4.1l54.4,151.4
		c0,0,0,0,0,0c1,2.7,0.7,5.4-0.8,7.5c-1.5,2.1-3.9,3.3-6.8,3.3L118.3,420c-3.1,0-5.5-1.2-6.7-3.5c-1.2-2.2-0.8-4.9,0.9-7.3
		l28.5-40.4c-12.1-10.3-36-33.2-50.9-64.4C81,285.3,76.7,266,77.3,246.9z"/>
</g>
<path d="M460,150H190c-22.1,0-40,17.9-40,40v10v8.8V230h8.6h6.5h24.8h6.6h65.6h70.3H460v230H190v0l-40,0v0c0,22.1,17.9,40,40,40h270
	c22.1,0,40-17.9,40-40V190C500,167.9,482.1,150,460,150z"/>
</svg>
