<?xml version="1.0" encoding="UTF-8"?>
<svg width="500px" height="500px" viewBox="0 0 500 500" version="1.1" xmlns="http://www.w3.org/2000/svg" xmlns:xlink="http://www.w3.org/1999/xlink">
    <!-- Generator: Sketch 52.6 (67491) - http://www.bohemiancoding.com/sketch -->
    <title>copy copy 5</title>
    <desc>Created with Sketch.</desc>
    <defs>
        <path d="M18.712,0.158 C8.377,0.158 0,8.536 0,18.87 L0,480.288 C0,490.622 8.377,499 18.712,499 L480.13,499 C490.464,499 498.842,490.622 498.842,480.288 L498.842,310.095 C498.842,299.761 490.464,291.383 480.13,291.383 L449.41,291.383 C439.076,291.383 430.698,299.761 430.698,310.095 L430.698,412.145 C430.698,422.479 422.32,430.857 411.986,430.857 L86.855,430.857 C76.521,430.857 68.143,422.479 68.143,412.145 L68.143,87.013 C68.143,76.679 76.521,68.301 86.855,68.301 L188.905,68.301 C199.239,68.301 207.617,59.924 207.617,49.589 L207.617,18.87 C207.617,8.536 199.239,0.158 188.905,0.158 L18.712,0.158 Z" id="path-1"></path>
        <path d="M24.077,0.158 C11.246,0.158 0.844,11.201 0.844,24.824 L0.844,67.99 C0.844,81.613 11.246,92.656 24.077,92.656 L63.075,92.656 L189.61,92.656 L228.609,92.656 C241.372,92.656 251.734,81.73 251.842,68.205 L251.842,24.609 C251.734,11.084 241.372,0.158 228.609,0.158 L24.077,0.158 Z" id="path-3"></path>
        <path d="M24.795,0.206 C11.27,0.314 0.344,10.675 0.344,23.438 L0.344,227.97 C0.344,240.801 11.387,251.203 25.01,251.203 L68.175,251.203 C81.799,251.203 92.842,240.801 92.842,227.97 L92.842,23.438 C92.842,10.675 81.916,0.314 68.39,0.206 L24.795,0.206 Z" id="path-5"></path>
        <path d="M239.567,6.565 L7.108,239.025 C-1.902,248.035 -1.341,263.201 8.359,272.902 L39.098,303.64 C48.799,313.341 63.965,313.902 72.975,304.892 L100.358,277.51 L278.053,99.815 L305.435,72.432 C314.444,63.424 313.884,48.255 304.184,38.554 L273.444,7.816 C268.36,2.731 261.773,0.158 255.358,0.158 C249.535,0.158 243.854,2.278 239.567,6.565 Z" id="path-7"></path>
    </defs>
    <g id="copy-copy-5" stroke="none" stroke-width="1" fill="none" fill-rule="evenodd">
        <g id="Group-13" transform="translate(1.000000, 0.000000)">
            <g id="Group-3" transform="translate(0.000000, 0.819000)">
                <mask id="mask-2" fill="white">
                    <use xlink:href="#path-1"></use>
                </mask>
                <g id="Clip-2"></g>
                <polygon id="Fill-1" fill="#020203" mask="url(#mask-2)" points="-5 504 503.842 504 503.842 -4.842 -5 -4.842"></polygon>
            </g>
            <g id="Group-6" transform="translate(247.000000, 0.819000)">
                <mask id="mask-4" fill="white">
                    <use xlink:href="#path-3"></use>
                </mask>
                <g id="Clip-5"></g>
                <polygon id="Fill-4" fill="#030404" mask="url(#mask-4)" points="-4.156 97.656 256.842 97.656 256.842 -4.842 -4.156 -4.842"></polygon>
            </g>
            <g id="Group-9" transform="translate(406.000000, 5.819000)">
                <mask id="mask-6" fill="white">
                    <use xlink:href="#path-5"></use>
                </mask>
                <g id="Clip-8"></g>
                <polygon id="Fill-7" fill="#030404" mask="url(#mask-6)" points="-4.656 256.203 97.842 256.203 97.842 -4.795 -4.656 -4.795"></polygon>
            </g>
            <g id="Group-12" transform="translate(187.000000, 0.819000)">
                <mask id="mask-8" fill="white">
                    <use xlink:href="#path-7"></use>
                </mask>
                <g id="Clip-11"></g>
                <polygon id="Fill-10" fill="#030404" mask="url(#mask-8)" points="255.8805 -16.8193 328.8195 56.1197 56.6625 328.2757 -16.2765 255.3377"></polygon>
            </g>
        </g>
    </g>
</svg>