<?xml version="1.0" encoding="UTF-8"?>
<svg width="674px" height="715px" viewBox="0 0 674 715" version="1.1" xmlns="http://www.w3.org/2000/svg" xmlns:xlink="http://www.w3.org/1999/xlink">
    <!-- Generator: Sketch 50.2 (55047) - http://www.bohemiancoding.com/sketch -->
    <title>nolayout_1</title>
    <desc>Created with Sketch.</desc>
    <defs></defs>
    <g id="nolayout_1" stroke="none" stroke-width="1" fill="none" fill-rule="evenodd">
        <path d="M631,358.5 C631,411.74783 617.879123,460.855577 591.63737,505.823242 C565.395616,550.790907 529.790907,586.395616 484.823242,612.63737 C439.855577,638.879123 390.74783,652 337.5,652 C284.25217,652 235.144423,638.879123 190.176758,612.63737 C145.209093,586.395616 109.604384,550.790907 83.3626302,505.823242 C57.1208767,460.855577 44,411.74783 44,358.5 C44,305.25217 57.1208767,256.144423 83.3626302,211.176758 C109.604384,166.209093 145.209093,130.604384 190.176758,104.36263 C235.144423,78.1208767 284.25217,65 337.5,65 C390.74783,65 439.855577,78.1208767 484.823242,104.36263 C529.790907,130.604384 565.395616,166.209093 591.63737,211.176758 C617.879123,256.144423 631,305.25217 631,358.5 Z M485.118343,283.822485 C485.118343,261.53501 478.006781,240.893768 463.783655,221.898761 C449.56053,202.903754 431.813657,188.214281 410.543037,177.830344 C389.272417,167.446407 367.489252,162.254438 345.193542,162.254438 C282.919318,162.254438 235.380764,189.227348 202.57788,243.173169 C198.733792,249.251572 199.758882,254.570174 205.65315,259.128976 L256.395111,297.11899 C258.189019,298.638591 260.623608,299.398391 263.698878,299.398391 C267.799239,299.398391 271.002645,297.878791 273.309098,294.839589 C286.891542,277.617449 297.911261,265.967178 306.368254,259.888776 C315.08152,253.810374 326.101239,250.771172 339.42741,250.771172 C351.728492,250.771172 362.684142,254.06364 372.294362,260.648576 C381.904582,267.233512 386.709692,274.704882 386.709692,283.062685 C386.709692,292.686822 384.146967,300.411458 379.021516,306.236594 C373.896066,312.06173 365.1828,317.760232 352.881718,323.332101 C336.736549,330.42357 321.93681,341.377358 308.482503,356.193463 C295.028195,371.009569 288.301041,386.902059 288.301041,403.870932 L288.301041,417.547337 C288.301041,421.093072 289.454267,424.00564 291.76072,426.285041 C294.067173,428.564442 297.014307,429.704142 300.602122,429.704142 L374.408611,429.704142 C377.996426,429.704142 380.94356,428.564442 383.250013,426.285041 C385.556466,424.00564 386.709692,421.093072 386.709692,417.547337 C386.709692,412.735269 389.464622,406.466916 394.974481,398.74228 C400.48434,391.017644 407.467767,384.749291 415.92476,379.937223 C424.125481,375.378421 430.404158,371.769369 434.760791,369.110068 C439.117424,366.450767 445.011692,362.018599 452.443596,355.813563 C459.875499,349.608527 465.577563,343.530125 469.549787,337.578356 C473.522011,331.626587 477.109827,323.965268 480.313233,314.594397 C483.51664,305.223527 485.118343,294.966223 485.118343,283.822485 Z M384.390533,542.588757 L384.390533,469.647929 C384.390533,466.102194 383.250832,463.189626 380.971431,460.910226 C378.69203,458.630825 375.779463,457.491124 372.233728,457.491124 L299.292899,457.491124 C295.747165,457.491124 292.834597,458.630825 290.555196,460.910226 C288.275795,463.189626 287.136095,466.102194 287.136095,469.647929 L287.136095,542.588757 C287.136095,546.134492 288.275795,549.04706 290.555196,551.326461 C292.834597,553.605862 295.747165,554.745562 299.292899,554.745562 L372.233728,554.745562 C375.779463,554.745562 378.69203,553.605862 380.971431,551.326461 C383.250832,549.04706 384.390533,546.134492 384.390533,542.588757 Z" id="Combined-Shape" fill="#FF0000"></path>
    </g>
</svg>