<?xml version="1.0" encoding="UTF-8"?>
<svg width="674px" height="715px" viewBox="0 0 674 715" version="1.1" xmlns="http://www.w3.org/2000/svg" xmlns:xlink="http://www.w3.org/1999/xlink">
    <!-- Generator: Sketch 50.2 (55047) - http://www.bohemiancoding.com/sketch -->
    <title>nolayout_3</title>
    <desc>Created with Sketch.</desc>
    <defs></defs>
    <g id="nolayout_3" stroke="none" stroke-width="1" fill="none" fill-rule="evenodd">
        <rect id="Rectangle" stroke="#FF0000" stroke-width="12" x="6" y="6" width="662" height="703"></rect>
        <path d="M165.328125,420 L158.460938,420 L141.609375,392.695312 L141.421875,392.695312 L141.539062,394.21875 C141.757814,397.125015 141.867188,399.781238 141.867188,402.1875 L141.867188,420 L136.78125,420 L136.78125,385.734375 L143.578125,385.734375 L160.382812,412.898438 L160.523438,412.898438 C160.492187,412.539061 160.429688,411.23048 160.335938,408.972656 C160.242187,406.714832 160.195312,404.953131 160.195312,403.6875 L160.195312,385.734375 L165.328125,385.734375 L165.328125,420 Z M196.78125,406.992188 C196.78125,411.226584 195.695323,414.531238 193.523438,416.90625 C191.351552,419.281262 188.328144,420.46875 184.453125,420.46875 C182.031238,420.46875 179.890634,419.92188 178.03125,418.828125 C176.171866,417.73437 174.742192,416.164073 173.742188,414.117188 C172.742183,412.070302 172.242188,409.695326 172.242188,406.992188 C172.242188,402.789041 173.320302,399.507824 175.476562,397.148438 C177.632823,394.789051 180.671855,393.609375 184.59375,393.609375 C188.343769,393.609375 191.312489,394.816394 193.5,397.230469 C195.687511,399.644543 196.78125,402.898417 196.78125,406.992188 Z M177.914062,406.992188 C177.914062,412.976592 180.124978,415.96875 184.546875,415.96875 C188.921897,415.96875 191.109375,412.976592 191.109375,406.992188 C191.109375,401.070283 188.906272,398.109375 184.5,398.109375 C182.187488,398.109375 180.511724,398.874992 179.472656,400.40625 C178.433589,401.937508 177.914062,404.132798 177.914062,406.992188 Z M237.421875,420 L231.890625,420 L231.890625,404.015625 C231.890625,402.03124 231.515629,400.550786 230.765625,399.574219 C230.015621,398.597651 228.843758,398.109375 227.25,398.109375 C225.124989,398.109375 223.566411,398.800774 222.574219,400.183594 C221.582026,401.566413 221.085938,403.867171 221.085938,407.085938 L221.085938,420 L215.578125,420 L215.578125,394.078125 L219.890625,394.078125 L220.664062,397.476562 L220.945312,397.476562 C221.664066,396.242181 222.707024,395.289066 224.074219,394.617188 C225.441413,393.945309 226.945304,393.609375 228.585938,393.609375 C232.570332,393.609375 235.210931,394.968736 236.507812,397.6875 L236.882812,397.6875 C237.648441,396.406244 238.726556,395.406254 240.117188,394.6875 C241.507819,393.968746 243.101554,393.609375 244.898438,393.609375 C247.992203,393.609375 250.246087,394.390617 251.660156,395.953125 C253.074226,397.515633 253.78125,399.898421 253.78125,403.101562 L253.78125,420 L248.273438,420 L248.273438,404.015625 C248.273438,402.03124 247.894535,400.550786 247.136719,399.574219 C246.378902,398.597651 245.203133,398.109375 243.609375,398.109375 C241.468739,398.109375 239.902349,398.777337 238.910156,400.113281 C237.917964,401.449225 237.421875,403.499986 237.421875,406.265625 L237.421875,420 Z M277.6875,420 L276.585938,416.390625 L276.398438,416.390625 C275.148431,417.968758 273.890631,419.042966 272.625,419.613281 C271.359369,420.183597 269.734385,420.46875 267.75,420.46875 C265.203112,420.46875 263.214851,419.781257 261.785156,418.40625 C260.355462,417.031243 259.640625,415.08595 259.640625,412.570312 C259.640625,409.898424 260.632803,407.882819 262.617188,406.523438 C264.601572,405.164056 267.62498,404.421876 271.6875,404.296875 L276.164062,404.15625 L276.164062,402.773438 C276.164062,401.117179 275.777348,399.87891 275.003906,399.058594 C274.230465,398.238277 273.031258,397.828125 271.40625,397.828125 C270.078118,397.828125 268.804694,398.023436 267.585938,398.414062 C266.367181,398.804689 265.195318,399.265622 264.070312,399.796875 L262.289062,395.859375 C263.69532,395.124996 265.234367,394.566408 266.90625,394.183594 C268.578133,393.800779 270.156243,393.609375 271.640625,393.609375 C274.937516,393.609375 277.425773,394.328118 279.105469,395.765625 C280.785165,397.203132 281.625,399.460922 281.625,402.539062 L281.625,420 L277.6875,420 Z M269.484375,416.25 C271.484385,416.25 273.089838,415.691412 274.300781,414.574219 C275.511725,413.457026 276.117188,411.890635 276.117188,409.875 L276.117188,407.625 L272.789062,407.765625 C270.1953,407.859375 268.3086,408.292965 267.128906,409.066406 C265.949213,409.839848 265.359375,411.02343 265.359375,412.617188 C265.359375,413.773443 265.703122,414.667966 266.390625,415.300781 C267.078128,415.933597 268.109368,416.25 269.484375,416.25 Z M298.96875,416.015625 C300.312507,416.015625 301.656243,415.80469 303,415.382812 L303,419.53125 C302.390622,419.796876 301.605474,420.01953 300.644531,420.199219 C299.683589,420.378907 298.687505,420.46875 297.65625,420.46875 C292.437474,420.46875 289.828125,417.718777 289.828125,412.21875 L289.828125,398.25 L286.289062,398.25 L286.289062,395.8125 L290.085938,393.796875 L291.960938,388.3125 L295.359375,388.3125 L295.359375,394.078125 L302.742188,394.078125 L302.742188,398.25 L295.359375,398.25 L295.359375,412.125 C295.359375,413.453132 295.691403,414.433591 296.355469,415.066406 C297.019535,415.699222 297.89062,416.015625 298.96875,416.015625 Z M318.632812,420.46875 C314.710918,420.46875 311.730479,419.32423 309.691406,417.035156 C307.652334,414.746082 306.632812,411.460959 306.632812,407.179688 C306.632812,402.820291 307.699208,399.468762 309.832031,397.125 C311.964854,394.781238 315.046855,393.609375 319.078125,393.609375 C321.812514,393.609375 324.273427,394.117182 326.460938,395.132812 L324.796875,399.5625 C322.468738,398.656245 320.546883,398.203125 319.03125,398.203125 C314.546853,398.203125 312.304688,401.179658 312.304688,407.132812 C312.304688,410.039077 312.863276,412.222649 313.980469,413.683594 C315.097662,415.144539 316.734364,415.875 318.890625,415.875 C321.343762,415.875 323.664052,415.265631 325.851562,414.046875 L325.851562,418.851562 C324.867183,419.42969 323.816412,419.843749 322.699219,420.09375 C321.582026,420.343751 320.22657,420.46875 318.632812,420.46875 Z M354.75,420 L349.21875,420 L349.21875,404.0625 C349.21875,402.06249 348.81641,400.570317 348.011719,399.585938 C347.207027,398.601558 345.929696,398.109375 344.179688,398.109375 C341.867176,398.109375 340.167974,398.800774 339.082031,400.183594 C337.996088,401.566413 337.453125,403.882796 337.453125,407.132812 L337.453125,420 L331.945312,420 L331.945312,383.53125 L337.453125,383.53125 L337.453125,392.789062 C337.453125,394.273445 337.359376,395.859367 337.171875,397.546875 L337.523438,397.546875 C338.273441,396.296869 339.3164,395.328128 340.652344,394.640625 C341.988288,393.953122 343.546866,393.609375 345.328125,393.609375 C351.609406,393.609375 354.75,396.773406 354.75,403.101562 L354.75,420 Z M367.921875,420 L362.414062,420 L362.414062,394.078125 L367.921875,394.078125 L367.921875,420 Z M362.085938,387.210938 C362.085938,386.226558 362.355466,385.468753 362.894531,384.9375 C363.433596,384.406247 364.20312,384.140625 365.203125,384.140625 C366.17188,384.140625 366.925779,384.406247 367.464844,384.9375 C368.003909,385.468753 368.273438,386.226558 368.273438,387.210938 C368.273438,388.148442 368.003909,388.886716 367.464844,389.425781 C366.925779,389.964846 366.17188,390.234375 365.203125,390.234375 C364.20312,390.234375 363.433596,389.964846 362.894531,389.425781 C362.355466,388.886716 362.085938,388.148442 362.085938,387.210938 Z M398.601562,420 L393.070312,420 L393.070312,404.0625 C393.070312,402.06249 392.667973,400.570317 391.863281,399.585938 C391.05859,398.601558 389.781259,398.109375 388.03125,398.109375 C385.703113,398.109375 384.000005,398.796868 382.921875,400.171875 C381.843745,401.546882 381.304688,403.851546 381.304688,407.085938 L381.304688,420 L375.796875,420 L375.796875,394.078125 L380.109375,394.078125 L380.882812,397.476562 L381.164062,397.476562 C381.945316,396.242181 383.05468,395.289066 384.492188,394.617188 C385.929695,393.945309 387.523429,393.609375 389.273438,393.609375 C395.492219,393.609375 398.601562,396.773406 398.601562,403.101562 L398.601562,420 Z M428.15625,394.078125 L428.15625,397.101562 L423.726562,397.921875 C424.132815,398.468753 424.468749,399.140621 424.734375,399.9375 C425.000001,400.734379 425.132812,401.578121 425.132812,402.46875 C425.132812,405.140638 424.210947,407.24218 422.367188,408.773438 C420.523428,410.304695 417.984391,411.070312 414.75,411.070312 C413.921871,411.070312 413.171878,411.007813 412.5,410.882812 C411.312494,411.617191 410.71875,412.476558 410.71875,413.460938 C410.71875,414.05469 410.996091,414.499999 411.550781,414.796875 C412.105472,415.093751 413.124993,415.242188 414.609375,415.242188 L419.132812,415.242188 C421.992202,415.242188 424.164055,415.851556 425.648438,417.070312 C427.13282,418.289069 427.875,420.046864 427.875,422.34375 C427.875,425.281265 426.664075,427.546867 424.242188,429.140625 C421.8203,430.734383 418.320335,431.53125 413.742188,431.53125 C410.21092,431.53125 407.515634,430.906256 405.65625,429.65625 C403.796866,428.406244 402.867188,426.625012 402.867188,424.3125 C402.867188,422.718742 403.371089,421.378912 404.378906,420.292969 C405.386724,419.207026 406.796866,418.453127 408.609375,418.03125 C407.874996,417.718748 407.269534,417.214847 406.792969,416.519531 C406.316404,415.824215 406.078125,415.093754 406.078125,414.328125 C406.078125,413.35937 406.35156,412.539066 406.898438,411.867188 C407.445315,411.195309 408.257807,410.531253 409.335938,409.875 C407.992181,409.296872 406.902348,408.355475 406.066406,407.050781 C405.230465,405.746087 404.8125,404.218759 404.8125,402.46875 C404.8125,399.656236 405.69921,397.47657 407.472656,395.929688 C409.246103,394.382805 411.773421,393.609375 415.054688,393.609375 C415.789066,393.609375 416.55859,393.660156 417.363281,393.761719 C418.167973,393.863282 418.773435,393.968749 419.179688,394.078125 L428.15625,394.078125 Z M407.789062,424.03125 C407.789062,425.218756 408.324213,426.132809 409.394531,426.773438 C410.464849,427.414066 411.96874,427.734375 413.90625,427.734375 C416.906265,427.734375 419.140618,427.304692 420.609375,426.445312 C422.078132,425.585933 422.8125,424.44532 422.8125,423.023438 C422.8125,421.898432 422.41016,421.097659 421.605469,420.621094 C420.800777,420.144529 419.304698,419.90625 417.117188,419.90625 L412.945312,419.90625 C411.36718,419.90625 410.113286,420.27734 409.183594,421.019531 C408.253902,421.761722 407.789062,422.765619 407.789062,424.03125 Z M410.15625,402.46875 C410.15625,404.093758 410.574215,405.343746 411.410156,406.21875 C412.246098,407.093754 413.445305,407.53125 415.007812,407.53125 C418.195328,407.53125 419.789062,405.828142 419.789062,402.421875 C419.789062,400.734367 419.394535,399.433598 418.605469,398.519531 C417.816402,397.605464 416.617196,397.148438 415.007812,397.148438 C413.414055,397.148438 412.207035,397.601558 411.386719,398.507812 C410.566402,399.414067 410.15625,400.734366 410.15625,402.46875 Z M455.882812,420.46875 C451.960918,420.46875 448.980479,419.32423 446.941406,417.035156 C444.902334,414.746082 443.882812,411.460959 443.882812,407.179688 C443.882812,402.820291 444.949208,399.468762 447.082031,397.125 C449.214854,394.781238 452.296855,393.609375 456.328125,393.609375 C459.062514,393.609375 461.523427,394.117182 463.710938,395.132812 L462.046875,399.5625 C459.718738,398.656245 457.796883,398.203125 456.28125,398.203125 C451.796853,398.203125 449.554688,401.179658 449.554688,407.132812 C449.554688,410.039077 450.113276,412.222649 451.230469,413.683594 C452.347662,415.144539 453.984364,415.875 456.140625,415.875 C458.593762,415.875 460.914052,415.265631 463.101562,414.046875 L463.101562,418.851562 C462.117183,419.42969 461.066412,419.843749 459.949219,420.09375 C458.832026,420.343751 457.47657,420.46875 455.882812,420.46875 Z M485.414062,420 L484.3125,416.390625 L484.125,416.390625 C482.874994,417.968758 481.617194,419.042966 480.351562,419.613281 C479.085931,420.183597 477.460947,420.46875 475.476562,420.46875 C472.929675,420.46875 470.941413,419.781257 469.511719,418.40625 C468.082024,417.031243 467.367188,415.08595 467.367188,412.570312 C467.367188,409.898424 468.359365,407.882819 470.34375,406.523438 C472.328135,405.164056 475.351542,404.421876 479.414062,404.296875 L483.890625,404.15625 L483.890625,402.773438 C483.890625,401.117179 483.50391,399.87891 482.730469,399.058594 C481.957027,398.238277 480.757821,397.828125 479.132812,397.828125 C477.804681,397.828125 476.531256,398.023436 475.3125,398.414062 C474.093744,398.804689 472.921881,399.265622 471.796875,399.796875 L470.015625,395.859375 C471.421882,395.124996 472.960929,394.566408 474.632812,394.183594 C476.304696,393.800779 477.882805,393.609375 479.367188,393.609375 C482.664079,393.609375 485.152335,394.328118 486.832031,395.765625 C488.511727,397.203132 489.351562,399.460922 489.351562,402.539062 L489.351562,420 L485.414062,420 Z M477.210938,416.25 C479.210947,416.25 480.8164,415.691412 482.027344,414.574219 C483.238287,413.457026 483.84375,411.890635 483.84375,409.875 L483.84375,407.625 L480.515625,407.765625 C477.921862,407.859375 476.035162,408.292965 474.855469,409.066406 C473.675775,409.839848 473.085938,411.02343 473.085938,412.617188 C473.085938,413.773443 473.429684,414.667966 474.117188,415.300781 C474.804691,415.933597 475.835931,416.25 477.210938,416.25 Z M510.1875,393.609375 C511.296881,393.609375 512.210934,393.687499 512.929688,393.84375 L512.390625,398.976562 C511.609371,398.789062 510.796879,398.695312 509.953125,398.695312 C507.749989,398.695312 505.964851,399.414055 504.597656,400.851562 C503.230462,402.28907 502.546875,404.156239 502.546875,406.453125 L502.546875,420 L497.039062,420 L497.039062,394.078125 L501.351562,394.078125 L502.078125,398.648438 L502.359375,398.648438 C503.218754,397.101555 504.339837,395.875005 505.722656,394.96875 C507.105476,394.062495 508.593742,393.609375 510.1875,393.609375 Z M525.515625,420.46875 C522.281234,420.46875 519.757822,419.296887 517.945312,416.953125 C516.132803,414.609363 515.226562,411.320334 515.226562,407.085938 C515.226562,402.835916 516.144522,399.527356 517.980469,397.160156 C519.816415,394.792957 522.359359,393.609375 525.609375,393.609375 C529.015642,393.609375 531.609366,394.867175 533.390625,397.382812 L533.671875,397.382812 C533.406249,395.523428 533.273438,394.054693 533.273438,392.976562 L533.273438,383.53125 L538.804688,383.53125 L538.804688,420 L534.492188,420 L533.53125,416.601562 L533.273438,416.601562 C531.507804,419.1797 528.921892,420.46875 525.515625,420.46875 Z M526.992188,416.015625 C529.257824,416.015625 530.906245,415.378913 531.9375,414.105469 C532.968755,412.832025 533.5,410.765639 533.53125,407.90625 L533.53125,407.132812 C533.53125,403.867171 533.000005,401.546882 531.9375,400.171875 C530.874995,398.796868 529.210949,398.109375 526.945312,398.109375 C525.007803,398.109375 523.51563,398.894523 522.46875,400.464844 C521.42187,402.035164 520.898438,404.273423 520.898438,407.179688 C520.898438,410.054702 521.406245,412.246086 522.421875,413.753906 C523.437505,415.261726 524.960927,416.015625 526.992188,416.015625 Z M157.839844,485 L152.332031,485 L152.332031,448.53125 L157.839844,448.53125 L157.839844,485 Z M181.933594,485 L180.832031,481.390625 L180.644531,481.390625 C179.394525,482.968758 178.136725,484.042966 176.871094,484.613281 C175.605462,485.183597 173.980479,485.46875 171.996094,485.46875 C169.449206,485.46875 167.460945,484.781257 166.03125,483.40625 C164.601555,482.031243 163.886719,480.08595 163.886719,477.570312 C163.886719,474.898424 164.878896,472.882819 166.863281,471.523438 C168.847666,470.164056 171.871073,469.421876 175.933594,469.296875 L180.410156,469.15625 L180.410156,467.773438 C180.410156,466.117179 180.023441,464.87891 179.25,464.058594 C178.476559,463.238277 177.277352,462.828125 175.652344,462.828125 C174.324212,462.828125 173.050787,463.023436 171.832031,463.414062 C170.613275,463.804689 169.441412,464.265622 168.316406,464.796875 L166.535156,460.859375 C167.941413,460.124996 169.48046,459.566408 171.152344,459.183594 C172.824227,458.800779 174.402336,458.609375 175.886719,458.609375 C179.18361,458.609375 181.671867,459.328118 183.351562,460.765625 C185.031258,462.203132 185.871094,464.460922 185.871094,467.539062 L185.871094,485 L181.933594,485 Z M173.730469,481.25 C175.730479,481.25 177.335931,480.691412 178.546875,479.574219 C179.757819,478.457026 180.363281,476.890635 180.363281,474.875 L180.363281,472.625 L177.035156,472.765625 C174.441393,472.859375 172.554693,473.292965 171.375,474.066406 C170.195307,474.839848 169.605469,476.02343 169.605469,477.617188 C169.605469,478.773443 169.949215,479.667966 170.636719,480.300781 C171.324222,480.933597 172.355462,481.25 173.730469,481.25 Z M189.621094,459.078125 L195.621094,459.078125 L200.894531,473.773438 C201.69141,475.867198 202.222655,477.835928 202.488281,479.679688 L202.675781,479.679688 C202.816407,478.820308 203.074217,477.77735 203.449219,476.550781 C203.824221,475.324213 205.808576,469.500052 209.402344,459.078125 L215.355469,459.078125 L204.269531,488.445312 C202.253896,493.835964 198.894555,496.53125 194.191406,496.53125 C192.97265,496.53125 191.785162,496.398439 190.628906,496.132812 L190.628906,491.773438 C191.457035,491.960938 192.402338,492.054688 193.464844,492.054688 C196.121107,492.054688 197.988276,490.51564 199.066406,487.4375 L200.027344,485 L189.621094,459.078125 Z M242.285156,471.992188 C242.285156,476.226584 241.19923,479.531238 239.027344,481.90625 C236.855458,484.281262 233.832051,485.46875 229.957031,485.46875 C227.535144,485.46875 225.394541,484.92188 223.535156,483.828125 C221.675772,482.73437 220.246099,481.164073 219.246094,479.117188 C218.246089,477.070302 217.746094,474.695326 217.746094,471.992188 C217.746094,467.789041 218.824208,464.507824 220.980469,462.148438 C223.13673,459.789051 226.175762,458.609375 230.097656,458.609375 C233.847675,458.609375 236.816395,459.816394 239.003906,462.230469 C241.191417,464.644543 242.285156,467.898417 242.285156,471.992188 Z M223.417969,471.992188 C223.417969,477.976592 225.628884,480.96875 230.050781,480.96875 C234.425803,480.96875 236.613281,477.976592 236.613281,471.992188 C236.613281,466.070283 234.410178,463.109375 230.003906,463.109375 C227.691395,463.109375 226.01563,463.874992 224.976562,465.40625 C223.937495,466.937508 223.417969,469.132798 223.417969,471.992188 Z M266.894531,485 L266.121094,481.601562 L265.839844,481.601562 C265.074215,482.804694 263.984382,483.749997 262.570312,484.4375 C261.156243,485.125003 259.542978,485.46875 257.730469,485.46875 C254.589828,485.46875 252.246101,484.687508 250.699219,483.125 C249.152336,481.562492 248.378906,479.195328 248.378906,476.023438 L248.378906,459.078125 L253.933594,459.078125 L253.933594,475.0625 C253.933594,477.046885 254.33984,478.535151 255.152344,479.527344 C255.964848,480.519536 257.238273,481.015625 258.972656,481.015625 C261.285168,481.015625 262.98437,480.324226 264.070312,478.941406 C265.156255,477.558587 265.699219,475.242204 265.699219,471.992188 L265.699219,459.078125 L271.230469,459.078125 L271.230469,485 L266.894531,485 Z M288.738281,481.015625 C290.082038,481.015625 291.425775,480.80469 292.769531,480.382812 L292.769531,484.53125 C292.160153,484.796876 291.375005,485.01953 290.414062,485.199219 C289.45312,485.378907 288.457036,485.46875 287.425781,485.46875 C282.207005,485.46875 279.597656,482.718777 279.597656,477.21875 L279.597656,463.25 L276.058594,463.25 L276.058594,460.8125 L279.855469,458.796875 L281.730469,453.3125 L285.128906,453.3125 L285.128906,459.078125 L292.511719,459.078125 L292.511719,463.25 L285.128906,463.25 L285.128906,477.125 C285.128906,478.453132 285.460934,479.433591 286.125,480.066406 C286.789066,480.699222 287.660151,481.015625 288.738281,481.015625 Z M326.636719,485 L325.535156,481.390625 L325.347656,481.390625 C324.09765,482.968758 322.83985,484.042966 321.574219,484.613281 C320.308587,485.183597 318.683604,485.46875 316.699219,485.46875 C314.152331,485.46875 312.16407,484.781257 310.734375,483.40625 C309.30468,482.031243 308.589844,480.08595 308.589844,477.570312 C308.589844,474.898424 309.582021,472.882819 311.566406,471.523438 C313.550791,470.164056 316.574198,469.421876 320.636719,469.296875 L325.113281,469.15625 L325.113281,467.773438 C325.113281,466.117179 324.726566,464.87891 323.953125,464.058594 C323.179684,463.238277 321.980477,462.828125 320.355469,462.828125 C319.027337,462.828125 317.753912,463.023436 316.535156,463.414062 C315.3164,463.804689 314.144537,464.265622 313.019531,464.796875 L311.238281,460.859375 C312.644538,460.124996 314.183585,459.566408 315.855469,459.183594 C317.527352,458.800779 319.105461,458.609375 320.589844,458.609375 C323.886735,458.609375 326.374992,459.328118 328.054688,460.765625 C329.734383,462.203132 330.574219,464.460922 330.574219,467.539062 L330.574219,485 L326.636719,485 Z M318.433594,481.25 C320.433604,481.25 322.039056,480.691412 323.25,479.574219 C324.460944,478.457026 325.066406,476.890635 325.066406,474.875 L325.066406,472.625 L321.738281,472.765625 C319.144518,472.859375 317.257818,473.292965 316.078125,474.066406 C314.898432,474.839848 314.308594,476.02343 314.308594,477.617188 C314.308594,478.773443 314.65234,479.667966 315.339844,480.300781 C316.027347,480.933597 317.058587,481.25 318.433594,481.25 Z M344.167969,485 L334.324219,459.078125 L340.136719,459.078125 L345.410156,474.148438 C346.316411,476.6797 346.86328,478.726555 347.050781,480.289062 L347.238281,480.289062 C347.378907,479.164057 347.925776,477.117202 348.878906,474.148438 L354.152344,459.078125 L360.011719,459.078125 L350.121094,485 L344.167969,485 Z M380.167969,485 L379.066406,481.390625 L378.878906,481.390625 C377.6289,482.968758 376.3711,484.042966 375.105469,484.613281 C373.839837,485.183597 372.214854,485.46875 370.230469,485.46875 C367.683581,485.46875 365.69532,484.781257 364.265625,483.40625 C362.83593,482.031243 362.121094,480.08595 362.121094,477.570312 C362.121094,474.898424 363.113271,472.882819 365.097656,471.523438 C367.082041,470.164056 370.105448,469.421876 374.167969,469.296875 L378.644531,469.15625 L378.644531,467.773438 C378.644531,466.117179 378.257816,464.87891 377.484375,464.058594 C376.710934,463.238277 375.511727,462.828125 373.886719,462.828125 C372.558587,462.828125 371.285162,463.023436 370.066406,463.414062 C368.84765,463.804689 367.675787,464.265622 366.550781,464.796875 L364.769531,460.859375 C366.175788,460.124996 367.714835,459.566408 369.386719,459.183594 C371.058602,458.800779 372.636711,458.609375 374.121094,458.609375 C377.417985,458.609375 379.906242,459.328118 381.585938,460.765625 C383.265633,462.203132 384.105469,464.460922 384.105469,467.539062 L384.105469,485 L380.167969,485 Z M371.964844,481.25 C373.964854,481.25 375.570306,480.691412 376.78125,479.574219 C377.992194,478.457026 378.597656,476.890635 378.597656,474.875 L378.597656,472.625 L375.269531,472.765625 C372.675768,472.859375 370.789068,473.292965 369.609375,474.066406 C368.429682,474.839848 367.839844,476.02343 367.839844,477.617188 C367.839844,478.773443 368.18359,479.667966 368.871094,480.300781 C369.558597,480.933597 370.589837,481.25 371.964844,481.25 Z M397.300781,485 L391.792969,485 L391.792969,459.078125 L397.300781,459.078125 L397.300781,485 Z M391.464844,452.210938 C391.464844,451.226558 391.734372,450.468753 392.273438,449.9375 C392.812503,449.406247 393.582026,449.140625 394.582031,449.140625 C395.550786,449.140625 396.304685,449.406247 396.84375,449.9375 C397.382815,450.468753 397.652344,451.226558 397.652344,452.210938 C397.652344,453.148442 397.382815,453.886716 396.84375,454.425781 C396.304685,454.964846 395.550786,455.234375 394.582031,455.234375 C393.582026,455.234375 392.812503,454.964846 392.273438,454.425781 C391.734372,453.886716 391.464844,453.148442 391.464844,452.210938 Z M410.683594,485 L405.175781,485 L405.175781,448.53125 L410.683594,448.53125 L410.683594,485 Z M434.777344,485 L433.675781,481.390625 L433.488281,481.390625 C432.238275,482.968758 430.980475,484.042966 429.714844,484.613281 C428.449212,485.183597 426.824229,485.46875 424.839844,485.46875 C422.292956,485.46875 420.304695,484.781257 418.875,483.40625 C417.445305,482.031243 416.730469,480.08595 416.730469,477.570312 C416.730469,474.898424 417.722646,472.882819 419.707031,471.523438 C421.691416,470.164056 424.714823,469.421876 428.777344,469.296875 L433.253906,469.15625 L433.253906,467.773438 C433.253906,466.117179 432.867191,464.87891 432.09375,464.058594 C431.320309,463.238277 430.121102,462.828125 428.496094,462.828125 C427.167962,462.828125 425.894537,463.023436 424.675781,463.414062 C423.457025,463.804689 422.285162,464.265622 421.160156,464.796875 L419.378906,460.859375 C420.785163,460.124996 422.32421,459.566408 423.996094,459.183594 C425.667977,458.800779 427.246086,458.609375 428.730469,458.609375 C432.02736,458.609375 434.515617,459.328118 436.195312,460.765625 C437.875008,462.203132 438.714844,464.460922 438.714844,467.539062 L438.714844,485 L434.777344,485 Z M426.574219,481.25 C428.574229,481.25 430.179681,480.691412 431.390625,479.574219 C432.601569,478.457026 433.207031,476.890635 433.207031,474.875 L433.207031,472.625 L429.878906,472.765625 C427.285143,472.859375 425.398443,473.292965 424.21875,474.066406 C423.039057,474.839848 422.449219,476.02343 422.449219,477.617188 C422.449219,478.773443 422.792965,479.667966 423.480469,480.300781 C424.167972,480.933597 425.199212,481.25 426.574219,481.25 Z M459.644531,458.609375 C462.878922,458.609375 465.398428,459.781238 467.203125,462.125 C469.007822,464.468762 469.910156,467.757791 469.910156,471.992188 C469.910156,476.242209 468.996103,479.550769 467.167969,481.917969 C465.339835,484.285168 462.800797,485.46875 459.550781,485.46875 C456.269515,485.46875 453.722665,484.289074 451.910156,481.929688 L451.535156,481.929688 L450.527344,485 L446.402344,485 L446.402344,448.53125 L451.910156,448.53125 L451.910156,457.203125 C451.910156,457.843753 451.878907,458.796869 451.816406,460.0625 C451.753906,461.328131 451.707031,462.132811 451.675781,462.476562 L451.910156,462.476562 C453.660165,459.898425 456.238264,458.609375 459.644531,458.609375 Z M458.214844,463.109375 C455.996083,463.109375 454.398442,463.761712 453.421875,465.066406 C452.445308,466.3711 451.941406,468.554672 451.910156,471.617188 L451.910156,471.992188 C451.910156,475.148453 452.410151,477.433587 453.410156,478.847656 C454.410161,480.261726 456.042957,480.96875 458.308594,480.96875 C460.261729,480.96875 461.742182,480.19532 462.75,478.648438 C463.757818,477.101555 464.261719,474.867202 464.261719,471.945312 C464.261719,466.054658 462.246114,463.109375 458.214844,463.109375 Z M481.816406,485 L476.308594,485 L476.308594,448.53125 L481.816406,448.53125 L481.816406,485 Z M501.011719,485.46875 C496.980449,485.46875 493.828136,484.292981 491.554688,481.941406 C489.281239,479.589832 488.144531,476.351583 488.144531,472.226562 C488.144531,467.992166 489.199208,464.664075 491.308594,462.242188 C493.417979,459.8203 496.316388,458.609375 500.003906,458.609375 C503.425798,458.609375 506.128896,459.648427 508.113281,461.726562 C510.097666,463.804698 511.089844,466.664044 511.089844,470.304688 L511.089844,473.28125 L493.816406,473.28125 C493.894532,475.796888 494.574212,477.730462 495.855469,479.082031 C497.136725,480.433601 498.941395,481.109375 501.269531,481.109375 C502.800789,481.109375 504.226556,480.964845 505.546875,480.675781 C506.867194,480.386717 508.285149,479.906253 509.800781,479.234375 L509.800781,483.710938 C508.457025,484.351566 507.097663,484.804686 505.722656,485.070312 C504.347649,485.335939 502.777353,485.46875 501.011719,485.46875 Z M500.003906,462.78125 C498.253897,462.78125 496.851568,463.335932 495.796875,464.445312 C494.742182,465.554693 494.113282,467.171864 493.910156,469.296875 L505.675781,469.296875 C505.644531,467.156239 505.128911,465.535162 504.128906,464.433594 C503.128901,463.332026 501.753915,462.78125 500.003906,462.78125 Z M516.527344,482.070312 C516.527344,480.929682 516.824216,480.054691 517.417969,479.445312 C518.011722,478.835934 518.871088,478.53125 519.996094,478.53125 C521.136724,478.53125 522.003903,478.847653 522.597656,479.480469 C523.191409,480.113284 523.488281,480.976557 523.488281,482.070312 C523.488281,483.179693 523.187503,484.058591 522.585938,484.707031 C521.984372,485.355472 521.121099,485.679688 519.996094,485.679688 C518.871088,485.679688 518.011722,485.359378 517.417969,484.71875 C516.824216,484.078122 516.527344,483.195318 516.527344,482.070312 Z" id="No-matching-card-lay" fill="#FF0000"></path>
        <path d="M408,246 C408,258.881076 404.825955,270.760634 398.477865,281.638672 C392.129774,292.51671 383.51671,301.129774 372.638672,307.477865 C361.760634,313.825955 349.881076,317 337,317 C324.118924,317 312.239366,313.825955 301.361328,307.477865 C290.48329,301.129774 281.870226,292.51671 275.522135,281.638672 C269.174045,270.760634 266,258.881076 266,246 C266,233.118924 269.174045,221.239366 275.522135,210.361328 C281.870226,199.48329 290.48329,190.870226 301.361328,184.522135 C312.239366,178.174045 324.118924,175 337,175 C349.881076,175 361.760634,178.174045 372.638672,184.522135 C383.51671,190.870226 392.129774,199.48329 398.477865,210.361328 C404.825955,221.239366 408,233.118924 408,246 Z M373,228.545455 C373,223.128788 371.277144,218.112216 367.831433,213.495739 C364.385722,208.879261 360.086343,205.309186 354.933298,202.785511 C349.780252,200.261837 344.503037,199 339.101652,199 C324.015024,199 312.498277,205.555398 304.551412,218.666193 C303.620139,220.143466 303.868478,221.43608 305.29643,222.544034 L317.589238,231.776989 C318.023832,232.146307 318.613639,232.330966 319.358657,232.330966 C320.352016,232.330966 321.128077,231.961648 321.686841,231.223011 C324.97734,227.037405 327.64699,224.205966 329.695791,222.728693 C331.806677,221.25142 334.476327,220.512784 337.704742,220.512784 C340.684816,220.512784 343.338945,221.312973 345.667128,222.913352 C347.995312,224.513731 349.159403,226.329545 349.159403,228.360795 C349.159403,230.699811 348.538554,232.577178 347.296857,233.992898 C346.055159,235.408617 343.944273,236.793561 340.964198,238.147727 C337.05285,239.871212 333.467448,242.533381 330.207991,246.134233 C326.948535,249.735085 325.318807,253.597538 325.318807,257.721591 L325.318807,261.045455 C325.318807,261.907197 325.598189,262.615057 326.156953,263.169034 C326.715717,263.723011 327.429693,264 328.298881,264 L346.179329,264 C347.048517,264 347.762493,263.723011 348.321257,263.169034 C348.880021,262.615057 349.159403,261.907197 349.159403,261.045455 C349.159403,259.875947 349.826816,258.352509 351.161641,256.475142 C352.496466,254.597775 354.188279,253.074337 356.23708,251.90483 C358.223797,250.796875 359.744877,249.919744 360.80032,249.273438 C361.855763,248.627131 363.283715,247.549953 365.084177,246.041903 C366.884639,244.533854 368.266027,243.056581 369.228343,241.610085 C370.190659,240.163589 371.059847,238.30161 371.835908,236.024148 C372.611969,233.746686 373,231.253788 373,228.545455 Z M349,291 L349,273 C349,272.125 348.71875,271.40625 348.15625,270.84375 C347.59375,270.28125 346.875,270 346,270 L328,270 C327.125,270 326.40625,270.28125 325.84375,270.84375 C325.28125,271.40625 325,272.125 325,273 L325,291 C325,291.875 325.28125,292.59375 325.84375,293.15625 C326.40625,293.71875 327.125,294 328,294 L346,294 C346.875,294 347.59375,293.71875 348.15625,293.15625 C348.71875,292.59375 349,291.875 349,291 Z" id="Combined-Shape-Copy" fill="#FF0000"></path>
    </g>
</svg>