<?xml version="1.0" encoding="UTF-8"?>
<svg width="520px" height="550px" viewBox="0 0 520 550" version="1.1" xmlns="http://www.w3.org/2000/svg" xmlns:xlink="http://www.w3.org/1999/xlink">
    <!-- Generator: Sketch 52.6 (67491) - http://www.bohemiancoding.com/sketch -->
    <title>nolayout</title>
    <desc>Created with Sketch.</desc>
    <g id="nolayout" stroke="none" stroke-width="1" fill="none" fill-rule="evenodd">
        <g id="nolayout_3">
            <rect id="Rectangle" stroke="#FF0000" stroke-width="12" x="6" y="6" width="508" height="538"></rect>
            <path d="M124.821975,215.0561 L119.419091,215.0561 L106.160819,193.851448 L106.0133,193.851448 L106.105499,195.03454 C106.277606,197.291528 106.363658,199.354334 106.363658,201.223022 L106.363658,215.0561 L102.362205,215.0561 L102.362205,188.445627 L107.709769,188.445627 L120.931161,209.541071 L121.041801,209.541071 C121.017213,209.261981 120.968041,208.245745 120.894282,206.492333 C120.820521,204.73892 120.783642,203.370794 120.783642,202.387913 L120.783642,188.445627 L124.821975,188.445627 L124.821975,215.0561 Z M149.56829,204.954313 C149.56829,208.242719 148.713917,210.809093 147.005148,212.653513 C145.296377,214.497932 142.917656,215.420128 139.868915,215.420128 C137.963451,215.420128 136.279292,214.995432 134.816388,214.146029 C133.353484,213.296626 132.228663,212.077143 131.441891,210.487544 C130.655119,208.897945 130.261739,207.053554 130.261739,204.954313 C130.261739,201.690175 131.109965,199.142003 132.806441,197.309718 C134.502919,195.477433 136.893932,194.561304 139.979554,194.561304 C142.929949,194.561304 145.265643,195.498667 146.986707,197.373423 C148.707771,199.248178 149.56829,201.775116 149.56829,204.954313 Z M134.724189,204.954313 C134.724189,209.601765 136.463667,211.925456 139.942674,211.925456 C143.384802,211.925456 145.10584,209.601765 145.10584,204.954313 C145.10584,200.355399 143.372509,198.055976 139.905795,198.055976 C138.086384,198.055976 136.767946,198.650549 135.950441,199.839715 C135.132936,201.02888 134.724189,202.733729 134.724189,204.954313 Z M181.543037,215.0561 L177.191226,215.0561 L177.191226,202.642733 C177.191226,201.101672 176.896191,199.95196 176.306112,199.193565 C175.716033,198.435168 174.794048,198.055976 173.54013,198.055976 C171.86824,198.055976 170.642,198.592912 169.861375,199.666801 C169.080749,200.74069 168.690443,202.527445 168.690443,205.027119 L168.690443,215.0561 L164.357072,215.0561 L164.357072,194.925332 L167.750009,194.925332 L168.358525,197.564537 L168.579803,197.564537 C169.145296,196.605924 169.965862,195.865741 171.041527,195.343965 C172.117192,194.822188 173.300405,194.561304 174.591204,194.561304 C177.725998,194.561304 179.803537,195.616975 180.823881,197.72835 L181.11892,197.72835 C181.721292,196.733335 182.569518,195.956749 183.663623,195.398569 C184.757727,194.840389 186.011627,194.561304 187.425358,194.561304 C189.859434,194.561304 191.632718,195.168011 192.745262,196.381445 C193.857807,197.594879 194.414071,199.445338 194.414071,201.932877 L194.414071,215.0561 L190.080701,215.0561 L190.080701,202.642733 C190.080701,201.101672 189.782592,199.95196 189.186366,199.193565 C188.59014,198.435168 187.665083,198.055976 186.411165,198.055976 C184.726981,198.055976 183.494595,198.574711 182.713969,199.612197 C181.933344,200.649683 181.543037,202.242291 181.543037,204.390069 L181.543037,215.0561 Z M213.222746,215.0561 L212.356072,212.253082 L212.208553,212.253082 C211.225087,213.47865 210.235491,214.312873 209.239733,214.755776 C208.243974,215.19868 206.965489,215.420128 205.404238,215.420128 C203.400428,215.420128 201.836128,214.886225 200.711289,213.818403 C199.586452,212.750582 199.024041,211.239879 199.024041,209.28625 C199.024041,207.211278 199.804655,205.645972 201.365905,204.590285 C202.927155,203.534597 205.305876,202.958225 208.502137,202.86115 L212.024154,202.751941 L212.024154,201.678058 C212.024154,200.391818 211.719899,199.430186 211.11138,198.793133 C210.502861,198.15608 209.559363,197.837559 208.280859,197.837559 C207.235927,197.837559 206.234038,197.989236 205.275159,198.292594 C204.31628,198.595952 203.394296,198.95391 202.509177,199.366478 L201.107746,196.30864 C202.214145,195.738325 203.425018,195.304529 204.740402,195.007238 C206.055787,194.709947 207.297393,194.561304 208.465258,194.561304 C211.059146,194.561304 213.016828,195.119475 214.338359,196.235834 C215.65989,197.352193 216.320645,199.105579 216.320645,201.496043 L216.320645,215.0561 L213.222746,215.0561 Z M206.768789,212.143873 C208.342333,212.143873 209.605452,211.710077 210.558184,210.842472 C211.510916,209.974867 211.987275,208.758417 211.987275,207.193087 L211.987275,205.445751 L209.368811,205.55496 C207.328122,205.627765 205.843727,205.964489 204.915581,206.565138 C203.987436,207.165789 203.523371,208.084951 203.523371,209.322654 C203.523371,210.220594 203.79382,210.915275 204.334725,211.406715 C204.875631,211.898156 205.686977,212.143873 206.768789,212.143873 Z M229.966154,211.961859 C231.02338,211.961859 232.080588,211.798048 233.137813,211.47042 L233.137813,214.692072 C232.658374,214.898355 232.040645,215.071267 231.284605,215.210812 C230.528567,215.350357 229.74488,215.420128 228.933521,215.420128 C224.827555,215.420128 222.774602,213.284516 222.774602,209.013229 L222.774602,198.165184 L219.99018,198.165184 L219.99018,196.272237 L222.977441,194.706915 L224.452632,190.447783 L227.126413,190.447783 L227.126413,194.925332 L232.934975,194.925332 L232.934975,198.165184 L227.126413,198.165184 L227.126413,208.940424 C227.126413,209.971843 227.387642,210.733261 227.910108,211.224701 C228.432574,211.716142 229.117916,211.961859 229.966154,211.961859 Z M245.437211,215.420128 C242.35159,215.420128 240.006676,214.531301 238.402398,212.75362 C236.798121,210.97594 235.995994,208.424733 235.995994,205.099925 C235.995994,201.714444 236.835,199.111667 238.513037,197.291516 C240.191074,195.471365 242.615894,194.561304 245.787569,194.561304 C247.938899,194.561304 249.875067,194.955663 251.596131,195.744395 L250.286899,199.184464 C248.455195,198.480672 246.943141,198.128781 245.750689,198.128781 C242.222509,198.128781 240.458445,200.440339 240.458445,205.063521 C240.458445,207.320509 240.897924,209.016257 241.776896,210.150818 C242.655868,211.285379 243.943573,211.85265 245.64005,211.85265 C247.5701,211.85265 249.39563,211.379418 251.116693,210.43294 L251.116693,214.16423 C250.342215,214.613201 249.515502,214.934756 248.63653,215.128906 C247.757558,215.323055 246.691129,215.420128 245.437211,215.420128 Z M273.853062,215.0561 L269.501251,215.0561 L269.501251,202.679136 C269.501251,201.12594 269.184703,199.967128 268.551597,199.202665 C267.918491,198.438202 266.913528,198.055976 265.536678,198.055976 C263.717267,198.055976 262.380389,198.592912 261.526004,199.666801 C260.671619,200.74069 260.244433,202.539579 260.244433,205.063521 L260.244433,215.0561 L255.911061,215.0561 L255.911061,186.734694 L260.244433,186.734694 L260.244433,193.924253 C260.244433,195.077016 260.170674,196.308633 260.023154,197.619142 L260.299753,197.619142 C260.889831,196.648395 261.710398,195.896076 262.761476,195.362166 C263.812554,194.828255 265.038794,194.561304 266.440231,194.561304 C271.382143,194.561304 273.853062,197.01847 273.853062,201.932877 L273.853062,215.0561 Z M284.216273,215.0561 L279.882901,215.0561 L279.882901,194.925332 L284.216273,194.925332 L284.216273,215.0561 Z M279.624744,189.592317 C279.624744,188.827853 279.8368,188.239347 280.260919,187.826779 C280.685038,187.414211 281.290475,187.207931 282.077247,187.207931 C282.839433,187.207931 283.432576,187.414211 283.856695,187.826779 C284.280815,188.239347 284.492871,188.827853 284.492871,189.592317 C284.492871,190.320377 284.280815,190.893716 283.856695,191.31235 C283.432576,191.730985 282.839433,191.940299 282.077247,191.940299 C281.290475,191.940299 280.685038,191.730985 280.260919,191.31235 C279.8368,190.893716 279.624744,190.320377 279.624744,189.592317 Z M308.354072,215.0561 L304.002261,215.0561 L304.002261,202.679136 C304.002261,201.12594 303.685713,199.967128 303.052607,199.202665 C302.419502,198.438202 301.414539,198.055976 300.037687,198.055976 C298.205984,198.055976 296.866032,198.589879 296.017794,199.6577 C295.169556,200.725522 294.745443,202.51531 294.745443,205.027119 L294.745443,215.0561 L290.412072,215.0561 L290.412072,194.925332 L293.805009,194.925332 L294.413525,197.564537 L294.634803,197.564537 C295.249469,196.605924 296.122281,195.865741 297.253266,195.343965 C298.384251,194.822188 299.63815,194.561304 301.015001,194.561304 C305.90774,194.561304 308.354072,197.01847 308.354072,201.932877 L308.354072,215.0561 Z M331.606757,194.925332 L331.606757,197.273314 L328.12162,197.910364 C328.441247,198.335066 328.705549,198.856835 328.914535,199.475686 C329.123521,200.094538 329.228013,200.749782 329.228013,201.441439 C329.228013,203.516411 328.502719,205.148456 327.052108,206.337621 C325.601496,207.526786 323.603863,208.121359 321.059147,208.121359 C320.407602,208.121359 319.817531,208.072823 319.288919,207.975748 C318.354627,208.546062 317.887488,209.213441 317.887488,209.977905 C317.887488,210.439009 318.105692,210.784833 318.542104,211.015385 C318.978517,211.245937 319.780644,211.361212 320.948508,211.361212 L324.507404,211.361212 C326.757081,211.361212 328.465825,211.834444 329.633691,212.780922 C330.801555,213.727401 331.385479,215.092494 331.385479,216.876242 C331.385479,219.157498 330.432761,220.91695 328.527298,222.154653 C326.621834,223.392355 323.868173,224.011197 320.266233,224.011197 C317.487944,224.011197 315.367379,223.525831 313.904475,222.555084 C312.441571,221.584337 311.71013,220.201043 311.71013,218.405161 C311.71013,217.167458 312.106583,216.126954 312.899502,215.283618 C313.692421,214.440281 314.801875,213.854808 316.2279,213.527181 C315.650114,213.284494 315.173755,212.893167 314.798809,212.353189 C314.423863,211.813211 314.236393,211.24594 314.236393,210.651357 C314.236393,209.899028 314.451523,209.261985 314.881789,208.740208 C315.312054,208.218431 315.951297,207.702729 316.799536,207.193087 C315.742311,206.744117 314.884865,206.013034 314.227173,204.999816 C313.569481,203.986599 313.240639,202.800486 313.240639,201.441439 C313.240639,199.257258 313.938275,197.564543 315.333565,196.363244 C316.728857,195.161944 318.71727,194.561304 321.298866,194.561304 C321.876651,194.561304 322.482088,194.60074 323.115193,194.679613 C323.748299,194.758486 324.224658,194.840391 324.544285,194.925332 L331.606757,194.925332 Z M315.582503,218.186744 C315.582503,219.108954 316.003543,219.818801 316.845635,220.31631 C317.687727,220.813818 318.870941,221.062568 320.395312,221.062568 C322.755628,221.062568 324.513545,220.728879 325.669117,220.061489 C326.824688,219.394101 327.402465,218.508308 327.402465,217.404083 C327.402465,216.53041 327.085917,215.908535 326.452812,215.538438 C325.819706,215.16834 324.642638,214.983294 322.921575,214.983294 L319.639276,214.983294 C318.397653,214.983294 317.411129,215.27148 316.679677,215.847861 C315.948225,216.424242 315.582503,217.203863 315.582503,218.186744 Z M317.444931,201.441439 C317.444931,202.703411 317.773773,203.674144 318.431465,204.353666 C319.089157,205.033189 320.032655,205.372946 321.261986,205.372946 C323.769821,205.372946 325.023721,204.050322 325.023721,201.405037 C325.023721,200.094528 324.713319,199.084359 324.092507,198.3745 C323.471695,197.664642 322.528198,197.309718 321.261986,197.309718 C320.008068,197.309718 319.058424,197.661608 318.413025,198.365399 C317.767626,199.069191 317.444931,200.094528 317.444931,201.441439 Z M353.421131,215.420128 C350.33551,215.420128 347.990596,214.531301 346.386318,212.75362 C344.782042,210.97594 343.979914,208.424733 343.979914,205.099925 C343.979914,201.714444 344.818921,199.111667 346.496958,197.291516 C348.174995,195.471365 350.599815,194.561304 353.771489,194.561304 C355.922819,194.561304 357.858987,194.955663 359.580051,195.744395 L358.270819,199.184464 C356.439115,198.480672 354.927061,198.128781 353.73461,198.128781 C350.206429,198.128781 348.442365,200.440339 348.442365,205.063521 C348.442365,207.320509 348.881844,209.016257 349.760816,210.150818 C350.639788,211.285379 351.927493,211.85265 353.62397,211.85265 C355.55402,211.85265 357.37955,211.379418 359.100613,210.43294 L359.100613,214.16423 C358.326135,214.613201 357.499422,214.934756 356.620451,215.128906 C355.741479,215.323055 354.675049,215.420128 353.421131,215.420128 Z M376.655376,215.0561 L375.788703,212.253082 L375.641184,212.253082 C374.657719,213.47865 373.668122,214.312873 372.672363,214.755776 C371.676605,215.19868 370.398119,215.420128 368.836869,215.420128 C366.833059,215.420128 365.268758,214.886225 364.14392,213.818403 C363.019082,212.750582 362.456672,211.239879 362.456672,209.28625 C362.456672,207.211278 363.237285,205.645972 364.798536,204.590285 C366.359787,203.534597 368.738507,202.958225 371.934768,202.86115 L375.456785,202.751941 L375.456785,201.678058 C375.456785,200.391818 375.15253,199.430186 374.544011,198.793133 C373.935492,198.15608 372.991995,197.837559 371.713489,197.837559 C370.668558,197.837559 369.666668,197.989236 368.70779,198.292594 C367.748911,198.595952 366.826927,198.95391 365.941808,199.366478 L364.540378,196.30864 C365.646776,195.738325 366.857649,195.304529 368.173033,195.007238 C369.488418,194.709947 370.730024,194.561304 371.897889,194.561304 C374.491778,194.561304 376.449458,195.119475 377.770989,196.235834 C379.09252,197.352193 379.753276,199.105579 379.753276,201.496043 L379.753276,215.0561 L376.655376,215.0561 Z M370.20142,212.143873 C371.774964,212.143873 373.038083,211.710077 373.990815,210.842472 C374.943546,209.974867 375.419905,208.758417 375.419905,207.193087 L375.419905,205.445751 L372.801443,205.55496 C370.760753,205.627765 369.276357,205.964489 368.348212,206.565138 C367.420067,207.165789 366.956002,208.084951 366.956002,209.322654 C366.956002,210.220594 367.22645,210.915275 367.767356,211.406715 C368.308262,211.898156 369.119609,212.143873 370.20142,212.143873 Z M396.146327,194.561304 C397.019153,194.561304 397.7383,194.621974 398.303793,194.743318 L397.879675,198.729428 C397.26501,198.583816 396.625767,198.511011 395.961928,198.511011 C394.228571,198.511011 392.824081,199.069182 391.748416,200.185541 C390.672751,201.301901 390.134927,202.751933 390.134927,204.53568 L390.134927,215.0561 L385.801556,215.0561 L385.801556,194.925332 L389.194493,194.925332 L389.766129,198.474609 L389.987408,198.474609 C390.66354,197.273309 391.545572,196.320778 392.63353,195.616986 C393.721489,194.913194 394.892409,194.561304 396.146327,194.561304 Z M408.206007,215.420128 C405.661291,215.420128 403.675951,214.510067 402.249926,212.689916 C400.823902,210.869764 400.1109,208.315525 400.1109,205.027119 C400.1109,201.726578 400.833122,199.157171 402.277586,197.318818 C403.72205,195.480466 405.722757,194.561304 408.279766,194.561304 C410.959708,194.561304 413.000368,195.538103 414.401805,197.491731 L414.623084,197.491731 C414.414098,196.047745 414.309606,194.907135 414.309606,194.069865 L414.309606,186.734694 L418.661417,186.734694 L418.661417,215.0561 L415.26848,215.0561 L414.512445,212.416894 L414.309606,212.416894 C412.920462,214.41906 410.885949,215.420128 408.206007,215.420128 Z M409.367719,211.961859 C411.150249,211.961859 412.447174,211.467392 413.258533,210.478444 C414.069891,209.489495 414.487858,207.884752 414.512445,205.664168 L414.512445,205.063521 C414.512445,202.527445 414.094478,200.725522 413.258533,199.6577 C412.422588,198.589879 411.11337,198.055976 409.330839,198.055976 C407.806468,198.055976 406.632474,198.665717 405.808823,199.885218 C404.985171,201.104719 404.573351,202.842937 404.573351,205.099925 C404.573351,207.332643 404.972878,209.034458 405.771943,210.205422 C406.571008,211.376386 407.769588,211.961859 409.367719,211.961859 Z M118.930435,265.534698 L114.597063,265.534698 L114.597063,237.213292 L118.930435,237.213292 L118.930435,265.534698 Z M137.886628,265.534698 L137.019954,262.73168 L136.872435,262.73168 C135.88897,263.957248 134.899373,264.791472 133.903615,265.234375 C132.907856,265.677279 131.629371,265.898727 130.06812,265.898727 C128.06431,265.898727 126.50001,265.364824 125.375171,264.297002 C124.250333,263.22918 123.687923,261.718478 123.687923,259.764849 C123.687923,257.689877 124.468536,256.12457 126.029787,255.068884 C127.591038,254.013196 129.969758,253.436824 133.16602,253.339749 L136.688036,253.23054 L136.688036,252.156657 C136.688036,250.870416 136.383781,249.908784 135.775262,249.271732 C135.166743,248.634679 134.223246,248.316157 132.944741,248.316157 C131.899809,248.316157 130.897919,248.467835 129.939041,248.771192 C128.980162,249.074551 128.058178,249.432509 127.173059,249.845076 L125.771629,246.787238 C126.878027,246.216924 128.0889,245.783128 129.404285,245.485837 C130.719669,245.188545 131.961275,245.039902 133.12914,245.039902 C135.723029,245.039902 137.68071,245.598073 139.00224,246.714432 C140.323771,247.830792 140.984528,249.584177 140.984528,251.974642 L140.984528,265.534698 L137.886628,265.534698 Z M131.432671,262.622472 C133.006215,262.622472 134.269334,262.188676 135.222066,261.32107 C136.174798,260.453465 136.651156,259.237016 136.651156,257.671686 L136.651156,255.92435 L134.032693,256.033558 C131.992004,256.106364 130.507608,256.443087 129.579463,257.043737 C128.651319,257.644387 128.187253,258.56355 128.187253,259.801252 C128.187253,260.699193 128.457701,261.393874 128.998607,261.885314 C129.539513,262.376755 130.35086,262.622472 131.432671,262.622472 Z M143.934908,245.40393 L148.655516,245.40393 L152.804488,256.81622 C153.431447,258.442221 153.849414,259.971124 154.0584,261.402977 L154.205919,261.402977 C154.316559,260.735588 154.519396,259.925633 154.814435,258.973087 C155.109475,258.020542 156.670702,253.497535 159.498164,245.40393 L164.181893,245.40393 L155.459831,268.210306 C153.873993,272.396653 151.230971,274.489796 147.530684,274.489796 C146.571805,274.489796 145.637528,274.386656 144.727822,274.180371 L144.727822,270.794909 C145.379368,270.94052 146.123102,271.013326 146.959048,271.013326 C149.048911,271.013326 150.51794,269.81811 151.366178,267.427646 L152.122213,265.534698 L143.934908,245.40393 Z M185.369311,255.432912 C185.369311,258.721318 184.514939,261.287692 182.806169,263.132111 C181.097398,264.976531 178.718678,265.898727 175.669936,265.898727 C173.764473,265.898727 172.080314,265.474031 170.61741,264.624628 C169.154506,263.775224 168.029685,262.555741 167.242913,260.966143 C166.456141,259.376544 166.06276,257.532152 166.06276,255.432912 C166.06276,252.168774 166.910986,249.620601 168.607463,247.788316 C170.303941,245.956031 172.694954,245.039902 175.780575,245.039902 C178.730971,245.039902 181.066665,245.977266 182.787729,247.852021 C184.508792,249.726776 185.369311,252.253715 185.369311,255.432912 Z M170.525211,255.432912 C170.525211,260.080363 172.264688,262.404055 175.743696,262.404055 C179.185823,262.404055 180.906861,260.080363 180.906861,255.432912 C180.906861,250.833997 179.17353,248.534574 175.706816,248.534574 C173.887406,248.534574 172.568967,249.129148 171.751462,250.318313 C170.933957,251.507479 170.525211,253.212327 170.525211,255.432912 Z M204.731182,265.534698 L204.122667,262.895492 L203.901388,262.895492 C203.299016,263.829837 202.44157,264.563954 201.329025,265.097864 C200.21648,265.631775 198.947215,265.898727 197.521191,265.898727 C195.050235,265.898727 193.206265,265.292019 191.989228,264.078585 C190.772189,262.865151 190.163679,261.026826 190.163679,258.563556 L190.163679,245.40393 L194.533931,245.40393 L194.533931,257.817297 C194.533931,259.358358 194.853552,260.514137 195.492804,261.284668 C196.132057,262.055198 197.133947,262.440457 198.498504,262.440457 C200.317915,262.440457 201.654792,261.903521 202.509177,260.829632 C203.363562,259.755743 203.790749,257.956854 203.790749,255.432912 L203.790749,245.40393 L208.14256,245.40393 L208.14256,265.534698 L204.731182,265.534698 Z M221.917148,262.440457 C222.974373,262.440457 224.031582,262.276647 225.088807,261.949019 L225.088807,265.17067 C224.609368,265.376954 223.991638,265.549865 223.235599,265.689411 C222.47956,265.828955 221.695873,265.898727 220.884515,265.898727 C216.778548,265.898727 214.725596,263.763115 214.725596,259.491828 L214.725596,248.643783 L211.941175,248.643783 L211.941175,246.750835 L214.928435,245.185513 L216.403625,240.926382 L219.077407,240.926382 L219.077407,245.40393 L224.885968,245.40393 L224.885968,248.643783 L219.077407,248.643783 L219.077407,259.419022 C219.077407,260.450441 219.338636,261.21186 219.861102,261.7033 C220.383568,262.194741 221.06891,262.440457 221.917148,262.440457 Z M251.73443,265.534698 L250.867755,262.73168 L250.720236,262.73168 C249.736771,263.957248 248.747174,264.791472 247.751416,265.234375 C246.755657,265.677279 245.477172,265.898727 243.915922,265.898727 C241.912111,265.898727 240.347811,265.364824 239.222973,264.297002 C238.098134,263.22918 237.535724,261.718478 237.535724,259.764849 C237.535724,257.689877 238.316337,256.12457 239.877588,255.068884 C241.438839,254.013196 243.817559,253.436824 247.013821,253.339749 L250.535837,253.23054 L250.535837,252.156657 C250.535837,250.870416 250.231582,249.908784 249.623063,249.271732 C249.014545,248.634679 248.071047,248.316157 246.792542,248.316157 C245.747611,248.316157 244.74572,248.467835 243.786842,248.771192 C242.827964,249.074551 241.905979,249.432509 241.020861,249.845076 L239.61943,246.787238 C240.725828,246.216924 241.936701,245.783128 243.252086,245.485837 C244.56747,245.188545 245.809076,245.039902 246.976941,245.039902 C249.57083,245.039902 251.528511,245.598073 252.850042,246.714432 C254.171573,247.830792 254.832329,249.584177 254.832329,251.974642 L254.832329,265.534698 L251.73443,265.534698 Z M245.280473,262.622472 C246.854017,262.622472 248.117135,262.188676 249.069867,261.32107 C250.022599,260.453465 250.498957,259.237016 250.498957,257.671686 L250.498957,255.92435 L247.880495,256.033558 C245.839805,256.106364 244.355409,256.443087 243.427265,257.043737 C242.49912,257.644387 242.035054,258.56355 242.035054,259.801252 C242.035054,260.699193 242.305503,261.393874 242.846409,261.885314 C243.387314,262.376755 244.198661,262.622472 245.280473,262.622472 Z M265.527458,265.534698 L257.782709,245.40393 L262.355799,245.40393 L266.504771,257.107442 C267.217783,259.073205 267.648042,260.66278 267.795562,261.876213 L267.943081,261.876213 C268.053721,261.002541 268.48398,259.412966 269.233873,257.107442 L273.382845,245.40393 L277.992815,245.40393 L270.211186,265.534698 L265.527458,265.534698 Z M293.851109,265.534698 L292.984434,262.73168 L292.836915,262.73168 C291.85345,263.957248 290.863853,264.791472 289.868095,265.234375 C288.872337,265.677279 287.593852,265.898727 286.032601,265.898727 C284.028791,265.898727 282.46449,265.364824 281.339652,264.297002 C280.214814,263.22918 279.652403,261.718478 279.652403,259.764849 C279.652403,257.689877 280.433017,256.12457 281.994267,255.068884 C283.555518,254.013196 285.934238,253.436824 289.1305,253.339749 L292.652516,253.23054 L292.652516,252.156657 C292.652516,250.870416 292.348261,249.908784 291.739743,249.271732 C291.131224,248.634679 290.187726,248.316157 288.909222,248.316157 C287.86429,248.316157 286.8624,248.467835 285.903521,248.771192 C284.944643,249.074551 284.022659,249.432509 283.13754,249.845076 L281.736109,246.787238 C282.842507,246.216924 284.05338,245.783128 285.368765,245.485837 C286.68415,245.188545 287.925755,245.039902 289.093621,245.039902 C291.687509,245.039902 293.64519,245.598073 294.966722,246.714432 C296.288252,247.830792 296.949008,249.584177 296.949008,251.974642 L296.949008,265.534698 L293.851109,265.534698 Z M287.397152,262.622472 C288.970696,262.622472 290.233814,262.188676 291.186546,261.32107 C292.139279,260.453465 292.615637,259.237016 292.615637,257.671686 L292.615637,255.92435 L289.997174,256.033558 C287.956484,256.106364 286.472089,256.443087 285.543944,257.043737 C284.615799,257.644387 284.151733,258.56355 284.151733,259.801252 C284.151733,260.699193 284.422182,261.393874 284.963088,261.885314 C285.503994,262.376755 286.31534,262.622472 287.397152,262.622472 Z M307.330659,265.534698 L302.997288,265.534698 L302.997288,245.40393 L307.330659,245.40393 L307.330659,265.534698 Z M302.73913,240.070915 C302.73913,239.306452 302.951186,238.717945 303.375306,238.305377 C303.799425,237.89281 304.404861,237.686529 305.191633,237.686529 C305.953818,237.686529 306.546962,237.89281 306.971081,238.305377 C307.3952,238.717945 307.607257,239.306452 307.607257,240.070915 C307.607257,240.798975 307.3952,241.372314 306.971081,241.790949 C306.546962,242.209583 305.953818,242.418898 305.191633,242.418898 C304.404861,242.418898 303.799425,242.209583 303.375306,241.790949 C302.951186,241.372314 302.73913,240.798975 302.73913,240.070915 Z M317.859829,265.534698 L313.526457,265.534698 L313.526457,237.213292 L317.859829,237.213292 L317.859829,265.534698 Z M336.816023,265.534698 L335.949348,262.73168 L335.801829,262.73168 C334.818364,263.957248 333.828767,264.791472 332.833009,265.234375 C331.83725,265.677279 330.558765,265.898727 328.997515,265.898727 C326.993704,265.898727 325.429404,265.364824 324.304566,264.297002 C323.179727,263.22918 322.617317,261.718478 322.617317,259.764849 C322.617317,257.689877 323.39793,256.12457 324.959181,255.068884 C326.520432,254.013196 328.899152,253.436824 332.095414,253.339749 L335.61743,253.23054 L335.61743,252.156657 C335.61743,250.870416 335.313175,249.908784 334.704656,249.271732 C334.096138,248.634679 333.15264,248.316157 331.874135,248.316157 C330.829204,248.316157 329.827313,248.467835 328.868435,248.771192 C327.909557,249.074551 326.987572,249.432509 326.102454,249.845076 L324.701023,246.787238 C325.807421,246.216924 327.018294,245.783128 328.333679,245.485837 C329.649063,245.188545 330.890669,245.039902 332.058534,245.039902 C334.652423,245.039902 336.610104,245.598073 337.931635,246.714432 C339.253166,247.830792 339.913922,249.584177 339.913922,251.974642 L339.913922,265.534698 L336.816023,265.534698 Z M330.362066,262.622472 C331.93561,262.622472 333.198728,262.188676 334.15146,261.32107 C335.104192,260.453465 335.58055,259.237016 335.58055,257.671686 L335.58055,255.92435 L332.962088,256.033558 C330.921398,256.106364 329.437003,256.443087 328.508858,257.043737 C327.580713,257.644387 327.116647,258.56355 327.116647,259.801252 C327.116647,260.699193 327.387096,261.393874 327.928002,261.885314 C328.468907,262.376755 329.280254,262.622472 330.362066,262.622472 Z M356.380732,245.039902 C358.925447,245.039902 360.907714,245.949964 362.327592,247.770115 C363.74747,249.590266 364.457398,252.144505 364.457398,255.432912 C364.457398,258.733452 363.73825,261.302859 362.299933,263.141212 C360.861615,264.979564 358.863981,265.898727 356.306972,265.898727 C353.725377,265.898727 351.721597,264.982598 350.295572,263.150313 L350.000534,263.150313 L349.20762,265.534698 L345.962202,265.534698 L345.962202,237.213292 L350.295572,237.213292 L350.295572,243.947817 C350.295572,244.445325 350.270987,245.185509 350.221813,246.16839 C350.17264,247.151271 350.13576,247.776181 350.111174,248.043136 L350.295572,248.043136 C351.672424,246.04097 353.70079,245.039902 356.380732,245.039902 Z M355.2559,248.534574 C353.510249,248.534574 352.253276,249.041175 351.484945,250.054392 C350.716613,251.06761 350.320159,252.763358 350.295572,255.141689 L350.295572,255.432912 C350.295572,257.884048 350.688952,259.658669 351.475724,260.756826 C352.262496,261.854984 353.547128,262.404055 355.329659,262.404055 C356.866323,262.404055 358.031097,261.803414 358.824016,260.602115 C359.616935,259.400815 360.013388,257.66563 360.013388,255.396508 C360.013388,250.821863 358.427574,248.534574 355.2559,248.534574 Z M373.824856,265.534698 L369.491485,265.534698 L369.491485,237.213292 L373.824856,237.213292 L373.824856,265.534698 Z M388.927115,265.898727 C385.755441,265.898727 383.275301,264.985632 381.486625,263.159413 C379.697948,261.333195 378.803622,258.818391 378.803622,255.614925 C378.803622,252.32652 379.633409,249.741945 381.293006,247.861122 C382.952603,245.980299 385.232979,245.039902 388.1342,245.039902 C390.826436,245.039902 392.953147,245.846823 394.514398,247.46069 C396.075648,249.074558 396.856262,251.295108 396.856262,254.12241 L396.856262,256.43399 L383.266073,256.43399 C383.32754,258.387618 383.86229,259.88922 384.870342,260.93884 C385.878394,261.988461 387.29825,262.513263 389.129954,262.513263 C390.334698,262.513263 391.456446,262.401022 392.495231,262.176537 C393.534016,261.952051 394.649618,261.578926 395.842069,261.05715 L395.842069,264.533621 C394.784844,265.031129 393.715342,265.383019 392.63353,265.589302 C391.551719,265.795587 390.31626,265.898727 388.927115,265.898727 Z M388.1342,248.279754 C386.757349,248.279754 385.654041,248.710517 384.824242,249.572055 C383.994444,250.433593 383.499645,251.689478 383.339832,253.339749 L392.59665,253.339749 C392.572064,251.677344 392.166391,250.418425 391.379619,249.562955 C390.592847,248.707484 389.511051,248.279754 388.1342,248.279754 Z M401.134314,263.259521 C401.134314,262.373715 401.367883,261.694202 401.835029,261.220962 C402.302175,260.747723 402.978297,260.511107 403.863416,260.511107 C404.760827,260.511107 405.443096,260.756824 405.910242,261.248265 C406.377388,261.739705 406.610957,262.410117 406.610957,263.259521 C406.610957,264.121059 406.374315,264.803606 405.901022,265.30718 C405.427729,265.810756 404.748534,266.06254 403.863416,266.06254 C402.978297,266.06254 402.302175,265.813789 401.835029,265.316281 C401.367883,264.818774 401.134314,264.133193 401.134314,263.259521 Z" id="No-matching-card-lay" fill="#FF0000" fill-rule="nonzero"></path>
            <path d="M316.299213,95.4081633 C316.299213,105.497537 313.805245,114.802451 308.817309,123.322903 C303.829372,131.843356 297.06176,138.58972 288.514472,143.561995 C279.967183,148.534271 270.632963,151.020408 260.511811,151.020408 C250.390659,151.020408 241.056439,148.534271 232.50915,143.561995 C223.961862,138.58972 217.19425,131.843356 212.206313,123.322903 C207.218377,114.802451 204.724409,105.497537 204.724409,95.4081633 C204.724409,85.3187893 207.218377,76.0138754 212.206313,67.4934231 C217.19425,58.9729708 223.961862,52.226607 232.50915,47.2543311 C241.056439,42.2820559 250.390659,39.7959184 260.511811,39.7959184 C270.632963,39.7959184 279.967183,42.2820559 288.514472,47.2543311 C297.06176,52.226607 303.829372,58.9729708 308.817309,67.4934231 C313.805245,76.0138754 316.299213,85.3187893 316.299213,95.4081633 Z M288.798381,81.7365234 C288.798381,77.4938049 287.444667,73.5644693 284.737241,69.9485165 C282.029815,66.3325629 278.651629,63.5362265 274.602686,61.5595049 C270.553741,59.5827841 266.407233,58.5944237 262.163159,58.5944237 C250.309021,58.5944237 241.259875,63.7290772 235.015721,73.9983834 C234.283984,75.1554886 234.479114,76.1679557 235.60111,77.035784 L245.260037,84.2676904 C245.601514,84.5569665 246.064948,84.7016046 246.650337,84.7016046 C247.430857,84.7016046 248.040637,84.4123285 248.479679,83.8337755 C251.06515,80.5553115 253.162795,78.3375273 254.772616,77.1804221 C256.43122,76.0233169 258.528865,75.4447647 261.065554,75.4447647 C263.407111,75.4447647 265.492561,76.0715296 267.321903,77.3250601 C269.151246,78.5785907 270.065917,80.0008652 270.065917,81.5918846 C270.065917,83.4239681 269.578092,84.8944553 268.602443,86.0033478 C267.626794,87.1122395 265.968191,88.1970261 263.626632,89.2577051 C260.553337,90.607661 257.736151,92.6928609 255.175071,95.5133041 C252.613993,98.3337472 251.333453,101.359095 251.333453,104.589346 L251.333453,107.192833 C251.333453,107.86781 251.552974,108.422256 251.992016,108.856171 C252.431059,109.290085 252.992057,109.507042 253.675011,109.507042 L267.724359,109.507042 C268.407313,109.507042 268.968311,109.290085 269.407353,108.856171 C269.846396,108.422256 270.065917,107.86781 270.065917,107.192833 C270.065917,106.276791 270.590328,105.083526 271.639151,103.613039 C272.687974,102.142552 274.017296,100.949287 275.627117,100.033246 C277.188156,99.1654166 278.383326,98.4783853 279.212628,97.9721525 C280.04193,97.4659189 281.163926,96.6221966 282.578618,95.4409847 C283.993309,94.2597735 285.078718,93.1026684 285.834846,91.9696699 C286.590975,90.8366715 287.273929,89.3782372 287.883709,87.5943671 C288.49349,85.8104971 288.798381,83.8578822 288.798381,81.7365234 Z M269.940668,130.655361 L269.940668,116.556482 C269.940668,115.87112 269.719679,115.308144 269.277701,114.867554 C268.835723,114.426964 268.270974,114.206669 267.583453,114.206669 L253.440169,114.206669 C252.752648,114.206669 252.187899,114.426964 251.745921,114.867554 C251.303943,115.308144 251.082954,115.87112 251.082954,116.556482 L251.082954,130.655361 C251.082954,131.340723 251.303943,131.903699 251.745921,132.344289 C252.187899,132.784879 252.752648,133.005174 253.440169,133.005174 L267.583453,133.005174 C268.270974,133.005174 268.835723,132.784879 269.277701,132.344289 C269.719679,131.903699 269.940668,131.340723 269.940668,130.655361 Z" id="Combined-Shape-Copy" fill="#FF0000" fill-rule="nonzero"></path>
        </g>
    </g>
</svg>