<?xml version="1.0" encoding="UTF-8"?>
<svg width="674px" height="715px" viewBox="0 0 674 715" version="1.1" xmlns="http://www.w3.org/2000/svg" xmlns:xlink="http://www.w3.org/1999/xlink">
    <!-- Generator: Sketch 50.2 (55047) - http://www.bohemiancoding.com/sketch -->
    <title>nolayout_2</title>
    <desc>Created with Sketch.</desc>
    <defs></defs>
    <g id="nolayout_2" stroke="none" stroke-width="1" fill="none" fill-rule="evenodd">
        <rect id="Rectangle" stroke="#FF0000" stroke-width="30" x="15" y="15" width="644" height="685"></rect>
        <path d="M506,358 C506,388.66059 498.444878,416.937283 483.334635,442.830078 C468.224392,468.722873 447.722873,489.224392 421.830078,504.334635 C395.937283,519.444878 367.66059,527 337,527 C306.33941,527 278.062717,519.444878 252.169922,504.334635 C226.277127,489.224392 205.775608,468.722873 190.665365,442.830078 C175.555122,416.937283 168,388.66059 168,358 C168,327.33941 175.555122,299.062717 190.665365,273.169922 C205.775608,247.277127 226.277127,226.775608 252.169922,211.665365 C278.062717,196.555122 306.33941,189 337,189 C367.66059,189 395.937283,196.555122 421.830078,211.665365 C447.722873,226.775608 468.224392,247.277127 483.334635,273.169922 C498.444878,299.062717 506,327.33941 506,358 Z M422,315 C422,302.166667 417.905097,290.28125 409.71529,279.34375 C401.525484,268.40625 391.306671,259.947917 379.058853,253.96875 C366.811034,247.989583 354.268087,245 341.430012,245 C305.571941,245 278.198804,260.53125 259.310602,291.59375 C257.097141,295.09375 257.687397,298.15625 261.081371,300.78125 L290.299059,322.65625 C291.332007,323.53125 292.733866,323.96875 294.504635,323.96875 C296.86566,323.96875 298.710211,323.09375 300.038288,321.34375 C307.859184,311.427083 314.20444,304.71875 319.074054,301.21875 C324.091233,297.71875 330.436488,295.96875 338.109821,295.96875 C345.192896,295.96875 351.501261,297.864583 357.034914,301.65625 C362.568567,305.447917 365.335393,309.75 365.335393,314.5625 C365.335393,320.104167 363.859753,324.552083 360.908471,327.90625 C357.957189,331.260417 352.940011,334.541667 345.856935,337.75 C336.560398,341.833333 328.038572,348.140625 320.291458,356.671875 C312.544344,365.203125 308.670787,374.354167 308.670787,384.125 L308.670787,392 C308.670787,394.041667 309.334825,395.71875 310.662902,397.03125 C311.990979,398.34375 313.687965,399 315.753863,399 L358.252318,399 C360.318215,399 362.015202,398.34375 363.343278,397.03125 C364.671355,395.71875 365.335393,394.041667 365.335393,392 C365.335393,389.229167 366.921707,385.619792 370.094335,381.171875 C373.266963,376.723958 377.288084,373.114583 382.157698,370.34375 C386.879749,367.71875 390.495069,365.640625 393.003658,364.109375 C395.512248,362.578125 398.906222,360.026042 403.18558,356.453125 C407.464938,352.880208 410.748239,349.380208 413.035482,345.953125 C415.322725,342.526042 417.388623,338.114583 419.233174,332.71875 C421.077725,327.322917 422,321.416667 422,315 Z M364,464 L364,422 C364,419.958333 363.34375,418.28125 362.03125,416.96875 C360.71875,415.65625 359.041667,415 357,415 L315,415 C312.958333,415 311.28125,415.65625 309.96875,416.96875 C308.65625,418.28125 308,419.958333 308,422 L308,464 C308,466.041667 308.65625,467.71875 309.96875,469.03125 C311.28125,470.34375 312.958333,471 315,471 L357,471 C359.041667,471 360.71875,470.34375 362.03125,469.03125 C363.34375,467.71875 364,466.041667 364,464 Z" id="Combined-Shape-Copy" fill="#FF0000"></path>
    </g>
</svg>