<?xml version="1.0" encoding="UTF-8"?>
<svg width="500px" height="500px" viewBox="0 0 500 500" version="1.1" xmlns="http://www.w3.org/2000/svg" xmlns:xlink="http://www.w3.org/1999/xlink">
    <!-- Generator: Sketch 52.6 (67491) - http://www.bohemiancoding.com/sketch -->
    <title>notallowed</title>
    <desc>Created with Sketch.</desc>
    <defs>
        <polygon id="path-1" points="0 0 500 0 500 500 0 500"></polygon>
    </defs>
    <g id="notallowed" stroke="none" stroke-width="1" fill="none" fill-rule="evenodd">
        <g id="Group-3">
            <mask id="mask-2" fill="white">
                <use xlink:href="#path-1"></use>
            </mask>
            <g id="Clip-2"></g>
            <path d="M160.464914,104.517025 C186.519396,88.4237886 217.192556,79.1211226 250,79.1211226 C344.222994,79.1211226 420.87919,155.777622 420.87919,249.999011 C420.87919,282.808562 411.576561,313.481844 395.483389,339.536429 L160.464914,104.517025 Z M250,420.878877 C155.777006,420.878877 79.1208096,344.224356 79.1208096,249.999011 C79.1208096,217.191438 88.4254168,186.518156 104.518589,160.463571 L339.537064,395.482975 C313.482582,411.576211 282.809422,420.878877 250,420.878877 Z M250,0 C112.149792,0 0,112.148257 0,249.999011 C0,387.851743 112.149792,500 250,500 C304.680391,500 355.303863,482.342143 396.502069,452.446227 C417.967545,436.869256 436.869506,417.969198 452.446415,396.50166 C482.342213,355.305269 500,304.679619 500,249.999011 C500,112.148257 387.852187,0 250,0 Z" id="Fill-1" fill="#1D1D1B" mask="url(#mask-2)"></path>
        </g>
    </g>
</svg>