<?xml version="1.0" encoding="utf-8"?>
<!-- Generator: Adobe Illustrator 25.4.1, SVG Export Plug-In . SVG Version: 6.00 Build 0)  -->
<svg version="1.1" id="Ebene_1" xmlns="http://www.w3.org/2000/svg" xmlns:xlink="http://www.w3.org/1999/xlink" x="0px" y="0px"
	 viewBox="0 0 500 500" style="enable-background:new 0 0 500 500;" xml:space="preserve">
<style type="text/css">
	.st0{display:none;}
	.st1{display:inline;}
	.st2{fill:none;stroke:#000000;stroke-width:60;stroke-linecap:round;stroke-linejoin:round;stroke-miterlimit:10;}
</style>
<desc>Created with Sketch.</desc>
<g class="st0">
	<path class="st1" d="M406,60c18.7,0,34,15.3,34,34v312c0,18.7-15.3,34-34,34H94c-18.7,0-34-15.3-34-34V94c0-18.7,15.3-34,34-34H406
		 M406,0H94C42.1,0,0,42.1,0,94v312c0,51.9,42.1,94,94,94h312c51.9,0,94-42.1,94-94V94C500,42.1,457.9,0,406,0L406,0z"/>
</g>
<g>
	<line class="st2" x1="470.8" y1="32" x2="250" y2="250"/>
	<line class="st2" x1="250" y1="30.6" x2="470.8" y2="30.6"/>
	<line class="st2" x1="470.8" y1="250" x2="470.8" y2="32"/>
</g>
<path d="M440,360v46c0,18.8-15.2,34-34,34H94c-18.8,0-34-15.2-34-34V94c0-18.8,15.2-34,34-34h46c16.6,0,30-13.4,30-30v0
	c0-16.6-13.4-30-30-30L94,0C42.1,0,0,42.1,0,94v312c0,51.9,42.1,94,94,94h312c51.9,0,94-42.1,94-94v-46c0-16.6-13.4-30-30-30h0
	C453.4,330,440,343.4,440,360z"/>
</svg>
