<?xml version="1.0" encoding="UTF-8"?>
<svg width="500px" height="500px" viewBox="0 0 500 500" version="1.1" xmlns="http://www.w3.org/2000/svg" xmlns:xlink="http://www.w3.org/1999/xlink">
    <!-- Generator: Sketch 52.6 (67491) - http://www.bohemiancoding.com/sketch -->
    <title>palette</title>
    <desc>Created with Sketch.</desc>
    <g id="palette" stroke="none" stroke-width="1" fill="none" fill-rule="evenodd">
        <g fill="#000000" fill-rule="nonzero" id="Shape">
            <path d="M199.122807,5.84795322 C102.241715,24.7563353 24.17154,102.631579 5.06822612,199.220273 C-30.994152,381.481481 133.430799,517.348928 257.309942,498.148148 C297.465887,491.910331 317.153996,444.931774 298.732943,408.77193 C276.218324,364.522417 308.382066,312.865497 358.089669,312.865497 L435.769981,312.865497 C470.662768,312.865497 498.927875,284.015595 499.025341,249.220273 C498.538012,95.6140351 358.77193,-25.2436647 199.122807,5.84795322 Z M93.5672515,312.865497 C76.3157895,312.865497 62.3781676,298.927875 62.3781676,281.676413 C62.3781676,264.424951 76.3157895,250.487329 93.5672515,250.487329 C110.818713,250.487329 124.756335,264.424951 124.756335,281.676413 C124.756335,298.927875 110.818713,312.865497 93.5672515,312.865497 Z M124.756335,188.109162 C107.504873,188.109162 93.5672515,174.17154 93.5672515,156.920078 C93.5672515,139.668616 107.504873,125.730994 124.756335,125.730994 C142.007797,125.730994 155.945419,139.668616 155.945419,156.920078 C155.945419,174.17154 142.007797,188.109162 124.756335,188.109162 Z M249.512671,125.730994 C232.261209,125.730994 218.323587,111.793372 218.323587,94.5419103 C218.323587,77.2904483 232.261209,63.3528265 249.512671,63.3528265 C266.764133,63.3528265 280.701754,77.2904483 280.701754,94.5419103 C280.701754,111.793372 266.764133,125.730994 249.512671,125.730994 Z M374.269006,188.109162 C357.017544,188.109162 343.079922,174.17154 343.079922,156.920078 C343.079922,139.668616 357.017544,125.730994 374.269006,125.730994 C391.520468,125.730994 405.45809,139.668616 405.45809,156.920078 C405.45809,174.17154 391.520468,188.109162 374.269006,188.109162 Z"></path>
        </g>
    </g>
</svg>