<?xml version="1.0" encoding="UTF-8"?>
<svg width="1057px" height="1057px" viewBox="0 0 1057 1057" version="1.1" xmlns="http://www.w3.org/2000/svg" xmlns:xlink="http://www.w3.org/1999/xlink">
    <!-- Generator: Sketch 52.6 (67491) - http://www.bohemiancoding.com/sketch -->
    <title>Path</title>
    <desc>Created with Sketch.</desc>
    <g id="Page-1" stroke="none" stroke-width="1" fill="none" fill-rule="evenodd">
        <g id="map" fill="#000000" fill-rule="nonzero">
            <path d="M302.000343,0 C307.11171,0 311.535747,1.86755337 315.271654,5.60346026 C319.006761,9.33856699 320.875114,13.7626041 320.875114,18.8739712 L320.875114,887.123857 C320.875114,894.987745 317.532082,900.493587 310.847617,903.639782 L27.7228456,1054.64035 C24.9703248,1056.21345 22.0209667,1056.9992 18.8747714,1056.9992 C13.7626041,1056.9992 9.33856699,1055.13165 5.60346026,1051.39574 C1.86755337,1047.66063 0,1043.2366 0,1038.12443 L0,169.874543 C0,162.009855 3.3422324,156.505613 10.0274974,153.358618 L293.152269,2.35884633 C295.90479,0.786548827 298.854148,0 302.000343,0 Z M1038.12523,0 C1043.2366,0 1047.66063,1.86755337 1051.39654,5.60346026 C1055.13245,9.33856699 1057,13.7626041 1057,18.8739712 L1057,887.123857 C1057,894.987745 1053.65697,900.493587 1046.9725,903.639782 L763.847731,1054.64035 C761.09521,1056.21345 758.145852,1056.9992 754.999657,1056.9992 C749.88749,1056.9992 745.464253,1055.13165 741.728346,1051.39574 C737.992439,1047.66063 736.124886,1043.2366 736.124886,1038.12443 L736.124886,169.874543 C736.124886,162.009855 739.467118,156.505613 746.151583,153.358618 L1029.27715,2.35884633 C1032.02968,0.786548827 1034.97903,0 1038.12523,0 Z M377.500229,0 C380.645624,0 383.398945,0.589711582 385.757791,1.7699349 L687.757334,152.769706 C694.836273,156.70245 698.375343,162.404329 698.375343,169.874543 L698.375343,1038.12523 C698.375343,1043.2374 696.506989,1047.66143 692.771883,1051.39654 C689.035176,1055.13245 684.611939,1057 679.499771,1057 C676.353576,1057 673.601855,1056.41029 671.242209,1055.23007 L369.242666,904.230294 C362.164527,900.29835 358.625457,894.596471 358.625457,887.124657 L358.625457,18.8747714 C358.625457,13.7634042 360.493011,9.33936715 364.228917,5.60426041 C367.964024,1.86755337 372.388061,0 377.500229,0 Z" id="Shape"></path>
        </g>
    </g>
</svg>