<?xml version="1.0" encoding="utf-8"?>
<!-- Generator: Adobe Illustrator 26.2.1, SVG Export Plug-In . SVG Version: 6.00 Build 0)  -->
<svg version="1.1" id="Ebene_1" xmlns="http://www.w3.org/2000/svg" xmlns:xlink="http://www.w3.org/1999/xlink" x="0px" y="0px"
	 viewBox="0 0 500 500" style="enable-background:new 0 0 500 500;" xml:space="preserve">
<g>
	<path d="M170,500H90c-11,0-20-9-20-20V20C70,9,79,0,90,0h80c11,0,20,9,20,20v460C190,491,181,500,170,500z"/>
	<path d="M410,500h-80c-11,0-20-9-20-20V20c0-11,9-20,20-20h80c11,0,20,9,20,20v460C430,491,421,500,410,500z"/>
</g>
</svg>
