<?xml version="1.0" encoding="utf-8"?>
<!-- Generator: Adobe Illustrator 25.4.1, SVG Export Plug-In . SVG Version: 6.00 Build 0)  -->
<svg version="1.1" id="Ebene_1" xmlns="http://www.w3.org/2000/svg" xmlns:xlink="http://www.w3.org/1999/xlink" x="0px" y="0px"
	 viewBox="0 0 500 500" style="enable-background:new 0 0 500 500;" xml:space="preserve">
<path d="M445.6,132.8c2.6,2.6,5.2,6,7.8,10H321.7V11.2c4.1,2.6,7.4,5.2,10,7.8L445.6,132.8z"/>
<path d="M312.8,178.6c-7.4,0-13.8-2.6-19-7.8c-5.2-5.2-7.8-11.5-7.8-19V0H62.8c-7.4,0-13.8,2.6-19,7.8S36,19.3,36,26.8v203.1h329.2
	c15.1,0,27.3,12.2,27.3,27.3v158.4c0,15.1-12.2,27.3-27.3,27.3H36v30.3c0,7.4,2.6,13.8,7.8,19c5.2,5.2,11.5,7.8,19,7.8h375
	c7.4,0,13.8-2.6,19-7.8c5.2-5.2,7.8-11.5,7.8-19V178.6H312.8z"/>
<g>
	<g>
		<path d="M112.2,315.8h-5v16.4h3.5c2.9,0,5.2-0.8,6.9-2.4c1.7-1.6,2.6-3.9,2.6-6.7C120.2,318.2,117.6,315.8,112.2,315.8z"/>
	</g>
	<g>
		<path d="M181.1,315.8h-5.6v40h4.3c5.9,0,10.2-1.7,12.9-5.1c2.7-3.4,4.1-8.6,4.1-15.6c0-6.5-1.3-11.4-3.9-14.6
			C190.3,317.4,186.3,315.8,181.1,315.8z"/>
	</g>
	<g>
		<path d="M27.3,266C12.2,266,0,278.2,0,293.3v86.2c0,15.1,12.2,27.3,27.3,27.3h329.2V266H27.3z M132.7,341.4
			c-4.7,4.3-11.4,6.5-20,6.5h-5.4v23.7H88v-71.4h24.7c9,0,15.8,2,20.3,5.9c4.5,3.9,6.8,9.5,6.8,16.8
			C139.8,330.9,137.4,337.1,132.7,341.4z M206.9,362c-6.6,6.4-15.8,9.7-27.7,9.7h-23.1v-71.4h24.7c11.5,0,20.3,2.9,26.5,8.8
			c6.2,5.9,9.4,14.3,9.4,25.4C216.7,346.3,213.5,355.5,206.9,362z M276.7,315.7h-23.2v13.6h21.4v15.5h-21.4v26.8h-19v-71.4h42.2
			V315.7z"/>
	</g>
</g>
</svg>
