<svg height="500" viewBox="0 0 500 500" width="500" xmlns="http://www.w3.org/2000/svg"><path d="m312.319695 249.528883 116.304629-116.305491c5.910773-5.910774 5.910773-15.494738 0-21.405511l-41.38534-41.3844773c-5.910774-5.9112049-15.493875-5.9112049-21.405943 0l-116.304628 116.3046283-116.304629-116.3046283c-5.911205-5.9112049-15.494737-5.9112049-21.405942 0l-41.3844772 41.3844773c-5.9112048 5.910773-5.9112048 15.494737 0 21.405511l116.3050602 116.305491-116.3050602 116.304197c-5.9112048 5.911636-5.9112048 15.494738 0 21.406806l41.3844772 41.384477c2.955386 2.954955 6.828855 4.433295 10.702755 4.433295s7.747369-1.47834 10.703187-4.433295l116.304629-116.304629 116.304628 116.304629c2.95625 2.954955 6.829719 4.433295 10.703619 4.433295s7.747369-1.47834 10.702324-4.433295l41.38534-41.384477c5.910773-5.911637 5.910773-15.494738 0-21.406806z" transform="matrix(.70710678 .70710678 -.70710678 .70710678 249.528786 -103.358122)"/></svg>