<?xml version="1.0" encoding="UTF-8"?>
<svg width="600px" height="500px" viewBox="0 0 600 500" version="1.1" xmlns="http://www.w3.org/2000/svg" xmlns:xlink="http://www.w3.org/1999/xlink">
    <!-- Generator: Sketch 52.6 (67491) - http://www.bohemiancoding.com/sketch -->
    <title>prediction</title>
    <desc>Created with Sketch.</desc>
    <g id="prediction" stroke="none" stroke-width="1" fill="none" fill-rule="evenodd">
        <path d="M333.524784,251.545502 C328.406628,249.330969 323.169164,249.285986 317.808934,251.410554 C312.450432,253.535121 308.665418,257.157958 306.452161,262.279066 C304.195677,267.502249 304.114409,272.754844 306.210086,278.045502 C308.305764,283.337889 311.961095,287.112976 317.179539,289.369031 C322.396254,291.626817 327.651009,291.708131 332.936888,289.611246 C338.226225,287.51436 341.995677,283.85519 344.252161,278.635467 C346.465418,273.51263 346.512104,268.272145 344.388761,262.908824 C342.265418,257.548962 338.642939,253.760035 333.524784,251.545502" id="Fill-1" fill="#2E4057"></path>
        <path d="M242.267032,99.9814879 C231.847435,95.4745675 221.356945,95.3136678 210.795562,99.500519 C200.234179,103.68737 192.70219,110.993599 188.196138,121.419204 C183.691816,131.84481 183.531009,142.341349 187.715447,152.908824 C191.899885,163.474567 199.203631,171.01263 209.621499,175.52128 C220.041095,180.028201 230.533314,180.1891 241.092968,176.002249 C251.654352,171.815398 259.188069,164.507439 263.692392,154.083564 C268.196715,143.656228 268.357522,133.159689 264.173084,122.593945 C259.988646,112.026471 252.686628,104.488408 242.267032,99.9814879" id="Fill-3" fill="#2E4057"></path>
        <path d="M397.800865,450.343772 C400.002017,463.182872 403.40317,476.272837 408.014697,489.714014 C409.67464,494.400865 410.943804,498.400865 410.943804,498.793599 C410.943804,499.084256 355.014121,499.378374 286.685014,499.378374 L162.426225,499.378374 L162.815274,495.957958 C163.399712,490.784948 161.25389,477.217474 159.104611,472.234775 C156.177233,465.693253 151.683285,461.494291 145.927089,459.833391 C139.482709,458.079066 134.79683,457.589446 112.738617,456.416436 C84.8221902,454.852422 73.304611,452.705363 60.7132565,446.260727 C50.8538905,441.279758 44.4129683,432.494291 41.9714697,420.874913 C40.6037464,414.239965 41.1881844,408.186332 44.018732,400.080796 C45.0959654,396.954498 46.0711816,392.758997 46.1662824,390.707093 C46.2648415,387.290138 45.7755043,386.411246 40.6988473,381.724394 C34.2579251,375.670761 33.770317,373.426817 37.5778098,366.688062 C40.9927954,360.828201 40.6988473,358.973529 35.6239193,354.286678 C30.2567723,349.402595 30.1616715,347.746886 34.1610951,335.833391 C37.5778098,325.779758 37.9685879,318.847232 35.3334294,316.404325 C34.2631124,315.525433 30.5507205,314.451038 26.5512968,313.963149 C11.4216138,312.013322 -0.000864553314,303.518512 -0.000864553314,294.046194 C-0.000864553314,290.435467 5.85216138,280.381834 19.515562,260.658651 C34.937464,238.397405 45.0907781,222.871453 47.3351585,218.089446 C49.970317,212.234775 49.7766571,211.357612 44.214121,202.957958 C40.5069164,197.390484 40.5069164,197.295329 40.2129683,186.163841 C38.7501441,137.343772 59.732853,88.4285467 95.6567723,57.283218 C132.55245,25.2572664 183.312104,7.1932526 251.35072,2.02024221 C262.377233,1.14134948 303.569741,2.41124567 314.314409,3.87318339 C339.787608,7.39221453 360.775504,13.4458478 380.686167,23.0115917 C432.220461,47.8126298 462.483285,89.6015571 473.613545,151.30917 C476.055043,164.97872 477.12536,198.077336 475.465418,208.034083 C473.414697,219.971799 469.463689,231.539273 461.689625,247.002941 C458.153602,245.390484 454.420461,244.535813 450.670029,244.535813 C446.687896,244.535813 442.733429,245.504671 439.225072,247.340311 C430.783573,251.764187 425.743228,260.464879 425.743228,270.591176 L425.689625,309.541003 C424.275216,311.97872 423.127089,313.97699 422.362824,315.333391 C421.363401,317.15 420.391643,318.961419 419.44755,320.772837 C397.48098,320.255536 369.995101,318.141349 345.780692,310.336851 C345.773775,308.952768 345.758213,307.504671 345.734006,305.97699 C348.562824,304.286678 351.139193,302.369723 353.463112,300.227855 C368.724207,305.082526 376.697118,306.722664 377.376657,305.15173 L386.290202,284.532353 C386.968012,282.961419 380.314409,278.276298 366.325937,270.47699 C366.277522,267.077336 365.909222,263.887024 365.217579,260.909516 C375.019885,251.97872 380.452738,246.286678 381.51268,243.831661 C381.683862,243.438927 381.635447,243.009862 381.370893,242.546194 C372.561095,230.577336 367.959942,224.508131 367.567435,224.338581 L366.555908,224.250346 C360.792795,226.537543 353.898847,230.080796 345.879251,234.888754 C344.00317,233.843772 342.569741,233.106747 341.589337,232.682872 C340.608934,232.258997 339.094236,231.720934 337.045245,231.066955 C336.562824,228.409516 335.442363,223.992561 333.68732,217.81436 C331.930548,211.634429 330.661383,208.374913 329.87464,208.035813 C329.677522,207.951038 327.867147,208.098097 324.438329,208.48045 C321.011239,208.864533 317.393948,209.279758 313.586455,209.731315 C309.780692,210.182872 307.636599,210.421626 307.159366,210.447578 C306.638905,210.572145 306.294813,210.831661 306.12536,211.224394 C305.065418,213.679412 304.638329,221.535813 304.84755,234.795329 C302.202017,236.333391 299.625648,238.250346 297.118444,240.546194 C281.857349,235.691522 273.884438,234.049654 273.204899,235.622318 L264.291354,256.239965 C264.163401,256.537543 264.301729,256.949308 264.697695,257.470069 C256.501729,260.857612 250.958213,269.018512 251.094813,278.124048 C251.637752,314.006401 260.7,345.639619 278.030836,372.14827 C292.417003,394.14308 312.421037,412.497751 337.494813,426.707093 C357.879251,438.257266 379.062536,445.624048 397.800865,450.343772 Z M245.265994,238.397405 C247.129971,239.203633 252.246398,237.949308 260.613545,234.632699 C268.978963,231.31782 274.927089,228.675952 278.457925,226.705363 C279.443516,226.31609 280.19049,225.532353 280.698847,224.354152 C281.082709,223.468339 281.162248,222.338581 280.942651,220.961419 C278.288473,212.004671 276.312104,204.449308 275.011816,198.291869 C278.814121,195.158651 281.997406,192.106747 284.563401,189.137889 L308.914409,195.473529 C309.839481,195.757266 310.84928,195.582526 311.938617,194.947578 C313.027954,194.3109 313.787032,193.502941 314.210663,192.520242 L325.991066,165.272837 C326.457925,164.194983 326.527089,163.087716 326.202017,161.956228 C325.873487,160.82474 325.261383,159.947578 324.365706,159.326471 L303.446974,146.260727 C303.811816,142.454498 303.884438,137.707093 303.663112,132.018512 C306.070029,130.494291 309.55245,128.502941 314.108646,126.046194 C318.6683,123.589446 321.875793,121.829931 323.731124,120.767647 C324.886167,119.98564 325.633141,119.200173 325.973775,118.414706 C327.120173,115.764187 323.445821,104.854152 314.955908,85.6794118 C314.314409,84.4700692 313.455043,83.632699 312.374352,83.1638408 C311.195101,82.6551903 310.065994,82.5738754 308.983573,82.9216263 L285.939769,88.5150519 C282.810086,84.7122837 279.785879,81.5980969 276.870605,79.1742215 L283.226801,55.1742215 C283.553602,54.15 283.434294,53.0790657 282.868876,51.9596886 C282.303458,50.8420415 281.480403,50.049654 280.401441,49.582526 L253.014121,37.7365052 C250.757637,36.7589965 248.774352,37.3022491 247.069452,39.3610727 C243.93804,43.3679931 239.540922,50.4389273 233.876369,60.5773356 C229.064265,60.1257785 224.604899,60.0617647 220.501729,60.3852941 L209.300576,39.8074394 C208.61585,38.6949827 207.734006,37.9060554 206.653314,37.4389273 C204.789337,36.632699 199.657349,37.8524221 191.264265,41.0963668 C182.869452,44.3420415 176.955908,46.9700692 173.52536,48.98391 C172.496542,49.4717993 171.728818,50.3039792 171.218732,51.4821799 C170.838329,52.366263 170.757061,53.4977509 170.976657,54.8731834 C173.630836,63.8299308 175.607205,71.3870242 176.907493,77.5444637 C173.105187,80.6776817 169.921902,83.7295848 167.355908,86.6984429 L143.004899,80.3628028 C142.078098,80.0773356 141.071758,80.2538062 139.980692,80.8887543 C138.889625,81.5254325 138.132277,82.333391 137.708646,83.31609 L125.928242,110.563495 C125.463112,111.64308 125.393948,112.748616 125.71902,113.880104 C126.045821,115.013322 126.676945,115.840311 127.617579,116.361073 L148.472334,129.577336 C148.036599,133.81782 148.012392,138.585986 148.401441,143.883564 C145.897695,145.362803 142.295965,147.361073 137.597983,149.873183 C132.901729,152.387024 129.761671,154.118858 128.188184,155.068685 C127.07464,155.752076 126.327666,156.537543 125.945533,157.419896 C124.800865,160.072145 128.471758,170.98391 136.961671,190.15692 C137.60317,191.366263 138.464265,192.205363 139.544957,192.672491 C140.821037,193.224394 141.950144,193.303979 142.934006,192.914706 L165.97781,187.32128 C169.109222,191.124048 172.133429,194.238235 175.046974,196.663841 L168.692507,220.662111 C168.363977,221.686332 168.485014,222.757266 169.050432,223.876644 C169.614121,224.994291 170.437176,225.786678 171.517867,226.253806 L198.905187,238.099827 C201.163401,239.077336 203.143228,238.535813 204.849856,236.47699 C208.022767,232.371453 212.442363,225.248616 218.105187,215.111938 C222.540346,215.632699 226.978963,215.745156 231.417579,215.449308 L242.620461,236.030623 C243.303458,237.139619 244.187032,237.930277 245.265994,238.397405 Z" id="Combined-Shape" fill="#2E4057"></path>
        <path d="M599.835908,386.189446 L460.30219,287.705017 L460.208818,355.371107 L443.054352,355.483564 C408.347723,355.706747 337.366167,356.179066 292.293545,321.689446 C295.807089,333.08737 300.705648,343.611592 306.970202,353.192907 C318.304496,370.523356 334.309107,385.125433 354.537925,396.5891 C388.348876,415.74827 425.36732,421.596021 444.422075,423.376298 L460.12928,424.845156 L460.037637,484.407439 L599.835908,386.189446 Z" id="Fill-8" fill="#2E4057"></path>
    </g>
</svg>