<?xml version="1.0" encoding="utf-8"?>
<!-- Generator: Adobe Illustrator 26.0.3, SVG Export Plug-In . SVG Version: 6.00 Build 0)  -->
<svg version="1.1" id="Ebene_1" xmlns="http://www.w3.org/2000/svg" xmlns:xlink="http://www.w3.org/1999/xlink" x="0px" y="0px"
	 viewBox="0 0 500 500" style="enable-background:new 0 0 500 500;" xml:space="preserve">
<desc>Created with Sketch.</desc>
<path d="M495.4,27.4c-0.8-1-1.8-1.9-2.8-2.8c-3.5-2.9-8-4.6-12.9-4.6h0H20.3h0c-4.9,0-9.4,1.7-12.9,4.6c-1,0.8-1.9,1.8-2.8,2.8
	C1.7,30.9,0,35.4,0,40.3v0v59.3v0c0,4.9,1.7,9.4,4.6,12.9c0.8,1,1.8,1.9,2.8,2.8c3.5,2.9,8,4.6,12.9,4.6h0H40v240c-11,0-20,9-20,20
	s9,20,20,20h161.7l-65.9,65.9c-7.8,7.8-7.8,20.5,0,28.3c3.9,3.9,9,5.9,14.1,5.9s10.2-2,14.1-5.9l85.9-85.9l85.9,85.9
	c3.9,3.9,9,5.9,14.1,5.9s10.2-2,14.1-5.9c7.8-7.8,7.8-20.5,0-28.3L298.3,400H460c11,0,20-9,20-20s-9-20-20-20V120h19.7h0
	c4.9,0,9.4-1.7,12.9-4.6c1-0.8,1.9-1.8,2.8-2.8c2.9-3.5,4.6-8,4.6-12.9v0V40.3v0C500,35.4,498.3,30.9,495.4,27.4z M420,360H250
	c0,0,0,0,0,0H80V120h340V360z"/>
</svg>
