<?xml version="1.0" encoding="utf-8"?>
<!-- Generator: Adobe Illustrator 26.0.3, SVG Export Plug-In . SVG Version: 6.00 Build 0)  -->
<svg version="1.1" id="Ebene_1" xmlns="http://www.w3.org/2000/svg" xmlns:xlink="http://www.w3.org/1999/xlink" x="0px" y="0px"
	 viewBox="0 0 500 500" style="enable-background:new 0 0 500 500;" xml:space="preserve">
<style type="text/css">
	.st0{fill-rule:evenodd;clip-rule:evenodd;stroke:#000000;stroke-width:40;stroke-miterlimit:10;}
</style>
<desc>Created with Sketch.</desc>
<g id="expand">
	
		<g id="angle-up" transform="translate(250.000000, 250.000000) rotate(-90.000000) translate(-250.000000, -250.000000) translate(88.000000, 155.000000)">
		<path id="Path" class="st0" d="M355.6,178.4c0,2.8-1.1,5.3-3.2,7.5l-16.2,16.3c-2.2,2.2-4.7,3.3-7.5,3.3s-5.3-1.1-7.5-3.3
			l-159-159.7L2.9,202.6c-2.2,2.2-4.7,3.3-7.5,3.3s-5.3-1.1-7.5-3.3l-16.2-16.3c-2.2-2.2-3.2-4.7-3.2-7.5c0-2.8,1.1-5.3,3.2-7.5
			l183-183.9c2.2-2.2,4.7-3.3,7.5-3.3s5.3,1.1,7.5,3.3l182.7,183.5C354.5,173.1,355.6,175.6,355.6,178.4z"/>
	</g>
</g>
<desc>Created with Sketch.</desc>
</svg>
