<?xml version="1.0" encoding="UTF-8"?>
<svg width="500px" height="500px" viewBox="0 0 500 500" version="1.1" xmlns="http://www.w3.org/2000/svg" xmlns:xlink="http://www.w3.org/1999/xlink">
    <!-- Generator: Sketch 52.6 (67491) - http://www.bohemiancoding.com/sketch -->
    <title>protokoll</title>
    <desc>Created with Sketch.</desc>
    <g id="protokoll" stroke="none" stroke-width="1" fill="none" fill-rule="evenodd">
        <path d="M221.700156,100.778635 L490.120233,100.778635 C495.415138,100.778635 499.706664,105.027378 499.706664,110.267144 L499.706664,154.546856 C499.706664,159.787676 495.415138,164.035365 490.120233,164.035365 L221.700156,164.035365 C216.405251,164.035365 212.113725,159.787676 212.113725,154.546856 L212.113725,110.267144 C212.113725,105.027378 216.405251,100.778635 221.700156,100.778635" id="Fill-1" fill="#000000"></path>
        <path d="M61.3661343,239.943442 L112.549156,239.943442 C121.652005,239.943442 129.031427,247.247486 129.031427,256.257353 L129.031427,306.91756 C129.031427,315.927427 121.652005,323.23147 112.549156,323.23147 L61.3661343,323.23147 C52.2632852,323.23147 44.8838634,315.927427 44.8838634,306.91756 L44.8838634,256.257353 C44.8838634,247.247486 52.2632852,239.943442 61.3661343,239.943442" id="Fill-4" fill="#000000"></path>
        <path d="M61.3661343,388.597286 L112.549156,388.597286 C121.652005,388.597286 129.031427,395.90133 129.031427,404.911197 L129.031427,455.570349 C129.031427,464.580216 121.652005,471.885314 112.549156,471.885314 L61.3661343,471.885314 C52.2632852,471.885314 44.8838634,464.580216 44.8838634,455.570349 L44.8838634,404.911197 C44.8838634,395.90133 52.2632852,388.597286 61.3661343,388.597286" id="Fill-6" fill="#000000"></path>
        <path d="M221.700156,249.431951 L490.120233,249.431951 C495.415138,249.431951 499.706664,253.680695 499.706664,258.920461 L499.706664,303.200172 C499.706664,308.440993 495.415138,312.688682 490.120233,312.688682 L221.700156,312.688682 C216.405251,312.688682 212.113725,308.440993 212.113725,303.200172 L212.113725,258.920461 C212.113725,253.680695 216.405251,249.431951 221.700156,249.431951" id="Fill-9" fill="#000000"></path>
        <path d="M221.700156,398.085795 L490.120233,398.085795 C495.415138,398.085795 499.706664,402.333485 499.706664,407.574305 L499.706664,451.854016 C499.706664,457.094837 495.415138,461.342526 490.120233,461.342526 L221.700156,461.342526 C216.405251,461.342526 212.113725,457.094837 212.113725,451.854016 L212.113725,407.574305 C212.113725,402.333485 216.405251,398.085795 221.700156,398.085795" id="Fill-12" fill="#000000"></path>
        <path d="M180.312337,94.4503258 C179.623179,92.3512566 177.79004,90.821498 175.583031,90.5041601 L120.181979,82.5359206 L95.4063801,32.8467044 C94.4189777,30.8678231 92.3834588,29.6142855 90.1530158,29.6142855 C87.9225728,29.6142855 85.8870539,30.8678231 84.8996514,32.8467044 L60.1240523,82.5359206 L4.72300073,90.5041601 C2.51599121,90.821498 0.682852516,92.3512566 -0.00630537814,94.4503258 C-0.695463272,96.549395 -0.121342554,98.8540485 1.476396,100.39435 L41.5647214,139.071624 L32.1007833,193.685376 C31.7237171,195.860353 32.6269719,198.059579 34.4313513,199.356342 C36.2367959,200.654159 38.6280779,200.826007 40.6007524,199.798085 L90.1530158,174.012533 L139.704214,199.798085 C140.562732,200.244045 141.497942,200.464389 142.431021,200.464389 C143.645302,200.464389 144.854258,200.09012 145.87468,199.356342 C147.67906,198.059579 148.582315,195.860353 148.205248,193.685376 L138.74131,139.071624 L178.829636,100.39435 C180.426309,98.8540485 181.001495,96.549395 180.312337,94.4503258" id="Fill-15" fill="#000000"></path>
    </g>
</svg>