<?xml version="1.0" encoding="utf-8"?>
<!-- Generator: Adobe Illustrator 27.2.0, SVG Export Plug-In . SVG Version: 6.00 Build 0)  -->
<svg version="1.1" id="Ebene_1" xmlns="http://www.w3.org/2000/svg" xmlns:xlink="http://www.w3.org/1999/xlink" x="0px" y="0px"
	 viewBox="0 0 500 500" style="enable-background:new 0 0 500 500;" xml:space="preserve">
<path d="M456.3,173.3l16.9-16.9c35.8-35.8,35.8-93.8,0-129.6s-93.8-35.8-129.6,0l-16.9,16.9L456.3,173.3z"/>
<rect x="277.8" y="80.6" transform="matrix(0.7071 -0.7071 0.7071 0.7071 -25.7266 282.2369)" width="100" height="183.2"/>
<path d="M493.7,465.3L329,300.6L199.4,171L34.7,6.3c-7.8-7.8-20.5-7.8-28.3,0s-7.8,20.5,0,28.3l164.8,164.8l-126,126
	c-2.5,2.5-4.3,5.6-5.3,9L0.8,473.9c-4.3,15.4,9.9,29.6,25.3,25.3l139.6-39.1c3.4-0.9,6.4-2.7,8.9-5.2l126-126l164.8,164.8
	c7.8,7.8,20.5,7.8,28.3,0C501.5,485.8,501.5,473.1,493.7,465.3z"/>
</svg>
