<?xml version="1.0" encoding="UTF-8"?>
<svg width="500px" height="500px" viewBox="0 0 500 500" version="1.1" xmlns="http://www.w3.org/2000/svg" xmlns:xlink="http://www.w3.org/1999/xlink">
    <!-- Generator: Sketch 52.6 (67491) - http://www.bohemiancoding.com/sketch -->
    <title>related</title>
    <desc>Created with Sketch.</desc>
    <g id="related" stroke="none" stroke-width="1" fill="none" fill-rule="evenodd">
        <g id="Group" transform="translate(0.000000, 3.000000)" fill="#020203">
            <path d="M46.1538462,181.318681 L181.318681,181.318681 L181.318681,46.1538462 L46.1538462,46.1538462 L46.1538462,181.318681 Z M20.1138148,225.274725 C9.00541903,225.274725 0,216.269306 0,205.160911 L0,20.1138148 C0,9.00541903 9.00541903,0 20.1138148,0 L205.160911,0 C216.269306,0 225.274725,9.00541903 225.274725,20.1138148 L225.274725,205.160911 C225.274725,216.269306 216.269306,225.274725 205.160911,225.274725 L20.1138148,225.274725 Z" id="Fill-1-Copy-4"></path>
            <path d="M320.879121,453.043956 L456.043956,453.043956 L456.043956,317.879121 L320.879121,317.879121 L320.879121,453.043956 Z M294.839089,497 C283.730694,497 274.725275,487.994581 274.725275,476.886185 L274.725275,291.839089 C274.725275,280.730694 283.730694,271.725275 294.839089,271.725275 L479.886185,271.725275 C490.994581,271.725275 500,280.730694 500,291.839089 L500,476.886185 C500,487.994581 490.994581,497 479.886185,497 L294.839089,497 Z" id="Fill-1-Copy-5"></path>
        </g>
        <path d="M108.843777,421.480128 C90.0226047,420.089129 71.6514235,412.835155 54.2379159,399.91791 C53.0494775,399.035982 52.6456392,397.438353 53.2721655,396.096991 C53.9009994,394.754475 55.3848167,394.041083 56.8236349,394.389698 C100.453171,404.948594 137.872828,357.030116 156.796691,331.947111 L121.103154,304.547314 C119.173961,303.069738 118.264748,301.0854 118.60628,299.101062 C118.742431,298.313791 119.065502,297.59001 119.553569,296.952805 C120.318554,295.950824 121.490839,295.164707 122.980425,294.68565 L248.920284,255.250535 C248.921438,255.250535 248.923746,255.249381 248.9249,255.249381 C251.14601,254.556767 253.370582,254.892685 255.027473,256.167094 C256.684364,257.440349 257.578577,259.502029 257.48281,261.822285 L252.080607,393.737487 C252.002147,396.266681 250.880631,398.229087 249.005667,399.12025 C247.161857,399.995251 244.993822,399.646636 243.053091,398.162134 L210.898331,373.468147 C202.087733,382.999666 182.451961,401.887241 156.402083,412.979449 C140.448163,419.772835 124.445782,422.63333 108.843777,421.480128" id="Fill-16" fill="#020203" transform="translate(155.234456, 338.312465) rotate(-285.000000) translate(-155.234456, -338.312465) "></path>
    </g>
</svg>