<?xml version="1.0" encoding="UTF-8"?>
<svg width="500px" height="500px" viewBox="0 0 500 500" version="1.1" xmlns="http://www.w3.org/2000/svg" xmlns:xlink="http://www.w3.org/1999/xlink">
    <!-- Generator: Sketch 52.6 (67491) - http://www.bohemiancoding.com/sketch -->
    <title>reorder</title>
    <desc>Created with Sketch.</desc>
    <g id="reorder" stroke="none" stroke-width="1" fill="none" fill-rule="evenodd">
        <path d="M137.578487,152.945035 L14.1836879,152.945035 C6.38345154,152.945035 -0.000709219858,146.562057 -0.000709219858,138.760638 L-0.000709219858,15.3658392 C-0.000709219858,7.56560284 6.38345154,1.18144208 14.1836879,1.18144208 L137.578487,1.18144208 C145.379905,1.18144208 151.762884,7.56560284 151.762884,15.3658392 L151.762884,138.760638 C151.762884,146.562057 145.379905,152.945035 137.578487,152.945035" id="Fill-1" fill="#000000"></path>
        <path d="M484.6987,1.04598109 L361.305083,1.04598109 C353.503664,1.04598109 347.120686,7.42895981 347.120686,15.2303783 L347.120686,138.625177 C347.120686,146.425414 353.503664,152.809574 361.305083,152.809574 L484.6987,152.809574 C492.5013,152.809574 498.883097,146.425414 498.883097,138.625177 L498.883097,15.2303783 C498.883097,7.42895981 492.5013,1.04598109 484.6987,1.04598109 Z M373.125414,126.804846 L472.878369,126.804846 L472.878369,27.0507092 L373.125414,27.0507092 L373.125414,126.804846 Z" id="Fill-7" fill="#000000"></path>
        <path d="M138.6987,343.971513 L15.3050827,343.971513 C7.5036643,343.971513 1.12068558,350.354492 1.12068558,358.15591 L1.12068558,481.550709 C1.12068558,489.350946 7.5036643,495.735106 15.3050827,495.735106 L138.6987,495.735106 C146.5013,495.735106 152.883097,489.350946 152.883097,481.550709 L152.883097,358.15591 C152.883097,350.354492 146.5013,343.971513 138.6987,343.971513 Z M27.1254137,469.730378 L126.878369,469.730378 L126.878369,369.976241 L27.1254137,369.976241 L27.1254137,469.730378 Z" id="Fill-7" fill="#000000"></path>
        <path d="M137.578487,324.676359 L14.1836879,324.676359 C6.38345154,324.676359 -0.000709219858,318.293381 -0.000709219858,310.491962 L-0.000709219858,187.098345 C-0.000709219858,179.296927 6.38345154,172.913948 14.1836879,172.913948 L137.578487,172.913948 C145.379905,172.913948 151.762884,179.296927 151.762884,187.098345 L151.762884,310.491962 C151.762884,318.293381 145.379905,324.676359 137.578487,324.676359" id="Fill-10" fill="#000000"></path>
        <path d="M311.578487,325.482151 L188.183688,325.482151 C180.383452,325.482151 173.999291,319.100355 173.999291,311.297754 L173.999291,187.904137 C173.999291,180.102719 180.383452,173.71974 188.183688,173.71974 L311.578487,173.71974 C319.379905,173.71974 325.762884,180.102719 325.762884,187.904137 L325.762884,311.297754 C325.762884,319.100355 319.379905,325.482151 311.578487,325.482151" id="Fill-13" fill="#000000"></path>
        <path d="M311.578487,153.482151 L188.183688,153.482151 C180.383452,153.482151 173.999291,147.100355 173.999291,139.297754 L173.999291,15.9041371 C173.999291,8.10271868 180.383452,1.71973995 188.183688,1.71973995 L311.578487,1.71973995 C319.379905,1.71973995 325.762884,8.10271868 325.762884,15.9041371 L325.762884,139.297754 C325.762884,147.100355 319.379905,153.482151 311.578487,153.482151" id="Fill-13" fill="#000000"></path>
        <path d="M411.381111,425.568744 C399.067735,434.441504 384.002683,439.471958 366.601883,440.520625 C365.414131,440.591978 364.33999,439.817111 364.032995,438.667399 C363.726825,437.515783 364.272382,436.30954 365.338864,435.78041 C397.671671,419.728001 395.968683,370.882526 394.668493,345.657273 L358.524414,347.238812 C356.5726,347.326356 354.987344,346.574643 354.172609,345.176386 C353.84977,344.621302 353.674882,344.008684 353.646367,343.364077 C353.599998,342.35174 353.916065,341.261762 354.586236,340.19681 L411.798663,250.815891 C411.799374,250.815295 411.800199,250.813391 411.80091,250.812795 C412.81141,249.238218 414.355395,248.295094 416.034498,248.223226 C417.713005,248.150647 419.328976,248.957732 420.468654,250.435762 L485.289813,334.445336 C486.548094,336.043058 486.870989,337.831006 486.176307,339.348892 C485.492467,340.840724 483.976751,341.746805 482.014251,341.836048 L449.448092,343.254203 C448.944442,353.676963 446.605419,375.455844 436.287799,395.750926 C429.968955,408.180457 421.588472,418.213651 411.381111,425.568744 Z" id="Fill-16" fill="#000000"></path>
        <path d="M427.647289,388.963747 C423.592936,405.918091 416.022887,419.880741 405.146729,430.466311 C396.130887,439.241401 384.794864,445.75232 371.45691,449.816801 C349.67852,456.453469 327.824342,454.975094 317.472469,453.661199 L310.420805,485.486345 C309.992133,487.403534 308.836617,488.738883 307.248701,489.15328 C305.633245,489.57383 303.92853,488.945366 302.573579,487.42876 L231.096376,409.004271 C229.838703,407.62525 229.324491,405.89368 229.687436,404.253277 C230.049785,402.612163 231.246691,401.255406 232.972818,400.53368 C232.973529,400.533084 232.975547,400.532602 232.976258,400.532005 L330.934114,359.709597 C332.09926,359.234534 333.227564,359.112542 334.216469,359.333997 C334.846331,359.474014 335.419274,359.752625 335.909864,360.166948 C337.145401,361.212111 337.610417,362.903817 337.185275,364.810776 L329.351409,400.131114 C353.967658,405.791871 401.77534,415.950914 423.19841,386.896787 C423.904693,385.938389 425.187346,385.610583 426.2683,386.112077 C427.347237,386.614053 427.923809,387.80643 427.647289,388.963747 Z" id="Fill-16-Copy" fill="#000000"></path>
    </g>
</svg>