<?xml version="1.0" encoding="UTF-8"?>
<svg width="500px" height="500px" viewBox="0 0 500 500" version="1.1" xmlns="http://www.w3.org/2000/svg" xmlns:xlink="http://www.w3.org/1999/xlink">
    <!-- Generator: Sketch 52.6 (67491) - http://www.bohemiancoding.com/sketch -->
    <title>replace</title>
    <desc>Created with Sketch.</desc>
    <g id="replace" stroke="none" stroke-width="1" fill="none" fill-rule="evenodd">
        <g id="Group" transform="translate(0.000000, 3.000000)" fill="#020203">
            <path d="M46.1538462,181.318681 L181.318681,181.318681 L181.318681,46.1538462 L46.1538462,46.1538462 L46.1538462,181.318681 Z M20.1138148,225.274725 C9.00541903,225.274725 0,216.269306 0,205.160911 L0,20.1138148 C0,9.00541903 9.00541903,0 20.1138148,0 L205.160911,0 C216.269306,0 225.274725,9.00541903 225.274725,20.1138148 L225.274725,205.160911 C225.274725,216.269306 216.269306,225.274725 205.160911,225.274725 L20.1138148,225.274725 Z" id="Fill-1-Copy-4"></path>
            <path d="M320.879121,453.043956 L456.043956,453.043956 L456.043956,317.879121 L320.879121,317.879121 L320.879121,453.043956 Z M294.839089,497 C283.730694,497 274.725275,487.994581 274.725275,476.886185 L274.725275,291.839089 C274.725275,280.730694 283.730694,271.725275 294.839089,271.725275 L479.886185,271.725275 C490.994581,271.725275 500,280.730694 500,291.839089 L500,476.886185 C500,487.994581 490.994581,497 479.886185,497 L294.839089,497 Z" id="Fill-1-Copy-5"></path>
        </g>
        <path d="M287.007484,238.844046 C268.186311,237.453047 249.81513,230.199073 232.401622,217.281828 C231.213184,216.3999 230.809346,214.802271 231.435872,213.460909 C232.064706,212.118393 233.548523,211.405001 234.987341,211.753616 C278.616878,222.312512 316.036535,174.394034 334.960397,149.31103 L299.266861,121.911232 C297.337667,120.433657 296.428454,118.449318 296.769986,116.46498 C296.906137,115.677709 297.229208,114.953928 297.717275,114.316723 C298.482261,113.314742 299.654545,112.528626 301.144132,112.049568 L427.083991,72.6144536 C427.085145,72.6144536 427.087452,72.6132992 427.088606,72.6132992 C429.309717,71.9206855 431.534289,72.2566032 433.19118,73.5310123 C434.84807,74.8042672 435.742284,76.8659472 435.646517,79.1862031 L430.244314,211.101405 C430.165854,213.6306 429.044337,215.593005 427.169374,216.484168 C425.325563,217.35917 423.157529,217.010554 421.216797,215.526052 L389.062038,190.832066 C380.25144,200.363584 360.615668,219.25116 334.56579,230.343368 C318.611869,237.136754 302.609488,239.997248 287.007484,238.844046" id="Fill-16-Copy" fill="#020203" transform="translate(333.398162, 155.676383) scale(-1, 1) rotate(-194.000000) translate(-333.398162, -155.676383) "></path>
    </g>
</svg>