<?xml version="1.0" encoding="utf-8"?>
<!-- Generator: Adobe Illustrator 25.4.1, SVG Export Plug-In . SVG Version: 6.00 Build 0)  -->
<svg version="1.1" id="Ebene_1" xmlns="http://www.w3.org/2000/svg" xmlns:xlink="http://www.w3.org/1999/xlink" x="0px" y="0px"
	 viewBox="0 0 500 500" style="enable-background:new 0 0 500 500;" xml:space="preserve">
<style type="text/css">
	.st0{fill-rule:evenodd;clip-rule:evenodd;}
</style>
<desc>Created with Sketch.</desc>
<path class="st0" d="M322.6,500H177.4c-13.6,0-23.3-13.2-19.2-26.1l12.4-39.7c2.6-8.4,10.4-14.1,19.2-14.1h120.4
	c8.8,0,16.6,5.7,19.2,14.1l12.4,39.7C345.9,486.8,336.2,500,322.6,500z"/>
<path class="st0" d="M380,460H120c-11.1,0-20,9-20,20v20h300v-20C400,469,391,460,380,460z"/>
<g id="Fill-4_00000005965592293256465480000015239876957906206115_">
	<path class="st0" d="M142.4,160.1C162.9,117,196,85.2,212.7,71l-39.3-55.9c-2.4-3.4-2.8-7-1.2-10.1c1.6-3.1,5-4.9,9.3-4.8l222.3,0
		c3.9,0,7.3,1.6,9.3,4.5c2,2.9,2.4,6.7,1.1,10.3c0,0,0,0,0,0l-75.1,209.5c-0.9,2.5-2.3,4.4-4.1,5.6c-1.1,0.8-2.3,1.3-3.7,1.4
		c-3.4,0.4-6.6-1.2-9-4.6l-43.6-62c-43.5,30.1-126.7,89.9-112,164.1c0.5,2.4-0.8,4.9-3.1,5.9c-2.3,1-5,0.2-6.4-1.9
		c-20.5-30.2-31.4-61.7-32.5-93.5C123.9,213.3,129.9,186.5,142.4,160.1z"/>
</g>
<path class="st0" d="M40,360.5v40h190c0-11,9-20,20-20s20,9,20,20h190v-40H40z"/>
<ellipse class="st0" cx="248.8" cy="398.2" rx="32.5" ry="27.2"/>
<path d="M480,84h-48l-14.3,40H460v276H270c0,0.2,0,0.3,0,0.5c0,11-9,20-20,20s-20-9-20-20c0-0.2,0-0.3,0-0.5H40V124h76.3
	c8.6-14.9,18.3-28.3,27.9-40H20c-11,0-20,8.9-20,20V420c0,11,8.9,20,20,20H480c11,0,20-8.9,20-20V104C500,92.9,491.1,84,480,84z"/>
</svg>
