<?xml version="1.0" encoding="utf-8"?>
<!-- Generator: Adobe Illustrator 25.4.1, SVG Export Plug-In . SVG Version: 6.00 Build 0)  -->
<svg version="1.1" id="Ebene_1" xmlns="http://www.w3.org/2000/svg" xmlns:xlink="http://www.w3.org/1999/xlink" x="0px" y="0px"
	 viewBox="0 0 500 500" style="enable-background:new 0 0 500 500;" xml:space="preserve">
<desc>Created with Sketch.</desc>
<path d="M456,94.2c2,2,3.9,4.5,5.9,7.5h-98.8V3c3.1,2,5.6,3.9,7.5,5.9L456,94.2z"/>
<path d="M367,125.6c-7.4,0-13.8-2.6-19-7.8c-5.2-5.2-7.8-11.5-7.8-19L339.9,0H62.8c-7.4,0-13.8,2.6-19,7.8S36,19.3,36,26.8v446.4
	c0,7.4,2.6,13.8,7.8,19c5.2,5.2,11.5,7.8,19,7.8h375c7.4,0,13.8-2.6,19-7.8c5.2-5.2,7.8-11.5,7.8-19l0.3-347.7H367z M333.6,311.7
	c0-1.6,1.5-2.8,3.1-2.5c18,4,32.2,18.2,36.2,36.2c0.4,1.6-0.9,3.1-2.5,3.1h-34.3c-1.4,0-2.5-1.1-2.5-2.5V311.7z M292.9,170.3
	c1.7-2.1,3.8-3.1,6.4-3.1h17.9c2.6,0,4.7,1,6.4,3.1c1.7,2.1,2.5,4.8,2.5,8l0,77.2c0,3.3-0.8,5.9-2.5,8s-3.8,3.1-6.4,3.1h-17.9
	c-2.6,0-4.7-1-6.4-3.1c-1.7-2.1-2.5-4.8-2.5-8l0-77.2C290.4,175,291.2,172.3,292.9,170.3z M177.1,148c1.7-2.1,3.8-3.1,6.4-3.1h17.9
	c2.6,0,4.7,1,6.4,3.1c1.7,2.1,2.5,4.8,2.5,8l0.1,99.5c0,3.3-0.8,5.9-2.5,8c-1.7,2.1-3.8,3.1-6.4,3.1h-17.9c-2.6,0-4.7-1-6.4-3.1
	c-1.7-2.1-2.5-4.8-2.5-8l-0.1-99.5C174.6,152.7,175.4,150.1,177.1,148z M119.1,217.1c1.7-2.1,3.8-3.1,6.4-3.1h17.9
	c2.6,0,4.7,1,6.4,3.1c1.7,2.1,2.5,4.8,2.5,8l0.1,30.3c0,3.3-0.8,5.9-2.5,8c-1.7,2.1-3.8,3.1-6.4,3.1h-17.9c-2.6,0-4.7-1-6.4-3.1
	c-1.7-2.1-2.5-4.8-2.5-8l-0.1-30.3C116.6,221.9,117.4,219.2,119.1,217.1z M250,395.1c0,2.6-0.5,4.7-1.6,6.4s-2.4,2.5-4,2.5H121.7
	c-1.6,0-3-0.8-4-2.5s-1.6-3.8-1.6-6.4v-17.9c0-2.6,0.5-4.7,1.6-6.4c1-1.7,2.4-2.5,4-2.5h122.8c1.6,0,3,0.8,4,2.5
	c1,1.7,1.6,3.8,1.6,6.4V395.1z M250,334.9c0,2.6-0.5,4.7-1.6,6.4c-1,1.7-2.4,2.5-4,2.5H121.7c-1.6,0-3-0.8-4-2.5
	c-1-1.7-1.6-3.8-1.6-6.4V317c0-2.6,0.5-4.7,1.6-6.4c1-1.7,2.4-2.5,4-2.5h122.8c1.6,0,3,0.8,4,2.5c1,1.7,1.6,3.8,1.6,6.4V334.9z
	 M265.7,263.5c-1.7,2.1-3.8,3.1-6.4,3.1h-17.9c-2.6,0-4.7-1-6.4-3.1c-1.7-2.1-2.5-4.8-2.5-8l0-49.7c0-3.3,0.8-5.9,2.5-8
	c1.7-2.1,3.8-3.1,6.4-3.1h17.9c2.6,0,4.7,1,6.4,3.1c1.7,2.1,2.5,4.8,2.5,8l0,49.7C268.2,258.7,267.4,261.4,265.7,263.5z
	 M372.9,366.6c-5,22.1-25.3,38.5-49.2,37.3c-24.5-1.2-44.3-21-45.5-45.5c-1.2-23.9,15.2-44.2,37.3-49.2c1.6-0.4,3.1,0.9,3.1,2.5V356
	c0,4.1,3.4,7.5,7.5,7.5h44.3C372,363.5,373.2,365,372.9,366.6z M381.5,263.5c-1.7,2.1-3.8,3.1-6.4,3.1h-17.9c-2.6,0-4.7-1-6.4-3.1
	c-1.7-2.1-2.5-4.8-2.5-8l0-35.9c0-3.3,0.8-5.9,2.5-8c1.7-2.1,3.8-3.1,6.4-3.1H375c2.6,0,4.7,1,6.4,3.1c1.7,2.1,2.5,4.8,2.5,8l0,35.9
	C384,258.7,383.2,261.4,381.5,263.5z"/>
</svg>
