<?xml version="1.0" encoding="UTF-8"?>
<svg width="500px" height="500px" viewBox="0 0 500 500" version="1.1" xmlns="http://www.w3.org/2000/svg" xmlns:xlink="http://www.w3.org/1999/xlink">
    <!-- Generator: Sketch 52.4 (67378) - http://www.bohemiancoding.com/sketch -->
    <title>reset</title>
    <desc>Created with Sketch.</desc>
    <defs>
        <path d="M500,41.6666667 L500,187.5 C500,193.142361 497.938368,198.025174 493.815104,202.148438 C489.69184,206.271701 484.809028,208.333333 479.166667,208.333333 L333.333333,208.333333 C324.21875,208.333333 317.81684,203.993056 314.127604,195.3125 C310.438368,186.848958 311.957465,179.361979 318.684896,172.851562 L363.606771,127.929688 C331.488715,98.1987847 293.619792,83.3333333 250,83.3333333 C227.430556,83.3333333 205.891927,87.7278646 185.384115,96.5169271 C164.876302,105.30599 147.135417,117.1875 132.161458,132.161458 C117.1875,147.135417 105.30599,164.876302 96.5169271,185.384115 C87.7278646,205.891927 83.3333333,227.430556 83.3333333,250 C83.3333333,272.569444 87.7278646,294.108073 96.5169271,314.615885 C105.30599,335.123698 117.1875,352.864583 132.161458,367.838542 C147.135417,382.8125 164.876302,394.69401 185.384115,403.483073 C205.891927,412.272135 227.430556,416.666667 250,416.666667 C275.824653,416.666667 300.238715,411.024306 323.242188,399.739583 C346.24566,388.454861 365.668403,372.50434 381.510417,351.888021 C383.029514,349.717882 385.525174,348.415799 388.997396,347.981771 C392.252604,347.981771 394.965278,348.958333 397.135417,350.911458 L441.731771,395.833333 C443.684896,397.569444 444.715712,399.793837 444.824219,402.50651 C444.932726,405.219184 444.118924,407.66059 442.382812,409.830729 C418.728299,438.476562 390.082465,460.666233 356.445312,476.39974 C322.80816,492.133247 287.326389,500 250,500 C216.145833,500 183.810764,493.381076 152.994792,480.143229 C122.178819,466.905382 95.5946181,449.110243 73.2421875,426.757812 C50.8897569,404.405382 33.0946181,377.821181 19.8567708,347.005208 C6.61892361,316.189236 0,283.854167 0,250 C0,216.145833 6.61892361,183.810764 19.8567708,152.994792 C33.0946181,122.178819 50.8897569,95.5946181 73.2421875,73.2421875 C95.5946181,50.8897569 122.178819,33.0946181 152.994792,19.8567708 C183.810764,6.61892361 216.145833,0 250,0 C281.901042,0 312.771267,6.02213542 342.610677,18.0664062 C372.450087,30.1106771 398.980035,47.0920139 422.200521,69.0104167 L464.518229,27.0182292 C470.811632,20.2907986 478.407118,18.7717014 487.304688,22.4609375 C495.768229,26.1501736 500,32.5520833 500,41.6666667 Z" id="path-1"></path>
    </defs>
    <g id="reset" stroke="none" stroke-width="1" fill="none" fill-rule="evenodd">
        <mask id="mask-2" fill="white">
            <use xlink:href="#path-1"></use>
        </mask>
        <use id="Path" fill="#000000" transform="translate(250.000000, 250.000000) scale(-1, 1) translate(-250.000000, -250.000000) " xlink:href="#path-1"></use>
    </g>
</svg>