<?xml version="1.0" encoding="UTF-8"?>
<svg width="500px" height="500px" viewBox="0 0 500 500" version="1.1" xmlns="http://www.w3.org/2000/svg" xmlns:xlink="http://www.w3.org/1999/xlink">
    <!-- Generator: Sketch 49.2 (51160) - http://www.bohemiancoding.com/sketch -->
    <title>save2</title>
    <desc>Created with Sketch.</desc>
    <defs></defs>
    <g id="save2" stroke="none" stroke-width="1" fill="none" fill-rule="evenodd">
        <g id="Page-1" transform="translate(0.000000, 15.000000)" fill="#989797">
            <path d="M467.601547,251 C449.736944,251 435.203095,265.531207 435.203095,283.392562 L435.203095,420.214876 L64.7969052,420.214876 L64.7969052,283.392562 C64.7969052,265.531207 50.2630561,251 32.3984526,251 C14.5338491,251 0,265.531207 0,283.392562 L0,452.607438 C0,470.468793 14.5338491,485 32.3984526,485 L467.601547,485 C485.466151,485 500,470.468793 500,452.607438 L500,283.392562 C500,265.531207 485.466151,251 467.601547,251" id="Fill-1"></path>
            <path d="M218.117147,309.194682 C224.183258,315.426851 232.64562,319 241.33638,319 C241.384769,319 241.434127,319 241.483484,318.999031 L241.664461,319 C250.354253,319 258.817582,315.426851 264.882726,309.194682 L376.808683,194.205397 C389.287375,181.385295 389.02704,160.783949 376.22704,148.283744 C370.025438,142.228003 361.816638,138.931128 353.182977,139.063934 C344.523187,139.173474 336.424714,142.655501 330.380862,148.866344 L274.090287,206.697847 L274.090287,32.4743599 C274.090287,14.5679009 259.546329,0 241.6693,0 C241.618975,0 241.56865,0.000969383879 241.518324,0.00193876776 L241.330573,0 C223.453544,0 208.909586,14.5679009 208.909586,32.4743599 L208.909586,206.697847 L152.619979,148.866344 C146.574191,142.655501 138.475719,139.173474 129.815928,139.063934 C121.168718,138.955363 112.973467,142.228972 106.772832,148.283744 C93.9728333,160.783949 93.7124976,181.384326 106.192158,194.205397 L218.117147,309.194682 Z" id="Fill-3"></path>
        </g>
    </g>
</svg>