<?xml version="1.0" encoding="utf-8"?>
<!-- Generator: Adobe Illustrator 27.0.0, SVG Export Plug-In . SVG Version: 6.00 Build 0)  -->
<svg version="1.1" id="Ebene_1" xmlns="http://www.w3.org/2000/svg" xmlns:xlink="http://www.w3.org/1999/xlink" x="0px" y="0px"
	 viewBox="0 0 500 500" style="enable-background:new 0 0 500 500;" xml:space="preserve">
<path d="M278.5,489.9c-18.4-7.8-34.7-18.4-48.5-31.6H125v-125h55.2c0.7-14.3,3.3-28.2,7.7-41.7h-73.3c-8.7,0-16.1,3-22.1,9.1
	c-6.1,6.1-9.1,13.5-9.1,22.1v135.4H41.7V41.7h41.7v135.4c0,8.7,3,16.1,9.1,22.1c6.1,6.1,13.5,9.1,22.1,9.1h187.5
	c8.7,0,16.1-3,22.1-9.1c6.1-6.1,9.1-13.5,9.1-22.1V41.7c3.3,0,7.5,1.1,12.7,3.3c5.2,2.2,8.9,4.3,11.1,6.5l91.5,91.5
	c2.2,2.2,4.3,5.9,6.5,11.2c2.2,5.3,3.3,9.5,3.3,12.5V230c13.2,13.9,23.8,30.2,31.6,48.5c4.6,10.8,8,22,10.1,33.4V166.7
	c0-8.7-2.2-18.2-6.5-28.6c-4.3-10.4-9.5-18.7-15.6-24.7l-91.1-91.1c-6.1-6.1-14.3-11.3-24.7-15.6S342,0,333.3,0H31.2
	C22.6,0,15.2,3,9.1,9.1C3,15.2,0,22.6,0,31.2v437.5c0,8.7,3,16.1,9.1,22.1c6.1,6.1,13.5,9.1,22.1,9.1h280.7
	C300.5,497.9,289.3,494.5,278.5,489.9z M208.3,52.1c0-2.8,1-5.3,3.1-7.3c2.1-2.1,4.5-3.1,7.3-3.1h62.5c2.8,0,5.3,1,7.3,3.1
	c2.1,2.1,3.1,4.5,3.1,7.3v104.2c0,2.8-1,5.3-3.1,7.3s-4.5,3.1-7.3,3.1h-62.5c-2.8,0-5.3-1-7.3-3.1s-3.1-4.5-3.1-7.3V52.1z"/>
<g>
	<path d="M415.4,341.3c0-20.4-7.2-37.8-21.7-52.3c-14.5-14.5-31.9-21.7-52.3-21.7c-20.4,0-37.8,7.2-52.3,21.7
		c-14.5,14.5-21.7,31.9-21.7,52.3c0,20.4,7.2,37.8,21.7,52.3s31.9,21.7,52.3,21.7c20.4,0,37.8-7.2,52.3-21.7
		C408.1,379.2,415.4,361.7,415.4,341.3z M500,478.8c0,5.7-2.1,10.7-6.3,14.9s-9.1,6.3-14.9,6.3c-5.9,0-10.9-2.1-14.9-6.3l-56.7-56.5
		c-19.7,13.7-41.7,20.5-65.9,20.5c-15.8,0-30.8-3.1-45.2-9.2c-14.4-6.1-26.8-14.4-37.2-24.8s-18.7-22.8-24.8-37.2
		c-6.1-14.4-9.2-29.4-9.2-45.2c0-15.8,3.1-30.8,9.2-45.2c6.1-14.4,14.4-26.8,24.8-37.2c10.4-10.4,22.8-18.7,37.2-24.8
		c14.4-6.1,29.4-9.2,45.2-9.2c15.8,0,30.8,3.1,45.2,9.2c14.4,6.1,26.8,14.4,37.2,24.8c10.4,10.4,18.7,22.8,24.8,37.2
		c6.1,14.4,9.2,29.4,9.2,45.2c0,24.2-6.8,46.2-20.5,65.9l56.7,56.7C498,468,500,473,500,478.8z"/>
</g>
</svg>
