<?xml version="1.0" encoding="UTF-8"?>
<svg width="500px" height="500px" viewBox="0 0 500 500" version="1.1" xmlns="http://www.w3.org/2000/svg" xmlns:xlink="http://www.w3.org/1999/xlink">
    <!-- Generator: Sketch 52.6 (67491) - http://www.bohemiancoding.com/sketch -->
    <title>save</title>
    <desc>Created with Sketch.</desc>
    <defs>
        <path d="M125,458.333333 L375,458.333333 L375,333.333333 L125,333.333333 L125,458.333333 Z M416.666667,458.333333 L458.333333,458.333333 L458.333333,166.666667 C458.333333,163.628472 457.248264,159.450955 455.078125,154.134115 C452.907986,148.817274 450.737847,145.073785 448.567708,142.903646 L357.096354,51.4322917 C354.926215,49.2621528 351.236979,47.0920139 346.028646,44.921875 C340.820312,42.7517361 336.588542,41.6666667 333.333333,41.6666667 L333.333333,177.083333 C333.333333,185.763889 330.295139,193.142361 324.21875,199.21875 C318.142361,205.295139 310.763889,208.333333 302.083333,208.333333 L114.583333,208.333333 C105.902778,208.333333 98.5243056,205.295139 92.4479167,199.21875 C86.3715278,193.142361 83.3333333,185.763889 83.3333333,177.083333 L83.3333333,41.6666667 L41.6666667,41.6666667 L41.6666667,458.333333 L83.3333333,458.333333 L83.3333333,322.916667 C83.3333333,314.236111 86.3715278,306.857639 92.4479167,300.78125 C98.5243056,294.704861 105.902778,291.666667 114.583333,291.666667 L385.416667,291.666667 C394.097222,291.666667 401.475694,294.704861 407.552083,300.78125 C413.628472,306.857639 416.666667,314.236111 416.666667,322.916667 L416.666667,458.333333 Z M291.666667,156.25 L291.666667,52.0833333 C291.666667,49.2621528 290.635851,46.8207465 288.574219,44.7591146 C286.512587,42.6974826 284.071181,41.6666667 281.25,41.6666667 L218.75,41.6666667 C215.928819,41.6666667 213.487413,42.6974826 211.425781,44.7591146 C209.364149,46.8207465 208.333333,49.2621528 208.333333,52.0833333 L208.333333,156.25 C208.333333,159.071181 209.364149,161.512587 211.425781,163.574219 C213.487413,165.635851 215.928819,166.666667 218.75,166.666667 L281.25,166.666667 C284.071181,166.666667 286.512587,165.635851 288.574219,163.574219 C290.635851,161.512587 291.666667,159.071181 291.666667,156.25 Z M500,166.666667 L500,468.75 C500,477.430556 496.961806,484.809028 490.885417,490.885417 C484.809028,496.961806 477.430556,500 468.75,500 L31.25,500 C22.5694444,500 15.1909722,496.961806 9.11458333,490.885417 C3.03819444,484.809028 0,477.430556 0,468.75 L0,31.25 C0,22.5694444 3.03819444,15.1909722 9.11458333,9.11458333 C15.1909722,3.03819444 22.5694444,0 31.25,0 L333.333333,0 C342.013889,0 351.5625,2.17013889 361.979167,6.51041667 C372.395833,10.8506944 380.642361,16.0590278 386.71875,22.1354167 L477.864583,113.28125 C483.940972,119.357639 489.149306,127.604167 493.489583,138.020833 C497.829861,148.4375 500,157.986111 500,166.666667 Z" id="path-1"></path>
    </defs>
    <g id="save" stroke="none" stroke-width="1" fill="none" fill-rule="evenodd">
        <g>
            <mask id="mask-2" fill="white">
                <use xlink:href="#path-1"></use>
            </mask>
            <use id="Shape" fill="#000000" fill-rule="nonzero" xlink:href="#path-1"></use>
        </g>
    </g>
</svg>