<?xml version="1.0" encoding="utf-8"?>
<!-- Generator: Adobe Illustrator 27.2.0, SVG Export Plug-In . SVG Version: 6.00 Build 0)  -->
<svg version="1.1" id="Ebene_1" xmlns="http://www.w3.org/2000/svg" xmlns:xlink="http://www.w3.org/1999/xlink" x="0px" y="0px"
	 viewBox="0 0 500 500" style="enable-background:new 0 0 500 500;" xml:space="preserve">
<path d="M220,410h-40c-11,0-20-9-20-20v-40c0-11,9-20,20-20h40c11,0,20,9,20,20v40C240,401,231,410,220,410z"/>
<path d="M140,270h-40c-11,0-20-9-20-20v-40c0-11,9-20,20-20h40c11,0,20,9,20,20v40C160,261,151,270,140,270z"/>
<path d="M300,270h-40c-11,0-20-9-20-20v-40c0-11,9-20,20-20h40c11,0,20,9,20,20v40C320,261,311,270,300,270z"/>
<path d="M460,270h-40c-11,0-20-9-20-20v-40c0-11,9-20,20-20h40c11,0,20,9,20,20v40C480,261,471,270,460,270z"/>
<path d="M380,130h-40c-11,0-20-9-20-20V70c0-11,9-20,20-20h40c11,0,20,9,20,20v40C400,121,391,130,380,130z"/>
<path d="M40,460V20C40,9,31,0,20,0h0C9,0,0,9,0,20v440v20c0,11,9,20,20,20h20h440c11,0,20-9,20-20v0c0-11-9-20-20-20H40z"/>
</svg>
