<?xml version="1.0" encoding="utf-8"?>
<!-- Generator: Adobe Illustrator 27.2.0, SVG Export Plug-In . SVG Version: 6.00 Build 0)  -->
<svg version="1.1" id="Ebene_1" xmlns="http://www.w3.org/2000/svg" xmlns:xlink="http://www.w3.org/1999/xlink" x="0px" y="0px"
	 viewBox="0 0 500 500" style="enable-background:new 0 0 500 500;" xml:space="preserve">
<style type="text/css">
	.st0{display:none;}
	.st1{display:inline;}
</style>
<g class="st0">
	<path class="st1" d="M125,213.2H66.6V100.3c0-13.7,0.3-26.2,0.9-37.6c-3.6,4.4-8.1,8.9-13.4,13.7l-24.2,20L0,59.6L73.1,0H125V213.2
		z"/>
	<path class="st1" d="M154.6,500H0.1v-37.9l52-52.6C67,394,76.7,383.3,81.2,377.6c4.6-5.7,7.7-10.6,9.5-14.7
		c1.8-4.1,2.7-8.4,2.7-12.8c0-5.5-1.8-9.9-5.4-13.1s-8.6-4.8-15.2-4.8c-6.7,0-13.5,1.9-20.3,5.8c-6.8,3.8-14.6,9.5-23.2,17l-31.6-37
		c11-9.8,20.2-16.8,27.7-21.1c7.5-4.2,15.6-7.5,24.4-9.7c8.8-2.2,18.7-3.4,29.6-3.4c13.8,0,26.1,2.4,36.9,7.3s19.2,11.8,25.2,20.8
		s9,19.1,9,30.3c0,8.4-1,16.1-3.1,23.2c-2.1,7.1-5.3,14.1-9.7,20.9c-4.4,6.9-10.2,14.1-17.4,21.7c-7.2,7.6-22.7,22-46.3,43.2v1.5
		h80.6V500z"/>
	<path class="st1" d="M146.1,330.2c0,13.2-4,24.6-12.1,34c-8.1,9.5-19.7,16.4-35,20.6v0.9c35.5,4.5,53.3,21.3,53.3,50.4
		c0,19.8-7.8,35.4-23.5,46.8S91.3,500,63.5,500c-11.5,0-22.1-0.8-31.8-2.5c-9.8-1.7-20.3-4.7-31.7-9v-47.8
		c9.3,4.8,18.8,8.3,28.5,10.6c9.7,2.3,18.6,3.4,26.7,3.4c12.6,0,21.8-1.8,27.6-5.3c5.8-3.5,8.7-9.1,8.7-16.7
		c0-5.8-1.5-10.3-4.5-13.5s-7.9-5.5-14.6-7.1s-15.4-2.4-26.2-2.4H33.1v-43.3h13.4c29.2,0,43.9-7.5,43.9-22.5c0-5.6-2.2-9.8-6.5-12.5
		c-4.3-2.7-10.1-4.1-17.4-4.1c-13.6,0-27.7,4.6-42.2,13.7l-24-38.5c11.3-7.8,22.8-13.3,34.6-16.6c11.8-3.3,25.3-5,40.6-5
		c22,0,39.3,4.4,51.9,13.1C139.9,302.8,146.1,314.9,146.1,330.2z"/>
</g>
<g class="st0">
	<path class="st1" d="M100,40v420H40V40H100 M120,0H20C9,0,0,9,0,20v460c0,11,9,20,20,20h100c11,0,20-9,20-20V20C140,9,131,0,120,0
		L120,0z"/>
</g>
<path class="st0" d="M100,40v420H40V40H100 M120,0H20C9,0,0,9,0,20v460c0,11,9,20,20,20h100c11,0,20-9,20-20V20C140,9,131,0,120,0
	L120,0z"/>
<path d="M200,160h280c11,0,20-9,20-20V20c0-11-9-20-20-20H200c-11,0-20,9-20,20v120C180,151,189,160,200,160z"/>
<path d="M200,360h280c11,0,20-9,20-20V220c0-11-9-20-20-20H200c-11,0-20,9-20,20v120C180,351,189,360,200,360z"/>
<path d="M200,500h100c11,0,20-9,20-20v-60c0-11-9-20-20-20H200c-11,0-20,9-20,20v60C180,491,189,500,200,500z"/>
<path d="M380,500h100c11,0,20-9,20-20v-60c0-11-9-20-20-20H380c-11,0-20,9-20,20v60C360,491,369,500,380,500z"/>
<g class="st0">
	<g class="st1">
		<rect x="40" y="76.7" width="60" height="40"/>
	</g>
	<g class="st1">
		<rect x="40" y="153.3" width="60" height="40"/>
	</g>
	<g class="st1">
		<rect x="40" y="230" width="60" height="40"/>
	</g>
	<g class="st1">
		<rect x="40" y="306.7" width="60" height="40"/>
	</g>
	<g class="st1">
		<rect x="40" y="383.3" width="60" height="40"/>
	</g>
</g>
<path d="M120,140H20c-11,0-20-9-20-20v-10c0-11,9-20,20-20h100c11,0,20,9,20,20v10C140,131,131,140,120,140z"/>
<path d="M120,230H20c-11,0-20-9-20-20v-10c0-11,9-20,20-20h100c11,0,20,9,20,20v10C140,221,131,230,120,230z"/>
<path d="M120,320H20c-11,0-20-9-20-20v-10c0-11,9-20,20-20h100c11,0,20,9,20,20v10C140,311,131,320,120,320z"/>
<path d="M120,410H20c-11,0-20-9-20-20v-10c0-11,9-20,20-20h100c11,0,20,9,20,20v10C140,401,131,410,120,410z"/>
<path d="M120,50H20C9,50,0,41,0,30V20C0,9,9,0,20,0l100,0c11,0,20,9,20,20v10C140,41,131,50,120,50z"/>
<path d="M120,500H20c-11,0-20-9-20-20v-10c0-11,9-20,20-20h100c11,0,20,9,20,20v10C140,491,131,500,120,500z"/>
<path d="M100,40v420H40V40H100 M120,0H20C9,0,0,9,0,20v460c0,11,9,20,20,20h100c11,0,20-9,20-20V20C140,9,131,0,120,0L120,0z"/>
</svg>
