<?xml version="1.0" encoding="utf-8"?>
<!-- Generator: Adobe Illustrator 27.2.0, SVG Export Plug-In . SVG Version: 6.00 Build 0)  -->
<svg version="1.1" id="Ebene_1" xmlns="http://www.w3.org/2000/svg" xmlns:xlink="http://www.w3.org/1999/xlink" x="0px" y="0px"
	 viewBox="0 0 500 500" style="enable-background:new 0 0 500 500;" xml:space="preserve">
<style type="text/css">
	.st0{display:none;}
	.st1{display:none;fill:#FFFFFF;}
</style>
<path d="M480,170H183.4c-11,0-20-9-20-20V20c0-11,9-20,20-20H480c11,0,20,9,20,20v130C500,161,491,170,480,170z"/>
<path d="M480,380H183.4c-11,0-20-9-20-20V230c0-11,9-20,20-20H480c11,0,20,9,20,20v130C500,371,491,380,480,380z"/>
<path d="M480,500H290c-11,0-20-9-20-20v-40c0-11,9-20,20-20h190c11,0,20,9,20,20v40C500,491,491,500,480,500z"/>
<path d="M210,500H20c-11,0-20-9-20-20v-40c0-11,9-20,20-20h190c11,0,20,9,20,20v40C230,491,221,500,210,500z"/>
<path class="st0" d="M20,230h190c11,0,20-9,20-20V20c0-11-9-20-20-20H20C9,0,0,9,0,20v190C0,221,9,230,20,230z"/>
<path class="st0" d="M20,500h190c11,0,20-9,20-20V290c0-11-9-20-20-20H20c-11,0-20,9-20,20v190C0,491,9,500,20,500z"/>
<path class="st0" d="M290,230h190c11,0,20-9,20-20V20c0-11-9-20-20-20H290c-11,0-20,9-20,20v190C270,221,279,230,290,230z"/>
<path class="st0" d="M290,500h190c11,0,20-9,20-20V290c0-11-9-20-20-20H290c-11,0-20,9-20,20v190C270,491,279,500,290,500z"/>
<path class="st1" d="M149,190h-41.1v-79.4c0-9.6,0.2-18.4,0.6-26.5c-2.5,3.1-5.7,6.3-9.4,9.6l-17,14.1L61,81.9L112.5,40H149V190z"/>
<path class="st1" d="M439.4,190H332.2v-26.3l36.1-36.5c10.3-10.8,17.1-18.2,20.2-22.1c3.2-4,5.3-7.4,6.6-10.2
	c1.2-2.8,1.9-5.8,1.9-8.9c0-3.8-1.2-6.9-3.7-9.1c-2.5-2.2-6-3.3-10.5-3.3c-4.6,0-9.4,1.3-14.1,4c-4.7,2.6-10.1,6.6-16.1,11.8
	l-21.9-25.7c7.6-6.8,14-11.7,19.2-14.6c5.2-2.9,10.8-5.2,16.9-6.7c6.1-1.5,13-2.4,20.5-2.4c9.6,0,18.1,1.7,25.6,5.1
	c7.5,3.4,13.3,8.2,17.5,14.4s6.2,13.3,6.2,21c0,5.8-0.7,11.2-2.2,16.1c-1.5,4.9-3.7,9.8-6.7,14.5c-3.1,4.8-7.1,9.8-12.1,15.1
	s-15.7,15.3-32.1,30v1h55.9V190z"/>
<path class="st1" d="M162.9,343.8c0,9-2.7,16.8-8.3,23.3c-5.5,6.5-13.5,11.2-24,14.1v0.6c24.3,3.1,36.5,14.6,36.5,34.5
	c0,13.6-5.3,24.2-16.1,32c-10.7,7.8-25.7,11.7-44.7,11.7c-7.9,0-15.1-0.5-21.8-1.7c-6.7-1.2-13.9-3.2-21.7-6.2v-32.7
	c6.4,3.3,12.9,5.7,19.5,7.3c6.6,1.6,12.7,2.3,18.3,2.3c8.6,0,14.9-1.2,18.9-3.6c4-2.4,6-6.2,6-11.4c0-4-1-7.1-3.1-9.2
	s-5.4-3.8-10-4.9c-4.6-1.1-10.5-1.6-17.9-1.6h-9v-29.6h9.2c20,0,30.1-5.1,30.1-15.4c0-3.8-1.5-6.7-4.5-8.6
	c-2.9-1.8-6.9-2.8-11.9-2.8c-9.3,0-19,3.1-28.9,9.4l-16.4-26.4c7.7-5.3,15.6-9.1,23.7-11.4c8.1-2.3,17.3-3.4,27.8-3.4
	c15.1,0,26.9,3,35.5,9C158.6,325,162.9,333.3,162.9,343.8z"/>
<path d="M99.7,170H53.1V80c0-10.9,0.2-20.9,0.7-30c-2.9,3.5-6.5,7.1-10.7,10.9L23.8,76.9L0,47.5L58.3,0h41.4V170z"/>
<path d="M123.4,380H1.9v-29.8l40.9-41.4c11.7-12.2,19.3-20.6,22.9-25.1c3.6-4.5,6.1-8.3,7.5-11.6c1.4-3.2,2.1-6.6,2.1-10.1
	c0-4.3-1.4-7.8-4.2-10.3c-2.8-2.5-6.8-3.8-12-3.8c-5.3,0-10.6,1.5-16,4.6c-5.3,3-11.5,7.5-18.2,13.4L0,236.9
	c8.6-7.7,15.9-13.2,21.8-16.6c5.9-3.3,12.3-5.9,19.2-7.6c6.9-1.7,14.7-2.7,23.3-2.7c10.9,0,20.5,1.9,29,5.7s15.1,9.3,19.8,16.4
	c4.7,7.1,7.1,15,7.1,23.8c0,6.6-0.8,12.7-2.4,18.2c-1.7,5.6-4.2,11.1-7.6,16.4c-3.5,5.4-8,11.1-13.7,17.1c-5.7,6-17.8,17.3-36.4,34
	v1.2h63.4V380z"/>
</svg>
