<?xml version="1.0" encoding="UTF-8"?>
<svg width="500px" height="500px" viewBox="0 0 500 500" version="1.1" xmlns="http://www.w3.org/2000/svg" xmlns:xlink="http://www.w3.org/1999/xlink">
    <!-- Generator: Sketch 52.6 (67491) - http://www.bohemiancoding.com/sketch -->
    <title>search copy 3</title>
    <desc>Created with Sketch.</desc>
    <g id="search-copy-3" stroke="none" stroke-width="1" fill="none" fill-rule="evenodd">
        <rect id="Rectangle" fill="#000000" fill-rule="nonzero" x="380" y="6" width="120" height="70" rx="16"></rect>
        <rect id="Rectangle-Copy-2" fill="#000000" fill-rule="nonzero" x="336" y="152" width="164" height="70" rx="16"></rect>
        <rect id="Rectangle-Copy-3" fill="#000000" fill-rule="nonzero" x="135" y="299" width="365" height="70" rx="16"></rect>
        <rect id="Rectangle-Copy-4" fill="#000000" fill-rule="nonzero" x="0" y="430" width="500" height="70" rx="16"></rect>
        <path d="M130.706,19.839 C146.129,13.28 162.291,10 179.192,10 C196.094,10 212.256,13.28 227.68,19.839 C243.104,26.399 256.4,35.262 267.568,46.431 C278.737,57.6 287.602,70.897 294.161,86.321 C300.721,101.745 304,117.907 304,134.808 C304,151.709 300.721,167.871 294.161,183.295 C287.602,198.719 278.737,212.014 267.568,223.183 C256.4,234.352 243.104,243.216 227.68,249.777 C212.256,256.336 196.094,259.615 179.192,259.615 C153.19,259.615 129.612,252.288 108.456,237.632 L47.648,298.44 C43.275,302.814 37.957,305 31.692,305 C25.547,305 20.228,302.755 15.737,298.264 C11.246,293.772 9,288.453 9,282.308 C9,275.926 11.246,270.607 15.737,266.353 L76.368,205.544 C61.712,184.388 54.385,160.809 54.385,134.808 C54.385,117.907 57.664,101.745 64.223,86.321 C70.784,70.897 79.648,57.6 90.817,46.431 C101.986,35.262 115.281,26.399 130.706,19.839 Z M123.335,190.664 C138.893,206.222 157.615,214 179.5,214 C201.386,214 220.107,206.222 235.665,190.664 C251.222,175.108 259,156.386 259,134.5 C259,112.614 251.222,93.892 235.665,78.335 C220.107,62.778 201.386,55 179.5,55 C157.615,55 138.893,62.778 123.335,78.335 C107.778,93.892 100,112.614 100,134.5 C100,156.386 107.778,175.108 123.335,190.664 Z" id="Combined-Shape" stroke="#000000" stroke-width="14" fill="#000000"></path>
    </g>
</svg>