<?xml version="1.0" encoding="utf-8"?>
<!-- Generator: Adobe Illustrator 27.3.0, SVG Export Plug-In . SVG Version: 6.00 Build 0)  -->
<svg version="1.1" id="Ebene_1" xmlns="http://www.w3.org/2000/svg" xmlns:xlink="http://www.w3.org/1999/xlink" x="0px" y="0px"
	 viewBox="0 0 500 500" style="enable-background:new 0 0 500 500;" xml:space="preserve">
<style type="text/css">
	.st0{fill-rule:evenodd;clip-rule:evenodd;}
</style>
<g>
	<g>
		<path class="st0" d="M30,40H10C4.5,40,0,35.5,0,30V10C0,4.5,4.5,0,10,0h20c5.5,0,10,4.5,10,10v20C40,35.5,35.5,40,30,40z"/>
	</g>
	<g>
		<path class="st0" d="M30,120H10c-5.5,0-10-4.5-10-10V90c0-5.5,4.5-10,10-10h20c5.5,0,10,4.5,10,10v20C40,115.5,35.5,120,30,120z"
			/>
	</g>
	<g>
		<path class="st0" d="M30,200H10c-5.5,0-10-4.5-10-10v-20c0-5.5,4.5-10,10-10h20c5.5,0,10,4.5,10,10v20C40,195.5,35.5,200,30,200z"
			/>
	</g>
	<g>
		<path class="st0" d="M30,280H10c-5.5,0-10-4.5-10-10v-20c0-5.5,4.5-10,10-10h20c5.5,0,10,4.5,10,10v20C40,275.5,35.5,280,30,280z"
			/>
	</g>
	<g>
		<path class="st0" d="M30,360H10c-5.5,0-10-4.5-10-10v-20c0-5.5,4.5-10,10-10h20c5.5,0,10,4.5,10,10v20C40,355.5,35.5,360,30,360z"
			/>
	</g>
	<g>
		<path class="st0" d="M350,120h-20c-5.5,0-10-4.5-10-10V90c0-5.5,4.5-10,10-10h20c5.5,0,10,4.5,10,10v20
			C360,115.5,355.5,120,350,120z"/>
	</g>
	<g>
		<path class="st0" d="M350,200h-20c-5.5,0-10-4.5-10-10v-20c0-5.5,4.5-10,10-10h20c5.5,0,10,4.5,10,10v20
			C360,195.5,355.5,200,350,200z"/>
	</g>
	<g>
		<path class="st0" d="M110,40H90c-5.5,0-10-4.5-10-10V10c0-5.5,4.5-10,10-10h20c5.5,0,10,4.5,10,10v20C120,35.5,115.5,40,110,40z"
			/>
	</g>
	<g>
		<path class="st0" d="M190,40h-20c-5.5,0-10-4.5-10-10V10c0-5.5,4.5-10,10-10h20c5.5,0,10,4.5,10,10v20C200,35.5,195.5,40,190,40z"
			/>
	</g>
	<g>
		<path class="st0" d="M270,40h-20c-5.5,0-10-4.5-10-10V10c0-5.5,4.5-10,10-10h20c5.5,0,10,4.5,10,10v20C280,35.5,275.5,40,270,40z"
			/>
	</g>
	<g>
		<path class="st0" d="M110,360H90c-5.5,0-10-4.5-10-10v-20c0-5.5,4.5-10,10-10h20c5.5,0,10,4.5,10,10v20
			C120,355.5,115.5,360,110,360z"/>
	</g>
	<g>
		<path class="st0" d="M190,360h-20c-5.5,0-10-4.5-10-10v-20c0-5.5,4.5-10,10-10h20c5.5,0,10,4.5,10,10v20
			C200,355.5,195.5,360,190,360z"/>
	</g>
	<g>
		<path class="st0" d="M350,40h-20c-5.5,0-10-4.5-10-10V10c0-5.5,4.5-10,10-10h20c5.5,0,10,4.5,10,10v20C360,35.5,355.5,40,350,40z"
			/>
	</g>
</g>
<path class="st0" d="M482.6,297.5L207.2,181c-16.5-7-33.2,9.7-26.2,26.2l116.5,275.4c7.1,16.7,31,16.1,37.2-1l24.1-66.3l78.7,78.7
	c7.8,7.8,20.5,7.8,28.3,0l28.3-28.3c7.8-7.8,7.8-20.5,0-28.3l-78.7-78.7l66.3-24.1C498.8,328.5,499.4,304.6,482.6,297.5z"/>
</svg>
