<?xml version="1.0" encoding="UTF-8"?>
<svg width="500px" height="500px" viewBox="0 0 500 500" version="1.1" xmlns="http://www.w3.org/2000/svg" xmlns:xlink="http://www.w3.org/1999/xlink">
    <!-- Generator: Sketch 52.6 (67491) - http://www.bohemiancoding.com/sketch -->
    <title>share</title>
    <desc>Created with Sketch.</desc>
    <g id="share" stroke="none" stroke-width="1" fill="none" fill-rule="evenodd">
        <path d="M480.868279,318.046373 C480.655165,318.046373 479.635396,318.026744 475.461914,317.766895 C471.920296,317.544434 469.01802,317.493959 466.584968,317.609863 C464.092095,317.728572 461.314136,318.080023 458.32867,318.653935 C453.755132,319.532563 450.105087,321.51228 447.481355,324.538872 C444.756674,327.683239 443.375172,331.695951 443.375172,336.464844 L443.375172,405.970647 C443.375172,416.732904 439.643807,425.695843 431.96703,433.371686 C424.291187,441.048463 415.327313,444.779828 404.565991,444.779828 L94.7207588,444.779828 C83.958502,444.779828 74.995563,441.048463 67.3187856,433.371686 C59.6420081,425.695843 55.9106438,416.732904 55.9106438,405.970647 L55.9106438,95.4121651 C55.9106438,84.6499083 59.6420081,75.6869692 67.3187856,68.0111265 C74.995563,60.3343491 83.958502,56.6029848 94.7207588,56.6029848 L167.367187,56.6029848 C172.136081,56.6029848 176.148793,55.2205479 179.292224,52.4968015 C182.317882,49.8740038 184.297599,46.224894 185.177162,41.649486 C185.752008,38.6621512 186.10346,35.8832569 186.221233,33.3922534 C186.337137,30.9592019 186.285728,28.0559911 186.065137,24.5162424 C185.797809,20.2474195 185.784723,19.2631693 185.784723,19.1089421 C185.784723,14.1680624 183.905955,9.67771308 180.351251,6.12300902 C176.797482,2.57017437 172.307133,0.69140625 167.367187,0.69140625 L94.7207588,0.69140625 C68.7442191,0.69140625 46.2242388,10.0403808 27.787074,28.4784803 C9.34897451,46.9165797 -3.41060513e-13,69.43656 -3.41060513e-13,95.4121651 L-3.41060513e-13,405.970647 C-3.41060513e-13,431.946252 9.34897451,454.466233 27.787074,472.904332 C46.2251735,491.342432 68.7451538,500.691406 94.7207588,500.691406 L404.565991,500.691406 C430.540662,500.691406 453.059707,491.342432 471.499676,472.904332 C489.937776,454.466233 499.28675,431.946252 499.28675,405.970647 L499.28675,336.464844 C499.28675,331.523029 497.407982,327.033615 493.854213,323.478911 C490.299509,319.925141 485.810094,318.046373 480.868279,318.046373 Z" id="Fill-1" fill="#000000"></path>
        <path d="M229.299965,230.255103 C241.614321,185.77913 267.898602,149.993265 281.398862,133.70763 L234.603918,87.0561952 C231.787885,84.240162 230.759188,80.8122597 231.776796,77.6459346 C232.812668,74.4248154 235.740247,72.1899927 239.808067,71.52072 L451.702008,34.4439282 C455.428669,33.7896587 458.951809,34.7922631 461.363409,37.1947301 C463.778922,39.5998064 464.797834,43.1222941 464.158568,46.8587402 C464.158568,46.8613495 464.157915,46.864611 464.156611,46.8672203 L427.540352,258.839438 C427.087647,261.349537 426.068735,263.412149 424.616687,264.864197 C423.69236,265.788523 422.591909,266.466276 421.349906,266.855054 C418.218806,267.834828 414.817648,266.791128 412.017923,263.991402 L360.089932,212.205615 C323.646535,248.172824 254.29919,318.933077 280.732199,387.162359 C281.604993,389.412837 280.771337,391.963379 278.739384,393.267352 C276.70743,394.568715 274.040124,394.260171 272.36042,392.528282 C247.753886,367.16637 232.087949,339.039959 225.795742,308.927908 C220.579199,283.96456 221.75858,257.495022 229.299965,230.255103 Z" id="Fill-4" fill="#000000"></path>
    </g>
</svg>