<?xml version="1.0" encoding="UTF-8"?>
<svg width="1701px" height="1701px" viewBox="0 0 1701 1701" version="1.1" xmlns="http://www.w3.org/2000/svg" xmlns:xlink="http://www.w3.org/1999/xlink">
    <!-- Generator: Sketch 49 (51002) - http://www.bohemiancoding.com/sketch -->
    <title>sherlock</title>
    <desc>Created with Sketch.</desc>
    <defs></defs>
    <g id="Page-1" stroke="none" stroke-width="1" fill="none" fill-rule="evenodd">
        <g id="sherlock" fill="#000000">
            <path d="M249.362945,609.555763 C219.389947,684.068727 202.887626,765.395337 202.887626,850.503986 C202.887626,1207.61367 493.408632,1498.14092 850.514429,1498.14092 C1207.6187,1498.14092 1498.14123,1207.61367 1498.14123,850.503986 C1498.14123,493.403441 1207.6187,202.885327 850.514429,202.885327 C628.542243,202.885327 432.295939,315.133268 315.557464,485.847881 C339.850507,507.30013 364.644622,532.515781 388.334585,561.961224 C496.59024,696.552023 509.59164,886.75911 637.052364,904.296778 C715.693831,915.136809 748.237335,842.654916 748.237335,813.977189 L748.237335,649.351534 C748.237335,638.259479 763.915023,629.268624 783.254105,629.268624 L1157.97045,629.268624 C1177.29753,629.268624 1192.98722,638.259479 1192.98722,649.351534 L1192.98722,813.977189 C1192.98722,1273.95493 692.633348,1314.91282 532.687127,1098.40524 C408.283169,930.001564 371.35929,733.849494 249.362945,609.555763 Z M850.514429,0.0262483231 C1319.47592,0.0262483231 1701,381.544528 1701,850.501123 C1701,1319.46972 1319.47592,1701 850.514429,1701 C381.550936,1701 0.0288583636,1319.46972 0.0288583636,850.501123 C0.0288583636,381.544528 381.551937,0.0262483231 850.514429,0.0262483231 Z" id="Combined-Shape"></path>
        </g>
    </g>
</svg>