<?xml version="1.0" encoding="utf-8"?>
<!-- Generator: Adobe Illustrator 27.2.0, SVG Export Plug-In . SVG Version: 6.00 Build 0)  -->
<svg version="1.1" id="Ebene_1" xmlns="http://www.w3.org/2000/svg" xmlns:xlink="http://www.w3.org/1999/xlink" x="0px" y="0px"
	 viewBox="0 0 500 500" style="enable-background:new 0 0 500 500;" xml:space="preserve">
<style type="text/css">
	.st0{display:none;}
	.st1{display:inline;}
	.st2{display:none;fill:none;stroke:#000000;stroke-width:40;stroke-linecap:round;stroke-linejoin:round;stroke-miterlimit:10;}
</style>
<g class="st0">
	<path class="st1" d="M125,356.7H66.6V243.8c0-13.7,0.3-26.2,0.9-37.6c-3.6,4.4-8.1,8.9-13.4,13.7l-24.2,20L0,203.1l73.1-59.6H125
		V356.7z"/>
	<path class="st1" d="M321,356.7H166.5v-37.9l52-52.6c14.9-15.5,24.6-26.2,29.1-31.9c4.6-5.7,7.7-10.6,9.5-14.7
		c1.8-4.1,2.7-8.4,2.7-12.8c0-5.5-1.8-9.9-5.4-13.1c-3.6-3.2-8.6-4.8-15.2-4.8c-6.7,0-13.5,1.9-20.3,5.8c-6.8,3.8-14.6,9.5-23.2,17
		l-31.6-37c11-9.8,20.2-16.8,27.7-21.1c7.5-4.2,15.6-7.5,24.4-9.7c8.8-2.2,18.7-3.4,29.6-3.4c13.8,0,26.1,2.4,36.9,7.3
		c10.8,4.9,19.2,11.8,25.2,20.8s9,19.1,9,30.3c0,8.4-1,16.1-3.1,23.2c-2.1,7.1-5.3,14.1-9.7,20.9c-4.4,6.9-10.2,14.1-17.4,21.7
		c-7.2,7.6-22.7,22-46.3,43.2v1.5H321V356.7z"/>
	<path class="st1" d="M493.7,189.7c0,13.2-4,24.6-12.1,34c-8.1,9.5-19.7,16.4-35,20.6v0.9c35.5,4.5,53.3,21.3,53.3,50.4
		c0,19.8-7.8,35.4-23.5,46.8s-37.5,17.1-65.3,17.1c-11.5,0-22.1-0.8-31.8-2.5c-9.8-1.7-20.3-4.7-31.7-9v-47.8
		c9.3,4.8,18.8,8.3,28.5,10.6c9.7,2.3,18.6,3.4,26.7,3.4c12.6,0,21.8-1.8,27.6-5.3c5.8-3.5,8.7-9.1,8.7-16.7
		c0-5.8-1.5-10.3-4.5-13.5s-7.9-5.5-14.6-7.1s-15.4-2.4-26.2-2.4h-13.1v-43.3h13.4c29.2,0,43.9-7.5,43.9-22.5
		c0-5.6-2.2-9.8-6.5-12.5s-10.1-4.1-17.4-4.1c-13.6,0-27.7,4.6-42.2,13.7l-24-38.5c11.3-7.8,22.8-13.3,34.6-16.6
		c11.8-3.3,25.3-5,40.6-5c22,0,39.3,4.4,51.9,13.1C487.5,162.3,493.7,174.4,493.7,189.7z"/>
</g>
<path class="st2" d="M20,380h80c0,0,68,0.3,100-130s100-130,100-130s177.2,0.3,180,0l0,0"/>
<path class="st2" d="M480,380c-2.8-0.3-180,0-180,0s-68,0.3-100-130S100,120,100,120H20"/>
<path d="M480,400c-0.4,0-0.8,0-1.1,0c-7.6-0.2-110.8-0.1-178.9,0c0,0,0,0-0.1,0c-2.7,0-24.7-0.6-50.2-20.3
	c-31.5-24.3-54.8-66.4-69.2-124.9c-14.5-59.2-36.4-87.4-52.1-100.6c-15.3-12.9-27.5-14.1-28.8-14.2H20c-11,0-20-9-20-20s9-20,20-20
	h80c2.3,0,24.5,0.5,50.2,20.3c31.5,24.3,54.8,66.4,69.2,124.9c14.5,59.2,36.4,87.4,52.1,100.6c15.3,12.9,27.4,14.1,28.8,14.2
	c178-0.3,180.5,0,181.9,0.1c11,1.2,18.9,11.1,17.7,22C498.8,392.4,490.1,400,480,400z M477.8,399.9c0.2,0,0.5,0.1,0.9,0.1
	C478.5,399.9,478.2,399.9,477.8,399.9z M300.1,360c-0.1,0-0.2,0-0.2,0c0.1,0,0.2,0,0.3,0C300.2,360,300.1,360,300.1,360z M99.7,140
	c0.2,0,0.3,0,0.3,0H99.7z"/>
<g>
	<path d="M243.9,189.2c9.6-17.2,19.4-28.1,27.6-35c15.3-12.9,27.4-14.1,28.8-14.2c178,0.3,180.5,0,181.9-0.1
		c11-1.2,18.9-11.1,17.7-22c-1.2-10.6-10.4-18.4-21-17.8c-7.6,0.2-110.8,0.1-178.8,0c0,0,0,0-0.1,0c-2.8,0-24.8,0.7-50.2,20.3
		c-9.3,7.2-18,16-25.8,26.3C231.4,159.5,238.1,173.7,243.9,189.2z M478.8,100c-0.3,0-0.6,0-0.9,0.1C478,100.1,478.3,100.1,478.8,100
		z M300,140c0.1,0,0.2,0,0.3,0C300,140,299.9,140,300,140C300,140,300,140,300,140z"/>
	<path d="M156.1,310.8c-9.6,17.2-19.4,28.1-27.6,35c-15.3,12.9-27.4,14.1-28.8,14.2H20c-11,0-20,9-20,20s9,20,20,20h79.9
		c0,0,0,0,0.1,0c2.8,0,24.8-0.7,50.2-20.3c9.3-7.2,18-16,25.8-26.3C168.6,340.5,161.9,326.3,156.1,310.8z M100,360h-0.2
		C99.8,360,99.9,360,100,360C100,360,100,360,100,360z"/>
</g>
<path d="M349.5,474.7c-6.9,0-13.7-3.6-17.4-10.1c-5.5-9.6-2.2-21.8,7.4-27.3L439.7,380l-100.2-57.3c-9.6-5.5-12.9-17.7-7.4-27.3
	c5.5-9.6,17.7-12.9,27.3-7.4l130.5,74.7c6.2,3.6,10.1,10.2,10.1,17.4s-3.8,13.8-10.1,17.4l-130.5,74.7
	C356.3,473.8,352.9,474.7,349.5,474.7z"/>
<path d="M349.5,214.7c-6.9,0-13.7-3.6-17.4-10.1c-5.5-9.6-2.2-21.8,7.4-27.3L439.7,120L339.6,62.7c-9.6-5.5-12.9-17.7-7.4-27.3
	s17.7-12.9,27.3-7.4l130.5,74.7c6.2,3.6,10.1,10.2,10.1,17.4s-3.8,13.8-10.1,17.4l-130.5,74.7C356.3,213.8,352.9,214.7,349.5,214.7z
	"/>
</svg>
