<?xml version="1.0" encoding="UTF-8"?>
<svg width="500px" height="500px" viewBox="0 0 500 500" version="1.1" xmlns="http://www.w3.org/2000/svg" xmlns:xlink="http://www.w3.org/1999/xlink">
    <!-- Generator: Sketch 52.6 (67491) - http://www.bohemiancoding.com/sketch -->
    <title>sort-desc</title>
    <desc>Created with Sketch.</desc>
    <g id="sort-desc" stroke="none" stroke-width="1" fill="none" fill-rule="evenodd">
        <path d="M140.482977,143.0002 C139.427977,143.0002 138.554977,143.2432 137.649977,143.7872 C136.694977,144.3612 136.021977,145.0692 135.466977,146.0832 L25.8899774,347.4422 C24.6629774,349.6572 24.6949774,350.9762 25.9809774,353.1702 C26.5079774,354.0712 27.1549774,354.7082 28.0839774,355.2442 C28.9889774,355.7672 29.8549774,356.0002 30.8929774,356.0002 L250.072977,356.0002 C251.110977,356.0002 251.976977,355.7672 252.881977,355.2442 C253.811977,354.7072 254.458977,354.0702 254.978977,353.1802 C256.270977,350.9762 256.301977,349.6572 255.121977,347.5272 L145.492977,146.0732 C144.938977,145.0642 144.266977,144.3592 143.315977,143.7872 C142.411977,143.2432 141.537977,143.0002 140.482977,143.0002 Z M250.072977,381.0002 L30.8929774,381.0002 C25.4499774,381.0002 20.2969774,379.6182 15.5789774,376.8922 C10.8829774,374.1802 7.12397736,370.4472 4.40597736,365.7992 C-1.31602264,356.0342 -1.47102264,345.2372 3.97797736,335.4082 L113.521977,134.1082 C116.222977,129.1712 120.000977,125.2292 124.764977,122.3632 C129.578977,119.4682 134.866977,118.0002 140.482977,118.0002 C146.097977,118.0002 151.384977,119.4682 156.199977,122.3622 C160.963977,125.2282 164.742977,129.1712 167.429977,134.0832 L167.443977,134.1082 L277.034977,335.4932 C282.435977,345.2382 282.281977,356.0342 276.554977,365.8092 C273.841977,370.4472 270.082977,374.1802 265.385977,376.8932 C260.667977,379.6182 255.514977,381.0002 250.072977,381.0002 Z M222.965377,163.507 C217.563377,153.763 217.717377,142.966 223.445377,133.191 C226.158377,128.553 229.917377,124.82 234.613377,122.108 C239.331377,119.382 244.484377,118 249.926377,118 L469.107377,118 C474.550377,118 479.702377,119.382 484.421377,122.109 C489.116377,124.82 492.876377,128.553 495.594377,133.201 C501.316377,142.966 501.470377,153.763 496.022377,163.592 L386.478377,364.892 C383.777377,369.829 379.999377,373.772 375.235377,376.637 C370.421377,379.532 365.132377,381 359.517377,381 C353.901377,381 348.613377,379.532 343.799377,376.638 C339.034377,373.772 335.257377,369.829 332.569377,364.917 L332.555377,364.892 L222.965377,163.507 Z" id="Combined-Shape-Copy" fill="#1D1D1B"></path>
    </g>
</svg>