<?xml version="1.0" encoding="utf-8"?>
<!-- Generator: Adobe Illustrator 27.2.0, SVG Export Plug-In . SVG Version: 6.00 Build 0)  -->
<svg version="1.1" id="Ebene_1" xmlns="http://www.w3.org/2000/svg" xmlns:xlink="http://www.w3.org/1999/xlink" x="0px" y="0px"
	 viewBox="0 0 500 500" style="enable-background:new 0 0 500 500;" xml:space="preserve">
<g id="sort">
	<g id="Group" transform="translate(0.000000, 10.000000)">
		<path id="Path" d="M250.1,359.3c0,3-1.2,5.9-3.5,8.9L133.4,486.7c-2.4,2.2-5.1,3.3-8.2,3.3c-2.8,0-5.6-1.1-8.2-3.3L3.5,367.9
			c-3.5-4-4.4-8.3-2.5-13c1.9-5,5.4-7.4,10.6-7.4h68.1V1.9c0-3.5,1.1-6.3,3.2-8.5c2.1-2.2,4.9-3.3,8.2-3.3h68.1c3.3,0,6,1.1,8.2,3.3
			s3.2,5.1,3.2,8.5v345.6h68.1c3.3,0,6,1.1,8.2,3.3S250.1,355.9,250.1,359.3z"/>
		<path id="Path-Copy" d="M249.9,120.7c0-3,1.2-5.9,3.5-8.9L366.6-6.7c2.4-2.2,5.1-3.3,8.2-3.3c2.8,0,5.6,1.1,8.2,3.3l113.6,118.8
			c3.5,4,4.4,8.3,2.5,13c-1.9,5-5.4,7.4-10.6,7.4h-68.1v345.6c0,3.5-1.1,6.3-3.2,8.5s-4.9,3.3-8.2,3.3h-68.1c-3.3,0-6-1.1-8.2-3.3
			c-2.1-2.2-3.2-5.1-3.2-8.5V132.6h-68.1c-3.3,0-6-1.1-8.2-3.3C250.9,127,249.9,124.1,249.9,120.7z"/>
	</g>
</g>
</svg>
