<?xml version="1.0" encoding="utf-8"?>
<!-- Generator: Adobe Illustrator 27.2.0, SVG Export Plug-In . SVG Version: 6.00 Build 0)  -->
<svg version="1.1" id="Ebene_1" xmlns="http://www.w3.org/2000/svg" xmlns:xlink="http://www.w3.org/1999/xlink" x="0px" y="0px"
	 viewBox="0 0 500 500" style="enable-background:new 0 0 500 500;" xml:space="preserve">
<style type="text/css">
	.st0{display:none;}
	.st1{display:inline;}
</style>
<g>
	<path d="M230,460H40l0,0V40l0,0h420l0,0v190h40V40c0-22.1-17.9-40-40-40H40C17.9,0,0,17.9,0,40v420c0,22.1,17.9,40,40,40h190V460z"
		/>
	<g>
		<path class="st0" d="M380,310L380,310C380,310,380,310,380,310v70c0,0,0,0,0,0h-70c0,0,0,0,0,0v-70c0,0,0,0,0,0H380 M380,270h-70
			c-22.1,0-40,17.9-40,40v70c0,22.1,17.9,40,40,40h70c22.1,0,40-17.9,40-40v-70C420,287.9,402.1,270,380,270L380,270z"/>
		<path d="M190,310L190,310C190,310,190,310,190,310v70c0,0,0,0,0,0h-70c0,0,0,0,0,0v-70c0,0,0,0,0,0H190 M190,270h-70
			c-22.1,0-40,17.9-40,40v70c0,22.1,17.9,40,40,40h70c22.1,0,40-17.9,40-40v-70C230,287.9,212.1,270,190,270L190,270z"/>
		<path d="M380,120L380,120L380,120v70l0,0h-70l0,0v-70l0,0H380 M380,80h-70c-22.1,0-40,17.9-40,40v70c0,22.1,17.9,40,40,40h70
			c22.1,0,40-17.9,40-40v-70C420,97.9,402.1,80,380,80L380,80z"/>
		<path d="M190,120L190,120C190,120,190,120,190,120v70c0,0,0,0,0,0h-70c0,0,0,0,0,0v-70c0,0,0,0,0,0H190 M190,80h-70
			c-22.1,0-40,17.9-40,40v70c0,22.1,17.9,40,40,40h70c22.1,0,40-17.9,40-40v-70C230,97.9,212.1,80,190,80L190,80z"/>
	</g>
</g>
<g class="st0">
	<path class="st1" d="M190,40v150H40V40H190 M190,0H40C17.9,0,0,17.9,0,40v150c0,22.1,17.9,40,40,40h150c22.1,0,40-17.9,40-40V40
		C230,17.9,212.1,0,190,0L190,0z"/>
	<path class="st1" d="M460,40v150H310V40H460 M460,0H310c-22.1,0-40,17.9-40,40v150c0,22.1,17.9,40,40,40h150c22.1,0,40-17.9,40-40
		V40C500,17.9,482.1,0,460,0L460,0z"/>
	<path class="st1" d="M190,310v150H40V310H190 M190,270H40c-22.1,0-40,17.9-40,40v150c0,22.1,17.9,40,40,40h150
		c22.1,0,40-17.9,40-40V310C230,287.9,212.1,270,190,270L190,270z"/>
	<path d="M460,310v150H310V310H460 M460,270H310c-22.1,0-40,17.9-40,40v150c0,22.1,17.9,40,40,40h150c22.1,0,40-17.9,40-40V310
		C500,287.9,482.1,270,460,270L460,270z"/>
</g>
<g id="path-1_00000063600719052267432200000011266817391517962633_" class="st0">
	<path class="st1" d="M424.3,385l72.9-72.9c3.7-3.7,3.7-9.7,0-13.4l-25.9-25.9c-3.7-3.7-9.7-3.7-13.4,0L385,345.7l-72.9-72.9
		c-3.7-3.7-9.7-3.7-13.4,0l-25.9,25.9c-3.7,3.7-3.7,9.7,0,13.4l72.9,72.9l-72.9,72.9c-3.7,3.7-3.7,9.7,0,13.4l25.9,25.9
		c1.9,1.9,4.3,2.8,6.7,2.8s4.9-0.9,6.7-2.8l72.9-72.9l72.9,72.9c1.9,1.9,4.3,2.8,6.7,2.8s4.9-0.9,6.7-2.8l25.9-25.9
		c3.7-3.7,3.7-9.7,0-13.4L424.3,385z"/>
</g>
<g id="path-1_00000162344839193283068580000014112280767819218593_" class="st0">
	<path class="st1" d="M370.7,345l47.5-47.5c2.4-2.4,2.4-6.3,0-8.7l-16.9-16.9c-2.4-2.4-6.3-2.4-8.7,0L345,319.3l-47.5-47.5
		c-2.4-2.4-6.3-2.4-8.7,0l-16.9,16.9c-2.4,2.4-2.4,6.3,0,8.7l47.5,47.5l-47.5,47.5c-2.4,2.4-2.4,6.3,0,8.7l16.9,16.9
		c1.2,1.2,2.8,1.8,4.4,1.8c1.6,0,3.2-0.6,4.4-1.8l47.5-47.5l47.5,47.5c1.2,1.2,2.8,1.8,4.4,1.8s3.2-0.6,4.4-1.8l16.9-16.9
		c2.4-2.4,2.4-6.3,0-8.7L370.7,345z"/>
</g>
<g id="sort">
	<g id="Group" transform="translate(0.000000, 10.000000)">
		<path id="Path" d="M385.1,429.9c0,1.4-0.5,2.7-1.6,4.1l-52.1,54.5c-1.1,1-2.3,1.5-3.8,1.5c-1.3,0-2.6-0.5-3.8-1.5l-52.2-54.6
			c-1.6-1.8-2-3.8-1.1-6c0.9-2.3,2.5-3.4,4.9-3.4h31.3v-159c0-1.6,0.5-2.9,1.5-3.9c1-1,2.2-1.5,3.8-1.5h31.3c1.5,0,2.8,0.5,3.8,1.5
			c1,1,1.5,2.3,1.5,3.9v159h31.3c1.5,0,2.8,0.5,3.8,1.5C384.6,427,385.1,428.3,385.1,429.9z"/>
		<path id="Path-Copy" d="M384.9,320.1c0-1.4,0.5-2.7,1.6-4.1l52.1-54.5c1.1-1,2.3-1.5,3.8-1.5c1.3,0,2.6,0.5,3.8,1.5l52.2,54.6
			c1.6,1.8,2,3.8,1.1,6c-0.9,2.3-2.5,3.4-4.9,3.4h-31.3v159c0,1.6-0.5,2.9-1.5,3.9c-1,1-2.2,1.5-3.8,1.5h-31.3
			c-1.5,0-2.8-0.5-3.8-1.5c-1-1-1.5-2.3-1.5-3.9v-159h-31.3c-1.5,0-2.8-0.5-3.8-1.5C385.4,323,384.9,321.7,384.9,320.1z"/>
	</g>
</g>
</svg>
