<?xml version="1.0" encoding="utf-8"?>
<!-- Generator: Adobe Illustrator 26.0.3, SVG Export Plug-In . SVG Version: 6.00 Build 0)  -->
<svg version="1.1" id="Ebene_1" xmlns="http://www.w3.org/2000/svg" xmlns:xlink="http://www.w3.org/1999/xlink" x="0px" y="0px"
	 viewBox="0 0 500 500" style="enable-background:new 0 0 500 500;" xml:space="preserve">
<path d="M469.9,0H30.1C13.5,0,0,13.5,0,30.1v317.8c0,16.6,13.5,30.1,30.1,30.1h90.1v106.8c0,12.7,14.7,19.7,24.6,11.7l146.3-118.6
	h178.8c16.6,0,30.1-13.5,30.1-30.1V30.1C500,13.5,486.5,0,469.9,0z M270,269c0,11-8.9,20-20,20H145c-11,0-20-8.9-20-20v0
	c0-11,8.9-20,20-20h105C261.1,249,270,257.9,270,269L270,269z M375,189c0,11-8.9,20-20,20H145c-11,0-20-8.9-20-20v0
	c0-11,8.9-20,20-20h210C366.1,169,375,177.9,375,189L375,189z M375,109c0,11-8.9,20-20,20H145c-11,0-20-8.9-20-20v0
	c0-11,8.9-20,20-20h210C366.1,89,375,97.9,375,109L375,109z"/>
</svg>
