<?xml version="1.0" encoding="UTF-8"?>
<svg width="500px" height="500px" viewBox="0 0 500 500" version="1.1" xmlns="http://www.w3.org/2000/svg" xmlns:xlink="http://www.w3.org/1999/xlink">
    <!-- Generator: Sketch 49.3 (51167) - http://www.bohemiancoding.com/sketch -->
    <title>start</title>
    <desc>Created with Sketch.</desc>
    <defs>
        <path d="M470,250.423047 C470,256.65002 467.646396,262.038746 462.939189,266.589227 L260.777027,462.020374 C256.06982,466.570854 250.495495,468.846094 244.054054,468.846094 C237.612613,468.846094 232.038288,466.570854 227.331081,462.020374 C222.623874,457.469894 220.27027,452.081167 220.27027,445.854194 L220.27027,342.390646 L53.7837838,342.390646 C47.3423423,342.390646 41.768018,340.115406 37.0608108,335.564926 C32.3536036,331.014445 30,325.625719 30,319.398746 L30,181.447348 C30,175.220375 32.3536036,169.831649 37.0608108,165.281169 C41.768018,160.730688 47.3423423,158.455448 53.7837838,158.455448 L220.27027,158.455448 L220.27027,54.9918997 C220.27027,48.7649269 222.623874,43.3762004 227.331081,38.8257202 C232.038288,34.2752401 237.612613,32 244.054054,32 C250.495495,32 256.06982,34.2752401 260.777027,38.8257202 L462.939189,234.256868 C467.646396,238.807348 470,244.196074 470,250.423047 Z" id="path-1"></path>
    </defs>
    <g id="start" stroke="none" stroke-width="1" fill="none" fill-rule="evenodd">
        <mask id="mask-2" fill="white">
            <use xlink:href="#path-1"></use>
        </mask>
        <use id="Mask" fill="#000000" fill-rule="nonzero" xlink:href="#path-1"></use>
    </g>
</svg>