<?xml version="1.0" encoding="UTF-8"?>
<svg width="500px" height="500px" viewBox="0 0 500 500" version="1.1" xmlns="http://www.w3.org/2000/svg" xmlns:xlink="http://www.w3.org/1999/xlink">
    <!-- Generator: Sketch 52.6 (67491) - http://www.bohemiancoding.com/sketch -->
    <title>star</title>
    <desc>Created with Sketch.</desc>
    <defs>
        <path d="M500,196.795673 C500,201.202724 497.395833,206.010417 492.1875,211.21875 L383.112981,317.588942 L408.954327,467.829327 C409.154647,469.231571 409.254808,471.234776 409.254808,473.838942 C409.254808,478.045673 408.203125,481.601362 406.09976,484.50601 C403.996394,487.410657 400.941506,488.862981 396.935096,488.862981 C393.129006,488.862981 389.122596,487.661058 384.915865,485.257212 L250,414.34375 L115.084135,485.257212 C110.677083,487.661058 106.670673,488.862981 103.064904,488.862981 C98.8581731,488.862981 95.703125,487.410657 93.5997596,484.50601 C91.4963942,481.601362 90.4447115,478.045673 90.4447115,473.838942 C90.4447115,472.637019 90.6450321,470.633814 91.0456731,467.829327 L116.887019,317.588942 L7.51201923,211.21875 C2.50400641,205.810096 0,201.002404 0,196.795673 C0,189.383814 5.60897436,184.776442 16.8269231,182.973558 L167.668269,161.038462 L235.276442,24.3197115 C239.082532,16.1065705 243.990385,12 250,12 C256.009615,12 260.917468,16.1065705 264.723558,24.3197115 L332.331731,161.038462 L483.173077,182.973558 C494.391026,184.776442 500,189.383814 500,196.795673 Z" id="path-1"></path>
    </defs>
    <g id="star" stroke="none" stroke-width="1" fill="none" fill-rule="evenodd">
        <mask id="mask-2" fill="white">
            <use xlink:href="#path-1"></use>
        </mask>
        <use id="Path" fill="#000000" xlink:href="#path-1"></use>
    </g>
</svg>