<?xml version="1.0" encoding="utf-8"?>
<!-- Generator: Adobe Illustrator 27.3.0, SVG Export Plug-In . SVG Version: 6.00 Build 0)  -->
<svg version="1.1" id="Ebene_1" xmlns="http://www.w3.org/2000/svg" xmlns:xlink="http://www.w3.org/1999/xlink" x="0px" y="0px"
	 viewBox="0 0 500 500" style="enable-background:new 0 0 500 500;" xml:space="preserve">
<path d="M460,210H40c-22.1,0-40,17.9-40,40l0,0c0,22.1,17.9,40,40,40h192.1c10.9,5.4,21.1,10.6,30.4,15.5
	c14.5,7.6,26.1,16,34.4,24.8c8.6,9.1,13,20.2,13,33c0,10.4-2.5,19.8-7.3,27.9c-4.9,8.2-12.9,14.7-23.6,19.3
	c-10.6,4.5-24.6,6.9-41.7,6.9c-24.6,0-49.7-4.2-74.6-12.4c-6.2-2-12.4-4.2-18.5-6.4c-4.2-1.5-8.4-2.2-12.6-2.2
	c-7.6,0-15,2.3-21.4,6.9c-10.1,7.2-16,18.4-16,30.8v10.2c0,15.8,10,30,24.9,35.3c5,1.8,10.2,3.5,15.3,5c14.5,4.3,30,7.5,45.9,9.7
	s32.4,3.3,49.1,3.3c37.6,0,70-5.8,96.3-17.1c26.1-11.3,46.3-27.5,59.9-48.3s20.5-45.6,20.5-73.8c0-24.9-4.7-46.1-14-62.8
	c-1-1.8-2.1-3.7-3.2-5.5H460c22.1,0,40-17.9,40-40l0,0C500,227.9,482.1,210,460,210z"/>
<path d="M210.1,170c-1.4-1.4-2.8-2.8-4-4.2c-7.1-8.3-10.8-18.6-10.8-30.7c0-10.2,2.5-19.3,7.4-27.1s12.2-14,21.7-18.2
	c9.4-4.2,20.8-6.4,34-6.4c18.5,0,37,2.5,54.9,7.6c7.9,2.2,16.3,4.9,25.1,7.9c18.7,6.4,39.4-2.8,46.9-21l2.9-6.9
	c4-9.6,3.9-20.2-0.4-29.7s-12-16.6-21.9-20.1c-11-3.8-21.9-7.1-32.4-9.8c-22.7-5.8-46.8-8.7-71.7-8.7c-33.2,0-62.4,5.5-86.6,16.3
	c-24.2,10.7-43,26.4-56,46.5s-19.6,44.7-19.6,73.2c0,11.3,1,21.9,3.1,31.6h107.4V170z"/>
</svg>
