<?xml version="1.0" encoding="utf-8"?>
<!-- Generator: Adobe Illustrator 27.2.0, SVG Export Plug-In . SVG Version: 6.00 Build 0)  -->
<svg version="1.1" id="Ebene_1" xmlns="http://www.w3.org/2000/svg" xmlns:xlink="http://www.w3.org/1999/xlink" x="0px" y="0px"
	 viewBox="0 0 500 500" style="enable-background:new 0 0 500 500;" xml:space="preserve">
<path d="M460,40L460,40C460,40,460,40,460,40v420c0,0,0,0,0,0H40c0,0,0,0,0,0V40c0,0,0,0,0,0H460 M460,0H40C17.9,0,0,17.9,0,40v420
	c0,22.1,17.9,40,40,40h420c22.1,0,40-17.9,40-40V40C500,17.9,482.1,0,460,0L460,0z"/>
<g>
	<path d="M380,310L380,310C380,310,380,310,380,310v70c0,0,0,0,0,0h-70c0,0,0,0,0,0v-70c0,0,0,0,0,0H380 M380,270h-70
		c-22.1,0-40,17.9-40,40v70c0,22.1,17.9,40,40,40h70c22.1,0,40-17.9,40-40v-70C420,287.9,402.1,270,380,270L380,270z"/>
	<path d="M190,310L190,310C190,310,190,310,190,310v70c0,0,0,0,0,0h-70c0,0,0,0,0,0v-70c0,0,0,0,0,0H190 M190,270h-70
		c-22.1,0-40,17.9-40,40v70c0,22.1,17.9,40,40,40h70c22.1,0,40-17.9,40-40v-70C230,287.9,212.1,270,190,270L190,270z"/>
	<path d="M380,120L380,120L380,120v70l0,0h-70l0,0v-70l0,0H380 M380,80h-70c-22.1,0-40,17.9-40,40v70c0,22.1,17.9,40,40,40h70
		c22.1,0,40-17.9,40-40v-70C420,97.9,402.1,80,380,80L380,80z"/>
	<path d="M190,120L190,120C190,120,190,120,190,120v70c0,0,0,0,0,0h-70c0,0,0,0,0,0v-70c0,0,0,0,0,0H190 M190,80h-70
		c-22.1,0-40,17.9-40,40v70c0,22.1,17.9,40,40,40h70c22.1,0,40-17.9,40-40v-70C230,97.9,212.1,80,190,80L190,80z"/>
</g>
</svg>
