<?xml version="1.0" encoding="utf-8"?>
<!-- Generator: Adobe Illustrator 26.2.1, SVG Export Plug-In . SVG Version: 6.00 Build 0)  -->
<svg version="1.1" id="Ebene_1" xmlns="http://www.w3.org/2000/svg" xmlns:xlink="http://www.w3.org/1999/xlink" x="0px" y="0px"
	 viewBox="0 0 500 500" style="enable-background:new 0 0 500 500;" xml:space="preserve">
<style type="text/css">
	.st0{fill-rule:evenodd;clip-rule:evenodd;}
</style>
<path class="st0" d="M250,0C111.9,0,0,111.9,0,250s111.9,250,250,250s250-111.9,250-250S388.1,0,250,0z M377.3,207.6L264.1,320.7
	c0,0,0,0,0,0L235.9,349c-7.8,7.8-20.5,7.8-28.3,0l-28.3-28.3c0,0,0,0,0,0l-56.6-56.6c-7.8-7.8-7.8-20.5,0-28.3l28.3-28.3
	c7.8-7.8,20.5-7.8,28.3,0l42.4,42.4l99-99c7.8-7.8,20.5-7.8,28.3,0l28.3,28.3C385.1,187.1,385.1,199.8,377.3,207.6z"/>
</svg>
