<?xml version="1.0" encoding="UTF-8"?>
<svg width="500px" height="500px" viewBox="0 0 500 500" version="1.1" xmlns="http://www.w3.org/2000/svg" xmlns:xlink="http://www.w3.org/1999/xlink">
    <!-- Generator: Sketch 52.6 (67491) - http://www.bohemiancoding.com/sketch -->
    <title>symdiff</title>
    <desc>Created with Sketch.</desc>
    <defs>
        <polygon id="path-1" points="0 0.225019417 248.790324 0.225019417 248.790324 301 0 301"></polygon>
        <polygon id="path-3" points="0.0865965116 0.22531165 248.876337 0.22531165 248.876337 301 0.0865965116 301"></polygon>
    </defs>
    <g id="symdiff" stroke="none" stroke-width="1" fill="none" fill-rule="evenodd">
        <g id="Group-7" transform="translate(1.000000, 100.000000)">
            <g id="Group-3">
                <mask id="mask-2" fill="white">
                    <use xlink:href="#path-1"></use>
                </mask>
                <g id="Clip-2"></g>
                <path d="M242.862638,258.199553 C213.653243,229.645466 197.565894,191.436 197.565894,150.613971 C197.565894,109.789019 213.653243,71.5824757 242.862638,43.025466 L248.790324,37.2304854 C221.425487,13.3199806 186.746627,0.225019417 150.196941,0.225019417 C67.3786151,0.225019417 -0.000291860465,67.689932 -0.000291860465,150.613971 C-0.000291860465,233.53801 67.3786151,301 150.196941,301 C186.749545,301 221.428406,287.907961 248.790324,263.994534 L242.862638,258.199553 Z" id="Fill-1" fill="#1D1D1B" mask="url(#mask-2)"></path>
            </g>
            <g id="Group-6" transform="translate(249.000000, 0.000000)">
                <mask id="mask-4" fill="white">
                    <use xlink:href="#path-3"></use>
                </mask>
                <g id="Clip-5"></g>
                <path d="M98.6828988,0.22531165 C62.1302942,0.22531165 27.4514337,13.3173505 0.0865965116,37.2307777 L6.01428256,43.0257583 C35.2236779,71.5798456 51.3110267,109.789312 51.3110267,150.611341 C51.3110267,191.436292 35.2236779,229.642836 6.01428256,258.199846 L0.0865965116,263.994826 C27.4485151,287.905331 62.1302942,301.000292 98.6828988,301.000292 C181.501224,301.000292 248.877213,233.53538 248.877213,150.611341 C248.877213,67.6873019 181.501224,0.22531165 98.6828988,0.22531165" id="Fill-4" fill="#1D1D1B" mask="url(#mask-4)"></path>
            </g>
        </g>
    </g>
</svg>