<?xml version="1.0" encoding="UTF-8"?>
<svg width="500px" height="500px" viewBox="0 0 500 500" version="1.1" xmlns="http://www.w3.org/2000/svg" xmlns:xlink="http://www.w3.org/1999/xlink">
    <!-- Generator: Sketch 52.6 (67491) - http://www.bohemiancoding.com/sketch -->
    <title>tempimport</title>
    <desc>Created with Sketch.</desc>
    <defs>
        <polygon id="path-1" points="0 0.0564052745 265.60217 0.0564052745 265.60217 339.493254 0 339.493254"></polygon>
        <polygon id="path-3" points="0.9463 -0.0003 448.946 -0.0003 448.946 175.9997 0.9463 175.9997"></polygon>
        <polygon id="path-5" points="0.7901 0.0001 408.946 0.0001 408.946 192.0001 0.7901 192.0001"></polygon>
    </defs>
    <g id="tempimport" stroke="none" stroke-width="1" fill="none" fill-rule="evenodd">
        <g id="Group-12" transform="translate(15.000000, -6.000000)">
            <g id="Group-3" transform="translate(0.000000, 58.000000)">
                <mask id="mask-2" fill="white">
                    <use xlink:href="#path-1"></use>
                </mask>
                <g id="Clip-2"></g>
                <path d="M12.4485,167.8702 C29.3265,210.8222 59.1945,243.6772 74.3165,258.4682 L32.6335,309.7382 C30.1265,312.8322 29.4595,316.3492 30.8015,319.3912 C32.1675,322.4872 35.3115,324.4052 39.4275,324.6472 L254.0305,339.4612 C257.8045,339.7242 261.2035,338.3592 263.3525,335.7192 C265.5035,333.0752 266.1515,329.4662 265.1255,325.8162 C265.1255,325.8132 265.1245,325.8102 265.1225,325.8072 L206.6355,118.8002 C205.9235,116.3512 204.6955,114.4062 203.1005,113.1132 C202.0845,112.2892 200.9195,111.7302 199.6435,111.4732 C196.4275,110.8242 193.1545,112.2172 190.6605,115.2922 L144.4065,172.2032 C104.4165,140.2262 28.0785,77.0712 47.2645,6.4602 C47.8985,4.1312 46.8035,1.6822 44.6465,0.5962 C42.4905,-0.4858 39.8695,0.0982 38.3795,1.9952 C16.5475,29.7812 3.8945,59.3862 0.7725,89.9902 C-1.8175,115.3602 2.1125,141.5632 12.4485,167.8702" id="Fill-1" fill="#000000" mask="url(#mask-2)"></path>
            </g>
            <g id="Group-6" transform="translate(21.000000, 336.000000)">
                <mask id="mask-4" fill="white">
                    <use xlink:href="#path-3"></use>
                </mask>
                <g id="Clip-5"></g>
                <path d="M276.3553,46.7697 C277.4693,57.9937 274.2473,69.2267 267.1733,77.9157 C259.1183,87.8147 247.0063,93.4927 233.9443,93.4927 C232.9053,93.4927 231.8503,93.4567 230.8263,93.3847 L16.3423,78.5807 C10.8723,78.2337 5.6763,76.8917 0.9463,74.7407 L0.9463,102.8567 C0.9463,143.1427 101.2793,175.9997 224.9463,175.9997 C348.6133,175.9997 448.9463,143.1427 448.9463,102.8567 L448.9463,-0.0003 C410.2633,26.6397 345.7663,41.8327 276.3553,46.7697" id="Fill-4" fill="#000000" mask="url(#mask-4)"></path>
            </g>
            <path d="M253.3748,224.5333 L289.0048,350.6393 C392.0838,344.0623 469.9458,314.3453 469.9458,278.8563 L469.9458,176.0003 C423.1778,208.2083 338.6748,223.6853 253.3748,224.5333" id="Fill-7" fill="#000000"></path>
            <g id="Group-11" transform="translate(61.000000, 0.000000)">
                <mask id="mask-6" fill="white">
                    <use xlink:href="#path-5"></use>
                </mask>
                <g id="Clip-10"></g>
                <path d="M184.9461,0.0001 C108.6461,0.0001 41.2411,12.5111 0.7901,31.5541 C14.6371,40.0811 21.4711,56.9481 17.1451,72.8511 C6.3901,112.4321 44.4421,154.4201 76.5161,182.8431 C77.7171,183.0611 78.9261,183.2751 80.1401,183.4861 L104.8001,153.1451 C112.9521,143.0851 124.7211,137.3171 137.0881,137.3171 C139.7271,137.3171 142.3781,137.5821 144.9721,138.1051 C151.2651,139.3751 157.2391,142.1921 162.2491,146.2521 C168.9531,151.6861 173.8341,159.1621 176.3651,167.8731 L176.3981,167.9861 L176.4301,168.1001 L183.1801,191.9931 C183.7701,191.9941 184.3561,192.0001 184.9461,192.0001 C308.6131,192.0001 408.9461,159.1431 408.9461,118.8571 L408.9461,73.1431 C408.9461,32.8571 308.6131,0.0001 184.9461,0.0001" id="Fill-9" fill="#000000" mask="url(#mask-6)"></path>
            </g>
        </g>
    </g>
</svg>