<?xml version="1.0" encoding="UTF-8"?>
<svg width="500px" height="500px" viewBox="0 0 500 500" version="1.1" xmlns="http://www.w3.org/2000/svg" xmlns:xlink="http://www.w3.org/1999/xlink">
    <!-- Generator: Sketch 52.6 (67491) - http://www.bohemiancoding.com/sketch -->
    <title>timeline</title>
    <desc>Created with Sketch.</desc>
    <defs>
        <path d="M153.763593,137.579196 C153.763593,145.380615 147.380615,151.763593 139.579196,151.763593 L16.1843972,151.763593 C8.38416076,151.763593 2,145.380615 2,137.579196 L2,14.1843972 C2,6.38416076 8.38416076,4.25550287e-15 16.1843972,3.77787614e-15 L139.579196,-3.77787614e-15 C147.380615,-4.25557525e-15 153.763593,6.38416076 153.763593,14.1843972 L153.763593,137.579196 Z M325.494917,137.579196 C325.494917,145.380615 319.111939,151.763593 311.31052,151.763593 L187.916903,151.763593 C180.115485,151.763593 173.732506,145.380615 173.732506,137.579196 L173.732506,14.1843972 C173.732506,6.38416076 180.115485,-2.51539846e-13 187.916903,-2.52017545e-13 L311.31052,-2.59573225e-13 C319.111939,-2.60050924e-13 325.494917,6.38416076 325.494917,14.1843972 L325.494917,137.579196 Z M497.226241,137.579196 C497.226241,145.380615 490.844444,151.763593 483.041844,151.763593 L359.648227,151.763593 C351.846809,151.763593 345.46383,145.380615 345.46383,137.579196 L345.46383,14.1843972 C345.46383,6.38416076 351.846809,-2.51539846e-13 359.648227,-2.52017545e-13 L483.041844,-2.59573225e-13 C490.844444,-2.60050996e-13 497.226241,6.38416076 497.226241,14.1843972 L497.226241,137.579196 Z M179.121949,321.607976 C166.25987,308.177573 157.603359,290.739049 153.392139,269.773755 C153.104963,268.342657 153.865462,266.903364 155.211018,266.331566 C156.559027,265.760442 158.117173,266.214947 158.940265,267.419547 C183.907129,303.937877 242.986768,293.425749 273.426245,287.485691 L265.404138,243.83449 C264.968337,241.477654 265.614436,239.421224 267.176384,238.189429 C267.796552,237.701153 268.511617,237.382732 269.290263,237.236663 C270.512837,237.005339 271.890944,237.201049 273.298393,237.831414 L391.587948,291.910775 C391.588793,291.911536 391.591246,291.91221 391.592091,291.912971 C393.676378,292.868841 395.083228,294.582177 395.453952,296.610307 C395.82544,298.63759 395.117226,300.740918 393.513159,302.381392 L302.347099,395.676525 C300.617574,397.481821 298.498987,398.183256 296.536901,397.601389 C294.608311,397.028195 293.251255,395.342811 292.811585,392.973283 L285.591888,353.641954 C272.839012,354.831378 245.974099,355.753156 219.566085,346.722378 C203.392762,341.191667 189.784023,332.741334 179.121949,321.607976 Z" id="path-1"></path>
    </defs>
    <g id="timeline" stroke="none" stroke-width="1" fill="none" fill-rule="evenodd">
        <mask id="mask-2" fill="white">
            <use xlink:href="#path-1"></use>
        </mask>
        <use id="Combined-Shape" fill="#000000" xlink:href="#path-1"></use>
    </g>
</svg>