<?xml version="1.0" encoding="utf-8"?>
<!-- Generator: Adobe Illustrator 25.3.1, SVG Export Plug-In . SVG Version: 6.00 Build 0)  -->
<svg version="1.1" id="Ebene_1" xmlns="http://www.w3.org/2000/svg" xmlns:xlink="http://www.w3.org/1999/xlink" x="0px" y="0px"
	 viewBox="0 0 500 500" style="enable-background:new 0 0 500 500;" xml:space="preserve">
<style type="text/css">
	.st0{display:none;}
	
		.st1{display:inline;fill-rule:evenodd;clip-rule:evenodd;fill:none;stroke:#000000;stroke-width:60;stroke-linecap:round;stroke-linejoin:round;stroke-miterlimit:10;}
	
		.st2{display:inline;fill-rule:evenodd;clip-rule:evenodd;fill:#FFFFFF;stroke:#000000;stroke-width:30;stroke-linecap:round;stroke-linejoin:round;stroke-miterlimit:10;}
	
		.st3{display:inline;fill-rule:evenodd;clip-rule:evenodd;fill:#FFFFFF;stroke:#000000;stroke-width:30;stroke-linecap:round;stroke-miterlimit:10;}
	.st4{stroke:#000000;stroke-miterlimit:10;}
</style>
<g class="st0">
	<line class="st1" x1="250" y1="469.8" x2="250" y2="30.2"/>
	<polygon class="st2" points="311.4,184.4 311.4,84.4 77.4,84.4 39.4,134.4 77.4,184.4 	"/>
	<polygon class="st2" points="188.6,262 188.6,162 422.6,162 460.6,212 422.6,262 	"/>
	<path class="st3" d="M276.8,428.8h-53.6c-30.9,0-56,25.1-56,56v0h165.6v0C332.8,453.9,307.7,428.8,276.8,428.8z"/>
</g>
<path class="st4" d="M280,413.9c-1.1,0-2.1-0.1-3.2-0.1h-53.6c-1.1,0-2.2,0-3.2,0.1c-37.7,1.7-67.8,32.9-67.8,70.9v15l195.6,0v-15
	C347.8,446.8,317.7,415.6,280,413.9z M223.2,443.8h53.6c17.3,0,32.2,10.8,38.2,26l-129.9,0C191,454.6,205.9,443.8,223.2,443.8z"/>
<path class="st4" d="M220,413.9c1.1,0,2.1-0.1,3.2-0.1h53.6c1.1,0,2.2,0,3.2,0.1V277h-60V413.9z"/>
<path class="st4" d="M280,30.2c0-16.6-13.4-30-30-30s-30,13.4-30,30v39.2h60V30.2z"/>
<path class="st4" d="M84.9,169.4l-26.6-35l26.6-35h211.5V147h30V84.4c0-8.3-6.7-15-15-15H280h-60H77.4c-4.7,0-9.1,2.2-11.9,5.9
	l-38,50c-4.1,5.4-4.1,12.8,0,18.2l38,50c2.8,3.7,7.3,5.9,11.9,5.9h96.2v-30H84.9z"/>
<path class="st4" d="M472.5,202.9l-38-50c-2.8-3.7-7.3-5.9-11.9-5.9h-96.2h-30H188.6c-8.3,0-15,6.7-15,15v7.4v30V262
	c0,8.3,6.7,15,15,15H220h60h142.6c4.7,0,9.1-2.2,11.9-5.9l38-50C476.6,215.7,476.6,208.3,472.5,202.9z M415.1,247H203.6v-70h211.5
	l26.6,35L415.1,247z"/>
</svg>
