<?xml version="1.0" encoding="UTF-8"?>
<svg width="500px" height="500px" viewBox="0 0 500 500" version="1.1" xmlns="http://www.w3.org/2000/svg" xmlns:xlink="http://www.w3.org/1999/xlink">
    <!-- Generator: Sketch 52.5 (67469) - http://www.bohemiancoding.com/sketch -->
    <title>trash</title>
    <desc>Created with Sketch.</desc>
    <defs>
        <path d="M468.794447,87.1983898 L470.54259,107.17976 C470.797528,110.09371 470.069984,112.569285 468.35996,114.606484 C466.649936,116.643684 464.337436,117.789797 461.422461,118.044825 L431.439859,120.667963 L71.6486321,152.145616 L41.6660299,154.768754 C38.7510547,155.023781 36.2746665,154.296641 34.2368655,152.587334 C32.1990644,150.878026 31.052695,148.566398 30.7977575,145.652448 L29.0496141,125.671077 C28.7946765,122.757128 29.5222198,120.281553 31.232244,118.244353 C32.9422682,116.207154 35.2547679,115.06104 38.1697431,114.806013 L134.676244,106.362788 L151.976996,52.3111949 C154.426421,44.3367982 159.474549,37.2885727 167.121382,31.1665183 C174.768214,25.044464 182.755881,21.6191122 191.084381,20.8904628 L291.026389,12.1466701 C299.354889,11.4180207 307.816011,13.40429 316.409755,18.1054781 C325.003499,22.8066661 331.198846,28.8712149 334.995797,36.2991246 L361.419673,86.5253086 L457.926174,78.0820838 C460.841149,77.8270565 463.317537,78.5541965 465.355339,80.2635039 C467.39314,81.9728113 468.539509,84.2844399 468.794447,87.1983898 Z M178.088553,102.564703 L318.007364,90.3233935 L299.820238,55.1065195 C298.198862,53.3607797 296.328902,52.3708516 294.210357,52.1367354 L195.205306,60.798555 C193.1596,61.3969959 191.489948,62.6965999 190.196349,64.6973671 L178.088553,102.564703 Z M426.533571,160.217349 L426.533571,430.179195 C426.533571,445.936461 421.63138,459.557954 411.826997,471.043673 C402.022615,482.529391 390.236495,488.27225 376.468639,488.27225 L116.130992,488.27225 C102.363135,488.27225 90.5770157,482.719238 80.7726332,471.613212 C70.9682506,460.507187 66.0660594,447.075541 66.0660594,431.318274 L66.0660594,160.217349 L426.533571,160.217349 Z M186.221897,406.467411 L186.221897,205.989415 C186.221897,203.331563 185.283179,201.148327 183.405744,199.439708 C181.528309,197.731089 179.129365,196.876779 176.20891,196.876779 L156.182937,196.876779 C153.262483,196.876779 150.863538,197.731089 148.986103,199.439708 C147.108668,201.148327 146.169951,203.331563 146.169951,205.989415 L146.169951,406.467411 C146.169951,409.125263 147.108668,411.308498 148.986103,413.017118 C150.863538,414.725737 153.262483,415.580047 156.182937,415.580047 L176.20891,415.580047 C179.129365,415.580047 181.528309,414.725737 183.405744,413.017118 C185.283179,411.308498 186.221897,409.125263 186.221897,406.467411 Z M266.325788,406.467411 L266.325788,205.989415 C266.325788,203.331563 265.387071,201.148327 263.509636,199.439708 C261.632201,197.731089 259.233256,196.876779 256.312802,196.876779 L236.286829,196.876779 C233.366374,196.876779 230.96743,197.731089 229.089995,199.439708 C227.21256,201.148327 226.273842,203.331563 226.273842,205.989415 L226.273842,406.467411 C226.273842,409.125263 227.21256,411.308498 229.089995,413.017118 C230.96743,414.725737 233.366374,415.580047 236.286829,415.580047 L256.312802,415.580047 C259.233256,415.580047 261.632201,414.725737 263.509636,413.017118 C265.387071,411.308498 266.325788,409.125263 266.325788,406.467411 Z M346.42968,406.467411 L346.42968,205.989415 C346.42968,203.331563 345.490962,201.148327 343.613527,199.439708 C341.736092,197.731089 339.337148,196.876779 336.416693,196.876779 L316.39072,196.876779 C313.470266,196.876779 311.071321,197.731089 309.193886,199.439708 C307.316451,201.148327 306.377734,203.331563 306.377734,205.989415 L306.377734,406.467411 C306.377734,409.125263 307.316451,411.308498 309.193886,413.017118 C311.071321,414.725737 313.470266,415.580047 316.39072,415.580047 L336.416693,415.580047 C339.337148,415.580047 341.736092,414.725737 343.613527,413.017118 C345.490962,411.308498 346.42968,409.125263 346.42968,406.467411 Z" id="path-1"></path>
    </defs>
    <g id="trash" stroke="none" stroke-width="1" fill="none" fill-rule="evenodd">
        <mask id="mask-2" fill="white">
            <use xlink:href="#path-1"></use>
        </mask>
        <use id="Combined-Shape" fill="#000000" fill-rule="nonzero" xlink:href="#path-1"></use>
    </g>
</svg>