<?xml version="1.0" encoding="UTF-8" standalone="no"?><!DOCTYPE svg PUBLIC "-//W3C//DTD SVG 1.1//EN" "http://www.w3.org/Graphics/SVG/1.1/DTD/svg11.dtd"><svg width="100%" height="100%" viewBox="0 0 640 640" version="1.1" xmlns="http://www.w3.org/2000/svg" xmlns:xlink="http://www.w3.org/1999/xlink" xml:space="preserve" xmlns:serif="http://www.serif.com/" style="fill-rule:evenodd;clip-rule:evenodd;stroke-linejoin:round;stroke-miterlimit:2;"><rect id="treemap-settings" x="0" y="0" width="640" height="640" style="fill:none;"/><clipPath id="_clip1"><rect id="treemap-settings1" serif:id="treemap-settings" x="0" y="0" width="640" height="640"/></clipPath><g clip-path="url(#_clip1)"><path d="M480,340c-0,-11.038 -8.962,-20 -20,-20l-120,0c-11.038,0 -20,8.962 -20,20l0,280c0,11.038 8.962,20 20,20l120,0c11.038,0 20,-8.962 20,-20l-0,-280Z"/><path d="M640,20c0,-11.038 -8.962,-20 -20,-20l-280,0c-11.038,0 -20,8.962 -20,20l0,248c0,11.038 8.962,20 20,20l280,0c11.038,0 20,-8.962 20,-20l0,-248Z"/><path d="M640,340c0,-11.038 -8.962,-20 -20,-20l-88,0c-11.038,0 -20,8.962 -20,20l0,152c0,11.038 8.962,20 20,20l88,0c11.038,0 20,-8.962 20,-20l0,-152Z"/><path d="M640,564c0,-11.038 -8.962,-20 -20,-20l-88,0c-11.038,0 -20,8.962 -20,20l0,56c0,11.038 8.962,20 20,20l88,0c11.038,0 20,-8.962 20,-20l0,-56Z"/><path d="M288,32l0,192c-26.5,-0 -49.125,9.375 -67.875,28.125c-18.75,18.75 -28.125,41.375 -28.125,67.875c0,26.5 9.375,49.125 28.125,67.875c18.75,18.75 41.375,28.125 67.875,28.125l0,192l-41.625,0c-3.5,0 -6.562,-1.062 -9.187,-3.187c-2.625,-2.125 -4.063,-4.813 -4.313,-8.063l-10.5,-69c-12.25,-4 -23.5,-8.625 -33.75,-13.875l-52.875,40.125c-2.5,2.25 -5.625,3.375 -9.375,3.375c-3.5,0 -6.625,-1.375 -9.375,-4.125c-31.5,-28.5 -52.125,-49.5 -61.875,-63c-1.75,-2.5 -2.625,-5.375 -2.625,-8.625c0,-3 1,-5.875 3,-8.625c3.75,-5.25 10.125,-13.562 19.125,-24.937c9,-11.375 15.75,-20.188 20.25,-26.438c-6.75,-12.5 -11.875,-24.875 -15.375,-37.125l-68.625,-10.125c-3.25,-0.5 -5.875,-2.062 -7.875,-4.687c-2,-2.625 -3,-5.563 -3,-8.813l0,-83.25c0,-3 1,-5.875 3,-8.625c2,-2.75 4.375,-4.375 7.125,-4.875l69.75,-10.5c3.5,-11.5 8.375,-23 14.625,-34.5c-10,-14.25 -23.375,-31.5 -40.125,-51.75c-2.5,-3 -3.75,-6 -3.75,-9c0,-2.5 1.125,-5.375 3.375,-8.625c6.5,-9 18.813,-22.438 36.938,-40.313c18.125,-17.875 29.937,-26.812 35.437,-26.812c3.25,-0 6.5,1.25 9.75,3.75l51.75,40.125c11,-5.75 22.375,-10.5 34.125,-14.25c4,-34 7.625,-57.25 10.875,-69.75c1.75,-7 6.25,-10.5 13.5,-10.5l41.625,-0Z" style="fill-rule:nonzero;"/></g></svg>