<?xml version="1.0" encoding="UTF-8" standalone="no"?><!DOCTYPE svg PUBLIC "-//W3C//DTD SVG 1.1//EN" "http://www.w3.org/Graphics/SVG/1.1/DTD/svg11.dtd"><svg width="100%" height="100%" viewBox="0 0 640 640" version="1.1" xmlns="http://www.w3.org/2000/svg" xmlns:xlink="http://www.w3.org/1999/xlink" xml:space="preserve" xmlns:serif="http://www.serif.com/" style="fill-rule:evenodd;clip-rule:evenodd;stroke-linejoin:round;stroke-miterlimit:2;"><rect id="treemap" x="0" y="0" width="640" height="640" style="fill:none;"/><clipPath id="_clip1"><rect id="treemap1" serif:id="treemap" x="0" y="0" width="640" height="640"/></clipPath><g clip-path="url(#_clip1)"><g><path d="M288,20c-0,-11.038 -8.962,-20 -20,-20l-248,0c-11.038,0 -20,8.962 -20,20l-0,600c-0,11.038 8.962,20 20,20l248,0c11.038,0 20,-8.962 20,-20l-0,-600Z"/><path d="M480,340c0,-11.038 -8.962,-20 -20,-20l-120,0c-11.038,0 -20,8.962 -20,20l0,280c0,11.038 8.962,20 20,20l120,0c11.038,0 20,-8.962 20,-20l0,-280Z"/><path d="M640,20c0,-11.038 -8.962,-20 -20,-20l-280,0c-11.038,0 -20,8.962 -20,20l0,248c0,11.038 8.962,20 20,20l280,0c11.038,0 20,-8.962 20,-20l0,-248Z"/><path d="M640,340c0,-11.038 -8.962,-20 -20,-20l-88,0c-11.038,0 -20,8.962 -20,20l0,152c0,11.038 8.962,20 20,20l88,0c11.038,0 20,-8.962 20,-20l0,-152Z"/><path d="M640,564c0,-11.038 -8.962,-20 -20,-20l-88,0c-11.038,0 -20,8.962 -20,20l0,56c0,11.038 8.962,20 20,20l88,0c11.038,0 20,-8.962 20,-20l0,-56Z"/></g></g></svg>