<?xml version="1.0" encoding="utf-8"?>
<!-- Generator: Adobe Illustrator 25.4.1, SVG Export Plug-In . SVG Version: 6.00 Build 0)  -->
<svg version="1.1" id="Ebene_1" xmlns="http://www.w3.org/2000/svg" xmlns:xlink="http://www.w3.org/1999/xlink" x="0px" y="0px"
	 viewBox="0 0 500 500" style="enable-background:new 0 0 500 500;" xml:space="preserve">
<style type="text/css">
	.st0{display:none;}
	.st1{display:inline;fill:none;stroke:#000000;stroke-width:40;stroke-miterlimit:10;stroke-dasharray:72,46;}
	.st2{display:inline;}
	.st3{fill:#FFFFFF;}
	.st4{fill-rule:evenodd;clip-rule:evenodd;}
</style>
<desc>Created with Sketch.</desc>
<g class="st0">
	<path class="st1" d="M480,440V60c0-22.1-17.9-40-40-40H310c-22.1,0-40,17.9-40,40v380c0,22.1,17.9,40,40,40h130
		C462.1,480,480,462.1,480,440z"/>
	<g class="st2">
		<path class="st3" d="M60,480c-22.1,0-40-18-40-40V310c0-22.1,18-40,40-40H440c22.1,0,40,18,40,40V440c0,22.1-18,40-40,40H60z"/>
		<path d="M440,290c11.1,0,20,9,20,20V440c0,11.1-9,20-20,20H60c-11.1,0-20-9-20-20V310c0-11.1,9-20,20-20H440 M440,250H60
			c-33.2,0-60,26.9-60,60V440c0,33.2,26.9,60,60,60H440c33.2,0,60-26.9,60-60V310C500,276.9,473.1,250,440,250L440,250z"/>
	</g>
</g>
<g>
	<g>
		<rect x="250" y="94.4" width="40" height="63"/>
		<rect x="250" y="195.4" width="40" height="54.6"/>
		<rect x="343.2" width="63" height="40"/>
		<path d="M290,40.1c0,0,0.1-0.1,0.1-0.1h15.1V0h-15.1C268,0,250,18,250,40.1v16.3h40L290,40.1z"/>
		<path d="M459.7,500h0.2c0.3,0,0.6,0,0.9,0C460.4,500,460,500,459.7,500z"/>
		<path d="M461.9,499.9c0.1,0,0.3,0,0.4,0l0,0C462.1,499.9,462,499.9,461.9,499.9z"/>
		<rect x="460" y="93.9" width="40" height="63"/>
		<path d="M459.9,0h-15.6v40l15.7,0c0,0,0.1,0.1,0.1,0.1v15.7h40V40.1C500,18,482,0,459.9,0z"/>
		<path d="M500,459.9v-0.2C500,459.7,500,459.8,500,459.9L500,459.9z"/>
		<path d="M460,250c8.8,0.1,17,3,23.6,7.8H500v-63h-40V250z"/>
	</g>
	<g>
		<path d="M459.7,290c0.1,0,0.1,0,0.1,0c0.1,0,0.2,0.1,0.2,0.2c0,0,0,0,0,0.1v169.4c0,0.1,0,0.1,0,0.1c0,0.1-0.1,0.2-0.2,0.2
			c0,0,0,0-0.1,0H40.3c-0.1,0-0.1,0-0.1,0c-0.1,0-0.2-0.1-0.2-0.2c0,0,0,0,0-0.1V290.3c0-0.1,0-0.1,0-0.1c0-0.1,0.1-0.2,0.2-0.2
			c0,0,0,0,0.1,0H459.7 M459.7,250H40.3C18.1,250,0,268.1,0,290.3v169.4C0,481.9,18.1,500,40.3,500h419.4
			c22.3,0,40.3-18.1,40.3-40.3V290.3C500,268.1,481.9,250,459.7,250L459.7,250z"/>
	</g>
</g>
<path id="Fill-1" class="st4" d="M200,80.7c0.8-1.5,0.8-3.2,0.1-4.5c-0.7-1.4-2.1-2.3-3.8-2.5l-96.4-12c-1.8-0.2-3.4,0.3-4.3,1.6
	c-0.9,1.2-0.9,2.8,0,4.4l14,26.3c-8,5.2-24.1,17.2-35.3,34.8c-6.9,10.8-10.9,22-11.9,33.5c-1.3,13.8,1.8,28,9,42.3
	c0.5,1,1.6,1.5,2.7,1.2c1-0.3,1.7-1.3,1.7-2.4c-2.4-33,36.9-54.3,57.4-65l15.6,29.2c0.8,1.6,2.2,2.5,3.6,2.5c0.6,0,1.2-0.2,1.7-0.4
	c0.8-0.4,1.5-1.2,2.1-2.2L200,80.7z"/>
</svg>
