<?xml version="1.0" encoding="utf-8"?>
<!-- Generator: Adobe Illustrator 25.4.1, SVG Export Plug-In . SVG Version: 6.00 Build 0)  -->
<svg version="1.1" id="Ebene_1" xmlns="http://www.w3.org/2000/svg" xmlns:xlink="http://www.w3.org/1999/xlink" x="0px" y="0px"
	 viewBox="0 0 500 500" style="enable-background:new 0 0 500 500;" xml:space="preserve">
<style type="text/css">
	.st0{display:none;}
	.st1{display:inline;fill:none;stroke:#000000;stroke-width:40;stroke-miterlimit:10;stroke-dasharray:72,46;}
	.st2{display:inline;}
	.st3{fill:#FFFFFF;}
	.st4{display:none;fill-rule:evenodd;clip-rule:evenodd;}
	.st5{fill-rule:evenodd;clip-rule:evenodd;}
</style>
<desc>Created with Sketch.</desc>
<g class="st0">
	<path class="st1" d="M480,440V60c0-22.1-17.9-40-40-40H310c-22.1,0-40,17.9-40,40v380c0,22.1,17.9,40,40,40h130
		C462.1,480,480,462.1,480,440z"/>
	<g class="st2">
		<path class="st3" d="M60,480c-22.1,0-40-18-40-40V310c0-22.1,18-40,40-40H440c22.1,0,40,18,40,40V440c0,22.1-18,40-40,40H60z"/>
		<path d="M440,290c11.1,0,20,9,20,20V440c0,11.1-9,20-20,20H60c-11.1,0-20-9-20-20V310c0-11.1,9-20,20-20H440 M440,250H60
			c-33.2,0-60,26.9-60,60V440c0,33.2,26.9,60,60,60H440c33.2,0,60-26.9,60-60V310C500,276.9,473.1,250,440,250L440,250z"/>
	</g>
</g>
<g>
	<g>
		<rect x="94.4" y="250" width="63" height="40"/>
		<rect x="195.4" y="250" width="54.6" height="40"/>
		<rect y="343.2" width="40" height="63"/>
		<path d="M40.1,290c0,0-0.1,0.1-0.1,0.1v15.1H0v-15.1C0,268,18,250,40.1,250h16.3v40L40.1,290z"/>
		<path d="M500,459.7v0.2c0,0.3,0,0.6,0,0.9C500,460.4,500,460,500,459.7z"/>
		<path d="M499.9,461.9c0,0.1,0,0.3,0,0.4l0,0C499.9,462.1,499.9,462,499.9,461.9z"/>
		<rect x="93.9" y="460" width="63" height="40"/>
		<path d="M0,459.9v-15.6h40l0,15.7c0,0,0.1,0.1,0.1,0.1h15.7v40H40.1C18,500,0,482,0,459.9z"/>
		<path d="M459.9,500h-0.2C459.7,500,459.8,500,459.9,500L459.9,500z"/>
		<path d="M250,460c0.1,8.8,3,17,7.8,23.6V500h-63v-40H250z"/>
	</g>
	<g>
		<path d="M459.7,40c0.1,0,0.1,0,0.1,0c0.1,0,0.2,0.1,0.2,0.2c0,0,0,0,0,0.1v419.4c0,0.1,0,0.1,0,0.1c0,0.1-0.1,0.2-0.2,0.2
			c0,0,0,0-0.1,0H290.3c-0.1,0-0.1,0-0.1,0c-0.1,0-0.2-0.1-0.2-0.2c0,0,0,0,0-0.1V40.3c0-0.1,0-0.1,0-0.1c0-0.1,0.1-0.2,0.2-0.2
			c0,0,0,0,0.1,0H459.7 M459.7,0H290.3C268.1,0,250,18.1,250,40.3v419.4c0,22.3,18.1,40.3,40.3,40.3h169.4
			c22.3,0,40.3-18.1,40.3-40.3V40.3C500,18.1,481.9,0,459.7,0L459.7,0z"/>
	</g>
</g>
<path id="Fill-1" class="st4" d="M200,80.7c0.8-1.5,0.8-3.2,0.1-4.5c-0.7-1.4-2.1-2.3-3.8-2.5l-96.4-12c-1.8-0.2-3.4,0.3-4.3,1.6
	c-0.9,1.2-0.9,2.8,0,4.4l14,26.3c-8,5.2-24.1,17.2-35.3,34.8c-6.9,10.8-10.9,22-11.9,33.5c-1.3,13.8,1.8,28,9,42.3
	c0.5,1,1.6,1.5,2.7,1.2c1-0.3,1.7-1.3,1.7-2.4c-2.4-33,36.9-54.3,57.4-65l15.6,29.2c0.8,1.6,2.2,2.5,3.6,2.5c0.6,0,1.2-0.2,1.7-0.4
	c0.8-0.4,1.5-1.2,2.1-2.2L200,80.7z"/>
<path id="Fill-1_00000072243107218583224770000003373657677879479179_" class="st5" d="M167.1,156.3c1-0.5,1.8-1.2,2.2-2.1
	c0.3-0.5,0.4-1.1,0.4-1.7c0-1.5-0.9-2.8-2.5-3.6L138,133.3c10.7-20.5,32.1-59.8,65-57.4c1.1,0.1,2.1-0.6,2.4-1.7
	c0.3-1-0.2-2.2-1.2-2.7c-14.2-7.3-28.4-10.3-42.3-9c-11.5,1.1-22.7,5.1-33.5,11.9c-17.6,11.2-29.5,27.3-34.8,35.3l-26.3-14
	c-1.6-0.8-3.2-0.8-4.4,0c-1.3,0.9-1.8,2.4-1.6,4.3l12,96.4c0.2,1.7,1.1,3.1,2.5,3.8c1.4,0.7,3,0.7,4.5-0.1L167.1,156.3z"/>
</svg>
