<?xml version="1.0" encoding="utf-8"?>
<!-- Generator: Adobe Illustrator 26.2.0, SVG Export Plug-In . SVG Version: 6.00 Build 0)  -->
<svg version="1.1" id="Ebene_1" xmlns="http://www.w3.org/2000/svg" xmlns:xlink="http://www.w3.org/1999/xlink" x="0px" y="0px"
	 viewBox="0 0 500 500" style="enable-background:new 0 0 500 500;" xml:space="preserve">
<path d="M119,364.5L107.8,342h-1.2c-7.9,9.7-15.9,16.4-24,20c-8.2,3.6-18.7,5.4-31.6,5.4c-15.9,0-28.4-4.8-37.6-14.3
	c-9.1-9.5-13.7-23-13.7-40.3c0-18,6.3-31.4,18.8-40.2C31,264,49.2,259,72.9,257.8l28.2-0.9v-2.4c0-13.9-6.9-20.9-20.6-20.9
	c-12.3,0-28,4.2-47,12.5l-16.9-38.5c19.7-10.1,44.5-15.2,74.6-15.2c21.7,0,38.4,5.4,50.3,16.1c11.9,10.7,17.8,25.8,17.8,45v110.8
	L119,364.5L119,364.5z M75.8,326.3c7.1,0,13.1-2.2,18.1-6.7s7.5-10.3,7.5-17.4v-13.1L88,289.6c-19.2,0.7-28.8,7.8-28.8,21.2
	C59.2,321.1,64.7,326.3,75.8,326.3z"/>
<path d="M285.8,192.6c18.4,0,33,7.7,43.8,23.1s16.2,36.7,16.2,64c0,27.4-5.4,48.9-16.3,64.5c-10.9,15.6-26,23.3-45.4,23.3
	c-6.3,0-11.8-0.7-16.7-2c-4.9-1.3-9.2-3.2-13-5.6c-3.8-2.4-8.3-6.4-13.3-11.9h-3.6l-9.2,16.6h-45.5v-232h58.3v52.5
	c0,6.3-0.7,17.1-2.1,32.4h2.1c5.7-8.7,12.2-15.1,19.6-18.9C267.9,194.4,276.3,192.6,285.8,192.6z M264.4,238.3
	c-8.2,0-14.1,2.8-17.9,8.5c-3.8,5.7-5.7,14.6-5.7,26.7v8.2c0,13.8,1.9,23.7,5.7,29.8c3.8,6,9.9,9,18.5,9c6.9,0,12.1-3.5,15.8-10.5
	c3.7-7,5.5-17.3,5.5-30.9C286.3,251.8,279,238.3,264.4,238.3z"/>
<path d="M440.3,367.5c-27.6,0-48.6-7.5-62.9-22.4c-14.3-14.9-21.4-36.3-21.4-64.3s7.7-49.8,23.1-65.2s37.3-23.1,65.8-23.1
	c19.6,0,38,4.3,55.3,12.8l-17.1,43.1c-7.1-3.1-13.6-5.5-19.5-7.4c-6-1.8-12.2-2.8-18.6-2.8c-9.4,0-16.8,3.7-21.9,11
	c-5.2,7.4-7.8,17.7-7.8,31.2c0,27,10,40.6,30,40.6c17.1,0,33.5-5,49.2-14.9v46.4C479.4,362.5,461.4,367.5,440.3,367.5z"/>
</svg>
