<?xml version="1.0" encoding="utf-8"?>
<!-- Generator: Adobe Illustrator 26.2.1, SVG Export Plug-In . SVG Version: 6.00 Build 0)  -->
<svg version="1.1" id="Ebene_1" xmlns="http://www.w3.org/2000/svg" xmlns:xlink="http://www.w3.org/1999/xlink" x="0px" y="0px"
	 viewBox="0 0 500 500" style="enable-background:new 0 0 500 500;" xml:space="preserve">
<g>
	<path d="M43.2,335.1c-8.7,0-16.3-2.5-22.9-7.5c-6.5-5-11.6-12.3-15.1-21.9c-3.6-9.7-5.3-20.9-5.3-33.8c0-19.9,4-35.4,12-46.7
		c8-11.2,19-16.9,33-16.9c6.8,0,12.8,1.4,18,4.1c5.1,2.7,9.8,7.3,14.1,13.8h0.9c-1.4-9.6-2.1-19.2-2.1-28.7v-32.7h42.6V333H86.5
		l-9.1-15.5h-1.6C68.5,329.3,57.6,335.1,43.2,335.1z M60.5,301.8c6.8,0,11.5-2.1,14.3-6.4c2.8-4.2,4.3-10.8,4.5-19.7v-3.4
		c0-10.8-1.5-18.5-4.6-23.1c-3.1-4.6-8-6.9-14.6-6.9c-5.5,0-9.9,2.6-12.9,7.8c-3.1,5.2-4.6,12.7-4.6,22.3c0,9.5,1.5,16.7,4.6,21.7
		C50.3,299.3,54.8,301.8,60.5,301.8z"/>
	<path d="M227.4,333l-8.1-16.2h-0.9c-5.7,7.1-11.5,11.9-17.4,14.5c-5.9,2.6-13.5,3.9-22.9,3.9c-11.5,0-20.6-3.5-27.2-10.4
		c-6.6-6.9-9.9-16.6-9.9-29.2c0-13,4.5-22.7,13.6-29.1c9.1-6.4,22.2-10,39.4-10.8l20.4-0.6v-1.7c0-10.1-5-15.1-14.9-15.1
		c-8.9,0-20.3,3-34,9.1l-12.2-27.9c14.3-7.3,32.3-11,54-11c15.7,0,27.9,3.9,36.5,11.7c8.6,7.8,12.9,18.7,12.9,32.6V333H227.4z
		 M196,305.3c5.1,0,9.5-1.6,13.1-4.9c3.6-3.2,5.5-7.5,5.5-12.6v-9.5l-9.7,0.4c-13.9,0.5-20.9,5.6-20.9,15.3
		C184,301.6,188,305.3,196,305.3z"/>
	<path d="M345.4,301.8c5.7,0,12.5-1.4,20.4-4.2v30.8c-5.7,2.5-11.1,4.2-16.3,5.2c-5.2,1-11.2,1.6-18.1,1.6
		c-14.2,0-24.4-3.5-30.7-10.4c-6.3-7-9.4-17.6-9.4-32v-50.5h-14.8V225l18.8-13.3l10.9-25.7h27.7v24.5h30v31.7h-30v47.7
		C333.9,297.8,337.7,301.8,345.4,301.8z"/>
	<path d="M446.3,335.1c-20.4,0-36.2-5.4-47.5-16.3c-11.3-10.8-16.9-26.3-16.9-46.3c0-20.7,5.2-36.5,15.7-47.6
		c10.4-11.1,25.4-16.6,44.7-16.6c18.4,0,32.7,4.8,42.7,14.4c10,9.6,15.1,23.5,15.1,41.5v18.8h-75.5c0.3,6.8,2.8,12.2,7.5,16.1
		c4.7,3.9,11.1,5.8,19.3,5.8c7.4,0,14.2-0.7,20.5-2.1c6.2-1.4,13-3.8,20.3-7.2v30.4c-6.6,3.4-13.5,5.7-20.5,7
		C464.5,334.5,456.1,335.1,446.3,335.1z M443.8,237.1c-5,0-9.1,1.6-12.5,4.7c-3.3,3.1-5.3,8.1-5.9,14.7h36.3
		c-0.1-5.9-1.8-10.6-5-14.2C453.5,238.9,449.2,237.1,443.8,237.1z"/>
</g>
</svg>
