<?xml version="1.0" encoding="utf-8"?>
<!-- Generator: Adobe Illustrator 26.2.0, SVG Export Plug-In . SVG Version: 6.00 Build 0)  -->
<svg version="1.1" id="Ebene_1" xmlns="http://www.w3.org/2000/svg" xmlns:xlink="http://www.w3.org/1999/xlink" x="0px" y="0px"
	 viewBox="0 0 500 500" style="enable-background:new 0 0 500 500;" xml:space="preserve">
<g>
	<path d="M125,356.7H66.6V243.8c0-13.7,0.3-26.2,0.9-37.6c-3.6,4.4-8.1,8.9-13.4,13.7l-24.2,20L0,203.1l73.1-59.6H125V356.7z"/>
	<path d="M321,356.7H166.5v-37.9l52-52.6c14.9-15.5,24.6-26.2,29.1-31.9c4.6-5.7,7.7-10.6,9.5-14.7c1.8-4.1,2.7-8.4,2.7-12.8
		c0-5.5-1.8-9.9-5.4-13.1c-3.6-3.2-8.6-4.8-15.2-4.8c-6.7,0-13.5,1.9-20.3,5.8c-6.8,3.8-14.6,9.5-23.2,17l-31.6-37
		c11-9.8,20.2-16.8,27.7-21.1c7.5-4.2,15.6-7.5,24.4-9.7c8.8-2.2,18.7-3.4,29.6-3.4c13.8,0,26.1,2.4,36.9,7.3
		c10.8,4.9,19.2,11.8,25.2,20.8c6,9,9,19.1,9,30.3c0,8.4-1,16.1-3.1,23.2c-2.1,7.1-5.3,14.1-9.7,20.9c-4.4,6.9-10.2,14.1-17.4,21.7
		c-7.2,7.6-22.7,22-46.3,43.2v1.5H321V356.7z"/>
	<path d="M493.7,189.7c0,13.2-4,24.6-12.1,34c-8.1,9.5-19.7,16.4-35,20.6v0.9c35.5,4.5,53.3,21.3,53.3,50.4
		c0,19.8-7.8,35.4-23.5,46.8c-15.7,11.4-37.5,17.1-65.3,17.1c-11.5,0-22.1-0.8-31.8-2.5c-9.8-1.7-20.3-4.7-31.7-9v-47.8
		c9.3,4.8,18.8,8.3,28.5,10.6c9.7,2.3,18.6,3.4,26.7,3.4c12.6,0,21.8-1.8,27.6-5.3c5.8-3.5,8.7-9.1,8.7-16.7
		c0-5.8-1.5-10.3-4.5-13.5c-3-3.2-7.9-5.5-14.6-7.1c-6.7-1.6-15.4-2.4-26.2-2.4h-13.1v-43.3h13.4c29.2,0,43.9-7.5,43.9-22.5
		c0-5.6-2.2-9.8-6.5-12.5c-4.3-2.7-10.1-4.1-17.4-4.1c-13.6,0-27.7,4.6-42.2,13.7L347.9,162c11.3-7.8,22.8-13.3,34.6-16.6
		c11.8-3.3,25.3-5,40.6-5c22,0,39.3,4.4,51.9,13.1C487.5,162.3,493.7,174.4,493.7,189.7z"/>
</g>
</svg>
