<?xml version="1.0" encoding="utf-8"?>
<!-- Generator: Adobe Illustrator 27.3.0, SVG Export Plug-In . SVG Version: 6.00 Build 0)  -->
<svg version="1.1" id="Ebene_1" xmlns="http://www.w3.org/2000/svg" xmlns:xlink="http://www.w3.org/1999/xlink" x="0px" y="0px"
	 viewBox="0 0 500 500" style="enable-background:new 0 0 500 500;" xml:space="preserve">
<path d="M170.7,289.3c10.7,0,20.7,4.2,28.3,11.7c7.6,7.6,11.7,17.6,11.7,28.3c0,10.7-4.2,20.7-11.7,28.3l-70.7,70.7
	c-7.6,7.6-17.6,11.7-28.3,11.7s-20.7-4.2-28.3-11.7C64.2,420.7,60,410.7,60,400s4.2-20.7,11.7-28.3l70.7-70.7
	C150,293.4,160,289.3,170.7,289.3 M170.7,229.3c-25.6,0-51.2,9.8-70.7,29.3l-70.7,70.7c-39.1,39.1-39.1,102.4,0,141.4
	C48.8,490.2,74.4,500,100,500s51.2-9.8,70.7-29.3l70.7-70.7c39.1-39.1,39.1-102.4,0-141.4C221.9,239.1,196.3,229.3,170.7,229.3
	L170.7,229.3z"/>
<path d="M400,60c10.7,0,20.7,4.2,28.3,11.7c7.6,7.6,11.7,17.6,11.7,28.3s-4.2,20.7-11.7,28.3L357.6,199
	c-7.6,7.6-17.6,11.7-28.3,11.7c-10.7,0-20.7-4.2-28.3-11.7c-15.6-15.6-15.6-41,0-56.6l70.7-70.7C379.3,64.2,389.3,60,400,60 M400,0
	c-25.6,0-51.2,9.8-70.7,29.3L258.6,100c-39.1,39.1-39.1,102.4,0,141.4l0,0c19.5,19.5,45.1,29.3,70.7,29.3c25.6,0,51.2-9.8,70.7-29.3
	l70.7-70.7c39.1-39.1,39.1-102.4,0-141.4C451.2,9.8,425.6,0,400,0L400,0z"/>
<g>
	<path d="M120,150H60c-16.6,0-30,13.4-30,30s13.4,30,30,30h60c16.6,0,30-13.4,30-30S136.6,150,120,150L120,150z"/>
</g>
<g>
	<path d="M180,30c-16.6,0-30,13.4-30,30v60c0,16.6,13.4,30,30,30s30-13.4,30-30V60C210,43.4,196.6,30,180,30L180,30z"/>
</g>
<g>
	<path d="M440,290h-60c-16.6,0-30,13.4-30,30s13.4,30,30,30h60c16.6,0,30-13.4,30-30S456.6,290,440,290L440,290z"/>
</g>
<g>
	<path d="M320,350c-16.6,0-30,13.4-30,30v60c0,16.6,13.4,30,30,30s30-13.4,30-30v-60C350,363.4,336.6,350,320,350L320,350z"/>
</g>
</svg>
