<?xml version="1.0" encoding="utf-8"?>
<!-- Generator: Adobe Illustrator 27.3.0, SVG Export Plug-In . SVG Version: 6.00 Build 0)  -->
<svg version="1.1" id="Ebene_1" xmlns="http://www.w3.org/2000/svg" xmlns:xlink="http://www.w3.org/1999/xlink" x="0px" y="0px"
	 viewBox="0 0 500 500" style="enable-background:new 0 0 500 500;" xml:space="preserve">
<path d="M391.9,420H108.1c-22.1,0-40,17.9-40,40l0,0c0,22.1,17.9,40,40,40H392c22.1,0,40-17.9,40-40l0,0
	C431.9,437.9,414,420,391.9,420z"/>
<path d="M364.2,0c21.9,0,39.6,17.7,39.6,39.6v202.9c0,25.8-5.7,49.1-17.1,69.9s-28.6,37.2-51.5,49.4c-23,12.1-51.9,18.2-86.8,18.2
	c-49.6,0-87.4-12.6-113.3-37.9c-26-25.3-39-58.8-39-100.5v-202C96.2,17.7,113.9,0,135.8,0l0,0c21.9,0,39.6,17.7,39.6,39.6v189.9
	c0,30.9,6.3,52.7,19,65.1c12.6,12.5,31.4,18.7,56.2,18.7c17.4,0,31.6-3,42.4-9c10.9-6,18.8-15.2,24-27.7c5.1-12.5,7.7-28.4,7.7-47.7
	V39.6C324.6,17.7,342.4,0,364.2,0L364.2,0z"/>
</svg>
