<?xml version="1.0" encoding="utf-8"?>
<!-- Generator: Adobe Illustrator 27.2.0, SVG Export Plug-In . SVG Version: 6.00 Build 0)  -->
<svg version="1.1" id="Ebene_1" xmlns="http://www.w3.org/2000/svg" xmlns:xlink="http://www.w3.org/1999/xlink" x="0px" y="0px"
	 viewBox="0 0 500 500" style="enable-background:new 0 0 500 500;" xml:space="preserve">
<style type="text/css">
	.st0{display:none;}
	.st1{display:inline;}
	.st2{display:inline;fill:#FFFFFF;}
</style>
<g class="st0">
	<path class="st1" d="M460,40L460,40C460,40,460,40,460,40v420c0,0,0,0,0,0H40c0,0,0,0,0,0V40c0,0,0,0,0,0H460 M460,0H40
		C17.9,0,0,17.9,0,40v420c0,22.1,17.9,40,40,40h420c22.1,0,40-17.9,40-40V40C500,17.9,482.1,0,460,0L460,0z"/>
	<g class="st1">
		<path class="st0" d="M380,310L380,310C380,310,380,310,380,310v70c0,0,0,0,0,0h-70c0,0,0,0,0,0v-70c0,0,0,0,0,0H380 M380,270h-70
			c-22.1,0-40,17.9-40,40v70c0,22.1,17.9,40,40,40h70c22.1,0,40-17.9,40-40v-70C420,287.9,402.1,270,380,270L380,270z"/>
		<path d="M190,310L190,310C190,310,190,310,190,310v70c0,0,0,0,0,0h-70c0,0,0,0,0,0v-70c0,0,0,0,0,0H190 M190,270h-70
			c-22.1,0-40,17.9-40,40v70c0,22.1,17.9,40,40,40h70c22.1,0,40-17.9,40-40v-70C230,287.9,212.1,270,190,270L190,270z"/>
		<path d="M380,120L380,120L380,120v70l0,0h-70l0,0v-70l0,0H380 M380,80h-70c-22.1,0-40,17.9-40,40v70c0,22.1,17.9,40,40,40h70
			c22.1,0,40-17.9,40-40v-70C420,97.9,402.1,80,380,80L380,80z"/>
		<path d="M190,120L190,120C190,120,190,120,190,120v70c0,0,0,0,0,0h-70c0,0,0,0,0,0v-70c0,0,0,0,0,0H190 M190,80h-70
			c-22.1,0-40,17.9-40,40v70c0,22.1,17.9,40,40,40h70c22.1,0,40-17.9,40-40v-70C230,97.9,212.1,80,190,80L190,80z"/>
	</g>
</g>
<g>
	<path d="M190,40v150H40V40H190 M190,0H40C17.9,0,0,17.9,0,40v150c0,22.1,17.9,40,40,40h150c22.1,0,40-17.9,40-40V40
		C230,17.9,212.1,0,190,0L190,0z"/>
	<path d="M460,40v150H310V40H460 M460,0H310c-22.1,0-40,17.9-40,40v150c0,22.1,17.9,40,40,40h150c22.1,0,40-17.9,40-40V40
		C500,17.9,482.1,0,460,0L460,0z"/>
	<path d="M190,310v150H40V310H190 M190,270H40c-22.1,0-40,17.9-40,40v150c0,22.1,17.9,40,40,40h150c22.1,0,40-17.9,40-40V310
		C230,287.9,212.1,270,190,270L190,270z"/>
	<path class="st0" d="M460,310v150H310V310H460 M460,270H310c-22.1,0-40,17.9-40,40v150c0,22.1,17.9,40,40,40h150
		c22.1,0,40-17.9,40-40V310C500,287.9,482.1,270,460,270L460,270z"/>
</g>
<g id="path-1_00000112600961541889517840000015401598005309838723_">
	<path d="M424.3,385l72.9-72.9c3.7-3.7,3.7-9.7,0-13.4l-25.9-25.9c-3.7-3.7-9.7-3.7-13.4,0L385,345.7l-72.9-72.9
		c-3.7-3.7-9.7-3.7-13.4,0l-25.9,25.9c-3.7,3.7-3.7,9.7,0,13.4l72.9,72.9l-72.9,72.9c-3.7,3.7-3.7,9.7,0,13.4l25.9,25.9
		c1.9,1.9,4.3,2.8,6.7,2.8s4.9-0.9,6.7-2.8l72.9-72.9l72.9,72.9c1.9,1.9,4.3,2.8,6.7,2.8s4.9-0.9,6.7-2.8l25.9-25.9
		c3.7-3.7,3.7-9.7,0-13.4L424.3,385z"/>
</g>
<g id="path-1_00000162344839193283068580000014112280767819218593_" class="st0">
	<path class="st1" d="M396.9,440c-7,0-13.6-2.7-18.5-7.7L345,398.9l-33.4,33.4c-5,4.9-11.5,7.7-18.5,7.7s-13.6-2.7-18.5-7.7
		l-16.9-16.9c-10.2-10.2-10.2-26.8,0-37l33.4-33.4l-33.4-33.4c-10.2-10.2-10.2-26.8,0-37l16.9-16.9c4.9-4.9,11.5-7.7,18.5-7.7
		c7,0,13.6,2.7,18.5,7.7l33.4,33.4l33.4-33.4c4.9-4.9,11.5-7.7,18.5-7.7c7,0,13.6,2.7,18.5,7.7l16.9,16.9c10.2,10.2,10.2,26.8,0,37
		L398.9,345l33.4,33.4c10.2,10.2,10.2,26.8,0,37l-16.9,16.9C410.5,437.3,403.9,440,396.9,440z"/>
	<path class="st2" d="M396.9,270c1.6,0,3.2,0.6,4.4,1.8l16.9,16.9c2.4,2.4,2.4,6.3,0,8.7L370.7,345l47.5,47.5c2.4,2.4,2.4,6.3,0,8.7
		l-16.9,16.9c-1.2,1.2-2.8,1.8-4.4,1.8c-1.6,0-3.2-0.6-4.4-1.8L345,370.7l-47.5,47.5c-1.2,1.2-2.8,1.8-4.4,1.8
		c-1.6,0-3.2-0.6-4.4-1.8l-16.9-16.9c-2.4-2.4-2.4-6.3,0-8.7l47.5-47.5l-47.5-47.5c-2.4-2.4-2.4-6.3,0-8.7l16.9-16.9
		c1.2-1.2,2.8-1.8,4.4-1.8s3.2,0.6,4.4,1.8l47.5,47.5l47.5-47.5C393.7,270.6,395.3,270,396.9,270 M396.9,230
		c-12.3,0-23.9,4.8-32.7,13.5L345,262.8l-19.2-19.2c-8.7-8.7-20.3-13.5-32.7-13.5c-12.3,0-23.9,4.8-32.7,13.5l-16.9,16.9
		c-8.7,8.7-13.5,20.3-13.5,32.7c0,12.3,4.8,23.9,13.5,32.7l19.2,19.2l-19.2,19.2c-18,18-18,47.3,0,65.3l16.9,16.9
		c8.7,8.7,20.3,13.5,32.7,13.5c12.3,0,23.9-4.8,32.7-13.5l19.2-19.2l19.2,19.2c8.7,8.7,20.3,13.5,32.7,13.5
		c12.3,0,23.9-4.8,32.7-13.5l16.9-16.9c18-18,18-47.3,0-65.3L427.2,345l19.2-19.2c18-18,18-47.3,0-65.3l-16.9-16.9
		C420.8,234.8,409.2,230,396.9,230L396.9,230z"/>
</g>
</svg>
