<?xml version="1.0" encoding="UTF-8" standalone="no"?><!DOCTYPE svg PUBLIC "-//W3C//DTD SVG 1.1//EN" "http://www.w3.org/Graphics/SVG/1.1/DTD/svg11.dtd"><svg width="100%" height="100%" viewBox="0 0 65 64" version="1.1" xmlns="http://www.w3.org/2000/svg" xmlns:xlink="http://www.w3.org/1999/xlink" xml:space="preserve" xmlns:serif="http://www.serif.com/" style="fill-rule:evenodd;clip-rule:evenodd;stroke-linejoin:round;stroke-miterlimit:2;"><rect id="unpin" x="0.8" y="0" width="64" height="64" style="fill:none;"/><clipPath id="_clip1"><rect x="0.8" y="0" width="64" height="64"/></clipPath><g clip-path="url(#_clip1)"><path d="M4.467,61.729c-0.397,0.289 -0.946,0.245 -1.294,-0.102c-0.347,-0.348 -0.391,-0.897 -0.102,-1.294c5.664,-7.811 15.862,-21.874 15.862,-21.874l7.408,7.408c0,0 -14.063,10.198 -21.874,15.862Z"/><path d="M18.509,20.538l-11.123,-11.124c-0.781,-0.78 -0.781,-2.048 -0,-2.828c0.78,-0.781 2.048,-0.781 2.828,-0l48,48c0.781,0.78 0.781,2.048 0,2.828c-0.78,0.781 -2.048,0.781 -2.828,0l-11.102,-11.101c-0.521,1.935 -1.322,3.81 -2.402,5.561c-0.629,1 -1.678,1.658 -2.852,1.79c-1.173,0.132 -2.342,-0.278 -3.176,-1.113c-5.684,-5.683 -17.922,-17.921 -23.564,-23.645c-0.822,-0.822 -1.226,-1.974 -1.096,-3.13c0.13,-1.155 0.779,-2.189 1.763,-2.808c1.746,-1.092 3.619,-1.902 5.552,-2.43Zm10.744,-0.493l6.177,-17.897c0.559,-1.117 1.62,-1.898 2.853,-2.098c1.233,-0.2 2.486,0.205 3.37,1.088c5.685,5.685 16.324,16.324 22.009,22.009c0.883,0.884 1.288,2.137 1.088,3.37c-0.2,1.233 -0.981,2.294 -2.098,2.853l-17.897,6.177l-15.502,-15.502Z"/></g></svg>