<?xml version="1.0" encoding="UTF-8"?>
<svg width="500px" height="500px" viewBox="0 0 500 500" version="1.1" xmlns="http://www.w3.org/2000/svg" xmlns:xlink="http://www.w3.org/1999/xlink">
    <!-- Generator: Sketch 52.6 (67491) - http://www.bohemiancoding.com/sketch -->
    <title>upload</title>
    <desc>Created with Sketch.</desc>
    <g id="upload" stroke="none" stroke-width="1" fill="none" fill-rule="evenodd">
        <path d="M244.935,363.266577 C247.108,366.336577 250.288,368.089577 253.662,368.081577 C257.033,368.076577 260.201,366.311577 262.352,363.244577 L384.738,188.943577 C387.118,185.626577 387.602,182.013577 386.073,179.033577 C384.568,176.103577 381.449,174.424577 377.506,174.424577 L312.085,174.524577 C310.136,153.671577 303.483,110.217577 280.968,70.4595774 C267.177,46.1095774 249.472,26.7535774 228.343,12.9285774 C202.857,-3.7474226 172.199,-12.4704226 137.217,-12.9994226 C134.829,-13.0354226 132.745,-11.3844226 132.233,-9.0504226 C131.724,-6.7154226 132.926,-4.3464226 135.112,-3.3814226 C201.384,25.8785774 202.373,123.966577 202.04,174.660577 L129.432,174.759577 C125.511,174.759577 122.399,176.409577 120.893,179.287577 C120.296,180.429577 120,181.674577 120,182.968577 C120,185.001577 120.731,187.159577 122.171,189.233577 L244.935,363.266577 Z" id="Fill-1" fill="#1D1D1B" transform="translate(253.475273, 177.540802) rotate(-125.000000) translate(-253.475273, -177.540802) "></path>
        <path d="M478.7997,310.4749 C478.6477,310.4749 477.6727,310.4619 473.4457,310.1979 C469.9417,309.9789 467.0677,309.9279 464.6577,310.0429 C462.1927,310.1599 459.4407,310.5079 456.4837,311.0769 C451.9527,311.9479 448.3407,313.9079 445.7427,316.9039 C443.0467,320.0159 441.6787,323.9889 441.6787,328.7099 L441.6787,400.6349 C441.6787,411.2899 437.9837,420.1639 430.3837,427.7649 C422.7837,435.3659 413.9097,439.0599 403.2547,439.0599 L361.1887,439.0599 L137.8457,439.0599 L95.7797,439.0599 C85.1247,439.0599 76.2507,435.3659 68.6517,427.7649 C61.0507,420.1639 57.3567,411.2899 57.3567,400.6349 L57.3567,328.7099 C57.3567,323.9889 55.9877,320.0159 53.2907,316.9039 C50.6947,313.9079 47.0817,311.9479 42.5507,311.0769 C39.5937,310.5079 36.8417,310.1599 34.3757,310.0429 C31.9667,309.9279 29.0927,309.9789 25.5887,310.1979 C21.3617,310.4619 20.3867,310.4749 20.2347,310.4749 C15.3427,310.4749 10.8967,312.3349 7.3777,315.8549 C3.8607,319.3729 1.9997,323.8189 1.9997,328.7099 L1.9997,400.6349 C1.9997,426.3539 11.2567,448.6499 29.5107,466.9039 C47.7657,485.1589 70.0627,494.4149 95.7797,494.4149 L136.5477,494.4149 L362.4867,494.4149 L403.2547,494.4149 C428.9717,494.4149 451.2687,485.1589 469.5237,466.9039 C487.7787,448.6499 497.0337,426.3539 497.0337,400.6349 L497.0337,328.7099 C497.0337,323.8189 495.1747,319.3729 491.6567,315.8549 C488.1377,312.3349 483.6917,310.4749 478.7997,310.4749" id="Fill-4" fill="#1D1D1B"></path>
    </g>
</svg>