<?xml version="1.0" encoding="utf-8"?>
<!-- Generator: Adobe Illustrator 27.3.1, SVG Export Plug-In . SVG Version: 6.00 Build 0)  -->
<svg version="1.1" id="Ebene_1" xmlns="http://www.w3.org/2000/svg" xmlns:xlink="http://www.w3.org/1999/xlink" x="0px" y="0px"
	 viewBox="0 0 500 500" style="enable-background:new 0 0 500 500;" xml:space="preserve">
<g>
	<g>
		<path d="M440,51.6c-12.2-12.2-26.9-18.3-44.2-18.3s-32,6.1-44.2,18.3s-18.3,26.9-18.3,44.2c0,0.4,0,0.8,0,1.2c0.5,0.5,1,1,1.5,1.5
			c15.4,15.4,25.7,32.8,31,52.3c9,5,19,7.5,30,7.5c17.3,0,32-6.1,44.2-18.3s18.3-26.9,18.3-44.2C458.3,78.6,452.2,63.9,440,51.6z"/>
	</g>
	<g>
		<path d="M498.6,214.1c-0.9-8.2-2.6-16.4-5.1-24.7s-5.7-15.4-9.5-21.3s-9-10.7-15.3-14.5c-3.1-1.8-6.5-3.2-10.1-4.2
			c-15.1,17.7-37.6,29-62.8,29c-9.1,0-17.9-1.5-26.1-4.2c0.2,3,0.3,6.1,0.3,9.2c0,24.4-6.4,46.1-19,65.3c9.2,1.9,17.8,5.2,25.7,9.8
			c11.1,6.6,20.5,14.9,27.9,24.9h60.7c9.5,0,17.7-4.2,24.5-12.7c6.8-8.5,10.2-18.6,10.2-30.4C500,231,499.5,222.3,498.6,214.1z"/>
	</g>
</g>
<g>
	<g>
		<path d="M165.2,98.5c0.5-0.5,1-1,1.5-1.5c0-0.4,0-0.8,0-1.2c0-17.3-6.1-32-18.3-44.2s-26.9-18.3-44.2-18.3
			c-17.3,0-32,6.1-44.2,18.3S41.7,78.6,41.7,95.8c0,17.3,6.1,32,18.3,44.2s26.9,18.3,44.2,18.3c11,0,21-2.5,30-7.5
			C139.5,131.3,149.8,113.9,165.2,98.5z"/>
	</g>
	<g>
		<path d="M123.3,258.4c7.9-4.7,16.5-7.9,25.7-9.8c-12.7-19.1-19-40.9-19-65.3c0-3.1,0.1-6.2,0.3-9.2c-8.2,2.7-17,4.2-26.1,4.2
			c-25.1,0-47.6-11.2-62.8-29c-3.6,0.9-6.9,2.3-10.1,4.2C25,157.3,19.9,162.1,16,168s-7,13-9.5,21.3s-4.2,16.5-5.1,24.7
			C0.5,222.3,0,231,0,240.2c0,11.8,3.4,22,10.2,30.4c6.8,8.5,14.9,12.7,24.5,12.7h60.7C102.8,273.4,112.2,265,123.3,258.4z"/>
	</g>
</g>
<g>
	<g>
		<path d="M414.5,372.5c-1.5-13.1-4.2-26.3-8.2-39.6c-4-13.3-9.1-24.7-15.2-34.1c-6.2-9.5-14.3-17.2-24.5-23.2
			c-8.9-5.3-19.1-8.2-30.3-8.9c-0.4,0.5-0.9,0.9-1.3,1.4c-23.4,23.4-51.7,35.2-84.8,35.2s-61.4-11.7-84.8-35.2
			c-0.5-0.5-0.9-0.9-1.3-1.4c-11.3,0.6-21.4,3.6-30.3,8.9c-10.2,6-18.3,13.7-24.5,23.2c-6.2,9.5-11.2,20.8-15.2,34.1
			c-4,13.3-6.7,26.5-8.2,39.6c-1.5,13.1-2.2,27-2.2,41.8c0,18.9,5.4,35.2,16.3,48.7c10.9,13.5,23.9,20.3,39.2,20.3h222.4
			c15.3,0,28.3-6.8,39.2-20.3c10.9-13.5,16.3-29.8,16.3-48.7C416.7,399.6,415.9,385.6,414.5,372.5z"/>
	</g>
	<g>
		<path d="M350,183.3c0,27.6-9.8,51.2-29.3,70.7s-43.1,29.3-70.7,29.3s-51.2-9.8-70.7-29.3S150,210.9,150,183.3s9.8-51.2,29.3-70.7
			s43.1-29.3,70.7-29.3s51.2,9.8,70.7,29.3S350,155.7,350,183.3z"/>
	</g>
</g>
</svg>
