<?xml version="1.0" encoding="utf-8"?>
<!-- Generator: Adobe Illustrator 27.3.1, SVG Export Plug-In . SVG Version: 6.00 Build 0)  -->
<svg version="1.1" id="Ebene_1" xmlns="http://www.w3.org/2000/svg" xmlns:xlink="http://www.w3.org/1999/xlink" x="0px" y="0px"
	 viewBox="0 0 500 500" style="enable-background:new 0 0 500 500;" xml:space="preserve">
<g>
	<path d="M179,391.6l0.1-0.2l0.1-0.2c2.2-7.4,6.2-14.2,11.7-19.7l92.6-92.6l23.8-23.8l0,0l28.6-28.6c0-0.1-0.1-0.1-0.1-0.2
		c-6.5-9.9-15-18.1-25.7-24.4c-5.3-3.1-10.9-5.5-16.9-7c-25.5,29.7-63.3,48.6-105.5,48.6S107.4,224.7,82.1,195
		c-6,1.6-11.7,3.9-16.9,7c-10.7,6.3-19.2,14.4-25.7,24.4c-6.5,9.9-11.8,21.8-16,35.8c-4.1,13.9-7.1,27.8-8.7,41.6
		c-1.5,13.8-2.4,28.4-2.4,43.9c0,19.9,5.7,36.9,17.1,51.2c11.3,14.3,25.1,21.3,41.2,21.3H171L179,391.6z"/>
	<path d="M292.5,105c0,29-10.2,53.8-30.7,74.3S216.5,210,187.5,210s-53.8-10.2-74.3-30.7S82.5,134,82.5,105s10.2-53.8,30.7-74.3
		S158.5,0,187.5,0s53.8,10.2,74.3,30.7S292.5,76,292.5,105z"/>
</g>
<g>
	<g>
		<path d="M461.3,304l10.1-10.1c21.5-21.5,21.5-56.3,0-77.8c-21.5-21.5-56.3-21.5-77.8,0l-10.1,10.1L461.3,304z"/>
	</g>
	<g>
		<rect x="354.2" y="248.4" transform="matrix(0.7071 -0.7071 0.7071 0.7071 -101.9809 360.4988)" width="60" height="109.9"/>
	</g>
	<g>
		<path d="M307.1,302.6l-92.6,92.6c-1.5,1.5-2.6,3.4-3.2,5.4L188,484.4c-2.6,9.2,5.9,17.8,15.2,15.2l83.8-23.5
			c2-0.5,3.8-1.6,5.3-3.1l92.6-92.6L307.1,302.6z"/>
	</g>
</g>
</svg>
