<?xml version="1.0" encoding="utf-8"?>
<!-- Generator: Adobe Illustrator 27.3.1, SVG Export Plug-In . SVG Version: 6.00 Build 0)  -->
<svg version="1.1" id="Ebene_1" xmlns="http://www.w3.org/2000/svg" xmlns:xlink="http://www.w3.org/1999/xlink" x="0px" y="0px"
	 viewBox="0 0 500 500" style="enable-background:new 0 0 500 500;" xml:space="preserve">
<path d="M455.6,361.5c-1.8-16.4-5.3-32.9-10.3-49.5s-11.3-30.8-19-42.6c-7.7-11.8-17.9-21.5-30.6-29c-6.3-3.7-13-6.5-20.1-8.3
	C345.3,267.5,300.3,290,250,290s-95.3-22.5-125.5-57.9c-7.2,1.9-13.9,4.6-20.1,8.3c-12.7,7.5-22.9,17.1-30.6,29
	c-7.7,11.8-14.1,26-19,42.6s-8.4,33.1-10.3,49.5c-1.8,16.4-2.8,33.8-2.8,52.2c0,23.7,6.8,43.9,20.3,60.9S91.9,500,111,500h278
	c19.1,0,35.4-8.5,49-25.4s20.3-37.2,20.3-60.9C458.3,395.3,457.4,377.9,455.6,361.5z"/>
<path d="M375,125c0,34.5-12.2,64-36.6,88.4S284.5,250,250,250s-64-12.2-88.4-36.6S125,159.5,125,125s12.2-64,36.6-88.4
	S215.5,0,250,0s64,12.2,88.4,36.6S375,90.5,375,125z"/>
</svg>
