<?xml version="1.0" encoding="utf-8"?>
<!-- Generator: Adobe Illustrator 25.4.1, SVG Export Plug-In . SVG Version: 6.00 Build 0)  -->
<svg version="1.1" id="Ebene_1" xmlns="http://www.w3.org/2000/svg" xmlns:xlink="http://www.w3.org/1999/xlink" x="0px" y="0px"
	 viewBox="0 0 1792 1792" style="enable-background:new 0 0 1792 1792;" xml:space="preserve">
<path d="M1344,1348.7c0,50.9-14.6,94.5-43.8,130.9s-64.3,54.6-105.3,54.6H597.1c-41.1,0-76.2-18.2-105.3-54.6
	c-29.2-36.4-43.8-80-43.8-130.9c0-39.7,2-77.1,6-112.3c4-35.2,11.3-70.7,22-106.4s24.4-66.3,41-91.7c16.6-25.4,38.5-46.2,65.8-62.3
	c27.3-16.1,58.7-24.2,94.2-24.2c61.1,59.7,134.2,89.6,219.1,89.6s158-29.9,219.1-89.6c35.5,0,66.8,8,94.2,24.2
	c27.3,16.1,49.2,36.9,65.8,62.3c16.6,25.4,30.2,56,40.9,91.7s18.1,71.2,22.1,106.4C1342,1271.6,1344,1309,1344,1348.7z
	 M1164.8,727.8c0,74.2-26.2,137.5-78.8,190S970.2,996.6,896,996.6s-137.5-26.2-190-78.8s-78.8-115.8-78.8-190s26.2-137.5,78.8-190
	S821.8,459,896,459s137.6,26.2,190.1,78.8S1164.8,653.6,1164.8,727.8z"/>
<g>
	<path d="M448,817.4c50.1,0,95.2-12,135.4-35.9c-2.8-17.4-4.2-35.3-4.2-53.7c0-87,31.2-162.4,92.8-224
		c11.1-11.1,22.7-21.3,34.8-30.4c-12-42.8-34.9-81.1-68.7-114.8c-52.5-52.5-115.8-78.8-190-78.8S310.5,306,258,358.5
		s-78.8,115.9-78.8,190.1s26.2,137.6,78.8,190.1C310.5,791.1,373.8,817.4,448,817.4z"/>
	<path d="M400,1348.7c0-41.3,2.1-80.9,6.3-117.7c4.3-37.9,12.3-76.6,23.8-114.8c12-39.9,27.7-74.9,46.7-104.1
		c20.6-31.6,48-57.6,81.6-77.4c23.1-13.6,48.6-22.8,76-27.4c-17.6-25.1-31-51.9-40.2-80.5c-44,23.7-92.8,35.5-146.2,35.5
		c-84.9,0-158-29.9-219.1-89.6c-35.5,0-66.9,8.1-94.2,24.2S85.5,833.6,69,859c-16.6,25.4-30.2,56-41,91.7s-18.1,71.2-22,106.4
		c-4,35.2-6,72.7-6,112.3c0,50.9,14.6,94.5,43.8,130.9c29.2,36.4,64.3,54.6,105.3,54.6h251C400,1352.9,400,1350.8,400,1348.7z"/>
</g>
<g>
	<path d="M1120,503.8c61.6,61.6,92.8,136.9,92.8,224c0,18.4-1.4,36.3-4.2,53.7c40.2,23.9,85.3,35.9,135.4,35.9
		c74.2,0,137.6-26.2,190.1-78.7c52.5-52.5,78.8-115.9,78.8-190.1s-26.2-137.6-78.8-190.1s-115.9-78.8-190.1-78.8
		s-137.6,26.2-190.1,78.8c-33.8,33.8-56.7,72.1-68.7,114.8C1097.3,482.5,1108.9,492.7,1120,503.8z"/>
	<path d="M1786.1,1057.1c-4-35.2-11.3-70.7-22.1-106.4s-24.4-66.3-40.9-91.7c-16.6-25.4-38.5-46.2-65.8-62.3s-58.7-24.2-94.2-24.2
		c-61.1,59.7-134.2,89.6-219.1,89.6c-53.5,0-102.2-11.8-146.2-35.5c-9.2,28.6-22.6,55.5-40.2,80.5c27.5,4.6,52.9,13.7,76,27.4
		c33.6,19.8,61.1,45.9,81.6,77.4c19,29.1,34.7,64.2,46.7,104.1c11.5,38.3,19.5,76.9,23.8,114.9c4.1,36.8,6.3,76.5,6.3,117.7
		c0,2.1,0,4.2-0.1,6.3h251c41.1,0,76.2-18.2,105.3-54.6c29.2-36.4,43.8-80,43.8-130.9C1792,1129.8,1790,1092.4,1786.1,1057.1z"/>
</g>
</svg>
