<?xml version="1.0" encoding="utf-8"?>
<!-- Generator: Adobe Illustrator 26.2.1, SVG Export Plug-In . SVG Version: 6.00 Build 0)  -->
<svg version="1.1" id="Ebene_1" xmlns="http://www.w3.org/2000/svg" xmlns:xlink="http://www.w3.org/1999/xlink" x="0px" y="0px"
	 viewBox="0 0 500 500" style="enable-background:new 0 0 500 500;" xml:space="preserve">
<style type="text/css">
	.st0{fill-rule:evenodd;clip-rule:evenodd;}
</style>
<path class="st0" d="M491.4,379.6L305.1,56.8c-24.5-42.4-85.6-42.4-110.1,0L8.6,379.6c-24.5,42.4,6.1,95.4,55.1,95.4h372.7
	C485.3,474.9,515.9,422,491.4,379.6z M290,400c0,11-9,20-20,20h-40c-11,0-20-9-20-20v-40c0-11,9-20,20-20h40c11,0,20,9,20,20V400z
	 M290,280c0,11-9,20-20,20h-40c-11,0-20-9-20-20V160c0-11,9-20,20-20h40c11,0,20,9,20,20V280z"/>
</svg>
