<?xml version="1.0" encoding="UTF-8"?>
<svg width="500px" height="500px" viewBox="0 0 500 500" version="1.1" xmlns="http://www.w3.org/2000/svg" xmlns:xlink="http://www.w3.org/1999/xlink">
    <!-- Generator: Sketch 52.5 (67469) - http://www.bohemiancoding.com/sketch -->
    <title>select copy</title>
    <desc>Created with Sketch.</desc>
    <defs>
        <path d="M285.673918,401.94765 L285.673918,348.893065 C285.673918,346.286875 284.79136,344.099537 283.026244,342.331051 C281.261129,340.562565 279.17086,339.678322 276.755439,339.678322 L223.244561,339.678322 C220.82914,339.678322 218.738871,340.562565 216.973756,342.331051 C215.20864,344.099537 214.326082,346.286875 214.326082,348.893065 L214.326082,401.94765 C214.326082,404.55384 215.20864,406.741178 216.973756,408.509664 C218.738871,410.27815 220.82914,411.162393 223.244561,411.162393 L276.755439,411.162393 C279.17086,411.162393 281.261129,410.27815 283.026244,408.509664 C284.79136,406.741178 285.673918,404.55384 285.673918,401.94765 Z M285.116513,297.513889 L290.133158,169.345183 C290.133158,167.111305 289.20415,165.342819 287.346133,164.039724 C284.930711,161.992003 282.701092,160.968143 280.657273,160.968143 L219.342727,160.968143 C217.298908,160.968143 215.069289,161.992003 212.653867,164.039724 C210.79585,165.342819 209.866842,167.297462 209.866842,169.903652 L214.604784,297.513889 C214.604784,299.375453 215.533793,300.911244 217.391809,302.121261 C219.249826,303.331278 221.479446,303.936286 224.080669,303.936286 L275.640629,303.936286 C278.241852,303.936286 280.425021,303.331278 282.190137,302.121261 C283.955253,300.911244 284.930711,299.375453 285.116513,297.513889 Z M281.214678,36.7087218 L495.258187,429.871115 C501.761245,441.59897 501.575443,453.326826 494.700782,465.054681 C491.542154,470.453218 487.222265,474.734816 481.741116,477.899476 C476.259967,481.064135 470.360765,482.646465 464.043509,482.646465 L35.9564914,482.646465 C29.6392351,482.646465 23.7400325,481.064135 18.2588836,477.899476 C12.7777348,474.734816 8.45784625,470.453218 5.29921808,465.054681 C-1.57544321,453.326826 -1.76124487,441.59897 4.74181311,429.871115 L218.785322,36.7087218 C221.94395,30.9378723 226.310289,26.3770396 231.884338,23.0262238 C237.458388,19.6754079 243.496942,18 250,18 C256.503058,18 262.541612,19.6754079 268.115662,23.0262238 C273.689711,26.3770396 278.05605,30.9378723 281.214678,36.7087218 Z" id="path-1"></path>
    </defs>
    <g id="select-copy" stroke="none" stroke-width="1" fill="none" fill-rule="evenodd">
        <mask id="mask-2" fill="white">
            <use xlink:href="#path-1"></use>
        </mask>
        <use id="Shape" fill="#000000" fill-rule="nonzero" xlink:href="#path-1"></use>
    </g>
</svg>