<?xml version="1.0" encoding="UTF-8" standalone="no"?><!DOCTYPE svg PUBLIC "-//W3C//DTD SVG 1.1//EN" "http://www.w3.org/Graphics/SVG/1.1/DTD/svg11.dtd"><svg width="100%" height="100%" viewBox="0 0 24 24" version="1.1" xmlns="http://www.w3.org/2000/svg" xmlns:xlink="http://www.w3.org/1999/xlink" xml:space="preserve" xmlns:serif="http://www.serif.com/" style="fill-rule:evenodd;clip-rule:evenodd;stroke-linejoin:round;stroke-miterlimit:2;"><rect id="window-placement" x="0" y="0" width="24" height="24" style="fill:none;"/><clipPath id="_clip1"><rect x="0" y="0" width="24" height="24"/></clipPath><g clip-path="url(#_clip1)"><path d="M24,7c0,-1.104 -0.896,-2 -2,-2l-15,0c-1.104,0 -2,0.896 -2,2l0,12c0,1.104 0.896,2 2,2l15,-0c1.104,-0 2,-0.896 2,-2l0,-12Zm-3,3l-13,0l-0,8l13,0l0,-8Z" style="fill:#fff;"/><path d="M24,7c0,-1.104 -0.896,-2 -2,-2l-15,0c-1.104,0 -2,0.896 -2,2l0,12c0,1.104 0.896,2 2,2l15,0c1.104,0 2,-0.896 2,-2l0,-12Zm-1,-0l0,12c0,0.552 -0.448,1 -1,1c-0,0 -15,0 -15,0c-0.552,0 -1,-0.448 -1,-1c0,0 0,-12 0,-12c0,-0.552 0.448,-1 1,-1c0,0 15,0 15,0c0.552,0 1,0.448 1,1Zm-1,3c0,-0.552 -0.448,-1 -1,-1l-13,0c-0.552,0 -1,0.448 -1,1l0,8c0,0.552 0.448,1 1,1l13,0c0.552,0 1,-0.448 1,-1l0,-8Zm-1,0l-13,0l0,8l13,0l0,-8Z" style="fill:url(#_Linear2);"/><path d="M13,1.5c-0,-0.828 -0.672,-1.5 -1.5,-1.5l-9.498,0c-0.531,-0 -1.04,0.211 -1.416,0.586c-0.375,0.376 -0.586,0.885 -0.586,1.416c-0,2.62 0,7.154 -0,9.498c0,0.828 0.672,1.5 1.5,1.5c0.398,-0 0.779,-0.158 1.061,-0.439c0.281,-0.282 0.439,-0.663 0.439,-1.061c-0,-2.791 -0,-8.5 -0,-8.5l8.5,0c0.398,0 0.779,-0.158 1.061,-0.439c0.281,-0.282 0.439,-0.663 0.439,-1.061Z" style="fill:#fff;"/><path d="M13,1.5c-0,-0.828 -0.672,-1.5 -1.5,-1.5l-9.498,0c-0.531,-0 -1.04,0.211 -1.416,0.586c-0.375,0.376 -0.586,0.885 -0.586,1.416c-0,2.62 0,7.154 -0,9.498c0,0.828 0.672,1.5 1.5,1.5c0.398,-0 0.779,-0.158 1.061,-0.439c0.281,-0.282 0.439,-0.663 0.439,-1.061c-0,-2.791 -0,-8.5 -0,-8.5l8.5,0c0.398,0 0.779,-0.158 1.061,-0.439c0.281,-0.282 0.439,-0.663 0.439,-1.061Zm-1,-0c-0,0.133 -0.053,0.26 -0.146,0.354c-0.094,0.093 -0.221,0.146 -0.354,0.146l-8.5,0c-0.552,0 -1,0.448 -1,1l-0,8.5c0,0.133 -0.053,0.26 -0.146,0.354c-0.094,0.093 -0.221,0.146 -0.354,0.146c-0.276,0 -0.5,-0.224 -0.5,-0.5l-0,-9.498c-0,-0.266 0.106,-0.521 0.293,-0.709c0.188,-0.187 0.443,-0.293 0.709,-0.293l9.498,0c0.276,0 0.5,0.224 0.5,0.5Z" style="fill:url(#_Linear3);"/></g><defs><linearGradient id="_Linear2" x1="0" y1="0" x2="1" y2="0" gradientUnits="userSpaceOnUse" gradientTransform="matrix(19,16,-16,19,5,5)"><stop offset="0" style="stop-color:#000;stop-opacity:1"/><stop offset="1" style="stop-color:#4d4d4d;stop-opacity:1"/></linearGradient><linearGradient id="_Linear3" x1="0" y1="0" x2="1" y2="0" gradientUnits="userSpaceOnUse" gradientTransform="matrix(9,9,-9,9,0,0)"><stop offset="0" style="stop-color:#000;stop-opacity:1"/><stop offset="1" style="stop-color:#4d4d4d;stop-opacity:1"/></linearGradient></defs></svg>