<?xml version="1.0" encoding="UTF-8" standalone="no"?><!DOCTYPE svg PUBLIC "-//W3C//DTD SVG 1.1//EN" "http://www.w3.org/Graphics/SVG/1.1/DTD/svg11.dtd"><svg width="100%" height="100%" viewBox="0 0 64 64" version="1.1" xmlns="http://www.w3.org/2000/svg" xmlns:xlink="http://www.w3.org/1999/xlink" xml:space="preserve" xmlns:serif="http://www.serif.com/" style="fill-rule:evenodd;clip-rule:evenodd;stroke-linejoin:round;stroke-miterlimit:2;"><path id="window-link" d="M64,64l0,-64l-64,0l0,64l64,0Z" style="fill:none;"/><path d="M40,24c2.208,0 4,-1.792 4,-4l0,-16c0,-2.208 -1.792,-4 -4,-4l-16,0c-2.208,0 -4,1.792 -4,4l0,16c0,2.208 1.792,4 4,4l16,0Zm-2,-16.516c0,-0.82 -0.664,-1.484 -1.484,-1.484l-9.032,0c-0.82,0 -1.484,0.664 -1.484,1.484l0,9.032c-0,0.82 0.664,1.484 1.484,1.484l9.032,0c0.82,0 1.484,-0.664 1.484,-1.484l0,-9.032Z"/><path d="M60,64c2.208,0 4,-1.792 4,-4l0,-12c0,-2.208 -1.792,-4 -4,-4l-12,0c-2.208,0 -4,1.792 -4,4l0,12c0,2.208 1.792,4 4,4l12,0Zm-2,-12.667c0,-0.736 -0.597,-1.333 -1.333,-1.333l-5.334,0c-0.736,0 -1.333,0.597 -1.333,1.333l0,5.334c-0,0.736 0.597,1.333 1.333,1.333l5.334,0c0.736,0 1.333,-0.597 1.333,-1.333l0,-5.334Z"/><path d="M16,64c2.208,0 4,-1.792 4,-4l0,-12c0,-2.208 -1.792,-4 -4,-4l-12,0c-2.208,0 -4,1.792 -4,4l0,12c0,2.208 1.792,4 4,4l12,0Zm-2,-12.667c0,-0.736 -0.597,-1.333 -1.333,-1.333l-5.334,0c-0.736,0 -1.333,0.597 -1.333,1.333l0,5.334c-0,0.736 0.597,1.333 1.333,1.333l5.334,0c0.736,0 1.333,-0.597 1.333,-1.333l0,-5.334Z"/><path d="M15.408,42l9.38,-16l-0.788,0c-1.948,0 -3.681,-0.93 -4.777,-2.371l-10.769,18.371l6.954,0Z"/><path d="M55.546,42l-10.769,-18.371c-1.096,1.441 -2.829,2.371 -4.777,2.371l-0.788,0l9.38,16l6.954,0Z"/></svg>