<?xml version="1.0" encoding="UTF-8" standalone="no"?><!DOCTYPE svg PUBLIC "-//W3C//DTD SVG 1.1//EN" "http://www.w3.org/Graphics/SVG/1.1/DTD/svg11.dtd"><svg width="100%" height="100%" viewBox="0 0 64 64" version="1.1" xmlns="http://www.w3.org/2000/svg" xmlns:xlink="http://www.w3.org/1999/xlink" xml:space="preserve" xmlns:serif="http://www.serif.com/" style="fill-rule:evenodd;clip-rule:evenodd;stroke-miterlimit:1.5;"><rect id="window-plus" x="0" y="0" width="64" height="64" style="fill:none;"/><path d="M64,57.044l0,-50.644c0,-3.532 -2.868,-6.4 -6.4,-6.4l-51.2,-0c-3.532,-0 -6.4,2.868 -6.4,6.4l0,50.644c0,3.839 2.868,6.956 6.4,6.956l51.2,-0c3.532,-0 6.4,-3.117 6.4,-6.956Zm-60,-39.037l56,-0c0,-0 0,39.037 0,39.037c0,1.547 -0.977,2.956 -2.4,2.956l-51.2,-0c-1.423,-0 -2.4,-1.409 -2.4,-2.956l0,-39.037Z"/><path d="M32,55l0,-32" style="fill:none;stroke:#000;stroke-width:4px;"/><path d="M16,39l32,0" style="fill:none;stroke:#000;stroke-width:4px;"/></svg>