<?xml version="1.0" encoding="utf-8"?>
<!-- Generator: Adobe Illustrator 15.0.0, SVG Export Plug-In . SVG Version: 6.00 Build 0)  -->
<!DOCTYPE svg PUBLIC "-//W3C//DTD SVG 1.1//EN" "http://www.w3.org/Graphics/SVG/1.1/DTD/svg11.dtd">
<svg version="1.1" id="Ebene_2" xmlns="http://www.w3.org/2000/svg" xmlns:xlink="http://www.w3.org/1999/xlink" x="0px" y="0px"
	 width="1792px" height="1792px" viewBox="0 0 1792 1792" enable-background="new 0 0 1792 1792" xml:space="preserve">
<g>
	<path d="M1044.303,811.699l448-0.001c17.332,0,32.332-6.333,45-19c12.666-12.667,18.999-27.667,18.999-45
		c0.001-17.333-6.334-32.333-19-45l-144-144L1654,298c6.666-6.667,10-14.333,10-23s-3.334-16.333-10-23l-114-114
		c-6.666-6.666-14.333-10-22.999-9.999c-8.668-0.001-16.335,3.333-23,10l-260.698,260.698l-144-144c-12.667-12.667-27.668-19-45-19
		c-17.335-0.001-32.334,6.333-45,19c-12.667,12.667-19.001,27.667-19,45l-0.001,448c0.001,17.333,6.333,32.333,19,45
		C1011.969,805.366,1026.968,811.698,1044.303,811.699z"/>
	<path d="M791.99,1000.012c-12.667-12.667-27.667-19-45-19h-448c-17.335,0-32.334,6.333-45,19c-12.667,12.665-19,27.667-19,45
		c-0.001,17.334,6.333,32.333,19,45l144,144l-259.992,259.991c-6.667,6.666-10,14.332-10,22.999c0,8.667,3.333,16.334,9.999,23
		l114,114.001c6.667,6.667,14.333,10,23,9.999c8.666,0.001,16.333-3.333,23-10l259.992-259.991l144,144.001
		c12.665,12.667,27.665,19,45,19c17.333,0,32.332-6.333,45-19c12.666-12.668,19-27.668,19-45l0-448
		C810.991,1027.677,804.656,1012.678,791.99,1000.012z"/>
	<path d="M791.992,253.994c-12.667-12.667-27.667-19-45-19s-32.333,6.333-45.001,19l-144,144L298.001,138.003
		c-6.667-6.667-14.332-10.001-23-10.001c-8.667,0-16.333,3.333-23,10l-114,114c-6.666,6.667-10,14.334-10,23s3.333,16.333,10,23
		l259.991,259.991l-144,144c-12.667,12.666-18.999,27.666-19,45c0.001,17.333,6.333,32.333,19,45c12.667,12.666,27.668,19,45,19h448
		c17.334,0,32.333-6.333,45-19s18.999-27.667,19-45l0-448C810.993,281.659,804.659,266.66,791.992,253.994z"/>
	<path d="M1654.002,1494.003l-260.699-260.699l143.999-143.998c12.667-12.667,19.001-27.669,19.001-45.001
		c0.001-17.334-6.334-32.334-19-44.999c-12.667-12.667-27.668-19.001-45-19.001h-448c-17.332,0-32.332,6.332-44.999,19
		c-12.667,12.666-19.001,27.665-19,45l-0.001,447.999c0,17.333,6.334,32.334,19.001,45.001c12.666,12.665,27.667,19,44.999,19
		c17.333-0.001,32.334-6.334,45-19.001l144.001-144l260.697,260.699c6.667,6.667,14.332,10,23,10c8.667,0,16.333-3.334,23-9.999
		l114.001-114.001c6.666-6.666,10-14.334,9.999-23C1664.001,1508.335,1660.668,1500.669,1654.002,1494.003z"/>
</g>
</svg>
