<?xml version="1.0" encoding="utf-8"?>
<!-- Generator: Adobe Illustrator 15.0.0, SVG Export Plug-In . SVG Version: 6.00 Build 0)  -->
<!DOCTYPE svg PUBLIC "-//W3C//DTD SVG 1.1//EN" "http://www.w3.org/Graphics/SVG/1.1/DTD/svg11.dtd">
<svg version="1.1" id="Ebene_1" xmlns="http://www.w3.org/2000/svg" xmlns:xlink="http://www.w3.org/1999/xlink" x="0px" y="0px"
	 width="1792px" height="1792px" viewBox="0 0 1792 1792" enable-background="new 0 0 1792 1792" xml:space="preserve">
<g>
	<path d="M686.992,991.008c-6.667-6.666-14.333-9.999-23-9.999c-8.667,0-16.333,3.333-23,10L381.001,1251l-144-144.001
		c-12.666-12.667-27.666-18.999-45-19c-17.333,0.001-32.333,6.333-45,19c-12.666,12.667-19,27.668-19,45V1600
		c0,17.334,6.334,32.333,19,45c12.667,12.666,27.667,18.999,45,19l448-0.001c17.334,0.001,32.334-6.333,45-19
		c12.667-12.666,19-27.666,19-45c0.001-17.333-6.333-32.333-19-45l-144-144l259.991-259.99c6.667-6.667,10-14.333,10-23.001
		c0-8.666-3.333-16.333-10-22.999L686.992,991.008z"/>
	<path d="M1104.302,801.698c6.667,6.667,14.334,10,23,10c8.667,0,16.334-3.333,23-10L1411,541l144,144
		c12.667,12.667,27.667,19,45,19c17.334,0,32.334-6.333,44.999-19c12.667-12.667,19.001-27.667,19-45L1664,192
		c0-17.333-6.333-32.333-19-45c-12.666-12.667-27.666-19-45-19h-448c-17.333,0-32.333,6.333-45,19c-12.666,12.667-19,27.667-19,45
		s6.334,32.333,19,45l144,144L990.302,641.699c-6.666,6.666-10,14.333-10,23s3.334,16.333,10,23L1104.302,801.698z"/>
	<path d="M541.001,381.001l144-144c12.667-12.666,19-27.666,19-45c0-17.333-6.333-32.333-19-45c-12.667-12.666-27.667-19-45-19h-448
		c-17.333,0-32.333,6.333-45,19c-12.667,12.667-18.999,27.666-19,45l0.001,448c-0.001,17.334,6.333,32.333,19,45
		s27.667,18.999,45,19c17.333,0,32.333-6.333,45-19.001l144-144l259.991,259.991c6.667,6.667,14.332,10.001,23,10.001
		c8.667,0,16.333-3.333,23-10l114-114c6.667-6.667,10-14.333,10-23c0-8.666-3.333-16.333-10-23L541.001,381.001z"/>
	<path d="M1600,1088.001c-17.333,0-32.333,6.333-45,19l-144,144l-260.698-260.699c-6.667-6.666-14.332-9.999-23-9.999
		c-8.667-0.001-16.332,3.334-22.999,9.999l-114.001,114.001c-6.666,6.666-10,14.333-10,23s3.333,16.334,10,22.999L1251,1411.001
		L1107.001,1555c-12.667,12.667-19,27.668-19,45c-0.001,17.335,6.333,32.334,18.999,45c12.667,12.667,27.668,19.001,45.001,19.001
		H1600c17.333-0.001,32.332-6.333,45-19.001c12.667-12.665,19-27.665,19-45v-447.999c0-17.333-6.333-32.334-19-45.001
		C1632.333,1094.335,1617.333,1088.001,1600,1088.001z"/>
</g>
</svg>
