<?xml version="1.0" encoding="UTF-8"?>
<svg width="500px" height="500px" viewBox="0 0 500 500" version="1.1" xmlns="http://www.w3.org/2000/svg" xmlns:xlink="http://www.w3.org/1999/xlink">
    <!-- Generator: Sketch 50.2 (55047) - http://www.bohemiancoding.com/sketch -->
    <title>Dokument</title>
    <desc>Created with Sketch.</desc>
    <defs></defs>
    <g id="Dokument" stroke="none" stroke-width="1" fill="none" fill-rule="evenodd">
        <path d="M286.25,0 L318.046,0 L318.046,0.0292290246 C322.548027,2.89165932 326.233273,5.75408946 329.101738,8.6165196 L454.92144,134.17152 C457.799668,137.043693 460.677897,140.736487 463.556125,145.249902 L318,145.249902 L318,9 L286.25,9 L286.25,151.617852 C286.25,159.050099 288.856771,165.36751 294.070312,170.570083 C299.283854,175.772656 305.614583,178.373943 313.0625,178.373943 L465,178.373943 L465,472.690949 C465,480.123197 462.393229,486.440607 457.179688,491.643181 C451.966146,496.845754 445.635417,499.447041 438.1875,499.447041 L62.8125,499.447041 C55.3645833,499.447041 49.0338542,496.845754 43.8203125,491.643181 C38.6067708,486.440607 36,480.123197 36,472.690949 L36,26.7560915 C36,19.3238438 38.6067708,13.0064334 43.8203125,7.80386001 C49.0338542,2.60128667 55.3645833,0 62.8125,0 L286.25,0 Z M357.75,384.056937 L357.75,366.219543 C357.75,363.618256 356.912109,361.481485 355.236328,359.809229 C353.560547,358.136973 351.419271,357.300845 348.8125,357.300845 L152.1875,357.300845 C149.580729,357.300845 147.439453,358.136973 145.763672,359.809229 C144.087891,361.481485 143.25,363.618256 143.25,366.219543 L143.25,384.056937 C143.25,386.658224 144.087891,388.794995 145.763672,390.467251 C147.439453,392.139506 149.580729,392.975634 152.1875,392.975634 L348.8125,392.975634 C351.419271,392.975634 353.560547,392.139506 355.236328,390.467251 C356.912109,388.794995 357.75,386.658224 357.75,384.056937 Z M357.75,312.70736 L357.75,294.869965 C357.75,292.268679 356.912109,290.131908 355.236328,288.459652 C353.560547,286.787396 351.419271,285.951268 348.8125,285.951268 L152.1875,285.951268 C149.580729,285.951268 147.439453,286.787396 145.763672,288.459652 C144.087891,290.131908 143.25,292.268679 143.25,294.869965 L143.25,312.70736 C143.25,315.308646 144.087891,317.445418 145.763672,319.117673 C147.439453,320.789929 149.580729,321.626057 152.1875,321.626057 L348.8125,321.626057 C351.419271,321.626057 353.560547,320.789929 355.236328,319.117673 C356.912109,317.445418 357.75,315.308646 357.75,312.70736 Z M357.75,241.357782 L357.75,223.520388 C357.75,220.919101 356.912109,218.78233 355.236328,217.110075 C353.560547,215.437819 351.419271,214.601691 348.8125,214.601691 L152.1875,214.601691 C149.580729,214.601691 147.439453,215.437819 145.763672,217.110075 C144.087891,218.78233 143.25,220.919101 143.25,223.520388 L143.25,241.357782 C143.25,243.959069 144.087891,246.09584 145.763672,247.768096 C147.439453,249.440352 149.580729,250.27648 152.1875,250.27648 L348.8125,250.27648 C351.419271,250.27648 353.560547,249.440352 355.236328,247.768096 C356.912109,246.09584 357.75,243.959069 357.75,241.357782 Z" id="Combined-Shape" fill="#9B9B9B" fill-rule="nonzero"></path>
    </g>
</svg>