<?xml version="1.0" encoding="utf-8"?>
<!-- Generator: Adobe Illustrator 15.0.0, SVG Export Plug-In . SVG Version: 6.00 Build 0)  -->
<!DOCTYPE svg PUBLIC "-//W3C//DTD SVG 1.1//EN" "http://www.w3.org/Graphics/SVG/1.1/DTD/svg11.dtd">
<svg version="1.1" id="Ebene_1" xmlns="http://www.w3.org/2000/svg" xmlns:xlink="http://www.w3.org/1999/xlink" x="0px" y="0px"
	 width="1138px" height="1188px" viewBox="0 0 1138 1188" enable-background="new 0 0 1138 1188" xml:space="preserve">
<title>Untitled</title>
<desc>Created with Sketch.</desc>
<path id="Fill-1" d="M796.662,596.368c-12.225-5.287-24.738-5.396-37.539-0.322c-12.801,5.07-21.84,13.72-27.127,25.947
	c-5.39,12.464-5.584,25.007-0.578,37.639c5.005,12.631,13.738,21.643,26.202,27.032c12.462,5.389,25.009,5.579,37.638,0.574
	c12.634-5.006,21.641-13.739,27.03-26.201c5.287-12.229,5.397-24.739,0.325-37.539C817.538,610.699,808.889,601.655,796.662,596.368
	"/>
<path id="Fill-3" d="M578.683,234.549c-24.89-10.761-49.947-11.146-75.172-1.15c-25.226,9.994-43.219,27.438-53.981,52.327
	c-10.761,24.89-11.145,49.945-1.148,75.171c9.994,25.224,27.438,43.217,52.325,53.98c24.89,10.76,49.947,11.146,75.171,1.15
	c25.227-9.996,43.222-27.438,53.98-52.327c10.763-24.89,11.146-49.947,1.15-75.171C621.012,263.304,603.571,245.31,578.683,234.549"
	/>
<path id="Fill-5" d="M922.697,675.115l-21.29,49.223c-1.624,3.751-20.664-0.167-57.118-11.754
	c-5.551,5.113-11.705,9.688-18.462,13.724c0.501,31.656-0.516,50.413-3.05,56.272c-0.405,0.938-1.227,1.556-2.472,1.854
	c-35.804,4.274-53.941,6.312-54.41,6.109c-1.877-0.812-4.885-8.648-9.031-23.521c-4.145-14.866-6.793-25.472-7.948-31.811
	c-4.889-1.559-8.507-2.846-10.854-3.859c-2.345-1.012-5.763-2.768-10.249-5.265c-5.408,3.503-14.954,8.841-28.627,16.003
	c-13.678,7.166-21.451,10.343-23.327,9.532c-0.469-0.201-11.407-14.809-32.813-43.813c-0.634-1.11-0.748-2.13-0.34-3.069
	c2.534-5.86,15.508-19.447,38.918-40.767c-1.685-7.686-2.562-15.298-2.638-22.845c-33.419-18.617-49.316-29.802-47.694-33.551
	l21.292-49.225c1.621-3.751,20.664,0.169,57.12,11.757c5.989-5.482,12.141-10.056,18.458-13.726
	c-0.497-31.654,0.52-50.412,3.054-56.272c0.405-0.938,1.227-1.554,2.471-1.854c1.139-0.061,6.258-0.631,15.35-1.711
	c9.096-1.075,17.735-2.07,25.922-2.983c8.188-0.914,12.517-1.267,12.984-1.064c1.877,0.811,4.914,8.592,9.106,23.344
	c4.196,14.749,6.869,25.294,8.024,31.636c4.891,1.56,8.511,2.845,10.855,3.859c2.343,1.012,5.761,2.77,10.246,5.264
	c19.157-11.474,35.621-19.937,49.39-25.393l2.414,0.208c0.938,0.407,11.927,14.895,32.969,43.466
	c0.633,1.109,0.749,2.132,0.34,3.068c-2.534,5.861-15.509,19.448-38.923,40.768c1.654,7.111,2.534,14.728,2.645,22.843
	C908.422,660.181,924.318,671.364,922.697,675.115 M585.848,564.979c-2.579-1.114-4.688-3-6.323-5.651l-26.758-49.129
	c-10.603,0.705-21.2,0.436-31.797-0.807c-13.528,24.199-24.083,41.201-31.663,51.001c-4.076,4.916-8.806,6.209-14.202,3.877
	l-65.416-28.277c-2.581-1.116-4.544-3.008-5.895-5.678c-1.349-2.672-1.634-5.228-0.854-7.674l15.178-57.29
	c-6.958-5.79-14.18-13.225-21.662-22.302l-55.038,13.354c-2.352,0.929-5.051,0.737-8.098-0.581
	c-2.581-1.113-4.637-3.115-6.171-6.005c-20.279-45.769-29.049-71.819-26.312-78.148c0.912-2.11,2.696-3.981,5.354-5.614
	c3.762-2.269,11.257-6.403,22.479-12.402c11.221-6,19.823-10.769,25.807-14.302c-0.932-12.644-0.876-24.028,0.163-34.151
	l-49.812-31.548c-2.245-1.246-3.755-3.221-4.534-5.924c-0.778-2.702-0.611-5.341,0.503-7.919l28.134-65.046
	c1.015-2.344,2.824-4.274,5.43-5.792s5.011-1.937,7.224-1.258l58.165,15.126c6.127-7.091,13.731-14.375,22.812-21.855
	c-3.104-14.699-7.825-32.738-14.164-54.118c-0.525-3.287-0.332-5.987,0.578-8.095c1.219-2.814,3.054-4.802,5.507-5.969
	c8.199-4.802,22.324-11.076,42.373-18.825c20.05-7.747,32.305-10.659,36.76-8.732c2.579,1.114,4.686,2.998,6.323,5.653
	l26.755,49.127c9.799-0.774,20.451-0.621,31.948,0.456c13.53-24.201,24.034-41.083,31.512-50.65
	c4.074-4.916,8.809-6.209,14.203-3.877l65.415,28.278c2.577,1.116,4.543,3.01,5.892,5.678c1.353,2.669,1.636,5.229,0.857,7.673
	l-15.181,57.291c6.961,5.79,14.185,13.225,21.663,22.301l55.04-13.353c2.585-0.829,5.284-0.636,8.098,0.58
	c2.581,1.116,4.634,3.118,6.168,6.005c20.279,45.771,29.054,71.819,26.315,78.148c-0.811,1.875-2.596,3.747-5.354,5.614
	c-4.435,2.536-12.095,6.737-22.984,12.602c-10.885,5.865-19.202,10.618-24.95,14.255c0.527,13.581,0.354,24.914-0.514,34
	l49.962,31.194c2.141,1.482,3.604,3.574,4.384,6.276s0.613,5.344-0.503,7.92l-28.135,65.045c-1.015,2.345-2.823,4.274-5.431,5.792
	c-2.602,1.518-5.012,1.937-7.224,1.259l-58.165-15.127c-6.124,7.089-13.73,14.375-22.812,21.855
	c3.104,14.698,7.826,32.735,14.166,54.117c0.523,3.287,0.334,5.985-0.581,8.098c-1.216,2.812-3,4.682-5.352,5.614
	c-8.434,4.702-22.643,11.009-42.626,18.924C602.521,563.912,590.301,566.906,585.848,564.979 M1131.277,357.078
	c-26.582-147.311-98.868-247.069-221.964-306.274c-47.561-22.838-97.689-37.289-158.54-45.689
	c-25.661-3.49-124.055-6.521-150.395-4.425C437.861,13.042,316.62,56.162,228.486,132.617
	C142.679,206.967,92.56,323.742,96.053,440.285c0.703,26.573,0.703,26.803,9.555,40.091c13.292,20.051,13.75,22.148,7.46,36.124
	c-5.36,11.418-29.613,48.478-66.453,101.622C13.981,665.206,0,689.207,0,697.828c0,22.608,27.282,42.889,63.421,47.544
	c9.554,1.165,18.419,3.733,20.978,5.83c6.293,5.831,5.36,22.379-2.801,46.382c-9.556,28.438-9.325,32.392,3.492,44.053
	c12.126,11.189,12.829,15.613,4.669,29.605c-9.096,16.083-7.931,21.441,7.457,35.892c12.125,11.188,13.293,13.288,13.061,21.445
	c-0.23,4.896-2.557,14.911-5.13,22.377c-6.765,19.35-8.16,33.8-4.896,49.642c5.832,27.738,21.22,48.707,44.769,60.6
	c30.074,15.386,57.589,20.512,124.271,24.246c52.689,2.8,63.881,3.965,79.271,8.158c13.751,3.965,24.484,13.988,31.479,29.604
	c5.132,11.893,10.259,44.284,8.865,56.635l-0.933,8.16H684.78c163.21,0,296.808-0.702,296.808-1.395
	c0-0.936-3.031-10.486-6.998-21.674c-51.294-149.411-40.332-280.868,34.271-416.287c7.228-12.812,28.678-49.412,47.803-81.341
	c51.294-84.846,71.108-128.655,79.039-174.807C1139.668,468.726,1137.11,389.712,1131.277,357.078"/>
</svg>
