<?xml version="1.0" encoding="utf-8"?>
<!-- Generator: Adobe Illustrator 15.0.0, SVG Export Plug-In . SVG Version: 6.00 Build 0)  -->
<!DOCTYPE svg PUBLIC "-//W3C//DTD SVG 1.1//EN" "http://www.w3.org/Graphics/SVG/1.1/DTD/svg11.dtd">
<svg version="1.1" id="Ebene_1" xmlns="http://www.w3.org/2000/svg" xmlns:xlink="http://www.w3.org/1999/xlink" x="0px" y="0px"
	 width="1792px" height="1792px" viewBox="0 0 1792 1792" enable-background="new 0 0 1792 1792" xml:space="preserve">
<path d="M612.929,235.5c6.388,0,11.917,2.334,16.586,7.003c4.668,4.668,7.003,10.197,7.003,16.585v1085.107
	c0,9.828-4.178,16.709-12.532,20.641l-353.839,188.715c-3.44,1.966-7.126,2.948-11.058,2.948c-6.389,0-11.918-2.334-16.586-7.003
	c-4.669-4.668-7.003-10.197-7.003-16.586V447.803c0-9.829,4.177-16.708,12.532-20.641l353.839-188.714
	C605.311,236.483,608.997,235.5,612.929,235.5z M1532.911,235.5c6.388,0,11.917,2.334,16.586,7.003
	c4.669,4.668,7.003,10.197,7.003,16.585v1085.107c0,9.828-4.178,16.709-12.532,20.641l-353.839,188.715
	c-3.44,1.966-7.126,2.948-11.058,2.948c-6.389,0-11.917-2.334-16.586-7.003c-4.669-4.668-7.003-10.197-7.003-16.586V447.803
	c0-9.829,4.177-16.708,12.531-20.641l353.84-188.714C1525.293,236.483,1528.979,235.5,1532.911,235.5z M707.286,235.5
	c3.931,0,7.372,0.737,10.32,2.212l377.428,188.714c8.847,4.915,13.27,12.041,13.27,21.377v1085.108
	c0,6.389-2.335,11.918-7.003,16.586c-4.67,4.669-10.198,7.003-16.587,7.003c-3.932,0-7.371-0.737-10.32-2.212l-377.428-188.714
	c-8.846-4.914-13.269-12.04-13.269-21.378V259.089c0-6.388,2.334-11.917,7.003-16.585C695.368,237.834,700.897,235.5,707.286,235.5z
	"/>
</svg>
