<?xml version="1.0" encoding="utf-8"?>
<!-- Generator: Adobe Illustrator 15.0.0, SVG Export Plug-In . SVG Version: 6.00 Build 0)  -->
<!DOCTYPE svg PUBLIC "-//W3C//DTD SVG 1.1//EN" "http://www.w3.org/Graphics/SVG/1.1/DTD/svg11.dtd">
<svg version="1.1" id="Ebene_1" xmlns="http://www.w3.org/2000/svg" xmlns:xlink="http://www.w3.org/1999/xlink" x="0px" y="0px"
	 width="1792px" height="1792px" viewBox="0 0 1792 1792" enable-background="new 0 0 1792 1792" xml:space="preserve">
<path d="M576,1551.015v-192c0-9.333-3-17-9-23s-13.667-9-23-9H224c-9.334,0-17,3-23,9s-9,13.667-9,23v192c0,9.333,3,17,9,23
	s13.666,9,23,9h320c9.333,0,17-3,23-9S576,1560.348,576,1551.015z M576,1167.015v-192c0-9.333-3-17-9-23s-13.667-9-23-9H224
	c-9.334,0-17,3-23,9s-9,13.667-9,23v192c0,9.333,3,17,9,23s13.666,9,23,9h320c9.333,0,17-3,23-9S576,1176.348,576,1167.015z
	 M1088,1551.015v-192c0-9.333-3-17-9-23s-13.667-9-23-9H736c-9.334,0-17,3-23,9s-9,13.667-9,23v192c0,9.333,3,17,9,23s13.666,9,23,9
	h320c9.333,0,17-3,23-9S1088,1560.348,1088,1551.015z M576,783.015v-192c0-9.333-3-17-9-23s-13.667-9-23-9H224c-9.334,0-17,3-23,9
	s-9,13.667-9,23v192c0,9.333,3,17,9,23s13.666,9,23,9h320c9.333,0,17-3,23-9S576,792.348,576,783.015z M1088,1167.015v-192
	c0-9.333-3-17-9-23s-13.667-9-23-9H736c-9.334,0-17,3-23,9s-9,13.667-9,23v192c0,9.333,3,17,9,23s13.666,9,23,9h320
	c9.333,0,17-3,23-9S1088,1176.348,1088,1167.015z M1600,1551.015v-192c0-9.333-3-17-9-23s-13.667-9-23-9h-320c-9.334,0-17,3-23,9
	s-9,13.667-9,23v192c0,9.333,3,17,9,23s13.666,9,23,9h320c9.333,0,17-3,23-9S1600,1560.348,1600,1551.015z M1088,783.015v-192
	c0-9.333-3-17-9-23s-13.667-9-23-9H736c-9.334,0-17,3-23,9s-9,13.667-9,23v192c0,9.333,3,17,9,23s13.666,9,23,9h320
	c9.333,0,17-3,23-9S1088,792.348,1088,783.015z M1600,1167.015v-192c0-9.333-3-17-9-23s-13.667-9-23-9h-320c-9.334,0-17,3-23,9
	s-9,13.667-9,23v192c0,9.333,3,17,9,23s13.666,9,23,9h320c9.333,0,17-3,23-9S1600,1176.348,1600,1167.015z M1600,783.015v-192
	c0-9.333-3-17-9-23s-13.667-9-23-9h-320c-9.334,0-17,3-23,9s-9,13.667-9,23v192c0,9.333,3,17,9,23s13.666,9,23,9h320
	c9.333,0,17-3,23-9S1600,792.348,1600,783.015z M1728,463.015v1088c0,44-15.667,81.667-47,113c-31.334,31.333-69,47-113,47H224
	c-44,0-81.667-15.667-113-47c-31.334-31.333-47-69-47-113v-1088c0-44,15.666-81.667,47-113c31.333-31.333,69-47,113-47h1344
	c44,0,81.666,15.667,113,47C1712.333,381.348,1728,419.015,1728,463.015z"/>
</svg>
